G75*
G70*
%OFA0B0*%
%FSLAX24Y24*%
%IPPOS*%
%LPD*%
%AMOC8*
5,1,8,0,0,1.08239X$1,22.5*
%
%ADD10C,0.0080*%
%ADD11C,0.0010*%
%ADD12C,0.0040*%
%ADD13R,0.0197X0.0374*%
%ADD14R,0.0180X0.0300*%
%ADD15R,0.0157X0.0354*%
%ADD16R,0.0118X0.0059*%
%ADD17R,0.0118X0.0118*%
%ADD18C,0.0060*%
%ADD19R,0.0200X0.0050*%
%ADD20R,0.0230X0.0720*%
%ADD21C,0.0050*%
D10*
X001859Y000257D02*
X001859Y002305D01*
X001859Y002895D01*
X001859Y006122D01*
X006840Y006122D01*
X006840Y002305D01*
X006840Y000257D01*
X001859Y000257D01*
X001859Y002305D02*
X001828Y002319D01*
X001799Y002337D01*
X001772Y002358D01*
X001748Y002382D01*
X001726Y002408D01*
X001707Y002437D01*
X001691Y002467D01*
X001678Y002499D01*
X001669Y002532D01*
X001664Y002566D01*
X001662Y002600D01*
X001664Y002634D01*
X001669Y002668D01*
X001678Y002701D01*
X001691Y002733D01*
X001707Y002763D01*
X001726Y002792D01*
X001748Y002818D01*
X001772Y002842D01*
X001799Y002863D01*
X001828Y002881D01*
X001859Y002895D01*
X006840Y002895D02*
X006871Y002881D01*
X006900Y002863D01*
X006927Y002842D01*
X006951Y002818D01*
X006973Y002792D01*
X006992Y002763D01*
X007008Y002733D01*
X007021Y002701D01*
X007030Y002668D01*
X007035Y002634D01*
X007037Y002600D01*
X007035Y002566D01*
X007030Y002532D01*
X007021Y002499D01*
X007008Y002467D01*
X006992Y002437D01*
X006973Y002408D01*
X006951Y002382D01*
X006927Y002358D01*
X006900Y002337D01*
X006871Y002319D01*
X006840Y002305D01*
X007859Y002305D02*
X007859Y002895D01*
X007859Y006122D01*
X012840Y006122D01*
X012840Y002305D01*
X012840Y000257D01*
X007859Y000257D01*
X007859Y002305D01*
X007828Y002319D01*
X007799Y002337D01*
X007772Y002358D01*
X007748Y002382D01*
X007726Y002408D01*
X007707Y002437D01*
X007691Y002467D01*
X007678Y002499D01*
X007669Y002532D01*
X007664Y002566D01*
X007662Y002600D01*
X007664Y002634D01*
X007669Y002668D01*
X007678Y002701D01*
X007691Y002733D01*
X007707Y002763D01*
X007726Y002792D01*
X007748Y002818D01*
X007772Y002842D01*
X007799Y002863D01*
X007828Y002881D01*
X007859Y002895D01*
X012840Y002895D02*
X012871Y002881D01*
X012900Y002863D01*
X012927Y002842D01*
X012951Y002818D01*
X012973Y002792D01*
X012992Y002763D01*
X013008Y002733D01*
X013021Y002701D01*
X013030Y002668D01*
X013035Y002634D01*
X013037Y002600D01*
X013035Y002566D01*
X013030Y002532D01*
X013021Y002499D01*
X013008Y002467D01*
X012992Y002437D01*
X012973Y002408D01*
X012951Y002382D01*
X012927Y002358D01*
X012900Y002337D01*
X012871Y002319D01*
X012840Y002305D01*
X013859Y002305D02*
X013859Y002895D01*
X013859Y006122D01*
X018840Y006122D01*
X018840Y002305D01*
X018840Y000257D01*
X013859Y000257D01*
X013859Y002305D01*
X013828Y002319D01*
X013799Y002337D01*
X013772Y002358D01*
X013748Y002382D01*
X013726Y002408D01*
X013707Y002437D01*
X013691Y002467D01*
X013678Y002499D01*
X013669Y002532D01*
X013664Y002566D01*
X013662Y002600D01*
X013664Y002634D01*
X013669Y002668D01*
X013678Y002701D01*
X013691Y002733D01*
X013707Y002763D01*
X013726Y002792D01*
X013748Y002818D01*
X013772Y002842D01*
X013799Y002863D01*
X013828Y002881D01*
X013859Y002895D01*
X018840Y002895D02*
X018871Y002881D01*
X018900Y002863D01*
X018927Y002842D01*
X018951Y002818D01*
X018973Y002792D01*
X018992Y002763D01*
X019008Y002733D01*
X019021Y002701D01*
X019030Y002668D01*
X019035Y002634D01*
X019037Y002600D01*
X019035Y002566D01*
X019030Y002532D01*
X019021Y002499D01*
X019008Y002467D01*
X018992Y002437D01*
X018973Y002408D01*
X018951Y002382D01*
X018927Y002358D01*
X018900Y002337D01*
X018871Y002319D01*
X018840Y002305D01*
X019859Y002305D02*
X019859Y002895D01*
X019859Y006122D01*
X024840Y006122D01*
X024840Y002305D01*
X024840Y000257D01*
X019859Y000257D01*
X019859Y002305D01*
X019828Y002319D01*
X019799Y002337D01*
X019772Y002358D01*
X019748Y002382D01*
X019726Y002408D01*
X019707Y002437D01*
X019691Y002467D01*
X019678Y002499D01*
X019669Y002532D01*
X019664Y002566D01*
X019662Y002600D01*
X019664Y002634D01*
X019669Y002668D01*
X019678Y002701D01*
X019691Y002733D01*
X019707Y002763D01*
X019726Y002792D01*
X019748Y002818D01*
X019772Y002842D01*
X019799Y002863D01*
X019828Y002881D01*
X019859Y002895D01*
X024840Y002895D02*
X024871Y002881D01*
X024900Y002863D01*
X024927Y002842D01*
X024951Y002818D01*
X024973Y002792D01*
X024992Y002763D01*
X025008Y002733D01*
X025021Y002701D01*
X025030Y002668D01*
X025035Y002634D01*
X025037Y002600D01*
X025035Y002566D01*
X025030Y002532D01*
X025021Y002499D01*
X025008Y002467D01*
X024992Y002437D01*
X024973Y002408D01*
X024951Y002382D01*
X024927Y002358D01*
X024900Y002337D01*
X024871Y002319D01*
X024840Y002305D01*
X025859Y002305D02*
X025859Y002895D01*
X025859Y006122D01*
X030840Y006122D01*
X030840Y002305D01*
X030840Y000257D01*
X025859Y000257D01*
X025859Y002305D01*
X025828Y002319D01*
X025799Y002337D01*
X025772Y002358D01*
X025748Y002382D01*
X025726Y002408D01*
X025707Y002437D01*
X025691Y002467D01*
X025678Y002499D01*
X025669Y002532D01*
X025664Y002566D01*
X025662Y002600D01*
X025664Y002634D01*
X025669Y002668D01*
X025678Y002701D01*
X025691Y002733D01*
X025707Y002763D01*
X025726Y002792D01*
X025748Y002818D01*
X025772Y002842D01*
X025799Y002863D01*
X025828Y002881D01*
X025859Y002895D01*
X030840Y002895D02*
X030871Y002881D01*
X030900Y002863D01*
X030927Y002842D01*
X030951Y002818D01*
X030973Y002792D01*
X030992Y002763D01*
X031008Y002733D01*
X031021Y002701D01*
X031030Y002668D01*
X031035Y002634D01*
X031037Y002600D01*
X031035Y002566D01*
X031030Y002532D01*
X031021Y002499D01*
X031008Y002467D01*
X030992Y002437D01*
X030973Y002408D01*
X030951Y002382D01*
X030927Y002358D01*
X030900Y002337D01*
X030871Y002319D01*
X030840Y002305D01*
X029828Y007110D02*
X033054Y007110D01*
X033645Y007110D01*
X035692Y007110D01*
X035692Y012090D01*
X033645Y012090D01*
X029828Y012090D01*
X029828Y007110D01*
X033054Y007110D02*
X033068Y007079D01*
X033086Y007050D01*
X033107Y007023D01*
X033131Y006999D01*
X033157Y006977D01*
X033186Y006958D01*
X033216Y006942D01*
X033248Y006929D01*
X033281Y006920D01*
X033315Y006915D01*
X033349Y006913D01*
X033383Y006915D01*
X033417Y006920D01*
X033450Y006929D01*
X033482Y006942D01*
X033512Y006958D01*
X033541Y006977D01*
X033567Y006999D01*
X033591Y007023D01*
X033612Y007050D01*
X033630Y007079D01*
X033644Y007110D01*
X033644Y012090D02*
X033630Y012121D01*
X033612Y012150D01*
X033591Y012177D01*
X033567Y012201D01*
X033541Y012223D01*
X033512Y012242D01*
X033482Y012258D01*
X033450Y012271D01*
X033417Y012280D01*
X033383Y012285D01*
X033349Y012287D01*
X033315Y012285D01*
X033281Y012280D01*
X033248Y012271D01*
X033216Y012258D01*
X033186Y012242D01*
X033157Y012223D01*
X033131Y012201D01*
X033107Y012177D01*
X033086Y012150D01*
X033068Y012121D01*
X033054Y012090D01*
X033054Y013110D02*
X033645Y013110D01*
X035692Y013110D01*
X035692Y018090D01*
X033645Y018090D01*
X029828Y018090D01*
X029828Y013110D01*
X033054Y013110D01*
X033068Y013079D01*
X033086Y013050D01*
X033107Y013023D01*
X033131Y012999D01*
X033157Y012977D01*
X033186Y012958D01*
X033216Y012942D01*
X033248Y012929D01*
X033281Y012920D01*
X033315Y012915D01*
X033349Y012913D01*
X033383Y012915D01*
X033417Y012920D01*
X033450Y012929D01*
X033482Y012942D01*
X033512Y012958D01*
X033541Y012977D01*
X033567Y012999D01*
X033591Y013023D01*
X033612Y013050D01*
X033630Y013079D01*
X033644Y013110D01*
X033644Y018090D02*
X033630Y018121D01*
X033612Y018150D01*
X033591Y018177D01*
X033567Y018201D01*
X033541Y018223D01*
X033512Y018242D01*
X033482Y018258D01*
X033450Y018271D01*
X033417Y018280D01*
X033383Y018285D01*
X033349Y018287D01*
X033315Y018285D01*
X033281Y018280D01*
X033248Y018271D01*
X033216Y018258D01*
X033186Y018242D01*
X033157Y018223D01*
X033131Y018201D01*
X033107Y018177D01*
X033086Y018150D01*
X033068Y018121D01*
X033054Y018090D01*
X030840Y019078D02*
X030840Y022305D01*
X030840Y022895D01*
X030840Y024943D01*
X025859Y024943D01*
X025859Y022895D01*
X025859Y019078D01*
X030840Y019078D01*
X030840Y022305D02*
X030871Y022319D01*
X030900Y022337D01*
X030927Y022358D01*
X030951Y022382D01*
X030973Y022408D01*
X030992Y022437D01*
X031008Y022467D01*
X031021Y022499D01*
X031030Y022532D01*
X031035Y022566D01*
X031037Y022600D01*
X031035Y022634D01*
X031030Y022668D01*
X031021Y022701D01*
X031008Y022733D01*
X030992Y022763D01*
X030973Y022792D01*
X030951Y022818D01*
X030927Y022842D01*
X030900Y022863D01*
X030871Y022881D01*
X030840Y022895D01*
X025859Y022895D02*
X025828Y022881D01*
X025799Y022863D01*
X025772Y022842D01*
X025748Y022818D01*
X025726Y022792D01*
X025707Y022763D01*
X025691Y022733D01*
X025678Y022701D01*
X025669Y022668D01*
X025664Y022634D01*
X025662Y022600D01*
X025664Y022566D01*
X025669Y022532D01*
X025678Y022499D01*
X025691Y022467D01*
X025707Y022437D01*
X025726Y022408D01*
X025748Y022382D01*
X025772Y022358D01*
X025799Y022337D01*
X025828Y022319D01*
X025859Y022305D01*
X024840Y022305D02*
X024840Y022895D01*
X024840Y024943D01*
X019859Y024943D01*
X019859Y022895D01*
X019859Y019078D01*
X024840Y019078D01*
X024840Y022305D01*
X024871Y022319D01*
X024900Y022337D01*
X024927Y022358D01*
X024951Y022382D01*
X024973Y022408D01*
X024992Y022437D01*
X025008Y022467D01*
X025021Y022499D01*
X025030Y022532D01*
X025035Y022566D01*
X025037Y022600D01*
X025035Y022634D01*
X025030Y022668D01*
X025021Y022701D01*
X025008Y022733D01*
X024992Y022763D01*
X024973Y022792D01*
X024951Y022818D01*
X024927Y022842D01*
X024900Y022863D01*
X024871Y022881D01*
X024840Y022895D01*
X019859Y022895D02*
X019828Y022881D01*
X019799Y022863D01*
X019772Y022842D01*
X019748Y022818D01*
X019726Y022792D01*
X019707Y022763D01*
X019691Y022733D01*
X019678Y022701D01*
X019669Y022668D01*
X019664Y022634D01*
X019662Y022600D01*
X019664Y022566D01*
X019669Y022532D01*
X019678Y022499D01*
X019691Y022467D01*
X019707Y022437D01*
X019726Y022408D01*
X019748Y022382D01*
X019772Y022358D01*
X019799Y022337D01*
X019828Y022319D01*
X019859Y022305D01*
X018840Y022305D02*
X018840Y022895D01*
X018840Y024943D01*
X013859Y024943D01*
X013859Y022895D01*
X013859Y019078D01*
X018840Y019078D01*
X018840Y022305D01*
X018871Y022319D01*
X018900Y022337D01*
X018927Y022358D01*
X018951Y022382D01*
X018973Y022408D01*
X018992Y022437D01*
X019008Y022467D01*
X019021Y022499D01*
X019030Y022532D01*
X019035Y022566D01*
X019037Y022600D01*
X019035Y022634D01*
X019030Y022668D01*
X019021Y022701D01*
X019008Y022733D01*
X018992Y022763D01*
X018973Y022792D01*
X018951Y022818D01*
X018927Y022842D01*
X018900Y022863D01*
X018871Y022881D01*
X018840Y022895D01*
X013859Y022895D02*
X013828Y022881D01*
X013799Y022863D01*
X013772Y022842D01*
X013748Y022818D01*
X013726Y022792D01*
X013707Y022763D01*
X013691Y022733D01*
X013678Y022701D01*
X013669Y022668D01*
X013664Y022634D01*
X013662Y022600D01*
X013664Y022566D01*
X013669Y022532D01*
X013678Y022499D01*
X013691Y022467D01*
X013707Y022437D01*
X013726Y022408D01*
X013748Y022382D01*
X013772Y022358D01*
X013799Y022337D01*
X013828Y022319D01*
X013859Y022305D01*
X012840Y022305D02*
X012840Y022895D01*
X012840Y024943D01*
X007859Y024943D01*
X007859Y022895D01*
X007859Y019078D01*
X012840Y019078D01*
X012840Y022305D01*
X012871Y022319D01*
X012900Y022337D01*
X012927Y022358D01*
X012951Y022382D01*
X012973Y022408D01*
X012992Y022437D01*
X013008Y022467D01*
X013021Y022499D01*
X013030Y022532D01*
X013035Y022566D01*
X013037Y022600D01*
X013035Y022634D01*
X013030Y022668D01*
X013021Y022701D01*
X013008Y022733D01*
X012992Y022763D01*
X012973Y022792D01*
X012951Y022818D01*
X012927Y022842D01*
X012900Y022863D01*
X012871Y022881D01*
X012840Y022895D01*
X007859Y022895D02*
X007828Y022881D01*
X007799Y022863D01*
X007772Y022842D01*
X007748Y022818D01*
X007726Y022792D01*
X007707Y022763D01*
X007691Y022733D01*
X007678Y022701D01*
X007669Y022668D01*
X007664Y022634D01*
X007662Y022600D01*
X007664Y022566D01*
X007669Y022532D01*
X007678Y022499D01*
X007691Y022467D01*
X007707Y022437D01*
X007726Y022408D01*
X007748Y022382D01*
X007772Y022358D01*
X007799Y022337D01*
X007828Y022319D01*
X007859Y022305D01*
X006840Y022305D02*
X006840Y022895D01*
X006840Y024943D01*
X001859Y024943D01*
X001859Y022895D01*
X001859Y019078D01*
X006840Y019078D01*
X006840Y022305D01*
X006871Y022319D01*
X006900Y022337D01*
X006927Y022358D01*
X006951Y022382D01*
X006973Y022408D01*
X006992Y022437D01*
X007008Y022467D01*
X007021Y022499D01*
X007030Y022532D01*
X007035Y022566D01*
X007037Y022600D01*
X007035Y022634D01*
X007030Y022668D01*
X007021Y022701D01*
X007008Y022733D01*
X006992Y022763D01*
X006973Y022792D01*
X006951Y022818D01*
X006927Y022842D01*
X006900Y022863D01*
X006871Y022881D01*
X006840Y022895D01*
X001859Y022895D02*
X001828Y022881D01*
X001799Y022863D01*
X001772Y022842D01*
X001748Y022818D01*
X001726Y022792D01*
X001707Y022763D01*
X001691Y022733D01*
X001678Y022701D01*
X001669Y022668D01*
X001664Y022634D01*
X001662Y022600D01*
X001664Y022566D01*
X001669Y022532D01*
X001678Y022499D01*
X001691Y022467D01*
X001707Y022437D01*
X001726Y022408D01*
X001748Y022382D01*
X001772Y022358D01*
X001799Y022337D01*
X001828Y022319D01*
X001859Y022305D01*
X013405Y014994D02*
X013405Y014206D01*
X013956Y014206D01*
X014231Y014364D02*
X014468Y014600D01*
X014231Y014836D01*
X014231Y014364D01*
X014468Y014324D02*
X014468Y014600D01*
X014468Y014876D01*
X014743Y014994D02*
X015294Y014994D01*
X015294Y014206D01*
X014743Y014206D01*
X014743Y013619D02*
X015294Y013619D01*
X015294Y012831D01*
X014743Y012831D01*
X014468Y012949D02*
X014468Y013225D01*
X014231Y012989D01*
X014231Y013461D01*
X014468Y013225D01*
X014468Y013501D01*
X013956Y013619D02*
X013405Y013619D01*
X013405Y012831D01*
X013956Y012831D01*
X013956Y012369D02*
X013405Y012369D01*
X013405Y011581D01*
X013956Y011581D01*
X014231Y011739D02*
X014468Y011975D01*
X014231Y012211D01*
X014231Y011739D01*
X014468Y011699D02*
X014468Y011975D01*
X014468Y012251D01*
X014743Y012369D02*
X015294Y012369D01*
X015294Y011581D01*
X014743Y011581D01*
X013956Y014994D02*
X013405Y014994D01*
D11*
X014004Y014055D02*
X014004Y013905D01*
X013954Y013905D02*
X014054Y013905D01*
X014102Y013905D02*
X014102Y014055D01*
X014202Y013905D01*
X014202Y014055D01*
X014249Y014055D02*
X014249Y013980D01*
X014299Y014005D01*
X014324Y014005D01*
X014349Y013980D01*
X014349Y013930D01*
X014324Y013905D01*
X014274Y013905D01*
X014249Y013930D01*
X014249Y014055D02*
X014349Y014055D01*
X014396Y014030D02*
X014421Y014055D01*
X014471Y014055D01*
X014496Y014030D01*
X014496Y014005D01*
X014471Y013980D01*
X014421Y013980D01*
X014396Y014005D01*
X014396Y014030D01*
X014421Y013980D02*
X014396Y013955D01*
X014396Y013930D01*
X014421Y013905D01*
X014471Y013905D01*
X014496Y013930D01*
X014496Y013955D01*
X014471Y013980D01*
X014544Y014005D02*
X014594Y014055D01*
X014594Y013905D01*
X014544Y013905D02*
X014644Y013905D01*
X014691Y013905D02*
X014766Y013905D01*
X014791Y013930D01*
X014791Y014030D01*
X014766Y014055D01*
X014691Y014055D01*
X014691Y013905D01*
X014838Y013905D02*
X014938Y013905D01*
X014986Y013905D02*
X015086Y014005D01*
X015086Y014030D01*
X015061Y014055D01*
X015011Y014055D01*
X014986Y014030D01*
X014888Y014055D02*
X014888Y013905D01*
X014986Y013905D02*
X015086Y013905D01*
X015133Y013930D02*
X015233Y014030D01*
X015233Y013930D01*
X015208Y013905D01*
X015158Y013905D01*
X015133Y013930D01*
X015133Y014030D01*
X015158Y014055D01*
X015208Y014055D01*
X015233Y014030D01*
X015280Y013980D02*
X015355Y013980D01*
X015380Y013955D01*
X015380Y013930D01*
X015355Y013905D01*
X015305Y013905D01*
X015280Y013930D01*
X015280Y013980D01*
X015330Y014030D01*
X015380Y014055D01*
X014888Y014055D02*
X014838Y014005D01*
X014004Y014055D02*
X013954Y014005D01*
X014004Y012680D02*
X013954Y012630D01*
X014004Y012680D02*
X014004Y012530D01*
X013954Y012530D02*
X014054Y012530D01*
X014102Y012530D02*
X014102Y012680D01*
X014202Y012530D01*
X014202Y012680D01*
X014249Y012680D02*
X014249Y012605D01*
X014299Y012630D01*
X014324Y012630D01*
X014349Y012605D01*
X014349Y012555D01*
X014324Y012530D01*
X014274Y012530D01*
X014249Y012555D01*
X014249Y012680D02*
X014349Y012680D01*
X014396Y012655D02*
X014396Y012630D01*
X014421Y012605D01*
X014471Y012605D01*
X014496Y012580D01*
X014496Y012555D01*
X014471Y012530D01*
X014421Y012530D01*
X014396Y012555D01*
X014396Y012580D01*
X014421Y012605D01*
X014471Y012605D02*
X014496Y012630D01*
X014496Y012655D01*
X014471Y012680D01*
X014421Y012680D01*
X014396Y012655D01*
X014544Y012630D02*
X014594Y012680D01*
X014594Y012530D01*
X014544Y012530D02*
X014644Y012530D01*
X014691Y012530D02*
X014766Y012530D01*
X014791Y012555D01*
X014791Y012655D01*
X014766Y012680D01*
X014691Y012680D01*
X014691Y012530D01*
X014838Y012530D02*
X014938Y012530D01*
X014986Y012530D02*
X015086Y012630D01*
X015086Y012655D01*
X015061Y012680D01*
X015011Y012680D01*
X014986Y012655D01*
X014888Y012680D02*
X014888Y012530D01*
X014986Y012530D02*
X015086Y012530D01*
X015133Y012555D02*
X015158Y012530D01*
X015208Y012530D01*
X015233Y012555D01*
X015233Y012655D01*
X015133Y012555D01*
X015133Y012655D01*
X015158Y012680D01*
X015208Y012680D01*
X015233Y012655D01*
X015280Y012605D02*
X015355Y012605D01*
X015380Y012580D01*
X015380Y012555D01*
X015355Y012530D01*
X015305Y012530D01*
X015280Y012555D01*
X015280Y012605D01*
X015330Y012655D01*
X015380Y012680D01*
X014888Y012680D02*
X014838Y012630D01*
X014888Y011430D02*
X014888Y011280D01*
X014838Y011280D02*
X014938Y011280D01*
X014986Y011280D02*
X015086Y011380D01*
X015086Y011405D01*
X015061Y011430D01*
X015011Y011430D01*
X014986Y011405D01*
X014888Y011430D02*
X014838Y011380D01*
X014791Y011405D02*
X014766Y011430D01*
X014691Y011430D01*
X014691Y011280D01*
X014766Y011280D01*
X014791Y011305D01*
X014791Y011405D01*
X014644Y011280D02*
X014544Y011280D01*
X014594Y011280D02*
X014594Y011430D01*
X014544Y011380D01*
X014496Y011380D02*
X014471Y011355D01*
X014421Y011355D01*
X014396Y011380D01*
X014396Y011405D01*
X014421Y011430D01*
X014471Y011430D01*
X014496Y011405D01*
X014496Y011380D01*
X014471Y011355D02*
X014496Y011330D01*
X014496Y011305D01*
X014471Y011280D01*
X014421Y011280D01*
X014396Y011305D01*
X014396Y011330D01*
X014421Y011355D01*
X014349Y011355D02*
X014349Y011305D01*
X014324Y011280D01*
X014274Y011280D01*
X014249Y011305D01*
X014249Y011355D02*
X014299Y011380D01*
X014324Y011380D01*
X014349Y011355D01*
X014349Y011430D02*
X014249Y011430D01*
X014249Y011355D01*
X014202Y011280D02*
X014202Y011430D01*
X014102Y011430D02*
X014202Y011280D01*
X014102Y011280D02*
X014102Y011430D01*
X014004Y011430D02*
X014004Y011280D01*
X013954Y011280D02*
X014054Y011280D01*
X013954Y011380D02*
X014004Y011430D01*
X014986Y011280D02*
X015086Y011280D01*
X015133Y011305D02*
X015158Y011280D01*
X015208Y011280D01*
X015233Y011305D01*
X015233Y011405D01*
X015133Y011305D01*
X015133Y011405D01*
X015158Y011430D01*
X015208Y011430D01*
X015233Y011405D01*
X015280Y011355D02*
X015355Y011355D01*
X015380Y011330D01*
X015380Y011305D01*
X015355Y011280D01*
X015305Y011280D01*
X015280Y011305D01*
X015280Y011355D01*
X015330Y011405D01*
X015380Y011430D01*
X013249Y009055D02*
X013249Y008905D01*
X013249Y008955D02*
X013324Y009005D01*
X013249Y008955D02*
X013324Y008905D01*
X013202Y008930D02*
X013202Y009030D01*
X013102Y008930D01*
X013127Y008905D01*
X013177Y008905D01*
X013202Y008930D01*
X013202Y009030D02*
X013177Y009055D01*
X013127Y009055D01*
X013102Y009030D01*
X013102Y008930D01*
X013054Y008905D02*
X012954Y008905D01*
X013004Y008905D02*
X013004Y009055D01*
X012954Y009005D01*
X011901Y005290D02*
X011901Y005083D01*
X011797Y004980D01*
X011694Y005083D01*
X011694Y005290D01*
X011606Y005239D02*
X011554Y005290D01*
X011451Y005290D01*
X011399Y005239D01*
X011208Y005290D02*
X011208Y004980D01*
X011311Y004980D02*
X011104Y004980D01*
X010927Y005032D02*
X010876Y004980D01*
X010772Y004980D01*
X010720Y005032D01*
X010720Y005239D01*
X010772Y005290D01*
X010876Y005290D01*
X010927Y005239D01*
X010927Y005032D01*
X011104Y005187D02*
X011208Y005290D01*
X011399Y004980D02*
X011606Y005187D01*
X011606Y005239D01*
X011606Y004980D02*
X011399Y004980D01*
X010633Y005290D02*
X010426Y004980D01*
X010333Y004980D02*
X010229Y004980D01*
X010281Y004980D02*
X010281Y005290D01*
X010229Y005290D02*
X010333Y005290D01*
X009981Y005290D02*
X009981Y005083D01*
X009877Y004980D01*
X009774Y005083D01*
X009774Y005290D01*
X009686Y005290D02*
X009479Y005290D01*
X009479Y005135D01*
X009583Y005187D01*
X009635Y005187D01*
X009686Y005135D01*
X009686Y005032D01*
X009635Y004980D01*
X009531Y004980D01*
X009479Y005032D01*
X009524Y003040D02*
X009731Y002730D01*
X009731Y003040D01*
X009819Y003040D02*
X009974Y003040D01*
X010026Y002989D01*
X010026Y002782D01*
X009974Y002730D01*
X009819Y002730D01*
X009819Y003040D01*
X009524Y003040D02*
X009524Y002730D01*
X009436Y002782D02*
X009385Y002730D01*
X009281Y002730D01*
X009229Y002782D01*
X009229Y002989D01*
X009281Y003040D01*
X009385Y003040D01*
X009436Y002989D01*
X009436Y002885D02*
X009333Y002885D01*
X009436Y002885D02*
X009436Y002782D01*
X010354Y002833D02*
X010510Y002833D01*
X010561Y002885D01*
X010561Y002989D01*
X010510Y003040D01*
X010354Y003040D01*
X010354Y002730D01*
X010649Y002730D02*
X010752Y002833D01*
X010856Y002730D01*
X010856Y003040D01*
X010944Y003040D02*
X011047Y002937D01*
X011151Y003040D01*
X011151Y002730D01*
X010944Y002730D02*
X010944Y003040D01*
X010649Y003040D02*
X010649Y002730D01*
X015229Y002782D02*
X015281Y002730D01*
X015385Y002730D01*
X015436Y002782D01*
X015436Y002885D01*
X015333Y002885D01*
X015436Y002989D02*
X015385Y003040D01*
X015281Y003040D01*
X015229Y002989D01*
X015229Y002782D01*
X015524Y002730D02*
X015524Y003040D01*
X015731Y002730D01*
X015731Y003040D01*
X015819Y003040D02*
X015974Y003040D01*
X016026Y002989D01*
X016026Y002782D01*
X015974Y002730D01*
X015819Y002730D01*
X015819Y003040D01*
X016354Y003040D02*
X016510Y003040D01*
X016561Y002989D01*
X016561Y002885D01*
X016510Y002833D01*
X016354Y002833D01*
X016354Y002730D02*
X016354Y003040D01*
X016649Y003040D02*
X016649Y002730D01*
X016752Y002833D01*
X016856Y002730D01*
X016856Y003040D01*
X016944Y003040D02*
X017047Y002937D01*
X017151Y003040D01*
X017151Y002730D01*
X016944Y002730D02*
X016944Y003040D01*
X016876Y004980D02*
X016772Y004980D01*
X016720Y005032D01*
X016720Y005239D01*
X016772Y005290D01*
X016876Y005290D01*
X016927Y005239D01*
X016927Y005032D01*
X016876Y004980D01*
X017104Y004980D02*
X017311Y004980D01*
X017399Y004980D02*
X017606Y005187D01*
X017606Y005239D01*
X017554Y005290D01*
X017451Y005290D01*
X017399Y005239D01*
X017208Y005290D02*
X017208Y004980D01*
X017399Y004980D02*
X017606Y004980D01*
X017694Y005083D02*
X017797Y004980D01*
X017901Y005083D01*
X017901Y005290D01*
X017694Y005290D02*
X017694Y005083D01*
X017208Y005290D02*
X017104Y005187D01*
X016633Y005290D02*
X016426Y004980D01*
X016333Y004980D02*
X016229Y004980D01*
X016281Y004980D02*
X016281Y005290D01*
X016229Y005290D02*
X016333Y005290D01*
X015981Y005290D02*
X015981Y005083D01*
X015877Y004980D01*
X015774Y005083D01*
X015774Y005290D01*
X015686Y005290D02*
X015479Y005290D01*
X015479Y005135D01*
X015583Y005187D01*
X015635Y005187D01*
X015686Y005135D01*
X015686Y005032D01*
X015635Y004980D01*
X015531Y004980D01*
X015479Y005032D01*
X021479Y005032D02*
X021531Y004980D01*
X021635Y004980D01*
X021686Y005032D01*
X021686Y005135D01*
X021635Y005187D01*
X021583Y005187D01*
X021479Y005135D01*
X021479Y005290D01*
X021686Y005290D01*
X021774Y005290D02*
X021774Y005083D01*
X021877Y004980D01*
X021981Y005083D01*
X021981Y005290D01*
X022229Y005290D02*
X022333Y005290D01*
X022281Y005290D02*
X022281Y004980D01*
X022229Y004980D02*
X022333Y004980D01*
X022426Y004980D02*
X022633Y005290D01*
X022720Y005239D02*
X022772Y005290D01*
X022876Y005290D01*
X022927Y005239D01*
X022927Y005032D01*
X022876Y004980D01*
X022772Y004980D01*
X022720Y005032D01*
X022720Y005239D01*
X023104Y005187D02*
X023208Y005290D01*
X023208Y004980D01*
X023311Y004980D02*
X023104Y004980D01*
X023399Y004980D02*
X023606Y005187D01*
X023606Y005239D01*
X023554Y005290D01*
X023451Y005290D01*
X023399Y005239D01*
X023399Y004980D02*
X023606Y004980D01*
X023694Y005083D02*
X023797Y004980D01*
X023901Y005083D01*
X023901Y005290D01*
X023694Y005290D02*
X023694Y005083D01*
X023151Y003040D02*
X023151Y002730D01*
X022944Y002730D02*
X022944Y003040D01*
X023047Y002937D01*
X023151Y003040D01*
X022856Y003040D02*
X022856Y002730D01*
X022752Y002833D01*
X022649Y002730D01*
X022649Y003040D01*
X022561Y002989D02*
X022561Y002885D01*
X022510Y002833D01*
X022354Y002833D01*
X022354Y002730D02*
X022354Y003040D01*
X022510Y003040D01*
X022561Y002989D01*
X022026Y002989D02*
X021974Y003040D01*
X021819Y003040D01*
X021819Y002730D01*
X021974Y002730D01*
X022026Y002782D01*
X022026Y002989D01*
X021731Y003040D02*
X021731Y002730D01*
X021524Y003040D01*
X021524Y002730D01*
X021436Y002782D02*
X021436Y002885D01*
X021333Y002885D01*
X021436Y002782D02*
X021385Y002730D01*
X021281Y002730D01*
X021229Y002782D01*
X021229Y002989D01*
X021281Y003040D01*
X021385Y003040D01*
X021436Y002989D01*
X027229Y002989D02*
X027229Y002782D01*
X027281Y002730D01*
X027385Y002730D01*
X027436Y002782D01*
X027436Y002885D01*
X027333Y002885D01*
X027436Y002989D02*
X027385Y003040D01*
X027281Y003040D01*
X027229Y002989D01*
X027524Y003040D02*
X027524Y002730D01*
X027731Y002730D02*
X027731Y003040D01*
X027819Y003040D02*
X027974Y003040D01*
X028026Y002989D01*
X028026Y002782D01*
X027974Y002730D01*
X027819Y002730D01*
X027819Y003040D01*
X027524Y003040D02*
X027731Y002730D01*
X028354Y002730D02*
X028354Y003040D01*
X028510Y003040D01*
X028561Y002989D01*
X028561Y002885D01*
X028510Y002833D01*
X028354Y002833D01*
X028649Y002730D02*
X028752Y002833D01*
X028856Y002730D01*
X028856Y003040D01*
X028944Y003040D02*
X029047Y002937D01*
X029151Y003040D01*
X029151Y002730D01*
X028944Y002730D02*
X028944Y003040D01*
X028649Y003040D02*
X028649Y002730D01*
X028772Y004980D02*
X028876Y004980D01*
X028927Y005032D01*
X028927Y005239D01*
X028876Y005290D01*
X028772Y005290D01*
X028720Y005239D01*
X028720Y005032D01*
X028772Y004980D01*
X029104Y004980D02*
X029311Y004980D01*
X029399Y004980D02*
X029606Y005187D01*
X029606Y005239D01*
X029554Y005290D01*
X029451Y005290D01*
X029399Y005239D01*
X029208Y005290D02*
X029208Y004980D01*
X029399Y004980D02*
X029606Y004980D01*
X029694Y005083D02*
X029797Y004980D01*
X029901Y005083D01*
X029901Y005290D01*
X029694Y005290D02*
X029694Y005083D01*
X029208Y005290D02*
X029104Y005187D01*
X028633Y005290D02*
X028426Y004980D01*
X028333Y004980D02*
X028229Y004980D01*
X028281Y004980D02*
X028281Y005290D01*
X028229Y005290D02*
X028333Y005290D01*
X027981Y005290D02*
X027981Y005083D01*
X027877Y004980D01*
X027774Y005083D01*
X027774Y005290D01*
X027686Y005290D02*
X027479Y005290D01*
X027479Y005135D01*
X027583Y005187D01*
X027635Y005187D01*
X027686Y005135D01*
X027686Y005032D01*
X027635Y004980D01*
X027531Y004980D01*
X027479Y005032D01*
X030659Y008730D02*
X030814Y008730D01*
X030763Y008833D01*
X030763Y008885D01*
X030814Y008937D01*
X030918Y008937D01*
X030969Y008885D01*
X030969Y008782D01*
X030918Y008730D01*
X030659Y008730D02*
X030659Y008937D01*
X030659Y009025D02*
X030866Y009025D01*
X030969Y009128D01*
X030866Y009231D01*
X030659Y009231D01*
X030711Y009480D02*
X030763Y009480D01*
X030814Y009532D01*
X030814Y009635D01*
X030866Y009687D01*
X030918Y009687D01*
X030969Y009635D01*
X030969Y009532D01*
X030918Y009480D01*
X030711Y009480D02*
X030659Y009532D01*
X030659Y009635D01*
X030711Y009687D01*
X030659Y009775D02*
X030659Y009930D01*
X030711Y009981D01*
X030918Y009981D01*
X030969Y009930D01*
X030969Y009775D01*
X030659Y009775D01*
X030763Y010069D02*
X030659Y010173D01*
X030763Y010276D01*
X030969Y010276D01*
X030814Y010276D02*
X030814Y010069D01*
X030763Y010069D02*
X030969Y010069D01*
X030969Y010605D02*
X030969Y010812D01*
X030969Y010900D02*
X030763Y011106D01*
X030711Y011106D01*
X030659Y011055D01*
X030659Y010951D01*
X030711Y010900D01*
X030659Y010708D02*
X030969Y010708D01*
X030969Y010900D02*
X030969Y011106D01*
X030866Y011194D02*
X030969Y011298D01*
X030866Y011401D01*
X030659Y011401D01*
X030659Y011194D02*
X030866Y011194D01*
X030659Y010708D02*
X030763Y010605D01*
X032909Y010444D02*
X033219Y010444D01*
X033219Y010651D01*
X033168Y010356D02*
X033219Y010305D01*
X033219Y010201D01*
X033168Y010150D01*
X032961Y010150D01*
X032909Y010201D01*
X032909Y010305D01*
X032961Y010356D01*
X032961Y010062D02*
X032909Y010010D01*
X032909Y009907D01*
X032961Y009855D01*
X033013Y009855D01*
X033064Y009907D01*
X033064Y010010D01*
X033116Y010062D01*
X033168Y010062D01*
X033219Y010010D01*
X033219Y009907D01*
X033168Y009855D01*
X033168Y009276D02*
X032961Y009276D01*
X032909Y009224D01*
X032909Y009069D01*
X033219Y009069D01*
X033219Y009224D01*
X033168Y009276D01*
X033219Y008981D02*
X032909Y008981D01*
X032909Y008775D02*
X033219Y008981D01*
X033219Y008775D02*
X032909Y008775D01*
X032961Y008687D02*
X032909Y008635D01*
X032909Y008532D01*
X032961Y008480D01*
X033168Y008480D01*
X033219Y008532D01*
X033219Y008635D01*
X033168Y008687D01*
X033064Y008687D01*
X033064Y008583D01*
X032961Y014480D02*
X033168Y014480D01*
X033219Y014532D01*
X033219Y014635D01*
X033168Y014687D01*
X033064Y014687D01*
X033064Y014583D01*
X032961Y014480D02*
X032909Y014532D01*
X032909Y014635D01*
X032961Y014687D01*
X032909Y014775D02*
X033219Y014981D01*
X032909Y014981D01*
X032909Y015069D02*
X032909Y015224D01*
X032961Y015276D01*
X033168Y015276D01*
X033219Y015224D01*
X033219Y015069D01*
X032909Y015069D01*
X032909Y014775D02*
X033219Y014775D01*
X033168Y015855D02*
X033219Y015907D01*
X033219Y016010D01*
X033168Y016062D01*
X033116Y016062D01*
X033064Y016010D01*
X033064Y015907D01*
X033013Y015855D01*
X032961Y015855D01*
X032909Y015907D01*
X032909Y016010D01*
X032961Y016062D01*
X032961Y016150D02*
X033168Y016150D01*
X033219Y016201D01*
X033219Y016305D01*
X033168Y016356D01*
X033219Y016444D02*
X033219Y016651D01*
X033219Y016444D02*
X032909Y016444D01*
X032961Y016356D02*
X032909Y016305D01*
X032909Y016201D01*
X032961Y016150D01*
X030969Y016069D02*
X030763Y016069D01*
X030659Y016173D01*
X030763Y016276D01*
X030969Y016276D01*
X030814Y016276D02*
X030814Y016069D01*
X030711Y015981D02*
X030659Y015930D01*
X030659Y015775D01*
X030969Y015775D01*
X030969Y015930D01*
X030918Y015981D01*
X030711Y015981D01*
X030711Y015687D02*
X030659Y015635D01*
X030659Y015532D01*
X030711Y015480D01*
X030763Y015480D01*
X030814Y015532D01*
X030814Y015635D01*
X030866Y015687D01*
X030918Y015687D01*
X030969Y015635D01*
X030969Y015532D01*
X030918Y015480D01*
X030866Y015231D02*
X030659Y015231D01*
X030659Y015025D02*
X030866Y015025D01*
X030969Y015128D01*
X030866Y015231D01*
X030814Y014937D02*
X030918Y014937D01*
X030969Y014885D01*
X030969Y014782D01*
X030918Y014730D01*
X030814Y014730D02*
X030763Y014833D01*
X030763Y014885D01*
X030814Y014937D01*
X030659Y014937D02*
X030659Y014730D01*
X030814Y014730D01*
X030763Y016605D02*
X030659Y016708D01*
X030969Y016708D01*
X030969Y016605D02*
X030969Y016812D01*
X030969Y016900D02*
X030763Y017106D01*
X030711Y017106D01*
X030659Y017055D01*
X030659Y016951D01*
X030711Y016900D01*
X030969Y016900D02*
X030969Y017106D01*
X030866Y017194D02*
X030969Y017298D01*
X030866Y017401D01*
X030659Y017401D01*
X030659Y017194D02*
X030866Y017194D01*
X029038Y019910D02*
X028935Y020013D01*
X028935Y020220D01*
X028847Y020220D02*
X028640Y020220D01*
X028640Y020065D01*
X028744Y020117D01*
X028795Y020117D01*
X028847Y020065D01*
X028847Y019962D01*
X028795Y019910D01*
X028692Y019910D01*
X028640Y019962D01*
X028392Y019962D02*
X028392Y020169D01*
X028340Y020220D01*
X028236Y020220D01*
X028185Y020169D01*
X028185Y019962D01*
X028236Y019910D01*
X028340Y019910D01*
X028392Y019962D01*
X028097Y020220D02*
X027890Y019910D01*
X027797Y019910D02*
X027694Y019910D01*
X027745Y019910D02*
X027745Y020220D01*
X027694Y020220D02*
X027797Y020220D01*
X027517Y020220D02*
X027517Y020013D01*
X027413Y019910D01*
X027310Y020013D01*
X027310Y020220D01*
X027222Y020169D02*
X027170Y020220D01*
X027067Y020220D01*
X027015Y020169D01*
X026824Y020220D02*
X026824Y019910D01*
X026927Y019910D02*
X026720Y019910D01*
X026720Y020117D02*
X026824Y020220D01*
X027015Y019910D02*
X027222Y020117D01*
X027222Y020169D01*
X027222Y019910D02*
X027015Y019910D01*
X029038Y019910D02*
X029142Y020013D01*
X029142Y020220D01*
X029185Y022160D02*
X029340Y022160D01*
X029392Y022212D01*
X029392Y022419D01*
X029340Y022470D01*
X029185Y022470D01*
X029185Y022160D01*
X029097Y022160D02*
X029097Y022470D01*
X028890Y022470D02*
X028890Y022160D01*
X028802Y022212D02*
X028802Y022315D01*
X028699Y022315D01*
X028802Y022212D02*
X028751Y022160D01*
X028647Y022160D01*
X028595Y022212D01*
X028595Y022419D01*
X028647Y022470D01*
X028751Y022470D01*
X028802Y022419D01*
X028890Y022470D02*
X029097Y022160D01*
X028267Y022160D02*
X028267Y022470D01*
X028163Y022367D01*
X028060Y022470D01*
X028060Y022160D01*
X027972Y022160D02*
X027972Y022470D01*
X027765Y022470D02*
X027765Y022160D01*
X027869Y022263D01*
X027972Y022160D01*
X027677Y022315D02*
X027677Y022419D01*
X027626Y022470D01*
X027470Y022470D01*
X027470Y022160D01*
X027470Y022263D02*
X027626Y022263D01*
X027677Y022315D01*
X023392Y022212D02*
X023392Y022419D01*
X023340Y022470D01*
X023185Y022470D01*
X023185Y022160D01*
X023340Y022160D01*
X023392Y022212D01*
X023097Y022160D02*
X023097Y022470D01*
X022890Y022470D02*
X022890Y022160D01*
X022802Y022212D02*
X022802Y022315D01*
X022699Y022315D01*
X022802Y022212D02*
X022751Y022160D01*
X022647Y022160D01*
X022595Y022212D01*
X022595Y022419D01*
X022647Y022470D01*
X022751Y022470D01*
X022802Y022419D01*
X022890Y022470D02*
X023097Y022160D01*
X022267Y022160D02*
X022267Y022470D01*
X022163Y022367D01*
X022060Y022470D01*
X022060Y022160D01*
X021972Y022160D02*
X021972Y022470D01*
X021765Y022470D02*
X021765Y022160D01*
X021869Y022263D01*
X021972Y022160D01*
X021677Y022315D02*
X021677Y022419D01*
X021626Y022470D01*
X021470Y022470D01*
X021470Y022160D01*
X021470Y022263D02*
X021626Y022263D01*
X021677Y022315D01*
X021694Y020220D02*
X021797Y020220D01*
X021745Y020220D02*
X021745Y019910D01*
X021694Y019910D02*
X021797Y019910D01*
X021890Y019910D02*
X022097Y020220D01*
X022185Y020169D02*
X022185Y019962D01*
X022236Y019910D01*
X022340Y019910D01*
X022392Y019962D01*
X022392Y020169D01*
X022340Y020220D01*
X022236Y020220D01*
X022185Y020169D01*
X021517Y020220D02*
X021517Y020013D01*
X021413Y019910D01*
X021310Y020013D01*
X021310Y020220D01*
X021222Y020169D02*
X021170Y020220D01*
X021067Y020220D01*
X021015Y020169D01*
X020824Y020220D02*
X020824Y019910D01*
X020927Y019910D02*
X020720Y019910D01*
X020720Y020117D02*
X020824Y020220D01*
X021015Y019910D02*
X021222Y020117D01*
X021222Y020169D01*
X021222Y019910D02*
X021015Y019910D01*
X022640Y019962D02*
X022692Y019910D01*
X022795Y019910D01*
X022847Y019962D01*
X022847Y020065D01*
X022795Y020117D01*
X022744Y020117D01*
X022640Y020065D01*
X022640Y020220D01*
X022847Y020220D01*
X022935Y020220D02*
X022935Y020013D01*
X023038Y019910D01*
X023142Y020013D01*
X023142Y020220D01*
X017392Y022212D02*
X017392Y022419D01*
X017340Y022470D01*
X017185Y022470D01*
X017185Y022160D01*
X017340Y022160D01*
X017392Y022212D01*
X017097Y022160D02*
X017097Y022470D01*
X016890Y022470D02*
X017097Y022160D01*
X016890Y022160D02*
X016890Y022470D01*
X016802Y022419D02*
X016751Y022470D01*
X016647Y022470D01*
X016595Y022419D01*
X016595Y022212D01*
X016647Y022160D01*
X016751Y022160D01*
X016802Y022212D01*
X016802Y022315D01*
X016699Y022315D01*
X016267Y022470D02*
X016267Y022160D01*
X016060Y022160D02*
X016060Y022470D01*
X016163Y022367D01*
X016267Y022470D01*
X015972Y022470D02*
X015972Y022160D01*
X015869Y022263D01*
X015765Y022160D01*
X015765Y022470D01*
X015677Y022419D02*
X015677Y022315D01*
X015626Y022263D01*
X015470Y022263D01*
X015470Y022160D02*
X015470Y022470D01*
X015626Y022470D01*
X015677Y022419D01*
X015694Y020220D02*
X015797Y020220D01*
X015745Y020220D02*
X015745Y019910D01*
X015694Y019910D02*
X015797Y019910D01*
X015890Y019910D02*
X016097Y020220D01*
X016185Y020169D02*
X016185Y019962D01*
X016236Y019910D01*
X016340Y019910D01*
X016392Y019962D01*
X016392Y020169D01*
X016340Y020220D01*
X016236Y020220D01*
X016185Y020169D01*
X016640Y020220D02*
X016640Y020065D01*
X016744Y020117D01*
X016795Y020117D01*
X016847Y020065D01*
X016847Y019962D01*
X016795Y019910D01*
X016692Y019910D01*
X016640Y019962D01*
X016640Y020220D02*
X016847Y020220D01*
X016935Y020220D02*
X016935Y020013D01*
X017038Y019910D01*
X017142Y020013D01*
X017142Y020220D01*
X015517Y020220D02*
X015517Y020013D01*
X015413Y019910D01*
X015310Y020013D01*
X015310Y020220D01*
X015222Y020169D02*
X015170Y020220D01*
X015067Y020220D01*
X015015Y020169D01*
X014824Y020220D02*
X014824Y019910D01*
X014927Y019910D02*
X014720Y019910D01*
X014720Y020117D02*
X014824Y020220D01*
X015015Y019910D02*
X015222Y020117D01*
X015222Y020169D01*
X015222Y019910D02*
X015015Y019910D01*
X011142Y020013D02*
X011142Y020220D01*
X011142Y020013D02*
X011038Y019910D01*
X010935Y020013D01*
X010935Y020220D01*
X010847Y020220D02*
X010640Y020220D01*
X010640Y020065D01*
X010744Y020117D01*
X010795Y020117D01*
X010847Y020065D01*
X010847Y019962D01*
X010795Y019910D01*
X010692Y019910D01*
X010640Y019962D01*
X010392Y019962D02*
X010392Y020169D01*
X010340Y020220D01*
X010236Y020220D01*
X010185Y020169D01*
X010185Y019962D01*
X010236Y019910D01*
X010340Y019910D01*
X010392Y019962D01*
X010097Y020220D02*
X009890Y019910D01*
X009797Y019910D02*
X009694Y019910D01*
X009745Y019910D02*
X009745Y020220D01*
X009694Y020220D02*
X009797Y020220D01*
X009517Y020220D02*
X009517Y020013D01*
X009413Y019910D01*
X009310Y020013D01*
X009310Y020220D01*
X009222Y020169D02*
X009170Y020220D01*
X009067Y020220D01*
X009015Y020169D01*
X008824Y020220D02*
X008824Y019910D01*
X008927Y019910D02*
X008720Y019910D01*
X008720Y020117D02*
X008824Y020220D01*
X009015Y019910D02*
X009222Y020117D01*
X009222Y020169D01*
X009222Y019910D02*
X009015Y019910D01*
X009470Y022160D02*
X009470Y022470D01*
X009626Y022470D01*
X009677Y022419D01*
X009677Y022315D01*
X009626Y022263D01*
X009470Y022263D01*
X009765Y022160D02*
X009765Y022470D01*
X009972Y022470D02*
X009972Y022160D01*
X009869Y022263D01*
X009765Y022160D01*
X010060Y022160D02*
X010060Y022470D01*
X010163Y022367D01*
X010267Y022470D01*
X010267Y022160D01*
X010595Y022212D02*
X010595Y022419D01*
X010647Y022470D01*
X010751Y022470D01*
X010802Y022419D01*
X010890Y022470D02*
X011097Y022160D01*
X011097Y022470D01*
X011185Y022470D02*
X011185Y022160D01*
X011340Y022160D01*
X011392Y022212D01*
X011392Y022419D01*
X011340Y022470D01*
X011185Y022470D01*
X010890Y022470D02*
X010890Y022160D01*
X010802Y022212D02*
X010802Y022315D01*
X010699Y022315D01*
X010802Y022212D02*
X010751Y022160D01*
X010647Y022160D01*
X010595Y022212D01*
X005392Y022212D02*
X005392Y022419D01*
X005340Y022470D01*
X005185Y022470D01*
X005185Y022160D01*
X005340Y022160D01*
X005392Y022212D01*
X005097Y022160D02*
X005097Y022470D01*
X004890Y022470D02*
X004890Y022160D01*
X004802Y022212D02*
X004802Y022315D01*
X004699Y022315D01*
X004802Y022212D02*
X004751Y022160D01*
X004647Y022160D01*
X004595Y022212D01*
X004595Y022419D01*
X004647Y022470D01*
X004751Y022470D01*
X004802Y022419D01*
X004890Y022470D02*
X005097Y022160D01*
X004267Y022160D02*
X004267Y022470D01*
X004163Y022367D01*
X004060Y022470D01*
X004060Y022160D01*
X003972Y022160D02*
X003972Y022470D01*
X003765Y022470D02*
X003765Y022160D01*
X003869Y022263D01*
X003972Y022160D01*
X003677Y022315D02*
X003677Y022419D01*
X003626Y022470D01*
X003470Y022470D01*
X003470Y022160D01*
X003470Y022263D02*
X003626Y022263D01*
X003677Y022315D01*
X003694Y020220D02*
X003797Y020220D01*
X003745Y020220D02*
X003745Y019910D01*
X003694Y019910D02*
X003797Y019910D01*
X003890Y019910D02*
X004097Y020220D01*
X004185Y020169D02*
X004185Y019962D01*
X004236Y019910D01*
X004340Y019910D01*
X004392Y019962D01*
X004392Y020169D01*
X004340Y020220D01*
X004236Y020220D01*
X004185Y020169D01*
X004640Y020220D02*
X004640Y020065D01*
X004744Y020117D01*
X004795Y020117D01*
X004847Y020065D01*
X004847Y019962D01*
X004795Y019910D01*
X004692Y019910D01*
X004640Y019962D01*
X004640Y020220D02*
X004847Y020220D01*
X004935Y020220D02*
X004935Y020013D01*
X005038Y019910D01*
X005142Y020013D01*
X005142Y020220D01*
X003517Y020220D02*
X003517Y020013D01*
X003413Y019910D01*
X003310Y020013D01*
X003310Y020220D01*
X003222Y020169D02*
X003170Y020220D01*
X003067Y020220D01*
X003015Y020169D01*
X002824Y020220D02*
X002824Y019910D01*
X002927Y019910D02*
X002720Y019910D01*
X002720Y020117D02*
X002824Y020220D01*
X003015Y019910D02*
X003222Y020117D01*
X003222Y020169D01*
X003222Y019910D02*
X003015Y019910D01*
X003479Y005290D02*
X003479Y005135D01*
X003583Y005187D01*
X003635Y005187D01*
X003686Y005135D01*
X003686Y005032D01*
X003635Y004980D01*
X003531Y004980D01*
X003479Y005032D01*
X003479Y005290D02*
X003686Y005290D01*
X003774Y005290D02*
X003774Y005083D01*
X003877Y004980D01*
X003981Y005083D01*
X003981Y005290D01*
X004229Y005290D02*
X004333Y005290D01*
X004281Y005290D02*
X004281Y004980D01*
X004229Y004980D02*
X004333Y004980D01*
X004426Y004980D02*
X004633Y005290D01*
X004720Y005239D02*
X004720Y005032D01*
X004772Y004980D01*
X004876Y004980D01*
X004927Y005032D01*
X004927Y005239D01*
X004876Y005290D01*
X004772Y005290D01*
X004720Y005239D01*
X005104Y005187D02*
X005208Y005290D01*
X005208Y004980D01*
X005311Y004980D02*
X005104Y004980D01*
X005399Y004980D02*
X005606Y005187D01*
X005606Y005239D01*
X005554Y005290D01*
X005451Y005290D01*
X005399Y005239D01*
X005399Y004980D02*
X005606Y004980D01*
X005694Y005083D02*
X005797Y004980D01*
X005901Y005083D01*
X005901Y005290D01*
X005694Y005290D02*
X005694Y005083D01*
X005151Y003040D02*
X005151Y002730D01*
X004944Y002730D02*
X004944Y003040D01*
X005047Y002937D01*
X005151Y003040D01*
X004856Y003040D02*
X004856Y002730D01*
X004752Y002833D01*
X004649Y002730D01*
X004649Y003040D01*
X004561Y002989D02*
X004510Y003040D01*
X004354Y003040D01*
X004354Y002730D01*
X004354Y002833D02*
X004510Y002833D01*
X004561Y002885D01*
X004561Y002989D01*
X004026Y002989D02*
X003974Y003040D01*
X003819Y003040D01*
X003819Y002730D01*
X003974Y002730D01*
X004026Y002782D01*
X004026Y002989D01*
X003731Y003040D02*
X003731Y002730D01*
X003524Y003040D01*
X003524Y002730D01*
X003436Y002782D02*
X003385Y002730D01*
X003281Y002730D01*
X003229Y002782D01*
X003229Y002989D01*
X003281Y003040D01*
X003385Y003040D01*
X003436Y002989D01*
X003436Y002885D02*
X003333Y002885D01*
X003436Y002885D02*
X003436Y002782D01*
D12*
X004525Y007620D02*
X004832Y007620D01*
X004679Y007620D02*
X004679Y008080D01*
X004525Y007927D01*
X004986Y008080D02*
X004986Y007620D01*
X004986Y007773D02*
X005216Y007927D01*
X004986Y007773D02*
X005216Y007620D01*
X003222Y010309D02*
X003299Y010386D01*
X003299Y010693D01*
X003222Y010769D01*
X002992Y010769D01*
X002992Y010309D01*
X003222Y010309D01*
X002838Y010309D02*
X002838Y010769D01*
X002531Y010769D02*
X002838Y010309D01*
X002531Y010309D02*
X002531Y010769D01*
X002378Y010693D02*
X002301Y010769D01*
X002148Y010769D01*
X002071Y010693D01*
X002071Y010386D01*
X002148Y010309D01*
X002301Y010309D01*
X002378Y010386D01*
X002378Y010539D01*
X002224Y010539D01*
X005161Y010924D02*
X005468Y010924D01*
X005315Y010771D02*
X005315Y011078D01*
X005238Y011231D02*
X005085Y011384D01*
X005545Y011384D01*
X005545Y011231D02*
X005545Y011538D01*
X005545Y011691D02*
X005238Y011998D01*
X005161Y011998D01*
X005085Y011922D01*
X005085Y011768D01*
X005161Y011691D01*
X005545Y011691D02*
X005545Y011998D01*
X005391Y012152D02*
X005085Y012152D01*
X005391Y012152D02*
X005545Y012305D01*
X005391Y012459D01*
X005085Y012459D01*
X005315Y013020D02*
X005315Y013327D01*
X005315Y013480D02*
X005238Y013633D01*
X005238Y013710D01*
X005315Y013787D01*
X005468Y013787D01*
X005545Y013710D01*
X005545Y013557D01*
X005468Y013480D01*
X005315Y013480D02*
X005085Y013480D01*
X005085Y013787D01*
X005085Y013940D02*
X005391Y013940D01*
X005545Y014094D01*
X005391Y014247D01*
X005085Y014247D01*
X005161Y013173D02*
X005468Y013173D01*
X003333Y014386D02*
X003333Y014693D01*
X003256Y014769D01*
X003026Y014769D01*
X003026Y014309D01*
X003256Y014309D01*
X003333Y014386D01*
X002873Y014309D02*
X002873Y014769D01*
X002566Y014769D02*
X002566Y014309D01*
X002412Y014386D02*
X002412Y014539D01*
X002259Y014539D01*
X002412Y014386D02*
X002336Y014309D01*
X002182Y014309D01*
X002105Y014386D01*
X002105Y014693D01*
X002182Y014769D01*
X002336Y014769D01*
X002412Y014693D01*
X002566Y014769D02*
X002873Y014309D01*
X004525Y018620D02*
X004832Y018620D01*
X004679Y018620D02*
X004679Y019080D01*
X004525Y018927D01*
X004986Y019080D02*
X004986Y018620D01*
X004986Y018773D02*
X005216Y018927D01*
X004986Y018773D02*
X005216Y018620D01*
X010025Y018677D02*
X010179Y018830D01*
X010179Y018370D01*
X010332Y018370D02*
X010025Y018370D01*
X010486Y018370D02*
X010486Y018830D01*
X010716Y018677D02*
X010486Y018523D01*
X010716Y018370D01*
X015369Y017427D02*
X015523Y017580D01*
X015523Y017120D01*
X015676Y017120D02*
X015369Y017120D01*
X015830Y017120D02*
X015830Y017580D01*
X016060Y017427D02*
X015830Y017273D01*
X016060Y017120D01*
X021369Y017120D02*
X021676Y017120D01*
X021523Y017120D02*
X021523Y017580D01*
X021369Y017427D01*
X021830Y017580D02*
X021830Y017120D01*
X021830Y017273D02*
X022060Y017427D01*
X021830Y017273D02*
X022060Y017120D01*
X026869Y017120D02*
X027176Y017120D01*
X027023Y017120D02*
X027023Y017580D01*
X026869Y017427D01*
X027330Y017580D02*
X027330Y017120D01*
X027330Y017273D02*
X027560Y017427D01*
X027330Y017273D02*
X027560Y017120D01*
X014777Y009507D02*
X014422Y009507D01*
X014422Y009193D02*
X014777Y009193D01*
X013490Y009185D02*
X013209Y009185D01*
X013209Y009520D02*
X013490Y009520D01*
X010716Y007927D02*
X010486Y007773D01*
X010716Y007620D01*
X010486Y007620D02*
X010486Y008080D01*
X010179Y008080D02*
X010179Y007620D01*
X010332Y007620D02*
X010025Y007620D01*
X010025Y007927D02*
X010179Y008080D01*
X015869Y006427D02*
X016023Y006580D01*
X016023Y006120D01*
X016176Y006120D02*
X015869Y006120D01*
X016330Y006120D02*
X016330Y006580D01*
X016560Y006427D02*
X016330Y006273D01*
X016560Y006120D01*
X021369Y006120D02*
X021676Y006120D01*
X021523Y006120D02*
X021523Y006580D01*
X021369Y006427D01*
X021830Y006580D02*
X021830Y006120D01*
X021830Y006273D02*
X022060Y006427D01*
X021830Y006273D02*
X022060Y006120D01*
X027369Y006120D02*
X027676Y006120D01*
X027523Y006120D02*
X027523Y006580D01*
X027369Y006427D01*
X027830Y006580D02*
X027830Y006120D01*
X027830Y006273D02*
X028060Y006427D01*
X027830Y006273D02*
X028060Y006120D01*
D13*
X013578Y009352D03*
X013118Y009352D03*
D14*
X013349Y009350D03*
D15*
X014344Y009350D03*
X014855Y009350D03*
D16*
X014658Y009202D03*
X014658Y009498D03*
D17*
X014658Y009350D03*
D18*
X015899Y007430D02*
X016799Y007430D01*
X016799Y006770D02*
X015899Y006770D01*
X010799Y006770D02*
X009899Y006770D01*
X009899Y007430D02*
X010799Y007430D01*
X005299Y007430D02*
X004399Y007430D01*
X004399Y006770D02*
X005299Y006770D01*
X009899Y017520D02*
X010799Y017520D01*
X010799Y018180D02*
X009899Y018180D01*
X005299Y018430D02*
X004399Y018430D01*
X004399Y017770D02*
X005299Y017770D01*
X015399Y017770D02*
X016299Y017770D01*
X016299Y018430D02*
X015399Y018430D01*
X021399Y018430D02*
X022299Y018430D01*
X022299Y017770D02*
X021399Y017770D01*
X023029Y013795D02*
X023029Y011405D01*
X023031Y011382D01*
X023036Y011359D01*
X023045Y011337D01*
X023058Y011317D01*
X023073Y011299D01*
X023091Y011284D01*
X023111Y011271D01*
X023133Y011262D01*
X023156Y011257D01*
X023179Y011255D01*
X023029Y012100D02*
X023073Y012102D01*
X023116Y012108D01*
X023158Y012117D01*
X023200Y012130D01*
X023240Y012147D01*
X023279Y012167D01*
X023316Y012190D01*
X023350Y012217D01*
X023383Y012246D01*
X023412Y012279D01*
X023439Y012313D01*
X023462Y012350D01*
X023482Y012389D01*
X023499Y012429D01*
X023512Y012471D01*
X023521Y012513D01*
X023527Y012556D01*
X023529Y012600D01*
X023527Y012644D01*
X023521Y012687D01*
X023512Y012729D01*
X023499Y012771D01*
X023482Y012811D01*
X023462Y012850D01*
X023439Y012887D01*
X023412Y012921D01*
X023383Y012954D01*
X023350Y012983D01*
X023316Y013010D01*
X023279Y013033D01*
X023240Y013053D01*
X023200Y013070D01*
X023158Y013083D01*
X023116Y013092D01*
X023073Y013098D01*
X023029Y013100D01*
X023029Y013795D02*
X023031Y013818D01*
X023036Y013841D01*
X023045Y013863D01*
X023058Y013883D01*
X023073Y013901D01*
X023091Y013916D01*
X023111Y013929D01*
X023133Y013938D01*
X023156Y013943D01*
X023179Y013945D01*
X027519Y013945D02*
X027542Y013943D01*
X027565Y013938D01*
X027587Y013929D01*
X027607Y013916D01*
X027625Y013901D01*
X027640Y013883D01*
X027653Y013863D01*
X027662Y013841D01*
X027667Y013818D01*
X027669Y013795D01*
X027669Y011405D01*
X027667Y011382D01*
X027662Y011359D01*
X027653Y011337D01*
X027640Y011317D01*
X027625Y011299D01*
X027607Y011284D01*
X027587Y011271D01*
X027565Y011262D01*
X027542Y011257D01*
X027519Y011255D01*
X027399Y007430D02*
X028299Y007430D01*
X028299Y006770D02*
X027399Y006770D01*
X022299Y006770D02*
X021399Y006770D01*
X021399Y007430D02*
X022299Y007430D01*
X026899Y017770D02*
X027799Y017770D01*
X027799Y018430D02*
X026899Y018430D01*
D19*
X026849Y013470D03*
X026349Y013470D03*
X025849Y013470D03*
X025349Y013470D03*
X024849Y013470D03*
X024349Y013470D03*
X023849Y013470D03*
X023349Y013470D03*
X023349Y011730D03*
X023849Y011730D03*
X024349Y011730D03*
X024849Y011730D03*
X025349Y011730D03*
X025849Y011730D03*
X026349Y011730D03*
X026849Y011730D03*
D20*
X027294Y007100D03*
X028404Y007100D03*
X022404Y007100D03*
X021294Y007100D03*
X016904Y007100D03*
X015794Y007100D03*
X010904Y007100D03*
X009794Y007100D03*
X005404Y007100D03*
X004294Y007100D03*
X009794Y017850D03*
X010904Y017850D03*
X015294Y018100D03*
X016404Y018100D03*
X021294Y018100D03*
X022404Y018100D03*
X026794Y018100D03*
X027904Y018100D03*
X005404Y018100D03*
X004294Y018100D03*
D21*
X005637Y015750D02*
X000125Y015750D01*
X000125Y009529D01*
X005637Y009529D01*
X005637Y015750D01*
M02*
