G75*
G70*
%OFA0B0*%
%FSLAX24Y24*%
%IPPOS*%
%LPD*%
%AMOC8*
5,1,8,0,0,1.08239X$1,22.5*
%
%ADD10C,0.0060*%
%ADD11C,0.0030*%
%ADD12R,0.0390X0.0180*%
%ADD13R,0.0180X0.0390*%
%ADD14R,0.0230X0.0720*%
%ADD15C,0.0040*%
%ADD16R,0.0295X0.0669*%
%ADD17R,0.0200X0.0050*%
%ADD18C,0.0080*%
%ADD19C,0.0010*%
%ADD20R,0.0197X0.0197*%
D10*
X017469Y011220D02*
X020229Y011220D01*
X020229Y013840D01*
X020090Y013980D01*
X017469Y013980D01*
X017469Y011220D01*
X019788Y013680D02*
X019790Y013703D01*
X019796Y013726D01*
X019805Y013747D01*
X019818Y013767D01*
X019834Y013784D01*
X019852Y013798D01*
X019872Y013809D01*
X019894Y013817D01*
X019917Y013821D01*
X019941Y013821D01*
X019964Y013817D01*
X019986Y013809D01*
X020006Y013798D01*
X020024Y013784D01*
X020040Y013767D01*
X020053Y013747D01*
X020062Y013726D01*
X020068Y013703D01*
X020070Y013680D01*
X020068Y013657D01*
X020062Y013634D01*
X020053Y013613D01*
X020040Y013593D01*
X020024Y013576D01*
X020006Y013562D01*
X019986Y013551D01*
X019964Y013543D01*
X019941Y013539D01*
X019917Y013539D01*
X019894Y013543D01*
X019872Y013551D01*
X019852Y013562D01*
X019834Y013576D01*
X019818Y013593D01*
X019805Y013613D01*
X019796Y013634D01*
X019790Y013657D01*
X019788Y013680D01*
X022529Y013795D02*
X022529Y011405D01*
X022531Y011382D01*
X022536Y011359D01*
X022545Y011337D01*
X022558Y011317D01*
X022573Y011299D01*
X022591Y011284D01*
X022611Y011271D01*
X022633Y011262D01*
X022656Y011257D01*
X022679Y011255D01*
X022529Y012100D02*
X022573Y012102D01*
X022616Y012108D01*
X022658Y012117D01*
X022700Y012130D01*
X022740Y012147D01*
X022779Y012167D01*
X022816Y012190D01*
X022850Y012217D01*
X022883Y012246D01*
X022912Y012279D01*
X022939Y012313D01*
X022962Y012350D01*
X022982Y012389D01*
X022999Y012429D01*
X023012Y012471D01*
X023021Y012513D01*
X023027Y012556D01*
X023029Y012600D01*
X023027Y012644D01*
X023021Y012687D01*
X023012Y012729D01*
X022999Y012771D01*
X022982Y012811D01*
X022962Y012850D01*
X022939Y012887D01*
X022912Y012921D01*
X022883Y012954D01*
X022850Y012983D01*
X022816Y013010D01*
X022779Y013033D01*
X022740Y013053D01*
X022700Y013070D01*
X022658Y013083D01*
X022616Y013092D01*
X022573Y013098D01*
X022529Y013100D01*
X022529Y013795D02*
X022531Y013818D01*
X022536Y013841D01*
X022545Y013863D01*
X022558Y013883D01*
X022573Y013901D01*
X022591Y013916D01*
X022611Y013929D01*
X022633Y013938D01*
X022656Y013943D01*
X022679Y013945D01*
X027019Y013945D02*
X027042Y013943D01*
X027065Y013938D01*
X027087Y013929D01*
X027107Y013916D01*
X027125Y013901D01*
X027140Y013883D01*
X027153Y013863D01*
X027162Y013841D01*
X027167Y013818D01*
X027169Y013795D01*
X027169Y011405D01*
X027167Y011382D01*
X027162Y011359D01*
X027153Y011337D01*
X027140Y011317D01*
X027125Y011299D01*
X027107Y011284D01*
X027087Y011271D01*
X027065Y011262D01*
X027042Y011257D01*
X027019Y011255D01*
X014799Y014520D02*
X013899Y014520D01*
X013899Y015180D02*
X014799Y015180D01*
D11*
X017865Y012405D02*
X017962Y012405D01*
X017913Y012405D02*
X017913Y012115D01*
X017865Y012115D02*
X017962Y012115D01*
X018063Y012115D02*
X018063Y012308D01*
X018160Y012405D01*
X018256Y012308D01*
X018256Y012115D01*
X018256Y012260D02*
X018063Y012260D01*
X018358Y012260D02*
X018551Y012260D01*
X018652Y012212D02*
X018652Y012163D01*
X018701Y012115D01*
X018797Y012115D01*
X018846Y012163D01*
X018846Y012212D01*
X018797Y012260D01*
X018701Y012260D01*
X018652Y012212D01*
X018701Y012260D02*
X018652Y012308D01*
X018652Y012357D01*
X018701Y012405D01*
X018797Y012405D01*
X018846Y012357D01*
X018846Y012308D01*
X018797Y012260D01*
X018947Y012260D02*
X019140Y012260D01*
X019140Y012308D02*
X019140Y012115D01*
X019242Y012163D02*
X019242Y012260D01*
X019338Y012260D01*
X019242Y012163D02*
X019290Y012115D01*
X019387Y012115D01*
X019435Y012163D01*
X019435Y012357D01*
X019387Y012405D01*
X019290Y012405D01*
X019242Y012357D01*
X019140Y012308D02*
X019044Y012405D01*
X018947Y012308D01*
X018947Y012115D01*
X019536Y012115D02*
X019730Y012115D01*
X019730Y012405D01*
X019536Y012405D01*
X019633Y012260D02*
X019730Y012260D01*
X019831Y012405D02*
X019831Y012115D01*
X020024Y012115D02*
X020024Y012405D01*
X019928Y012308D01*
X019831Y012405D01*
D12*
X020444Y012443D03*
X020444Y012757D03*
X020444Y013072D03*
X020444Y013387D03*
X020444Y013702D03*
X020444Y012128D03*
X020444Y011813D03*
X020444Y011498D03*
X017254Y011498D03*
X017254Y011813D03*
X017254Y012128D03*
X017254Y012443D03*
X017254Y012757D03*
X017254Y013072D03*
X017254Y013387D03*
X017254Y013702D03*
D13*
X017747Y014195D03*
X018062Y014195D03*
X018377Y014195D03*
X018692Y014195D03*
X019007Y014195D03*
X019322Y014195D03*
X019637Y014195D03*
X019952Y014195D03*
X019952Y011005D03*
X019637Y011005D03*
X019322Y011005D03*
X019007Y011005D03*
X018692Y011005D03*
X018377Y011005D03*
X018062Y011005D03*
X017747Y011005D03*
D14*
X014904Y014850D03*
X013794Y014850D03*
D15*
X002448Y007580D02*
X002448Y007120D01*
X002602Y007120D02*
X002602Y007427D01*
X002448Y007350D02*
X002295Y007350D01*
X002448Y007580D02*
X002141Y007580D01*
X002602Y007120D02*
X002832Y007120D01*
X002909Y007197D01*
X002909Y007427D01*
X003062Y007504D02*
X003369Y007197D01*
X003292Y007120D01*
X003139Y007120D01*
X003062Y007197D01*
X003062Y007504D01*
X003139Y007580D01*
X003292Y007580D01*
X003369Y007504D01*
X003369Y007197D01*
X003522Y007120D02*
X003829Y007120D01*
X003676Y007120D02*
X003676Y007580D01*
X003829Y007427D01*
X003729Y007790D02*
X002969Y007790D01*
X002969Y008410D02*
X003729Y008410D01*
X006451Y011197D02*
X006451Y011273D01*
X006528Y011350D01*
X006758Y011350D01*
X006758Y011197D01*
X006682Y011120D01*
X006528Y011120D01*
X006451Y011197D01*
X006605Y011504D02*
X006758Y011350D01*
X006605Y011504D02*
X006451Y011580D01*
X007065Y011580D02*
X007065Y011120D01*
X006912Y011120D02*
X007219Y011120D01*
X007372Y011197D02*
X007372Y011273D01*
X007449Y011350D01*
X007679Y011350D01*
X007679Y011197D01*
X007602Y011120D01*
X007449Y011120D01*
X007372Y011197D01*
X007219Y011427D02*
X007065Y011580D01*
X007372Y011580D02*
X007526Y011504D01*
X007679Y011350D01*
X007833Y011504D02*
X007833Y011197D01*
X007909Y011120D01*
X008063Y011120D01*
X008139Y011197D01*
X007833Y011504D01*
X007909Y011580D01*
X008063Y011580D01*
X008139Y011504D01*
X008139Y011197D01*
X008293Y011350D02*
X008600Y011350D01*
X008753Y011273D02*
X008830Y011350D01*
X008984Y011350D01*
X009060Y011427D01*
X009060Y011504D01*
X008984Y011580D01*
X008830Y011580D01*
X008753Y011504D01*
X008753Y011427D01*
X008830Y011350D01*
X008753Y011273D02*
X008753Y011197D01*
X008830Y011120D01*
X008984Y011120D01*
X009060Y011197D01*
X009060Y011273D01*
X008984Y011350D01*
X009214Y011350D02*
X009214Y011197D01*
X009290Y011120D01*
X009444Y011120D01*
X009521Y011197D01*
X009521Y011350D02*
X009367Y011427D01*
X009290Y011427D01*
X009214Y011350D01*
X009214Y011580D02*
X009521Y011580D01*
X009521Y011350D01*
X009674Y011504D02*
X009981Y011197D01*
X009981Y011120D01*
X010135Y011504D02*
X010441Y011197D01*
X010441Y011120D01*
X010595Y011197D02*
X010672Y011120D01*
X010825Y011120D01*
X010902Y011197D01*
X010902Y011273D01*
X010825Y011350D01*
X010672Y011350D01*
X010595Y011273D01*
X010595Y011197D01*
X010672Y011350D02*
X010595Y011427D01*
X010595Y011504D01*
X010672Y011580D01*
X010825Y011580D01*
X010902Y011504D01*
X010902Y011427D01*
X010825Y011350D01*
X010441Y011580D02*
X010135Y011580D01*
X010135Y011504D01*
X009981Y011580D02*
X009674Y011580D01*
X009674Y011504D01*
X013969Y011540D02*
X014729Y011540D01*
X014673Y011820D02*
X014443Y011820D01*
X014443Y012127D01*
X014290Y012050D02*
X014136Y012050D01*
X013969Y012160D02*
X014729Y012160D01*
X014750Y012127D02*
X014750Y011897D01*
X014673Y011820D01*
X014904Y011820D02*
X015211Y011820D01*
X015364Y011820D02*
X015441Y011820D01*
X015441Y011897D01*
X015364Y011897D01*
X015364Y011820D01*
X015594Y011897D02*
X015594Y012204D01*
X015901Y011897D01*
X015824Y011820D01*
X015671Y011820D01*
X015594Y011897D01*
X015594Y012204D02*
X015671Y012280D01*
X015824Y012280D01*
X015901Y012204D01*
X015901Y011897D01*
X015824Y012320D02*
X015671Y012320D01*
X015594Y012397D01*
X015594Y012704D01*
X015901Y012397D01*
X015824Y012320D01*
X015901Y012397D02*
X015901Y012704D01*
X015824Y012780D01*
X015671Y012780D01*
X015594Y012704D01*
X015441Y012397D02*
X015364Y012397D01*
X015364Y012320D01*
X015441Y012320D01*
X015441Y012397D01*
X015211Y012320D02*
X014904Y012320D01*
X015057Y012320D02*
X015057Y012780D01*
X015211Y012627D01*
X014750Y012627D02*
X014750Y012397D01*
X014673Y012320D01*
X014443Y012320D01*
X014443Y012627D01*
X014290Y012550D02*
X014136Y012550D01*
X013969Y012540D02*
X014729Y012540D01*
X015057Y012280D02*
X015057Y011820D01*
X015211Y012127D02*
X015057Y012280D01*
X014290Y012280D02*
X014290Y011820D01*
X014290Y012280D02*
X013983Y012280D01*
X014290Y012320D02*
X014290Y012780D01*
X013983Y012780D01*
X013969Y013160D02*
X014729Y013160D01*
X014729Y013540D02*
X013969Y013540D01*
X013969Y014160D02*
X014729Y014160D01*
X014704Y015370D02*
X014397Y015370D01*
X014551Y015370D02*
X014551Y015830D01*
X014704Y015677D01*
X014244Y015754D02*
X014244Y015447D01*
X013937Y015754D01*
X013937Y015447D01*
X014014Y015370D01*
X014167Y015370D01*
X014244Y015447D01*
X014244Y015754D02*
X014167Y015830D01*
X014014Y015830D01*
X013937Y015754D01*
X013784Y015830D02*
X013784Y015370D01*
X013784Y015523D02*
X013553Y015677D01*
X013784Y015523D02*
X013553Y015370D01*
X003829Y016120D02*
X003522Y016120D01*
X003676Y016120D02*
X003676Y016580D01*
X003829Y016427D01*
X003729Y016790D02*
X002969Y016790D01*
X003139Y016580D02*
X003062Y016504D01*
X003369Y016197D01*
X003292Y016120D01*
X003139Y016120D01*
X003062Y016197D01*
X003062Y016504D01*
X003139Y016580D02*
X003292Y016580D01*
X003369Y016504D01*
X003369Y016197D01*
X002909Y016197D02*
X002909Y016427D01*
X002909Y016197D02*
X002832Y016120D01*
X002602Y016120D01*
X002602Y016427D01*
X002448Y016350D02*
X002295Y016350D01*
X002448Y016120D02*
X002448Y016580D01*
X002141Y016580D01*
X002969Y017410D02*
X003729Y017410D01*
D16*
X003872Y017100D03*
X002827Y017100D03*
X013827Y013850D03*
X014872Y013850D03*
X014872Y012850D03*
X013827Y012850D03*
X013827Y011850D03*
X014872Y011850D03*
X003872Y008100D03*
X002827Y008100D03*
D17*
X022849Y011730D03*
X023349Y011730D03*
X023849Y011730D03*
X024349Y011730D03*
X024849Y011730D03*
X025349Y011730D03*
X025849Y011730D03*
X026349Y011730D03*
X026349Y013470D03*
X025849Y013470D03*
X025349Y013470D03*
X024849Y013470D03*
X024349Y013470D03*
X023849Y013470D03*
X023349Y013470D03*
X022849Y013470D03*
D18*
X008471Y012757D02*
X008450Y012745D01*
X008431Y012730D01*
X008413Y012713D01*
X008399Y012693D01*
X008387Y012671D01*
X008379Y012648D01*
X008374Y012624D01*
X008372Y012600D01*
X008374Y012576D01*
X008379Y012552D01*
X008387Y012529D01*
X008399Y012507D01*
X008413Y012487D01*
X008431Y012470D01*
X008450Y012455D01*
X008471Y012443D01*
X008471Y011852D01*
X006227Y011852D01*
X006227Y012443D01*
X006228Y012443D02*
X006249Y012455D01*
X006268Y012470D01*
X006286Y012487D01*
X006300Y012507D01*
X006312Y012529D01*
X006320Y012552D01*
X006325Y012576D01*
X006327Y012600D01*
X006325Y012624D01*
X006320Y012648D01*
X006312Y012671D01*
X006300Y012693D01*
X006286Y012713D01*
X006268Y012730D01*
X006249Y012745D01*
X006228Y012757D01*
X006227Y012757D02*
X006227Y013348D01*
X008471Y013348D01*
X008471Y012757D01*
D19*
X006412Y013174D02*
X006338Y013174D01*
X006375Y013174D02*
X006375Y013284D01*
X006412Y013247D01*
D20*
X006562Y012994D03*
X007349Y012994D03*
X008137Y012994D03*
X008137Y012206D03*
X007349Y012206D03*
X006562Y012206D03*
M02*
