%
M48
M72
T01C0.0120
T02C0.0236
T03C0.0315
T04C0.0350
T05C0.0354
T06C0.0669
T07C0.0787
T08C0.0866
T09C0.0929
T10C0.0935
%
T01
X8089Y6640
X10009Y8560
X10129Y8860
X10069Y9340
X11209Y9640
X11389Y10600
X11869Y10840
X13909Y10240
X15409Y11560
X16189Y10960
X16489Y9340
X14089Y7600
X14089Y6640
X19549Y9640
X19669Y9940
X20929Y9940
X21769Y10660
X21469Y11440
X21469Y11860
X19729Y11740
X19309Y11740
X18709Y12220
X19009Y12460
X19369Y13420
X19729Y13480
X18109Y13360
X16189Y14800
X16789Y15220
X16309Y15340
X17209Y15220
X18409Y15880
X19369Y15220
X19849Y15220
X21049Y15880
X21709Y14680
X22189Y14740
X22189Y13780
X23629Y15880
X23329Y17560
X23749Y17620
X21889Y18580
X26269Y17620
X27889Y16600
X27229Y16360
X27169Y15760
X28009Y13300
X26389Y9460
X23509Y9160
X22729Y9460
X20509Y8860
X20089Y6640
X9889Y12520
X8809Y12040
X9649Y13780
X8809Y14740
X10849Y14560
X12349Y14560
X14329Y14380
X15589Y16180
X9289Y17620
T02
X4849Y8100
X4849Y8100
X28349Y10600
X28349Y14600
T03
X31444Y14994
X31444Y15797
X32444Y15403
X32444Y14600
X32444Y16206
X31444Y16600
X28956Y20694
X28153Y20694
X27349Y20694
X27743Y21694
X28546Y21694
X29349Y21694
X23349Y21694
X22546Y21694
X21743Y21694
X21349Y20694
X22153Y20694
X22956Y20694
X17349Y21694
X16546Y21694
X15743Y21694
X15349Y20694
X16153Y20694
X16956Y20694
X11349Y21694
X10546Y21694
X9743Y21694
X9349Y20694
X10153Y20694
X10956Y20694
X5349Y21694
X4546Y21694
X3743Y21694
X3349Y20694
X4153Y20694
X4956Y20694
X5349Y4506
X4546Y4506
X3743Y4506
X3349Y3506
X4153Y3506
X4956Y3506
X9349Y3506
X10153Y3506
X10956Y3506
X11349Y4506
X10546Y4506
X9743Y4506
X15349Y3506
X16153Y3506
X16956Y3506
X17349Y4506
X16546Y4506
X15743Y4506
X21349Y3506
X22153Y3506
X22956Y3506
X23349Y4506
X22546Y4506
X21743Y4506
X27349Y3506
X28153Y3506
X28956Y3506
X29349Y4506
X28546Y4506
X27743Y4506
X32444Y8600
X32444Y9403
X32444Y10206
X31444Y10600
X31444Y9797
X31444Y8994
T04
X11749Y13850
X10949Y13850
X11349Y11850
T05
X8137Y12206
X7349Y12206
X6562Y12206
X6562Y12994
X7349Y12994
X8137Y12994
T06
X1503Y13584
X1503Y11616
T07
X716Y12600
X2881Y11616
X4318Y11537
X4849Y9529
X4318Y13663
X2881Y13584
X4849Y15671
T08
X1503Y15671
X1503Y9529
T09
X1987Y2600
X6712Y2600
X7987Y2600
X12712Y2600
X13987Y2600
X18712Y2600
X19987Y2600
X24712Y2600
X25987Y2600
X30712Y2600
X33349Y7238
X33349Y11962
X33349Y13238
X33349Y17962
X30712Y22600
X25987Y22600
X24712Y22600
X19987Y22600
X18712Y22600
X13987Y22600
X12712Y22600
X7987Y22600
X6712Y22600
X1987Y22600
T10
X10349Y13100
X10349Y11850
X12349Y11850
X12349Y13100
M30
