G75*
G70*
%OFA0B0*%
%FSLAX24Y24*%
%IPPOS*%
%LPD*%
%AMOC8*
5,1,8,0,0,1.08239X$1,22.5*
%
%ADD10C,0.0050*%
%ADD11C,0.0160*%
%ADD12R,0.0200X0.0200*%
%ADD13C,0.0080*%
%ADD14C,0.0010*%
%ADD15R,0.0364X0.0450*%
%ADD16C,0.0040*%
%ADD17C,0.0100*%
%ADD18C,0.0060*%
%ADD19R,0.0720X0.0230*%
%ADD20R,0.0295X0.0669*%
%ADD21R,0.0230X0.0720*%
%ADD22R,0.0513X0.0132*%
D10*
X000870Y000517D02*
X001870Y000517D01*
X001870Y003517D01*
X000870Y003517D01*
X000870Y003017D01*
X000870Y001017D02*
X000870Y000517D01*
X000896Y008696D02*
X006408Y008696D01*
X006408Y014916D01*
X000896Y014916D01*
X000896Y008696D01*
X016004Y009655D02*
X016004Y011842D01*
X016005Y011842D02*
X016007Y011861D01*
X016011Y011880D01*
X016019Y011898D01*
X016029Y011915D01*
X016041Y011930D01*
X016056Y011942D01*
X016073Y011952D01*
X016091Y011960D01*
X016110Y011964D01*
X016129Y011966D01*
X017125Y011966D01*
X017144Y011964D01*
X017163Y011959D01*
X017181Y011951D01*
X017196Y011940D01*
X017210Y011926D01*
X017221Y011911D01*
X017229Y011893D01*
X017234Y011874D01*
X017236Y011855D01*
X017236Y009678D01*
X017234Y009659D01*
X017229Y009640D01*
X017221Y009623D01*
X017210Y009607D01*
X017196Y009593D01*
X017181Y009582D01*
X017163Y009574D01*
X017144Y009569D01*
X017125Y009567D01*
X016092Y009567D01*
X016075Y009569D01*
X016058Y009574D01*
X016043Y009582D01*
X016030Y009593D01*
X016019Y009606D01*
X016011Y009621D01*
X016006Y009638D01*
X016004Y009655D01*
X016319Y009764D02*
X016922Y009764D01*
X016944Y009766D01*
X016966Y009770D01*
X016987Y009778D01*
X017007Y009789D01*
X017025Y009802D01*
X017041Y009818D01*
X017054Y009836D01*
X017065Y009856D01*
X017073Y009877D01*
X017077Y009899D01*
X017079Y009921D01*
X017079Y011612D01*
X017077Y011634D01*
X017073Y011656D01*
X017065Y011677D01*
X017054Y011697D01*
X017041Y011715D01*
X017025Y011731D01*
X017007Y011744D01*
X016987Y011755D01*
X016966Y011763D01*
X016944Y011767D01*
X016922Y011769D01*
X016922Y011770D02*
X016319Y011770D01*
X016319Y011769D02*
X016293Y011770D01*
X016268Y011767D01*
X016243Y011761D01*
X016220Y011751D01*
X016198Y011739D01*
X016178Y011723D01*
X016161Y011704D01*
X016146Y011683D01*
X016135Y011661D01*
X016127Y011637D01*
X016122Y011612D01*
X016122Y009961D01*
X016124Y009935D01*
X016129Y009910D01*
X016137Y009886D01*
X016148Y009863D01*
X016163Y009841D01*
X016180Y009822D01*
X016199Y009805D01*
X016221Y009790D01*
X016244Y009779D01*
X016268Y009771D01*
X016293Y009766D01*
X016319Y009764D01*
D11*
X000870Y003017D02*
X000815Y002978D01*
X000762Y002936D01*
X000712Y002891D01*
X000664Y002843D01*
X000619Y002793D01*
X000577Y002740D01*
X000538Y002685D01*
X000502Y002628D01*
X000469Y002569D01*
X000440Y002508D01*
X000414Y002446D01*
X000392Y002382D01*
X000373Y002318D01*
X000358Y002252D01*
X000347Y002185D01*
X000339Y002118D01*
X000335Y002051D01*
X000335Y001983D01*
X000339Y001916D01*
X000347Y001849D01*
X000358Y001782D01*
X000373Y001716D01*
X000392Y001652D01*
X000414Y001588D01*
X000440Y001526D01*
X000469Y001465D01*
X000502Y001406D01*
X000538Y001349D01*
X000577Y001294D01*
X000619Y001241D01*
X000664Y001191D01*
X000712Y001143D01*
X000762Y001098D01*
X000815Y001056D01*
X000870Y001017D01*
X000870Y003017D01*
D12*
X001370Y003017D03*
X001370Y002017D03*
X001370Y001017D03*
D13*
X009913Y001757D02*
X009913Y009080D01*
X015328Y009080D01*
X015328Y001757D01*
X009913Y001757D01*
X016413Y001757D02*
X016413Y009080D01*
X021828Y009080D01*
X021828Y001757D01*
X016413Y001757D01*
X022913Y001757D02*
X022913Y009080D01*
X028328Y009080D01*
X028328Y001757D01*
X022913Y001757D01*
X029413Y001757D02*
X029413Y009080D01*
X034828Y009080D01*
X034828Y001757D01*
X029413Y001757D01*
X029413Y012453D02*
X029413Y019776D01*
X034828Y019776D01*
X034828Y012453D01*
X029413Y012453D01*
X028328Y012453D02*
X028328Y019776D01*
X022913Y019776D01*
X022913Y012453D01*
X028328Y012453D01*
X021828Y012453D02*
X021828Y019776D01*
X016413Y019776D01*
X016413Y012453D01*
X021828Y012453D01*
X015328Y012453D02*
X015328Y019776D01*
X009913Y019776D01*
X009913Y012453D01*
X015328Y012453D01*
D14*
X014245Y017147D02*
X014297Y017198D01*
X014297Y017405D01*
X014245Y017457D01*
X014090Y017457D01*
X014090Y017147D01*
X014245Y017147D01*
X014002Y017147D02*
X014002Y017457D01*
X013795Y017457D02*
X014002Y017147D01*
X013795Y017147D02*
X013795Y017457D01*
X013707Y017405D02*
X013655Y017457D01*
X013552Y017457D01*
X013500Y017405D01*
X013500Y017198D01*
X013552Y017147D01*
X013655Y017147D01*
X013707Y017198D01*
X013707Y017302D01*
X013604Y017302D01*
X013047Y017198D02*
X013047Y017405D01*
X012995Y017457D01*
X012840Y017457D01*
X012840Y017147D01*
X012995Y017147D01*
X013047Y017198D01*
X012752Y017147D02*
X012752Y017457D01*
X012545Y017457D02*
X012752Y017147D01*
X012545Y017147D02*
X012545Y017457D01*
X012457Y017405D02*
X012405Y017457D01*
X012302Y017457D01*
X012250Y017405D01*
X012250Y017198D01*
X012302Y017147D01*
X012405Y017147D01*
X012457Y017198D01*
X012457Y017302D01*
X012354Y017302D01*
X011547Y017457D02*
X011547Y017147D01*
X011340Y017147D02*
X011340Y017457D01*
X011443Y017354D01*
X011547Y017457D01*
X011252Y017457D02*
X011252Y017147D01*
X011148Y017250D01*
X011045Y017147D01*
X011045Y017457D01*
X010957Y017405D02*
X010905Y017457D01*
X010750Y017457D01*
X010750Y017147D01*
X010750Y017250D02*
X010905Y017250D01*
X010957Y017302D01*
X010957Y017405D01*
X010943Y018897D02*
X011047Y019000D01*
X011047Y019207D01*
X010840Y019207D02*
X010840Y019000D01*
X010943Y018897D01*
X010752Y018897D02*
X010545Y018897D01*
X010752Y019104D01*
X010752Y019155D01*
X010700Y019207D01*
X010597Y019207D01*
X010545Y019155D01*
X010354Y019207D02*
X010354Y018897D01*
X010457Y018897D02*
X010250Y018897D01*
X010250Y019104D02*
X010354Y019207D01*
X012125Y019397D02*
X012229Y019397D01*
X012177Y019397D02*
X012177Y019707D01*
X012125Y019707D02*
X012229Y019707D01*
X012529Y019707D02*
X012322Y019397D01*
X012616Y019448D02*
X012668Y019397D01*
X012772Y019397D01*
X012823Y019448D01*
X012823Y019655D01*
X012772Y019707D01*
X012668Y019707D01*
X012616Y019655D01*
X012616Y019448D01*
X014000Y019207D02*
X014000Y019052D01*
X014104Y019104D01*
X014155Y019104D01*
X014207Y019052D01*
X014207Y018948D01*
X014155Y018897D01*
X014052Y018897D01*
X014000Y018948D01*
X014295Y019000D02*
X014398Y018897D01*
X014502Y019000D01*
X014502Y019207D01*
X014295Y019207D02*
X014295Y019000D01*
X014207Y019207D02*
X014000Y019207D01*
X016750Y019104D02*
X016854Y019207D01*
X016854Y018897D01*
X016957Y018897D02*
X016750Y018897D01*
X017045Y018897D02*
X017252Y019104D01*
X017252Y019155D01*
X017200Y019207D01*
X017097Y019207D01*
X017045Y019155D01*
X017045Y018897D02*
X017252Y018897D01*
X017340Y019000D02*
X017443Y018897D01*
X017547Y019000D01*
X017547Y019207D01*
X017340Y019207D02*
X017340Y019000D01*
X018625Y019397D02*
X018729Y019397D01*
X018677Y019397D02*
X018677Y019707D01*
X018625Y019707D02*
X018729Y019707D01*
X019029Y019707D02*
X018822Y019397D01*
X019116Y019448D02*
X019168Y019397D01*
X019272Y019397D01*
X019323Y019448D01*
X019323Y019655D01*
X019272Y019707D01*
X019168Y019707D01*
X019116Y019655D01*
X019116Y019448D01*
X020500Y019207D02*
X020500Y019052D01*
X020604Y019104D01*
X020655Y019104D01*
X020707Y019052D01*
X020707Y018948D01*
X020655Y018897D01*
X020552Y018897D01*
X020500Y018948D01*
X020795Y019000D02*
X020898Y018897D01*
X021002Y019000D01*
X021002Y019207D01*
X020795Y019207D02*
X020795Y019000D01*
X020707Y019207D02*
X020500Y019207D01*
X023250Y019104D02*
X023354Y019207D01*
X023354Y018897D01*
X023457Y018897D02*
X023250Y018897D01*
X023545Y018897D02*
X023752Y019104D01*
X023752Y019155D01*
X023700Y019207D01*
X023597Y019207D01*
X023545Y019155D01*
X023545Y018897D02*
X023752Y018897D01*
X023840Y019000D02*
X023943Y018897D01*
X024047Y019000D01*
X024047Y019207D01*
X023840Y019207D02*
X023840Y019000D01*
X025125Y019397D02*
X025229Y019397D01*
X025177Y019397D02*
X025177Y019707D01*
X025125Y019707D02*
X025229Y019707D01*
X025529Y019707D02*
X025322Y019397D01*
X025616Y019448D02*
X025668Y019397D01*
X025772Y019397D01*
X025823Y019448D01*
X025823Y019655D01*
X025772Y019707D01*
X025668Y019707D01*
X025616Y019655D01*
X025616Y019448D01*
X027000Y019207D02*
X027000Y019052D01*
X027104Y019104D01*
X027155Y019104D01*
X027207Y019052D01*
X027207Y018948D01*
X027155Y018897D01*
X027052Y018897D01*
X027000Y018948D01*
X027295Y019000D02*
X027398Y018897D01*
X027502Y019000D01*
X027502Y019207D01*
X027295Y019207D02*
X027295Y019000D01*
X027207Y019207D02*
X027000Y019207D01*
X027002Y017457D02*
X027002Y017147D01*
X026795Y017457D01*
X026795Y017147D01*
X026707Y017198D02*
X026707Y017302D01*
X026604Y017302D01*
X026707Y017405D02*
X026655Y017457D01*
X026552Y017457D01*
X026500Y017405D01*
X026500Y017198D01*
X026552Y017147D01*
X026655Y017147D01*
X026707Y017198D01*
X027090Y017147D02*
X027245Y017147D01*
X027297Y017198D01*
X027297Y017405D01*
X027245Y017457D01*
X027090Y017457D01*
X027090Y017147D01*
X026047Y017198D02*
X026047Y017405D01*
X025995Y017457D01*
X025840Y017457D01*
X025840Y017147D01*
X025995Y017147D01*
X026047Y017198D01*
X025752Y017147D02*
X025752Y017457D01*
X025545Y017457D02*
X025752Y017147D01*
X025545Y017147D02*
X025545Y017457D01*
X025457Y017405D02*
X025405Y017457D01*
X025302Y017457D01*
X025250Y017405D01*
X025250Y017198D01*
X025302Y017147D01*
X025405Y017147D01*
X025457Y017198D01*
X025457Y017302D01*
X025354Y017302D01*
X024547Y017457D02*
X024547Y017147D01*
X024340Y017147D02*
X024340Y017457D01*
X024443Y017354D01*
X024547Y017457D01*
X024252Y017457D02*
X024252Y017147D01*
X024148Y017250D01*
X024045Y017147D01*
X024045Y017457D01*
X023957Y017405D02*
X023957Y017302D01*
X023905Y017250D01*
X023750Y017250D01*
X023750Y017147D02*
X023750Y017457D01*
X023905Y017457D01*
X023957Y017405D01*
X020797Y017405D02*
X020797Y017198D01*
X020745Y017147D01*
X020590Y017147D01*
X020590Y017457D01*
X020745Y017457D01*
X020797Y017405D01*
X020502Y017457D02*
X020502Y017147D01*
X020295Y017457D01*
X020295Y017147D01*
X020207Y017198D02*
X020207Y017302D01*
X020104Y017302D01*
X020207Y017405D02*
X020155Y017457D01*
X020052Y017457D01*
X020000Y017405D01*
X020000Y017198D01*
X020052Y017147D01*
X020155Y017147D01*
X020207Y017198D01*
X019547Y017198D02*
X019547Y017405D01*
X019495Y017457D01*
X019340Y017457D01*
X019340Y017147D01*
X019495Y017147D01*
X019547Y017198D01*
X019252Y017147D02*
X019252Y017457D01*
X019045Y017457D02*
X019252Y017147D01*
X019045Y017147D02*
X019045Y017457D01*
X018957Y017405D02*
X018905Y017457D01*
X018802Y017457D01*
X018750Y017405D01*
X018750Y017198D01*
X018802Y017147D01*
X018905Y017147D01*
X018957Y017198D01*
X018957Y017302D01*
X018854Y017302D01*
X018047Y017457D02*
X018047Y017147D01*
X017840Y017147D02*
X017840Y017457D01*
X017943Y017354D01*
X018047Y017457D01*
X017752Y017457D02*
X017752Y017147D01*
X017648Y017250D01*
X017545Y017147D01*
X017545Y017457D01*
X017457Y017405D02*
X017405Y017457D01*
X017250Y017457D01*
X017250Y017147D01*
X017250Y017250D02*
X017405Y017250D01*
X017457Y017302D01*
X017457Y017405D01*
X029750Y018897D02*
X029957Y018897D01*
X030045Y018897D02*
X030252Y019104D01*
X030252Y019155D01*
X030200Y019207D01*
X030097Y019207D01*
X030045Y019155D01*
X029854Y019207D02*
X029854Y018897D01*
X030045Y018897D02*
X030252Y018897D01*
X030340Y019000D02*
X030443Y018897D01*
X030547Y019000D01*
X030547Y019207D01*
X030340Y019207D02*
X030340Y019000D01*
X029854Y019207D02*
X029750Y019104D01*
X031625Y019397D02*
X031729Y019397D01*
X031677Y019397D02*
X031677Y019707D01*
X031625Y019707D02*
X031729Y019707D01*
X032029Y019707D02*
X031822Y019397D01*
X032116Y019448D02*
X032168Y019397D01*
X032272Y019397D01*
X032323Y019448D01*
X032323Y019655D01*
X032272Y019707D01*
X032168Y019707D01*
X032116Y019655D01*
X032116Y019448D01*
X033500Y019207D02*
X033500Y019052D01*
X033604Y019104D01*
X033655Y019104D01*
X033707Y019052D01*
X033707Y018948D01*
X033655Y018897D01*
X033552Y018897D01*
X033500Y018948D01*
X033795Y019000D02*
X033898Y018897D01*
X034002Y019000D01*
X034002Y019207D01*
X033795Y019207D02*
X033795Y019000D01*
X033707Y019207D02*
X033500Y019207D01*
X033502Y017457D02*
X033502Y017147D01*
X033295Y017457D01*
X033295Y017147D01*
X033207Y017198D02*
X033207Y017302D01*
X033104Y017302D01*
X033207Y017405D02*
X033155Y017457D01*
X033052Y017457D01*
X033000Y017405D01*
X033000Y017198D01*
X033052Y017147D01*
X033155Y017147D01*
X033207Y017198D01*
X033590Y017147D02*
X033745Y017147D01*
X033797Y017198D01*
X033797Y017405D01*
X033745Y017457D01*
X033590Y017457D01*
X033590Y017147D01*
X032547Y017198D02*
X032547Y017405D01*
X032495Y017457D01*
X032340Y017457D01*
X032340Y017147D01*
X032495Y017147D01*
X032547Y017198D01*
X032252Y017147D02*
X032252Y017457D01*
X032045Y017457D02*
X032252Y017147D01*
X032045Y017147D02*
X032045Y017457D01*
X031957Y017405D02*
X031905Y017457D01*
X031802Y017457D01*
X031750Y017405D01*
X031750Y017198D01*
X031802Y017147D01*
X031905Y017147D01*
X031957Y017198D01*
X031957Y017302D01*
X031854Y017302D01*
X031047Y017457D02*
X031047Y017147D01*
X030840Y017147D02*
X030840Y017457D01*
X030943Y017354D01*
X031047Y017457D01*
X030752Y017457D02*
X030752Y017147D01*
X030648Y017250D01*
X030545Y017147D01*
X030545Y017457D01*
X030457Y017405D02*
X030457Y017302D01*
X030405Y017250D01*
X030250Y017250D01*
X030250Y017147D02*
X030250Y017457D01*
X030405Y017457D01*
X030457Y017405D01*
X030418Y004387D02*
X030366Y004335D01*
X030366Y004128D01*
X030418Y004077D01*
X030522Y004077D01*
X030573Y004128D01*
X030573Y004232D01*
X030470Y004232D01*
X030573Y004335D02*
X030522Y004387D01*
X030418Y004387D01*
X030661Y004387D02*
X030868Y004077D01*
X030868Y004387D01*
X030956Y004387D02*
X031111Y004387D01*
X031163Y004335D01*
X031163Y004128D01*
X031111Y004077D01*
X030956Y004077D01*
X030956Y004387D01*
X030661Y004387D02*
X030661Y004077D01*
X031706Y004128D02*
X031757Y004077D01*
X031861Y004077D01*
X031913Y004128D01*
X031913Y004232D01*
X031809Y004232D01*
X031706Y004335D02*
X031706Y004128D01*
X031706Y004335D02*
X031757Y004387D01*
X031861Y004387D01*
X031913Y004335D01*
X032706Y004387D02*
X032706Y004077D01*
X032706Y004180D02*
X032861Y004180D01*
X032913Y004232D01*
X032913Y004335D01*
X032861Y004387D01*
X032706Y004387D01*
X032809Y004180D02*
X032913Y004077D01*
X033720Y002637D02*
X033720Y002327D01*
X033823Y002327D02*
X033616Y002327D01*
X033616Y002534D02*
X033720Y002637D01*
X033911Y002585D02*
X033963Y002637D01*
X034066Y002637D01*
X034118Y002585D01*
X034118Y002534D01*
X033911Y002327D01*
X034118Y002327D01*
X034206Y002430D02*
X034309Y002327D01*
X034413Y002430D01*
X034413Y002637D01*
X034206Y002637D02*
X034206Y002430D01*
X032288Y002085D02*
X032288Y002034D01*
X032236Y001982D01*
X032081Y001982D01*
X032236Y001982D02*
X032288Y001930D01*
X032288Y001878D01*
X032236Y001827D01*
X032081Y001827D01*
X032081Y002137D01*
X032236Y002137D01*
X032288Y002085D01*
X030663Y002430D02*
X030559Y002327D01*
X030456Y002430D01*
X030456Y002637D01*
X030368Y002637D02*
X030161Y002637D01*
X030161Y002482D01*
X030264Y002534D01*
X030316Y002534D01*
X030368Y002482D01*
X030368Y002378D01*
X030316Y002327D01*
X030213Y002327D01*
X030161Y002378D01*
X030663Y002430D02*
X030663Y002637D01*
X027913Y002637D02*
X027913Y002430D01*
X027809Y002327D01*
X027706Y002430D01*
X027706Y002637D01*
X027618Y002585D02*
X027566Y002637D01*
X027463Y002637D01*
X027411Y002585D01*
X027220Y002637D02*
X027220Y002327D01*
X027323Y002327D02*
X027116Y002327D01*
X027116Y002534D02*
X027220Y002637D01*
X027411Y002327D02*
X027618Y002534D01*
X027618Y002585D01*
X027618Y002327D02*
X027411Y002327D01*
X025788Y002085D02*
X025788Y002034D01*
X025736Y001982D01*
X025581Y001982D01*
X025736Y001982D02*
X025788Y001930D01*
X025788Y001878D01*
X025736Y001827D01*
X025581Y001827D01*
X025581Y002137D01*
X025736Y002137D01*
X025788Y002085D01*
X024163Y002430D02*
X024059Y002327D01*
X023956Y002430D01*
X023956Y002637D01*
X023868Y002637D02*
X023661Y002637D01*
X023661Y002482D01*
X023764Y002534D01*
X023816Y002534D01*
X023868Y002482D01*
X023868Y002378D01*
X023816Y002327D01*
X023713Y002327D01*
X023661Y002378D01*
X024163Y002430D02*
X024163Y002637D01*
X024161Y004077D02*
X024161Y004387D01*
X024368Y004077D01*
X024368Y004387D01*
X024456Y004387D02*
X024456Y004077D01*
X024611Y004077D01*
X024663Y004128D01*
X024663Y004335D01*
X024611Y004387D01*
X024456Y004387D01*
X024073Y004335D02*
X024022Y004387D01*
X023918Y004387D01*
X023866Y004335D01*
X023866Y004128D01*
X023918Y004077D01*
X024022Y004077D01*
X024073Y004128D01*
X024073Y004232D01*
X023970Y004232D01*
X025206Y004335D02*
X025206Y004128D01*
X025257Y004077D01*
X025361Y004077D01*
X025413Y004128D01*
X025413Y004232D01*
X025309Y004232D01*
X025206Y004335D02*
X025257Y004387D01*
X025361Y004387D01*
X025413Y004335D01*
X026206Y004387D02*
X026206Y004077D01*
X026206Y004180D02*
X026361Y004180D01*
X026413Y004232D01*
X026413Y004335D01*
X026361Y004387D01*
X026206Y004387D01*
X026309Y004180D02*
X026413Y004077D01*
X021413Y002637D02*
X021413Y002430D01*
X021309Y002327D01*
X021206Y002430D01*
X021206Y002637D01*
X021118Y002585D02*
X021066Y002637D01*
X020963Y002637D01*
X020911Y002585D01*
X020720Y002637D02*
X020720Y002327D01*
X020823Y002327D02*
X020616Y002327D01*
X020616Y002534D02*
X020720Y002637D01*
X020911Y002327D02*
X021118Y002534D01*
X021118Y002585D01*
X021118Y002327D02*
X020911Y002327D01*
X019538Y002137D02*
X019331Y001827D01*
X019139Y001827D02*
X019139Y002137D01*
X019036Y002137D02*
X019243Y002137D01*
X019331Y002137D02*
X019538Y001827D01*
X017663Y002430D02*
X017663Y002637D01*
X017663Y002430D02*
X017559Y002327D01*
X017456Y002430D01*
X017456Y002637D01*
X017368Y002637D02*
X017161Y002637D01*
X017161Y002482D01*
X017264Y002534D01*
X017316Y002534D01*
X017368Y002482D01*
X017368Y002378D01*
X017316Y002327D01*
X017213Y002327D01*
X017161Y002378D01*
X014913Y002430D02*
X014809Y002327D01*
X014706Y002430D01*
X014706Y002637D01*
X014618Y002585D02*
X014566Y002637D01*
X014463Y002637D01*
X014411Y002585D01*
X014220Y002637D02*
X014220Y002327D01*
X014323Y002327D02*
X014116Y002327D01*
X014116Y002534D02*
X014220Y002637D01*
X014411Y002327D02*
X014618Y002534D01*
X014618Y002585D01*
X014618Y002327D02*
X014411Y002327D01*
X014913Y002430D02*
X014913Y002637D01*
X013038Y002034D02*
X013038Y001827D01*
X013038Y001982D02*
X012831Y001982D01*
X012831Y002034D02*
X012831Y001827D01*
X012743Y001878D02*
X012743Y002085D01*
X012691Y002137D01*
X012536Y002137D01*
X012536Y001827D01*
X012691Y001827D01*
X012743Y001878D01*
X012831Y002034D02*
X012934Y002137D01*
X013038Y002034D01*
X012448Y002085D02*
X012397Y002137D01*
X012293Y002137D01*
X012241Y002085D01*
X012241Y002034D01*
X012293Y001982D01*
X012397Y001982D01*
X012448Y001930D01*
X012448Y001878D01*
X012397Y001827D01*
X012293Y001827D01*
X012241Y001878D01*
X011163Y002430D02*
X011163Y002637D01*
X011163Y002430D02*
X011059Y002327D01*
X010956Y002430D01*
X010956Y002637D01*
X010868Y002637D02*
X010661Y002637D01*
X010661Y002482D01*
X010764Y002534D01*
X010816Y002534D01*
X010868Y002482D01*
X010868Y002378D01*
X010816Y002327D01*
X010713Y002327D01*
X010661Y002378D01*
X010918Y004077D02*
X010866Y004128D01*
X010866Y004335D01*
X010918Y004387D01*
X011022Y004387D01*
X011073Y004335D01*
X011161Y004387D02*
X011368Y004077D01*
X011368Y004387D01*
X011456Y004387D02*
X011611Y004387D01*
X011663Y004335D01*
X011663Y004128D01*
X011611Y004077D01*
X011456Y004077D01*
X011456Y004387D01*
X011161Y004387D02*
X011161Y004077D01*
X011073Y004128D02*
X011073Y004232D01*
X010970Y004232D01*
X011073Y004128D02*
X011022Y004077D01*
X010918Y004077D01*
X012116Y004128D02*
X012168Y004077D01*
X012272Y004077D01*
X012323Y004128D01*
X012323Y004232D01*
X012220Y004232D01*
X012323Y004335D02*
X012272Y004387D01*
X012168Y004387D01*
X012116Y004335D01*
X012116Y004128D01*
X012411Y004077D02*
X012411Y004387D01*
X012618Y004077D01*
X012618Y004387D01*
X012706Y004387D02*
X012861Y004387D01*
X012913Y004335D01*
X012913Y004128D01*
X012861Y004077D01*
X012706Y004077D01*
X012706Y004387D01*
X013616Y004335D02*
X013616Y004284D01*
X013668Y004232D01*
X013772Y004232D01*
X013823Y004180D01*
X013823Y004128D01*
X013772Y004077D01*
X013668Y004077D01*
X013616Y004128D01*
X013616Y004335D02*
X013668Y004387D01*
X013772Y004387D01*
X013823Y004335D01*
X013911Y004335D02*
X013911Y004128D01*
X013963Y004077D01*
X014066Y004077D01*
X014118Y004128D01*
X014206Y004077D02*
X014413Y004077D01*
X014206Y004077D02*
X014206Y004387D01*
X014118Y004335D02*
X014066Y004387D01*
X013963Y004387D01*
X013911Y004335D01*
X017366Y004335D02*
X017366Y004128D01*
X017418Y004077D01*
X017522Y004077D01*
X017573Y004128D01*
X017573Y004232D01*
X017470Y004232D01*
X017573Y004335D02*
X017522Y004387D01*
X017418Y004387D01*
X017366Y004335D01*
X017661Y004387D02*
X017868Y004077D01*
X017868Y004387D01*
X017956Y004387D02*
X018111Y004387D01*
X018163Y004335D01*
X018163Y004128D01*
X018111Y004077D01*
X017956Y004077D01*
X017956Y004387D01*
X017661Y004387D02*
X017661Y004077D01*
X018616Y004128D02*
X018668Y004077D01*
X018772Y004077D01*
X018823Y004128D01*
X018823Y004232D01*
X018720Y004232D01*
X018823Y004335D02*
X018772Y004387D01*
X018668Y004387D01*
X018616Y004335D01*
X018616Y004128D01*
X018911Y004077D02*
X018911Y004387D01*
X019118Y004077D01*
X019118Y004387D01*
X019206Y004387D02*
X019206Y004077D01*
X019361Y004077D01*
X019413Y004128D01*
X019413Y004335D01*
X019361Y004387D01*
X019206Y004387D01*
X019661Y004387D02*
X019661Y004077D01*
X019661Y004180D02*
X019816Y004180D01*
X019868Y004232D01*
X019868Y004335D01*
X019816Y004387D01*
X019661Y004387D01*
X019764Y004180D02*
X019868Y004077D01*
X019956Y004077D02*
X020163Y004387D01*
X019956Y004387D02*
X020163Y004077D01*
D15*
X022039Y007951D03*
X022702Y007951D03*
X028539Y007951D03*
X029202Y007951D03*
X035039Y007951D03*
X035039Y013582D03*
X029202Y013582D03*
X028539Y013582D03*
X022702Y013582D03*
X022039Y013582D03*
X016202Y013582D03*
X015539Y013582D03*
X009702Y013582D03*
X009702Y007951D03*
X015539Y007951D03*
X016202Y007951D03*
D16*
X014272Y009337D02*
X014272Y009797D01*
X014578Y009797D01*
X014425Y009567D02*
X014272Y009567D01*
X014118Y009567D02*
X014118Y009413D01*
X014041Y009337D01*
X013811Y009337D01*
X013658Y009337D02*
X013351Y009337D01*
X013658Y009644D01*
X013658Y009720D01*
X013581Y009797D01*
X013427Y009797D01*
X013351Y009720D01*
X013197Y009720D02*
X013121Y009797D01*
X012967Y009797D01*
X012890Y009720D01*
X012990Y009957D02*
X013750Y009957D01*
X013811Y010183D02*
X013811Y010644D01*
X014041Y010644D01*
X014118Y010567D01*
X014118Y010413D01*
X014041Y010337D01*
X013811Y010337D01*
X013658Y010337D02*
X013351Y010337D01*
X013658Y010644D01*
X013658Y010720D01*
X013581Y010797D01*
X013427Y010797D01*
X013351Y010720D01*
X013197Y010720D02*
X013121Y010797D01*
X012967Y010797D01*
X012890Y010720D01*
X012990Y010577D02*
X013750Y010577D01*
X013197Y010644D02*
X013197Y010720D01*
X013197Y010644D02*
X012890Y010337D01*
X013197Y010337D01*
X013197Y009720D02*
X013197Y009644D01*
X012890Y009337D01*
X013197Y009337D01*
X013811Y009183D02*
X013811Y009644D01*
X014041Y009644D01*
X014118Y009567D01*
X014272Y010337D02*
X014272Y010797D01*
X014578Y010797D01*
X014425Y010567D02*
X014272Y010567D01*
X013750Y010957D02*
X012990Y010957D01*
X012990Y011577D02*
X013750Y011577D01*
X015640Y011054D02*
X016100Y011054D01*
X015793Y010901D02*
X015640Y011054D01*
X015793Y010901D02*
X015640Y010747D01*
X016100Y010747D01*
X016100Y010594D02*
X016100Y010287D01*
X016100Y010440D02*
X015640Y010440D01*
X015793Y010287D01*
X017675Y010294D02*
X017752Y010141D01*
X017906Y009987D01*
X017906Y010217D01*
X017982Y010294D01*
X018059Y010294D01*
X018136Y010217D01*
X018136Y010064D01*
X018059Y009987D01*
X017906Y009987D01*
X018136Y009834D02*
X018136Y009527D01*
X018136Y009680D02*
X017675Y009680D01*
X017829Y009527D01*
X017675Y010448D02*
X017829Y010601D01*
X017675Y010755D01*
X018136Y010755D01*
X018136Y010908D02*
X017675Y010908D01*
X017906Y010908D02*
X017906Y011215D01*
X017829Y011368D02*
X017829Y011675D01*
X018136Y011368D01*
X018136Y011675D01*
X018136Y011215D02*
X017675Y011215D01*
X017675Y010448D02*
X018136Y010448D01*
X008350Y014537D02*
X008350Y014844D01*
X008350Y014769D02*
X007890Y014769D01*
X008043Y014616D01*
X008043Y014537D02*
X007890Y014690D01*
X008350Y014690D01*
X008350Y014616D02*
X008350Y014923D01*
X008350Y014997D02*
X007890Y014997D01*
X007890Y015076D02*
X008350Y015076D01*
X008197Y015076D02*
X007890Y015383D01*
X007890Y015304D02*
X008197Y014997D01*
X008120Y015074D02*
X008350Y015304D01*
X008350Y015383D02*
X008120Y015153D01*
X006316Y013261D02*
X006162Y013414D01*
X005856Y013414D01*
X005856Y013107D02*
X006162Y013107D01*
X006316Y013261D01*
X006239Y012954D02*
X006316Y012877D01*
X006316Y012723D01*
X006239Y012647D01*
X006086Y012647D02*
X006009Y012800D01*
X006009Y012877D01*
X006086Y012954D01*
X006239Y012954D01*
X006086Y012647D02*
X005856Y012647D01*
X005856Y012954D01*
X006086Y012493D02*
X006086Y012186D01*
X005932Y012340D02*
X006239Y012340D01*
X006162Y011625D02*
X005856Y011625D01*
X006162Y011625D02*
X006316Y011472D01*
X006162Y011318D01*
X005856Y011318D01*
X005932Y011165D02*
X005856Y011088D01*
X005856Y010935D01*
X005932Y010858D01*
X005932Y011165D02*
X006009Y011165D01*
X006316Y010858D01*
X006316Y011165D01*
X006316Y010705D02*
X006316Y010398D01*
X006316Y010551D02*
X005856Y010551D01*
X006009Y010398D01*
X006086Y010244D02*
X006086Y009937D01*
X005932Y010091D02*
X006239Y010091D01*
X004070Y009859D02*
X004070Y009552D01*
X003993Y009476D01*
X003763Y009476D01*
X003763Y009936D01*
X003993Y009936D01*
X004070Y009859D01*
X003609Y009936D02*
X003609Y009476D01*
X003302Y009936D01*
X003302Y009476D01*
X003149Y009552D02*
X003072Y009476D01*
X002919Y009476D01*
X002842Y009552D01*
X002842Y009859D01*
X002919Y009936D01*
X003072Y009936D01*
X003149Y009859D01*
X003149Y009706D02*
X002995Y009706D01*
X003149Y009706D02*
X003149Y009552D01*
X003244Y007696D02*
X003244Y007696D01*
X003231Y007695D01*
X003218Y007690D01*
X003206Y007683D01*
X003196Y007673D01*
X003189Y007661D01*
X003185Y007648D01*
X003183Y007635D01*
X003183Y007265D01*
X003398Y007480D02*
X003410Y007480D01*
X003410Y007481D02*
X003427Y007483D01*
X003444Y007488D01*
X003459Y007496D01*
X003472Y007507D01*
X003483Y007520D01*
X003491Y007535D01*
X003496Y007552D01*
X003498Y007569D01*
X003498Y007635D01*
X003500Y007649D01*
X003504Y007661D01*
X003511Y007673D01*
X003521Y007683D01*
X003533Y007690D01*
X003545Y007694D01*
X003559Y007696D01*
X003559Y007695D02*
X003574Y007693D01*
X003588Y007688D01*
X003600Y007681D01*
X003611Y007670D01*
X003618Y007658D01*
X003623Y007644D01*
X003625Y007629D01*
X003625Y007260D01*
X003625Y007265D02*
X003625Y006768D01*
X003624Y006768D02*
X003622Y006746D01*
X003617Y006724D01*
X003608Y006703D01*
X003597Y006684D01*
X003582Y006667D01*
X003565Y006652D01*
X003546Y006641D01*
X003525Y006632D01*
X003503Y006627D01*
X003481Y006625D01*
X003271Y006625D01*
X003248Y006623D01*
X003227Y006618D01*
X003206Y006609D01*
X003186Y006597D01*
X003169Y006583D01*
X003155Y006566D01*
X003143Y006546D01*
X003134Y006525D01*
X003129Y006504D01*
X003127Y006481D01*
X003128Y006481D02*
X003128Y005035D01*
X003130Y005015D01*
X003134Y004996D01*
X003142Y004977D01*
X003152Y004960D01*
X003165Y004945D01*
X003180Y004932D01*
X003197Y004922D01*
X003216Y004914D01*
X003235Y004910D01*
X003255Y004908D01*
X003487Y004908D01*
X003509Y004906D01*
X003530Y004901D01*
X003550Y004893D01*
X003568Y004882D01*
X003585Y004868D01*
X003599Y004851D01*
X003610Y004833D01*
X003618Y004813D01*
X003623Y004792D01*
X003625Y004770D01*
X003625Y004268D01*
X003625Y003898D01*
X003624Y003885D01*
X003619Y003872D01*
X003612Y003860D01*
X003602Y003850D01*
X003590Y003843D01*
X003577Y003838D01*
X003564Y003837D01*
X003564Y003838D02*
X003564Y003838D01*
X003549Y003840D01*
X003535Y003845D01*
X003523Y003852D01*
X003512Y003863D01*
X003505Y003875D01*
X003500Y003889D01*
X003498Y003904D01*
X003498Y003965D01*
X003496Y003982D01*
X003491Y003999D01*
X003483Y004014D01*
X003472Y004027D01*
X003459Y004038D01*
X003444Y004046D01*
X003427Y004051D01*
X003410Y004053D01*
X003409Y004053D02*
X003398Y004053D01*
X003381Y004051D01*
X003364Y004046D01*
X003349Y004038D01*
X003336Y004027D01*
X003325Y004014D01*
X003317Y003999D01*
X003312Y003982D01*
X003310Y003965D01*
X003310Y003898D01*
X003308Y003884D01*
X003304Y003872D01*
X003297Y003860D01*
X003287Y003850D01*
X003275Y003843D01*
X003263Y003839D01*
X003249Y003837D01*
X003249Y003838D02*
X003234Y003840D01*
X003220Y003845D01*
X003208Y003852D01*
X003197Y003863D01*
X003190Y003875D01*
X003185Y003889D01*
X003183Y003904D01*
X003183Y004246D01*
X003625Y004268D02*
X001544Y004268D01*
X001544Y003898D01*
X001543Y003885D01*
X001538Y003872D01*
X001531Y003860D01*
X001521Y003850D01*
X001509Y003843D01*
X001496Y003838D01*
X001483Y003837D01*
X001483Y003838D02*
X001483Y003838D01*
X001468Y003840D01*
X001454Y003845D01*
X001442Y003852D01*
X001431Y003863D01*
X001424Y003875D01*
X001419Y003889D01*
X001417Y003904D01*
X001417Y003965D01*
X001415Y003982D01*
X001410Y003999D01*
X001402Y004014D01*
X001391Y004027D01*
X001378Y004038D01*
X001363Y004046D01*
X001346Y004051D01*
X001329Y004053D01*
X001318Y004053D01*
X001318Y004052D02*
X001301Y004050D01*
X001284Y004045D01*
X001269Y004037D01*
X001256Y004026D01*
X001245Y004013D01*
X001237Y003998D01*
X001232Y003981D01*
X001230Y003964D01*
X001229Y003965D02*
X001229Y003898D01*
X001230Y003898D02*
X001228Y003884D01*
X001224Y003872D01*
X001217Y003860D01*
X001207Y003850D01*
X001195Y003843D01*
X001183Y003839D01*
X001169Y003837D01*
X001169Y003838D02*
X001154Y003840D01*
X001140Y003845D01*
X001128Y003852D01*
X001117Y003863D01*
X001110Y003875D01*
X001105Y003889D01*
X001103Y003904D01*
X001102Y003904D02*
X001102Y004246D01*
X000589Y004290D02*
X000589Y004897D01*
X000591Y004919D01*
X000596Y004940D01*
X000604Y004960D01*
X000615Y004978D01*
X000629Y004995D01*
X000646Y005009D01*
X000664Y005020D01*
X000684Y005028D01*
X000705Y005033D01*
X000727Y005035D01*
X000744Y005035D01*
X002190Y005101D01*
X002189Y005102D02*
X002203Y005101D01*
X002217Y005097D01*
X002228Y005089D01*
X002238Y005079D01*
X002245Y005067D01*
X002249Y005054D01*
X002250Y005040D01*
X002247Y005026D01*
X002241Y005013D01*
X002233Y005003D01*
X002221Y004994D01*
X002209Y004988D01*
X002195Y004986D01*
X000860Y004897D01*
X000860Y004898D02*
X000841Y004895D01*
X000824Y004888D01*
X000808Y004879D01*
X000794Y004866D01*
X000783Y004851D01*
X000775Y004835D01*
X000770Y004817D01*
X000769Y004798D01*
X000771Y004780D01*
X000777Y004762D01*
X000786Y004746D01*
X000798Y004732D01*
X000813Y004720D01*
X000829Y004711D01*
X000847Y004706D01*
X000865Y004704D01*
X002206Y004616D01*
X002218Y004614D01*
X002229Y004608D01*
X002238Y004600D01*
X002245Y004590D01*
X002249Y004579D01*
X002250Y004567D01*
X002250Y004566D02*
X002250Y004290D01*
X001544Y004268D02*
X000120Y004268D01*
X000120Y007265D01*
X003625Y007265D01*
X003398Y007481D02*
X003381Y007483D01*
X003364Y007488D01*
X003349Y007496D01*
X003336Y007507D01*
X003325Y007520D01*
X003317Y007535D01*
X003312Y007552D01*
X003310Y007569D01*
X003310Y007629D01*
X003308Y007644D01*
X003303Y007658D01*
X003296Y007670D01*
X003285Y007681D01*
X003273Y007688D01*
X003259Y007693D01*
X003244Y007695D01*
X002250Y007243D02*
X002250Y006967D01*
X002249Y006955D01*
X002245Y006944D01*
X002238Y006934D01*
X002229Y006926D01*
X002218Y006920D01*
X002206Y006918D01*
X002206Y006917D02*
X000865Y006829D01*
X000847Y006827D01*
X000829Y006822D01*
X000813Y006813D01*
X000798Y006801D01*
X000786Y006787D01*
X000777Y006771D01*
X000771Y006753D01*
X000769Y006735D01*
X000770Y006716D01*
X000775Y006698D01*
X000783Y006682D01*
X000794Y006667D01*
X000808Y006654D01*
X000824Y006645D01*
X000841Y006638D01*
X000860Y006635D01*
X000860Y006636D02*
X002195Y006548D01*
X002209Y006546D01*
X002221Y006540D01*
X002233Y006531D01*
X002241Y006521D01*
X002247Y006508D01*
X002250Y006494D01*
X002249Y006480D01*
X002245Y006467D01*
X002238Y006455D01*
X002228Y006445D01*
X002217Y006437D01*
X002203Y006433D01*
X002189Y006432D01*
X002190Y006432D02*
X000744Y006498D01*
X000727Y006498D01*
X000705Y006500D01*
X000684Y006505D01*
X000664Y006513D01*
X000646Y006524D01*
X000629Y006538D01*
X000615Y006555D01*
X000604Y006573D01*
X000596Y006593D01*
X000591Y006614D01*
X000589Y006636D01*
X000589Y007243D01*
X001102Y007265D02*
X001102Y007635D01*
X001103Y007648D01*
X001108Y007661D01*
X001115Y007673D01*
X001125Y007683D01*
X001137Y007690D01*
X001150Y007695D01*
X001163Y007696D01*
X001163Y007696D01*
X001163Y007695D02*
X001178Y007693D01*
X001192Y007688D01*
X001204Y007681D01*
X001215Y007670D01*
X001222Y007658D01*
X001227Y007644D01*
X001229Y007629D01*
X001229Y007569D01*
X001230Y007569D02*
X001232Y007552D01*
X001237Y007535D01*
X001245Y007520D01*
X001256Y007507D01*
X001269Y007496D01*
X001284Y007488D01*
X001301Y007483D01*
X001318Y007481D01*
X001318Y007480D02*
X001329Y007480D01*
X001329Y007481D02*
X001346Y007483D01*
X001363Y007488D01*
X001378Y007496D01*
X001391Y007507D01*
X001402Y007520D01*
X001410Y007535D01*
X001415Y007552D01*
X001417Y007569D01*
X001417Y007635D01*
X001419Y007649D01*
X001423Y007661D01*
X001430Y007673D01*
X001440Y007683D01*
X001452Y007690D01*
X001464Y007694D01*
X001478Y007696D01*
X001478Y007695D02*
X001493Y007693D01*
X001507Y007688D01*
X001519Y007681D01*
X001530Y007670D01*
X001537Y007658D01*
X001542Y007644D01*
X001544Y007629D01*
X001544Y007287D01*
X002234Y006194D02*
X000650Y006277D01*
X000650Y006278D02*
X000636Y006277D01*
X000623Y006272D01*
X000612Y006264D01*
X000603Y006254D01*
X000597Y006241D01*
X000594Y006228D01*
X000595Y006214D01*
X000600Y006201D01*
X000608Y006190D01*
X000618Y006181D01*
X000631Y006175D01*
X000644Y006172D01*
X001870Y006106D01*
X001894Y006104D01*
X001918Y006099D01*
X001941Y006091D01*
X001962Y006079D01*
X001982Y006064D01*
X001999Y006047D01*
X002014Y006027D01*
X002026Y006006D01*
X002034Y005983D01*
X002039Y005959D01*
X002041Y005935D01*
X002041Y005587D01*
X002039Y005563D01*
X002034Y005540D01*
X002026Y005518D01*
X002015Y005497D01*
X002000Y005478D01*
X001984Y005462D01*
X001965Y005447D01*
X001944Y005436D01*
X001922Y005428D01*
X001899Y005423D01*
X001875Y005421D01*
X001875Y005422D02*
X001848Y005422D01*
X000650Y005366D01*
X000649Y005366D02*
X000636Y005364D01*
X000623Y005358D01*
X000612Y005349D01*
X000604Y005338D01*
X000599Y005325D01*
X000597Y005311D01*
X000599Y005297D01*
X000604Y005284D01*
X000612Y005273D01*
X000623Y005264D01*
X000636Y005258D01*
X000649Y005256D01*
X000650Y005256D02*
X002223Y005339D01*
X002223Y005338D02*
X002246Y005340D01*
X002267Y005345D01*
X002288Y005354D01*
X002308Y005366D01*
X002325Y005380D01*
X002339Y005397D01*
X002351Y005417D01*
X002360Y005438D01*
X002365Y005459D01*
X002367Y005482D01*
X002366Y005482D02*
X002366Y006062D01*
X002367Y006062D02*
X002365Y006083D01*
X002360Y006103D01*
X002352Y006122D01*
X002342Y006140D01*
X002328Y006156D01*
X002312Y006170D01*
X002294Y006180D01*
X002275Y006188D01*
X002255Y006193D01*
X002234Y006195D01*
X005220Y006037D02*
X005526Y006344D01*
X005526Y006420D01*
X005450Y006497D01*
X005296Y006497D01*
X005220Y006420D01*
X005220Y006037D02*
X005526Y006037D01*
X005680Y006037D02*
X005987Y006344D01*
X005987Y006420D01*
X005910Y006497D01*
X005757Y006497D01*
X005680Y006420D01*
X005680Y006037D02*
X005987Y006037D01*
X005987Y007037D02*
X005680Y007037D01*
X005987Y007344D01*
X005987Y007420D01*
X005910Y007497D01*
X005757Y007497D01*
X005680Y007420D01*
X005526Y007420D02*
X005450Y007497D01*
X005296Y007497D01*
X005220Y007420D01*
X005526Y007420D02*
X005526Y007344D01*
X005220Y007037D01*
X005526Y007037D01*
X005494Y003497D02*
X005187Y003037D01*
X005034Y003113D02*
X004957Y003037D01*
X004804Y003037D01*
X004727Y003113D01*
X004727Y003497D01*
X004573Y003267D02*
X004267Y003267D01*
X004113Y003344D02*
X004036Y003267D01*
X003806Y003267D01*
X003653Y003190D02*
X003653Y003113D01*
X003576Y003037D01*
X003423Y003037D01*
X003346Y003113D01*
X003192Y003113D02*
X003192Y003497D01*
X003346Y003420D02*
X003346Y003344D01*
X003423Y003267D01*
X003576Y003267D01*
X003653Y003190D01*
X003806Y003037D02*
X004036Y003037D01*
X004113Y003113D01*
X004113Y003190D01*
X004036Y003267D01*
X004113Y003344D02*
X004113Y003420D01*
X004036Y003497D01*
X003806Y003497D01*
X003806Y003037D01*
X003653Y003420D02*
X003576Y003497D01*
X003423Y003497D01*
X003346Y003420D01*
X003192Y003113D02*
X003116Y003037D01*
X002962Y003037D01*
X002885Y003113D01*
X002885Y003497D01*
X002732Y003267D02*
X002425Y003267D01*
X002272Y003497D02*
X002118Y003497D01*
X002195Y003497D02*
X002195Y003037D01*
X002118Y003037D02*
X002272Y003037D01*
X001965Y003037D02*
X001965Y003497D01*
X001658Y003497D02*
X001965Y003037D01*
X001658Y003037D02*
X001658Y003497D01*
X001504Y003497D02*
X001351Y003497D01*
X001427Y003497D02*
X001427Y003037D01*
X001351Y003037D02*
X001504Y003037D01*
X001197Y003037D02*
X001197Y003497D01*
X001044Y003344D01*
X000890Y003497D01*
X000890Y003037D01*
X003140Y001844D02*
X003294Y001997D01*
X003294Y001537D01*
X003447Y001537D02*
X003140Y001537D01*
X003601Y001537D02*
X003601Y001997D01*
X003677Y001767D02*
X003908Y001537D01*
X003601Y001690D02*
X003908Y001997D01*
X005494Y003037D02*
X005187Y003497D01*
X005034Y003497D02*
X005034Y003113D01*
X005648Y003113D02*
X005724Y003037D01*
X005878Y003037D01*
X005955Y003113D01*
X005955Y003190D01*
X005878Y003267D01*
X005648Y003267D01*
X005648Y003113D01*
X005648Y003267D02*
X005801Y003420D01*
X005955Y003497D01*
X006108Y003420D02*
X006108Y003113D01*
X006415Y003420D01*
X006415Y003113D01*
X006338Y003037D01*
X006185Y003037D01*
X006108Y003113D01*
X006108Y003420D02*
X006185Y003497D01*
X006338Y003497D01*
X006415Y003420D01*
X006569Y003267D02*
X006875Y003267D01*
X007029Y003037D02*
X007029Y003497D01*
X007182Y003344D01*
X007336Y003497D01*
X007336Y003037D01*
X007489Y003037D02*
X007720Y003037D01*
X007796Y003113D01*
X007796Y003190D01*
X007720Y003267D01*
X007489Y003267D01*
X007489Y003037D02*
X007489Y003497D01*
X007720Y003497D01*
X007796Y003420D01*
X007796Y003344D01*
X007720Y003267D01*
X007950Y003267D02*
X008257Y003267D01*
X008410Y003267D02*
X008564Y003344D01*
X008640Y003344D01*
X008717Y003267D01*
X008717Y003113D01*
X008640Y003037D01*
X008487Y003037D01*
X008410Y003113D01*
X008410Y003267D02*
X008410Y003497D01*
X008717Y003497D01*
X008870Y003420D02*
X008870Y003344D01*
X008947Y003267D01*
X009101Y003267D01*
X009177Y003190D01*
X009177Y003113D01*
X009101Y003037D01*
X008947Y003037D01*
X008870Y003113D01*
X008870Y003420D02*
X008947Y003497D01*
X009101Y003497D01*
X009177Y003420D01*
X009331Y003497D02*
X009638Y003497D01*
X009484Y003497D02*
X009484Y003037D01*
X004027Y013476D02*
X004104Y013552D01*
X004104Y013859D01*
X004027Y013936D01*
X003797Y013936D01*
X003797Y013476D01*
X004027Y013476D01*
X003644Y013476D02*
X003644Y013936D01*
X003337Y013936D02*
X003644Y013476D01*
X003337Y013476D02*
X003337Y013936D01*
X003183Y013859D02*
X003106Y013936D01*
X002953Y013936D01*
X002876Y013859D01*
X002876Y013552D01*
X002953Y013476D01*
X003106Y013476D01*
X003183Y013552D01*
X003183Y013706D01*
X003030Y013706D01*
X008220Y019787D02*
X008526Y019787D01*
X008373Y019787D02*
X008373Y020247D01*
X008220Y020094D01*
X008680Y020247D02*
X008680Y019787D01*
X008680Y019940D02*
X008987Y020247D01*
X008757Y020017D02*
X008987Y019787D01*
D17*
X006620Y019887D02*
X005620Y019887D01*
X005320Y019267D02*
X005322Y019213D01*
X005327Y019159D01*
X005336Y019106D01*
X005349Y019053D01*
X005365Y019002D01*
X005385Y018952D01*
X005408Y018903D01*
X005434Y018855D01*
X005463Y018810D01*
X005496Y018767D01*
X005531Y018726D01*
X005569Y018687D01*
X005609Y018651D01*
X005652Y018618D01*
X005697Y018588D01*
X005744Y018561D01*
X005620Y018137D02*
X006620Y018137D01*
X006539Y016836D02*
X006491Y016808D01*
X006442Y016784D01*
X006390Y016764D01*
X006338Y016747D01*
X006284Y016734D01*
X006230Y016725D01*
X006175Y016719D01*
X006120Y016717D01*
X006517Y016822D02*
X006565Y016852D01*
X006610Y016885D01*
X006653Y016921D01*
X006694Y016959D01*
X006731Y017001D01*
X006766Y017045D01*
X006797Y017091D01*
X006826Y017140D01*
X006850Y017190D01*
X006871Y017242D01*
X006889Y017296D01*
X006902Y017350D01*
X006912Y017405D01*
X006918Y017461D01*
X006920Y017517D01*
X006120Y016717D02*
X006064Y016719D01*
X006007Y016725D01*
X005952Y016735D01*
X005897Y016749D01*
X005844Y016766D01*
X005791Y016788D01*
X005741Y016813D01*
X005320Y017517D02*
X005322Y017571D01*
X005327Y017624D01*
X005336Y017678D01*
X005349Y017730D01*
X005365Y017781D01*
X005385Y017832D01*
X005407Y017881D01*
X005433Y017928D01*
X005463Y017973D01*
X005495Y018016D01*
X005530Y018057D01*
X005568Y018096D01*
X005608Y018132D01*
X005320Y017517D02*
X005322Y017463D01*
X005327Y017409D01*
X005336Y017356D01*
X005349Y017303D01*
X005365Y017252D01*
X005385Y017202D01*
X005408Y017153D01*
X005434Y017105D01*
X005463Y017060D01*
X005496Y017017D01*
X005531Y016976D01*
X005569Y016937D01*
X005609Y016901D01*
X005652Y016868D01*
X005697Y016838D01*
X005744Y016811D01*
X006920Y017517D02*
X006918Y017570D01*
X006913Y017624D01*
X006904Y017676D01*
X006892Y017728D01*
X006876Y017779D01*
X006857Y017829D01*
X006834Y017878D01*
X006808Y017925D01*
X006780Y017970D01*
X006748Y018013D01*
X006714Y018053D01*
X006676Y018092D01*
X006637Y018128D01*
X008120Y018137D02*
X009120Y018137D01*
X009039Y016836D02*
X008991Y016808D01*
X008942Y016784D01*
X008890Y016764D01*
X008838Y016747D01*
X008784Y016734D01*
X008730Y016725D01*
X008675Y016719D01*
X008620Y016717D01*
X009017Y016822D02*
X009065Y016852D01*
X009110Y016885D01*
X009153Y016921D01*
X009194Y016959D01*
X009231Y017001D01*
X009266Y017045D01*
X009297Y017091D01*
X009326Y017140D01*
X009350Y017190D01*
X009371Y017242D01*
X009389Y017296D01*
X009402Y017350D01*
X009412Y017405D01*
X009418Y017461D01*
X009420Y017517D01*
X008620Y016717D02*
X008564Y016719D01*
X008507Y016725D01*
X008452Y016735D01*
X008397Y016749D01*
X008344Y016766D01*
X008291Y016788D01*
X008241Y016813D01*
X007820Y017517D02*
X007822Y017571D01*
X007827Y017624D01*
X007836Y017678D01*
X007849Y017730D01*
X007865Y017781D01*
X007885Y017832D01*
X007907Y017881D01*
X007933Y017928D01*
X007963Y017973D01*
X007995Y018016D01*
X008030Y018057D01*
X008068Y018096D01*
X008108Y018132D01*
X007820Y017517D02*
X007822Y017463D01*
X007827Y017409D01*
X007836Y017356D01*
X007849Y017303D01*
X007865Y017252D01*
X007885Y017202D01*
X007908Y017153D01*
X007934Y017105D01*
X007963Y017060D01*
X007996Y017017D01*
X008031Y016976D01*
X008069Y016937D01*
X008109Y016901D01*
X008152Y016868D01*
X008197Y016838D01*
X008244Y016811D01*
X009420Y017517D02*
X009418Y017570D01*
X009413Y017624D01*
X009404Y017676D01*
X009392Y017728D01*
X009376Y017779D01*
X009357Y017829D01*
X009334Y017878D01*
X009308Y017925D01*
X009280Y017970D01*
X009248Y018013D01*
X009214Y018053D01*
X009176Y018092D01*
X009137Y018128D01*
X006920Y019267D02*
X006918Y019211D01*
X006912Y019155D01*
X006902Y019100D01*
X006889Y019046D01*
X006871Y018992D01*
X006850Y018940D01*
X006826Y018890D01*
X006797Y018841D01*
X006766Y018795D01*
X006731Y018751D01*
X006694Y018709D01*
X006653Y018671D01*
X006610Y018635D01*
X006565Y018602D01*
X006517Y018572D01*
X006539Y018586D02*
X006491Y018558D01*
X006442Y018534D01*
X006390Y018514D01*
X006338Y018497D01*
X006284Y018484D01*
X006230Y018475D01*
X006175Y018469D01*
X006120Y018467D01*
X006064Y018469D01*
X006007Y018475D01*
X005952Y018485D01*
X005897Y018499D01*
X005844Y018516D01*
X005791Y018538D01*
X005741Y018563D01*
X005320Y019267D02*
X005322Y019321D01*
X005327Y019374D01*
X005336Y019428D01*
X005349Y019480D01*
X005365Y019531D01*
X005385Y019582D01*
X005407Y019631D01*
X005433Y019678D01*
X005463Y019723D01*
X005495Y019766D01*
X005530Y019807D01*
X005568Y019846D01*
X005608Y019882D01*
X006637Y019878D02*
X006676Y019842D01*
X006714Y019803D01*
X006748Y019763D01*
X006780Y019720D01*
X006808Y019675D01*
X006834Y019628D01*
X006857Y019579D01*
X006876Y019529D01*
X006892Y019478D01*
X006904Y019426D01*
X006913Y019374D01*
X006918Y019320D01*
X006920Y019267D01*
X004120Y019887D02*
X003120Y019887D01*
X002820Y019267D02*
X002822Y019213D01*
X002827Y019159D01*
X002836Y019106D01*
X002849Y019053D01*
X002865Y019002D01*
X002885Y018952D01*
X002908Y018903D01*
X002934Y018855D01*
X002963Y018810D01*
X002996Y018767D01*
X003031Y018726D01*
X003069Y018687D01*
X003109Y018651D01*
X003152Y018618D01*
X003197Y018588D01*
X003244Y018561D01*
X003120Y018137D02*
X004120Y018137D01*
X004039Y016836D02*
X003991Y016808D01*
X003942Y016784D01*
X003890Y016764D01*
X003838Y016747D01*
X003784Y016734D01*
X003730Y016725D01*
X003675Y016719D01*
X003620Y016717D01*
X004017Y016822D02*
X004065Y016852D01*
X004110Y016885D01*
X004153Y016921D01*
X004194Y016959D01*
X004231Y017001D01*
X004266Y017045D01*
X004297Y017091D01*
X004326Y017140D01*
X004350Y017190D01*
X004371Y017242D01*
X004389Y017296D01*
X004402Y017350D01*
X004412Y017405D01*
X004418Y017461D01*
X004420Y017517D01*
X003620Y016717D02*
X003564Y016719D01*
X003507Y016725D01*
X003452Y016735D01*
X003397Y016749D01*
X003344Y016766D01*
X003291Y016788D01*
X003241Y016813D01*
X002820Y017517D02*
X002822Y017571D01*
X002827Y017624D01*
X002836Y017678D01*
X002849Y017730D01*
X002865Y017781D01*
X002885Y017832D01*
X002907Y017881D01*
X002933Y017928D01*
X002963Y017973D01*
X002995Y018016D01*
X003030Y018057D01*
X003068Y018096D01*
X003108Y018132D01*
X002820Y017517D02*
X002822Y017463D01*
X002827Y017409D01*
X002836Y017356D01*
X002849Y017303D01*
X002865Y017252D01*
X002885Y017202D01*
X002908Y017153D01*
X002934Y017105D01*
X002963Y017060D01*
X002996Y017017D01*
X003031Y016976D01*
X003069Y016937D01*
X003109Y016901D01*
X003152Y016868D01*
X003197Y016838D01*
X003244Y016811D01*
X004420Y017517D02*
X004418Y017570D01*
X004413Y017624D01*
X004404Y017676D01*
X004392Y017728D01*
X004376Y017779D01*
X004357Y017829D01*
X004334Y017878D01*
X004308Y017925D01*
X004280Y017970D01*
X004248Y018013D01*
X004214Y018053D01*
X004176Y018092D01*
X004137Y018128D01*
X004017Y018572D02*
X004065Y018602D01*
X004110Y018635D01*
X004153Y018671D01*
X004194Y018709D01*
X004231Y018751D01*
X004266Y018795D01*
X004297Y018841D01*
X004326Y018890D01*
X004350Y018940D01*
X004371Y018992D01*
X004389Y019046D01*
X004402Y019100D01*
X004412Y019155D01*
X004418Y019211D01*
X004420Y019267D01*
X004039Y018586D02*
X003991Y018558D01*
X003942Y018534D01*
X003890Y018514D01*
X003838Y018497D01*
X003784Y018484D01*
X003730Y018475D01*
X003675Y018469D01*
X003620Y018467D01*
X003564Y018469D01*
X003507Y018475D01*
X003452Y018485D01*
X003397Y018499D01*
X003344Y018516D01*
X003291Y018538D01*
X003241Y018563D01*
X002820Y019267D02*
X002822Y019321D01*
X002827Y019374D01*
X002836Y019428D01*
X002849Y019480D01*
X002865Y019531D01*
X002885Y019582D01*
X002907Y019631D01*
X002933Y019678D01*
X002963Y019723D01*
X002995Y019766D01*
X003030Y019807D01*
X003068Y019846D01*
X003108Y019882D01*
X004137Y019878D02*
X004176Y019842D01*
X004214Y019803D01*
X004248Y019763D01*
X004280Y019720D01*
X004308Y019675D01*
X004334Y019628D01*
X004357Y019579D01*
X004376Y019529D01*
X004392Y019478D01*
X004404Y019426D01*
X004413Y019374D01*
X004418Y019320D01*
X004420Y019267D01*
D18*
X004019Y018819D02*
X003981Y018788D01*
X003941Y018760D01*
X003899Y018736D01*
X003856Y018715D01*
X003810Y018698D01*
X003764Y018685D01*
X003716Y018675D01*
X003668Y018669D01*
X003620Y018667D01*
X003020Y019267D02*
X003022Y019314D01*
X003028Y019362D01*
X003037Y019408D01*
X003050Y019454D01*
X003066Y019498D01*
X003087Y019542D01*
X003110Y019583D01*
X003136Y019622D01*
X003166Y019659D01*
X003199Y019694D01*
X003234Y019726D01*
X003271Y019755D01*
X004220Y019267D02*
X004218Y019222D01*
X004213Y019176D01*
X004205Y019132D01*
X004193Y019088D01*
X004177Y019045D01*
X004159Y019003D01*
X004137Y018963D01*
X004113Y018925D01*
X004086Y018889D01*
X004056Y018854D01*
X004023Y018823D01*
X003988Y018793D01*
X003620Y019867D02*
X003573Y019865D01*
X003526Y019860D01*
X003480Y019850D01*
X003434Y019837D01*
X003390Y019821D01*
X003347Y019801D01*
X003306Y019778D01*
X003267Y019752D01*
X003230Y019723D01*
X003620Y019867D02*
X003666Y019865D01*
X003712Y019860D01*
X003758Y019851D01*
X003802Y019839D01*
X003846Y019823D01*
X003888Y019804D01*
X003929Y019782D01*
X003967Y019756D01*
X004004Y019728D01*
X003620Y019667D02*
X003659Y019665D01*
X003698Y019659D01*
X003736Y019650D01*
X003773Y019637D01*
X003809Y019620D01*
X003842Y019600D01*
X003874Y019576D01*
X003903Y019550D01*
X003929Y019521D01*
X003953Y019489D01*
X003973Y019456D01*
X003990Y019420D01*
X004003Y019383D01*
X004012Y019345D01*
X004018Y019306D01*
X004020Y019267D01*
X003620Y018667D02*
X003574Y018669D01*
X003528Y018674D01*
X003482Y018683D01*
X003438Y018695D01*
X003394Y018711D01*
X003352Y018730D01*
X003311Y018752D01*
X003273Y018778D01*
X003236Y018806D01*
X004220Y019267D02*
X004218Y019312D01*
X004213Y019358D01*
X004205Y019402D01*
X004193Y019446D01*
X004177Y019489D01*
X004159Y019531D01*
X004137Y019571D01*
X004113Y019609D01*
X004086Y019645D01*
X004056Y019680D01*
X004023Y019711D01*
X003988Y019741D01*
X003620Y019517D02*
X003650Y019515D01*
X003680Y019510D01*
X003709Y019501D01*
X003736Y019488D01*
X003762Y019473D01*
X003786Y019454D01*
X003807Y019433D01*
X003826Y019409D01*
X003841Y019383D01*
X003854Y019356D01*
X003863Y019327D01*
X003868Y019297D01*
X003870Y019267D01*
X003620Y018867D02*
X003581Y018869D01*
X003542Y018875D01*
X003504Y018884D01*
X003467Y018897D01*
X003431Y018914D01*
X003398Y018934D01*
X003366Y018958D01*
X003337Y018984D01*
X003311Y019013D01*
X003287Y019045D01*
X003267Y019078D01*
X003250Y019114D01*
X003237Y019151D01*
X003228Y019189D01*
X003222Y019228D01*
X003220Y019267D01*
X003370Y019267D02*
X003372Y019237D01*
X003377Y019207D01*
X003386Y019178D01*
X003399Y019151D01*
X003414Y019125D01*
X003433Y019101D01*
X003454Y019080D01*
X003478Y019061D01*
X003504Y019046D01*
X003531Y019033D01*
X003560Y019024D01*
X003590Y019019D01*
X003620Y019017D01*
X003260Y018787D02*
X003224Y018816D01*
X003190Y018848D01*
X003159Y018883D01*
X003131Y018919D01*
X003106Y018958D01*
X003083Y018999D01*
X003064Y019041D01*
X003048Y019084D01*
X003036Y019129D01*
X003027Y019175D01*
X003022Y019221D01*
X003020Y019267D01*
X004220Y017517D02*
X004218Y017472D01*
X004213Y017426D01*
X004205Y017382D01*
X004193Y017338D01*
X004177Y017295D01*
X004159Y017253D01*
X004137Y017213D01*
X004113Y017175D01*
X004086Y017139D01*
X004056Y017104D01*
X004023Y017073D01*
X003988Y017043D01*
X004019Y017069D02*
X003981Y017038D01*
X003941Y017010D01*
X003899Y016986D01*
X003856Y016965D01*
X003810Y016948D01*
X003764Y016935D01*
X003716Y016925D01*
X003668Y016919D01*
X003620Y016917D01*
X003020Y017517D02*
X003022Y017564D01*
X003028Y017612D01*
X003037Y017658D01*
X003050Y017704D01*
X003066Y017748D01*
X003087Y017792D01*
X003110Y017833D01*
X003136Y017872D01*
X003166Y017909D01*
X003199Y017944D01*
X003234Y017976D01*
X003271Y018005D01*
X003620Y018117D02*
X003666Y018115D01*
X003712Y018110D01*
X003758Y018101D01*
X003802Y018089D01*
X003846Y018073D01*
X003888Y018054D01*
X003929Y018032D01*
X003967Y018006D01*
X004004Y017978D01*
X003620Y018117D02*
X003573Y018115D01*
X003526Y018110D01*
X003480Y018100D01*
X003434Y018087D01*
X003390Y018071D01*
X003347Y018051D01*
X003306Y018028D01*
X003267Y018002D01*
X003230Y017973D01*
X003620Y017917D02*
X003659Y017915D01*
X003698Y017909D01*
X003736Y017900D01*
X003773Y017887D01*
X003809Y017870D01*
X003842Y017850D01*
X003874Y017826D01*
X003903Y017800D01*
X003929Y017771D01*
X003953Y017739D01*
X003973Y017706D01*
X003990Y017670D01*
X004003Y017633D01*
X004012Y017595D01*
X004018Y017556D01*
X004020Y017517D01*
X003620Y016917D02*
X003574Y016919D01*
X003528Y016924D01*
X003482Y016933D01*
X003438Y016945D01*
X003394Y016961D01*
X003352Y016980D01*
X003311Y017002D01*
X003273Y017028D01*
X003236Y017056D01*
X004220Y017517D02*
X004218Y017562D01*
X004213Y017608D01*
X004205Y017652D01*
X004193Y017696D01*
X004177Y017739D01*
X004159Y017781D01*
X004137Y017821D01*
X004113Y017859D01*
X004086Y017895D01*
X004056Y017930D01*
X004023Y017961D01*
X003988Y017991D01*
X003620Y017767D02*
X003650Y017765D01*
X003680Y017760D01*
X003709Y017751D01*
X003736Y017738D01*
X003762Y017723D01*
X003786Y017704D01*
X003807Y017683D01*
X003826Y017659D01*
X003841Y017633D01*
X003854Y017606D01*
X003863Y017577D01*
X003868Y017547D01*
X003870Y017517D01*
X003620Y017117D02*
X003581Y017119D01*
X003542Y017125D01*
X003504Y017134D01*
X003467Y017147D01*
X003431Y017164D01*
X003398Y017184D01*
X003366Y017208D01*
X003337Y017234D01*
X003311Y017263D01*
X003287Y017295D01*
X003267Y017328D01*
X003250Y017364D01*
X003237Y017401D01*
X003228Y017439D01*
X003222Y017478D01*
X003220Y017517D01*
X003370Y017517D02*
X003372Y017487D01*
X003377Y017457D01*
X003386Y017428D01*
X003399Y017401D01*
X003414Y017375D01*
X003433Y017351D01*
X003454Y017330D01*
X003478Y017311D01*
X003504Y017296D01*
X003531Y017283D01*
X003560Y017274D01*
X003590Y017269D01*
X003620Y017267D01*
X003260Y017037D02*
X003224Y017066D01*
X003190Y017098D01*
X003159Y017133D01*
X003131Y017169D01*
X003106Y017208D01*
X003083Y017249D01*
X003064Y017291D01*
X003048Y017334D01*
X003036Y017379D01*
X003027Y017425D01*
X003022Y017471D01*
X003020Y017517D01*
X006120Y018117D02*
X006166Y018115D01*
X006212Y018110D01*
X006258Y018101D01*
X006302Y018089D01*
X006346Y018073D01*
X006388Y018054D01*
X006429Y018032D01*
X006467Y018006D01*
X006504Y017978D01*
X006519Y017069D02*
X006481Y017038D01*
X006441Y017010D01*
X006399Y016986D01*
X006356Y016965D01*
X006310Y016948D01*
X006264Y016935D01*
X006216Y016925D01*
X006168Y016919D01*
X006120Y016917D01*
X005520Y017517D02*
X005522Y017564D01*
X005528Y017612D01*
X005537Y017658D01*
X005550Y017704D01*
X005566Y017748D01*
X005587Y017792D01*
X005610Y017833D01*
X005636Y017872D01*
X005666Y017909D01*
X005699Y017944D01*
X005734Y017976D01*
X005771Y018005D01*
X006720Y017517D02*
X006718Y017472D01*
X006713Y017426D01*
X006705Y017382D01*
X006693Y017338D01*
X006677Y017295D01*
X006659Y017253D01*
X006637Y017213D01*
X006613Y017175D01*
X006586Y017139D01*
X006556Y017104D01*
X006523Y017073D01*
X006488Y017043D01*
X006120Y018117D02*
X006073Y018115D01*
X006026Y018110D01*
X005980Y018100D01*
X005934Y018087D01*
X005890Y018071D01*
X005847Y018051D01*
X005806Y018028D01*
X005767Y018002D01*
X005730Y017973D01*
X006120Y017917D02*
X006159Y017915D01*
X006198Y017909D01*
X006236Y017900D01*
X006273Y017887D01*
X006309Y017870D01*
X006342Y017850D01*
X006374Y017826D01*
X006403Y017800D01*
X006429Y017771D01*
X006453Y017739D01*
X006473Y017706D01*
X006490Y017670D01*
X006503Y017633D01*
X006512Y017595D01*
X006518Y017556D01*
X006520Y017517D01*
X006120Y016917D02*
X006074Y016919D01*
X006028Y016924D01*
X005982Y016933D01*
X005938Y016945D01*
X005894Y016961D01*
X005852Y016980D01*
X005811Y017002D01*
X005773Y017028D01*
X005736Y017056D01*
X006720Y017517D02*
X006718Y017562D01*
X006713Y017608D01*
X006705Y017652D01*
X006693Y017696D01*
X006677Y017739D01*
X006659Y017781D01*
X006637Y017821D01*
X006613Y017859D01*
X006586Y017895D01*
X006556Y017930D01*
X006523Y017961D01*
X006488Y017991D01*
X006120Y017767D02*
X006150Y017765D01*
X006180Y017760D01*
X006209Y017751D01*
X006236Y017738D01*
X006262Y017723D01*
X006286Y017704D01*
X006307Y017683D01*
X006326Y017659D01*
X006341Y017633D01*
X006354Y017606D01*
X006363Y017577D01*
X006368Y017547D01*
X006370Y017517D01*
X006120Y017117D02*
X006081Y017119D01*
X006042Y017125D01*
X006004Y017134D01*
X005967Y017147D01*
X005931Y017164D01*
X005898Y017184D01*
X005866Y017208D01*
X005837Y017234D01*
X005811Y017263D01*
X005787Y017295D01*
X005767Y017328D01*
X005750Y017364D01*
X005737Y017401D01*
X005728Y017439D01*
X005722Y017478D01*
X005720Y017517D01*
X005870Y017517D02*
X005872Y017487D01*
X005877Y017457D01*
X005886Y017428D01*
X005899Y017401D01*
X005914Y017375D01*
X005933Y017351D01*
X005954Y017330D01*
X005978Y017311D01*
X006004Y017296D01*
X006031Y017283D01*
X006060Y017274D01*
X006090Y017269D01*
X006120Y017267D01*
X005760Y017037D02*
X005724Y017066D01*
X005690Y017098D01*
X005659Y017133D01*
X005631Y017169D01*
X005606Y017208D01*
X005583Y017249D01*
X005564Y017291D01*
X005548Y017334D01*
X005536Y017379D01*
X005527Y017425D01*
X005522Y017471D01*
X005520Y017517D01*
X008170Y018937D02*
X009070Y018937D01*
X009070Y019597D02*
X008170Y019597D01*
X006720Y019267D02*
X006718Y019312D01*
X006713Y019358D01*
X006705Y019402D01*
X006693Y019446D01*
X006677Y019489D01*
X006659Y019531D01*
X006637Y019571D01*
X006613Y019609D01*
X006586Y019645D01*
X006556Y019680D01*
X006523Y019711D01*
X006488Y019741D01*
X006504Y019728D02*
X006467Y019756D01*
X006429Y019782D01*
X006388Y019804D01*
X006346Y019823D01*
X006302Y019839D01*
X006258Y019851D01*
X006212Y019860D01*
X006166Y019865D01*
X006120Y019867D01*
X006120Y019667D02*
X006159Y019665D01*
X006198Y019659D01*
X006236Y019650D01*
X006273Y019637D01*
X006309Y019620D01*
X006342Y019600D01*
X006374Y019576D01*
X006403Y019550D01*
X006429Y019521D01*
X006453Y019489D01*
X006473Y019456D01*
X006490Y019420D01*
X006503Y019383D01*
X006512Y019345D01*
X006518Y019306D01*
X006520Y019267D01*
X006519Y018819D02*
X006481Y018788D01*
X006441Y018760D01*
X006399Y018736D01*
X006356Y018715D01*
X006310Y018698D01*
X006264Y018685D01*
X006216Y018675D01*
X006168Y018669D01*
X006120Y018667D01*
X006074Y018669D01*
X006028Y018674D01*
X005982Y018683D01*
X005938Y018695D01*
X005894Y018711D01*
X005852Y018730D01*
X005811Y018752D01*
X005773Y018778D01*
X005736Y018806D01*
X005520Y019267D02*
X005522Y019314D01*
X005528Y019362D01*
X005537Y019408D01*
X005550Y019454D01*
X005566Y019498D01*
X005587Y019542D01*
X005610Y019583D01*
X005636Y019622D01*
X005666Y019659D01*
X005699Y019694D01*
X005734Y019726D01*
X005771Y019755D01*
X006120Y019517D02*
X006150Y019515D01*
X006180Y019510D01*
X006209Y019501D01*
X006236Y019488D01*
X006262Y019473D01*
X006286Y019454D01*
X006307Y019433D01*
X006326Y019409D01*
X006341Y019383D01*
X006354Y019356D01*
X006363Y019327D01*
X006368Y019297D01*
X006370Y019267D01*
X006720Y019267D02*
X006718Y019222D01*
X006713Y019176D01*
X006705Y019132D01*
X006693Y019088D01*
X006677Y019045D01*
X006659Y019003D01*
X006637Y018963D01*
X006613Y018925D01*
X006586Y018889D01*
X006556Y018854D01*
X006523Y018823D01*
X006488Y018793D01*
X006120Y019867D02*
X006073Y019865D01*
X006026Y019860D01*
X005980Y019850D01*
X005934Y019837D01*
X005890Y019821D01*
X005847Y019801D01*
X005806Y019778D01*
X005767Y019752D01*
X005730Y019723D01*
X005720Y019267D02*
X005722Y019228D01*
X005728Y019189D01*
X005737Y019151D01*
X005750Y019114D01*
X005767Y019078D01*
X005787Y019045D01*
X005811Y019013D01*
X005837Y018984D01*
X005866Y018958D01*
X005898Y018934D01*
X005931Y018914D01*
X005967Y018897D01*
X006004Y018884D01*
X006042Y018875D01*
X006081Y018869D01*
X006120Y018867D01*
X006120Y019017D02*
X006090Y019019D01*
X006060Y019024D01*
X006031Y019033D01*
X006004Y019046D01*
X005978Y019061D01*
X005954Y019080D01*
X005933Y019101D01*
X005914Y019125D01*
X005899Y019151D01*
X005886Y019178D01*
X005877Y019207D01*
X005872Y019237D01*
X005870Y019267D01*
X005520Y019267D02*
X005522Y019221D01*
X005527Y019175D01*
X005536Y019129D01*
X005548Y019084D01*
X005564Y019041D01*
X005583Y018999D01*
X005606Y018958D01*
X005631Y018919D01*
X005659Y018883D01*
X005690Y018848D01*
X005724Y018816D01*
X005760Y018787D01*
X008988Y017043D02*
X009023Y017073D01*
X009056Y017104D01*
X009086Y017139D01*
X009113Y017175D01*
X009137Y017213D01*
X009159Y017253D01*
X009177Y017295D01*
X009193Y017338D01*
X009205Y017382D01*
X009213Y017426D01*
X009218Y017472D01*
X009220Y017517D01*
X009019Y017069D02*
X008981Y017038D01*
X008941Y017010D01*
X008899Y016986D01*
X008856Y016965D01*
X008810Y016948D01*
X008764Y016935D01*
X008716Y016925D01*
X008668Y016919D01*
X008620Y016917D01*
X008020Y017517D02*
X008022Y017564D01*
X008028Y017612D01*
X008037Y017658D01*
X008050Y017704D01*
X008066Y017748D01*
X008087Y017792D01*
X008110Y017833D01*
X008136Y017872D01*
X008166Y017909D01*
X008199Y017944D01*
X008234Y017976D01*
X008271Y018005D01*
X008620Y018117D02*
X008666Y018115D01*
X008712Y018110D01*
X008758Y018101D01*
X008802Y018089D01*
X008846Y018073D01*
X008888Y018054D01*
X008929Y018032D01*
X008967Y018006D01*
X009004Y017978D01*
X008620Y018117D02*
X008573Y018115D01*
X008526Y018110D01*
X008480Y018100D01*
X008434Y018087D01*
X008390Y018071D01*
X008347Y018051D01*
X008306Y018028D01*
X008267Y018002D01*
X008230Y017973D01*
X008620Y017917D02*
X008659Y017915D01*
X008698Y017909D01*
X008736Y017900D01*
X008773Y017887D01*
X008809Y017870D01*
X008842Y017850D01*
X008874Y017826D01*
X008903Y017800D01*
X008929Y017771D01*
X008953Y017739D01*
X008973Y017706D01*
X008990Y017670D01*
X009003Y017633D01*
X009012Y017595D01*
X009018Y017556D01*
X009020Y017517D01*
X008620Y016917D02*
X008574Y016919D01*
X008528Y016924D01*
X008482Y016933D01*
X008438Y016945D01*
X008394Y016961D01*
X008352Y016980D01*
X008311Y017002D01*
X008273Y017028D01*
X008236Y017056D01*
X009220Y017517D02*
X009218Y017562D01*
X009213Y017608D01*
X009205Y017652D01*
X009193Y017696D01*
X009177Y017739D01*
X009159Y017781D01*
X009137Y017821D01*
X009113Y017859D01*
X009086Y017895D01*
X009056Y017930D01*
X009023Y017961D01*
X008988Y017991D01*
X008620Y017767D02*
X008650Y017765D01*
X008680Y017760D01*
X008709Y017751D01*
X008736Y017738D01*
X008762Y017723D01*
X008786Y017704D01*
X008807Y017683D01*
X008826Y017659D01*
X008841Y017633D01*
X008854Y017606D01*
X008863Y017577D01*
X008868Y017547D01*
X008870Y017517D01*
X008620Y017117D02*
X008581Y017119D01*
X008542Y017125D01*
X008504Y017134D01*
X008467Y017147D01*
X008431Y017164D01*
X008398Y017184D01*
X008366Y017208D01*
X008337Y017234D01*
X008311Y017263D01*
X008287Y017295D01*
X008267Y017328D01*
X008250Y017364D01*
X008237Y017401D01*
X008228Y017439D01*
X008222Y017478D01*
X008220Y017517D01*
X008370Y017517D02*
X008372Y017487D01*
X008377Y017457D01*
X008386Y017428D01*
X008399Y017401D01*
X008414Y017375D01*
X008433Y017351D01*
X008454Y017330D01*
X008478Y017311D01*
X008504Y017296D01*
X008531Y017283D01*
X008560Y017274D01*
X008590Y017269D01*
X008620Y017267D01*
X008260Y017037D02*
X008224Y017066D01*
X008190Y017098D01*
X008159Y017133D01*
X008131Y017169D01*
X008106Y017208D01*
X008083Y017249D01*
X008064Y017291D01*
X008048Y017334D01*
X008036Y017379D01*
X008027Y017425D01*
X008022Y017471D01*
X008020Y017517D01*
X007700Y015467D02*
X007700Y014567D01*
X007040Y014567D02*
X007040Y015467D01*
X008540Y015467D02*
X008540Y014567D01*
X009200Y014567D02*
X009200Y015467D01*
X014790Y011217D02*
X014790Y010317D01*
X015450Y010317D02*
X015450Y011217D01*
X006070Y006847D02*
X005170Y006847D01*
X005170Y006187D02*
X006070Y006187D01*
X006070Y005847D02*
X005170Y005847D01*
X005170Y005187D02*
X006070Y005187D01*
X004070Y002847D02*
X003170Y002847D01*
X003170Y002187D02*
X004070Y002187D01*
D19*
X015120Y010212D03*
X015120Y011322D03*
X008870Y014462D03*
X007370Y014462D03*
X007370Y015572D03*
X008870Y015572D03*
D20*
X012848Y011266D03*
X013893Y011267D03*
X013893Y010267D03*
X012848Y010266D03*
D21*
X006175Y006517D03*
X005065Y006517D03*
X005065Y005517D03*
X006175Y005517D03*
X004175Y002517D03*
X003065Y002517D03*
X008065Y019267D03*
X009175Y019267D03*
D22*
X003390Y006399D03*
X003390Y006084D03*
X003390Y005769D03*
X003390Y005455D03*
X003390Y005140D03*
M02*
