G75*
G70*
%OFA0B0*%
%FSLAX24Y24*%
%IPPOS*%
%LPD*%
%AMOC8*
5,1,8,0,0,1.08239X$1,22.5*
%
%ADD10C,0.0160*%
%ADD11C,0.0350*%
%ADD12C,0.0000*%
%ADD13C,0.0390*%
%ADD14R,0.0800X0.0800*%
%ADD15C,0.0800*%
%ADD16R,0.0670X0.0827*%
%ADD17R,0.0670X0.0749*%
%ADD18C,0.0594*%
%ADD19C,0.1320*%
%ADD20R,0.0827X0.0670*%
%ADD21R,0.0300X0.1240*%
%ADD22C,0.1221*%
%ADD23C,0.1306*%
%ADD24R,0.1221X0.1221*%
%ADD25C,0.0709*%
%ADD26OC8,0.0560*%
%ADD27R,0.1379X0.0788*%
%ADD28R,0.0788X0.1379*%
%ADD29R,0.0788X0.0670*%
%ADD30R,0.0512X0.0591*%
%ADD31C,0.0394*%
%ADD32R,0.0749X0.0670*%
%ADD33C,0.0591*%
%ADD34C,0.0174*%
%ADD35C,0.0434*%
D10*
X000620Y000267D02*
X037370Y000267D01*
X037370Y021267D01*
X000620Y021267D01*
X000620Y000267D01*
D11*
X010870Y010267D03*
X010870Y010767D03*
X011370Y010767D03*
X011370Y010267D03*
X011370Y011267D03*
X010870Y011267D03*
D12*
X010545Y011767D02*
X010547Y011793D01*
X010553Y011819D01*
X010562Y011843D01*
X010575Y011866D01*
X010592Y011886D01*
X010611Y011904D01*
X010633Y011919D01*
X010656Y011930D01*
X010681Y011938D01*
X010707Y011942D01*
X010733Y011942D01*
X010759Y011938D01*
X010784Y011930D01*
X010808Y011919D01*
X010829Y011904D01*
X010848Y011886D01*
X010865Y011866D01*
X010878Y011843D01*
X010887Y011819D01*
X010893Y011793D01*
X010895Y011767D01*
X010893Y011741D01*
X010887Y011715D01*
X010878Y011691D01*
X010865Y011668D01*
X010848Y011648D01*
X010829Y011630D01*
X010807Y011615D01*
X010784Y011604D01*
X010759Y011596D01*
X010733Y011592D01*
X010707Y011592D01*
X010681Y011596D01*
X010656Y011604D01*
X010632Y011615D01*
X010611Y011630D01*
X010592Y011648D01*
X010575Y011668D01*
X010562Y011691D01*
X010553Y011715D01*
X010547Y011741D01*
X010545Y011767D01*
X011345Y011767D02*
X011347Y011793D01*
X011353Y011819D01*
X011362Y011843D01*
X011375Y011866D01*
X011392Y011886D01*
X011411Y011904D01*
X011433Y011919D01*
X011456Y011930D01*
X011481Y011938D01*
X011507Y011942D01*
X011533Y011942D01*
X011559Y011938D01*
X011584Y011930D01*
X011608Y011919D01*
X011629Y011904D01*
X011648Y011886D01*
X011665Y011866D01*
X011678Y011843D01*
X011687Y011819D01*
X011693Y011793D01*
X011695Y011767D01*
X011693Y011741D01*
X011687Y011715D01*
X011678Y011691D01*
X011665Y011668D01*
X011648Y011648D01*
X011629Y011630D01*
X011607Y011615D01*
X011584Y011604D01*
X011559Y011596D01*
X011533Y011592D01*
X011507Y011592D01*
X011481Y011596D01*
X011456Y011604D01*
X011432Y011615D01*
X011411Y011630D01*
X011392Y011648D01*
X011375Y011668D01*
X011362Y011691D01*
X011353Y011715D01*
X011347Y011741D01*
X011345Y011767D01*
X010945Y009767D02*
X010947Y009793D01*
X010953Y009819D01*
X010962Y009843D01*
X010975Y009866D01*
X010992Y009886D01*
X011011Y009904D01*
X011033Y009919D01*
X011056Y009930D01*
X011081Y009938D01*
X011107Y009942D01*
X011133Y009942D01*
X011159Y009938D01*
X011184Y009930D01*
X011208Y009919D01*
X011229Y009904D01*
X011248Y009886D01*
X011265Y009866D01*
X011278Y009843D01*
X011287Y009819D01*
X011293Y009793D01*
X011295Y009767D01*
X011293Y009741D01*
X011287Y009715D01*
X011278Y009691D01*
X011265Y009668D01*
X011248Y009648D01*
X011229Y009630D01*
X011207Y009615D01*
X011184Y009604D01*
X011159Y009596D01*
X011133Y009592D01*
X011107Y009592D01*
X011081Y009596D01*
X011056Y009604D01*
X011032Y009615D01*
X011011Y009630D01*
X010992Y009648D01*
X010975Y009668D01*
X010962Y009691D01*
X010953Y009715D01*
X010947Y009741D01*
X010945Y009767D01*
X009980Y006017D02*
X009982Y006067D01*
X009988Y006117D01*
X009998Y006166D01*
X010011Y006215D01*
X010029Y006262D01*
X010050Y006308D01*
X010074Y006351D01*
X010102Y006393D01*
X010133Y006433D01*
X010167Y006470D01*
X010204Y006504D01*
X010244Y006535D01*
X010286Y006563D01*
X010329Y006587D01*
X010375Y006608D01*
X010422Y006626D01*
X010471Y006639D01*
X010520Y006649D01*
X010570Y006655D01*
X010620Y006657D01*
X010670Y006655D01*
X010720Y006649D01*
X010769Y006639D01*
X010818Y006626D01*
X010865Y006608D01*
X010911Y006587D01*
X010954Y006563D01*
X010996Y006535D01*
X011036Y006504D01*
X011073Y006470D01*
X011107Y006433D01*
X011138Y006393D01*
X011166Y006351D01*
X011190Y006308D01*
X011211Y006262D01*
X011229Y006215D01*
X011242Y006166D01*
X011252Y006117D01*
X011258Y006067D01*
X011260Y006017D01*
X011258Y005967D01*
X011252Y005917D01*
X011242Y005868D01*
X011229Y005819D01*
X011211Y005772D01*
X011190Y005726D01*
X011166Y005683D01*
X011138Y005641D01*
X011107Y005601D01*
X011073Y005564D01*
X011036Y005530D01*
X010996Y005499D01*
X010954Y005471D01*
X010911Y005447D01*
X010865Y005426D01*
X010818Y005408D01*
X010769Y005395D01*
X010720Y005385D01*
X010670Y005379D01*
X010620Y005377D01*
X010570Y005379D01*
X010520Y005385D01*
X010471Y005395D01*
X010422Y005408D01*
X010375Y005426D01*
X010329Y005447D01*
X010286Y005471D01*
X010244Y005499D01*
X010204Y005530D01*
X010167Y005564D01*
X010133Y005601D01*
X010102Y005641D01*
X010074Y005683D01*
X010050Y005726D01*
X010029Y005772D01*
X010011Y005819D01*
X009998Y005868D01*
X009988Y005917D01*
X009982Y005967D01*
X009980Y006017D01*
X013980Y006017D02*
X013982Y006067D01*
X013988Y006117D01*
X013998Y006166D01*
X014011Y006215D01*
X014029Y006262D01*
X014050Y006308D01*
X014074Y006351D01*
X014102Y006393D01*
X014133Y006433D01*
X014167Y006470D01*
X014204Y006504D01*
X014244Y006535D01*
X014286Y006563D01*
X014329Y006587D01*
X014375Y006608D01*
X014422Y006626D01*
X014471Y006639D01*
X014520Y006649D01*
X014570Y006655D01*
X014620Y006657D01*
X014670Y006655D01*
X014720Y006649D01*
X014769Y006639D01*
X014818Y006626D01*
X014865Y006608D01*
X014911Y006587D01*
X014954Y006563D01*
X014996Y006535D01*
X015036Y006504D01*
X015073Y006470D01*
X015107Y006433D01*
X015138Y006393D01*
X015166Y006351D01*
X015190Y006308D01*
X015211Y006262D01*
X015229Y006215D01*
X015242Y006166D01*
X015252Y006117D01*
X015258Y006067D01*
X015260Y006017D01*
X015258Y005967D01*
X015252Y005917D01*
X015242Y005868D01*
X015229Y005819D01*
X015211Y005772D01*
X015190Y005726D01*
X015166Y005683D01*
X015138Y005641D01*
X015107Y005601D01*
X015073Y005564D01*
X015036Y005530D01*
X014996Y005499D01*
X014954Y005471D01*
X014911Y005447D01*
X014865Y005426D01*
X014818Y005408D01*
X014769Y005395D01*
X014720Y005385D01*
X014670Y005379D01*
X014620Y005377D01*
X014570Y005379D01*
X014520Y005385D01*
X014471Y005395D01*
X014422Y005408D01*
X014375Y005426D01*
X014329Y005447D01*
X014286Y005471D01*
X014244Y005499D01*
X014204Y005530D01*
X014167Y005564D01*
X014133Y005601D01*
X014102Y005641D01*
X014074Y005683D01*
X014050Y005726D01*
X014029Y005772D01*
X014011Y005819D01*
X013998Y005868D01*
X013988Y005917D01*
X013982Y005967D01*
X013980Y006017D01*
X016480Y006017D02*
X016482Y006067D01*
X016488Y006117D01*
X016498Y006166D01*
X016511Y006215D01*
X016529Y006262D01*
X016550Y006308D01*
X016574Y006351D01*
X016602Y006393D01*
X016633Y006433D01*
X016667Y006470D01*
X016704Y006504D01*
X016744Y006535D01*
X016786Y006563D01*
X016829Y006587D01*
X016875Y006608D01*
X016922Y006626D01*
X016971Y006639D01*
X017020Y006649D01*
X017070Y006655D01*
X017120Y006657D01*
X017170Y006655D01*
X017220Y006649D01*
X017269Y006639D01*
X017318Y006626D01*
X017365Y006608D01*
X017411Y006587D01*
X017454Y006563D01*
X017496Y006535D01*
X017536Y006504D01*
X017573Y006470D01*
X017607Y006433D01*
X017638Y006393D01*
X017666Y006351D01*
X017690Y006308D01*
X017711Y006262D01*
X017729Y006215D01*
X017742Y006166D01*
X017752Y006117D01*
X017758Y006067D01*
X017760Y006017D01*
X017758Y005967D01*
X017752Y005917D01*
X017742Y005868D01*
X017729Y005819D01*
X017711Y005772D01*
X017690Y005726D01*
X017666Y005683D01*
X017638Y005641D01*
X017607Y005601D01*
X017573Y005564D01*
X017536Y005530D01*
X017496Y005499D01*
X017454Y005471D01*
X017411Y005447D01*
X017365Y005426D01*
X017318Y005408D01*
X017269Y005395D01*
X017220Y005385D01*
X017170Y005379D01*
X017120Y005377D01*
X017070Y005379D01*
X017020Y005385D01*
X016971Y005395D01*
X016922Y005408D01*
X016875Y005426D01*
X016829Y005447D01*
X016786Y005471D01*
X016744Y005499D01*
X016704Y005530D01*
X016667Y005564D01*
X016633Y005601D01*
X016602Y005641D01*
X016574Y005683D01*
X016550Y005726D01*
X016529Y005772D01*
X016511Y005819D01*
X016498Y005868D01*
X016488Y005917D01*
X016482Y005967D01*
X016480Y006017D01*
X020480Y006017D02*
X020482Y006067D01*
X020488Y006117D01*
X020498Y006166D01*
X020511Y006215D01*
X020529Y006262D01*
X020550Y006308D01*
X020574Y006351D01*
X020602Y006393D01*
X020633Y006433D01*
X020667Y006470D01*
X020704Y006504D01*
X020744Y006535D01*
X020786Y006563D01*
X020829Y006587D01*
X020875Y006608D01*
X020922Y006626D01*
X020971Y006639D01*
X021020Y006649D01*
X021070Y006655D01*
X021120Y006657D01*
X021170Y006655D01*
X021220Y006649D01*
X021269Y006639D01*
X021318Y006626D01*
X021365Y006608D01*
X021411Y006587D01*
X021454Y006563D01*
X021496Y006535D01*
X021536Y006504D01*
X021573Y006470D01*
X021607Y006433D01*
X021638Y006393D01*
X021666Y006351D01*
X021690Y006308D01*
X021711Y006262D01*
X021729Y006215D01*
X021742Y006166D01*
X021752Y006117D01*
X021758Y006067D01*
X021760Y006017D01*
X021758Y005967D01*
X021752Y005917D01*
X021742Y005868D01*
X021729Y005819D01*
X021711Y005772D01*
X021690Y005726D01*
X021666Y005683D01*
X021638Y005641D01*
X021607Y005601D01*
X021573Y005564D01*
X021536Y005530D01*
X021496Y005499D01*
X021454Y005471D01*
X021411Y005447D01*
X021365Y005426D01*
X021318Y005408D01*
X021269Y005395D01*
X021220Y005385D01*
X021170Y005379D01*
X021120Y005377D01*
X021070Y005379D01*
X021020Y005385D01*
X020971Y005395D01*
X020922Y005408D01*
X020875Y005426D01*
X020829Y005447D01*
X020786Y005471D01*
X020744Y005499D01*
X020704Y005530D01*
X020667Y005564D01*
X020633Y005601D01*
X020602Y005641D01*
X020574Y005683D01*
X020550Y005726D01*
X020529Y005772D01*
X020511Y005819D01*
X020498Y005868D01*
X020488Y005917D01*
X020482Y005967D01*
X020480Y006017D01*
X022980Y006017D02*
X022982Y006067D01*
X022988Y006117D01*
X022998Y006166D01*
X023011Y006215D01*
X023029Y006262D01*
X023050Y006308D01*
X023074Y006351D01*
X023102Y006393D01*
X023133Y006433D01*
X023167Y006470D01*
X023204Y006504D01*
X023244Y006535D01*
X023286Y006563D01*
X023329Y006587D01*
X023375Y006608D01*
X023422Y006626D01*
X023471Y006639D01*
X023520Y006649D01*
X023570Y006655D01*
X023620Y006657D01*
X023670Y006655D01*
X023720Y006649D01*
X023769Y006639D01*
X023818Y006626D01*
X023865Y006608D01*
X023911Y006587D01*
X023954Y006563D01*
X023996Y006535D01*
X024036Y006504D01*
X024073Y006470D01*
X024107Y006433D01*
X024138Y006393D01*
X024166Y006351D01*
X024190Y006308D01*
X024211Y006262D01*
X024229Y006215D01*
X024242Y006166D01*
X024252Y006117D01*
X024258Y006067D01*
X024260Y006017D01*
X024258Y005967D01*
X024252Y005917D01*
X024242Y005868D01*
X024229Y005819D01*
X024211Y005772D01*
X024190Y005726D01*
X024166Y005683D01*
X024138Y005641D01*
X024107Y005601D01*
X024073Y005564D01*
X024036Y005530D01*
X023996Y005499D01*
X023954Y005471D01*
X023911Y005447D01*
X023865Y005426D01*
X023818Y005408D01*
X023769Y005395D01*
X023720Y005385D01*
X023670Y005379D01*
X023620Y005377D01*
X023570Y005379D01*
X023520Y005385D01*
X023471Y005395D01*
X023422Y005408D01*
X023375Y005426D01*
X023329Y005447D01*
X023286Y005471D01*
X023244Y005499D01*
X023204Y005530D01*
X023167Y005564D01*
X023133Y005601D01*
X023102Y005641D01*
X023074Y005683D01*
X023050Y005726D01*
X023029Y005772D01*
X023011Y005819D01*
X022998Y005868D01*
X022988Y005917D01*
X022982Y005967D01*
X022980Y006017D01*
X026980Y006017D02*
X026982Y006067D01*
X026988Y006117D01*
X026998Y006166D01*
X027011Y006215D01*
X027029Y006262D01*
X027050Y006308D01*
X027074Y006351D01*
X027102Y006393D01*
X027133Y006433D01*
X027167Y006470D01*
X027204Y006504D01*
X027244Y006535D01*
X027286Y006563D01*
X027329Y006587D01*
X027375Y006608D01*
X027422Y006626D01*
X027471Y006639D01*
X027520Y006649D01*
X027570Y006655D01*
X027620Y006657D01*
X027670Y006655D01*
X027720Y006649D01*
X027769Y006639D01*
X027818Y006626D01*
X027865Y006608D01*
X027911Y006587D01*
X027954Y006563D01*
X027996Y006535D01*
X028036Y006504D01*
X028073Y006470D01*
X028107Y006433D01*
X028138Y006393D01*
X028166Y006351D01*
X028190Y006308D01*
X028211Y006262D01*
X028229Y006215D01*
X028242Y006166D01*
X028252Y006117D01*
X028258Y006067D01*
X028260Y006017D01*
X028258Y005967D01*
X028252Y005917D01*
X028242Y005868D01*
X028229Y005819D01*
X028211Y005772D01*
X028190Y005726D01*
X028166Y005683D01*
X028138Y005641D01*
X028107Y005601D01*
X028073Y005564D01*
X028036Y005530D01*
X027996Y005499D01*
X027954Y005471D01*
X027911Y005447D01*
X027865Y005426D01*
X027818Y005408D01*
X027769Y005395D01*
X027720Y005385D01*
X027670Y005379D01*
X027620Y005377D01*
X027570Y005379D01*
X027520Y005385D01*
X027471Y005395D01*
X027422Y005408D01*
X027375Y005426D01*
X027329Y005447D01*
X027286Y005471D01*
X027244Y005499D01*
X027204Y005530D01*
X027167Y005564D01*
X027133Y005601D01*
X027102Y005641D01*
X027074Y005683D01*
X027050Y005726D01*
X027029Y005772D01*
X027011Y005819D01*
X026998Y005868D01*
X026988Y005917D01*
X026982Y005967D01*
X026980Y006017D01*
X029480Y006017D02*
X029482Y006067D01*
X029488Y006117D01*
X029498Y006166D01*
X029511Y006215D01*
X029529Y006262D01*
X029550Y006308D01*
X029574Y006351D01*
X029602Y006393D01*
X029633Y006433D01*
X029667Y006470D01*
X029704Y006504D01*
X029744Y006535D01*
X029786Y006563D01*
X029829Y006587D01*
X029875Y006608D01*
X029922Y006626D01*
X029971Y006639D01*
X030020Y006649D01*
X030070Y006655D01*
X030120Y006657D01*
X030170Y006655D01*
X030220Y006649D01*
X030269Y006639D01*
X030318Y006626D01*
X030365Y006608D01*
X030411Y006587D01*
X030454Y006563D01*
X030496Y006535D01*
X030536Y006504D01*
X030573Y006470D01*
X030607Y006433D01*
X030638Y006393D01*
X030666Y006351D01*
X030690Y006308D01*
X030711Y006262D01*
X030729Y006215D01*
X030742Y006166D01*
X030752Y006117D01*
X030758Y006067D01*
X030760Y006017D01*
X030758Y005967D01*
X030752Y005917D01*
X030742Y005868D01*
X030729Y005819D01*
X030711Y005772D01*
X030690Y005726D01*
X030666Y005683D01*
X030638Y005641D01*
X030607Y005601D01*
X030573Y005564D01*
X030536Y005530D01*
X030496Y005499D01*
X030454Y005471D01*
X030411Y005447D01*
X030365Y005426D01*
X030318Y005408D01*
X030269Y005395D01*
X030220Y005385D01*
X030170Y005379D01*
X030120Y005377D01*
X030070Y005379D01*
X030020Y005385D01*
X029971Y005395D01*
X029922Y005408D01*
X029875Y005426D01*
X029829Y005447D01*
X029786Y005471D01*
X029744Y005499D01*
X029704Y005530D01*
X029667Y005564D01*
X029633Y005601D01*
X029602Y005641D01*
X029574Y005683D01*
X029550Y005726D01*
X029529Y005772D01*
X029511Y005819D01*
X029498Y005868D01*
X029488Y005917D01*
X029482Y005967D01*
X029480Y006017D01*
X033480Y006017D02*
X033482Y006067D01*
X033488Y006117D01*
X033498Y006166D01*
X033511Y006215D01*
X033529Y006262D01*
X033550Y006308D01*
X033574Y006351D01*
X033602Y006393D01*
X033633Y006433D01*
X033667Y006470D01*
X033704Y006504D01*
X033744Y006535D01*
X033786Y006563D01*
X033829Y006587D01*
X033875Y006608D01*
X033922Y006626D01*
X033971Y006639D01*
X034020Y006649D01*
X034070Y006655D01*
X034120Y006657D01*
X034170Y006655D01*
X034220Y006649D01*
X034269Y006639D01*
X034318Y006626D01*
X034365Y006608D01*
X034411Y006587D01*
X034454Y006563D01*
X034496Y006535D01*
X034536Y006504D01*
X034573Y006470D01*
X034607Y006433D01*
X034638Y006393D01*
X034666Y006351D01*
X034690Y006308D01*
X034711Y006262D01*
X034729Y006215D01*
X034742Y006166D01*
X034752Y006117D01*
X034758Y006067D01*
X034760Y006017D01*
X034758Y005967D01*
X034752Y005917D01*
X034742Y005868D01*
X034729Y005819D01*
X034711Y005772D01*
X034690Y005726D01*
X034666Y005683D01*
X034638Y005641D01*
X034607Y005601D01*
X034573Y005564D01*
X034536Y005530D01*
X034496Y005499D01*
X034454Y005471D01*
X034411Y005447D01*
X034365Y005426D01*
X034318Y005408D01*
X034269Y005395D01*
X034220Y005385D01*
X034170Y005379D01*
X034120Y005377D01*
X034070Y005379D01*
X034020Y005385D01*
X033971Y005395D01*
X033922Y005408D01*
X033875Y005426D01*
X033829Y005447D01*
X033786Y005471D01*
X033744Y005499D01*
X033704Y005530D01*
X033667Y005564D01*
X033633Y005601D01*
X033602Y005641D01*
X033574Y005683D01*
X033550Y005726D01*
X033529Y005772D01*
X033511Y005819D01*
X033498Y005868D01*
X033488Y005917D01*
X033482Y005967D01*
X033480Y006017D01*
X033480Y015517D02*
X033482Y015567D01*
X033488Y015617D01*
X033498Y015666D01*
X033511Y015715D01*
X033529Y015762D01*
X033550Y015808D01*
X033574Y015851D01*
X033602Y015893D01*
X033633Y015933D01*
X033667Y015970D01*
X033704Y016004D01*
X033744Y016035D01*
X033786Y016063D01*
X033829Y016087D01*
X033875Y016108D01*
X033922Y016126D01*
X033971Y016139D01*
X034020Y016149D01*
X034070Y016155D01*
X034120Y016157D01*
X034170Y016155D01*
X034220Y016149D01*
X034269Y016139D01*
X034318Y016126D01*
X034365Y016108D01*
X034411Y016087D01*
X034454Y016063D01*
X034496Y016035D01*
X034536Y016004D01*
X034573Y015970D01*
X034607Y015933D01*
X034638Y015893D01*
X034666Y015851D01*
X034690Y015808D01*
X034711Y015762D01*
X034729Y015715D01*
X034742Y015666D01*
X034752Y015617D01*
X034758Y015567D01*
X034760Y015517D01*
X034758Y015467D01*
X034752Y015417D01*
X034742Y015368D01*
X034729Y015319D01*
X034711Y015272D01*
X034690Y015226D01*
X034666Y015183D01*
X034638Y015141D01*
X034607Y015101D01*
X034573Y015064D01*
X034536Y015030D01*
X034496Y014999D01*
X034454Y014971D01*
X034411Y014947D01*
X034365Y014926D01*
X034318Y014908D01*
X034269Y014895D01*
X034220Y014885D01*
X034170Y014879D01*
X034120Y014877D01*
X034070Y014879D01*
X034020Y014885D01*
X033971Y014895D01*
X033922Y014908D01*
X033875Y014926D01*
X033829Y014947D01*
X033786Y014971D01*
X033744Y014999D01*
X033704Y015030D01*
X033667Y015064D01*
X033633Y015101D01*
X033602Y015141D01*
X033574Y015183D01*
X033550Y015226D01*
X033529Y015272D01*
X033511Y015319D01*
X033498Y015368D01*
X033488Y015417D01*
X033482Y015467D01*
X033480Y015517D01*
X029480Y015517D02*
X029482Y015567D01*
X029488Y015617D01*
X029498Y015666D01*
X029511Y015715D01*
X029529Y015762D01*
X029550Y015808D01*
X029574Y015851D01*
X029602Y015893D01*
X029633Y015933D01*
X029667Y015970D01*
X029704Y016004D01*
X029744Y016035D01*
X029786Y016063D01*
X029829Y016087D01*
X029875Y016108D01*
X029922Y016126D01*
X029971Y016139D01*
X030020Y016149D01*
X030070Y016155D01*
X030120Y016157D01*
X030170Y016155D01*
X030220Y016149D01*
X030269Y016139D01*
X030318Y016126D01*
X030365Y016108D01*
X030411Y016087D01*
X030454Y016063D01*
X030496Y016035D01*
X030536Y016004D01*
X030573Y015970D01*
X030607Y015933D01*
X030638Y015893D01*
X030666Y015851D01*
X030690Y015808D01*
X030711Y015762D01*
X030729Y015715D01*
X030742Y015666D01*
X030752Y015617D01*
X030758Y015567D01*
X030760Y015517D01*
X030758Y015467D01*
X030752Y015417D01*
X030742Y015368D01*
X030729Y015319D01*
X030711Y015272D01*
X030690Y015226D01*
X030666Y015183D01*
X030638Y015141D01*
X030607Y015101D01*
X030573Y015064D01*
X030536Y015030D01*
X030496Y014999D01*
X030454Y014971D01*
X030411Y014947D01*
X030365Y014926D01*
X030318Y014908D01*
X030269Y014895D01*
X030220Y014885D01*
X030170Y014879D01*
X030120Y014877D01*
X030070Y014879D01*
X030020Y014885D01*
X029971Y014895D01*
X029922Y014908D01*
X029875Y014926D01*
X029829Y014947D01*
X029786Y014971D01*
X029744Y014999D01*
X029704Y015030D01*
X029667Y015064D01*
X029633Y015101D01*
X029602Y015141D01*
X029574Y015183D01*
X029550Y015226D01*
X029529Y015272D01*
X029511Y015319D01*
X029498Y015368D01*
X029488Y015417D01*
X029482Y015467D01*
X029480Y015517D01*
X026980Y015517D02*
X026982Y015567D01*
X026988Y015617D01*
X026998Y015666D01*
X027011Y015715D01*
X027029Y015762D01*
X027050Y015808D01*
X027074Y015851D01*
X027102Y015893D01*
X027133Y015933D01*
X027167Y015970D01*
X027204Y016004D01*
X027244Y016035D01*
X027286Y016063D01*
X027329Y016087D01*
X027375Y016108D01*
X027422Y016126D01*
X027471Y016139D01*
X027520Y016149D01*
X027570Y016155D01*
X027620Y016157D01*
X027670Y016155D01*
X027720Y016149D01*
X027769Y016139D01*
X027818Y016126D01*
X027865Y016108D01*
X027911Y016087D01*
X027954Y016063D01*
X027996Y016035D01*
X028036Y016004D01*
X028073Y015970D01*
X028107Y015933D01*
X028138Y015893D01*
X028166Y015851D01*
X028190Y015808D01*
X028211Y015762D01*
X028229Y015715D01*
X028242Y015666D01*
X028252Y015617D01*
X028258Y015567D01*
X028260Y015517D01*
X028258Y015467D01*
X028252Y015417D01*
X028242Y015368D01*
X028229Y015319D01*
X028211Y015272D01*
X028190Y015226D01*
X028166Y015183D01*
X028138Y015141D01*
X028107Y015101D01*
X028073Y015064D01*
X028036Y015030D01*
X027996Y014999D01*
X027954Y014971D01*
X027911Y014947D01*
X027865Y014926D01*
X027818Y014908D01*
X027769Y014895D01*
X027720Y014885D01*
X027670Y014879D01*
X027620Y014877D01*
X027570Y014879D01*
X027520Y014885D01*
X027471Y014895D01*
X027422Y014908D01*
X027375Y014926D01*
X027329Y014947D01*
X027286Y014971D01*
X027244Y014999D01*
X027204Y015030D01*
X027167Y015064D01*
X027133Y015101D01*
X027102Y015141D01*
X027074Y015183D01*
X027050Y015226D01*
X027029Y015272D01*
X027011Y015319D01*
X026998Y015368D01*
X026988Y015417D01*
X026982Y015467D01*
X026980Y015517D01*
X022980Y015517D02*
X022982Y015567D01*
X022988Y015617D01*
X022998Y015666D01*
X023011Y015715D01*
X023029Y015762D01*
X023050Y015808D01*
X023074Y015851D01*
X023102Y015893D01*
X023133Y015933D01*
X023167Y015970D01*
X023204Y016004D01*
X023244Y016035D01*
X023286Y016063D01*
X023329Y016087D01*
X023375Y016108D01*
X023422Y016126D01*
X023471Y016139D01*
X023520Y016149D01*
X023570Y016155D01*
X023620Y016157D01*
X023670Y016155D01*
X023720Y016149D01*
X023769Y016139D01*
X023818Y016126D01*
X023865Y016108D01*
X023911Y016087D01*
X023954Y016063D01*
X023996Y016035D01*
X024036Y016004D01*
X024073Y015970D01*
X024107Y015933D01*
X024138Y015893D01*
X024166Y015851D01*
X024190Y015808D01*
X024211Y015762D01*
X024229Y015715D01*
X024242Y015666D01*
X024252Y015617D01*
X024258Y015567D01*
X024260Y015517D01*
X024258Y015467D01*
X024252Y015417D01*
X024242Y015368D01*
X024229Y015319D01*
X024211Y015272D01*
X024190Y015226D01*
X024166Y015183D01*
X024138Y015141D01*
X024107Y015101D01*
X024073Y015064D01*
X024036Y015030D01*
X023996Y014999D01*
X023954Y014971D01*
X023911Y014947D01*
X023865Y014926D01*
X023818Y014908D01*
X023769Y014895D01*
X023720Y014885D01*
X023670Y014879D01*
X023620Y014877D01*
X023570Y014879D01*
X023520Y014885D01*
X023471Y014895D01*
X023422Y014908D01*
X023375Y014926D01*
X023329Y014947D01*
X023286Y014971D01*
X023244Y014999D01*
X023204Y015030D01*
X023167Y015064D01*
X023133Y015101D01*
X023102Y015141D01*
X023074Y015183D01*
X023050Y015226D01*
X023029Y015272D01*
X023011Y015319D01*
X022998Y015368D01*
X022988Y015417D01*
X022982Y015467D01*
X022980Y015517D01*
X020480Y015517D02*
X020482Y015567D01*
X020488Y015617D01*
X020498Y015666D01*
X020511Y015715D01*
X020529Y015762D01*
X020550Y015808D01*
X020574Y015851D01*
X020602Y015893D01*
X020633Y015933D01*
X020667Y015970D01*
X020704Y016004D01*
X020744Y016035D01*
X020786Y016063D01*
X020829Y016087D01*
X020875Y016108D01*
X020922Y016126D01*
X020971Y016139D01*
X021020Y016149D01*
X021070Y016155D01*
X021120Y016157D01*
X021170Y016155D01*
X021220Y016149D01*
X021269Y016139D01*
X021318Y016126D01*
X021365Y016108D01*
X021411Y016087D01*
X021454Y016063D01*
X021496Y016035D01*
X021536Y016004D01*
X021573Y015970D01*
X021607Y015933D01*
X021638Y015893D01*
X021666Y015851D01*
X021690Y015808D01*
X021711Y015762D01*
X021729Y015715D01*
X021742Y015666D01*
X021752Y015617D01*
X021758Y015567D01*
X021760Y015517D01*
X021758Y015467D01*
X021752Y015417D01*
X021742Y015368D01*
X021729Y015319D01*
X021711Y015272D01*
X021690Y015226D01*
X021666Y015183D01*
X021638Y015141D01*
X021607Y015101D01*
X021573Y015064D01*
X021536Y015030D01*
X021496Y014999D01*
X021454Y014971D01*
X021411Y014947D01*
X021365Y014926D01*
X021318Y014908D01*
X021269Y014895D01*
X021220Y014885D01*
X021170Y014879D01*
X021120Y014877D01*
X021070Y014879D01*
X021020Y014885D01*
X020971Y014895D01*
X020922Y014908D01*
X020875Y014926D01*
X020829Y014947D01*
X020786Y014971D01*
X020744Y014999D01*
X020704Y015030D01*
X020667Y015064D01*
X020633Y015101D01*
X020602Y015141D01*
X020574Y015183D01*
X020550Y015226D01*
X020529Y015272D01*
X020511Y015319D01*
X020498Y015368D01*
X020488Y015417D01*
X020482Y015467D01*
X020480Y015517D01*
X016480Y015517D02*
X016482Y015567D01*
X016488Y015617D01*
X016498Y015666D01*
X016511Y015715D01*
X016529Y015762D01*
X016550Y015808D01*
X016574Y015851D01*
X016602Y015893D01*
X016633Y015933D01*
X016667Y015970D01*
X016704Y016004D01*
X016744Y016035D01*
X016786Y016063D01*
X016829Y016087D01*
X016875Y016108D01*
X016922Y016126D01*
X016971Y016139D01*
X017020Y016149D01*
X017070Y016155D01*
X017120Y016157D01*
X017170Y016155D01*
X017220Y016149D01*
X017269Y016139D01*
X017318Y016126D01*
X017365Y016108D01*
X017411Y016087D01*
X017454Y016063D01*
X017496Y016035D01*
X017536Y016004D01*
X017573Y015970D01*
X017607Y015933D01*
X017638Y015893D01*
X017666Y015851D01*
X017690Y015808D01*
X017711Y015762D01*
X017729Y015715D01*
X017742Y015666D01*
X017752Y015617D01*
X017758Y015567D01*
X017760Y015517D01*
X017758Y015467D01*
X017752Y015417D01*
X017742Y015368D01*
X017729Y015319D01*
X017711Y015272D01*
X017690Y015226D01*
X017666Y015183D01*
X017638Y015141D01*
X017607Y015101D01*
X017573Y015064D01*
X017536Y015030D01*
X017496Y014999D01*
X017454Y014971D01*
X017411Y014947D01*
X017365Y014926D01*
X017318Y014908D01*
X017269Y014895D01*
X017220Y014885D01*
X017170Y014879D01*
X017120Y014877D01*
X017070Y014879D01*
X017020Y014885D01*
X016971Y014895D01*
X016922Y014908D01*
X016875Y014926D01*
X016829Y014947D01*
X016786Y014971D01*
X016744Y014999D01*
X016704Y015030D01*
X016667Y015064D01*
X016633Y015101D01*
X016602Y015141D01*
X016574Y015183D01*
X016550Y015226D01*
X016529Y015272D01*
X016511Y015319D01*
X016498Y015368D01*
X016488Y015417D01*
X016482Y015467D01*
X016480Y015517D01*
X013980Y015517D02*
X013982Y015567D01*
X013988Y015617D01*
X013998Y015666D01*
X014011Y015715D01*
X014029Y015762D01*
X014050Y015808D01*
X014074Y015851D01*
X014102Y015893D01*
X014133Y015933D01*
X014167Y015970D01*
X014204Y016004D01*
X014244Y016035D01*
X014286Y016063D01*
X014329Y016087D01*
X014375Y016108D01*
X014422Y016126D01*
X014471Y016139D01*
X014520Y016149D01*
X014570Y016155D01*
X014620Y016157D01*
X014670Y016155D01*
X014720Y016149D01*
X014769Y016139D01*
X014818Y016126D01*
X014865Y016108D01*
X014911Y016087D01*
X014954Y016063D01*
X014996Y016035D01*
X015036Y016004D01*
X015073Y015970D01*
X015107Y015933D01*
X015138Y015893D01*
X015166Y015851D01*
X015190Y015808D01*
X015211Y015762D01*
X015229Y015715D01*
X015242Y015666D01*
X015252Y015617D01*
X015258Y015567D01*
X015260Y015517D01*
X015258Y015467D01*
X015252Y015417D01*
X015242Y015368D01*
X015229Y015319D01*
X015211Y015272D01*
X015190Y015226D01*
X015166Y015183D01*
X015138Y015141D01*
X015107Y015101D01*
X015073Y015064D01*
X015036Y015030D01*
X014996Y014999D01*
X014954Y014971D01*
X014911Y014947D01*
X014865Y014926D01*
X014818Y014908D01*
X014769Y014895D01*
X014720Y014885D01*
X014670Y014879D01*
X014620Y014877D01*
X014570Y014879D01*
X014520Y014885D01*
X014471Y014895D01*
X014422Y014908D01*
X014375Y014926D01*
X014329Y014947D01*
X014286Y014971D01*
X014244Y014999D01*
X014204Y015030D01*
X014167Y015064D01*
X014133Y015101D01*
X014102Y015141D01*
X014074Y015183D01*
X014050Y015226D01*
X014029Y015272D01*
X014011Y015319D01*
X013998Y015368D01*
X013988Y015417D01*
X013982Y015467D01*
X013980Y015517D01*
X009980Y015517D02*
X009982Y015567D01*
X009988Y015617D01*
X009998Y015666D01*
X010011Y015715D01*
X010029Y015762D01*
X010050Y015808D01*
X010074Y015851D01*
X010102Y015893D01*
X010133Y015933D01*
X010167Y015970D01*
X010204Y016004D01*
X010244Y016035D01*
X010286Y016063D01*
X010329Y016087D01*
X010375Y016108D01*
X010422Y016126D01*
X010471Y016139D01*
X010520Y016149D01*
X010570Y016155D01*
X010620Y016157D01*
X010670Y016155D01*
X010720Y016149D01*
X010769Y016139D01*
X010818Y016126D01*
X010865Y016108D01*
X010911Y016087D01*
X010954Y016063D01*
X010996Y016035D01*
X011036Y016004D01*
X011073Y015970D01*
X011107Y015933D01*
X011138Y015893D01*
X011166Y015851D01*
X011190Y015808D01*
X011211Y015762D01*
X011229Y015715D01*
X011242Y015666D01*
X011252Y015617D01*
X011258Y015567D01*
X011260Y015517D01*
X011258Y015467D01*
X011252Y015417D01*
X011242Y015368D01*
X011229Y015319D01*
X011211Y015272D01*
X011190Y015226D01*
X011166Y015183D01*
X011138Y015141D01*
X011107Y015101D01*
X011073Y015064D01*
X011036Y015030D01*
X010996Y014999D01*
X010954Y014971D01*
X010911Y014947D01*
X010865Y014926D01*
X010818Y014908D01*
X010769Y014895D01*
X010720Y014885D01*
X010670Y014879D01*
X010620Y014877D01*
X010570Y014879D01*
X010520Y014885D01*
X010471Y014895D01*
X010422Y014908D01*
X010375Y014926D01*
X010329Y014947D01*
X010286Y014971D01*
X010244Y014999D01*
X010204Y015030D01*
X010167Y015064D01*
X010133Y015101D01*
X010102Y015141D01*
X010074Y015183D01*
X010050Y015226D01*
X010029Y015272D01*
X010011Y015319D01*
X009998Y015368D01*
X009988Y015417D01*
X009982Y015467D01*
X009980Y015517D01*
X001939Y012751D02*
X001941Y012787D01*
X001947Y012823D01*
X001957Y012858D01*
X001970Y012892D01*
X001987Y012924D01*
X002007Y012954D01*
X002031Y012981D01*
X002057Y013006D01*
X002086Y013028D01*
X002117Y013047D01*
X002150Y013062D01*
X002184Y013074D01*
X002220Y013082D01*
X002256Y013086D01*
X002292Y013086D01*
X002328Y013082D01*
X002364Y013074D01*
X002398Y013062D01*
X002431Y013047D01*
X002462Y013028D01*
X002491Y013006D01*
X002517Y012981D01*
X002541Y012954D01*
X002561Y012924D01*
X002578Y012892D01*
X002591Y012858D01*
X002601Y012823D01*
X002607Y012787D01*
X002609Y012751D01*
X002607Y012715D01*
X002601Y012679D01*
X002591Y012644D01*
X002578Y012610D01*
X002561Y012578D01*
X002541Y012548D01*
X002517Y012521D01*
X002491Y012496D01*
X002462Y012474D01*
X002431Y012455D01*
X002398Y012440D01*
X002364Y012428D01*
X002328Y012420D01*
X002292Y012416D01*
X002256Y012416D01*
X002220Y012420D01*
X002184Y012428D01*
X002150Y012440D01*
X002117Y012455D01*
X002086Y012474D01*
X002057Y012496D01*
X002031Y012521D01*
X002007Y012548D01*
X001987Y012578D01*
X001970Y012610D01*
X001957Y012644D01*
X001947Y012679D01*
X001941Y012715D01*
X001939Y012751D01*
X001939Y010782D02*
X001941Y010818D01*
X001947Y010854D01*
X001957Y010889D01*
X001970Y010923D01*
X001987Y010955D01*
X002007Y010985D01*
X002031Y011012D01*
X002057Y011037D01*
X002086Y011059D01*
X002117Y011078D01*
X002150Y011093D01*
X002184Y011105D01*
X002220Y011113D01*
X002256Y011117D01*
X002292Y011117D01*
X002328Y011113D01*
X002364Y011105D01*
X002398Y011093D01*
X002431Y011078D01*
X002462Y011059D01*
X002491Y011037D01*
X002517Y011012D01*
X002541Y010985D01*
X002561Y010955D01*
X002578Y010923D01*
X002591Y010889D01*
X002601Y010854D01*
X002607Y010818D01*
X002609Y010782D01*
X002607Y010746D01*
X002601Y010710D01*
X002591Y010675D01*
X002578Y010641D01*
X002561Y010609D01*
X002541Y010579D01*
X002517Y010552D01*
X002491Y010527D01*
X002462Y010505D01*
X002431Y010486D01*
X002398Y010471D01*
X002364Y010459D01*
X002328Y010451D01*
X002292Y010447D01*
X002256Y010447D01*
X002220Y010451D01*
X002184Y010459D01*
X002150Y010471D01*
X002117Y010486D01*
X002086Y010505D01*
X002057Y010527D01*
X002031Y010552D01*
X002007Y010579D01*
X001987Y010609D01*
X001970Y010641D01*
X001957Y010675D01*
X001947Y010710D01*
X001941Y010746D01*
X001939Y010782D01*
X002443Y006456D02*
X002445Y006482D01*
X002451Y006508D01*
X002461Y006533D01*
X002474Y006556D01*
X002490Y006576D01*
X002510Y006594D01*
X002532Y006609D01*
X002555Y006621D01*
X002581Y006629D01*
X002607Y006633D01*
X002633Y006633D01*
X002659Y006629D01*
X002685Y006621D01*
X002709Y006609D01*
X002730Y006594D01*
X002750Y006576D01*
X002766Y006556D01*
X002779Y006533D01*
X002789Y006508D01*
X002795Y006482D01*
X002797Y006456D01*
X002795Y006430D01*
X002789Y006404D01*
X002779Y006379D01*
X002766Y006356D01*
X002750Y006336D01*
X002730Y006318D01*
X002708Y006303D01*
X002685Y006291D01*
X002659Y006283D01*
X002633Y006279D01*
X002607Y006279D01*
X002581Y006283D01*
X002555Y006291D01*
X002531Y006303D01*
X002510Y006318D01*
X002490Y006336D01*
X002474Y006356D01*
X002461Y006379D01*
X002451Y006404D01*
X002445Y006430D01*
X002443Y006456D01*
X002443Y005078D02*
X002445Y005104D01*
X002451Y005130D01*
X002461Y005155D01*
X002474Y005178D01*
X002490Y005198D01*
X002510Y005216D01*
X002532Y005231D01*
X002555Y005243D01*
X002581Y005251D01*
X002607Y005255D01*
X002633Y005255D01*
X002659Y005251D01*
X002685Y005243D01*
X002709Y005231D01*
X002730Y005216D01*
X002750Y005198D01*
X002766Y005178D01*
X002779Y005155D01*
X002789Y005130D01*
X002795Y005104D01*
X002797Y005078D01*
X002795Y005052D01*
X002789Y005026D01*
X002779Y005001D01*
X002766Y004978D01*
X002750Y004958D01*
X002730Y004940D01*
X002708Y004925D01*
X002685Y004913D01*
X002659Y004905D01*
X002633Y004901D01*
X002607Y004901D01*
X002581Y004905D01*
X002555Y004913D01*
X002531Y004925D01*
X002510Y004940D01*
X002490Y004958D01*
X002474Y004978D01*
X002461Y005001D01*
X002451Y005026D01*
X002445Y005052D01*
X002443Y005078D01*
D13*
X011120Y009767D03*
X010720Y011767D03*
X011520Y011767D03*
D14*
X001370Y003017D03*
D15*
X001370Y002017D03*
X001370Y001017D03*
D16*
X011069Y007767D03*
X012172Y007767D03*
X013069Y007767D03*
X014172Y007767D03*
X012172Y013017D03*
X011069Y013017D03*
X009172Y019267D03*
X008069Y019267D03*
D17*
X014069Y013017D03*
X015172Y013017D03*
G36*
X021508Y013907D02*
X021982Y013433D01*
X021454Y012905D01*
X020980Y013379D01*
X021508Y013907D01*
G37*
G36*
X022287Y013128D02*
X022761Y012654D01*
X022233Y012126D01*
X021759Y012600D01*
X022287Y013128D01*
G37*
G36*
X021759Y008933D02*
X022233Y009407D01*
X022761Y008879D01*
X022287Y008405D01*
X021759Y008933D01*
G37*
G36*
X020980Y008154D02*
X021454Y008628D01*
X021982Y008100D01*
X021508Y007626D01*
X020980Y008154D01*
G37*
D18*
X019870Y003517D03*
X018870Y003517D03*
X017870Y003517D03*
X018370Y002517D03*
X019370Y002517D03*
X020370Y002517D03*
X024370Y003517D03*
X025370Y003517D03*
X026370Y003517D03*
X025870Y002517D03*
X024870Y002517D03*
X026870Y002517D03*
X030870Y003517D03*
X031870Y003517D03*
X032870Y003517D03*
X032370Y002517D03*
X033370Y002517D03*
X031370Y002517D03*
X013870Y002517D03*
X012870Y002517D03*
X011870Y002517D03*
X011370Y003517D03*
X012370Y003517D03*
X013370Y003517D03*
X012870Y018017D03*
X013870Y018017D03*
X013370Y019017D03*
X012370Y019017D03*
X011370Y019017D03*
X011870Y018017D03*
X017870Y019017D03*
X018870Y019017D03*
X019870Y019017D03*
X019370Y018017D03*
X018370Y018017D03*
X020370Y018017D03*
X024370Y019017D03*
X025370Y019017D03*
X026370Y019017D03*
X025870Y018017D03*
X024870Y018017D03*
X026870Y018017D03*
X030870Y019017D03*
X031870Y019017D03*
X032870Y019017D03*
X032370Y018017D03*
X033370Y018017D03*
X031370Y018017D03*
D19*
X030120Y015517D03*
X027620Y015517D03*
X023620Y015517D03*
X021120Y015517D03*
X017120Y015517D03*
X014620Y015517D03*
X010620Y015517D03*
X010620Y006017D03*
X014620Y006017D03*
X017120Y006017D03*
X021120Y006017D03*
X023620Y006017D03*
X027620Y006017D03*
X030120Y006017D03*
X034120Y006017D03*
X034120Y015517D03*
D20*
X032620Y016068D03*
X032620Y014965D03*
X026120Y014965D03*
X026120Y016068D03*
X019620Y016068D03*
X019620Y014965D03*
X013120Y014965D03*
X013120Y016068D03*
X008870Y015568D03*
X007370Y015568D03*
X007370Y014465D03*
X008870Y014465D03*
X012020Y006568D03*
X013220Y006568D03*
X013220Y005465D03*
X012020Y005465D03*
X018520Y005465D03*
X019720Y005465D03*
X019720Y006568D03*
X018520Y006568D03*
D21*
X024120Y008962D03*
X024620Y008962D03*
X025120Y008962D03*
X025620Y008962D03*
X026120Y008962D03*
X026620Y008962D03*
X027120Y008962D03*
X027620Y008962D03*
X028120Y008962D03*
X030120Y008962D03*
X030620Y008962D03*
X031120Y008962D03*
X031620Y008962D03*
X032120Y008962D03*
X032620Y008962D03*
X033120Y008962D03*
X033620Y008962D03*
X034120Y008962D03*
X033620Y012572D03*
X033120Y012572D03*
X032620Y012572D03*
X032120Y012572D03*
X031620Y012572D03*
X031120Y012572D03*
X030620Y012572D03*
X030120Y012572D03*
X028120Y012587D03*
X027620Y012572D03*
X027120Y012572D03*
X026620Y012572D03*
X026120Y012572D03*
X025620Y012572D03*
X025120Y012572D03*
X024620Y012572D03*
X024120Y012572D03*
X034120Y012587D03*
D22*
X005620Y014838D03*
X001486Y011767D03*
X005620Y008696D03*
D23*
X002274Y008696D03*
X002274Y014838D03*
D24*
X005089Y012830D03*
X003652Y012751D03*
X003652Y010782D03*
X005089Y010704D03*
D25*
X002274Y010782D03*
X002274Y012751D03*
D26*
X003620Y017017D03*
X003620Y018017D03*
X003620Y018767D03*
X003620Y019767D03*
X006120Y018017D03*
X006120Y017017D03*
X008620Y017017D03*
X008620Y018017D03*
D27*
X001620Y017749D03*
X001620Y019284D03*
D28*
X006603Y001517D03*
X008138Y001517D03*
D29*
X008770Y012017D03*
X007471Y012017D03*
D30*
X007530Y010517D03*
X008711Y010517D03*
X008711Y009517D03*
X007530Y009517D03*
X007530Y008517D03*
X008711Y008517D03*
D31*
X002620Y006456D03*
X002620Y005078D03*
D32*
X005870Y005465D03*
X005870Y006568D03*
D33*
X006120Y019267D03*
X007120Y019267D03*
X005120Y019267D03*
D34*
X017192Y011775D02*
X017221Y011804D01*
X017192Y011775D02*
X016899Y012068D01*
X016928Y012097D01*
X017221Y011804D01*
X017077Y011948D02*
X017019Y011948D01*
X016999Y011581D02*
X016970Y011552D01*
X016677Y011845D01*
X016706Y011874D01*
X016999Y011581D01*
X016855Y011725D02*
X016797Y011725D01*
X016776Y011358D02*
X016747Y011329D01*
X016454Y011622D01*
X016483Y011651D01*
X016776Y011358D01*
X016632Y011502D02*
X016574Y011502D01*
X016553Y011136D02*
X016524Y011107D01*
X016231Y011400D01*
X016260Y011429D01*
X016553Y011136D01*
X016409Y011280D02*
X016351Y011280D01*
X017415Y011998D02*
X017444Y012027D01*
X017415Y011998D02*
X017122Y012291D01*
X017151Y012320D01*
X017444Y012027D01*
X017300Y012171D02*
X017242Y012171D01*
X017638Y012220D02*
X017667Y012249D01*
X017638Y012220D02*
X017345Y012513D01*
X017374Y012542D01*
X017667Y012249D01*
X017523Y012393D02*
X017465Y012393D01*
X017860Y012443D02*
X017889Y012472D01*
X017860Y012443D02*
X017567Y012736D01*
X017596Y012765D01*
X017889Y012472D01*
X017745Y012616D02*
X017687Y012616D01*
X018083Y012666D02*
X018112Y012695D01*
X018083Y012666D02*
X017790Y012959D01*
X017819Y012988D01*
X018112Y012695D01*
X017968Y012839D02*
X017910Y012839D01*
X018306Y012888D02*
X018335Y012917D01*
X018306Y012888D02*
X018013Y013181D01*
X018042Y013210D01*
X018335Y012917D01*
X018191Y013061D02*
X018133Y013061D01*
X018529Y013111D02*
X018558Y013140D01*
X018529Y013111D02*
X018236Y013404D01*
X018265Y013433D01*
X018558Y013140D01*
X018414Y013284D02*
X018356Y013284D01*
X018751Y013334D02*
X018780Y013363D01*
X018751Y013334D02*
X018458Y013627D01*
X018487Y013656D01*
X018780Y013363D01*
X018636Y013507D02*
X018578Y013507D01*
X019489Y013334D02*
X019782Y013627D01*
X019489Y013334D02*
X019460Y013363D01*
X019753Y013656D01*
X019782Y013627D01*
X019662Y013507D02*
X019604Y013507D01*
X019712Y013111D02*
X020005Y013404D01*
X019712Y013111D02*
X019683Y013140D01*
X019976Y013433D01*
X020005Y013404D01*
X019885Y013284D02*
X019827Y013284D01*
X019935Y012888D02*
X020228Y013181D01*
X019935Y012888D02*
X019906Y012917D01*
X020199Y013210D01*
X020228Y013181D01*
X020108Y013061D02*
X020050Y013061D01*
X020158Y012666D02*
X020451Y012959D01*
X020158Y012666D02*
X020129Y012695D01*
X020422Y012988D01*
X020451Y012959D01*
X020331Y012839D02*
X020273Y012839D01*
X020380Y012443D02*
X020673Y012736D01*
X020380Y012443D02*
X020351Y012472D01*
X020644Y012765D01*
X020673Y012736D01*
X020553Y012616D02*
X020495Y012616D01*
X020603Y012220D02*
X020896Y012513D01*
X020603Y012220D02*
X020574Y012249D01*
X020867Y012542D01*
X020896Y012513D01*
X020776Y012393D02*
X020718Y012393D01*
X020826Y011998D02*
X021119Y012291D01*
X020826Y011998D02*
X020797Y012027D01*
X021090Y012320D01*
X021119Y012291D01*
X020999Y012171D02*
X020941Y012171D01*
X021048Y011775D02*
X021341Y012068D01*
X021048Y011775D02*
X021019Y011804D01*
X021312Y012097D01*
X021341Y012068D01*
X021221Y011948D02*
X021163Y011948D01*
X021271Y011552D02*
X021564Y011845D01*
X021271Y011552D02*
X021242Y011581D01*
X021535Y011874D01*
X021564Y011845D01*
X021444Y011725D02*
X021386Y011725D01*
X021494Y011329D02*
X021787Y011622D01*
X021494Y011329D02*
X021465Y011358D01*
X021758Y011651D01*
X021787Y011622D01*
X021667Y011502D02*
X021609Y011502D01*
X021717Y011107D02*
X022010Y011400D01*
X021717Y011107D02*
X021688Y011136D01*
X021981Y011429D01*
X022010Y011400D01*
X021890Y011280D02*
X021832Y011280D01*
X022010Y010134D02*
X021981Y010105D01*
X021688Y010398D01*
X021717Y010427D01*
X022010Y010134D01*
X021866Y010278D02*
X021808Y010278D01*
X021787Y009911D02*
X021758Y009882D01*
X021465Y010175D01*
X021494Y010204D01*
X021787Y009911D01*
X021643Y010055D02*
X021585Y010055D01*
X021564Y009688D02*
X021535Y009659D01*
X021242Y009952D01*
X021271Y009981D01*
X021564Y009688D01*
X021420Y009832D02*
X021362Y009832D01*
X021341Y009465D02*
X021312Y009436D01*
X021019Y009729D01*
X021048Y009758D01*
X021341Y009465D01*
X021197Y009609D02*
X021139Y009609D01*
X021119Y009243D02*
X021090Y009214D01*
X020797Y009507D01*
X020826Y009536D01*
X021119Y009243D01*
X020975Y009387D02*
X020917Y009387D01*
X020896Y009020D02*
X020867Y008991D01*
X020574Y009284D01*
X020603Y009313D01*
X020896Y009020D01*
X020752Y009164D02*
X020694Y009164D01*
X020673Y008797D02*
X020644Y008768D01*
X020351Y009061D01*
X020380Y009090D01*
X020673Y008797D01*
X020529Y008941D02*
X020471Y008941D01*
X020451Y008575D02*
X020422Y008546D01*
X020129Y008839D01*
X020158Y008868D01*
X020451Y008575D01*
X020307Y008719D02*
X020249Y008719D01*
X020228Y008352D02*
X020199Y008323D01*
X019906Y008616D01*
X019935Y008645D01*
X020228Y008352D01*
X020084Y008496D02*
X020026Y008496D01*
X020005Y008129D02*
X019976Y008100D01*
X019683Y008393D01*
X019712Y008422D01*
X020005Y008129D01*
X019861Y008273D02*
X019803Y008273D01*
X019782Y007906D02*
X019753Y007877D01*
X019460Y008170D01*
X019489Y008199D01*
X019782Y007906D01*
X019638Y008050D02*
X019580Y008050D01*
X018780Y008170D02*
X018487Y007877D01*
X018458Y007906D01*
X018751Y008199D01*
X018780Y008170D01*
X018660Y008050D02*
X018602Y008050D01*
X018265Y008100D02*
X018558Y008393D01*
X018265Y008100D02*
X018236Y008129D01*
X018529Y008422D01*
X018558Y008393D01*
X018438Y008273D02*
X018380Y008273D01*
X018042Y008323D02*
X018335Y008616D01*
X018042Y008323D02*
X018013Y008352D01*
X018306Y008645D01*
X018335Y008616D01*
X018215Y008496D02*
X018157Y008496D01*
X017819Y008546D02*
X018112Y008839D01*
X017819Y008546D02*
X017790Y008575D01*
X018083Y008868D01*
X018112Y008839D01*
X017992Y008719D02*
X017934Y008719D01*
X017596Y008768D02*
X017889Y009061D01*
X017596Y008768D02*
X017567Y008797D01*
X017860Y009090D01*
X017889Y009061D01*
X017769Y008941D02*
X017711Y008941D01*
X017374Y008991D02*
X017667Y009284D01*
X017374Y008991D02*
X017345Y009020D01*
X017638Y009313D01*
X017667Y009284D01*
X017547Y009164D02*
X017489Y009164D01*
X017151Y009214D02*
X017444Y009507D01*
X017151Y009214D02*
X017122Y009243D01*
X017415Y009536D01*
X017444Y009507D01*
X017324Y009387D02*
X017266Y009387D01*
X016928Y009436D02*
X017221Y009729D01*
X016928Y009436D02*
X016899Y009465D01*
X017192Y009758D01*
X017221Y009729D01*
X017101Y009609D02*
X017043Y009609D01*
X016706Y009659D02*
X016999Y009952D01*
X016706Y009659D02*
X016677Y009688D01*
X016970Y009981D01*
X016999Y009952D01*
X016879Y009832D02*
X016821Y009832D01*
X016483Y009882D02*
X016776Y010175D01*
X016483Y009882D02*
X016454Y009911D01*
X016747Y010204D01*
X016776Y010175D01*
X016656Y010055D02*
X016598Y010055D01*
X016260Y010105D02*
X016553Y010398D01*
X016260Y010105D02*
X016231Y010134D01*
X016524Y010427D01*
X016553Y010398D01*
X016433Y010278D02*
X016375Y010278D01*
D35*
X019120Y010767D02*
X019121Y010767D01*
X019121Y010766D01*
X019120Y010766D01*
X019119Y010766D01*
X019119Y010767D01*
X019119Y010768D01*
X019120Y010768D01*
X019121Y010768D01*
X019121Y010767D01*
M02*
