%
M48
M72
T01C0.0120
T02C0.0315
T03C0.0320
T04C0.0350
T05C0.0354
T06C0.0400
T07C0.0551
T08C0.0669
T09C0.0787
T10C0.0866
T11C0.1280
%
T01
X3020Y3397
X5500Y4757
X6860Y4837
X8460Y4277
X9100Y3957
X10060Y4277
X9740Y5157
X12540Y6117
X14700Y7317
X13660Y7637
X14060Y8517
X14620Y8677
X14860Y9077
X15340Y8997
X15580Y9397
X16300Y8117
X17580Y7397
X17980Y6997
X16620Y6917
X17900Y5077
X17180Y3477
X20300Y7077
X20620Y7397
X21100Y7797
X22620Y9317
X23500Y9717
X23340Y11397
X22700Y12037
X23020Y12677
X23100Y13317
X22540Y13957
X23260Y14277
X21740Y13957
X20700Y14117
X19020Y14837
X18700Y15717
X18380Y16437
X21100Y17557
X21980Y17557
X21020Y18517
X24940Y16437
X28700Y16117
X31420Y14837
X33020Y14437
X28700Y13957
X26060Y13957
X25980Y13637
X25580Y13637
X29500Y10997
X30380Y11317
X31100Y11077
X31420Y11077
X32700Y10757
X33820Y11397
X34780Y8997
X29500Y8997
X27900Y10357
X27340Y10757
X20700Y10757
X20460Y11077
X20060Y10677
X19180Y11157
X19820Y11317
X19820Y11717
X19500Y12037
X18540Y11797
X18140Y11317
X18940Y10197
X18300Y9957
X19340Y9637
X19260Y9317
X19660Y9717
X19980Y10037
X16060Y12597
X15580Y12117
X14620Y12837
X14620Y13157
X13340Y12517
X12300Y11797
X13340Y10677
X12300Y9877
X12940Y8837
X11820Y8357
X10540Y8037
X9740Y7317
X9180Y8757
X9100Y9077
X9980Y9077
X10380Y9077
X9180Y10277
X9980Y11157
X9660Y11637
X8300Y11317
X8220Y12437
X7900Y13957
X9500Y14437
X11660Y13157
X12780Y13637
X13740Y14757
X16060Y13317
X16380Y13877
X17420Y14117
X11900Y16437
X9740Y19957
X7260Y8997
X7980Y8757
X7660Y3077
T02
X7120Y19267
X6120Y19267
X5120Y19267
T03
X3620Y19767
X3620Y18767
X3620Y18017
X3620Y17017
X6120Y17017
X6120Y18017
X8620Y18017
X8620Y17017
T04
X10720Y11767
X11520Y11767
X11120Y9767
T05
X2620Y6456
X2620Y5078
X11370Y3517
X12370Y3517
X13370Y3517
X12870Y2517
X13870Y2517
X11870Y2517
X17870Y3517
X18870Y3517
X19870Y3517
X19370Y2517
X18370Y2517
X20370Y2517
X24370Y3517
X25370Y3517
X26370Y3517
X25870Y2517
X24870Y2517
X26870Y2517
X30870Y3517
X31870Y3517
X32870Y3517
X32370Y2517
X33370Y2517
X31370Y2517
X31370Y18017
X32370Y18017
X33370Y18017
X32870Y19017
X31870Y19017
X30870Y19017
X26870Y18017
X25870Y18017
X24870Y18017
X24370Y19017
X25370Y19017
X26370Y19017
X20370Y18017
X19370Y18017
X18370Y18017
X17870Y19017
X18870Y19017
X19870Y19017
X13870Y18017
X12870Y18017
X11870Y18017
X11370Y19017
X12370Y19017
X13370Y19017
T06
X1370Y1017
X1370Y2017
X1370Y3017
T07
X9120Y1017
T08
X2274Y10782
X2274Y12751
T09
X3652Y12751
X5089Y12830
X5620Y14838
X1486Y11767
X3652Y10782
X5089Y10704
X5620Y8696
T10
X2274Y8696
X2274Y14838
T11
X10620Y15517
X14620Y15517
X17120Y15517
X21120Y15517
X23620Y15517
X27620Y15517
X30120Y15517
X34120Y15517
X34120Y6017
X30120Y6017
X27620Y6017
X23620Y6017
X21120Y6017
X17120Y6017
X14620Y6017
X10620Y6017
M30
