%
M48
M72
T01C0.0120
T02C0.0236
T03C0.0315
T04C0.0350
T05C0.0354
T06C0.0433
T07C0.0669
T08C0.0787
T09C0.0866
T10C0.1280
%
T01
X15456Y1905
X17216Y2125
X17491Y2345
X14136Y2015
X18371Y5095
X18866Y7625
X17876Y9220
X21176Y9660
X22221Y7955
X23816Y9660
X25136Y8615
X25356Y7515
X26126Y7515
X27666Y7515
X28216Y8615
X29756Y8725
X30966Y8725
X31516Y9330
X30966Y10265
X31021Y10595
X31846Y11035
X33276Y10980
X33606Y11035
X33881Y9880
X32946Y9330
X32946Y9000
X33221Y8450
X33881Y8395
X34871Y8175
X33056Y7240
X30966Y7845
X28216Y3665
X38281Y7075
X38446Y7625
X39876Y6580
X35256Y9385
X34871Y9385
X36851Y11860
X38666Y11915
X42021Y12135
X38666Y13950
X39051Y14390
X39381Y14390
X37676Y14555
X36521Y15270
X36246Y14885
X36301Y14555
X34431Y13895
X33716Y13950
X33386Y13675
X32836Y13070
X33111Y12905
X32121Y13125
X32121Y13510
X31736Y13895
X32341Y14445
X33001Y15380
X32726Y15545
X32396Y15545
X32066Y15490
X34101Y15380
X34431Y15545
X36246Y15765
X36246Y16480
X36796Y16975
X37181Y16975
X37951Y16700
X36356Y18350
X36191Y18625
X36796Y19065
X38116Y18460
X40921Y18625
X40866Y17030
X42021Y16645
X42021Y16095
X42901Y17030
X43121Y14170
X42021Y9605
X40921Y9660
X34431Y13015
X29701Y11145
X29481Y11365
X29096Y11805
X28821Y11145
X28216Y10210
X27006Y10925
X26896Y11420
X27391Y11475
X25851Y11750
X24256Y12300
X24256Y12685
X23706Y12685
X22221Y11750
X22551Y11475
X21286Y12685
X18866Y11585
X18371Y12080
X18096Y12740
X18206Y14720
X20626Y14665
X21561Y15270
X22276Y14170
X22991Y14170
X25411Y15215
X26896Y14775
X26896Y14280
X25796Y14225
X26181Y16205
X29646Y15050
X29811Y17250
X30636Y17360
X30636Y17745
X30636Y18735
X28381Y19010
X27996Y18735
X24366Y18460
X21561Y18020
X21176Y17250
X17656Y17250
X25466Y10265
X26456Y9935
X34266Y18625
T02
X29096Y15950
X29096Y12450
T03
X46699Y12712
X47250Y13657
X49770Y14700
X48470Y16491
X45439Y16275
T04
X15946Y1575
X16746Y1575
X16346Y3575
T05
X22346Y3700
X23346Y3700
X24346Y3700
X23846Y2700
X22846Y2700
X24846Y2700
X28846Y3700
X29846Y3700
X30846Y3700
X30346Y2700
X29346Y2700
X31346Y2700
X35346Y3700
X36346Y3700
X37346Y3700
X36846Y2700
X35846Y2700
X37846Y2700
X14596Y15334
X14596Y17066
X17846Y24200
X18846Y24200
X19846Y24200
X19346Y25200
X18346Y25200
X17346Y25200
X24346Y24200
X25346Y24200
X26346Y24200
X25846Y25200
X24846Y25200
X23846Y25200
X30846Y24200
X31846Y24200
X32846Y24200
X32346Y25200
X31346Y25200
X30346Y25200
X37346Y24200
X38346Y24200
X39346Y24200
X38846Y25200
X37846Y25200
X36846Y25200
X43846Y24200
X44846Y24200
X45846Y24200
X45346Y25200
X44346Y25200
X43346Y25200
T06
X13096Y22700
X46096Y9700
X45096Y9700
X44096Y9700
X43096Y9700
X47096Y9700
X48096Y9700
X49096Y9700
X50096Y9700
X43096Y2700
X44096Y2700
X45096Y2700
X46096Y2700
X47096Y2700
X48096Y2700
X49096Y2700
X50096Y2700
T07
X14250Y9684
X14250Y7716
T08
X17596Y5629
X17065Y7637
X15628Y7716
X13462Y8700
X15628Y9684
X17065Y9763
X17596Y11771
T09
X14250Y5629
X14250Y11771
T10
X21596Y6200
X25596Y6200
X28096Y6200
X32096Y6200
X34596Y6200
X38596Y6200
X16596Y21700
X20596Y21700
X23096Y21700
X27096Y21700
X29596Y21700
X33596Y21700
X36096Y21700
X40096Y21700
X42596Y21700
X46596Y21700
M30
