G75*
G70*
%OFA0B0*%
%FSLAX24Y24*%
%IPPOS*%
%LPD*%
%AMOC8*
5,1,8,0,0,1.08239X$1,22.5*
%
%ADD10C,0.1340*%
%ADD11C,0.0600*%
%ADD12C,0.0634*%
%ADD13C,0.1360*%
%ADD14OC8,0.0600*%
%ADD15C,0.0740*%
%ADD16C,0.0867*%
%ADD17C,0.1261*%
%ADD18C,0.1346*%
%ADD19R,0.1261X0.1261*%
%ADD20C,0.0749*%
%ADD21C,0.1080*%
%ADD22R,0.0710X0.0789*%
%ADD23OC8,0.0710*%
%ADD24C,0.0710*%
%ADD25C,0.0480*%
D10*
X004100Y001704D03*
X040600Y001704D03*
X043100Y028704D03*
X001600Y028704D03*
D11*
X005100Y026964D02*
X005100Y026444D01*
X006100Y026444D02*
X006100Y026964D01*
X007100Y026964D02*
X007100Y026444D01*
X007100Y023964D02*
X007100Y023444D01*
X006100Y023444D02*
X006100Y023964D01*
X005100Y023964D02*
X005100Y023444D01*
X015100Y018464D02*
X015100Y017944D01*
X016100Y017944D02*
X016100Y018464D01*
X017100Y018464D02*
X017100Y017944D01*
X018100Y017944D02*
X018100Y018464D01*
X019100Y018464D02*
X019100Y017944D01*
X020100Y017944D02*
X020100Y018464D01*
X021100Y018464D02*
X021100Y017944D01*
X022100Y017944D02*
X022100Y018464D01*
X023100Y018464D02*
X023100Y017944D01*
X025600Y017944D02*
X025600Y018464D01*
X026600Y018464D02*
X026600Y017944D01*
X027600Y017944D02*
X027600Y018464D01*
X028600Y018464D02*
X028600Y017944D01*
X029600Y017944D02*
X029600Y018464D01*
X030600Y018464D02*
X030600Y017944D01*
X031600Y017944D02*
X031600Y018464D01*
X032600Y018464D02*
X032600Y017944D01*
X033600Y017944D02*
X033600Y018464D01*
X033600Y015464D02*
X033600Y014944D01*
X032600Y014944D02*
X032600Y015464D01*
X031600Y015464D02*
X031600Y014944D01*
X030600Y014944D02*
X030600Y015464D01*
X029600Y015464D02*
X029600Y014944D01*
X028600Y014944D02*
X028600Y015464D01*
X027600Y015464D02*
X027600Y014944D01*
X026600Y014944D02*
X026600Y015464D01*
X025600Y015464D02*
X025600Y014944D01*
X023100Y014944D02*
X023100Y015464D01*
X022100Y015464D02*
X022100Y014944D01*
X021100Y014944D02*
X021100Y015464D01*
X020100Y015464D02*
X020100Y014944D01*
X019100Y014944D02*
X019100Y015464D01*
X018100Y015464D02*
X018100Y014944D01*
X017100Y014944D02*
X017100Y015464D01*
X016100Y015464D02*
X016100Y014944D01*
X015100Y014944D02*
X015100Y015464D01*
D12*
X013350Y006704D03*
X012350Y006704D03*
X011350Y006704D03*
X011850Y005704D03*
X012850Y005704D03*
X013850Y005704D03*
X017850Y006704D03*
X018850Y006704D03*
X019850Y006704D03*
X019350Y005704D03*
X020350Y005704D03*
X018350Y005704D03*
X024350Y006704D03*
X025350Y006704D03*
X026350Y006704D03*
X025850Y005704D03*
X024850Y005704D03*
X026850Y005704D03*
X030850Y006704D03*
X031850Y006704D03*
X032850Y006704D03*
X032350Y005704D03*
X033350Y005704D03*
X031350Y005704D03*
X038100Y010954D03*
X039100Y011454D03*
X038100Y011954D03*
X039100Y012454D03*
X038100Y012954D03*
X039100Y013454D03*
X038100Y017454D03*
X039100Y017954D03*
X038100Y018454D03*
X039100Y018954D03*
X038100Y019454D03*
X039100Y019954D03*
X033350Y026204D03*
X032350Y026204D03*
X031350Y026204D03*
X030850Y027204D03*
X031850Y027204D03*
X032850Y027204D03*
X026850Y026204D03*
X025850Y026204D03*
X024850Y026204D03*
X024350Y027204D03*
X025350Y027204D03*
X026350Y027204D03*
X020350Y026204D03*
X019350Y026204D03*
X018350Y026204D03*
X017850Y027204D03*
X018850Y027204D03*
X019850Y027204D03*
X013850Y026204D03*
X012850Y026204D03*
X011850Y026204D03*
X011350Y027204D03*
X012350Y027204D03*
X013350Y027204D03*
D13*
X014600Y029704D03*
X017100Y029704D03*
X021100Y029704D03*
X023600Y029704D03*
X027600Y029704D03*
X030100Y029704D03*
X034100Y029704D03*
X041600Y020704D03*
X041600Y016704D03*
X041600Y014204D03*
X041600Y010204D03*
X034100Y003204D03*
X030100Y003204D03*
X027600Y003204D03*
X023600Y003204D03*
X021100Y003204D03*
X017100Y003204D03*
X014600Y003204D03*
X010600Y003204D03*
X010600Y029704D03*
D14*
X012100Y023704D03*
X013100Y023704D03*
X018600Y023704D03*
X019600Y023704D03*
X025100Y023704D03*
X026100Y023704D03*
X031600Y023704D03*
X032600Y023704D03*
X032600Y009204D03*
X031600Y009204D03*
X026100Y009204D03*
X025100Y009204D03*
X019600Y009204D03*
X018600Y009204D03*
X013100Y009204D03*
X012100Y009204D03*
X008100Y008704D03*
X007100Y008704D03*
X007100Y006704D03*
X008100Y006704D03*
D15*
X025600Y020704D03*
X029600Y020704D03*
D16*
X037706Y023674D02*
X038494Y023674D01*
X038494Y024734D02*
X037706Y024734D01*
X040206Y024734D02*
X040994Y024734D01*
X040994Y023674D02*
X040206Y023674D01*
D17*
X005100Y010775D03*
X000966Y007704D03*
X005100Y004633D03*
D18*
X001754Y004633D03*
X001754Y010775D03*
D19*
X003131Y008688D03*
X004569Y008767D03*
X004569Y006641D03*
X003131Y006720D03*
D20*
X001754Y006720D03*
X001754Y008688D03*
D21*
X037695Y026704D02*
X037695Y027704D01*
X038630Y027704D02*
X038630Y026704D01*
D22*
X038151Y007204D03*
X037049Y007204D03*
X039049Y003704D03*
X040151Y003704D03*
D23*
X037600Y003904D03*
X040600Y006904D03*
D24*
X040600Y005504D03*
X037600Y002504D03*
D25*
X036350Y006454D03*
X030350Y007454D03*
X024850Y011454D03*
X023850Y011454D03*
X025350Y012704D03*
X026100Y014454D03*
X023100Y016454D03*
X024350Y019204D03*
X026600Y021204D03*
X033100Y024704D03*
X032100Y015954D03*
X022850Y008954D03*
X024600Y008204D03*
X018100Y008204D03*
X012850Y012704D03*
X011850Y013954D03*
X011350Y014704D03*
X010350Y014704D03*
X009850Y014704D03*
X008350Y015454D03*
X007850Y015704D03*
X010850Y016204D03*
X012350Y016454D03*
X010850Y018704D03*
X011350Y018954D03*
X010100Y019454D03*
X009600Y018704D03*
X013850Y019204D03*
X019600Y019704D03*
X016600Y025454D03*
X003850Y018204D03*
X003350Y017454D03*
X003850Y014704D03*
X004600Y014704D03*
X016600Y013204D03*
M02*
