G75*
G70*
%OFA0B0*%
%FSLAX24Y24*%
%IPPOS*%
%LPD*%
%AMOC8*
5,1,8,0,0,1.08239X$1,22.5*
%
%ADD10C,0.0010*%
%ADD11R,0.0260X0.0800*%
%ADD12C,0.0520*%
%ADD13C,0.0554*%
%ADD14R,0.0787X0.0630*%
%ADD15OC8,0.0520*%
%ADD16C,0.0660*%
%ADD17C,0.0787*%
%ADD18C,0.1181*%
%ADD19C,0.1266*%
%ADD20R,0.1181X0.1181*%
%ADD21R,0.0630X0.0787*%
%ADD22C,0.1000*%
%ADD23OC8,0.0630*%
%ADD24C,0.0630*%
%ADD25R,0.0709X0.0630*%
%ADD26C,0.0540*%
%ADD27C,0.0400*%
%ADD28C,0.0180*%
%ADD29C,0.0360*%
D10*
X003832Y029944D02*
X003832Y031944D01*
X004632Y031944D01*
X004546Y031707D01*
X004483Y031464D01*
X004445Y031215D01*
X004432Y030964D01*
X004432Y030924D01*
X004445Y030673D01*
X004483Y030424D01*
X004546Y030180D01*
X004632Y029944D01*
X003832Y029944D01*
X003832Y029946D02*
X004631Y029946D01*
X004628Y029955D02*
X003832Y029955D01*
X003832Y029963D02*
X004625Y029963D01*
X004622Y029972D02*
X003832Y029972D01*
X003832Y029980D02*
X004618Y029980D01*
X004615Y029989D02*
X003832Y029989D01*
X003832Y029997D02*
X004612Y029997D01*
X004609Y030006D02*
X003832Y030006D01*
X003832Y030014D02*
X004606Y030014D01*
X004603Y030023D02*
X003832Y030023D01*
X003832Y030031D02*
X004600Y030031D01*
X004597Y030040D02*
X003832Y030040D01*
X003832Y030048D02*
X004594Y030048D01*
X004591Y030057D02*
X003832Y030057D01*
X003832Y030065D02*
X004588Y030065D01*
X004584Y030074D02*
X003832Y030074D01*
X003832Y030082D02*
X004581Y030082D01*
X004578Y030091D02*
X003832Y030091D01*
X003832Y030099D02*
X004575Y030099D01*
X004572Y030108D02*
X003832Y030108D01*
X003832Y030116D02*
X004569Y030116D01*
X004566Y030125D02*
X003832Y030125D01*
X003832Y030133D02*
X004563Y030133D01*
X004560Y030142D02*
X003832Y030142D01*
X003832Y030150D02*
X004557Y030150D01*
X004554Y030159D02*
X003832Y030159D01*
X003832Y030167D02*
X004550Y030167D01*
X004547Y030176D02*
X003832Y030176D01*
X003832Y030184D02*
X004545Y030184D01*
X004543Y030193D02*
X003832Y030193D01*
X003832Y030201D02*
X004540Y030201D01*
X004538Y030210D02*
X003832Y030210D01*
X003832Y030218D02*
X004536Y030218D01*
X004534Y030227D02*
X003832Y030227D01*
X003832Y030235D02*
X004532Y030235D01*
X004529Y030244D02*
X003832Y030244D01*
X003832Y030252D02*
X004527Y030252D01*
X004525Y030261D02*
X003832Y030261D01*
X003832Y030269D02*
X004523Y030269D01*
X004521Y030278D02*
X003832Y030278D01*
X003832Y030286D02*
X004519Y030286D01*
X004516Y030295D02*
X003832Y030295D01*
X003832Y030303D02*
X004514Y030303D01*
X004512Y030312D02*
X003832Y030312D01*
X003832Y030320D02*
X004510Y030320D01*
X004508Y030329D02*
X003832Y030329D01*
X003832Y030337D02*
X004506Y030337D01*
X004503Y030346D02*
X003832Y030346D01*
X003832Y030354D02*
X004501Y030354D01*
X004499Y030363D02*
X003832Y030363D01*
X003832Y030371D02*
X004497Y030371D01*
X004495Y030380D02*
X003832Y030380D01*
X003832Y030388D02*
X004492Y030388D01*
X004490Y030397D02*
X003832Y030397D01*
X003832Y030405D02*
X004488Y030405D01*
X004486Y030414D02*
X003832Y030414D01*
X003832Y030422D02*
X004484Y030422D01*
X004482Y030431D02*
X003832Y030431D01*
X003832Y030439D02*
X004481Y030439D01*
X004480Y030448D02*
X003832Y030448D01*
X003832Y030456D02*
X004478Y030456D01*
X004477Y030465D02*
X003832Y030465D01*
X003832Y030473D02*
X004476Y030473D01*
X004474Y030482D02*
X003832Y030482D01*
X003832Y030490D02*
X004473Y030490D01*
X004472Y030499D02*
X003832Y030499D01*
X003832Y030507D02*
X004471Y030507D01*
X004469Y030516D02*
X003832Y030516D01*
X003832Y030524D02*
X004468Y030524D01*
X004467Y030533D02*
X003832Y030533D01*
X003832Y030541D02*
X004465Y030541D01*
X004464Y030550D02*
X003832Y030550D01*
X003832Y030558D02*
X004463Y030558D01*
X004461Y030567D02*
X003832Y030567D01*
X003832Y030575D02*
X004460Y030575D01*
X004459Y030584D02*
X003832Y030584D01*
X003832Y030592D02*
X004458Y030592D01*
X004456Y030601D02*
X003832Y030601D01*
X003832Y030609D02*
X004455Y030609D01*
X004454Y030618D02*
X003832Y030618D01*
X003832Y030626D02*
X004452Y030626D01*
X004451Y030635D02*
X003832Y030635D01*
X003832Y030643D02*
X004450Y030643D01*
X004448Y030652D02*
X003832Y030652D01*
X003832Y030660D02*
X004447Y030660D01*
X004446Y030669D02*
X003832Y030669D01*
X003832Y030677D02*
X004445Y030677D01*
X004444Y030686D02*
X003832Y030686D01*
X003832Y030694D02*
X004444Y030694D01*
X004444Y030703D02*
X003832Y030703D01*
X003832Y030711D02*
X004443Y030711D01*
X004443Y030720D02*
X003832Y030720D01*
X003832Y030728D02*
X004442Y030728D01*
X004442Y030737D02*
X003832Y030737D01*
X003832Y030745D02*
X004441Y030745D01*
X004441Y030754D02*
X003832Y030754D01*
X003832Y030762D02*
X004440Y030762D01*
X004440Y030771D02*
X003832Y030771D01*
X003832Y030779D02*
X004439Y030779D01*
X004439Y030788D02*
X003832Y030788D01*
X003832Y030796D02*
X004439Y030796D01*
X004438Y030805D02*
X003832Y030805D01*
X003832Y030813D02*
X004438Y030813D01*
X004437Y030822D02*
X003832Y030822D01*
X003832Y030830D02*
X004437Y030830D01*
X004436Y030839D02*
X003832Y030839D01*
X003832Y030847D02*
X004436Y030847D01*
X004435Y030856D02*
X003832Y030856D01*
X003832Y030864D02*
X004435Y030864D01*
X004434Y030873D02*
X003832Y030873D01*
X003832Y030881D02*
X004434Y030881D01*
X004433Y030890D02*
X003832Y030890D01*
X003832Y030898D02*
X004433Y030898D01*
X004433Y030907D02*
X003832Y030907D01*
X003832Y030915D02*
X004432Y030915D01*
X004432Y030924D02*
X003832Y030924D01*
X003832Y030932D02*
X004432Y030932D01*
X004432Y030941D02*
X003832Y030941D01*
X003832Y030949D02*
X004432Y030949D01*
X004432Y030958D02*
X003832Y030958D01*
X003832Y030966D02*
X004432Y030966D01*
X004432Y030975D02*
X003832Y030975D01*
X003832Y030983D02*
X004433Y030983D01*
X004433Y030992D02*
X003832Y030992D01*
X003832Y031000D02*
X004434Y031000D01*
X004434Y031009D02*
X003832Y031009D01*
X003832Y031017D02*
X004435Y031017D01*
X004435Y031026D02*
X003832Y031026D01*
X003832Y031034D02*
X004435Y031034D01*
X004436Y031043D02*
X003832Y031043D01*
X003832Y031051D02*
X004436Y031051D01*
X004437Y031060D02*
X003832Y031060D01*
X003832Y031068D02*
X004437Y031068D01*
X004438Y031077D02*
X003832Y031077D01*
X003832Y031085D02*
X004438Y031085D01*
X004439Y031094D02*
X003832Y031094D01*
X003832Y031102D02*
X004439Y031102D01*
X004440Y031111D02*
X003832Y031111D01*
X003832Y031119D02*
X004440Y031119D01*
X004440Y031128D02*
X003832Y031128D01*
X003832Y031136D02*
X004441Y031136D01*
X004441Y031145D02*
X003832Y031145D01*
X003832Y031153D02*
X004442Y031153D01*
X004442Y031162D02*
X003832Y031162D01*
X003832Y031170D02*
X004443Y031170D01*
X004443Y031179D02*
X003832Y031179D01*
X003832Y031187D02*
X004444Y031187D01*
X004444Y031196D02*
X003832Y031196D01*
X003832Y031204D02*
X004445Y031204D01*
X004445Y031213D02*
X003832Y031213D01*
X003832Y031221D02*
X004446Y031221D01*
X004447Y031230D02*
X003832Y031230D01*
X003832Y031238D02*
X004449Y031238D01*
X004450Y031247D02*
X003832Y031247D01*
X003832Y031255D02*
X004451Y031255D01*
X004453Y031264D02*
X003832Y031264D01*
X003832Y031272D02*
X004454Y031272D01*
X004455Y031281D02*
X003832Y031281D01*
X003832Y031289D02*
X004457Y031289D01*
X004458Y031298D02*
X003832Y031298D01*
X003832Y031306D02*
X004459Y031306D01*
X004460Y031315D02*
X003832Y031315D01*
X003832Y031323D02*
X004462Y031323D01*
X004463Y031332D02*
X003832Y031332D01*
X003832Y031340D02*
X004464Y031340D01*
X004466Y031349D02*
X003832Y031349D01*
X003832Y031357D02*
X004467Y031357D01*
X004468Y031366D02*
X003832Y031366D01*
X003832Y031374D02*
X004470Y031374D01*
X004471Y031383D02*
X003832Y031383D01*
X003832Y031391D02*
X004472Y031391D01*
X004473Y031400D02*
X003832Y031400D01*
X003832Y031408D02*
X004475Y031408D01*
X004476Y031417D02*
X003832Y031417D01*
X003832Y031425D02*
X004477Y031425D01*
X004479Y031434D02*
X003832Y031434D01*
X003832Y031442D02*
X004480Y031442D01*
X004481Y031451D02*
X003832Y031451D01*
X003832Y031459D02*
X004483Y031459D01*
X004484Y031468D02*
X003832Y031468D01*
X003832Y031476D02*
X004486Y031476D01*
X004489Y031485D02*
X003832Y031485D01*
X003832Y031493D02*
X004491Y031493D01*
X004493Y031502D02*
X003832Y031502D01*
X003832Y031510D02*
X004495Y031510D01*
X004497Y031519D02*
X003832Y031519D01*
X003832Y031527D02*
X004500Y031527D01*
X004502Y031536D02*
X003832Y031536D01*
X003832Y031544D02*
X004504Y031544D01*
X004506Y031553D02*
X003832Y031553D01*
X003832Y031561D02*
X004508Y031561D01*
X004510Y031570D02*
X003832Y031570D01*
X003832Y031578D02*
X004513Y031578D01*
X004515Y031587D02*
X003832Y031587D01*
X003832Y031595D02*
X004517Y031595D01*
X004519Y031604D02*
X003832Y031604D01*
X003832Y031612D02*
X004521Y031612D01*
X004523Y031621D02*
X003832Y031621D01*
X003832Y031629D02*
X004526Y031629D01*
X004528Y031638D02*
X003832Y031638D01*
X003832Y031646D02*
X004530Y031646D01*
X004532Y031655D02*
X003832Y031655D01*
X003832Y031663D02*
X004534Y031663D01*
X004537Y031672D02*
X003832Y031672D01*
X003832Y031680D02*
X004539Y031680D01*
X004541Y031689D02*
X003832Y031689D01*
X003832Y031697D02*
X004543Y031697D01*
X004545Y031706D02*
X003832Y031706D01*
X003832Y031714D02*
X004548Y031714D01*
X004551Y031723D02*
X003832Y031723D01*
X003832Y031731D02*
X004554Y031731D01*
X004557Y031740D02*
X003832Y031740D01*
X003832Y031748D02*
X004560Y031748D01*
X004564Y031757D02*
X003832Y031757D01*
X003832Y031765D02*
X004567Y031765D01*
X004570Y031774D02*
X003832Y031774D01*
X003832Y031782D02*
X004573Y031782D01*
X004576Y031791D02*
X003832Y031791D01*
X003832Y031799D02*
X004579Y031799D01*
X004582Y031808D02*
X003832Y031808D01*
X003832Y031816D02*
X004585Y031816D01*
X004588Y031825D02*
X003832Y031825D01*
X003832Y031833D02*
X004591Y031833D01*
X004594Y031842D02*
X003832Y031842D01*
X003832Y031850D02*
X004598Y031850D01*
X004601Y031859D02*
X003832Y031859D01*
X003832Y031867D02*
X004604Y031867D01*
X004607Y031876D02*
X003832Y031876D01*
X003832Y031884D02*
X004610Y031884D01*
X004613Y031893D02*
X003832Y031893D01*
X003832Y031901D02*
X004616Y031901D01*
X004619Y031910D02*
X003832Y031910D01*
X003832Y031918D02*
X004622Y031918D01*
X004625Y031927D02*
X003832Y031927D01*
X003832Y031935D02*
X004628Y031935D01*
X004632Y031944D02*
X003832Y031944D01*
X004789Y031680D02*
X005000Y031680D01*
X004997Y031672D02*
X004787Y031672D01*
X004785Y031663D02*
X004994Y031663D01*
X004992Y031655D02*
X004782Y031655D01*
X004780Y031646D02*
X004989Y031646D01*
X004986Y031638D02*
X004778Y031638D01*
X004775Y031629D02*
X004983Y031629D01*
X004981Y031621D02*
X004773Y031621D01*
X004771Y031612D02*
X004978Y031612D01*
X004975Y031604D02*
X004768Y031604D01*
X004766Y031595D02*
X004972Y031595D01*
X004969Y031587D02*
X004764Y031587D01*
X004761Y031578D02*
X004967Y031578D01*
X004964Y031570D02*
X004759Y031570D01*
X004756Y031561D02*
X004961Y031561D01*
X004958Y031553D02*
X004754Y031553D01*
X004752Y031544D02*
X004956Y031544D01*
X004953Y031536D02*
X004749Y031536D01*
X004747Y031527D02*
X004950Y031527D01*
X004947Y031519D02*
X004745Y031519D01*
X004742Y031510D02*
X004945Y031510D01*
X004944Y031507D02*
X004895Y031277D01*
X004872Y031044D01*
X005072Y031044D01*
X005072Y030844D01*
X004872Y030844D01*
X004895Y030611D01*
X004944Y030381D01*
X005016Y030158D01*
X005112Y029944D01*
X004891Y029944D01*
X004798Y030179D01*
X004730Y030422D01*
X004935Y030422D01*
X004937Y030414D02*
X004732Y030414D01*
X004730Y030422D02*
X004688Y030671D01*
X004672Y030924D01*
X004672Y030944D01*
X004686Y031201D01*
X004727Y031456D01*
X004796Y031704D01*
X004891Y031944D01*
X005112Y031944D01*
X005016Y031730D01*
X004944Y031507D01*
X004942Y031502D02*
X004740Y031502D01*
X004738Y031493D02*
X004941Y031493D01*
X004939Y031485D02*
X004735Y031485D01*
X004733Y031476D02*
X004937Y031476D01*
X004935Y031468D02*
X004731Y031468D01*
X004728Y031459D02*
X004934Y031459D01*
X004932Y031451D02*
X004726Y031451D01*
X004725Y031442D02*
X004930Y031442D01*
X004928Y031434D02*
X004724Y031434D01*
X004722Y031425D02*
X004926Y031425D01*
X004925Y031417D02*
X004721Y031417D01*
X004719Y031408D02*
X004923Y031408D01*
X004921Y031400D02*
X004718Y031400D01*
X004717Y031391D02*
X004919Y031391D01*
X004917Y031383D02*
X004715Y031383D01*
X004714Y031374D02*
X004916Y031374D01*
X004914Y031366D02*
X004713Y031366D01*
X004711Y031357D02*
X004912Y031357D01*
X004910Y031349D02*
X004710Y031349D01*
X004708Y031340D02*
X004909Y031340D01*
X004907Y031332D02*
X004707Y031332D01*
X004706Y031323D02*
X004905Y031323D01*
X004903Y031315D02*
X004704Y031315D01*
X004703Y031306D02*
X004901Y031306D01*
X004900Y031298D02*
X004701Y031298D01*
X004700Y031289D02*
X004898Y031289D01*
X004896Y031281D02*
X004699Y031281D01*
X004697Y031272D02*
X004895Y031272D01*
X004894Y031264D02*
X004696Y031264D01*
X004694Y031255D02*
X004893Y031255D01*
X004892Y031247D02*
X004693Y031247D01*
X004692Y031238D02*
X004891Y031238D01*
X004891Y031230D02*
X004690Y031230D01*
X004689Y031221D02*
X004890Y031221D01*
X004889Y031213D02*
X004687Y031213D01*
X004686Y031204D02*
X004888Y031204D01*
X004887Y031196D02*
X004685Y031196D01*
X004685Y031187D02*
X004886Y031187D01*
X004885Y031179D02*
X004684Y031179D01*
X004684Y031170D02*
X004885Y031170D01*
X004884Y031162D02*
X004684Y031162D01*
X004683Y031153D02*
X004883Y031153D01*
X004882Y031145D02*
X004683Y031145D01*
X004682Y031136D02*
X004881Y031136D01*
X004880Y031128D02*
X004682Y031128D01*
X004681Y031119D02*
X004879Y031119D01*
X004879Y031111D02*
X004681Y031111D01*
X004680Y031102D02*
X004878Y031102D01*
X004877Y031094D02*
X004680Y031094D01*
X004679Y031085D02*
X004876Y031085D01*
X004875Y031077D02*
X004679Y031077D01*
X004678Y031068D02*
X004874Y031068D01*
X004873Y031060D02*
X004678Y031060D01*
X004678Y031051D02*
X004873Y031051D01*
X004677Y031043D02*
X005072Y031043D01*
X005072Y031034D02*
X004677Y031034D01*
X004676Y031026D02*
X005072Y031026D01*
X005072Y031017D02*
X004676Y031017D01*
X004675Y031009D02*
X005072Y031009D01*
X005072Y031000D02*
X004675Y031000D01*
X004674Y030992D02*
X005072Y030992D01*
X005072Y030983D02*
X004674Y030983D01*
X004673Y030975D02*
X005072Y030975D01*
X005072Y030966D02*
X004673Y030966D01*
X004673Y030958D02*
X005072Y030958D01*
X005072Y030949D02*
X004672Y030949D01*
X004672Y030941D02*
X005072Y030941D01*
X005072Y030932D02*
X004672Y030932D01*
X004672Y030924D02*
X005072Y030924D01*
X005072Y030915D02*
X004672Y030915D01*
X004673Y030907D02*
X005072Y030907D01*
X005072Y030898D02*
X004673Y030898D01*
X004674Y030890D02*
X005072Y030890D01*
X005072Y030881D02*
X004674Y030881D01*
X004675Y030873D02*
X005072Y030873D01*
X005072Y030864D02*
X004676Y030864D01*
X004676Y030856D02*
X005072Y030856D01*
X005072Y030847D02*
X004677Y030847D01*
X004677Y030839D02*
X004872Y030839D01*
X004873Y030830D02*
X004678Y030830D01*
X004678Y030822D02*
X004874Y030822D01*
X004875Y030813D02*
X004679Y030813D01*
X004679Y030805D02*
X004876Y030805D01*
X004877Y030796D02*
X004680Y030796D01*
X004680Y030788D02*
X004877Y030788D01*
X004878Y030779D02*
X004681Y030779D01*
X004681Y030771D02*
X004879Y030771D01*
X004880Y030762D02*
X004682Y030762D01*
X004682Y030754D02*
X004881Y030754D01*
X004882Y030745D02*
X004683Y030745D01*
X004684Y030737D02*
X004883Y030737D01*
X004883Y030728D02*
X004684Y030728D01*
X004685Y030720D02*
X004884Y030720D01*
X004885Y030711D02*
X004685Y030711D01*
X004686Y030703D02*
X004886Y030703D01*
X004887Y030694D02*
X004686Y030694D01*
X004687Y030686D02*
X004888Y030686D01*
X004889Y030677D02*
X004687Y030677D01*
X004688Y030669D02*
X004889Y030669D01*
X004890Y030660D02*
X004690Y030660D01*
X004691Y030652D02*
X004891Y030652D01*
X004892Y030643D02*
X004692Y030643D01*
X004694Y030635D02*
X004893Y030635D01*
X004894Y030626D02*
X004695Y030626D01*
X004697Y030618D02*
X004895Y030618D01*
X004896Y030609D02*
X004698Y030609D01*
X004700Y030601D02*
X004897Y030601D01*
X004899Y030592D02*
X004701Y030592D01*
X004702Y030584D02*
X004901Y030584D01*
X004903Y030575D02*
X004704Y030575D01*
X004705Y030567D02*
X004905Y030567D01*
X004906Y030558D02*
X004707Y030558D01*
X004708Y030550D02*
X004908Y030550D01*
X004910Y030541D02*
X004710Y030541D01*
X004711Y030533D02*
X004912Y030533D01*
X004913Y030524D02*
X004713Y030524D01*
X004714Y030516D02*
X004915Y030516D01*
X004917Y030507D02*
X004715Y030507D01*
X004717Y030499D02*
X004919Y030499D01*
X004921Y030490D02*
X004718Y030490D01*
X004720Y030482D02*
X004922Y030482D01*
X004924Y030473D02*
X004721Y030473D01*
X004723Y030465D02*
X004926Y030465D01*
X004928Y030456D02*
X004724Y030456D01*
X004726Y030448D02*
X004930Y030448D01*
X004931Y030439D02*
X004727Y030439D01*
X004728Y030431D02*
X004933Y030431D01*
X004938Y030405D02*
X004735Y030405D01*
X004737Y030397D02*
X004940Y030397D01*
X004942Y030388D02*
X004739Y030388D01*
X004742Y030380D02*
X004944Y030380D01*
X004947Y030371D02*
X004744Y030371D01*
X004747Y030363D02*
X004950Y030363D01*
X004952Y030354D02*
X004749Y030354D01*
X004751Y030346D02*
X004955Y030346D01*
X004958Y030337D02*
X004754Y030337D01*
X004756Y030329D02*
X004961Y030329D01*
X004963Y030320D02*
X004758Y030320D01*
X004761Y030312D02*
X004966Y030312D01*
X004969Y030303D02*
X004763Y030303D01*
X004766Y030295D02*
X004972Y030295D01*
X004974Y030286D02*
X004768Y030286D01*
X004770Y030278D02*
X004977Y030278D01*
X004980Y030269D02*
X004773Y030269D01*
X004775Y030261D02*
X004983Y030261D01*
X004985Y030252D02*
X004777Y030252D01*
X004780Y030244D02*
X004988Y030244D01*
X004991Y030235D02*
X004782Y030235D01*
X004785Y030227D02*
X004994Y030227D01*
X004996Y030218D02*
X004787Y030218D01*
X004789Y030210D02*
X004999Y030210D01*
X005002Y030201D02*
X004792Y030201D01*
X004794Y030193D02*
X005005Y030193D01*
X005007Y030184D02*
X004797Y030184D01*
X004799Y030176D02*
X005010Y030176D01*
X005013Y030167D02*
X004803Y030167D01*
X004806Y030159D02*
X005016Y030159D01*
X005019Y030150D02*
X004809Y030150D01*
X004813Y030142D02*
X005023Y030142D01*
X005027Y030133D02*
X004816Y030133D01*
X004820Y030125D02*
X005031Y030125D01*
X005035Y030116D02*
X004823Y030116D01*
X004826Y030108D02*
X005038Y030108D01*
X005042Y030099D02*
X004830Y030099D01*
X004833Y030091D02*
X005046Y030091D01*
X005050Y030082D02*
X004836Y030082D01*
X004840Y030074D02*
X005054Y030074D01*
X005057Y030065D02*
X004843Y030065D01*
X004847Y030057D02*
X005061Y030057D01*
X005065Y030048D02*
X004850Y030048D01*
X004853Y030040D02*
X005069Y030040D01*
X005073Y030031D02*
X004857Y030031D01*
X004860Y030023D02*
X005076Y030023D01*
X005080Y030014D02*
X004864Y030014D01*
X004867Y030006D02*
X005084Y030006D01*
X005088Y029997D02*
X004870Y029997D01*
X004874Y029989D02*
X005092Y029989D01*
X005095Y029980D02*
X004877Y029980D01*
X004880Y029972D02*
X005099Y029972D01*
X005103Y029963D02*
X004884Y029963D01*
X004887Y029955D02*
X005107Y029955D01*
X005111Y029946D02*
X004891Y029946D01*
X005272Y029946D02*
X005472Y029946D01*
X005472Y029944D02*
X005272Y029944D01*
X005272Y031944D01*
X005472Y031944D01*
X005472Y029944D01*
X005472Y029955D02*
X005272Y029955D01*
X005272Y029963D02*
X005472Y029963D01*
X005472Y029972D02*
X005272Y029972D01*
X005272Y029980D02*
X005472Y029980D01*
X005472Y029989D02*
X005272Y029989D01*
X005272Y029997D02*
X005472Y029997D01*
X005472Y030006D02*
X005272Y030006D01*
X005272Y030014D02*
X005472Y030014D01*
X005472Y030023D02*
X005272Y030023D01*
X005272Y030031D02*
X005472Y030031D01*
X005472Y030040D02*
X005272Y030040D01*
X005272Y030048D02*
X005472Y030048D01*
X005472Y030057D02*
X005272Y030057D01*
X005272Y030065D02*
X005472Y030065D01*
X005472Y030074D02*
X005272Y030074D01*
X005272Y030082D02*
X005472Y030082D01*
X005472Y030091D02*
X005272Y030091D01*
X005272Y030099D02*
X005472Y030099D01*
X005472Y030108D02*
X005272Y030108D01*
X005272Y030116D02*
X005472Y030116D01*
X005472Y030125D02*
X005272Y030125D01*
X005272Y030133D02*
X005472Y030133D01*
X005472Y030142D02*
X005272Y030142D01*
X005272Y030150D02*
X005472Y030150D01*
X005472Y030159D02*
X005272Y030159D01*
X005272Y030167D02*
X005472Y030167D01*
X005472Y030176D02*
X005272Y030176D01*
X005272Y030184D02*
X005472Y030184D01*
X005472Y030193D02*
X005272Y030193D01*
X005272Y030201D02*
X005472Y030201D01*
X005472Y030210D02*
X005272Y030210D01*
X005272Y030218D02*
X005472Y030218D01*
X005472Y030227D02*
X005272Y030227D01*
X005272Y030235D02*
X005472Y030235D01*
X005472Y030244D02*
X005272Y030244D01*
X005272Y030252D02*
X005472Y030252D01*
X005472Y030261D02*
X005272Y030261D01*
X005272Y030269D02*
X005472Y030269D01*
X005472Y030278D02*
X005272Y030278D01*
X005272Y030286D02*
X005472Y030286D01*
X005472Y030295D02*
X005272Y030295D01*
X005272Y030303D02*
X005472Y030303D01*
X005472Y030312D02*
X005272Y030312D01*
X005272Y030320D02*
X005472Y030320D01*
X005472Y030329D02*
X005272Y030329D01*
X005272Y030337D02*
X005472Y030337D01*
X005472Y030346D02*
X005272Y030346D01*
X005272Y030354D02*
X005472Y030354D01*
X005472Y030363D02*
X005272Y030363D01*
X005272Y030371D02*
X005472Y030371D01*
X005472Y030380D02*
X005272Y030380D01*
X005272Y030388D02*
X005472Y030388D01*
X005472Y030397D02*
X005272Y030397D01*
X005272Y030405D02*
X005472Y030405D01*
X005472Y030414D02*
X005272Y030414D01*
X005272Y030422D02*
X005472Y030422D01*
X005472Y030431D02*
X005272Y030431D01*
X005272Y030439D02*
X005472Y030439D01*
X005472Y030448D02*
X005272Y030448D01*
X005272Y030456D02*
X005472Y030456D01*
X005472Y030465D02*
X005272Y030465D01*
X005272Y030473D02*
X005472Y030473D01*
X005472Y030482D02*
X005272Y030482D01*
X005272Y030490D02*
X005472Y030490D01*
X005472Y030499D02*
X005272Y030499D01*
X005272Y030507D02*
X005472Y030507D01*
X005472Y030516D02*
X005272Y030516D01*
X005272Y030524D02*
X005472Y030524D01*
X005472Y030533D02*
X005272Y030533D01*
X005272Y030541D02*
X005472Y030541D01*
X005472Y030550D02*
X005272Y030550D01*
X005272Y030558D02*
X005472Y030558D01*
X005472Y030567D02*
X005272Y030567D01*
X005272Y030575D02*
X005472Y030575D01*
X005472Y030584D02*
X005272Y030584D01*
X005272Y030592D02*
X005472Y030592D01*
X005472Y030601D02*
X005272Y030601D01*
X005272Y030609D02*
X005472Y030609D01*
X005472Y030618D02*
X005272Y030618D01*
X005272Y030626D02*
X005472Y030626D01*
X005472Y030635D02*
X005272Y030635D01*
X005272Y030643D02*
X005472Y030643D01*
X005472Y030652D02*
X005272Y030652D01*
X005272Y030660D02*
X005472Y030660D01*
X005472Y030669D02*
X005272Y030669D01*
X005272Y030677D02*
X005472Y030677D01*
X005472Y030686D02*
X005272Y030686D01*
X005272Y030694D02*
X005472Y030694D01*
X005472Y030703D02*
X005272Y030703D01*
X005272Y030711D02*
X005472Y030711D01*
X005472Y030720D02*
X005272Y030720D01*
X005272Y030728D02*
X005472Y030728D01*
X005472Y030737D02*
X005272Y030737D01*
X005272Y030745D02*
X005472Y030745D01*
X005472Y030754D02*
X005272Y030754D01*
X005272Y030762D02*
X005472Y030762D01*
X005472Y030771D02*
X005272Y030771D01*
X005272Y030779D02*
X005472Y030779D01*
X005472Y030788D02*
X005272Y030788D01*
X005272Y030796D02*
X005472Y030796D01*
X005472Y030805D02*
X005272Y030805D01*
X005272Y030813D02*
X005472Y030813D01*
X005472Y030822D02*
X005272Y030822D01*
X005272Y030830D02*
X005472Y030830D01*
X005472Y030839D02*
X005272Y030839D01*
X005272Y030847D02*
X005472Y030847D01*
X005472Y030856D02*
X005272Y030856D01*
X005272Y030864D02*
X005472Y030864D01*
X005472Y030873D02*
X005272Y030873D01*
X005272Y030881D02*
X005472Y030881D01*
X005472Y030890D02*
X005272Y030890D01*
X005272Y030898D02*
X005472Y030898D01*
X005472Y030907D02*
X005272Y030907D01*
X005272Y030915D02*
X005472Y030915D01*
X005472Y030924D02*
X005272Y030924D01*
X005272Y030932D02*
X005472Y030932D01*
X005472Y030941D02*
X005272Y030941D01*
X005272Y030949D02*
X005472Y030949D01*
X005472Y030958D02*
X005272Y030958D01*
X005272Y030966D02*
X005472Y030966D01*
X005472Y030975D02*
X005272Y030975D01*
X005272Y030983D02*
X005472Y030983D01*
X005472Y030992D02*
X005272Y030992D01*
X005272Y031000D02*
X005472Y031000D01*
X005472Y031009D02*
X005272Y031009D01*
X005272Y031017D02*
X005472Y031017D01*
X005472Y031026D02*
X005272Y031026D01*
X005272Y031034D02*
X005472Y031034D01*
X005472Y031043D02*
X005272Y031043D01*
X005272Y031051D02*
X005472Y031051D01*
X005472Y031060D02*
X005272Y031060D01*
X005272Y031068D02*
X005472Y031068D01*
X005472Y031077D02*
X005272Y031077D01*
X005272Y031085D02*
X005472Y031085D01*
X005472Y031094D02*
X005272Y031094D01*
X005272Y031102D02*
X005472Y031102D01*
X005472Y031111D02*
X005272Y031111D01*
X005272Y031119D02*
X005472Y031119D01*
X005472Y031128D02*
X005272Y031128D01*
X005272Y031136D02*
X005472Y031136D01*
X005472Y031145D02*
X005272Y031145D01*
X005272Y031153D02*
X005472Y031153D01*
X005472Y031162D02*
X005272Y031162D01*
X005272Y031170D02*
X005472Y031170D01*
X005472Y031179D02*
X005272Y031179D01*
X005272Y031187D02*
X005472Y031187D01*
X005472Y031196D02*
X005272Y031196D01*
X005272Y031204D02*
X005472Y031204D01*
X005472Y031213D02*
X005272Y031213D01*
X005272Y031221D02*
X005472Y031221D01*
X005472Y031230D02*
X005272Y031230D01*
X005272Y031238D02*
X005472Y031238D01*
X005472Y031247D02*
X005272Y031247D01*
X005272Y031255D02*
X005472Y031255D01*
X005472Y031264D02*
X005272Y031264D01*
X005272Y031272D02*
X005472Y031272D01*
X005472Y031281D02*
X005272Y031281D01*
X005272Y031289D02*
X005472Y031289D01*
X005472Y031298D02*
X005272Y031298D01*
X005272Y031306D02*
X005472Y031306D01*
X005472Y031315D02*
X005272Y031315D01*
X005272Y031323D02*
X005472Y031323D01*
X005472Y031332D02*
X005272Y031332D01*
X005272Y031340D02*
X005472Y031340D01*
X005472Y031349D02*
X005272Y031349D01*
X005272Y031357D02*
X005472Y031357D01*
X005472Y031366D02*
X005272Y031366D01*
X005272Y031374D02*
X005472Y031374D01*
X005472Y031383D02*
X005272Y031383D01*
X005272Y031391D02*
X005472Y031391D01*
X005472Y031400D02*
X005272Y031400D01*
X005272Y031408D02*
X005472Y031408D01*
X005472Y031417D02*
X005272Y031417D01*
X005272Y031425D02*
X005472Y031425D01*
X005472Y031434D02*
X005272Y031434D01*
X005272Y031442D02*
X005472Y031442D01*
X005472Y031451D02*
X005272Y031451D01*
X005272Y031459D02*
X005472Y031459D01*
X005472Y031468D02*
X005272Y031468D01*
X005272Y031476D02*
X005472Y031476D01*
X005472Y031485D02*
X005272Y031485D01*
X005272Y031493D02*
X005472Y031493D01*
X005472Y031502D02*
X005272Y031502D01*
X005272Y031510D02*
X005472Y031510D01*
X005472Y031519D02*
X005272Y031519D01*
X005272Y031527D02*
X005472Y031527D01*
X005472Y031536D02*
X005272Y031536D01*
X005272Y031544D02*
X005472Y031544D01*
X005472Y031553D02*
X005272Y031553D01*
X005272Y031561D02*
X005472Y031561D01*
X005472Y031570D02*
X005272Y031570D01*
X005272Y031578D02*
X005472Y031578D01*
X005472Y031587D02*
X005272Y031587D01*
X005272Y031595D02*
X005472Y031595D01*
X005472Y031604D02*
X005272Y031604D01*
X005272Y031612D02*
X005472Y031612D01*
X005472Y031621D02*
X005272Y031621D01*
X005272Y031629D02*
X005472Y031629D01*
X005472Y031638D02*
X005272Y031638D01*
X005272Y031646D02*
X005472Y031646D01*
X005472Y031655D02*
X005272Y031655D01*
X005272Y031663D02*
X005472Y031663D01*
X005472Y031672D02*
X005272Y031672D01*
X005272Y031680D02*
X005472Y031680D01*
X005472Y031689D02*
X005272Y031689D01*
X005272Y031697D02*
X005472Y031697D01*
X005472Y031706D02*
X005272Y031706D01*
X005272Y031714D02*
X005472Y031714D01*
X005472Y031723D02*
X005272Y031723D01*
X005272Y031731D02*
X005472Y031731D01*
X005472Y031740D02*
X005272Y031740D01*
X005272Y031748D02*
X005472Y031748D01*
X005472Y031757D02*
X005272Y031757D01*
X005272Y031765D02*
X005472Y031765D01*
X005472Y031774D02*
X005272Y031774D01*
X005272Y031782D02*
X005472Y031782D01*
X005472Y031791D02*
X005272Y031791D01*
X005272Y031799D02*
X005472Y031799D01*
X005472Y031808D02*
X005272Y031808D01*
X005272Y031816D02*
X005472Y031816D01*
X005472Y031825D02*
X005272Y031825D01*
X005272Y031833D02*
X005472Y031833D01*
X005472Y031842D02*
X005272Y031842D01*
X005272Y031850D02*
X005472Y031850D01*
X005472Y031859D02*
X005272Y031859D01*
X005272Y031867D02*
X005472Y031867D01*
X005472Y031876D02*
X005272Y031876D01*
X005272Y031884D02*
X005472Y031884D01*
X005472Y031893D02*
X005272Y031893D01*
X005272Y031901D02*
X005472Y031901D01*
X005472Y031910D02*
X005272Y031910D01*
X005272Y031918D02*
X005472Y031918D01*
X005472Y031927D02*
X005272Y031927D01*
X005272Y031935D02*
X005472Y031935D01*
X005472Y031944D02*
X005272Y031944D01*
X005111Y031944D02*
X004891Y031944D01*
X004888Y031935D02*
X005108Y031935D01*
X005104Y031927D02*
X004885Y031927D01*
X004881Y031918D02*
X005100Y031918D01*
X005096Y031910D02*
X004878Y031910D01*
X004874Y031901D02*
X005092Y031901D01*
X005089Y031893D02*
X004871Y031893D01*
X004868Y031884D02*
X005085Y031884D01*
X005081Y031876D02*
X004864Y031876D01*
X004861Y031867D02*
X005077Y031867D01*
X005074Y031859D02*
X004858Y031859D01*
X004854Y031850D02*
X005070Y031850D01*
X005066Y031842D02*
X004851Y031842D01*
X004847Y031833D02*
X005062Y031833D01*
X005058Y031825D02*
X004844Y031825D01*
X004841Y031816D02*
X005055Y031816D01*
X005051Y031808D02*
X004837Y031808D01*
X004834Y031799D02*
X005047Y031799D01*
X005043Y031791D02*
X004831Y031791D01*
X004827Y031782D02*
X005039Y031782D01*
X005036Y031774D02*
X004824Y031774D01*
X004820Y031765D02*
X005032Y031765D01*
X005028Y031757D02*
X004817Y031757D01*
X004814Y031748D02*
X005024Y031748D01*
X005020Y031740D02*
X004810Y031740D01*
X004807Y031731D02*
X005017Y031731D01*
X005014Y031723D02*
X004803Y031723D01*
X004800Y031714D02*
X005011Y031714D01*
X005008Y031706D02*
X004797Y031706D01*
X004794Y031697D02*
X005005Y031697D01*
X005003Y031689D02*
X004792Y031689D01*
X005572Y031884D02*
X005572Y031944D01*
X005712Y031944D01*
X005771Y031827D01*
X005815Y031703D01*
X005842Y031575D01*
X005852Y031444D01*
X005842Y031313D01*
X005815Y031185D01*
X005771Y031061D01*
X005712Y030944D01*
X005582Y030944D01*
X005582Y031014D01*
X005629Y031110D01*
X005663Y031212D01*
X005684Y031317D01*
X005691Y031424D01*
X005691Y031464D01*
X005683Y031574D01*
X005659Y031682D01*
X005622Y031786D01*
X005572Y031884D01*
X005742Y031884D01*
X005746Y031876D02*
X005576Y031876D01*
X005580Y031867D02*
X005751Y031867D01*
X005755Y031859D02*
X005585Y031859D01*
X005589Y031850D02*
X005759Y031850D01*
X005764Y031842D02*
X005594Y031842D01*
X005598Y031833D02*
X005768Y031833D01*
X005772Y031825D02*
X005602Y031825D01*
X005607Y031816D02*
X005775Y031816D01*
X005778Y031808D02*
X005611Y031808D01*
X005615Y031799D02*
X005781Y031799D01*
X005784Y031791D02*
X005620Y031791D01*
X005624Y031782D02*
X005787Y031782D01*
X005790Y031774D02*
X005627Y031774D01*
X005630Y031765D02*
X005793Y031765D01*
X005796Y031757D02*
X005633Y031757D01*
X005636Y031748D02*
X005799Y031748D01*
X005802Y031740D02*
X005639Y031740D01*
X005642Y031731D02*
X005805Y031731D01*
X005808Y031723D02*
X005645Y031723D01*
X005648Y031714D02*
X005811Y031714D01*
X005814Y031706D02*
X005651Y031706D01*
X005654Y031697D02*
X005816Y031697D01*
X005818Y031689D02*
X005657Y031689D01*
X005660Y031680D02*
X005820Y031680D01*
X005821Y031672D02*
X005662Y031672D01*
X005663Y031663D02*
X005823Y031663D01*
X005825Y031655D02*
X005665Y031655D01*
X005667Y031646D02*
X005827Y031646D01*
X005828Y031638D02*
X005669Y031638D01*
X005671Y031629D02*
X005830Y031629D01*
X005832Y031621D02*
X005673Y031621D01*
X005674Y031612D02*
X005834Y031612D01*
X005836Y031604D02*
X005676Y031604D01*
X005678Y031595D02*
X005837Y031595D01*
X005839Y031587D02*
X005680Y031587D01*
X005682Y031578D02*
X005841Y031578D01*
X005842Y031570D02*
X005683Y031570D01*
X005684Y031561D02*
X005843Y031561D01*
X005843Y031553D02*
X005684Y031553D01*
X005685Y031544D02*
X005844Y031544D01*
X005845Y031536D02*
X005686Y031536D01*
X005686Y031527D02*
X005845Y031527D01*
X005846Y031519D02*
X005687Y031519D01*
X005688Y031510D02*
X005847Y031510D01*
X005847Y031502D02*
X005688Y031502D01*
X005689Y031493D02*
X005848Y031493D01*
X005849Y031485D02*
X005690Y031485D01*
X005691Y031476D02*
X005849Y031476D01*
X005850Y031468D02*
X005691Y031468D01*
X005691Y031459D02*
X005851Y031459D01*
X005851Y031451D02*
X005691Y031451D01*
X005691Y031442D02*
X005852Y031442D01*
X005851Y031434D02*
X005691Y031434D01*
X005691Y031425D02*
X005850Y031425D01*
X005850Y031417D02*
X005691Y031417D01*
X005690Y031408D02*
X005849Y031408D01*
X005848Y031400D02*
X005690Y031400D01*
X005689Y031391D02*
X005848Y031391D01*
X005847Y031383D02*
X005689Y031383D01*
X005688Y031374D02*
X005846Y031374D01*
X005846Y031366D02*
X005687Y031366D01*
X005687Y031357D02*
X005845Y031357D01*
X005844Y031349D02*
X005686Y031349D01*
X005686Y031340D02*
X005844Y031340D01*
X005843Y031332D02*
X005685Y031332D01*
X005684Y031323D02*
X005843Y031323D01*
X005842Y031315D02*
X005683Y031315D01*
X005682Y031306D02*
X005840Y031306D01*
X005838Y031298D02*
X005680Y031298D01*
X005678Y031289D02*
X005837Y031289D01*
X005835Y031281D02*
X005677Y031281D01*
X005675Y031272D02*
X005833Y031272D01*
X005831Y031264D02*
X005673Y031264D01*
X005672Y031255D02*
X005830Y031255D01*
X005828Y031247D02*
X005670Y031247D01*
X005668Y031238D02*
X005826Y031238D01*
X005824Y031230D02*
X005666Y031230D01*
X005665Y031221D02*
X005822Y031221D01*
X005821Y031213D02*
X005663Y031213D01*
X005660Y031204D02*
X005819Y031204D01*
X005817Y031196D02*
X005657Y031196D01*
X005655Y031187D02*
X005815Y031187D01*
X005813Y031179D02*
X005652Y031179D01*
X005649Y031170D02*
X005810Y031170D01*
X005807Y031162D02*
X005646Y031162D01*
X005643Y031153D02*
X005804Y031153D01*
X005801Y031145D02*
X005640Y031145D01*
X005637Y031136D02*
X005798Y031136D01*
X005795Y031128D02*
X005634Y031128D01*
X005632Y031119D02*
X005792Y031119D01*
X005789Y031111D02*
X005629Y031111D01*
X005625Y031102D02*
X005786Y031102D01*
X005783Y031094D02*
X005620Y031094D01*
X005616Y031085D02*
X005780Y031085D01*
X005777Y031077D02*
X005612Y031077D01*
X005608Y031068D02*
X005774Y031068D01*
X005770Y031060D02*
X005604Y031060D01*
X005600Y031051D02*
X005766Y031051D01*
X005762Y031043D02*
X005596Y031043D01*
X005591Y031034D02*
X005757Y031034D01*
X005753Y031026D02*
X005587Y031026D01*
X005583Y031017D02*
X005749Y031017D01*
X005745Y031009D02*
X005582Y031009D01*
X005582Y031000D02*
X005740Y031000D01*
X005736Y030992D02*
X005582Y030992D01*
X005582Y030983D02*
X005732Y030983D01*
X005727Y030975D02*
X005582Y030975D01*
X005582Y030966D02*
X005723Y030966D01*
X005719Y030958D02*
X005582Y030958D01*
X005582Y030949D02*
X005714Y030949D01*
X005972Y030944D02*
X005986Y031201D01*
X006027Y031456D01*
X006096Y031704D01*
X006191Y031944D01*
X006412Y031944D01*
X006316Y031730D01*
X006244Y031507D01*
X006195Y031277D01*
X006172Y031044D01*
X006372Y031044D01*
X006372Y030844D01*
X006172Y030844D01*
X006172Y029944D01*
X005972Y029944D01*
X005972Y030944D01*
X005972Y030941D02*
X006372Y030941D01*
X006372Y030949D02*
X005972Y030949D01*
X005973Y030958D02*
X006372Y030958D01*
X006372Y030966D02*
X005973Y030966D01*
X005973Y030975D02*
X006372Y030975D01*
X006372Y030983D02*
X005974Y030983D01*
X005974Y030992D02*
X006372Y030992D01*
X006372Y031000D02*
X005975Y031000D01*
X005975Y031009D02*
X006372Y031009D01*
X006372Y031017D02*
X005976Y031017D01*
X005976Y031026D02*
X006372Y031026D01*
X006372Y031034D02*
X005977Y031034D01*
X005977Y031043D02*
X006372Y031043D01*
X006372Y030932D02*
X005972Y030932D01*
X005972Y030924D02*
X006372Y030924D01*
X006372Y030915D02*
X005972Y030915D01*
X005972Y030907D02*
X006372Y030907D01*
X006372Y030898D02*
X005972Y030898D01*
X005972Y030890D02*
X006372Y030890D01*
X006372Y030881D02*
X005972Y030881D01*
X005972Y030873D02*
X006372Y030873D01*
X006372Y030864D02*
X005972Y030864D01*
X005972Y030856D02*
X006372Y030856D01*
X006372Y030847D02*
X005972Y030847D01*
X005972Y030839D02*
X006172Y030839D01*
X006172Y030830D02*
X005972Y030830D01*
X005972Y030822D02*
X006172Y030822D01*
X006172Y030813D02*
X005972Y030813D01*
X005972Y030805D02*
X006172Y030805D01*
X006172Y030796D02*
X005972Y030796D01*
X005972Y030788D02*
X006172Y030788D01*
X006172Y030779D02*
X005972Y030779D01*
X005972Y030771D02*
X006172Y030771D01*
X006172Y030762D02*
X005972Y030762D01*
X005972Y030754D02*
X006172Y030754D01*
X006172Y030745D02*
X005972Y030745D01*
X005972Y030737D02*
X006172Y030737D01*
X006172Y030728D02*
X005972Y030728D01*
X005972Y030720D02*
X006172Y030720D01*
X006172Y030711D02*
X005972Y030711D01*
X005972Y030703D02*
X006172Y030703D01*
X006172Y030694D02*
X005972Y030694D01*
X005972Y030686D02*
X006172Y030686D01*
X006172Y030677D02*
X005972Y030677D01*
X005972Y030669D02*
X006172Y030669D01*
X006172Y030660D02*
X005972Y030660D01*
X005972Y030652D02*
X006172Y030652D01*
X006172Y030643D02*
X005972Y030643D01*
X005972Y030635D02*
X006172Y030635D01*
X006172Y030626D02*
X005972Y030626D01*
X005972Y030618D02*
X006172Y030618D01*
X006172Y030609D02*
X005972Y030609D01*
X005972Y030601D02*
X006172Y030601D01*
X006172Y030592D02*
X005972Y030592D01*
X005972Y030584D02*
X006172Y030584D01*
X006172Y030575D02*
X005972Y030575D01*
X005972Y030567D02*
X006172Y030567D01*
X006172Y030558D02*
X005972Y030558D01*
X005972Y030550D02*
X006172Y030550D01*
X006172Y030541D02*
X005972Y030541D01*
X005972Y030533D02*
X006172Y030533D01*
X006172Y030524D02*
X005972Y030524D01*
X005972Y030516D02*
X006172Y030516D01*
X006172Y030507D02*
X005972Y030507D01*
X005972Y030499D02*
X006172Y030499D01*
X006172Y030490D02*
X005972Y030490D01*
X005972Y030482D02*
X006172Y030482D01*
X006172Y030473D02*
X005972Y030473D01*
X005972Y030465D02*
X006172Y030465D01*
X006172Y030456D02*
X005972Y030456D01*
X005972Y030448D02*
X006172Y030448D01*
X006172Y030439D02*
X005972Y030439D01*
X005972Y030431D02*
X006172Y030431D01*
X006172Y030422D02*
X005972Y030422D01*
X005972Y030414D02*
X006172Y030414D01*
X006172Y030405D02*
X005972Y030405D01*
X005972Y030397D02*
X006172Y030397D01*
X006172Y030388D02*
X005972Y030388D01*
X005972Y030380D02*
X006172Y030380D01*
X006172Y030371D02*
X005972Y030371D01*
X005972Y030363D02*
X006172Y030363D01*
X006172Y030354D02*
X005972Y030354D01*
X005972Y030346D02*
X006172Y030346D01*
X006172Y030337D02*
X005972Y030337D01*
X005972Y030329D02*
X006172Y030329D01*
X006172Y030320D02*
X005972Y030320D01*
X005972Y030312D02*
X006172Y030312D01*
X006172Y030303D02*
X005972Y030303D01*
X005972Y030295D02*
X006172Y030295D01*
X006172Y030286D02*
X005972Y030286D01*
X005972Y030278D02*
X006172Y030278D01*
X006172Y030269D02*
X005972Y030269D01*
X005972Y030261D02*
X006172Y030261D01*
X006172Y030252D02*
X005972Y030252D01*
X005972Y030244D02*
X006172Y030244D01*
X006172Y030235D02*
X005972Y030235D01*
X005972Y030227D02*
X006172Y030227D01*
X006172Y030218D02*
X005972Y030218D01*
X005972Y030210D02*
X006172Y030210D01*
X006172Y030201D02*
X005972Y030201D01*
X005972Y030193D02*
X006172Y030193D01*
X006172Y030184D02*
X005972Y030184D01*
X005972Y030176D02*
X006172Y030176D01*
X006172Y030167D02*
X005972Y030167D01*
X005972Y030159D02*
X006172Y030159D01*
X006172Y030150D02*
X005972Y030150D01*
X005972Y030142D02*
X006172Y030142D01*
X006172Y030133D02*
X005972Y030133D01*
X005972Y030125D02*
X006172Y030125D01*
X006172Y030116D02*
X005972Y030116D01*
X005972Y030108D02*
X006172Y030108D01*
X006172Y030099D02*
X005972Y030099D01*
X005972Y030091D02*
X006172Y030091D01*
X006172Y030082D02*
X005972Y030082D01*
X005972Y030074D02*
X006172Y030074D01*
X006172Y030065D02*
X005972Y030065D01*
X005972Y030057D02*
X006172Y030057D01*
X006172Y030048D02*
X005972Y030048D01*
X005972Y030040D02*
X006172Y030040D01*
X006172Y030031D02*
X005972Y030031D01*
X005972Y030023D02*
X006172Y030023D01*
X006172Y030014D02*
X005972Y030014D01*
X005972Y030006D02*
X006172Y030006D01*
X006172Y029997D02*
X005972Y029997D01*
X005972Y029989D02*
X006172Y029989D01*
X006172Y029980D02*
X005972Y029980D01*
X005972Y029972D02*
X006172Y029972D01*
X006172Y029963D02*
X005972Y029963D01*
X005972Y029955D02*
X006172Y029955D01*
X006172Y029946D02*
X005972Y029946D01*
X006698Y030179D02*
X006630Y030422D01*
X006835Y030422D01*
X006837Y030414D02*
X006632Y030414D01*
X006630Y030422D02*
X006588Y030671D01*
X006572Y030924D01*
X006572Y031944D01*
X006772Y031944D01*
X006772Y030844D01*
X006795Y030611D01*
X006844Y030381D01*
X006916Y030158D01*
X007012Y029944D01*
X006791Y029944D01*
X006698Y030179D01*
X006699Y030176D02*
X006910Y030176D01*
X006907Y030184D02*
X006697Y030184D01*
X006694Y030193D02*
X006905Y030193D01*
X006902Y030201D02*
X006692Y030201D01*
X006689Y030210D02*
X006899Y030210D01*
X006896Y030218D02*
X006687Y030218D01*
X006685Y030227D02*
X006894Y030227D01*
X006891Y030235D02*
X006682Y030235D01*
X006680Y030244D02*
X006888Y030244D01*
X006885Y030252D02*
X006677Y030252D01*
X006675Y030261D02*
X006883Y030261D01*
X006880Y030269D02*
X006673Y030269D01*
X006670Y030278D02*
X006877Y030278D01*
X006874Y030286D02*
X006668Y030286D01*
X006666Y030295D02*
X006872Y030295D01*
X006869Y030303D02*
X006663Y030303D01*
X006661Y030312D02*
X006866Y030312D01*
X006863Y030320D02*
X006658Y030320D01*
X006656Y030329D02*
X006861Y030329D01*
X006858Y030337D02*
X006654Y030337D01*
X006651Y030346D02*
X006855Y030346D01*
X006852Y030354D02*
X006649Y030354D01*
X006647Y030363D02*
X006850Y030363D01*
X006847Y030371D02*
X006644Y030371D01*
X006642Y030380D02*
X006844Y030380D01*
X006842Y030388D02*
X006639Y030388D01*
X006637Y030397D02*
X006840Y030397D01*
X006838Y030405D02*
X006635Y030405D01*
X006628Y030431D02*
X006833Y030431D01*
X006831Y030439D02*
X006627Y030439D01*
X006626Y030448D02*
X006830Y030448D01*
X006828Y030456D02*
X006624Y030456D01*
X006623Y030465D02*
X006826Y030465D01*
X006824Y030473D02*
X006621Y030473D01*
X006620Y030482D02*
X006822Y030482D01*
X006821Y030490D02*
X006618Y030490D01*
X006617Y030499D02*
X006819Y030499D01*
X006817Y030507D02*
X006615Y030507D01*
X006614Y030516D02*
X006815Y030516D01*
X006813Y030524D02*
X006613Y030524D01*
X006611Y030533D02*
X006812Y030533D01*
X006810Y030541D02*
X006610Y030541D01*
X006608Y030550D02*
X006808Y030550D01*
X006806Y030558D02*
X006607Y030558D01*
X006605Y030567D02*
X006805Y030567D01*
X006803Y030575D02*
X006604Y030575D01*
X006602Y030584D02*
X006801Y030584D01*
X006799Y030592D02*
X006601Y030592D01*
X006600Y030601D02*
X006797Y030601D01*
X006796Y030609D02*
X006598Y030609D01*
X006597Y030618D02*
X006795Y030618D01*
X006794Y030626D02*
X006595Y030626D01*
X006594Y030635D02*
X006793Y030635D01*
X006792Y030643D02*
X006592Y030643D01*
X006591Y030652D02*
X006791Y030652D01*
X006790Y030660D02*
X006590Y030660D01*
X006588Y030669D02*
X006789Y030669D01*
X006789Y030677D02*
X006587Y030677D01*
X006587Y030686D02*
X006788Y030686D01*
X006787Y030694D02*
X006586Y030694D01*
X006586Y030703D02*
X006786Y030703D01*
X006785Y030711D02*
X006585Y030711D01*
X006585Y030720D02*
X006784Y030720D01*
X006783Y030728D02*
X006584Y030728D01*
X006584Y030737D02*
X006783Y030737D01*
X006782Y030745D02*
X006583Y030745D01*
X006582Y030754D02*
X006781Y030754D01*
X006780Y030762D02*
X006582Y030762D01*
X006581Y030771D02*
X006779Y030771D01*
X006778Y030779D02*
X006581Y030779D01*
X006580Y030788D02*
X006777Y030788D01*
X006777Y030796D02*
X006580Y030796D01*
X006579Y030805D02*
X006776Y030805D01*
X006775Y030813D02*
X006579Y030813D01*
X006578Y030822D02*
X006774Y030822D01*
X006773Y030830D02*
X006578Y030830D01*
X006577Y030839D02*
X006772Y030839D01*
X006772Y030847D02*
X006577Y030847D01*
X006576Y030856D02*
X006772Y030856D01*
X006772Y030864D02*
X006576Y030864D01*
X006575Y030873D02*
X006772Y030873D01*
X006772Y030881D02*
X006574Y030881D01*
X006574Y030890D02*
X006772Y030890D01*
X006772Y030898D02*
X006573Y030898D01*
X006573Y030907D02*
X006772Y030907D01*
X006772Y030915D02*
X006572Y030915D01*
X006572Y030924D02*
X006772Y030924D01*
X006772Y030932D02*
X006572Y030932D01*
X006572Y030941D02*
X006772Y030941D01*
X006772Y030949D02*
X006572Y030949D01*
X006572Y030958D02*
X006772Y030958D01*
X006772Y030966D02*
X006572Y030966D01*
X006572Y030975D02*
X006772Y030975D01*
X006772Y030983D02*
X006572Y030983D01*
X006572Y030992D02*
X006772Y030992D01*
X006772Y031000D02*
X006572Y031000D01*
X006572Y031009D02*
X006772Y031009D01*
X006772Y031017D02*
X006572Y031017D01*
X006572Y031026D02*
X006772Y031026D01*
X006772Y031034D02*
X006572Y031034D01*
X006572Y031043D02*
X006772Y031043D01*
X006772Y031051D02*
X006572Y031051D01*
X006572Y031060D02*
X006772Y031060D01*
X006772Y031068D02*
X006572Y031068D01*
X006572Y031077D02*
X006772Y031077D01*
X006772Y031085D02*
X006572Y031085D01*
X006572Y031094D02*
X006772Y031094D01*
X006772Y031102D02*
X006572Y031102D01*
X006572Y031111D02*
X006772Y031111D01*
X006772Y031119D02*
X006572Y031119D01*
X006572Y031128D02*
X006772Y031128D01*
X006772Y031136D02*
X006572Y031136D01*
X006572Y031145D02*
X006772Y031145D01*
X006772Y031153D02*
X006572Y031153D01*
X006572Y031162D02*
X006772Y031162D01*
X006772Y031170D02*
X006572Y031170D01*
X006572Y031179D02*
X006772Y031179D01*
X006772Y031187D02*
X006572Y031187D01*
X006572Y031196D02*
X006772Y031196D01*
X006772Y031204D02*
X006572Y031204D01*
X006572Y031213D02*
X006772Y031213D01*
X006772Y031221D02*
X006572Y031221D01*
X006572Y031230D02*
X006772Y031230D01*
X006772Y031238D02*
X006572Y031238D01*
X006572Y031247D02*
X006772Y031247D01*
X006772Y031255D02*
X006572Y031255D01*
X006572Y031264D02*
X006772Y031264D01*
X006772Y031272D02*
X006572Y031272D01*
X006572Y031281D02*
X006772Y031281D01*
X006772Y031289D02*
X006572Y031289D01*
X006572Y031298D02*
X006772Y031298D01*
X006772Y031306D02*
X006572Y031306D01*
X006572Y031315D02*
X006772Y031315D01*
X006772Y031323D02*
X006572Y031323D01*
X006572Y031332D02*
X006772Y031332D01*
X006772Y031340D02*
X006572Y031340D01*
X006572Y031349D02*
X006772Y031349D01*
X006772Y031357D02*
X006572Y031357D01*
X006572Y031366D02*
X006772Y031366D01*
X006772Y031374D02*
X006572Y031374D01*
X006572Y031383D02*
X006772Y031383D01*
X006772Y031391D02*
X006572Y031391D01*
X006572Y031400D02*
X006772Y031400D01*
X006772Y031408D02*
X006572Y031408D01*
X006572Y031417D02*
X006772Y031417D01*
X006772Y031425D02*
X006572Y031425D01*
X006572Y031434D02*
X006772Y031434D01*
X006772Y031442D02*
X006572Y031442D01*
X006572Y031451D02*
X006772Y031451D01*
X006772Y031459D02*
X006572Y031459D01*
X006572Y031468D02*
X006772Y031468D01*
X006772Y031476D02*
X006572Y031476D01*
X006572Y031485D02*
X006772Y031485D01*
X006772Y031493D02*
X006572Y031493D01*
X006572Y031502D02*
X006772Y031502D01*
X006772Y031510D02*
X006572Y031510D01*
X006572Y031519D02*
X006772Y031519D01*
X006772Y031527D02*
X006572Y031527D01*
X006572Y031536D02*
X006772Y031536D01*
X006772Y031544D02*
X006572Y031544D01*
X006572Y031553D02*
X006772Y031553D01*
X006772Y031561D02*
X006572Y031561D01*
X006572Y031570D02*
X006772Y031570D01*
X006772Y031578D02*
X006572Y031578D01*
X006572Y031587D02*
X006772Y031587D01*
X006772Y031595D02*
X006572Y031595D01*
X006572Y031604D02*
X006772Y031604D01*
X006772Y031612D02*
X006572Y031612D01*
X006572Y031621D02*
X006772Y031621D01*
X006772Y031629D02*
X006572Y031629D01*
X006572Y031638D02*
X006772Y031638D01*
X006772Y031646D02*
X006572Y031646D01*
X006572Y031655D02*
X006772Y031655D01*
X006772Y031663D02*
X006572Y031663D01*
X006572Y031672D02*
X006772Y031672D01*
X006772Y031680D02*
X006572Y031680D01*
X006572Y031689D02*
X006772Y031689D01*
X006772Y031697D02*
X006572Y031697D01*
X006572Y031706D02*
X006772Y031706D01*
X006772Y031714D02*
X006572Y031714D01*
X006572Y031723D02*
X006772Y031723D01*
X006772Y031731D02*
X006572Y031731D01*
X006572Y031740D02*
X006772Y031740D01*
X006772Y031748D02*
X006572Y031748D01*
X006572Y031757D02*
X006772Y031757D01*
X006772Y031765D02*
X006572Y031765D01*
X006572Y031774D02*
X006772Y031774D01*
X006772Y031782D02*
X006572Y031782D01*
X006572Y031791D02*
X006772Y031791D01*
X006772Y031799D02*
X006572Y031799D01*
X006572Y031808D02*
X006772Y031808D01*
X006772Y031816D02*
X006572Y031816D01*
X006572Y031825D02*
X006772Y031825D01*
X006772Y031833D02*
X006572Y031833D01*
X006572Y031842D02*
X006772Y031842D01*
X006772Y031850D02*
X006572Y031850D01*
X006572Y031859D02*
X006772Y031859D01*
X006772Y031867D02*
X006572Y031867D01*
X006572Y031876D02*
X006772Y031876D01*
X006772Y031884D02*
X006572Y031884D01*
X006572Y031893D02*
X006772Y031893D01*
X006772Y031901D02*
X006572Y031901D01*
X006572Y031910D02*
X006772Y031910D01*
X006772Y031918D02*
X006572Y031918D01*
X006572Y031927D02*
X006772Y031927D01*
X006772Y031935D02*
X006572Y031935D01*
X006572Y031944D02*
X006772Y031944D01*
X007012Y031944D02*
X007832Y031944D01*
X007832Y029944D01*
X007252Y029944D01*
X007149Y030177D01*
X007075Y030420D01*
X007029Y030670D01*
X007012Y030924D01*
X007012Y031944D01*
X007832Y031944D01*
X007832Y031935D02*
X007012Y031935D01*
X007012Y031927D02*
X007832Y031927D01*
X007832Y031918D02*
X007012Y031918D01*
X007012Y031910D02*
X007832Y031910D01*
X007832Y031901D02*
X007012Y031901D01*
X007012Y031893D02*
X007832Y031893D01*
X007832Y031884D02*
X007012Y031884D01*
X007012Y031876D02*
X007832Y031876D01*
X007832Y031867D02*
X007012Y031867D01*
X007012Y031859D02*
X007832Y031859D01*
X007832Y031850D02*
X007012Y031850D01*
X007012Y031842D02*
X007832Y031842D01*
X007832Y031833D02*
X007012Y031833D01*
X007012Y031825D02*
X007832Y031825D01*
X007832Y031816D02*
X007012Y031816D01*
X007012Y031808D02*
X007832Y031808D01*
X007832Y031799D02*
X007012Y031799D01*
X007012Y031791D02*
X007832Y031791D01*
X007832Y031782D02*
X007012Y031782D01*
X007012Y031774D02*
X007832Y031774D01*
X007832Y031765D02*
X007012Y031765D01*
X007012Y031757D02*
X007832Y031757D01*
X007832Y031748D02*
X007012Y031748D01*
X007012Y031740D02*
X007832Y031740D01*
X007832Y031731D02*
X007012Y031731D01*
X007012Y031723D02*
X007832Y031723D01*
X007832Y031714D02*
X007012Y031714D01*
X007012Y031706D02*
X007832Y031706D01*
X007832Y031697D02*
X007012Y031697D01*
X007012Y031689D02*
X007832Y031689D01*
X007832Y031680D02*
X007012Y031680D01*
X007012Y031672D02*
X007832Y031672D01*
X007832Y031663D02*
X007012Y031663D01*
X007012Y031655D02*
X007832Y031655D01*
X007832Y031646D02*
X007012Y031646D01*
X007012Y031638D02*
X007832Y031638D01*
X007832Y031629D02*
X007012Y031629D01*
X007012Y031621D02*
X007832Y031621D01*
X007832Y031612D02*
X007012Y031612D01*
X007012Y031604D02*
X007832Y031604D01*
X007832Y031595D02*
X007012Y031595D01*
X007012Y031587D02*
X007832Y031587D01*
X007832Y031578D02*
X007012Y031578D01*
X007012Y031570D02*
X007832Y031570D01*
X007832Y031561D02*
X007012Y031561D01*
X007012Y031553D02*
X007832Y031553D01*
X007832Y031544D02*
X007012Y031544D01*
X007012Y031536D02*
X007832Y031536D01*
X007832Y031527D02*
X007012Y031527D01*
X007012Y031519D02*
X007832Y031519D01*
X007832Y031510D02*
X007012Y031510D01*
X007012Y031502D02*
X007832Y031502D01*
X007832Y031493D02*
X007012Y031493D01*
X007012Y031485D02*
X007832Y031485D01*
X007832Y031476D02*
X007012Y031476D01*
X007012Y031468D02*
X007832Y031468D01*
X007832Y031459D02*
X007012Y031459D01*
X007012Y031451D02*
X007832Y031451D01*
X007832Y031442D02*
X007012Y031442D01*
X007012Y031434D02*
X007832Y031434D01*
X007832Y031425D02*
X007012Y031425D01*
X007012Y031417D02*
X007832Y031417D01*
X007832Y031408D02*
X007012Y031408D01*
X007012Y031400D02*
X007832Y031400D01*
X007832Y031391D02*
X007012Y031391D01*
X007012Y031383D02*
X007832Y031383D01*
X007832Y031374D02*
X007012Y031374D01*
X007012Y031366D02*
X007832Y031366D01*
X007832Y031357D02*
X007012Y031357D01*
X007012Y031349D02*
X007832Y031349D01*
X007832Y031340D02*
X007012Y031340D01*
X007012Y031332D02*
X007832Y031332D01*
X007832Y031323D02*
X007012Y031323D01*
X007012Y031315D02*
X007832Y031315D01*
X007832Y031306D02*
X007012Y031306D01*
X007012Y031298D02*
X007832Y031298D01*
X007832Y031289D02*
X007012Y031289D01*
X007012Y031281D02*
X007832Y031281D01*
X007832Y031272D02*
X007012Y031272D01*
X007012Y031264D02*
X007832Y031264D01*
X007832Y031255D02*
X007012Y031255D01*
X007012Y031247D02*
X007832Y031247D01*
X007832Y031238D02*
X007012Y031238D01*
X007012Y031230D02*
X007832Y031230D01*
X007832Y031221D02*
X007012Y031221D01*
X007012Y031213D02*
X007832Y031213D01*
X007832Y031204D02*
X007012Y031204D01*
X007012Y031196D02*
X007832Y031196D01*
X007832Y031187D02*
X007012Y031187D01*
X007012Y031179D02*
X007832Y031179D01*
X007832Y031170D02*
X007012Y031170D01*
X007012Y031162D02*
X007832Y031162D01*
X007832Y031153D02*
X007012Y031153D01*
X007012Y031145D02*
X007832Y031145D01*
X007832Y031136D02*
X007012Y031136D01*
X007012Y031128D02*
X007832Y031128D01*
X007832Y031119D02*
X007012Y031119D01*
X007012Y031111D02*
X007832Y031111D01*
X007832Y031102D02*
X007012Y031102D01*
X007012Y031094D02*
X007832Y031094D01*
X007832Y031085D02*
X007012Y031085D01*
X007012Y031077D02*
X007832Y031077D01*
X007832Y031068D02*
X007012Y031068D01*
X007012Y031060D02*
X007832Y031060D01*
X007832Y031051D02*
X007012Y031051D01*
X007012Y031043D02*
X007832Y031043D01*
X007832Y031034D02*
X007012Y031034D01*
X007012Y031026D02*
X007832Y031026D01*
X007832Y031017D02*
X007012Y031017D01*
X007012Y031009D02*
X007832Y031009D01*
X007832Y031000D02*
X007012Y031000D01*
X007012Y030992D02*
X007832Y030992D01*
X007832Y030983D02*
X007012Y030983D01*
X007012Y030975D02*
X007832Y030975D01*
X007832Y030966D02*
X007012Y030966D01*
X007012Y030958D02*
X007832Y030958D01*
X007832Y030949D02*
X007012Y030949D01*
X007012Y030941D02*
X007832Y030941D01*
X007832Y030932D02*
X007012Y030932D01*
X007012Y030924D02*
X007832Y030924D01*
X007832Y030915D02*
X007012Y030915D01*
X007013Y030907D02*
X007832Y030907D01*
X007832Y030898D02*
X007013Y030898D01*
X007014Y030890D02*
X007832Y030890D01*
X007832Y030881D02*
X007014Y030881D01*
X007015Y030873D02*
X007832Y030873D01*
X007832Y030864D02*
X007016Y030864D01*
X007016Y030856D02*
X007832Y030856D01*
X007832Y030847D02*
X007017Y030847D01*
X007017Y030839D02*
X007832Y030839D01*
X007832Y030830D02*
X007018Y030830D01*
X007018Y030822D02*
X007832Y030822D01*
X007832Y030813D02*
X007019Y030813D01*
X007020Y030805D02*
X007832Y030805D01*
X007832Y030796D02*
X007020Y030796D01*
X007021Y030788D02*
X007832Y030788D01*
X007832Y030779D02*
X007021Y030779D01*
X007022Y030771D02*
X007832Y030771D01*
X007832Y030762D02*
X007022Y030762D01*
X007023Y030754D02*
X007832Y030754D01*
X007832Y030745D02*
X007024Y030745D01*
X007024Y030737D02*
X007832Y030737D01*
X007832Y030728D02*
X007025Y030728D01*
X007025Y030720D02*
X007832Y030720D01*
X007832Y030711D02*
X007026Y030711D01*
X007026Y030703D02*
X007832Y030703D01*
X007832Y030694D02*
X007027Y030694D01*
X007028Y030686D02*
X007832Y030686D01*
X007832Y030677D02*
X007028Y030677D01*
X007029Y030669D02*
X007832Y030669D01*
X007832Y030660D02*
X007030Y030660D01*
X007032Y030652D02*
X007832Y030652D01*
X007832Y030643D02*
X007034Y030643D01*
X007035Y030635D02*
X007832Y030635D01*
X007832Y030626D02*
X007037Y030626D01*
X007038Y030618D02*
X007832Y030618D01*
X007832Y030609D02*
X007040Y030609D01*
X007041Y030601D02*
X007832Y030601D01*
X007832Y030592D02*
X007043Y030592D01*
X007045Y030584D02*
X007832Y030584D01*
X007832Y030575D02*
X007046Y030575D01*
X007048Y030567D02*
X007832Y030567D01*
X007832Y030558D02*
X007049Y030558D01*
X007051Y030550D02*
X007832Y030550D01*
X007832Y030541D02*
X007052Y030541D01*
X007054Y030533D02*
X007832Y030533D01*
X007832Y030524D02*
X007055Y030524D01*
X007057Y030516D02*
X007832Y030516D01*
X007832Y030507D02*
X007059Y030507D01*
X007060Y030499D02*
X007832Y030499D01*
X007832Y030490D02*
X007062Y030490D01*
X007063Y030482D02*
X007832Y030482D01*
X007832Y030473D02*
X007065Y030473D01*
X007066Y030465D02*
X007832Y030465D01*
X007832Y030456D02*
X007068Y030456D01*
X007070Y030448D02*
X007832Y030448D01*
X007832Y030439D02*
X007071Y030439D01*
X007073Y030431D02*
X007832Y030431D01*
X007832Y030422D02*
X007074Y030422D01*
X007077Y030414D02*
X007832Y030414D01*
X007832Y030405D02*
X007079Y030405D01*
X007082Y030397D02*
X007832Y030397D01*
X007832Y030388D02*
X007084Y030388D01*
X007087Y030380D02*
X007832Y030380D01*
X007832Y030371D02*
X007090Y030371D01*
X007092Y030363D02*
X007832Y030363D01*
X007832Y030354D02*
X007095Y030354D01*
X007098Y030346D02*
X007832Y030346D01*
X007832Y030337D02*
X007100Y030337D01*
X007103Y030329D02*
X007832Y030329D01*
X007832Y030320D02*
X007105Y030320D01*
X007108Y030312D02*
X007832Y030312D01*
X007832Y030303D02*
X007111Y030303D01*
X007113Y030295D02*
X007832Y030295D01*
X007832Y030286D02*
X007116Y030286D01*
X007118Y030278D02*
X007832Y030278D01*
X007832Y030269D02*
X007121Y030269D01*
X007124Y030261D02*
X007832Y030261D01*
X007832Y030252D02*
X007126Y030252D01*
X007129Y030244D02*
X007832Y030244D01*
X007832Y030235D02*
X007132Y030235D01*
X007134Y030227D02*
X007832Y030227D01*
X007832Y030218D02*
X007137Y030218D01*
X007139Y030210D02*
X007832Y030210D01*
X007832Y030201D02*
X007142Y030201D01*
X007145Y030193D02*
X007832Y030193D01*
X007832Y030184D02*
X007147Y030184D01*
X007150Y030176D02*
X007832Y030176D01*
X007832Y030167D02*
X007154Y030167D01*
X007157Y030159D02*
X007832Y030159D01*
X007832Y030150D02*
X007161Y030150D01*
X007165Y030142D02*
X007832Y030142D01*
X007832Y030133D02*
X007169Y030133D01*
X007172Y030125D02*
X007832Y030125D01*
X007832Y030116D02*
X007176Y030116D01*
X007180Y030108D02*
X007832Y030108D01*
X007832Y030099D02*
X007184Y030099D01*
X007187Y030091D02*
X007832Y030091D01*
X007832Y030082D02*
X007191Y030082D01*
X007195Y030074D02*
X007832Y030074D01*
X007832Y030065D02*
X007198Y030065D01*
X007202Y030057D02*
X007832Y030057D01*
X007832Y030048D02*
X007206Y030048D01*
X007210Y030040D02*
X007832Y030040D01*
X007832Y030031D02*
X007213Y030031D01*
X007217Y030023D02*
X007832Y030023D01*
X007832Y030014D02*
X007221Y030014D01*
X007225Y030006D02*
X007832Y030006D01*
X007832Y029997D02*
X007228Y029997D01*
X007232Y029989D02*
X007832Y029989D01*
X007832Y029980D02*
X007236Y029980D01*
X007240Y029972D02*
X007832Y029972D01*
X007832Y029963D02*
X007243Y029963D01*
X007247Y029955D02*
X007832Y029955D01*
X007832Y029946D02*
X007251Y029946D01*
X007011Y029946D02*
X006791Y029946D01*
X006787Y029955D02*
X007007Y029955D01*
X007003Y029963D02*
X006784Y029963D01*
X006780Y029972D02*
X006999Y029972D01*
X006995Y029980D02*
X006777Y029980D01*
X006774Y029989D02*
X006992Y029989D01*
X006988Y029997D02*
X006770Y029997D01*
X006767Y030006D02*
X006984Y030006D01*
X006980Y030014D02*
X006764Y030014D01*
X006760Y030023D02*
X006976Y030023D01*
X006973Y030031D02*
X006757Y030031D01*
X006753Y030040D02*
X006969Y030040D01*
X006965Y030048D02*
X006750Y030048D01*
X006747Y030057D02*
X006961Y030057D01*
X006957Y030065D02*
X006743Y030065D01*
X006740Y030074D02*
X006954Y030074D01*
X006950Y030082D02*
X006736Y030082D01*
X006733Y030091D02*
X006946Y030091D01*
X006942Y030099D02*
X006730Y030099D01*
X006726Y030108D02*
X006938Y030108D01*
X006935Y030116D02*
X006723Y030116D01*
X006720Y030125D02*
X006931Y030125D01*
X006927Y030133D02*
X006716Y030133D01*
X006713Y030142D02*
X006923Y030142D01*
X006919Y030150D02*
X006709Y030150D01*
X006706Y030159D02*
X006916Y030159D01*
X006913Y030167D02*
X006703Y030167D01*
X006173Y031051D02*
X005978Y031051D01*
X005978Y031060D02*
X006173Y031060D01*
X006174Y031068D02*
X005978Y031068D01*
X005979Y031077D02*
X006175Y031077D01*
X006176Y031085D02*
X005979Y031085D01*
X005980Y031094D02*
X006177Y031094D01*
X006178Y031102D02*
X005980Y031102D01*
X005981Y031111D02*
X006179Y031111D01*
X006179Y031119D02*
X005981Y031119D01*
X005982Y031128D02*
X006180Y031128D01*
X006181Y031136D02*
X005982Y031136D01*
X005983Y031145D02*
X006182Y031145D01*
X006183Y031153D02*
X005983Y031153D01*
X005984Y031162D02*
X006184Y031162D01*
X006185Y031170D02*
X005984Y031170D01*
X005984Y031179D02*
X006185Y031179D01*
X006186Y031187D02*
X005985Y031187D01*
X005985Y031196D02*
X006187Y031196D01*
X006188Y031204D02*
X005986Y031204D01*
X005987Y031213D02*
X006189Y031213D01*
X006190Y031221D02*
X005989Y031221D01*
X005990Y031230D02*
X006191Y031230D01*
X006191Y031238D02*
X005992Y031238D01*
X005993Y031247D02*
X006192Y031247D01*
X006193Y031255D02*
X005994Y031255D01*
X005996Y031264D02*
X006194Y031264D01*
X006195Y031272D02*
X005997Y031272D01*
X005999Y031281D02*
X006196Y031281D01*
X006198Y031289D02*
X006000Y031289D01*
X006001Y031298D02*
X006200Y031298D01*
X006201Y031306D02*
X006003Y031306D01*
X006004Y031315D02*
X006203Y031315D01*
X006205Y031323D02*
X006006Y031323D01*
X006007Y031332D02*
X006207Y031332D01*
X006209Y031340D02*
X006008Y031340D01*
X006010Y031349D02*
X006210Y031349D01*
X006212Y031357D02*
X006011Y031357D01*
X006013Y031366D02*
X006214Y031366D01*
X006216Y031374D02*
X006014Y031374D01*
X006015Y031383D02*
X006217Y031383D01*
X006219Y031391D02*
X006017Y031391D01*
X006018Y031400D02*
X006221Y031400D01*
X006223Y031408D02*
X006019Y031408D01*
X006021Y031417D02*
X006225Y031417D01*
X006226Y031425D02*
X006022Y031425D01*
X006024Y031434D02*
X006228Y031434D01*
X006230Y031442D02*
X006025Y031442D01*
X006026Y031451D02*
X006232Y031451D01*
X006234Y031459D02*
X006028Y031459D01*
X006031Y031468D02*
X006235Y031468D01*
X006237Y031476D02*
X006033Y031476D01*
X006035Y031485D02*
X006239Y031485D01*
X006241Y031493D02*
X006038Y031493D01*
X006040Y031502D02*
X006242Y031502D01*
X006245Y031510D02*
X006042Y031510D01*
X006045Y031519D02*
X006247Y031519D01*
X006250Y031527D02*
X006047Y031527D01*
X006049Y031536D02*
X006253Y031536D01*
X006256Y031544D02*
X006052Y031544D01*
X006054Y031553D02*
X006258Y031553D01*
X006261Y031561D02*
X006056Y031561D01*
X006059Y031570D02*
X006264Y031570D01*
X006267Y031578D02*
X006061Y031578D01*
X006064Y031587D02*
X006269Y031587D01*
X006272Y031595D02*
X006066Y031595D01*
X006068Y031604D02*
X006275Y031604D01*
X006278Y031612D02*
X006071Y031612D01*
X006073Y031621D02*
X006281Y031621D01*
X006283Y031629D02*
X006075Y031629D01*
X006078Y031638D02*
X006286Y031638D01*
X006289Y031646D02*
X006080Y031646D01*
X006082Y031655D02*
X006292Y031655D01*
X006294Y031663D02*
X006085Y031663D01*
X006087Y031672D02*
X006297Y031672D01*
X006300Y031680D02*
X006089Y031680D01*
X006092Y031689D02*
X006303Y031689D01*
X006305Y031697D02*
X006094Y031697D01*
X006097Y031706D02*
X006308Y031706D01*
X006311Y031714D02*
X006100Y031714D01*
X006103Y031723D02*
X006314Y031723D01*
X006317Y031731D02*
X006107Y031731D01*
X006110Y031740D02*
X006320Y031740D01*
X006324Y031748D02*
X006114Y031748D01*
X006117Y031757D02*
X006328Y031757D01*
X006332Y031765D02*
X006120Y031765D01*
X006124Y031774D02*
X006336Y031774D01*
X006339Y031782D02*
X006127Y031782D01*
X006131Y031791D02*
X006343Y031791D01*
X006347Y031799D02*
X006134Y031799D01*
X006137Y031808D02*
X006351Y031808D01*
X006355Y031816D02*
X006141Y031816D01*
X006144Y031825D02*
X006358Y031825D01*
X006362Y031833D02*
X006147Y031833D01*
X006151Y031842D02*
X006366Y031842D01*
X006370Y031850D02*
X006154Y031850D01*
X006158Y031859D02*
X006374Y031859D01*
X006377Y031867D02*
X006161Y031867D01*
X006164Y031876D02*
X006381Y031876D01*
X006385Y031884D02*
X006168Y031884D01*
X006171Y031893D02*
X006389Y031893D01*
X006392Y031901D02*
X006174Y031901D01*
X006178Y031910D02*
X006396Y031910D01*
X006400Y031918D02*
X006181Y031918D01*
X006185Y031927D02*
X006404Y031927D01*
X006408Y031935D02*
X006188Y031935D01*
X006191Y031944D02*
X006411Y031944D01*
X005738Y031893D02*
X005572Y031893D01*
X005572Y031901D02*
X005733Y031901D01*
X005729Y031910D02*
X005572Y031910D01*
X005572Y031918D02*
X005725Y031918D01*
X005720Y031927D02*
X005572Y031927D01*
X005572Y031935D02*
X005716Y031935D01*
X005712Y031944D02*
X005572Y031944D01*
D11*
X008850Y017914D03*
X009350Y017914D03*
X009850Y017914D03*
X010350Y017914D03*
X010850Y017914D03*
X011350Y017914D03*
X011850Y017914D03*
X012350Y017914D03*
X012350Y015494D03*
X011850Y015494D03*
X011350Y015494D03*
X010850Y015494D03*
X010350Y015494D03*
X009850Y015494D03*
X009350Y015494D03*
X008850Y015494D03*
D12*
X015100Y015464D02*
X015100Y014944D01*
X016100Y014944D02*
X016100Y015464D01*
X017100Y015464D02*
X017100Y014944D01*
X018100Y014944D02*
X018100Y015464D01*
X019100Y015464D02*
X019100Y014944D01*
X020100Y014944D02*
X020100Y015464D01*
X021100Y015464D02*
X021100Y014944D01*
X022100Y014944D02*
X022100Y015464D01*
X023100Y015464D02*
X023100Y014944D01*
X025600Y014944D02*
X025600Y015464D01*
X026600Y015464D02*
X026600Y014944D01*
X027600Y014944D02*
X027600Y015464D01*
X028600Y015464D02*
X028600Y014944D01*
X029600Y014944D02*
X029600Y015464D01*
X030600Y015464D02*
X030600Y014944D01*
X031600Y014944D02*
X031600Y015464D01*
X032600Y015464D02*
X032600Y014944D01*
X033600Y014944D02*
X033600Y015464D01*
X033600Y017944D02*
X033600Y018464D01*
X032600Y018464D02*
X032600Y017944D01*
X031600Y017944D02*
X031600Y018464D01*
X030600Y018464D02*
X030600Y017944D01*
X029600Y017944D02*
X029600Y018464D01*
X028600Y018464D02*
X028600Y017944D01*
X027600Y017944D02*
X027600Y018464D01*
X026600Y018464D02*
X026600Y017944D01*
X025600Y017944D02*
X025600Y018464D01*
X023100Y018464D02*
X023100Y017944D01*
X022100Y017944D02*
X022100Y018464D01*
X021100Y018464D02*
X021100Y017944D01*
X020100Y017944D02*
X020100Y018464D01*
X019100Y018464D02*
X019100Y017944D01*
X018100Y017944D02*
X018100Y018464D01*
X017100Y018464D02*
X017100Y017944D01*
X016100Y017944D02*
X016100Y018464D01*
X015100Y018464D02*
X015100Y017944D01*
X007100Y023444D02*
X007100Y023964D01*
X006100Y023964D02*
X006100Y023444D01*
X005100Y023444D02*
X005100Y023964D01*
X005100Y026444D02*
X005100Y026964D01*
X006100Y026964D02*
X006100Y026444D01*
X007100Y026444D02*
X007100Y026964D01*
D13*
X011350Y027204D03*
X012350Y027204D03*
X013350Y027204D03*
X012850Y026204D03*
X011850Y026204D03*
X013850Y026204D03*
X017850Y027204D03*
X018850Y027204D03*
X019850Y027204D03*
X019350Y026204D03*
X020350Y026204D03*
X018350Y026204D03*
X024350Y027204D03*
X025350Y027204D03*
X026350Y027204D03*
X025850Y026204D03*
X024850Y026204D03*
X026850Y026204D03*
X030850Y027204D03*
X031850Y027204D03*
X032850Y027204D03*
X032350Y026204D03*
X033350Y026204D03*
X031350Y026204D03*
X039100Y019954D03*
X038100Y019454D03*
X039100Y018954D03*
X038100Y018454D03*
X039100Y017954D03*
X038100Y017454D03*
X039100Y013454D03*
X038100Y012954D03*
X039100Y012454D03*
X038100Y011954D03*
X039100Y011454D03*
X038100Y010954D03*
X032850Y006704D03*
X031850Y006704D03*
X030850Y006704D03*
X031350Y005704D03*
X032350Y005704D03*
X033350Y005704D03*
X026850Y005704D03*
X025850Y005704D03*
X024850Y005704D03*
X024350Y006704D03*
X025350Y006704D03*
X026350Y006704D03*
X020350Y005704D03*
X019350Y005704D03*
X018350Y005704D03*
X017850Y006704D03*
X018850Y006704D03*
X019850Y006704D03*
X013850Y005704D03*
X012850Y005704D03*
X011850Y005704D03*
X011350Y006704D03*
X012350Y006704D03*
X013350Y006704D03*
D14*
X014600Y008653D03*
X014600Y009755D03*
X017100Y009755D03*
X017100Y008653D03*
X021100Y008653D03*
X021100Y009755D03*
X023600Y009755D03*
X023600Y008653D03*
X027600Y008653D03*
X027600Y009755D03*
X030100Y009755D03*
X030100Y008653D03*
X034100Y008653D03*
X034100Y009755D03*
X034100Y023153D03*
X034100Y024255D03*
X030100Y024255D03*
X030100Y023153D03*
X027600Y023153D03*
X027600Y024255D03*
X023600Y024255D03*
X023600Y023153D03*
X021100Y023153D03*
X021100Y024255D03*
X017100Y024255D03*
X017100Y023153D03*
X014600Y023153D03*
X014600Y024255D03*
X010600Y024255D03*
X010600Y023153D03*
X007600Y021755D03*
X006100Y021755D03*
X004600Y021755D03*
X004600Y020653D03*
X006100Y020653D03*
X007600Y020653D03*
X010600Y009755D03*
X010600Y008653D03*
D15*
X012100Y009204D03*
X013100Y009204D03*
X008100Y008704D03*
X007100Y008704D03*
X007100Y006704D03*
X008100Y006704D03*
X018600Y009204D03*
X019600Y009204D03*
X025100Y009204D03*
X026100Y009204D03*
X031600Y009204D03*
X032600Y009204D03*
X032600Y023704D03*
X031600Y023704D03*
X026100Y023704D03*
X025100Y023704D03*
X019600Y023704D03*
X018600Y023704D03*
X013100Y023704D03*
X012100Y023704D03*
D16*
X025600Y020704D03*
X029600Y020704D03*
D17*
X037706Y023674D02*
X038494Y023674D01*
X038494Y024734D02*
X037706Y024734D01*
X040206Y024734D02*
X040994Y024734D01*
X040994Y023674D02*
X040206Y023674D01*
D18*
X005100Y010775D03*
X000966Y007704D03*
X005100Y004633D03*
D19*
X001754Y004633D03*
X001754Y010775D03*
D20*
X003131Y008688D03*
X004569Y008767D03*
X004569Y006641D03*
X003131Y006720D03*
D21*
X007049Y004704D03*
X008151Y004704D03*
X008151Y010704D03*
X007049Y010704D03*
X003151Y016704D03*
X002049Y016704D03*
X002049Y018204D03*
X003151Y018204D03*
D22*
X037695Y026704D02*
X037695Y027704D01*
X038630Y027704D02*
X038630Y026704D01*
D23*
X040600Y006904D03*
X037600Y003904D03*
D24*
X037600Y002504D03*
X040600Y005504D03*
D25*
X006600Y016153D03*
X006600Y017255D03*
D26*
X006850Y017204D01*
X006850Y016954D01*
X011600Y016954D01*
X012350Y016204D01*
X012350Y016454D01*
X012350Y016204D02*
X012350Y015494D01*
X008850Y017914D02*
X008850Y020704D01*
X010600Y022454D01*
X010600Y023153D01*
X010600Y023204D01*
X011350Y023204D01*
X011350Y024454D01*
X011850Y024954D01*
X011850Y026204D01*
X011350Y027204D02*
X011100Y027204D01*
X008350Y024454D01*
X008350Y021204D01*
X007850Y020704D01*
X007600Y020653D01*
X007600Y020704D01*
X006350Y020704D01*
X006100Y020653D01*
X005850Y020704D01*
X004600Y020704D01*
X004600Y020653D01*
X006100Y020653D02*
X006100Y017954D01*
X005850Y017954D01*
X005850Y014954D01*
X003600Y012704D01*
X003600Y009454D01*
X003100Y008954D01*
X003131Y008688D01*
X003350Y008454D01*
X003350Y007704D01*
X003350Y006954D01*
X003131Y006720D01*
X003350Y007704D02*
X007100Y007704D01*
X007100Y006704D01*
X007100Y007704D02*
X007100Y008704D01*
X006350Y008954D02*
X006350Y009954D01*
X006850Y010454D01*
X007049Y010704D01*
X006850Y010704D01*
X006850Y015704D01*
X006600Y015954D01*
X006600Y016153D01*
X006600Y017255D02*
X006600Y017454D01*
X006100Y017954D01*
X003350Y019704D02*
X003350Y024704D01*
X005100Y026454D01*
X005100Y026704D01*
X006100Y026704D01*
X007100Y026704D01*
X011350Y027204D02*
X012350Y027204D01*
X016600Y025454D02*
X017850Y025454D01*
X017850Y023204D01*
X017100Y023204D01*
X017100Y023153D01*
X017850Y025454D02*
X017850Y025704D01*
X018350Y026204D01*
X018850Y027204D02*
X017850Y027204D01*
X020350Y026204D02*
X020600Y026204D01*
X021850Y024954D01*
X021850Y020704D01*
X025600Y020704D01*
X024350Y023204D02*
X023600Y023204D01*
X023600Y023153D01*
X024350Y023204D02*
X024350Y025704D01*
X024350Y025954D01*
X023600Y026704D01*
X023600Y027704D01*
X026850Y030954D01*
X036350Y030954D01*
X036350Y024704D01*
X036350Y006454D01*
X036350Y003954D01*
X037600Y002704D01*
X037600Y002504D01*
X040600Y005504D02*
X040600Y005704D01*
X042850Y007954D01*
X042850Y024704D01*
X040600Y024704D01*
X040600Y024734D01*
X038100Y024704D02*
X038100Y024734D01*
X038100Y024704D02*
X036350Y024704D01*
X038100Y023674D02*
X038100Y019454D01*
X039100Y019954D02*
X039100Y018954D01*
X039350Y018954D01*
X039850Y018454D01*
X039850Y014454D01*
X039100Y013704D01*
X039100Y013454D01*
X039100Y012454D01*
X034100Y009755D02*
X034100Y009704D01*
X033350Y009704D01*
X033350Y007204D01*
X032850Y006704D01*
X033350Y005704D02*
X032350Y005704D01*
X030350Y007454D02*
X026850Y007454D01*
X026850Y008204D01*
X024600Y008204D01*
X026350Y006704D02*
X026850Y007204D01*
X026850Y007454D01*
X026850Y008204D02*
X026850Y009704D01*
X027600Y009704D01*
X027600Y009755D01*
X026850Y005704D02*
X025850Y005704D01*
X020350Y005704D02*
X019350Y005704D01*
X019850Y006704D02*
X020350Y007204D01*
X020350Y008204D01*
X018100Y008204D01*
X017850Y006704D02*
X015850Y004704D01*
X015850Y001954D01*
X013850Y001954D01*
X010225Y005579D01*
X011350Y006704D01*
X012850Y005704D02*
X013850Y005704D01*
X013350Y006704D02*
X013850Y007204D01*
X013850Y009704D01*
X014600Y009704D01*
X014600Y009755D01*
X020350Y009704D02*
X020350Y008204D01*
X020350Y009704D02*
X021100Y009704D01*
X021100Y009755D01*
X023100Y015204D02*
X023100Y016454D01*
X030100Y023153D02*
X030100Y023204D01*
X030850Y023204D01*
X030850Y024704D01*
X033100Y024704D01*
X031350Y026204D02*
X030850Y025704D01*
X030850Y024704D01*
X030850Y027204D02*
X031850Y027204D01*
X025350Y027204D02*
X024350Y027204D01*
X024850Y026204D02*
X024350Y025704D01*
X038630Y027204D02*
X038850Y027204D01*
X039350Y026704D01*
X039350Y019954D01*
X039100Y019954D01*
X010225Y005579D02*
X008850Y004204D01*
X008850Y003954D01*
X007100Y003954D01*
X007100Y004454D01*
X007049Y004704D01*
X006850Y004704D01*
X005100Y006454D01*
X004600Y006454D01*
X004569Y006641D01*
X004569Y008767D02*
X004600Y008954D01*
X006350Y008954D01*
X002100Y016704D02*
X002049Y016704D01*
X002100Y016704D02*
X002100Y018204D01*
X002049Y018204D01*
X002100Y018454D01*
X003350Y019704D01*
D27*
X003850Y018204D03*
X003350Y017454D03*
X003850Y014704D03*
X004600Y014704D03*
X007850Y015704D03*
X008350Y015454D03*
X009850Y014704D03*
X010350Y014704D03*
X011350Y014704D03*
X011850Y013954D03*
X012850Y012704D03*
X016600Y013204D03*
X012350Y016454D03*
X010850Y016204D03*
X010850Y018704D03*
X011350Y018954D03*
X010100Y019454D03*
X009600Y018704D03*
X013850Y019204D03*
X019600Y019704D03*
X023100Y016454D03*
X026100Y014454D03*
X025350Y012704D03*
X024850Y011454D03*
X023850Y011454D03*
X022850Y008954D03*
X024600Y008204D03*
X030350Y007454D03*
X036350Y006454D03*
X032100Y015954D03*
X026600Y021204D03*
X024350Y019204D03*
X016600Y025454D03*
X033100Y024704D03*
X018100Y008204D03*
D28*
X017100Y008454D02*
X017100Y008653D01*
X017100Y008454D02*
X018850Y006704D01*
X021100Y008653D02*
X021100Y008704D01*
X021850Y009454D01*
X021850Y010204D01*
X021600Y010454D01*
X019600Y010454D01*
X019600Y009204D01*
X017100Y009755D02*
X017100Y009954D01*
X016350Y010704D01*
X016350Y012954D01*
X016600Y013204D01*
X016350Y012954D02*
X013350Y015954D01*
X013350Y017704D01*
X012350Y018704D01*
X011850Y018704D01*
X011850Y017914D01*
X012350Y017914D02*
X012350Y017704D01*
X012850Y017204D01*
X012850Y012704D01*
X012850Y012204D01*
X010600Y009954D01*
X010600Y009755D01*
X010600Y008653D02*
X010600Y008454D01*
X012350Y006704D01*
X014600Y008653D02*
X014600Y008704D01*
X015350Y009454D01*
X015350Y010204D01*
X015100Y010454D01*
X013100Y010454D01*
X013100Y009204D01*
X008100Y008704D02*
X008100Y010704D01*
X008151Y010704D01*
X011850Y013954D02*
X011850Y015494D01*
X011350Y015494D02*
X011350Y014704D01*
X010350Y014704D02*
X010350Y015494D01*
X010850Y015494D02*
X010850Y016204D01*
X009850Y015494D02*
X009850Y014704D01*
X009350Y015204D02*
X008850Y014704D01*
X007850Y014704D01*
X007850Y015704D01*
X008350Y015454D02*
X008850Y015454D01*
X008850Y015494D01*
X009350Y015494D02*
X009350Y015204D01*
X009350Y017914D02*
X009350Y018454D01*
X009600Y018704D01*
X009850Y018204D02*
X010100Y018454D01*
X010100Y019454D01*
X010850Y018704D02*
X010850Y017914D01*
X011350Y017914D02*
X011350Y018954D01*
X009850Y018204D02*
X009850Y017914D01*
X014600Y015704D02*
X015100Y015204D01*
X016100Y015204D01*
X017100Y015204D02*
X018100Y015204D01*
X018600Y015704D01*
X018600Y019454D01*
X020100Y020954D01*
X020100Y021954D01*
X021100Y022954D01*
X021100Y023153D01*
X021100Y024255D02*
X021100Y024454D01*
X019350Y026204D01*
X017100Y024255D02*
X017100Y024204D01*
X016350Y023454D01*
X016350Y022704D01*
X016600Y022454D01*
X018600Y022454D01*
X018600Y023704D01*
X014600Y024255D02*
X014600Y024454D01*
X012850Y026204D01*
X012350Y026704D02*
X012350Y023954D01*
X012100Y023704D01*
X010600Y024255D02*
X010600Y024454D01*
X011350Y025204D01*
X011350Y026454D01*
X011600Y026704D01*
X012350Y026704D01*
X014600Y023153D02*
X014600Y015704D01*
X019100Y015204D02*
X020100Y015204D01*
X021100Y015204D02*
X022100Y015204D01*
X025350Y014954D02*
X025350Y012704D01*
X025600Y011204D02*
X029600Y015204D01*
X030600Y015204D01*
X031100Y015704D02*
X031600Y015204D01*
X032600Y015204D01*
X032100Y015954D02*
X032100Y020954D01*
X034100Y022954D01*
X034100Y023153D01*
X034100Y024255D02*
X034100Y024454D01*
X032350Y026204D01*
X030100Y024255D02*
X030100Y024204D01*
X029350Y023454D01*
X029350Y022704D01*
X029600Y022454D01*
X031600Y022454D01*
X031600Y023704D01*
X031100Y021204D02*
X031100Y015704D01*
X031600Y015204D02*
X031600Y011454D01*
X030100Y009954D01*
X030100Y009755D01*
X030100Y008653D02*
X030100Y008454D01*
X031850Y006704D01*
X034100Y008653D02*
X034100Y008704D01*
X034850Y009454D01*
X034850Y010204D01*
X034600Y010454D01*
X032600Y010454D01*
X032600Y009204D01*
X028350Y009454D02*
X028350Y010204D01*
X028100Y010454D01*
X026100Y010454D01*
X026100Y009204D01*
X025600Y008704D02*
X025600Y011204D01*
X023600Y009954D02*
X023600Y009755D01*
X023600Y009704D01*
X024600Y008704D01*
X025600Y008704D01*
X027600Y008704D02*
X027600Y008653D01*
X027600Y008704D02*
X028350Y009454D01*
X025350Y006704D02*
X023600Y008454D01*
X023600Y008653D01*
X023600Y009954D02*
X022600Y010954D01*
X022600Y019704D01*
X019600Y019704D01*
X022850Y022704D02*
X023100Y022454D01*
X025100Y022454D01*
X025100Y023704D01*
X025600Y024204D02*
X025600Y021454D01*
X028100Y018954D01*
X028100Y016704D01*
X027100Y015704D01*
X027100Y014704D01*
X026850Y014454D01*
X026100Y014454D01*
X025350Y014954D02*
X025600Y015204D01*
X026600Y015204D01*
X027600Y015204D02*
X028600Y015204D01*
X026600Y021204D02*
X031100Y021204D01*
X027600Y023153D02*
X027600Y023204D01*
X026600Y024204D01*
X025600Y024204D01*
X027600Y024255D02*
X027600Y024454D01*
X025850Y026204D01*
X023600Y024255D02*
X023600Y024204D01*
X022850Y023454D01*
X022850Y022704D01*
X037600Y017954D02*
X037600Y012454D01*
X038100Y011954D01*
X038600Y011954D02*
X038600Y017454D01*
X039100Y017954D01*
X038100Y018454D02*
X037600Y017954D01*
X038600Y011954D02*
X039100Y011454D01*
X008100Y006704D02*
X008100Y004704D01*
X008151Y004704D01*
X004600Y014704D02*
X004350Y014954D01*
X004350Y019704D01*
X003850Y020204D01*
X003850Y020954D01*
X004600Y021704D01*
X004600Y021755D01*
X004600Y021954D01*
X005100Y022454D01*
X005100Y023704D01*
X006100Y023704D02*
X006100Y021755D01*
X007100Y022454D02*
X007100Y023704D01*
X007100Y022454D02*
X007600Y021954D01*
X007600Y021755D01*
X003850Y018204D02*
X003151Y018204D01*
X003850Y018204D02*
X003850Y014704D01*
X003350Y016704D02*
X003151Y016704D01*
X003350Y016704D02*
X003350Y017454D01*
D29*
X013100Y023704D02*
X013850Y022954D01*
X013850Y019204D01*
X015100Y018204D02*
X015350Y018204D01*
X015350Y027204D01*
X013350Y027204D01*
X015850Y027954D02*
X015850Y022454D01*
X018475Y019829D01*
X019100Y020454D01*
X019100Y023204D01*
X019600Y023704D01*
X019850Y027204D02*
X019100Y027954D01*
X015850Y027954D01*
X026350Y027204D02*
X028350Y027204D01*
X028350Y022704D01*
X028100Y022454D01*
X026100Y022454D01*
X026100Y023704D01*
X028850Y022704D02*
X029600Y021954D01*
X032600Y021954D01*
X032600Y023704D01*
X028850Y022704D02*
X028850Y027954D01*
X032100Y027954D01*
X032850Y027204D01*
X024850Y019454D02*
X024600Y019704D01*
X023850Y019704D01*
X023850Y011454D01*
X024850Y011454D02*
X024850Y015454D01*
X027600Y018204D01*
X026600Y018204D02*
X025600Y018204D01*
X024850Y018954D01*
X024850Y019454D01*
X024350Y019204D02*
X024350Y009954D01*
X025100Y009204D01*
X022850Y008954D02*
X022850Y007204D01*
X024350Y005704D01*
X024850Y005704D01*
X022350Y006704D02*
X020600Y004954D01*
X018350Y004954D01*
X018350Y005704D01*
X015850Y006704D02*
X014100Y004954D01*
X011850Y004954D01*
X011850Y005704D01*
X015850Y006704D02*
X015850Y010954D01*
X013100Y010954D01*
X012600Y010454D01*
X012600Y009704D01*
X012100Y009204D01*
X018600Y009204D02*
X019100Y009704D01*
X019100Y010454D01*
X019600Y010954D01*
X022100Y010954D01*
X022100Y010454D01*
X022350Y010204D01*
X022350Y006704D01*
X031350Y005704D02*
X032100Y004954D01*
X035350Y004954D01*
X035350Y010204D01*
X032475Y013079D01*
X032100Y012704D01*
X032100Y009704D01*
X031600Y009204D01*
X032475Y013079D02*
X034350Y014954D01*
X034350Y016454D01*
X032600Y018204D01*
X030600Y018204D02*
X029600Y018204D01*
X022100Y018204D02*
X021100Y018204D01*
X020100Y018204D02*
X019100Y018204D01*
X018100Y018204D02*
X018100Y019454D01*
X018475Y019829D01*
X018100Y018204D02*
X017100Y018204D01*
X016100Y018204D02*
X015350Y018204D01*
M02*
