%
M48
M72
T01C0.0240
T02C0.0320
T03C0.0354
T04C0.0440
T05C0.0512
T06C0.0551
T07C0.0669
T08C0.0787
T09C0.0866
T10C0.1260
T11C0.1280
%
T01
X12850Y12704
X11850Y13954
X11350Y14704
X10350Y14704
X9850Y14704
X8350Y15454
X7850Y15704
X10850Y16204
X12350Y16454
X10850Y18704
X11350Y18954
X10100Y19454
X9600Y18704
X13850Y19204
X19600Y19704
X23100Y16454
X26100Y14454
X25350Y12704
X24850Y11454
X23850Y11454
X22850Y8954
X24600Y8204
X30350Y7454
X36350Y6454
X32100Y15954
X26600Y21204
X24350Y19204
X16600Y13204
X18100Y8204
X4600Y14704
X3850Y14704
X3350Y17454
X3850Y18204
X16600Y25454
X33100Y24704
T02
X32600Y23704
X31600Y23704
X26100Y23704
X25100Y23704
X19600Y23704
X18600Y23704
X13100Y23704
X12100Y23704
X7100Y23704
X6100Y23704
X5100Y23704
X5100Y26704
X6100Y26704
X7100Y26704
X15100Y18204
X16100Y18204
X17100Y18204
X18100Y18204
X19100Y18204
X20100Y18204
X21100Y18204
X22100Y18204
X23100Y18204
X25600Y18204
X26600Y18204
X27600Y18204
X28600Y18204
X29600Y18204
X30600Y18204
X31600Y18204
X32600Y18204
X33600Y18204
X33600Y15204
X32600Y15204
X31600Y15204
X30600Y15204
X29600Y15204
X28600Y15204
X27600Y15204
X26600Y15204
X25600Y15204
X23100Y15204
X22100Y15204
X21100Y15204
X20100Y15204
X19100Y15204
X18100Y15204
X17100Y15204
X16100Y15204
X15100Y15204
X13100Y9204
X12100Y9204
X8100Y8704
X7100Y8704
X7100Y6704
X8100Y6704
X18600Y9204
X19600Y9204
X25100Y9204
X26100Y9204
X31600Y9204
X32600Y9204
X37600Y3904
X37600Y2504
X40600Y5504
X40600Y6904
T03
X38100Y10954
X39100Y11454
X38100Y11954
X39100Y12454
X38100Y12954
X39100Y13454
X38100Y17454
X39100Y17954
X38100Y18454
X39100Y18954
X38100Y19454
X39100Y19954
X33350Y26204
X32350Y26204
X31350Y26204
X30850Y27204
X31850Y27204
X32850Y27204
X26850Y26204
X25850Y26204
X24850Y26204
X24350Y27204
X25350Y27204
X26350Y27204
X20350Y26204
X19350Y26204
X18350Y26204
X17850Y27204
X18850Y27204
X19850Y27204
X13850Y26204
X12850Y26204
X11850Y26204
X11350Y27204
X12350Y27204
X13350Y27204
X13350Y6704
X12350Y6704
X11350Y6704
X11850Y5704
X12850Y5704
X13850Y5704
X17850Y6704
X18850Y6704
X19850Y6704
X19350Y5704
X20350Y5704
X18350Y5704
X24350Y6704
X25350Y6704
X26350Y6704
X25850Y5704
X24850Y5704
X26850Y5704
X30850Y6704
X31850Y6704
X32850Y6704
X32350Y5704
X33350Y5704
X31350Y5704
T04
X29600Y20704
X25600Y20704
T05
X38100Y23674
X38100Y24734
X40600Y24734
X40600Y23674
T06
X38630Y27204
X37695Y27204
T07
X1754Y8688
X1754Y6720
T08
X966Y7704
X3131Y8688
X4569Y8767
X5100Y10775
X4569Y6641
X3131Y6720
X5100Y4633
T09
X1754Y4633
X1754Y10775
T10
X4100Y1704
X40600Y1704
X43100Y28704
X1600Y28704
T11
X10600Y29704
X14600Y29704
X17100Y29704
X21100Y29704
X23600Y29704
X27600Y29704
X30100Y29704
X34100Y29704
X41600Y20704
X41600Y16704
X41600Y14204
X41600Y10204
X34100Y3204
X30100Y3204
X27600Y3204
X23600Y3204
X21100Y3204
X17100Y3204
X14600Y3204
X10600Y3204
M30
