G75*
G70*
%OFA0B0*%
%FSLAX24Y24*%
%IPPOS*%
%LPD*%
%AMOC8*
5,1,8,0,0,1.08239X$1,22.5*
%
%ADD10C,0.0060*%
%ADD11OC8,0.0520*%
%ADD12C,0.0515*%
%ADD13C,0.0320*%
%ADD14C,0.0160*%
D10*
X009636Y009711D02*
X010276Y009711D01*
X010276Y010138D01*
X010276Y010356D02*
X009636Y010356D01*
X009636Y010676D01*
X009743Y010783D01*
X009956Y010783D01*
X010063Y010676D01*
X010063Y010356D01*
X009956Y009925D02*
X009956Y009711D01*
X009636Y009711D02*
X009636Y010138D01*
X009636Y011000D02*
X009636Y011427D01*
X009636Y011645D02*
X010276Y011645D01*
X010276Y012072D01*
X009956Y011214D02*
X009956Y011000D01*
X010276Y011000D02*
X009636Y011000D01*
D11*
X002056Y001681D03*
X002056Y004681D03*
X002306Y006556D03*
X003306Y006556D03*
X002056Y008681D03*
X002056Y011681D03*
X005306Y006556D03*
X006306Y006556D03*
X008556Y006556D03*
X009556Y006556D03*
X009806Y004931D03*
X009806Y001931D03*
D12*
X006806Y004462D03*
X006003Y004462D03*
X005200Y004462D03*
X004806Y003462D03*
X005609Y003462D03*
X006413Y003462D03*
X006413Y009401D03*
X005609Y009401D03*
X004806Y009401D03*
X005200Y010401D03*
X006003Y010401D03*
X006806Y010401D03*
D13*
X007306Y010681D02*
X007056Y010931D01*
X005806Y010931D01*
X005306Y010431D01*
X005200Y010401D01*
X006413Y009401D02*
X006306Y009181D01*
X003806Y006681D01*
X003306Y006681D01*
X003306Y006556D01*
X003306Y006431D01*
X005056Y004681D01*
X005200Y004462D01*
X006003Y004462D02*
X006056Y004681D01*
X006056Y006431D01*
X006306Y006431D01*
X006306Y006556D01*
X006556Y003681D02*
X006413Y003462D01*
X006556Y003431D01*
X006556Y001431D01*
X009306Y001431D01*
X009806Y001931D01*
X007306Y003681D02*
X006556Y003681D01*
X007306Y003681D02*
X007306Y010681D01*
X002806Y008681D02*
X002056Y008681D01*
X002806Y008681D02*
X002806Y004681D01*
X004556Y002931D01*
X005056Y002931D01*
X005556Y003431D01*
X005609Y003462D01*
D14*
X002306Y006431D02*
X002306Y006556D01*
X002306Y006431D02*
X002056Y006431D01*
X002056Y004681D01*
X009556Y006431D02*
X009556Y006556D01*
X009556Y006431D02*
X009806Y006431D01*
X009806Y004931D01*
M02*
