G75*
G70*
%OFA0B0*%
%FSLAX24Y24*%
%IPPOS*%
%LPD*%
%AMOC8*
5,1,8,0,0,1.08239X$1,22.5*
%
%ADD10OC8,0.0520*%
%ADD11C,0.0515*%
%ADD12C,0.0320*%
%ADD13C,0.0160*%
D10*
X002056Y001681D03*
X002056Y004681D03*
X002306Y006556D03*
X003306Y006556D03*
X002056Y008681D03*
X002056Y011681D03*
X005306Y006556D03*
X006306Y006556D03*
X008556Y006556D03*
X009556Y006556D03*
X009806Y004931D03*
X009806Y001931D03*
D11*
X006806Y004462D03*
X006003Y004462D03*
X005200Y004462D03*
X004806Y003462D03*
X005609Y003462D03*
X006413Y003462D03*
X006413Y009401D03*
X005609Y009401D03*
X004806Y009401D03*
X005200Y010401D03*
X006003Y010401D03*
X006806Y010401D03*
D12*
X006806Y010181D01*
X009056Y007931D01*
X009056Y003681D01*
X007556Y003681D01*
X006806Y002931D01*
X004806Y002931D01*
X004806Y003462D01*
X004806Y002931D02*
X004806Y001431D01*
X002306Y001431D01*
X002056Y001681D01*
X005806Y005931D02*
X008056Y005931D01*
X006806Y004681D01*
X006806Y004462D01*
X005806Y005931D02*
X005806Y006931D01*
X005056Y007681D01*
X004806Y007681D01*
X004806Y009401D01*
X005556Y009181D02*
X005609Y009401D01*
X005556Y009181D02*
X005556Y007931D01*
X006306Y007181D01*
X006306Y006556D01*
X008056Y005931D02*
X008556Y006431D01*
X008556Y006556D01*
X006003Y010401D02*
X005806Y010431D01*
X005806Y010931D01*
X004556Y010931D01*
X002306Y008681D01*
X002056Y008681D01*
D13*
X001556Y008431D02*
X001806Y008181D01*
X003806Y008181D01*
X005306Y006681D01*
X005306Y006556D01*
X001556Y008431D02*
X001556Y011681D01*
X002056Y011681D01*
M02*
