%
M48
M72
T01C0.0315
T02C0.0320
T03C0.0929
%
T01
X4806Y3462
X5609Y3462
X6413Y3462
X6806Y4462
X6003Y4462
X5200Y4462
X4806Y9401
X5609Y9401
X6413Y9401
X6806Y10401
X6003Y10401
X5200Y10401
T02
X2056Y1681
X2056Y4681
X2306Y6556
X3306Y6556
X2056Y8681
X2056Y11681
X5306Y6556
X6306Y6556
X8556Y6556
X9556Y6556
X9806Y4931
X9806Y1931
T03
X8169Y2556
X3444Y2556
X3444Y11306
X8169Y11306
M30
