%
M48
M72
T01C0.0190
T02C0.0315
T03C0.0320
T04C0.0394
T05C0.0400
T06C0.0929
%
T01
X11598Y5483
X15098Y5483
X20098Y3983
X21598Y5483
X26598Y3733
X21848Y1483
X27348Y8483
X26348Y11983
X28348Y11983
X26848Y14983
X22348Y14733
X20848Y14233
X18598Y14733
X15598Y13733
X18098Y11483
X15598Y10983
T02
X15295Y4388
X16098Y4388
X15704Y3388
X14901Y3388
X14098Y3388
X14492Y4388
X21098Y3388
X21901Y3388
X22704Y3388
X23098Y4388
X22295Y4388
X21492Y4388
T03
X21148Y9733
X20148Y9733
X19148Y9733
X18148Y9733
X17148Y9733
X17148Y12733
X18148Y12733
X19148Y12733
X20148Y12733
X21148Y12733
X22148Y12733
X23148Y12733
X24148Y12733
X25148Y12733
X27098Y12283
X27098Y11283
X27098Y10283
X25148Y9733
X24148Y9733
X23148Y9733
X22148Y9733
T04
X13348Y13233
X13348Y14233
X13348Y15233
X13348Y16233
T05
X13698Y7153
X14698Y7153
X15698Y7153
X16698Y7153
X17698Y7153
X18698Y7153
X19698Y7153
X20698Y7153
X21698Y7153
X22698Y7153
X23698Y7153
X24698Y7153
X25698Y7153
X26698Y7153
X27698Y7153
X28698Y7153
X27598Y4733
X29598Y3733
X27598Y2733
T06
X24460Y2483
X19736Y2483
X17460Y2483
X12736Y2483
M30
