G75*
G70*
%OFA0B0*%
%FSLAX24Y24*%
%IPPOS*%
%LPD*%
%AMOC8*
5,1,8,0,0,1.08239X$1,22.5*
%
%ADD10C,0.0010*%
%ADD11C,0.0100*%
%ADD12C,0.0060*%
%ADD13C,0.0240*%
%ADD14R,0.0340X0.0240*%
D10*
X009439Y001407D02*
X009491Y001355D01*
X009594Y001355D01*
X009646Y001407D01*
X009646Y001510D01*
X009542Y001510D01*
X009439Y001407D02*
X009439Y001614D01*
X009491Y001665D01*
X009594Y001665D01*
X009646Y001614D01*
X009734Y001665D02*
X009940Y001355D01*
X009940Y001665D01*
X010028Y001665D02*
X010183Y001665D01*
X010235Y001614D01*
X010235Y001407D01*
X010183Y001355D01*
X010028Y001355D01*
X010028Y001665D01*
X009734Y001665D02*
X009734Y001355D01*
X012564Y001407D02*
X012616Y001355D01*
X012719Y001355D01*
X012771Y001407D01*
X012771Y001510D01*
X012719Y001562D01*
X012667Y001562D01*
X012564Y001510D01*
X012564Y001665D01*
X012771Y001665D01*
X012859Y001665D02*
X012859Y001458D01*
X012962Y001355D01*
X013065Y001458D01*
X013065Y001665D01*
X012962Y005855D02*
X013065Y005958D01*
X013065Y006165D01*
X012859Y006165D02*
X012859Y005958D01*
X012962Y005855D01*
X012771Y005907D02*
X012719Y005855D01*
X012616Y005855D01*
X012564Y005907D01*
X012564Y006010D02*
X012667Y006062D01*
X012719Y006062D01*
X012771Y006010D01*
X012771Y005907D01*
X012564Y006010D02*
X012564Y006165D01*
X012771Y006165D01*
X010235Y006114D02*
X010235Y005907D01*
X010183Y005855D01*
X010028Y005855D01*
X010028Y006165D01*
X010183Y006165D01*
X010235Y006114D01*
X009940Y006165D02*
X009940Y005855D01*
X009734Y006165D01*
X009734Y005855D01*
X009646Y005907D02*
X009646Y006010D01*
X009542Y006010D01*
X009439Y005907D02*
X009491Y005855D01*
X009594Y005855D01*
X009646Y005907D01*
X009646Y006114D02*
X009594Y006165D01*
X009491Y006165D01*
X009439Y006114D01*
X009439Y005907D01*
X009491Y010355D02*
X009594Y010355D01*
X009646Y010407D01*
X009646Y010510D01*
X009542Y010510D01*
X009439Y010407D02*
X009491Y010355D01*
X009439Y010407D02*
X009439Y010614D01*
X009491Y010665D01*
X009594Y010665D01*
X009646Y010614D01*
X009734Y010665D02*
X009940Y010355D01*
X009940Y010665D01*
X010028Y010665D02*
X010183Y010665D01*
X010235Y010614D01*
X010235Y010407D01*
X010183Y010355D01*
X010028Y010355D01*
X010028Y010665D01*
X009734Y010665D02*
X009734Y010355D01*
X012564Y010407D02*
X012616Y010355D01*
X012719Y010355D01*
X012771Y010407D01*
X012771Y010510D01*
X012719Y010562D01*
X012667Y010562D01*
X012564Y010510D01*
X012564Y010665D01*
X012771Y010665D01*
X012859Y010665D02*
X012859Y010458D01*
X012962Y010355D01*
X013065Y010458D01*
X013065Y010665D01*
X012962Y014855D02*
X013065Y014958D01*
X013065Y015165D01*
X012859Y015165D02*
X012859Y014958D01*
X012962Y014855D01*
X012771Y014907D02*
X012719Y014855D01*
X012616Y014855D01*
X012564Y014907D01*
X012564Y015010D02*
X012667Y015062D01*
X012719Y015062D01*
X012771Y015010D01*
X012771Y014907D01*
X012564Y015010D02*
X012564Y015165D01*
X012771Y015165D01*
X010235Y015114D02*
X010235Y014907D01*
X010183Y014855D01*
X010028Y014855D01*
X010028Y015165D01*
X010183Y015165D01*
X010235Y015114D01*
X009940Y015165D02*
X009940Y014855D01*
X009734Y015165D01*
X009734Y014855D01*
X009646Y014907D02*
X009646Y015010D01*
X009542Y015010D01*
X009439Y014907D02*
X009491Y014855D01*
X009594Y014855D01*
X009646Y014907D01*
X009439Y014907D02*
X009439Y015114D01*
X009491Y015165D01*
X009594Y015165D01*
X009646Y015114D01*
D11*
X002189Y002600D02*
X002189Y001600D01*
X002809Y001300D02*
X002863Y001302D01*
X002917Y001307D01*
X002970Y001316D01*
X003023Y001329D01*
X003074Y001345D01*
X003124Y001365D01*
X003173Y001388D01*
X003221Y001414D01*
X003266Y001443D01*
X003309Y001476D01*
X003350Y001511D01*
X003389Y001549D01*
X003425Y001589D01*
X003458Y001632D01*
X003488Y001677D01*
X003515Y001724D01*
X003504Y002497D02*
X003474Y002545D01*
X003441Y002590D01*
X003405Y002633D01*
X003367Y002674D01*
X003325Y002711D01*
X003281Y002746D01*
X003235Y002777D01*
X003186Y002806D01*
X003136Y002830D01*
X003084Y002851D01*
X003030Y002869D01*
X002976Y002882D01*
X002921Y002892D01*
X002865Y002898D01*
X002809Y002900D01*
X003490Y002519D02*
X003518Y002471D01*
X003542Y002422D01*
X003562Y002370D01*
X003579Y002318D01*
X003592Y002264D01*
X003601Y002210D01*
X003607Y002155D01*
X003609Y002100D01*
X003607Y002044D01*
X003601Y001987D01*
X003591Y001932D01*
X003577Y001877D01*
X003560Y001824D01*
X003538Y001771D01*
X003513Y001721D01*
X002809Y001300D02*
X002755Y001302D01*
X002702Y001307D01*
X002648Y001316D01*
X002596Y001329D01*
X002545Y001345D01*
X002494Y001365D01*
X002445Y001387D01*
X002398Y001413D01*
X002353Y001443D01*
X002310Y001475D01*
X002269Y001510D01*
X002230Y001548D01*
X002194Y001588D01*
X002198Y002617D02*
X002234Y002656D01*
X002273Y002694D01*
X002313Y002728D01*
X002356Y002760D01*
X002401Y002788D01*
X002448Y002814D01*
X002497Y002837D01*
X002547Y002856D01*
X002598Y002872D01*
X002650Y002884D01*
X002702Y002893D01*
X002756Y002898D01*
X002809Y002900D01*
X002189Y006100D02*
X002189Y007100D01*
X003490Y007019D02*
X003518Y006971D01*
X003542Y006922D01*
X003562Y006870D01*
X003579Y006818D01*
X003592Y006764D01*
X003601Y006710D01*
X003607Y006655D01*
X003609Y006600D01*
X003504Y006997D02*
X003474Y007045D01*
X003441Y007090D01*
X003405Y007133D01*
X003367Y007174D01*
X003325Y007211D01*
X003281Y007246D01*
X003235Y007277D01*
X003186Y007306D01*
X003136Y007330D01*
X003084Y007351D01*
X003030Y007369D01*
X002976Y007382D01*
X002921Y007392D01*
X002865Y007398D01*
X002809Y007400D01*
X003609Y006600D02*
X003607Y006544D01*
X003601Y006487D01*
X003591Y006432D01*
X003577Y006377D01*
X003560Y006324D01*
X003538Y006271D01*
X003513Y006221D01*
X002809Y005800D02*
X002755Y005802D01*
X002702Y005807D01*
X002648Y005816D01*
X002596Y005829D01*
X002545Y005845D01*
X002494Y005865D01*
X002445Y005887D01*
X002398Y005913D01*
X002353Y005943D01*
X002310Y005975D01*
X002269Y006010D01*
X002230Y006048D01*
X002194Y006088D01*
X002809Y005800D02*
X002863Y005802D01*
X002917Y005807D01*
X002970Y005816D01*
X003023Y005829D01*
X003074Y005845D01*
X003124Y005865D01*
X003173Y005888D01*
X003221Y005914D01*
X003266Y005943D01*
X003309Y005976D01*
X003350Y006011D01*
X003389Y006049D01*
X003425Y006089D01*
X003458Y006132D01*
X003488Y006177D01*
X003515Y006224D01*
X002809Y007400D02*
X002756Y007398D01*
X002702Y007393D01*
X002650Y007384D01*
X002598Y007372D01*
X002547Y007356D01*
X002497Y007337D01*
X002448Y007314D01*
X002401Y007288D01*
X002356Y007260D01*
X002313Y007228D01*
X002273Y007194D01*
X002234Y007156D01*
X002198Y007117D01*
X002189Y010600D02*
X002189Y011600D01*
X003490Y011519D02*
X003518Y011471D01*
X003542Y011422D01*
X003562Y011370D01*
X003579Y011318D01*
X003592Y011264D01*
X003601Y011210D01*
X003607Y011155D01*
X003609Y011100D01*
X003504Y011497D02*
X003474Y011545D01*
X003441Y011590D01*
X003405Y011633D01*
X003367Y011674D01*
X003325Y011711D01*
X003281Y011746D01*
X003235Y011777D01*
X003186Y011806D01*
X003136Y011830D01*
X003084Y011851D01*
X003030Y011869D01*
X002976Y011882D01*
X002921Y011892D01*
X002865Y011898D01*
X002809Y011900D01*
X003609Y011100D02*
X003607Y011044D01*
X003601Y010987D01*
X003591Y010932D01*
X003577Y010877D01*
X003560Y010824D01*
X003538Y010771D01*
X003513Y010721D01*
X002809Y010300D02*
X002755Y010302D01*
X002702Y010307D01*
X002648Y010316D01*
X002596Y010329D01*
X002545Y010345D01*
X002494Y010365D01*
X002445Y010387D01*
X002398Y010413D01*
X002353Y010443D01*
X002310Y010475D01*
X002269Y010510D01*
X002230Y010548D01*
X002194Y010588D01*
X002809Y010300D02*
X002863Y010302D01*
X002917Y010307D01*
X002970Y010316D01*
X003023Y010329D01*
X003074Y010345D01*
X003124Y010365D01*
X003173Y010388D01*
X003221Y010414D01*
X003266Y010443D01*
X003309Y010476D01*
X003350Y010511D01*
X003389Y010549D01*
X003425Y010589D01*
X003458Y010632D01*
X003488Y010677D01*
X003515Y010724D01*
X002809Y011900D02*
X002756Y011898D01*
X002702Y011893D01*
X002650Y011884D01*
X002598Y011872D01*
X002547Y011856D01*
X002497Y011837D01*
X002448Y011814D01*
X002401Y011788D01*
X002356Y011760D01*
X002313Y011728D01*
X002273Y011694D01*
X002234Y011656D01*
X002198Y011617D01*
X002189Y015100D02*
X002189Y016100D01*
X003490Y016019D02*
X003518Y015971D01*
X003542Y015922D01*
X003562Y015870D01*
X003579Y015818D01*
X003592Y015764D01*
X003601Y015710D01*
X003607Y015655D01*
X003609Y015600D01*
X003504Y015997D02*
X003474Y016045D01*
X003441Y016090D01*
X003405Y016133D01*
X003367Y016174D01*
X003325Y016211D01*
X003281Y016246D01*
X003235Y016277D01*
X003186Y016306D01*
X003136Y016330D01*
X003084Y016351D01*
X003030Y016369D01*
X002976Y016382D01*
X002921Y016392D01*
X002865Y016398D01*
X002809Y016400D01*
X003609Y015600D02*
X003607Y015544D01*
X003601Y015487D01*
X003591Y015432D01*
X003577Y015377D01*
X003560Y015324D01*
X003538Y015271D01*
X003513Y015221D01*
X002809Y014800D02*
X002755Y014802D01*
X002702Y014807D01*
X002648Y014816D01*
X002596Y014829D01*
X002545Y014845D01*
X002494Y014865D01*
X002445Y014887D01*
X002398Y014913D01*
X002353Y014943D01*
X002310Y014975D01*
X002269Y015010D01*
X002230Y015048D01*
X002194Y015088D01*
X002809Y014800D02*
X002863Y014802D01*
X002917Y014807D01*
X002970Y014816D01*
X003023Y014829D01*
X003074Y014845D01*
X003124Y014865D01*
X003173Y014888D01*
X003221Y014914D01*
X003266Y014943D01*
X003309Y014976D01*
X003350Y015011D01*
X003389Y015049D01*
X003425Y015089D01*
X003458Y015132D01*
X003488Y015177D01*
X003515Y015224D01*
X002809Y016400D02*
X002756Y016398D01*
X002702Y016393D01*
X002650Y016384D01*
X002598Y016372D01*
X002547Y016356D01*
X002497Y016337D01*
X002448Y016314D01*
X002401Y016288D01*
X002356Y016260D01*
X002313Y016228D01*
X002273Y016194D01*
X002234Y016156D01*
X002198Y016117D01*
X010309Y016100D02*
X010309Y014350D01*
X012309Y014350D01*
X012309Y016100D01*
X010309Y016100D01*
X010309Y016850D01*
X012309Y016850D01*
X012309Y016100D01*
X012309Y012350D02*
X010309Y012350D01*
X010309Y011600D01*
X012309Y011600D01*
X012309Y009850D01*
X010309Y009850D01*
X010309Y011600D01*
X012309Y011600D02*
X012309Y012350D01*
X012309Y007850D02*
X010309Y007850D01*
X010309Y007100D01*
X012309Y007100D01*
X012309Y005350D01*
X010309Y005350D01*
X010309Y007100D01*
X012309Y007100D02*
X012309Y007850D01*
X012309Y003350D02*
X010309Y003350D01*
X010309Y002600D01*
X012309Y002600D01*
X012309Y000850D01*
X010309Y000850D01*
X010309Y002600D01*
X012309Y002600D02*
X012309Y003350D01*
X018114Y001703D02*
X018144Y001655D01*
X018177Y001610D01*
X018213Y001567D01*
X018251Y001526D01*
X018293Y001489D01*
X018337Y001454D01*
X018383Y001423D01*
X018432Y001394D01*
X018482Y001370D01*
X018534Y001349D01*
X018588Y001331D01*
X018642Y001318D01*
X018697Y001308D01*
X018753Y001302D01*
X018809Y001300D01*
X019429Y001600D02*
X019429Y002600D01*
X018809Y002900D02*
X018755Y002898D01*
X018701Y002893D01*
X018648Y002884D01*
X018595Y002871D01*
X018544Y002855D01*
X018494Y002835D01*
X018445Y002812D01*
X018397Y002786D01*
X018352Y002757D01*
X018309Y002724D01*
X018268Y002689D01*
X018229Y002651D01*
X018193Y002611D01*
X018160Y002568D01*
X018130Y002523D01*
X018103Y002476D01*
X018105Y002479D02*
X018080Y002429D01*
X018058Y002376D01*
X018041Y002323D01*
X018027Y002268D01*
X018017Y002213D01*
X018011Y002156D01*
X018009Y002100D01*
X018011Y002045D01*
X018017Y001990D01*
X018026Y001936D01*
X018039Y001882D01*
X018056Y001830D01*
X018076Y001778D01*
X018100Y001729D01*
X018128Y001681D01*
X018809Y002900D02*
X018863Y002898D01*
X018916Y002893D01*
X018970Y002884D01*
X019022Y002871D01*
X019073Y002855D01*
X019124Y002835D01*
X019173Y002813D01*
X019220Y002787D01*
X019265Y002757D01*
X019308Y002725D01*
X019349Y002690D01*
X019388Y002652D01*
X019424Y002612D01*
X019420Y001583D02*
X019384Y001544D01*
X019345Y001506D01*
X019305Y001472D01*
X019262Y001440D01*
X019217Y001412D01*
X019170Y001386D01*
X019121Y001363D01*
X019071Y001344D01*
X019020Y001328D01*
X018968Y001316D01*
X018916Y001307D01*
X018862Y001302D01*
X018809Y001300D01*
X019429Y006100D02*
X019429Y007100D01*
X018809Y007400D02*
X018755Y007398D01*
X018701Y007393D01*
X018648Y007384D01*
X018595Y007371D01*
X018544Y007355D01*
X018494Y007335D01*
X018445Y007312D01*
X018397Y007286D01*
X018352Y007257D01*
X018309Y007224D01*
X018268Y007189D01*
X018229Y007151D01*
X018193Y007111D01*
X018160Y007068D01*
X018130Y007023D01*
X018103Y006976D01*
X018114Y006203D02*
X018144Y006155D01*
X018177Y006110D01*
X018213Y006067D01*
X018251Y006026D01*
X018293Y005989D01*
X018337Y005954D01*
X018383Y005923D01*
X018432Y005894D01*
X018482Y005870D01*
X018534Y005849D01*
X018588Y005831D01*
X018642Y005818D01*
X018697Y005808D01*
X018753Y005802D01*
X018809Y005800D01*
X018128Y006181D02*
X018100Y006229D01*
X018076Y006278D01*
X018056Y006330D01*
X018039Y006382D01*
X018026Y006436D01*
X018017Y006490D01*
X018011Y006545D01*
X018009Y006600D01*
X018011Y006656D01*
X018017Y006713D01*
X018027Y006768D01*
X018041Y006823D01*
X018058Y006876D01*
X018080Y006929D01*
X018105Y006979D01*
X018809Y007400D02*
X018863Y007398D01*
X018916Y007393D01*
X018970Y007384D01*
X019022Y007371D01*
X019073Y007355D01*
X019124Y007335D01*
X019173Y007313D01*
X019220Y007287D01*
X019265Y007257D01*
X019308Y007225D01*
X019349Y007190D01*
X019388Y007152D01*
X019424Y007112D01*
X019420Y006083D02*
X019384Y006044D01*
X019345Y006006D01*
X019305Y005972D01*
X019262Y005940D01*
X019217Y005912D01*
X019170Y005886D01*
X019121Y005863D01*
X019071Y005844D01*
X019020Y005828D01*
X018968Y005816D01*
X018916Y005807D01*
X018862Y005802D01*
X018809Y005800D01*
X019429Y010600D02*
X019429Y011600D01*
X018809Y011900D02*
X018755Y011898D01*
X018701Y011893D01*
X018648Y011884D01*
X018595Y011871D01*
X018544Y011855D01*
X018494Y011835D01*
X018445Y011812D01*
X018397Y011786D01*
X018352Y011757D01*
X018309Y011724D01*
X018268Y011689D01*
X018229Y011651D01*
X018193Y011611D01*
X018160Y011568D01*
X018130Y011523D01*
X018103Y011476D01*
X018114Y010703D02*
X018144Y010655D01*
X018177Y010610D01*
X018213Y010567D01*
X018251Y010526D01*
X018293Y010489D01*
X018337Y010454D01*
X018383Y010423D01*
X018432Y010394D01*
X018482Y010370D01*
X018534Y010349D01*
X018588Y010331D01*
X018642Y010318D01*
X018697Y010308D01*
X018753Y010302D01*
X018809Y010300D01*
X018128Y010681D02*
X018100Y010729D01*
X018076Y010778D01*
X018056Y010830D01*
X018039Y010882D01*
X018026Y010936D01*
X018017Y010990D01*
X018011Y011045D01*
X018009Y011100D01*
X018011Y011156D01*
X018017Y011213D01*
X018027Y011268D01*
X018041Y011323D01*
X018058Y011376D01*
X018080Y011429D01*
X018105Y011479D01*
X018809Y011900D02*
X018863Y011898D01*
X018916Y011893D01*
X018970Y011884D01*
X019022Y011871D01*
X019073Y011855D01*
X019124Y011835D01*
X019173Y011813D01*
X019220Y011787D01*
X019265Y011757D01*
X019308Y011725D01*
X019349Y011690D01*
X019388Y011652D01*
X019424Y011612D01*
X019420Y010583D02*
X019384Y010544D01*
X019345Y010506D01*
X019305Y010472D01*
X019262Y010440D01*
X019217Y010412D01*
X019170Y010386D01*
X019121Y010363D01*
X019071Y010344D01*
X019020Y010328D01*
X018968Y010316D01*
X018916Y010307D01*
X018862Y010302D01*
X018809Y010300D01*
X019429Y015100D02*
X019429Y016100D01*
X018809Y016400D02*
X018755Y016398D01*
X018701Y016393D01*
X018648Y016384D01*
X018595Y016371D01*
X018544Y016355D01*
X018494Y016335D01*
X018445Y016312D01*
X018397Y016286D01*
X018352Y016257D01*
X018309Y016224D01*
X018268Y016189D01*
X018229Y016151D01*
X018193Y016111D01*
X018160Y016068D01*
X018130Y016023D01*
X018103Y015976D01*
X018114Y015203D02*
X018144Y015155D01*
X018177Y015110D01*
X018213Y015067D01*
X018251Y015026D01*
X018293Y014989D01*
X018337Y014954D01*
X018383Y014923D01*
X018432Y014894D01*
X018482Y014870D01*
X018534Y014849D01*
X018588Y014831D01*
X018642Y014818D01*
X018697Y014808D01*
X018753Y014802D01*
X018809Y014800D01*
X018128Y015181D02*
X018100Y015229D01*
X018076Y015278D01*
X018056Y015330D01*
X018039Y015382D01*
X018026Y015436D01*
X018017Y015490D01*
X018011Y015545D01*
X018009Y015600D01*
X018011Y015656D01*
X018017Y015713D01*
X018027Y015768D01*
X018041Y015823D01*
X018058Y015876D01*
X018080Y015929D01*
X018105Y015979D01*
X018809Y016400D02*
X018863Y016398D01*
X018916Y016393D01*
X018970Y016384D01*
X019022Y016371D01*
X019073Y016355D01*
X019124Y016335D01*
X019173Y016313D01*
X019220Y016287D01*
X019265Y016257D01*
X019308Y016225D01*
X019349Y016190D01*
X019388Y016152D01*
X019424Y016112D01*
X019420Y015083D02*
X019384Y015044D01*
X019345Y015006D01*
X019305Y014972D01*
X019262Y014940D01*
X019217Y014912D01*
X019170Y014886D01*
X019121Y014863D01*
X019071Y014844D01*
X019020Y014828D01*
X018968Y014816D01*
X018916Y014807D01*
X018862Y014802D01*
X018809Y014800D01*
D12*
X018361Y015201D02*
X018330Y015239D01*
X018302Y015279D01*
X018278Y015321D01*
X018257Y015364D01*
X018240Y015410D01*
X018227Y015456D01*
X018217Y015504D01*
X018211Y015552D01*
X018209Y015600D01*
X018809Y016200D02*
X018856Y016198D01*
X018904Y016192D01*
X018950Y016183D01*
X018996Y016170D01*
X019040Y016154D01*
X019084Y016133D01*
X019125Y016110D01*
X019164Y016084D01*
X019201Y016054D01*
X019236Y016021D01*
X019268Y015986D01*
X019297Y015949D01*
X018809Y015000D02*
X018764Y015002D01*
X018718Y015007D01*
X018674Y015015D01*
X018630Y015027D01*
X018587Y015043D01*
X018545Y015061D01*
X018505Y015083D01*
X018467Y015107D01*
X018431Y015134D01*
X018396Y015164D01*
X018365Y015197D01*
X018335Y015232D01*
X019409Y015600D02*
X019407Y015647D01*
X019402Y015694D01*
X019392Y015740D01*
X019379Y015786D01*
X019363Y015830D01*
X019343Y015873D01*
X019320Y015914D01*
X019294Y015953D01*
X019265Y015990D01*
X019209Y015600D02*
X019207Y015561D01*
X019201Y015522D01*
X019192Y015484D01*
X019179Y015447D01*
X019162Y015411D01*
X019142Y015378D01*
X019118Y015346D01*
X019092Y015317D01*
X019063Y015291D01*
X019031Y015267D01*
X018998Y015247D01*
X018962Y015230D01*
X018925Y015217D01*
X018887Y015208D01*
X018848Y015202D01*
X018809Y015200D01*
X018209Y015600D02*
X018211Y015646D01*
X018216Y015692D01*
X018225Y015738D01*
X018237Y015782D01*
X018253Y015826D01*
X018272Y015868D01*
X018294Y015909D01*
X018320Y015947D01*
X018348Y015984D01*
X018809Y015000D02*
X018854Y015002D01*
X018900Y015007D01*
X018944Y015015D01*
X018988Y015027D01*
X019031Y015043D01*
X019073Y015061D01*
X019113Y015083D01*
X019151Y015107D01*
X019187Y015134D01*
X019222Y015164D01*
X019253Y015197D01*
X019283Y015232D01*
X019059Y015600D02*
X019057Y015570D01*
X019052Y015540D01*
X019043Y015511D01*
X019030Y015484D01*
X019015Y015458D01*
X018996Y015434D01*
X018975Y015413D01*
X018951Y015394D01*
X018925Y015379D01*
X018898Y015366D01*
X018869Y015357D01*
X018839Y015352D01*
X018809Y015350D01*
X018329Y015960D02*
X018358Y015996D01*
X018390Y016030D01*
X018425Y016061D01*
X018461Y016089D01*
X018500Y016114D01*
X018541Y016137D01*
X018583Y016156D01*
X018626Y016172D01*
X018671Y016184D01*
X018717Y016193D01*
X018763Y016198D01*
X018809Y016200D01*
X019409Y015600D02*
X019407Y015554D01*
X019402Y015508D01*
X019393Y015462D01*
X019381Y015418D01*
X019365Y015374D01*
X019346Y015332D01*
X019324Y015291D01*
X019298Y015253D01*
X019270Y015216D01*
X018809Y016000D02*
X018770Y015998D01*
X018731Y015992D01*
X018693Y015983D01*
X018656Y015970D01*
X018620Y015953D01*
X018587Y015933D01*
X018555Y015909D01*
X018526Y015883D01*
X018500Y015854D01*
X018476Y015822D01*
X018456Y015789D01*
X018439Y015753D01*
X018426Y015716D01*
X018417Y015678D01*
X018411Y015639D01*
X018409Y015600D01*
X018559Y015600D02*
X018561Y015630D01*
X018566Y015660D01*
X018575Y015689D01*
X018588Y015716D01*
X018603Y015742D01*
X018622Y015766D01*
X018643Y015787D01*
X018667Y015806D01*
X018693Y015821D01*
X018720Y015834D01*
X018749Y015843D01*
X018779Y015848D01*
X018809Y015850D01*
X019409Y011100D02*
X019407Y011054D01*
X019402Y011008D01*
X019393Y010962D01*
X019381Y010918D01*
X019365Y010874D01*
X019346Y010832D01*
X019324Y010791D01*
X019298Y010753D01*
X019270Y010716D01*
X018361Y010701D02*
X018330Y010739D01*
X018302Y010779D01*
X018278Y010821D01*
X018257Y010864D01*
X018240Y010910D01*
X018227Y010956D01*
X018217Y011004D01*
X018211Y011052D01*
X018209Y011100D01*
X018809Y011700D02*
X018856Y011698D01*
X018904Y011692D01*
X018950Y011683D01*
X018996Y011670D01*
X019040Y011654D01*
X019084Y011633D01*
X019125Y011610D01*
X019164Y011584D01*
X019201Y011554D01*
X019236Y011521D01*
X019268Y011486D01*
X019297Y011449D01*
X018809Y010500D02*
X018764Y010502D01*
X018718Y010507D01*
X018674Y010515D01*
X018630Y010527D01*
X018587Y010543D01*
X018545Y010561D01*
X018505Y010583D01*
X018467Y010607D01*
X018431Y010634D01*
X018396Y010664D01*
X018365Y010697D01*
X018335Y010732D01*
X019409Y011100D02*
X019407Y011147D01*
X019402Y011194D01*
X019392Y011240D01*
X019379Y011286D01*
X019363Y011330D01*
X019343Y011373D01*
X019320Y011414D01*
X019294Y011453D01*
X019265Y011490D01*
X019209Y011100D02*
X019207Y011061D01*
X019201Y011022D01*
X019192Y010984D01*
X019179Y010947D01*
X019162Y010911D01*
X019142Y010878D01*
X019118Y010846D01*
X019092Y010817D01*
X019063Y010791D01*
X019031Y010767D01*
X018998Y010747D01*
X018962Y010730D01*
X018925Y010717D01*
X018887Y010708D01*
X018848Y010702D01*
X018809Y010700D01*
X018209Y011100D02*
X018211Y011146D01*
X018216Y011192D01*
X018225Y011238D01*
X018237Y011282D01*
X018253Y011326D01*
X018272Y011368D01*
X018294Y011409D01*
X018320Y011447D01*
X018348Y011484D01*
X018809Y010500D02*
X018854Y010502D01*
X018900Y010507D01*
X018944Y010515D01*
X018988Y010527D01*
X019031Y010543D01*
X019073Y010561D01*
X019113Y010583D01*
X019151Y010607D01*
X019187Y010634D01*
X019222Y010664D01*
X019253Y010697D01*
X019283Y010732D01*
X019059Y011100D02*
X019057Y011070D01*
X019052Y011040D01*
X019043Y011011D01*
X019030Y010984D01*
X019015Y010958D01*
X018996Y010934D01*
X018975Y010913D01*
X018951Y010894D01*
X018925Y010879D01*
X018898Y010866D01*
X018869Y010857D01*
X018839Y010852D01*
X018809Y010850D01*
X018329Y011460D02*
X018358Y011496D01*
X018390Y011530D01*
X018425Y011561D01*
X018461Y011589D01*
X018500Y011614D01*
X018541Y011637D01*
X018583Y011656D01*
X018626Y011672D01*
X018671Y011684D01*
X018717Y011693D01*
X018763Y011698D01*
X018809Y011700D01*
X018809Y011500D02*
X018770Y011498D01*
X018731Y011492D01*
X018693Y011483D01*
X018656Y011470D01*
X018620Y011453D01*
X018587Y011433D01*
X018555Y011409D01*
X018526Y011383D01*
X018500Y011354D01*
X018476Y011322D01*
X018456Y011289D01*
X018439Y011253D01*
X018426Y011216D01*
X018417Y011178D01*
X018411Y011139D01*
X018409Y011100D01*
X018559Y011100D02*
X018561Y011130D01*
X018566Y011160D01*
X018575Y011189D01*
X018588Y011216D01*
X018603Y011242D01*
X018622Y011266D01*
X018643Y011287D01*
X018667Y011306D01*
X018693Y011321D01*
X018720Y011334D01*
X018749Y011343D01*
X018779Y011348D01*
X018809Y011350D01*
X019409Y006600D02*
X019407Y006554D01*
X019402Y006508D01*
X019393Y006462D01*
X019381Y006418D01*
X019365Y006374D01*
X019346Y006332D01*
X019324Y006291D01*
X019298Y006253D01*
X019270Y006216D01*
X018361Y006201D02*
X018330Y006239D01*
X018302Y006279D01*
X018278Y006321D01*
X018257Y006364D01*
X018240Y006410D01*
X018227Y006456D01*
X018217Y006504D01*
X018211Y006552D01*
X018209Y006600D01*
X018809Y007200D02*
X018856Y007198D01*
X018904Y007192D01*
X018950Y007183D01*
X018996Y007170D01*
X019040Y007154D01*
X019084Y007133D01*
X019125Y007110D01*
X019164Y007084D01*
X019201Y007054D01*
X019236Y007021D01*
X019268Y006986D01*
X019297Y006949D01*
X018809Y006000D02*
X018764Y006002D01*
X018718Y006007D01*
X018674Y006015D01*
X018630Y006027D01*
X018587Y006043D01*
X018545Y006061D01*
X018505Y006083D01*
X018467Y006107D01*
X018431Y006134D01*
X018396Y006164D01*
X018365Y006197D01*
X018335Y006232D01*
X019409Y006600D02*
X019407Y006647D01*
X019402Y006694D01*
X019392Y006740D01*
X019379Y006786D01*
X019363Y006830D01*
X019343Y006873D01*
X019320Y006914D01*
X019294Y006953D01*
X019265Y006990D01*
X019209Y006600D02*
X019207Y006561D01*
X019201Y006522D01*
X019192Y006484D01*
X019179Y006447D01*
X019162Y006411D01*
X019142Y006378D01*
X019118Y006346D01*
X019092Y006317D01*
X019063Y006291D01*
X019031Y006267D01*
X018998Y006247D01*
X018962Y006230D01*
X018925Y006217D01*
X018887Y006208D01*
X018848Y006202D01*
X018809Y006200D01*
X018209Y006600D02*
X018211Y006646D01*
X018216Y006692D01*
X018225Y006738D01*
X018237Y006782D01*
X018253Y006826D01*
X018272Y006868D01*
X018294Y006909D01*
X018320Y006947D01*
X018348Y006984D01*
X018809Y006000D02*
X018854Y006002D01*
X018900Y006007D01*
X018944Y006015D01*
X018988Y006027D01*
X019031Y006043D01*
X019073Y006061D01*
X019113Y006083D01*
X019151Y006107D01*
X019187Y006134D01*
X019222Y006164D01*
X019253Y006197D01*
X019283Y006232D01*
X019059Y006600D02*
X019057Y006570D01*
X019052Y006540D01*
X019043Y006511D01*
X019030Y006484D01*
X019015Y006458D01*
X018996Y006434D01*
X018975Y006413D01*
X018951Y006394D01*
X018925Y006379D01*
X018898Y006366D01*
X018869Y006357D01*
X018839Y006352D01*
X018809Y006350D01*
X018329Y006960D02*
X018358Y006996D01*
X018390Y007030D01*
X018425Y007061D01*
X018461Y007089D01*
X018500Y007114D01*
X018541Y007137D01*
X018583Y007156D01*
X018626Y007172D01*
X018671Y007184D01*
X018717Y007193D01*
X018763Y007198D01*
X018809Y007200D01*
X018809Y007000D02*
X018770Y006998D01*
X018731Y006992D01*
X018693Y006983D01*
X018656Y006970D01*
X018620Y006953D01*
X018587Y006933D01*
X018555Y006909D01*
X018526Y006883D01*
X018500Y006854D01*
X018476Y006822D01*
X018456Y006789D01*
X018439Y006753D01*
X018426Y006716D01*
X018417Y006678D01*
X018411Y006639D01*
X018409Y006600D01*
X018559Y006600D02*
X018561Y006630D01*
X018566Y006660D01*
X018575Y006689D01*
X018588Y006716D01*
X018603Y006742D01*
X018622Y006766D01*
X018643Y006787D01*
X018667Y006806D01*
X018693Y006821D01*
X018720Y006834D01*
X018749Y006843D01*
X018779Y006848D01*
X018809Y006850D01*
X019409Y002100D02*
X019407Y002054D01*
X019402Y002008D01*
X019393Y001962D01*
X019381Y001918D01*
X019365Y001874D01*
X019346Y001832D01*
X019324Y001791D01*
X019298Y001753D01*
X019270Y001716D01*
X018361Y001701D02*
X018330Y001739D01*
X018302Y001779D01*
X018278Y001821D01*
X018257Y001864D01*
X018240Y001910D01*
X018227Y001956D01*
X018217Y002004D01*
X018211Y002052D01*
X018209Y002100D01*
X018809Y002700D02*
X018856Y002698D01*
X018904Y002692D01*
X018950Y002683D01*
X018996Y002670D01*
X019040Y002654D01*
X019084Y002633D01*
X019125Y002610D01*
X019164Y002584D01*
X019201Y002554D01*
X019236Y002521D01*
X019268Y002486D01*
X019297Y002449D01*
X018809Y001500D02*
X018764Y001502D01*
X018718Y001507D01*
X018674Y001515D01*
X018630Y001527D01*
X018587Y001543D01*
X018545Y001561D01*
X018505Y001583D01*
X018467Y001607D01*
X018431Y001634D01*
X018396Y001664D01*
X018365Y001697D01*
X018335Y001732D01*
X019409Y002100D02*
X019407Y002147D01*
X019402Y002194D01*
X019392Y002240D01*
X019379Y002286D01*
X019363Y002330D01*
X019343Y002373D01*
X019320Y002414D01*
X019294Y002453D01*
X019265Y002490D01*
X019209Y002100D02*
X019207Y002061D01*
X019201Y002022D01*
X019192Y001984D01*
X019179Y001947D01*
X019162Y001911D01*
X019142Y001878D01*
X019118Y001846D01*
X019092Y001817D01*
X019063Y001791D01*
X019031Y001767D01*
X018998Y001747D01*
X018962Y001730D01*
X018925Y001717D01*
X018887Y001708D01*
X018848Y001702D01*
X018809Y001700D01*
X018209Y002100D02*
X018211Y002146D01*
X018216Y002192D01*
X018225Y002238D01*
X018237Y002282D01*
X018253Y002326D01*
X018272Y002368D01*
X018294Y002409D01*
X018320Y002447D01*
X018348Y002484D01*
X018809Y001500D02*
X018854Y001502D01*
X018900Y001507D01*
X018944Y001515D01*
X018988Y001527D01*
X019031Y001543D01*
X019073Y001561D01*
X019113Y001583D01*
X019151Y001607D01*
X019187Y001634D01*
X019222Y001664D01*
X019253Y001697D01*
X019283Y001732D01*
X019059Y002100D02*
X019057Y002070D01*
X019052Y002040D01*
X019043Y002011D01*
X019030Y001984D01*
X019015Y001958D01*
X018996Y001934D01*
X018975Y001913D01*
X018951Y001894D01*
X018925Y001879D01*
X018898Y001866D01*
X018869Y001857D01*
X018839Y001852D01*
X018809Y001850D01*
X018329Y002460D02*
X018358Y002496D01*
X018390Y002530D01*
X018425Y002561D01*
X018461Y002589D01*
X018500Y002614D01*
X018541Y002637D01*
X018583Y002656D01*
X018626Y002672D01*
X018671Y002684D01*
X018717Y002693D01*
X018763Y002698D01*
X018809Y002700D01*
X018809Y002500D02*
X018770Y002498D01*
X018731Y002492D01*
X018693Y002483D01*
X018656Y002470D01*
X018620Y002453D01*
X018587Y002433D01*
X018555Y002409D01*
X018526Y002383D01*
X018500Y002354D01*
X018476Y002322D01*
X018456Y002289D01*
X018439Y002253D01*
X018426Y002216D01*
X018417Y002178D01*
X018411Y002139D01*
X018409Y002100D01*
X018559Y002100D02*
X018561Y002130D01*
X018566Y002160D01*
X018575Y002189D01*
X018588Y002216D01*
X018603Y002242D01*
X018622Y002266D01*
X018643Y002287D01*
X018667Y002306D01*
X018693Y002321D01*
X018720Y002334D01*
X018749Y002343D01*
X018779Y002348D01*
X018809Y002350D01*
X008059Y002450D02*
X008059Y001750D01*
X008057Y001733D01*
X008053Y001716D01*
X008046Y001700D01*
X008036Y001686D01*
X008023Y001673D01*
X008009Y001663D01*
X007993Y001656D01*
X007976Y001652D01*
X007959Y001650D01*
X007809Y001650D01*
X007759Y001700D01*
X005859Y001700D01*
X005809Y001650D01*
X005659Y001650D01*
X005642Y001652D01*
X005625Y001656D01*
X005609Y001663D01*
X005595Y001673D01*
X005582Y001686D01*
X005572Y001700D01*
X005565Y001716D01*
X005561Y001733D01*
X005559Y001750D01*
X005559Y002450D01*
X005561Y002467D01*
X005565Y002484D01*
X005572Y002500D01*
X005582Y002514D01*
X005595Y002527D01*
X005609Y002537D01*
X005625Y002544D01*
X005642Y002548D01*
X005659Y002550D01*
X005809Y002550D01*
X005859Y002500D01*
X007759Y002500D01*
X007809Y002550D01*
X007959Y002550D01*
X007976Y002548D01*
X007993Y002544D01*
X008009Y002537D01*
X008023Y002527D01*
X008036Y002514D01*
X008046Y002500D01*
X008053Y002484D01*
X008057Y002467D01*
X008059Y002450D01*
X007959Y006150D02*
X007809Y006150D01*
X007759Y006200D01*
X005859Y006200D01*
X005809Y006150D01*
X005659Y006150D01*
X005642Y006152D01*
X005625Y006156D01*
X005609Y006163D01*
X005595Y006173D01*
X005582Y006186D01*
X005572Y006200D01*
X005565Y006216D01*
X005561Y006233D01*
X005559Y006250D01*
X005559Y006950D01*
X005561Y006967D01*
X005565Y006984D01*
X005572Y007000D01*
X005582Y007014D01*
X005595Y007027D01*
X005609Y007037D01*
X005625Y007044D01*
X005642Y007048D01*
X005659Y007050D01*
X005809Y007050D01*
X005859Y007000D01*
X007759Y007000D01*
X007809Y007050D01*
X007959Y007050D01*
X007976Y007048D01*
X007993Y007044D01*
X008009Y007037D01*
X008023Y007027D01*
X008036Y007014D01*
X008046Y007000D01*
X008053Y006984D01*
X008057Y006967D01*
X008059Y006950D01*
X008059Y006250D01*
X008057Y006233D01*
X008053Y006216D01*
X008046Y006200D01*
X008036Y006186D01*
X008023Y006173D01*
X008009Y006163D01*
X007993Y006156D01*
X007976Y006152D01*
X007959Y006150D01*
X002809Y006000D02*
X002762Y006002D01*
X002714Y006008D01*
X002668Y006017D01*
X002622Y006030D01*
X002578Y006046D01*
X002534Y006067D01*
X002493Y006090D01*
X002454Y006116D01*
X002417Y006146D01*
X002382Y006179D01*
X002350Y006214D01*
X002321Y006251D01*
X002809Y007200D02*
X002854Y007198D01*
X002900Y007193D01*
X002944Y007185D01*
X002988Y007173D01*
X003031Y007157D01*
X003073Y007139D01*
X003113Y007117D01*
X003151Y007093D01*
X003187Y007066D01*
X003222Y007036D01*
X003253Y007003D01*
X003283Y006968D01*
X003257Y006999D02*
X003288Y006961D01*
X003316Y006921D01*
X003340Y006879D01*
X003361Y006836D01*
X003378Y006790D01*
X003391Y006744D01*
X003401Y006696D01*
X003407Y006648D01*
X003409Y006600D01*
X002809Y007200D02*
X002764Y007198D01*
X002718Y007193D01*
X002674Y007185D01*
X002630Y007173D01*
X002587Y007157D01*
X002545Y007139D01*
X002505Y007117D01*
X002467Y007093D01*
X002431Y007066D01*
X002396Y007036D01*
X002365Y007003D01*
X002335Y006968D01*
X002209Y006600D02*
X002211Y006553D01*
X002216Y006506D01*
X002226Y006460D01*
X002239Y006414D01*
X002255Y006370D01*
X002275Y006327D01*
X002298Y006286D01*
X002324Y006247D01*
X002353Y006210D01*
X002209Y006600D02*
X002211Y006646D01*
X002216Y006692D01*
X002225Y006738D01*
X002237Y006782D01*
X002253Y006826D01*
X002272Y006868D01*
X002294Y006909D01*
X002320Y006947D01*
X002348Y006984D01*
X002809Y006000D02*
X002855Y006002D01*
X002901Y006007D01*
X002947Y006016D01*
X002992Y006028D01*
X003035Y006044D01*
X003077Y006063D01*
X003118Y006086D01*
X003157Y006111D01*
X003193Y006139D01*
X003228Y006170D01*
X003260Y006204D01*
X003289Y006240D01*
X002809Y007000D02*
X002770Y006998D01*
X002731Y006992D01*
X002693Y006983D01*
X002656Y006970D01*
X002620Y006953D01*
X002587Y006933D01*
X002555Y006909D01*
X002526Y006883D01*
X002500Y006854D01*
X002476Y006822D01*
X002456Y006789D01*
X002439Y006753D01*
X002426Y006716D01*
X002417Y006678D01*
X002411Y006639D01*
X002409Y006600D01*
X002559Y006600D02*
X002561Y006630D01*
X002566Y006660D01*
X002575Y006689D01*
X002588Y006716D01*
X002603Y006742D01*
X002622Y006766D01*
X002643Y006787D01*
X002667Y006806D01*
X002693Y006821D01*
X002720Y006834D01*
X002749Y006843D01*
X002779Y006848D01*
X002809Y006850D01*
X003409Y006600D02*
X003407Y006554D01*
X003402Y006508D01*
X003393Y006462D01*
X003381Y006418D01*
X003365Y006374D01*
X003346Y006332D01*
X003324Y006291D01*
X003298Y006253D01*
X003270Y006216D01*
X003209Y006600D02*
X003207Y006561D01*
X003201Y006522D01*
X003192Y006484D01*
X003179Y006447D01*
X003162Y006411D01*
X003142Y006378D01*
X003118Y006346D01*
X003092Y006317D01*
X003063Y006291D01*
X003031Y006267D01*
X002998Y006247D01*
X002962Y006230D01*
X002925Y006217D01*
X002887Y006208D01*
X002848Y006202D01*
X002809Y006200D01*
X002809Y006350D02*
X002839Y006352D01*
X002869Y006357D01*
X002898Y006366D01*
X002925Y006379D01*
X002951Y006394D01*
X002975Y006413D01*
X002996Y006434D01*
X003015Y006458D01*
X003030Y006484D01*
X003043Y006511D01*
X003052Y006540D01*
X003057Y006570D01*
X003059Y006600D01*
X005659Y010650D02*
X005809Y010650D01*
X005859Y010700D01*
X007759Y010700D01*
X007809Y010650D01*
X007959Y010650D01*
X007976Y010652D01*
X007993Y010656D01*
X008009Y010663D01*
X008023Y010673D01*
X008036Y010686D01*
X008046Y010700D01*
X008053Y010716D01*
X008057Y010733D01*
X008059Y010750D01*
X008059Y011450D01*
X008057Y011467D01*
X008053Y011484D01*
X008046Y011500D01*
X008036Y011514D01*
X008023Y011527D01*
X008009Y011537D01*
X007993Y011544D01*
X007976Y011548D01*
X007959Y011550D01*
X007809Y011550D01*
X007759Y011500D01*
X005859Y011500D01*
X005809Y011550D01*
X005659Y011550D01*
X005642Y011548D01*
X005625Y011544D01*
X005609Y011537D01*
X005595Y011527D01*
X005582Y011514D01*
X005572Y011500D01*
X005565Y011484D01*
X005561Y011467D01*
X005559Y011450D01*
X005559Y010750D01*
X005561Y010733D01*
X005565Y010716D01*
X005572Y010700D01*
X005582Y010686D01*
X005595Y010673D01*
X005609Y010663D01*
X005625Y010656D01*
X005642Y010652D01*
X005659Y010650D01*
X002809Y010500D02*
X002762Y010502D01*
X002714Y010508D01*
X002668Y010517D01*
X002622Y010530D01*
X002578Y010546D01*
X002534Y010567D01*
X002493Y010590D01*
X002454Y010616D01*
X002417Y010646D01*
X002382Y010679D01*
X002350Y010714D01*
X002321Y010751D01*
X002809Y011700D02*
X002854Y011698D01*
X002900Y011693D01*
X002944Y011685D01*
X002988Y011673D01*
X003031Y011657D01*
X003073Y011639D01*
X003113Y011617D01*
X003151Y011593D01*
X003187Y011566D01*
X003222Y011536D01*
X003253Y011503D01*
X003283Y011468D01*
X003257Y011499D02*
X003288Y011461D01*
X003316Y011421D01*
X003340Y011379D01*
X003361Y011336D01*
X003378Y011290D01*
X003391Y011244D01*
X003401Y011196D01*
X003407Y011148D01*
X003409Y011100D01*
X002809Y011700D02*
X002764Y011698D01*
X002718Y011693D01*
X002674Y011685D01*
X002630Y011673D01*
X002587Y011657D01*
X002545Y011639D01*
X002505Y011617D01*
X002467Y011593D01*
X002431Y011566D01*
X002396Y011536D01*
X002365Y011503D01*
X002335Y011468D01*
X002209Y011100D02*
X002211Y011053D01*
X002216Y011006D01*
X002226Y010960D01*
X002239Y010914D01*
X002255Y010870D01*
X002275Y010827D01*
X002298Y010786D01*
X002324Y010747D01*
X002353Y010710D01*
X002209Y011100D02*
X002211Y011146D01*
X002216Y011192D01*
X002225Y011238D01*
X002237Y011282D01*
X002253Y011326D01*
X002272Y011368D01*
X002294Y011409D01*
X002320Y011447D01*
X002348Y011484D01*
X002809Y010500D02*
X002855Y010502D01*
X002901Y010507D01*
X002947Y010516D01*
X002992Y010528D01*
X003035Y010544D01*
X003077Y010563D01*
X003118Y010586D01*
X003157Y010611D01*
X003193Y010639D01*
X003228Y010670D01*
X003260Y010704D01*
X003289Y010740D01*
X002809Y011500D02*
X002770Y011498D01*
X002731Y011492D01*
X002693Y011483D01*
X002656Y011470D01*
X002620Y011453D01*
X002587Y011433D01*
X002555Y011409D01*
X002526Y011383D01*
X002500Y011354D01*
X002476Y011322D01*
X002456Y011289D01*
X002439Y011253D01*
X002426Y011216D01*
X002417Y011178D01*
X002411Y011139D01*
X002409Y011100D01*
X002559Y011100D02*
X002561Y011130D01*
X002566Y011160D01*
X002575Y011189D01*
X002588Y011216D01*
X002603Y011242D01*
X002622Y011266D01*
X002643Y011287D01*
X002667Y011306D01*
X002693Y011321D01*
X002720Y011334D01*
X002749Y011343D01*
X002779Y011348D01*
X002809Y011350D01*
X003409Y011100D02*
X003407Y011054D01*
X003402Y011008D01*
X003393Y010962D01*
X003381Y010918D01*
X003365Y010874D01*
X003346Y010832D01*
X003324Y010791D01*
X003298Y010753D01*
X003270Y010716D01*
X003209Y011100D02*
X003207Y011061D01*
X003201Y011022D01*
X003192Y010984D01*
X003179Y010947D01*
X003162Y010911D01*
X003142Y010878D01*
X003118Y010846D01*
X003092Y010817D01*
X003063Y010791D01*
X003031Y010767D01*
X002998Y010747D01*
X002962Y010730D01*
X002925Y010717D01*
X002887Y010708D01*
X002848Y010702D01*
X002809Y010700D01*
X002809Y010850D02*
X002839Y010852D01*
X002869Y010857D01*
X002898Y010866D01*
X002925Y010879D01*
X002951Y010894D01*
X002975Y010913D01*
X002996Y010934D01*
X003015Y010958D01*
X003030Y010984D01*
X003043Y011011D01*
X003052Y011040D01*
X003057Y011070D01*
X003059Y011100D01*
X005659Y015150D02*
X005809Y015150D01*
X005859Y015200D01*
X007759Y015200D01*
X007809Y015150D01*
X007959Y015150D01*
X007976Y015152D01*
X007993Y015156D01*
X008009Y015163D01*
X008023Y015173D01*
X008036Y015186D01*
X008046Y015200D01*
X008053Y015216D01*
X008057Y015233D01*
X008059Y015250D01*
X008059Y015950D01*
X008057Y015967D01*
X008053Y015984D01*
X008046Y016000D01*
X008036Y016014D01*
X008023Y016027D01*
X008009Y016037D01*
X007993Y016044D01*
X007976Y016048D01*
X007959Y016050D01*
X007809Y016050D01*
X007759Y016000D01*
X005859Y016000D01*
X005809Y016050D01*
X005659Y016050D01*
X005642Y016048D01*
X005625Y016044D01*
X005609Y016037D01*
X005595Y016027D01*
X005582Y016014D01*
X005572Y016000D01*
X005565Y015984D01*
X005561Y015967D01*
X005559Y015950D01*
X005559Y015250D01*
X005561Y015233D01*
X005565Y015216D01*
X005572Y015200D01*
X005582Y015186D01*
X005595Y015173D01*
X005609Y015163D01*
X005625Y015156D01*
X005642Y015152D01*
X005659Y015150D01*
X002809Y015000D02*
X002762Y015002D01*
X002714Y015008D01*
X002668Y015017D01*
X002622Y015030D01*
X002578Y015046D01*
X002534Y015067D01*
X002493Y015090D01*
X002454Y015116D01*
X002417Y015146D01*
X002382Y015179D01*
X002350Y015214D01*
X002321Y015251D01*
X002809Y016200D02*
X002854Y016198D01*
X002900Y016193D01*
X002944Y016185D01*
X002988Y016173D01*
X003031Y016157D01*
X003073Y016139D01*
X003113Y016117D01*
X003151Y016093D01*
X003187Y016066D01*
X003222Y016036D01*
X003253Y016003D01*
X003283Y015968D01*
X003257Y015999D02*
X003288Y015961D01*
X003316Y015921D01*
X003340Y015879D01*
X003361Y015836D01*
X003378Y015790D01*
X003391Y015744D01*
X003401Y015696D01*
X003407Y015648D01*
X003409Y015600D01*
X002809Y016200D02*
X002764Y016198D01*
X002718Y016193D01*
X002674Y016185D01*
X002630Y016173D01*
X002587Y016157D01*
X002545Y016139D01*
X002505Y016117D01*
X002467Y016093D01*
X002431Y016066D01*
X002396Y016036D01*
X002365Y016003D01*
X002335Y015968D01*
X002209Y015600D02*
X002211Y015553D01*
X002216Y015506D01*
X002226Y015460D01*
X002239Y015414D01*
X002255Y015370D01*
X002275Y015327D01*
X002298Y015286D01*
X002324Y015247D01*
X002353Y015210D01*
X002209Y015600D02*
X002211Y015646D01*
X002216Y015692D01*
X002225Y015738D01*
X002237Y015782D01*
X002253Y015826D01*
X002272Y015868D01*
X002294Y015909D01*
X002320Y015947D01*
X002348Y015984D01*
X002809Y015000D02*
X002855Y015002D01*
X002901Y015007D01*
X002947Y015016D01*
X002992Y015028D01*
X003035Y015044D01*
X003077Y015063D01*
X003118Y015086D01*
X003157Y015111D01*
X003193Y015139D01*
X003228Y015170D01*
X003260Y015204D01*
X003289Y015240D01*
X002809Y016000D02*
X002770Y015998D01*
X002731Y015992D01*
X002693Y015983D01*
X002656Y015970D01*
X002620Y015953D01*
X002587Y015933D01*
X002555Y015909D01*
X002526Y015883D01*
X002500Y015854D01*
X002476Y015822D01*
X002456Y015789D01*
X002439Y015753D01*
X002426Y015716D01*
X002417Y015678D01*
X002411Y015639D01*
X002409Y015600D01*
X002559Y015600D02*
X002561Y015630D01*
X002566Y015660D01*
X002575Y015689D01*
X002588Y015716D01*
X002603Y015742D01*
X002622Y015766D01*
X002643Y015787D01*
X002667Y015806D01*
X002693Y015821D01*
X002720Y015834D01*
X002749Y015843D01*
X002779Y015848D01*
X002809Y015850D01*
X003409Y015600D02*
X003407Y015554D01*
X003402Y015508D01*
X003393Y015462D01*
X003381Y015418D01*
X003365Y015374D01*
X003346Y015332D01*
X003324Y015291D01*
X003298Y015253D01*
X003270Y015216D01*
X003209Y015600D02*
X003207Y015561D01*
X003201Y015522D01*
X003192Y015484D01*
X003179Y015447D01*
X003162Y015411D01*
X003142Y015378D01*
X003118Y015346D01*
X003092Y015317D01*
X003063Y015291D01*
X003031Y015267D01*
X002998Y015247D01*
X002962Y015230D01*
X002925Y015217D01*
X002887Y015208D01*
X002848Y015202D01*
X002809Y015200D01*
X002809Y015350D02*
X002839Y015352D01*
X002869Y015357D01*
X002898Y015366D01*
X002925Y015379D01*
X002951Y015394D01*
X002975Y015413D01*
X002996Y015434D01*
X003015Y015458D01*
X003030Y015484D01*
X003043Y015511D01*
X003052Y015540D01*
X003057Y015570D01*
X003059Y015600D01*
X003257Y002499D02*
X003288Y002461D01*
X003316Y002421D01*
X003340Y002379D01*
X003361Y002336D01*
X003378Y002290D01*
X003391Y002244D01*
X003401Y002196D01*
X003407Y002148D01*
X003409Y002100D01*
X002809Y001500D02*
X002762Y001502D01*
X002714Y001508D01*
X002668Y001517D01*
X002622Y001530D01*
X002578Y001546D01*
X002534Y001567D01*
X002493Y001590D01*
X002454Y001616D01*
X002417Y001646D01*
X002382Y001679D01*
X002350Y001714D01*
X002321Y001751D01*
X002809Y002700D02*
X002854Y002698D01*
X002900Y002693D01*
X002944Y002685D01*
X002988Y002673D01*
X003031Y002657D01*
X003073Y002639D01*
X003113Y002617D01*
X003151Y002593D01*
X003187Y002566D01*
X003222Y002536D01*
X003253Y002503D01*
X003283Y002468D01*
X002209Y002100D02*
X002211Y002053D01*
X002216Y002006D01*
X002226Y001960D01*
X002239Y001914D01*
X002255Y001870D01*
X002275Y001827D01*
X002298Y001786D01*
X002324Y001747D01*
X002353Y001710D01*
X002209Y002100D02*
X002211Y002146D01*
X002216Y002192D01*
X002225Y002238D01*
X002237Y002282D01*
X002253Y002326D01*
X002272Y002368D01*
X002294Y002409D01*
X002320Y002447D01*
X002348Y002484D01*
X002809Y001500D02*
X002855Y001502D01*
X002901Y001507D01*
X002947Y001516D01*
X002992Y001528D01*
X003035Y001544D01*
X003077Y001563D01*
X003118Y001586D01*
X003157Y001611D01*
X003193Y001639D01*
X003228Y001670D01*
X003260Y001704D01*
X003289Y001740D01*
X002809Y002700D02*
X002764Y002698D01*
X002718Y002693D01*
X002674Y002685D01*
X002630Y002673D01*
X002587Y002657D01*
X002545Y002639D01*
X002505Y002617D01*
X002467Y002593D01*
X002431Y002566D01*
X002396Y002536D01*
X002365Y002503D01*
X002335Y002468D01*
X002409Y002100D02*
X002411Y002139D01*
X002417Y002178D01*
X002426Y002216D01*
X002439Y002253D01*
X002456Y002289D01*
X002476Y002322D01*
X002500Y002354D01*
X002526Y002383D01*
X002555Y002409D01*
X002587Y002433D01*
X002620Y002453D01*
X002656Y002470D01*
X002693Y002483D01*
X002731Y002492D01*
X002770Y002498D01*
X002809Y002500D01*
X003409Y002100D02*
X003407Y002054D01*
X003402Y002008D01*
X003393Y001962D01*
X003381Y001918D01*
X003365Y001874D01*
X003346Y001832D01*
X003324Y001791D01*
X003298Y001753D01*
X003270Y001716D01*
X002809Y002350D02*
X002779Y002348D01*
X002749Y002343D01*
X002720Y002334D01*
X002693Y002321D01*
X002667Y002306D01*
X002643Y002287D01*
X002622Y002266D01*
X002603Y002242D01*
X002588Y002216D01*
X002575Y002189D01*
X002566Y002160D01*
X002561Y002130D01*
X002559Y002100D01*
X002809Y001700D02*
X002848Y001702D01*
X002887Y001708D01*
X002925Y001717D01*
X002962Y001730D01*
X002998Y001747D01*
X003031Y001767D01*
X003063Y001791D01*
X003092Y001817D01*
X003118Y001846D01*
X003142Y001878D01*
X003162Y001911D01*
X003179Y001947D01*
X003192Y001984D01*
X003201Y002022D01*
X003207Y002061D01*
X003209Y002100D01*
X003059Y002100D02*
X003057Y002070D01*
X003052Y002040D01*
X003043Y002011D01*
X003030Y001984D01*
X003015Y001958D01*
X002996Y001934D01*
X002975Y001913D01*
X002951Y001894D01*
X002925Y001879D01*
X002898Y001866D01*
X002869Y001857D01*
X002839Y001852D01*
X002809Y001850D01*
D13*
X004809Y002100D02*
X005209Y002100D01*
X008409Y002100D02*
X008809Y002100D01*
X008809Y006600D02*
X008409Y006600D01*
X005209Y006600D02*
X004809Y006600D01*
X004809Y011100D02*
X005209Y011100D01*
X008409Y011100D02*
X008809Y011100D01*
X008809Y015600D02*
X008409Y015600D01*
X005209Y015600D02*
X004809Y015600D01*
D14*
X005389Y015600D03*
X008229Y015600D03*
X008229Y011100D03*
X005389Y011100D03*
X005389Y006600D03*
X008229Y006600D03*
X008229Y002100D03*
X005389Y002100D03*
M02*
