G75*
G70*
%OFA0B0*%
%FSLAX24Y24*%
%IPPOS*%
%LPD*%
%AMOC8*
5,1,8,0,0,1.08239X$1,22.5*
%
%ADD10R,1.9291X1.8000*%
%ADD11OC8,0.0600*%
%ADD12R,0.0710X0.0790*%
%ADD13C,0.0674*%
%ADD14OC8,0.0740*%
D10*
X010955Y009100D03*
D11*
X002309Y002100D03*
X003309Y002100D03*
X003309Y006600D03*
X002309Y006600D03*
X002309Y011100D03*
X003309Y011100D03*
X003309Y015600D03*
X002309Y015600D03*
X018309Y015600D03*
X019309Y015600D03*
X019309Y011100D03*
X018309Y011100D03*
X018309Y006600D03*
X019309Y006600D03*
X019309Y002100D03*
X018309Y002100D03*
D12*
X007494Y001975D03*
X006374Y001975D03*
X006374Y006475D03*
X007494Y006475D03*
X007494Y010975D03*
X006374Y010975D03*
X006374Y015475D03*
X007494Y015475D03*
D13*
X010809Y015303D02*
X010809Y015897D01*
X011809Y015897D02*
X011809Y015303D01*
X011809Y011397D02*
X011809Y010803D01*
X010809Y010803D02*
X010809Y011397D01*
X010809Y006897D02*
X010809Y006303D01*
X011809Y006303D02*
X011809Y006897D01*
X011809Y002397D02*
X011809Y001803D01*
X010809Y001803D02*
X010809Y002397D01*
D14*
X008809Y002100D03*
X004809Y002100D03*
X004809Y006600D03*
X008809Y006600D03*
X008809Y011100D03*
X004809Y011100D03*
X004809Y015600D03*
X008809Y015600D03*
M02*
