%
M48
M72
T01C0.0320
T02C0.0394
%
T01
X2309Y2100
X3309Y2100
X4809Y2100
X8809Y2100
X8809Y6600
X4809Y6600
X3309Y6600
X2309Y6600
X2309Y11100
X3309Y11100
X4809Y11100
X8809Y11100
X8809Y15600
X4809Y15600
X3309Y15600
X2309Y15600
X18309Y15600
X19309Y15600
X19309Y11100
X18309Y11100
X18309Y6600
X19309Y6600
X19309Y2100
X18309Y2100
T02
X11809Y2100
X10809Y2100
X10809Y6600
X11809Y6600
X11809Y11100
X10809Y11100
X10809Y15600
X11809Y15600
M30
