G75*
G70*
%OFA0B0*%
%FSLAX24Y24*%
%IPPOS*%
%LPD*%
%AMOC8*
5,1,8,0,0,1.08239X$1,22.5*
%
%ADD10C,0.0060*%
%ADD11R,0.0290X0.0690*%
%ADD12C,0.0050*%
D10*
X006559Y001655D02*
X007314Y001655D01*
X007314Y002295D02*
X006559Y002295D01*
X006559Y006155D02*
X007314Y006155D01*
X007314Y006795D02*
X006559Y006795D01*
X006559Y010655D02*
X007314Y010655D01*
X007314Y011295D02*
X006559Y011295D01*
X006559Y015155D02*
X007314Y015155D01*
X007314Y015795D02*
X006559Y015795D01*
D11*
X006414Y001975D03*
X007454Y001975D03*
X007454Y006475D03*
X006414Y006475D03*
X006414Y010975D03*
X007454Y010975D03*
X007454Y015475D03*
X006414Y015475D03*
D12*
X007048Y015280D02*
X007273Y015505D01*
X007348Y015430D02*
X007048Y015730D01*
X007348Y015730D02*
X007348Y015280D01*
X007509Y015280D02*
X007809Y015280D01*
X007659Y015280D02*
X007659Y015730D01*
X007809Y015580D01*
X007659Y011230D02*
X007659Y010780D01*
X007809Y010780D02*
X007509Y010780D01*
X007348Y010780D02*
X007348Y011230D01*
X007273Y011005D02*
X007048Y010780D01*
X007348Y010930D02*
X007048Y011230D01*
X007659Y011230D02*
X007809Y011080D01*
X007659Y006730D02*
X007659Y006280D01*
X007809Y006280D02*
X007509Y006280D01*
X007348Y006280D02*
X007348Y006730D01*
X007273Y006505D02*
X007048Y006280D01*
X007348Y006430D02*
X007048Y006730D01*
X007659Y006730D02*
X007809Y006580D01*
X007659Y002230D02*
X007659Y001780D01*
X007809Y001780D02*
X007509Y001780D01*
X007348Y001780D02*
X007348Y002230D01*
X007273Y002005D02*
X007048Y001780D01*
X007348Y001930D02*
X007048Y002230D01*
X007659Y002230D02*
X007809Y002080D01*
M02*
