G75*
G70*
%OFA0B0*%
%FSLAX24Y24*%
%IPPOS*%
%LPD*%
%AMOC8*
5,1,8,0,0,1.08239X$1,22.5*
%
%ADD10R,1.9291X1.8000*%
%ADD11OC8,0.0520*%
%ADD12R,0.0630X0.0710*%
%ADD13C,0.0594*%
%ADD14OC8,0.0660*%
%ADD15C,0.0240*%
D10*
X010955Y009100D03*
D11*
X002309Y002100D03*
X003309Y002100D03*
X003309Y006600D03*
X002309Y006600D03*
X002309Y011100D03*
X003309Y011100D03*
X003309Y015600D03*
X002309Y015600D03*
X018309Y015600D03*
X019309Y015600D03*
X019309Y011100D03*
X018309Y011100D03*
X018309Y006600D03*
X019309Y006600D03*
X019309Y002100D03*
X018309Y002100D03*
D12*
X007494Y001975D03*
X006374Y001975D03*
X006374Y006475D03*
X007494Y006475D03*
X007494Y010975D03*
X006374Y010975D03*
X006374Y015475D03*
X007494Y015475D03*
D13*
X010809Y015303D02*
X010809Y015897D01*
X011809Y015897D02*
X011809Y015303D01*
X011809Y011397D02*
X011809Y010803D01*
X010809Y010803D02*
X010809Y011397D01*
X010809Y006897D02*
X010809Y006303D01*
X011809Y006303D02*
X011809Y006897D01*
X011809Y002397D02*
X011809Y001803D01*
X010809Y001803D02*
X010809Y002397D01*
D14*
X008809Y002100D03*
X004809Y002100D03*
X004809Y006600D03*
X008809Y006600D03*
X008809Y011100D03*
X004809Y011100D03*
X004809Y015600D03*
X008809Y015600D03*
D15*
X008809Y015475D01*
X007494Y015475D01*
X006374Y015475D02*
X004809Y015475D01*
X004809Y015600D01*
X004809Y016600D01*
X002309Y016600D01*
X002309Y015600D01*
X003309Y015600D02*
X003309Y014600D01*
X019309Y014600D01*
X019309Y015600D01*
X018309Y015600D02*
X011809Y015600D01*
X010809Y015600D02*
X008809Y015600D01*
X004809Y012100D02*
X004809Y011100D01*
X004809Y010975D01*
X006374Y010975D01*
X007494Y010975D02*
X008809Y010975D01*
X008809Y011100D01*
X010809Y011100D01*
X011809Y011100D02*
X018309Y011100D01*
X019309Y011100D02*
X019309Y010100D01*
X003309Y010100D01*
X003309Y011100D01*
X002309Y011100D02*
X002309Y012100D01*
X004809Y012100D01*
X004809Y007600D02*
X002309Y007600D01*
X002309Y006600D01*
X003309Y006600D02*
X003309Y005600D01*
X019309Y005600D01*
X019309Y006600D01*
X018309Y006600D02*
X011809Y006600D01*
X010809Y006600D02*
X008809Y006600D01*
X008809Y006475D01*
X007494Y006475D01*
X006374Y006475D02*
X004809Y006475D01*
X004809Y006600D01*
X004809Y007600D01*
X004809Y003100D02*
X002309Y003100D01*
X002309Y002100D01*
X003309Y002100D02*
X003309Y001100D01*
X019309Y001100D01*
X019309Y002100D01*
X018309Y002100D02*
X011809Y002100D01*
X010809Y002100D02*
X008809Y002100D01*
X008809Y001975D01*
X007494Y001975D01*
X006374Y001975D02*
X004809Y001975D01*
X004809Y002100D01*
X004809Y003100D01*
M02*
