G75*
%MOIN*%
%OFA0B0*%
%FSLAX24Y24*%
%IPPOS*%
%LPD*%
%AMOC8*
5,1,8,0,0,1.08239X$1,22.5*
%
%ADD10C,0.0000*%
%ADD11C,0.0060*%
%ADD12C,0.0040*%
%ADD13R,0.0551X0.0256*%
%ADD14R,0.1299X0.0374*%
%ADD15R,0.0669X0.0295*%
%ADD16C,0.0080*%
%ADD17C,0.0010*%
%ADD18R,0.1260X0.0730*%
%ADD19R,0.0340X0.0730*%
%ADD20R,0.0295X0.0669*%
%ADD21R,0.0560X0.0140*%
%ADD22R,0.0730X0.1260*%
%ADD23R,0.0730X0.0340*%
%ADD24R,0.0140X0.0560*%
%ADD25C,0.0050*%
%ADD26R,0.0500X0.0500*%
%ADD27R,0.0250X0.0500*%
%ADD28R,0.2000X0.1000*%
%ADD29R,0.1000X0.2000*%
%ADD30R,0.0256X0.0551*%
D10*
X012596Y000100D02*
X012596Y027396D01*
X051666Y027396D01*
X051666Y000100D01*
X012596Y000100D01*
X015771Y001575D02*
X015773Y001601D01*
X015779Y001627D01*
X015788Y001651D01*
X015801Y001674D01*
X015818Y001694D01*
X015837Y001712D01*
X015859Y001727D01*
X015882Y001738D01*
X015907Y001746D01*
X015933Y001750D01*
X015959Y001750D01*
X015985Y001746D01*
X016010Y001738D01*
X016034Y001727D01*
X016055Y001712D01*
X016074Y001694D01*
X016091Y001674D01*
X016104Y001651D01*
X016113Y001627D01*
X016119Y001601D01*
X016121Y001575D01*
X016119Y001549D01*
X016113Y001523D01*
X016104Y001499D01*
X016091Y001476D01*
X016074Y001456D01*
X016055Y001438D01*
X016033Y001423D01*
X016010Y001412D01*
X015985Y001404D01*
X015959Y001400D01*
X015933Y001400D01*
X015907Y001404D01*
X015882Y001412D01*
X015858Y001423D01*
X015837Y001438D01*
X015818Y001456D01*
X015801Y001476D01*
X015788Y001499D01*
X015779Y001523D01*
X015773Y001549D01*
X015771Y001575D01*
X016571Y001575D02*
X016573Y001601D01*
X016579Y001627D01*
X016588Y001651D01*
X016601Y001674D01*
X016618Y001694D01*
X016637Y001712D01*
X016659Y001727D01*
X016682Y001738D01*
X016707Y001746D01*
X016733Y001750D01*
X016759Y001750D01*
X016785Y001746D01*
X016810Y001738D01*
X016834Y001727D01*
X016855Y001712D01*
X016874Y001694D01*
X016891Y001674D01*
X016904Y001651D01*
X016913Y001627D01*
X016919Y001601D01*
X016921Y001575D01*
X016919Y001549D01*
X016913Y001523D01*
X016904Y001499D01*
X016891Y001476D01*
X016874Y001456D01*
X016855Y001438D01*
X016833Y001423D01*
X016810Y001412D01*
X016785Y001404D01*
X016759Y001400D01*
X016733Y001400D01*
X016707Y001404D01*
X016682Y001412D01*
X016658Y001423D01*
X016637Y001438D01*
X016618Y001456D01*
X016601Y001476D01*
X016588Y001499D01*
X016579Y001523D01*
X016573Y001549D01*
X016571Y001575D01*
X016171Y003575D02*
X016173Y003601D01*
X016179Y003627D01*
X016188Y003651D01*
X016201Y003674D01*
X016218Y003694D01*
X016237Y003712D01*
X016259Y003727D01*
X016282Y003738D01*
X016307Y003746D01*
X016333Y003750D01*
X016359Y003750D01*
X016385Y003746D01*
X016410Y003738D01*
X016434Y003727D01*
X016455Y003712D01*
X016474Y003694D01*
X016491Y003674D01*
X016504Y003651D01*
X016513Y003627D01*
X016519Y003601D01*
X016521Y003575D01*
X016519Y003549D01*
X016513Y003523D01*
X016504Y003499D01*
X016491Y003476D01*
X016474Y003456D01*
X016455Y003438D01*
X016433Y003423D01*
X016410Y003412D01*
X016385Y003404D01*
X016359Y003400D01*
X016333Y003400D01*
X016307Y003404D01*
X016282Y003412D01*
X016258Y003423D01*
X016237Y003438D01*
X016218Y003456D01*
X016201Y003476D01*
X016188Y003499D01*
X016179Y003523D01*
X016173Y003549D01*
X016171Y003575D01*
X020956Y006200D02*
X020958Y006250D01*
X020964Y006300D01*
X020974Y006349D01*
X020987Y006398D01*
X021005Y006445D01*
X021026Y006491D01*
X021050Y006534D01*
X021078Y006576D01*
X021109Y006616D01*
X021143Y006653D01*
X021180Y006687D01*
X021220Y006718D01*
X021262Y006746D01*
X021305Y006770D01*
X021351Y006791D01*
X021398Y006809D01*
X021447Y006822D01*
X021496Y006832D01*
X021546Y006838D01*
X021596Y006840D01*
X021646Y006838D01*
X021696Y006832D01*
X021745Y006822D01*
X021794Y006809D01*
X021841Y006791D01*
X021887Y006770D01*
X021930Y006746D01*
X021972Y006718D01*
X022012Y006687D01*
X022049Y006653D01*
X022083Y006616D01*
X022114Y006576D01*
X022142Y006534D01*
X022166Y006491D01*
X022187Y006445D01*
X022205Y006398D01*
X022218Y006349D01*
X022228Y006300D01*
X022234Y006250D01*
X022236Y006200D01*
X022234Y006150D01*
X022228Y006100D01*
X022218Y006051D01*
X022205Y006002D01*
X022187Y005955D01*
X022166Y005909D01*
X022142Y005866D01*
X022114Y005824D01*
X022083Y005784D01*
X022049Y005747D01*
X022012Y005713D01*
X021972Y005682D01*
X021930Y005654D01*
X021887Y005630D01*
X021841Y005609D01*
X021794Y005591D01*
X021745Y005578D01*
X021696Y005568D01*
X021646Y005562D01*
X021596Y005560D01*
X021546Y005562D01*
X021496Y005568D01*
X021447Y005578D01*
X021398Y005591D01*
X021351Y005609D01*
X021305Y005630D01*
X021262Y005654D01*
X021220Y005682D01*
X021180Y005713D01*
X021143Y005747D01*
X021109Y005784D01*
X021078Y005824D01*
X021050Y005866D01*
X021026Y005909D01*
X021005Y005955D01*
X020987Y006002D01*
X020974Y006051D01*
X020964Y006100D01*
X020958Y006150D01*
X020956Y006200D01*
X024956Y006200D02*
X024958Y006250D01*
X024964Y006300D01*
X024974Y006349D01*
X024987Y006398D01*
X025005Y006445D01*
X025026Y006491D01*
X025050Y006534D01*
X025078Y006576D01*
X025109Y006616D01*
X025143Y006653D01*
X025180Y006687D01*
X025220Y006718D01*
X025262Y006746D01*
X025305Y006770D01*
X025351Y006791D01*
X025398Y006809D01*
X025447Y006822D01*
X025496Y006832D01*
X025546Y006838D01*
X025596Y006840D01*
X025646Y006838D01*
X025696Y006832D01*
X025745Y006822D01*
X025794Y006809D01*
X025841Y006791D01*
X025887Y006770D01*
X025930Y006746D01*
X025972Y006718D01*
X026012Y006687D01*
X026049Y006653D01*
X026083Y006616D01*
X026114Y006576D01*
X026142Y006534D01*
X026166Y006491D01*
X026187Y006445D01*
X026205Y006398D01*
X026218Y006349D01*
X026228Y006300D01*
X026234Y006250D01*
X026236Y006200D01*
X026234Y006150D01*
X026228Y006100D01*
X026218Y006051D01*
X026205Y006002D01*
X026187Y005955D01*
X026166Y005909D01*
X026142Y005866D01*
X026114Y005824D01*
X026083Y005784D01*
X026049Y005747D01*
X026012Y005713D01*
X025972Y005682D01*
X025930Y005654D01*
X025887Y005630D01*
X025841Y005609D01*
X025794Y005591D01*
X025745Y005578D01*
X025696Y005568D01*
X025646Y005562D01*
X025596Y005560D01*
X025546Y005562D01*
X025496Y005568D01*
X025447Y005578D01*
X025398Y005591D01*
X025351Y005609D01*
X025305Y005630D01*
X025262Y005654D01*
X025220Y005682D01*
X025180Y005713D01*
X025143Y005747D01*
X025109Y005784D01*
X025078Y005824D01*
X025050Y005866D01*
X025026Y005909D01*
X025005Y005955D01*
X024987Y006002D01*
X024974Y006051D01*
X024964Y006100D01*
X024958Y006150D01*
X024956Y006200D01*
X027456Y006200D02*
X027458Y006250D01*
X027464Y006300D01*
X027474Y006349D01*
X027487Y006398D01*
X027505Y006445D01*
X027526Y006491D01*
X027550Y006534D01*
X027578Y006576D01*
X027609Y006616D01*
X027643Y006653D01*
X027680Y006687D01*
X027720Y006718D01*
X027762Y006746D01*
X027805Y006770D01*
X027851Y006791D01*
X027898Y006809D01*
X027947Y006822D01*
X027996Y006832D01*
X028046Y006838D01*
X028096Y006840D01*
X028146Y006838D01*
X028196Y006832D01*
X028245Y006822D01*
X028294Y006809D01*
X028341Y006791D01*
X028387Y006770D01*
X028430Y006746D01*
X028472Y006718D01*
X028512Y006687D01*
X028549Y006653D01*
X028583Y006616D01*
X028614Y006576D01*
X028642Y006534D01*
X028666Y006491D01*
X028687Y006445D01*
X028705Y006398D01*
X028718Y006349D01*
X028728Y006300D01*
X028734Y006250D01*
X028736Y006200D01*
X028734Y006150D01*
X028728Y006100D01*
X028718Y006051D01*
X028705Y006002D01*
X028687Y005955D01*
X028666Y005909D01*
X028642Y005866D01*
X028614Y005824D01*
X028583Y005784D01*
X028549Y005747D01*
X028512Y005713D01*
X028472Y005682D01*
X028430Y005654D01*
X028387Y005630D01*
X028341Y005609D01*
X028294Y005591D01*
X028245Y005578D01*
X028196Y005568D01*
X028146Y005562D01*
X028096Y005560D01*
X028046Y005562D01*
X027996Y005568D01*
X027947Y005578D01*
X027898Y005591D01*
X027851Y005609D01*
X027805Y005630D01*
X027762Y005654D01*
X027720Y005682D01*
X027680Y005713D01*
X027643Y005747D01*
X027609Y005784D01*
X027578Y005824D01*
X027550Y005866D01*
X027526Y005909D01*
X027505Y005955D01*
X027487Y006002D01*
X027474Y006051D01*
X027464Y006100D01*
X027458Y006150D01*
X027456Y006200D01*
X031456Y006200D02*
X031458Y006250D01*
X031464Y006300D01*
X031474Y006349D01*
X031487Y006398D01*
X031505Y006445D01*
X031526Y006491D01*
X031550Y006534D01*
X031578Y006576D01*
X031609Y006616D01*
X031643Y006653D01*
X031680Y006687D01*
X031720Y006718D01*
X031762Y006746D01*
X031805Y006770D01*
X031851Y006791D01*
X031898Y006809D01*
X031947Y006822D01*
X031996Y006832D01*
X032046Y006838D01*
X032096Y006840D01*
X032146Y006838D01*
X032196Y006832D01*
X032245Y006822D01*
X032294Y006809D01*
X032341Y006791D01*
X032387Y006770D01*
X032430Y006746D01*
X032472Y006718D01*
X032512Y006687D01*
X032549Y006653D01*
X032583Y006616D01*
X032614Y006576D01*
X032642Y006534D01*
X032666Y006491D01*
X032687Y006445D01*
X032705Y006398D01*
X032718Y006349D01*
X032728Y006300D01*
X032734Y006250D01*
X032736Y006200D01*
X032734Y006150D01*
X032728Y006100D01*
X032718Y006051D01*
X032705Y006002D01*
X032687Y005955D01*
X032666Y005909D01*
X032642Y005866D01*
X032614Y005824D01*
X032583Y005784D01*
X032549Y005747D01*
X032512Y005713D01*
X032472Y005682D01*
X032430Y005654D01*
X032387Y005630D01*
X032341Y005609D01*
X032294Y005591D01*
X032245Y005578D01*
X032196Y005568D01*
X032146Y005562D01*
X032096Y005560D01*
X032046Y005562D01*
X031996Y005568D01*
X031947Y005578D01*
X031898Y005591D01*
X031851Y005609D01*
X031805Y005630D01*
X031762Y005654D01*
X031720Y005682D01*
X031680Y005713D01*
X031643Y005747D01*
X031609Y005784D01*
X031578Y005824D01*
X031550Y005866D01*
X031526Y005909D01*
X031505Y005955D01*
X031487Y006002D01*
X031474Y006051D01*
X031464Y006100D01*
X031458Y006150D01*
X031456Y006200D01*
X033956Y006200D02*
X033958Y006250D01*
X033964Y006300D01*
X033974Y006349D01*
X033987Y006398D01*
X034005Y006445D01*
X034026Y006491D01*
X034050Y006534D01*
X034078Y006576D01*
X034109Y006616D01*
X034143Y006653D01*
X034180Y006687D01*
X034220Y006718D01*
X034262Y006746D01*
X034305Y006770D01*
X034351Y006791D01*
X034398Y006809D01*
X034447Y006822D01*
X034496Y006832D01*
X034546Y006838D01*
X034596Y006840D01*
X034646Y006838D01*
X034696Y006832D01*
X034745Y006822D01*
X034794Y006809D01*
X034841Y006791D01*
X034887Y006770D01*
X034930Y006746D01*
X034972Y006718D01*
X035012Y006687D01*
X035049Y006653D01*
X035083Y006616D01*
X035114Y006576D01*
X035142Y006534D01*
X035166Y006491D01*
X035187Y006445D01*
X035205Y006398D01*
X035218Y006349D01*
X035228Y006300D01*
X035234Y006250D01*
X035236Y006200D01*
X035234Y006150D01*
X035228Y006100D01*
X035218Y006051D01*
X035205Y006002D01*
X035187Y005955D01*
X035166Y005909D01*
X035142Y005866D01*
X035114Y005824D01*
X035083Y005784D01*
X035049Y005747D01*
X035012Y005713D01*
X034972Y005682D01*
X034930Y005654D01*
X034887Y005630D01*
X034841Y005609D01*
X034794Y005591D01*
X034745Y005578D01*
X034696Y005568D01*
X034646Y005562D01*
X034596Y005560D01*
X034546Y005562D01*
X034496Y005568D01*
X034447Y005578D01*
X034398Y005591D01*
X034351Y005609D01*
X034305Y005630D01*
X034262Y005654D01*
X034220Y005682D01*
X034180Y005713D01*
X034143Y005747D01*
X034109Y005784D01*
X034078Y005824D01*
X034050Y005866D01*
X034026Y005909D01*
X034005Y005955D01*
X033987Y006002D01*
X033974Y006051D01*
X033964Y006100D01*
X033958Y006150D01*
X033956Y006200D01*
X037956Y006200D02*
X037958Y006250D01*
X037964Y006300D01*
X037974Y006349D01*
X037987Y006398D01*
X038005Y006445D01*
X038026Y006491D01*
X038050Y006534D01*
X038078Y006576D01*
X038109Y006616D01*
X038143Y006653D01*
X038180Y006687D01*
X038220Y006718D01*
X038262Y006746D01*
X038305Y006770D01*
X038351Y006791D01*
X038398Y006809D01*
X038447Y006822D01*
X038496Y006832D01*
X038546Y006838D01*
X038596Y006840D01*
X038646Y006838D01*
X038696Y006832D01*
X038745Y006822D01*
X038794Y006809D01*
X038841Y006791D01*
X038887Y006770D01*
X038930Y006746D01*
X038972Y006718D01*
X039012Y006687D01*
X039049Y006653D01*
X039083Y006616D01*
X039114Y006576D01*
X039142Y006534D01*
X039166Y006491D01*
X039187Y006445D01*
X039205Y006398D01*
X039218Y006349D01*
X039228Y006300D01*
X039234Y006250D01*
X039236Y006200D01*
X039234Y006150D01*
X039228Y006100D01*
X039218Y006051D01*
X039205Y006002D01*
X039187Y005955D01*
X039166Y005909D01*
X039142Y005866D01*
X039114Y005824D01*
X039083Y005784D01*
X039049Y005747D01*
X039012Y005713D01*
X038972Y005682D01*
X038930Y005654D01*
X038887Y005630D01*
X038841Y005609D01*
X038794Y005591D01*
X038745Y005578D01*
X038696Y005568D01*
X038646Y005562D01*
X038596Y005560D01*
X038546Y005562D01*
X038496Y005568D01*
X038447Y005578D01*
X038398Y005591D01*
X038351Y005609D01*
X038305Y005630D01*
X038262Y005654D01*
X038220Y005682D01*
X038180Y005713D01*
X038143Y005747D01*
X038109Y005784D01*
X038078Y005824D01*
X038050Y005866D01*
X038026Y005909D01*
X038005Y005955D01*
X037987Y006002D01*
X037974Y006051D01*
X037964Y006100D01*
X037958Y006150D01*
X037956Y006200D01*
X014419Y015334D02*
X014421Y015360D01*
X014427Y015386D01*
X014437Y015411D01*
X014450Y015434D01*
X014466Y015454D01*
X014486Y015472D01*
X014508Y015487D01*
X014531Y015499D01*
X014557Y015507D01*
X014583Y015511D01*
X014609Y015511D01*
X014635Y015507D01*
X014661Y015499D01*
X014685Y015487D01*
X014706Y015472D01*
X014726Y015454D01*
X014742Y015434D01*
X014755Y015411D01*
X014765Y015386D01*
X014771Y015360D01*
X014773Y015334D01*
X014771Y015308D01*
X014765Y015282D01*
X014755Y015257D01*
X014742Y015234D01*
X014726Y015214D01*
X014706Y015196D01*
X014684Y015181D01*
X014661Y015169D01*
X014635Y015161D01*
X014609Y015157D01*
X014583Y015157D01*
X014557Y015161D01*
X014531Y015169D01*
X014507Y015181D01*
X014486Y015196D01*
X014466Y015214D01*
X014450Y015234D01*
X014437Y015257D01*
X014427Y015282D01*
X014421Y015308D01*
X014419Y015334D01*
X014419Y017066D02*
X014421Y017092D01*
X014427Y017118D01*
X014437Y017143D01*
X014450Y017166D01*
X014466Y017186D01*
X014486Y017204D01*
X014508Y017219D01*
X014531Y017231D01*
X014557Y017239D01*
X014583Y017243D01*
X014609Y017243D01*
X014635Y017239D01*
X014661Y017231D01*
X014685Y017219D01*
X014706Y017204D01*
X014726Y017186D01*
X014742Y017166D01*
X014755Y017143D01*
X014765Y017118D01*
X014771Y017092D01*
X014773Y017066D01*
X014771Y017040D01*
X014765Y017014D01*
X014755Y016989D01*
X014742Y016966D01*
X014726Y016946D01*
X014706Y016928D01*
X014684Y016913D01*
X014661Y016901D01*
X014635Y016893D01*
X014609Y016889D01*
X014583Y016889D01*
X014557Y016893D01*
X014531Y016901D01*
X014507Y016913D01*
X014486Y016928D01*
X014466Y016946D01*
X014450Y016966D01*
X014437Y016989D01*
X014427Y017014D01*
X014421Y017040D01*
X014419Y017066D01*
X015956Y021700D02*
X015958Y021750D01*
X015964Y021800D01*
X015974Y021849D01*
X015987Y021898D01*
X016005Y021945D01*
X016026Y021991D01*
X016050Y022034D01*
X016078Y022076D01*
X016109Y022116D01*
X016143Y022153D01*
X016180Y022187D01*
X016220Y022218D01*
X016262Y022246D01*
X016305Y022270D01*
X016351Y022291D01*
X016398Y022309D01*
X016447Y022322D01*
X016496Y022332D01*
X016546Y022338D01*
X016596Y022340D01*
X016646Y022338D01*
X016696Y022332D01*
X016745Y022322D01*
X016794Y022309D01*
X016841Y022291D01*
X016887Y022270D01*
X016930Y022246D01*
X016972Y022218D01*
X017012Y022187D01*
X017049Y022153D01*
X017083Y022116D01*
X017114Y022076D01*
X017142Y022034D01*
X017166Y021991D01*
X017187Y021945D01*
X017205Y021898D01*
X017218Y021849D01*
X017228Y021800D01*
X017234Y021750D01*
X017236Y021700D01*
X017234Y021650D01*
X017228Y021600D01*
X017218Y021551D01*
X017205Y021502D01*
X017187Y021455D01*
X017166Y021409D01*
X017142Y021366D01*
X017114Y021324D01*
X017083Y021284D01*
X017049Y021247D01*
X017012Y021213D01*
X016972Y021182D01*
X016930Y021154D01*
X016887Y021130D01*
X016841Y021109D01*
X016794Y021091D01*
X016745Y021078D01*
X016696Y021068D01*
X016646Y021062D01*
X016596Y021060D01*
X016546Y021062D01*
X016496Y021068D01*
X016447Y021078D01*
X016398Y021091D01*
X016351Y021109D01*
X016305Y021130D01*
X016262Y021154D01*
X016220Y021182D01*
X016180Y021213D01*
X016143Y021247D01*
X016109Y021284D01*
X016078Y021324D01*
X016050Y021366D01*
X016026Y021409D01*
X016005Y021455D01*
X015987Y021502D01*
X015974Y021551D01*
X015964Y021600D01*
X015958Y021650D01*
X015956Y021700D01*
X019956Y021700D02*
X019958Y021750D01*
X019964Y021800D01*
X019974Y021849D01*
X019987Y021898D01*
X020005Y021945D01*
X020026Y021991D01*
X020050Y022034D01*
X020078Y022076D01*
X020109Y022116D01*
X020143Y022153D01*
X020180Y022187D01*
X020220Y022218D01*
X020262Y022246D01*
X020305Y022270D01*
X020351Y022291D01*
X020398Y022309D01*
X020447Y022322D01*
X020496Y022332D01*
X020546Y022338D01*
X020596Y022340D01*
X020646Y022338D01*
X020696Y022332D01*
X020745Y022322D01*
X020794Y022309D01*
X020841Y022291D01*
X020887Y022270D01*
X020930Y022246D01*
X020972Y022218D01*
X021012Y022187D01*
X021049Y022153D01*
X021083Y022116D01*
X021114Y022076D01*
X021142Y022034D01*
X021166Y021991D01*
X021187Y021945D01*
X021205Y021898D01*
X021218Y021849D01*
X021228Y021800D01*
X021234Y021750D01*
X021236Y021700D01*
X021234Y021650D01*
X021228Y021600D01*
X021218Y021551D01*
X021205Y021502D01*
X021187Y021455D01*
X021166Y021409D01*
X021142Y021366D01*
X021114Y021324D01*
X021083Y021284D01*
X021049Y021247D01*
X021012Y021213D01*
X020972Y021182D01*
X020930Y021154D01*
X020887Y021130D01*
X020841Y021109D01*
X020794Y021091D01*
X020745Y021078D01*
X020696Y021068D01*
X020646Y021062D01*
X020596Y021060D01*
X020546Y021062D01*
X020496Y021068D01*
X020447Y021078D01*
X020398Y021091D01*
X020351Y021109D01*
X020305Y021130D01*
X020262Y021154D01*
X020220Y021182D01*
X020180Y021213D01*
X020143Y021247D01*
X020109Y021284D01*
X020078Y021324D01*
X020050Y021366D01*
X020026Y021409D01*
X020005Y021455D01*
X019987Y021502D01*
X019974Y021551D01*
X019964Y021600D01*
X019958Y021650D01*
X019956Y021700D01*
X022456Y021700D02*
X022458Y021750D01*
X022464Y021800D01*
X022474Y021849D01*
X022487Y021898D01*
X022505Y021945D01*
X022526Y021991D01*
X022550Y022034D01*
X022578Y022076D01*
X022609Y022116D01*
X022643Y022153D01*
X022680Y022187D01*
X022720Y022218D01*
X022762Y022246D01*
X022805Y022270D01*
X022851Y022291D01*
X022898Y022309D01*
X022947Y022322D01*
X022996Y022332D01*
X023046Y022338D01*
X023096Y022340D01*
X023146Y022338D01*
X023196Y022332D01*
X023245Y022322D01*
X023294Y022309D01*
X023341Y022291D01*
X023387Y022270D01*
X023430Y022246D01*
X023472Y022218D01*
X023512Y022187D01*
X023549Y022153D01*
X023583Y022116D01*
X023614Y022076D01*
X023642Y022034D01*
X023666Y021991D01*
X023687Y021945D01*
X023705Y021898D01*
X023718Y021849D01*
X023728Y021800D01*
X023734Y021750D01*
X023736Y021700D01*
X023734Y021650D01*
X023728Y021600D01*
X023718Y021551D01*
X023705Y021502D01*
X023687Y021455D01*
X023666Y021409D01*
X023642Y021366D01*
X023614Y021324D01*
X023583Y021284D01*
X023549Y021247D01*
X023512Y021213D01*
X023472Y021182D01*
X023430Y021154D01*
X023387Y021130D01*
X023341Y021109D01*
X023294Y021091D01*
X023245Y021078D01*
X023196Y021068D01*
X023146Y021062D01*
X023096Y021060D01*
X023046Y021062D01*
X022996Y021068D01*
X022947Y021078D01*
X022898Y021091D01*
X022851Y021109D01*
X022805Y021130D01*
X022762Y021154D01*
X022720Y021182D01*
X022680Y021213D01*
X022643Y021247D01*
X022609Y021284D01*
X022578Y021324D01*
X022550Y021366D01*
X022526Y021409D01*
X022505Y021455D01*
X022487Y021502D01*
X022474Y021551D01*
X022464Y021600D01*
X022458Y021650D01*
X022456Y021700D01*
X026456Y021700D02*
X026458Y021750D01*
X026464Y021800D01*
X026474Y021849D01*
X026487Y021898D01*
X026505Y021945D01*
X026526Y021991D01*
X026550Y022034D01*
X026578Y022076D01*
X026609Y022116D01*
X026643Y022153D01*
X026680Y022187D01*
X026720Y022218D01*
X026762Y022246D01*
X026805Y022270D01*
X026851Y022291D01*
X026898Y022309D01*
X026947Y022322D01*
X026996Y022332D01*
X027046Y022338D01*
X027096Y022340D01*
X027146Y022338D01*
X027196Y022332D01*
X027245Y022322D01*
X027294Y022309D01*
X027341Y022291D01*
X027387Y022270D01*
X027430Y022246D01*
X027472Y022218D01*
X027512Y022187D01*
X027549Y022153D01*
X027583Y022116D01*
X027614Y022076D01*
X027642Y022034D01*
X027666Y021991D01*
X027687Y021945D01*
X027705Y021898D01*
X027718Y021849D01*
X027728Y021800D01*
X027734Y021750D01*
X027736Y021700D01*
X027734Y021650D01*
X027728Y021600D01*
X027718Y021551D01*
X027705Y021502D01*
X027687Y021455D01*
X027666Y021409D01*
X027642Y021366D01*
X027614Y021324D01*
X027583Y021284D01*
X027549Y021247D01*
X027512Y021213D01*
X027472Y021182D01*
X027430Y021154D01*
X027387Y021130D01*
X027341Y021109D01*
X027294Y021091D01*
X027245Y021078D01*
X027196Y021068D01*
X027146Y021062D01*
X027096Y021060D01*
X027046Y021062D01*
X026996Y021068D01*
X026947Y021078D01*
X026898Y021091D01*
X026851Y021109D01*
X026805Y021130D01*
X026762Y021154D01*
X026720Y021182D01*
X026680Y021213D01*
X026643Y021247D01*
X026609Y021284D01*
X026578Y021324D01*
X026550Y021366D01*
X026526Y021409D01*
X026505Y021455D01*
X026487Y021502D01*
X026474Y021551D01*
X026464Y021600D01*
X026458Y021650D01*
X026456Y021700D01*
X028956Y021700D02*
X028958Y021750D01*
X028964Y021800D01*
X028974Y021849D01*
X028987Y021898D01*
X029005Y021945D01*
X029026Y021991D01*
X029050Y022034D01*
X029078Y022076D01*
X029109Y022116D01*
X029143Y022153D01*
X029180Y022187D01*
X029220Y022218D01*
X029262Y022246D01*
X029305Y022270D01*
X029351Y022291D01*
X029398Y022309D01*
X029447Y022322D01*
X029496Y022332D01*
X029546Y022338D01*
X029596Y022340D01*
X029646Y022338D01*
X029696Y022332D01*
X029745Y022322D01*
X029794Y022309D01*
X029841Y022291D01*
X029887Y022270D01*
X029930Y022246D01*
X029972Y022218D01*
X030012Y022187D01*
X030049Y022153D01*
X030083Y022116D01*
X030114Y022076D01*
X030142Y022034D01*
X030166Y021991D01*
X030187Y021945D01*
X030205Y021898D01*
X030218Y021849D01*
X030228Y021800D01*
X030234Y021750D01*
X030236Y021700D01*
X030234Y021650D01*
X030228Y021600D01*
X030218Y021551D01*
X030205Y021502D01*
X030187Y021455D01*
X030166Y021409D01*
X030142Y021366D01*
X030114Y021324D01*
X030083Y021284D01*
X030049Y021247D01*
X030012Y021213D01*
X029972Y021182D01*
X029930Y021154D01*
X029887Y021130D01*
X029841Y021109D01*
X029794Y021091D01*
X029745Y021078D01*
X029696Y021068D01*
X029646Y021062D01*
X029596Y021060D01*
X029546Y021062D01*
X029496Y021068D01*
X029447Y021078D01*
X029398Y021091D01*
X029351Y021109D01*
X029305Y021130D01*
X029262Y021154D01*
X029220Y021182D01*
X029180Y021213D01*
X029143Y021247D01*
X029109Y021284D01*
X029078Y021324D01*
X029050Y021366D01*
X029026Y021409D01*
X029005Y021455D01*
X028987Y021502D01*
X028974Y021551D01*
X028964Y021600D01*
X028958Y021650D01*
X028956Y021700D01*
X032956Y021700D02*
X032958Y021750D01*
X032964Y021800D01*
X032974Y021849D01*
X032987Y021898D01*
X033005Y021945D01*
X033026Y021991D01*
X033050Y022034D01*
X033078Y022076D01*
X033109Y022116D01*
X033143Y022153D01*
X033180Y022187D01*
X033220Y022218D01*
X033262Y022246D01*
X033305Y022270D01*
X033351Y022291D01*
X033398Y022309D01*
X033447Y022322D01*
X033496Y022332D01*
X033546Y022338D01*
X033596Y022340D01*
X033646Y022338D01*
X033696Y022332D01*
X033745Y022322D01*
X033794Y022309D01*
X033841Y022291D01*
X033887Y022270D01*
X033930Y022246D01*
X033972Y022218D01*
X034012Y022187D01*
X034049Y022153D01*
X034083Y022116D01*
X034114Y022076D01*
X034142Y022034D01*
X034166Y021991D01*
X034187Y021945D01*
X034205Y021898D01*
X034218Y021849D01*
X034228Y021800D01*
X034234Y021750D01*
X034236Y021700D01*
X034234Y021650D01*
X034228Y021600D01*
X034218Y021551D01*
X034205Y021502D01*
X034187Y021455D01*
X034166Y021409D01*
X034142Y021366D01*
X034114Y021324D01*
X034083Y021284D01*
X034049Y021247D01*
X034012Y021213D01*
X033972Y021182D01*
X033930Y021154D01*
X033887Y021130D01*
X033841Y021109D01*
X033794Y021091D01*
X033745Y021078D01*
X033696Y021068D01*
X033646Y021062D01*
X033596Y021060D01*
X033546Y021062D01*
X033496Y021068D01*
X033447Y021078D01*
X033398Y021091D01*
X033351Y021109D01*
X033305Y021130D01*
X033262Y021154D01*
X033220Y021182D01*
X033180Y021213D01*
X033143Y021247D01*
X033109Y021284D01*
X033078Y021324D01*
X033050Y021366D01*
X033026Y021409D01*
X033005Y021455D01*
X032987Y021502D01*
X032974Y021551D01*
X032964Y021600D01*
X032958Y021650D01*
X032956Y021700D01*
X035456Y021700D02*
X035458Y021750D01*
X035464Y021800D01*
X035474Y021849D01*
X035487Y021898D01*
X035505Y021945D01*
X035526Y021991D01*
X035550Y022034D01*
X035578Y022076D01*
X035609Y022116D01*
X035643Y022153D01*
X035680Y022187D01*
X035720Y022218D01*
X035762Y022246D01*
X035805Y022270D01*
X035851Y022291D01*
X035898Y022309D01*
X035947Y022322D01*
X035996Y022332D01*
X036046Y022338D01*
X036096Y022340D01*
X036146Y022338D01*
X036196Y022332D01*
X036245Y022322D01*
X036294Y022309D01*
X036341Y022291D01*
X036387Y022270D01*
X036430Y022246D01*
X036472Y022218D01*
X036512Y022187D01*
X036549Y022153D01*
X036583Y022116D01*
X036614Y022076D01*
X036642Y022034D01*
X036666Y021991D01*
X036687Y021945D01*
X036705Y021898D01*
X036718Y021849D01*
X036728Y021800D01*
X036734Y021750D01*
X036736Y021700D01*
X036734Y021650D01*
X036728Y021600D01*
X036718Y021551D01*
X036705Y021502D01*
X036687Y021455D01*
X036666Y021409D01*
X036642Y021366D01*
X036614Y021324D01*
X036583Y021284D01*
X036549Y021247D01*
X036512Y021213D01*
X036472Y021182D01*
X036430Y021154D01*
X036387Y021130D01*
X036341Y021109D01*
X036294Y021091D01*
X036245Y021078D01*
X036196Y021068D01*
X036146Y021062D01*
X036096Y021060D01*
X036046Y021062D01*
X035996Y021068D01*
X035947Y021078D01*
X035898Y021091D01*
X035851Y021109D01*
X035805Y021130D01*
X035762Y021154D01*
X035720Y021182D01*
X035680Y021213D01*
X035643Y021247D01*
X035609Y021284D01*
X035578Y021324D01*
X035550Y021366D01*
X035526Y021409D01*
X035505Y021455D01*
X035487Y021502D01*
X035474Y021551D01*
X035464Y021600D01*
X035458Y021650D01*
X035456Y021700D01*
X039456Y021700D02*
X039458Y021750D01*
X039464Y021800D01*
X039474Y021849D01*
X039487Y021898D01*
X039505Y021945D01*
X039526Y021991D01*
X039550Y022034D01*
X039578Y022076D01*
X039609Y022116D01*
X039643Y022153D01*
X039680Y022187D01*
X039720Y022218D01*
X039762Y022246D01*
X039805Y022270D01*
X039851Y022291D01*
X039898Y022309D01*
X039947Y022322D01*
X039996Y022332D01*
X040046Y022338D01*
X040096Y022340D01*
X040146Y022338D01*
X040196Y022332D01*
X040245Y022322D01*
X040294Y022309D01*
X040341Y022291D01*
X040387Y022270D01*
X040430Y022246D01*
X040472Y022218D01*
X040512Y022187D01*
X040549Y022153D01*
X040583Y022116D01*
X040614Y022076D01*
X040642Y022034D01*
X040666Y021991D01*
X040687Y021945D01*
X040705Y021898D01*
X040718Y021849D01*
X040728Y021800D01*
X040734Y021750D01*
X040736Y021700D01*
X040734Y021650D01*
X040728Y021600D01*
X040718Y021551D01*
X040705Y021502D01*
X040687Y021455D01*
X040666Y021409D01*
X040642Y021366D01*
X040614Y021324D01*
X040583Y021284D01*
X040549Y021247D01*
X040512Y021213D01*
X040472Y021182D01*
X040430Y021154D01*
X040387Y021130D01*
X040341Y021109D01*
X040294Y021091D01*
X040245Y021078D01*
X040196Y021068D01*
X040146Y021062D01*
X040096Y021060D01*
X040046Y021062D01*
X039996Y021068D01*
X039947Y021078D01*
X039898Y021091D01*
X039851Y021109D01*
X039805Y021130D01*
X039762Y021154D01*
X039720Y021182D01*
X039680Y021213D01*
X039643Y021247D01*
X039609Y021284D01*
X039578Y021324D01*
X039550Y021366D01*
X039526Y021409D01*
X039505Y021455D01*
X039487Y021502D01*
X039474Y021551D01*
X039464Y021600D01*
X039458Y021650D01*
X039456Y021700D01*
X041956Y021700D02*
X041958Y021750D01*
X041964Y021800D01*
X041974Y021849D01*
X041987Y021898D01*
X042005Y021945D01*
X042026Y021991D01*
X042050Y022034D01*
X042078Y022076D01*
X042109Y022116D01*
X042143Y022153D01*
X042180Y022187D01*
X042220Y022218D01*
X042262Y022246D01*
X042305Y022270D01*
X042351Y022291D01*
X042398Y022309D01*
X042447Y022322D01*
X042496Y022332D01*
X042546Y022338D01*
X042596Y022340D01*
X042646Y022338D01*
X042696Y022332D01*
X042745Y022322D01*
X042794Y022309D01*
X042841Y022291D01*
X042887Y022270D01*
X042930Y022246D01*
X042972Y022218D01*
X043012Y022187D01*
X043049Y022153D01*
X043083Y022116D01*
X043114Y022076D01*
X043142Y022034D01*
X043166Y021991D01*
X043187Y021945D01*
X043205Y021898D01*
X043218Y021849D01*
X043228Y021800D01*
X043234Y021750D01*
X043236Y021700D01*
X043234Y021650D01*
X043228Y021600D01*
X043218Y021551D01*
X043205Y021502D01*
X043187Y021455D01*
X043166Y021409D01*
X043142Y021366D01*
X043114Y021324D01*
X043083Y021284D01*
X043049Y021247D01*
X043012Y021213D01*
X042972Y021182D01*
X042930Y021154D01*
X042887Y021130D01*
X042841Y021109D01*
X042794Y021091D01*
X042745Y021078D01*
X042696Y021068D01*
X042646Y021062D01*
X042596Y021060D01*
X042546Y021062D01*
X042496Y021068D01*
X042447Y021078D01*
X042398Y021091D01*
X042351Y021109D01*
X042305Y021130D01*
X042262Y021154D01*
X042220Y021182D01*
X042180Y021213D01*
X042143Y021247D01*
X042109Y021284D01*
X042078Y021324D01*
X042050Y021366D01*
X042026Y021409D01*
X042005Y021455D01*
X041987Y021502D01*
X041974Y021551D01*
X041964Y021600D01*
X041958Y021650D01*
X041956Y021700D01*
X045956Y021700D02*
X045958Y021750D01*
X045964Y021800D01*
X045974Y021849D01*
X045987Y021898D01*
X046005Y021945D01*
X046026Y021991D01*
X046050Y022034D01*
X046078Y022076D01*
X046109Y022116D01*
X046143Y022153D01*
X046180Y022187D01*
X046220Y022218D01*
X046262Y022246D01*
X046305Y022270D01*
X046351Y022291D01*
X046398Y022309D01*
X046447Y022322D01*
X046496Y022332D01*
X046546Y022338D01*
X046596Y022340D01*
X046646Y022338D01*
X046696Y022332D01*
X046745Y022322D01*
X046794Y022309D01*
X046841Y022291D01*
X046887Y022270D01*
X046930Y022246D01*
X046972Y022218D01*
X047012Y022187D01*
X047049Y022153D01*
X047083Y022116D01*
X047114Y022076D01*
X047142Y022034D01*
X047166Y021991D01*
X047187Y021945D01*
X047205Y021898D01*
X047218Y021849D01*
X047228Y021800D01*
X047234Y021750D01*
X047236Y021700D01*
X047234Y021650D01*
X047228Y021600D01*
X047218Y021551D01*
X047205Y021502D01*
X047187Y021455D01*
X047166Y021409D01*
X047142Y021366D01*
X047114Y021324D01*
X047083Y021284D01*
X047049Y021247D01*
X047012Y021213D01*
X046972Y021182D01*
X046930Y021154D01*
X046887Y021130D01*
X046841Y021109D01*
X046794Y021091D01*
X046745Y021078D01*
X046696Y021068D01*
X046646Y021062D01*
X046596Y021060D01*
X046546Y021062D01*
X046496Y021068D01*
X046447Y021078D01*
X046398Y021091D01*
X046351Y021109D01*
X046305Y021130D01*
X046262Y021154D01*
X046220Y021182D01*
X046180Y021213D01*
X046143Y021247D01*
X046109Y021284D01*
X046078Y021324D01*
X046050Y021366D01*
X046026Y021409D01*
X046005Y021455D01*
X045987Y021502D01*
X045974Y021551D01*
X045964Y021600D01*
X045958Y021650D01*
X045956Y021700D01*
X013915Y009684D02*
X013917Y009720D01*
X013923Y009756D01*
X013933Y009791D01*
X013946Y009825D01*
X013963Y009857D01*
X013983Y009887D01*
X014007Y009914D01*
X014033Y009939D01*
X014062Y009961D01*
X014093Y009980D01*
X014126Y009995D01*
X014160Y010007D01*
X014196Y010015D01*
X014232Y010019D01*
X014268Y010019D01*
X014304Y010015D01*
X014340Y010007D01*
X014374Y009995D01*
X014407Y009980D01*
X014438Y009961D01*
X014467Y009939D01*
X014493Y009914D01*
X014517Y009887D01*
X014537Y009857D01*
X014554Y009825D01*
X014567Y009791D01*
X014577Y009756D01*
X014583Y009720D01*
X014585Y009684D01*
X014583Y009648D01*
X014577Y009612D01*
X014567Y009577D01*
X014554Y009543D01*
X014537Y009511D01*
X014517Y009481D01*
X014493Y009454D01*
X014467Y009429D01*
X014438Y009407D01*
X014407Y009388D01*
X014374Y009373D01*
X014340Y009361D01*
X014304Y009353D01*
X014268Y009349D01*
X014232Y009349D01*
X014196Y009353D01*
X014160Y009361D01*
X014126Y009373D01*
X014093Y009388D01*
X014062Y009407D01*
X014033Y009429D01*
X014007Y009454D01*
X013983Y009481D01*
X013963Y009511D01*
X013946Y009543D01*
X013933Y009577D01*
X013923Y009612D01*
X013917Y009648D01*
X013915Y009684D01*
X013915Y007716D02*
X013917Y007752D01*
X013923Y007788D01*
X013933Y007823D01*
X013946Y007857D01*
X013963Y007889D01*
X013983Y007919D01*
X014007Y007946D01*
X014033Y007971D01*
X014062Y007993D01*
X014093Y008012D01*
X014126Y008027D01*
X014160Y008039D01*
X014196Y008047D01*
X014232Y008051D01*
X014268Y008051D01*
X014304Y008047D01*
X014340Y008039D01*
X014374Y008027D01*
X014407Y008012D01*
X014438Y007993D01*
X014467Y007971D01*
X014493Y007946D01*
X014517Y007919D01*
X014537Y007889D01*
X014554Y007857D01*
X014567Y007823D01*
X014577Y007788D01*
X014583Y007752D01*
X014585Y007716D01*
X014583Y007680D01*
X014577Y007644D01*
X014567Y007609D01*
X014554Y007575D01*
X014537Y007543D01*
X014517Y007513D01*
X014493Y007486D01*
X014467Y007461D01*
X014438Y007439D01*
X014407Y007420D01*
X014374Y007405D01*
X014340Y007393D01*
X014304Y007385D01*
X014268Y007381D01*
X014232Y007381D01*
X014196Y007385D01*
X014160Y007393D01*
X014126Y007405D01*
X014093Y007420D01*
X014062Y007439D01*
X014033Y007461D01*
X014007Y007486D01*
X013983Y007513D01*
X013963Y007543D01*
X013946Y007575D01*
X013933Y007609D01*
X013923Y007644D01*
X013917Y007680D01*
X013915Y007716D01*
D11*
X022846Y011420D02*
X022846Y011980D01*
X023346Y011980D02*
X023346Y011420D01*
X035316Y007950D02*
X035876Y007950D01*
X035876Y007450D02*
X035316Y007450D01*
X037316Y007450D02*
X037876Y007450D01*
X037876Y007950D02*
X037316Y007950D01*
X037935Y009450D02*
X038258Y009450D01*
X038258Y009950D02*
X037935Y009950D01*
X036258Y009950D02*
X035935Y009950D01*
X035935Y009450D02*
X036258Y009450D01*
X043846Y006361D02*
X043846Y006039D01*
X044346Y006039D02*
X044346Y006361D01*
X044846Y006361D02*
X044846Y006039D01*
X045346Y006039D02*
X045346Y006361D01*
X028596Y024789D02*
X028596Y025111D01*
X028096Y025111D02*
X028096Y024789D01*
X022096Y025039D02*
X022096Y025361D01*
X021596Y025361D02*
X021596Y025039D01*
X034596Y025039D02*
X034596Y025361D01*
X035096Y025361D02*
X035096Y025039D01*
X041096Y025039D02*
X041096Y025361D01*
X041596Y025361D02*
X041596Y025039D01*
X047596Y025039D02*
X047596Y025361D01*
X048096Y025361D02*
X048096Y025039D01*
D12*
X047327Y025123D02*
X046866Y025123D01*
X046866Y024970D02*
X046866Y025277D01*
X046866Y025430D02*
X047327Y025430D01*
X047173Y025661D02*
X047020Y025430D01*
X046866Y025661D01*
X047327Y025123D02*
X047173Y024970D01*
X040827Y025123D02*
X040366Y025123D01*
X040366Y024970D02*
X040366Y025277D01*
X040366Y025430D02*
X040827Y025430D01*
X040673Y025661D02*
X040520Y025430D01*
X040366Y025661D01*
X040827Y025123D02*
X040673Y024970D01*
X034327Y025123D02*
X033866Y025123D01*
X033866Y024970D02*
X033866Y025277D01*
X033866Y025430D02*
X034327Y025430D01*
X034173Y025661D02*
X034020Y025430D01*
X033866Y025661D01*
X034327Y025123D02*
X034173Y024970D01*
X027827Y024873D02*
X027366Y024873D01*
X027366Y024720D02*
X027366Y025027D01*
X027366Y025180D02*
X027827Y025180D01*
X027673Y025411D02*
X027520Y025180D01*
X027366Y025411D01*
X027827Y024873D02*
X027673Y024720D01*
X021327Y025123D02*
X020866Y025123D01*
X020866Y024970D02*
X020866Y025277D01*
X020866Y025430D02*
X021327Y025430D01*
X021173Y025661D02*
X021020Y025430D01*
X020866Y025661D01*
X021327Y025123D02*
X021173Y024970D01*
X019878Y020700D02*
X019648Y020700D01*
X019571Y020624D01*
X019571Y020547D01*
X019648Y020470D01*
X019878Y020470D01*
X019648Y020470D02*
X019571Y020393D01*
X019571Y020317D01*
X019648Y020240D01*
X019878Y020240D01*
X019878Y020700D01*
X019418Y020624D02*
X019418Y020547D01*
X019341Y020470D01*
X019188Y020470D01*
X019111Y020393D01*
X019111Y020317D01*
X019188Y020240D01*
X019341Y020240D01*
X019418Y020317D01*
X019418Y020624D02*
X019341Y020700D01*
X019188Y020700D01*
X019111Y020624D01*
X018958Y020700D02*
X018958Y020240D01*
X018958Y020393D02*
X018727Y020393D01*
X018651Y020470D01*
X018651Y020624D01*
X018727Y020700D01*
X018958Y020700D01*
X018497Y020700D02*
X018190Y020700D01*
X018190Y020624D01*
X018497Y020317D01*
X018497Y020240D01*
X018037Y020317D02*
X017960Y020240D01*
X017807Y020240D01*
X017730Y020317D01*
X017730Y020470D01*
X017807Y020547D01*
X017883Y020547D01*
X018037Y020470D01*
X018037Y020700D01*
X017730Y020700D01*
X018577Y017408D02*
X018577Y017101D01*
X018116Y017101D01*
X018116Y016948D02*
X018423Y016948D01*
X018347Y017101D02*
X018347Y017255D01*
X018116Y016948D02*
X018116Y016718D01*
X018193Y016641D01*
X018423Y016641D01*
X018500Y016487D02*
X018193Y016487D01*
X018116Y016411D01*
X018116Y016257D01*
X018193Y016180D01*
X018500Y016487D01*
X018577Y016411D01*
X018577Y016257D01*
X018500Y016180D01*
X018193Y016180D01*
X018116Y016027D02*
X018116Y015720D01*
X018116Y015873D02*
X018577Y015873D01*
X018423Y015720D01*
X018786Y015820D02*
X018786Y016580D01*
X019406Y016580D02*
X019406Y015820D01*
X023616Y016220D02*
X023616Y016527D01*
X023616Y016373D02*
X024077Y016373D01*
X023923Y016220D01*
X024286Y016320D02*
X024286Y017080D01*
X024077Y016911D02*
X024000Y016987D01*
X023693Y016680D01*
X023616Y016757D01*
X023616Y016911D01*
X023693Y016987D01*
X024000Y016987D01*
X024077Y016911D02*
X024077Y016757D01*
X024000Y016680D01*
X023693Y016680D01*
X023693Y017141D02*
X023616Y017218D01*
X023616Y017448D01*
X023923Y017448D01*
X023847Y017601D02*
X023847Y017755D01*
X024077Y017601D02*
X024077Y017908D01*
X024077Y017601D02*
X023616Y017601D01*
X023693Y017141D02*
X023923Y017141D01*
X024906Y017080D02*
X024906Y016320D01*
X025286Y016320D02*
X025286Y017080D01*
X025906Y017080D02*
X025906Y016320D01*
X026116Y016299D02*
X026423Y016299D01*
X026423Y016529D01*
X026347Y016606D01*
X026116Y016606D01*
X026116Y016760D02*
X026577Y016760D01*
X026577Y017067D01*
X026347Y016913D02*
X026347Y016760D01*
X026500Y016146D02*
X026193Y015839D01*
X026116Y015916D01*
X026116Y016069D01*
X026193Y016146D01*
X026500Y016146D01*
X026577Y016069D01*
X026577Y015916D01*
X026500Y015839D01*
X026193Y015839D01*
X026193Y015685D02*
X026116Y015609D01*
X026116Y015455D01*
X026193Y015378D01*
X026500Y015685D01*
X026193Y015685D01*
X026193Y015378D02*
X026500Y015378D01*
X026577Y015455D01*
X026577Y015609D01*
X026500Y015685D01*
X026116Y015225D02*
X026116Y014918D01*
X026116Y015071D02*
X026577Y015071D01*
X026423Y014918D01*
X024577Y013368D02*
X024577Y013062D01*
X024116Y013062D01*
X024116Y012908D02*
X024347Y012908D01*
X024423Y012831D01*
X024423Y012601D01*
X024116Y012601D01*
X024193Y012448D02*
X024116Y012371D01*
X024116Y012218D01*
X024193Y012141D01*
X024500Y012448D01*
X024193Y012448D01*
X024500Y012448D02*
X024577Y012371D01*
X024577Y012218D01*
X024500Y012141D01*
X024193Y012141D01*
X024193Y011987D02*
X024116Y011911D01*
X024116Y011757D01*
X024193Y011680D01*
X024500Y011987D01*
X024193Y011987D01*
X024193Y011680D02*
X024500Y011680D01*
X024577Y011757D01*
X024577Y011911D01*
X024500Y011987D01*
X024786Y012080D02*
X024786Y011320D01*
X024577Y011373D02*
X024116Y011373D01*
X024116Y011220D02*
X024116Y011527D01*
X024423Y011220D02*
X024577Y011373D01*
X025406Y011320D02*
X025406Y012080D01*
X024347Y013062D02*
X024347Y013215D01*
X022677Y012241D02*
X022216Y012241D01*
X022370Y012241D02*
X022523Y012471D01*
X022370Y012241D02*
X022216Y012471D01*
X022293Y012087D02*
X022216Y012011D01*
X022216Y011857D01*
X022293Y011780D01*
X022600Y012087D01*
X022293Y012087D01*
X022293Y011780D02*
X022600Y011780D01*
X022677Y011857D01*
X022677Y012011D01*
X022600Y012087D01*
X022216Y011627D02*
X022216Y011320D01*
X022216Y011473D02*
X022677Y011473D01*
X022523Y011320D01*
X022428Y009160D02*
X022735Y009160D01*
X022735Y008930D01*
X022581Y009007D01*
X022505Y009007D01*
X022428Y008930D01*
X022428Y008777D01*
X022505Y008700D01*
X022658Y008700D01*
X022735Y008777D01*
X022888Y009084D02*
X023195Y008777D01*
X023195Y008700D01*
X023349Y008930D02*
X023425Y008853D01*
X023656Y008853D01*
X023656Y008700D02*
X023656Y009160D01*
X023425Y009160D01*
X023349Y009084D01*
X023349Y008930D01*
X023195Y009160D02*
X022888Y009160D01*
X022888Y009084D01*
X023809Y009084D02*
X023886Y009160D01*
X024039Y009160D01*
X024116Y009084D01*
X024116Y009007D01*
X024039Y008930D01*
X023886Y008930D01*
X023809Y008853D01*
X023809Y008777D01*
X023886Y008700D01*
X024039Y008700D01*
X024116Y008777D01*
X024269Y008777D02*
X024346Y008700D01*
X024576Y008700D01*
X024576Y009160D01*
X024346Y009160D01*
X024269Y009084D01*
X024269Y009007D01*
X024346Y008930D01*
X024576Y008930D01*
X024346Y008930D02*
X024269Y008853D01*
X024269Y008777D01*
X025428Y008777D02*
X025505Y008700D01*
X025658Y008700D01*
X025735Y008777D01*
X025735Y008930D02*
X025581Y009007D01*
X025505Y009007D01*
X025428Y008930D01*
X025428Y008777D01*
X025735Y008930D02*
X025735Y009160D01*
X025428Y009160D01*
X025888Y009160D02*
X025888Y009084D01*
X026195Y008777D01*
X026195Y008700D01*
X026349Y008930D02*
X026425Y008853D01*
X026656Y008853D01*
X026656Y008700D02*
X026656Y009160D01*
X026425Y009160D01*
X026349Y009084D01*
X026349Y008930D01*
X026195Y009160D02*
X025888Y009160D01*
X026809Y009084D02*
X026886Y009160D01*
X027039Y009160D01*
X027116Y009084D01*
X027116Y009007D01*
X027039Y008930D01*
X026886Y008930D01*
X026809Y008853D01*
X026809Y008777D01*
X026886Y008700D01*
X027039Y008700D01*
X027116Y008777D01*
X027269Y008777D02*
X027346Y008700D01*
X027576Y008700D01*
X027576Y009160D01*
X027346Y009160D01*
X027269Y009084D01*
X027269Y009007D01*
X027346Y008930D01*
X027576Y008930D01*
X027346Y008930D02*
X027269Y008853D01*
X027269Y008777D01*
X028428Y008777D02*
X028505Y008700D01*
X028658Y008700D01*
X028735Y008777D01*
X028735Y008930D02*
X028581Y009007D01*
X028505Y009007D01*
X028428Y008930D01*
X028428Y008777D01*
X028735Y008930D02*
X028735Y009160D01*
X028428Y009160D01*
X028888Y009160D02*
X028888Y009084D01*
X029195Y008777D01*
X029195Y008700D01*
X029349Y008930D02*
X029425Y008853D01*
X029656Y008853D01*
X029656Y008700D02*
X029656Y009160D01*
X029425Y009160D01*
X029349Y009084D01*
X029349Y008930D01*
X029195Y009160D02*
X028888Y009160D01*
X029809Y009084D02*
X029886Y009160D01*
X030039Y009160D01*
X030116Y009084D01*
X030116Y009007D01*
X030039Y008930D01*
X029886Y008930D01*
X029809Y008853D01*
X029809Y008777D01*
X029886Y008700D01*
X030039Y008700D01*
X030116Y008777D01*
X030269Y008777D02*
X030346Y008700D01*
X030576Y008700D01*
X030576Y009160D01*
X030346Y009160D01*
X030269Y009084D01*
X030269Y009007D01*
X030346Y008930D01*
X030576Y008930D01*
X030346Y008930D02*
X030269Y008853D01*
X030269Y008777D01*
X031428Y008777D02*
X031505Y008700D01*
X031658Y008700D01*
X031735Y008777D01*
X031735Y008930D02*
X031581Y009007D01*
X031505Y009007D01*
X031428Y008930D01*
X031428Y008777D01*
X031735Y008930D02*
X031735Y009160D01*
X031428Y009160D01*
X031888Y009160D02*
X031888Y009084D01*
X032195Y008777D01*
X032195Y008700D01*
X032349Y008930D02*
X032425Y008853D01*
X032656Y008853D01*
X032656Y008700D02*
X032656Y009160D01*
X032425Y009160D01*
X032349Y009084D01*
X032349Y008930D01*
X032195Y009160D02*
X031888Y009160D01*
X032809Y009084D02*
X032886Y009160D01*
X033039Y009160D01*
X033116Y009084D01*
X033116Y009007D01*
X033039Y008930D01*
X032886Y008930D01*
X032809Y008853D01*
X032809Y008777D01*
X032886Y008700D01*
X033039Y008700D01*
X033116Y008777D01*
X033269Y008777D02*
X033346Y008700D01*
X033576Y008700D01*
X033576Y009160D01*
X033346Y009160D01*
X033269Y009084D01*
X033269Y009007D01*
X033346Y008930D01*
X033576Y008930D01*
X033346Y008930D02*
X033269Y008853D01*
X033269Y008777D01*
X035080Y008580D02*
X035387Y008273D01*
X035310Y008350D02*
X035080Y008120D01*
X035387Y008120D02*
X035387Y008580D01*
X035540Y008504D02*
X035617Y008580D01*
X035770Y008580D01*
X035847Y008504D01*
X035847Y008197D01*
X035540Y008504D01*
X035540Y008197D01*
X035617Y008120D01*
X035770Y008120D01*
X035847Y008197D01*
X036001Y008120D02*
X036308Y008120D01*
X036154Y008120D02*
X036154Y008580D01*
X036308Y008427D01*
X036315Y008845D02*
X036622Y008845D01*
X036469Y008845D02*
X036469Y009305D01*
X036622Y009152D01*
X036162Y009305D02*
X036162Y008845D01*
X036162Y008998D02*
X035855Y009305D01*
X036085Y009075D02*
X035855Y008845D01*
X036874Y008655D02*
X037181Y008348D01*
X037104Y008425D02*
X036874Y008195D01*
X037181Y008195D02*
X037181Y008655D01*
X037334Y008579D02*
X037641Y008272D01*
X037564Y008195D01*
X037411Y008195D01*
X037334Y008272D01*
X037334Y008579D01*
X037411Y008655D01*
X037564Y008655D01*
X037641Y008579D01*
X037641Y008272D01*
X037794Y008195D02*
X038101Y008195D01*
X037948Y008195D02*
X037948Y008655D01*
X038101Y008502D01*
X038144Y008845D02*
X038451Y008845D01*
X038298Y008845D02*
X038298Y009305D01*
X038451Y009152D01*
X037991Y009305D02*
X037991Y008845D01*
X037991Y008998D02*
X037684Y009305D01*
X037914Y009075D02*
X037684Y008845D01*
X033437Y011355D02*
X033361Y011278D01*
X033284Y011278D01*
X033207Y011355D01*
X033207Y011509D01*
X033130Y011585D01*
X033054Y011585D01*
X032977Y011509D01*
X032977Y011355D01*
X033054Y011278D01*
X033437Y011355D02*
X033437Y011509D01*
X033361Y011585D01*
X033437Y011739D02*
X033437Y012046D01*
X033361Y012046D01*
X033054Y011739D01*
X032977Y011739D01*
X032977Y012046D01*
X033054Y012199D02*
X033361Y012506D01*
X033054Y012506D01*
X032977Y012429D01*
X032977Y012276D01*
X033054Y012199D01*
X033361Y012199D01*
X033437Y012276D01*
X033437Y012429D01*
X033361Y012506D01*
X033437Y012660D02*
X033207Y012660D01*
X033284Y012813D01*
X033284Y012890D01*
X033207Y012966D01*
X033054Y012966D01*
X032977Y012890D01*
X032977Y012736D01*
X033054Y012660D01*
X033437Y012660D02*
X033437Y012966D01*
X033207Y013120D02*
X033207Y013427D01*
X033054Y013580D02*
X032977Y013580D01*
X032977Y013887D01*
X032977Y014041D02*
X032977Y014194D01*
X032977Y014117D02*
X033437Y014117D01*
X033437Y014041D02*
X033437Y014194D01*
X033361Y014348D02*
X033054Y014348D01*
X032977Y014424D01*
X032977Y014578D01*
X033054Y014655D01*
X033207Y014655D01*
X033207Y014501D01*
X033361Y014348D02*
X033437Y014424D01*
X033437Y014578D01*
X033361Y014655D01*
X033437Y014808D02*
X033437Y015038D01*
X033361Y015115D01*
X033284Y015115D01*
X033207Y015038D01*
X033207Y014808D01*
X032977Y014808D02*
X032977Y015038D01*
X033054Y015115D01*
X033130Y015115D01*
X033207Y015038D01*
X033207Y015268D02*
X033207Y015422D01*
X032977Y015268D02*
X032977Y015575D01*
X032977Y015729D02*
X032977Y016036D01*
X033054Y016189D02*
X032977Y016266D01*
X032977Y016419D01*
X033054Y016496D01*
X033130Y016496D01*
X033207Y016419D01*
X033207Y016266D01*
X033284Y016189D01*
X033361Y016189D01*
X033437Y016266D01*
X033437Y016419D01*
X033361Y016496D01*
X033437Y016650D02*
X033284Y016803D01*
X033437Y016957D01*
X032977Y016957D01*
X032977Y017110D02*
X032977Y017340D01*
X033054Y017417D01*
X033361Y017417D01*
X033437Y017340D01*
X033437Y017110D01*
X032977Y017110D01*
X032977Y016650D02*
X033437Y016650D01*
X033437Y016036D02*
X033437Y015729D01*
X032977Y015729D01*
X033207Y015729D02*
X033207Y015882D01*
X033437Y015575D02*
X033437Y015268D01*
X032977Y015268D01*
X032977Y014808D02*
X033437Y014808D01*
X032326Y014970D02*
X032019Y015277D01*
X032019Y015354D01*
X032096Y015430D01*
X032250Y015430D01*
X032326Y015354D01*
X032326Y014970D02*
X032019Y014970D01*
X031866Y014970D02*
X031559Y015277D01*
X031559Y015354D01*
X031636Y015430D01*
X031789Y015430D01*
X031866Y015354D01*
X031866Y014970D02*
X031559Y014970D01*
X031406Y014970D02*
X031175Y014970D01*
X031099Y015047D01*
X031099Y015200D01*
X031175Y015277D01*
X031406Y015277D01*
X031406Y014817D01*
X030945Y014970D02*
X030945Y015430D01*
X030638Y015430D01*
X030792Y015200D02*
X030945Y015200D01*
X029976Y014890D02*
X029216Y014890D01*
X029216Y015510D02*
X029976Y015510D01*
X029976Y013510D02*
X029216Y013510D01*
X029216Y012890D02*
X029976Y012890D01*
X030638Y013430D02*
X030945Y013430D01*
X030945Y012970D01*
X031099Y013047D02*
X031175Y012970D01*
X031406Y012970D01*
X031559Y012970D02*
X031866Y012970D01*
X031559Y013277D01*
X031559Y013354D01*
X031636Y013430D01*
X031789Y013430D01*
X031866Y013354D01*
X032019Y013354D02*
X032096Y013430D01*
X032250Y013430D01*
X032326Y013354D01*
X032019Y013354D02*
X032019Y013277D01*
X032326Y012970D01*
X032019Y012970D01*
X031406Y012817D02*
X031406Y013277D01*
X031175Y013277D01*
X031099Y013200D01*
X031099Y013047D01*
X030945Y013200D02*
X030792Y013200D01*
X033054Y013580D02*
X033361Y013887D01*
X033437Y013887D01*
X033437Y013580D01*
X032878Y020240D02*
X032648Y020240D01*
X032571Y020317D01*
X032571Y020393D01*
X032648Y020470D01*
X032878Y020470D01*
X032648Y020470D02*
X032571Y020547D01*
X032571Y020624D01*
X032648Y020700D01*
X032878Y020700D01*
X032878Y020240D01*
X032418Y020317D02*
X032341Y020240D01*
X032188Y020240D01*
X032111Y020317D01*
X032111Y020393D01*
X032188Y020470D01*
X032341Y020470D01*
X032418Y020547D01*
X032418Y020624D01*
X032341Y020700D01*
X032188Y020700D01*
X032111Y020624D01*
X031958Y020700D02*
X031727Y020700D01*
X031651Y020624D01*
X031651Y020470D01*
X031727Y020393D01*
X031958Y020393D01*
X031958Y020240D02*
X031958Y020700D01*
X031497Y020700D02*
X031190Y020700D01*
X031190Y020624D01*
X031497Y020317D01*
X031497Y020240D01*
X031037Y020317D02*
X030960Y020240D01*
X030807Y020240D01*
X030730Y020317D01*
X030730Y020470D01*
X030807Y020547D01*
X030883Y020547D01*
X031037Y020470D01*
X031037Y020700D01*
X030730Y020700D01*
X026378Y020700D02*
X026378Y020240D01*
X026148Y020240D01*
X026071Y020317D01*
X026071Y020393D01*
X026148Y020470D01*
X026378Y020470D01*
X026148Y020470D02*
X026071Y020547D01*
X026071Y020624D01*
X026148Y020700D01*
X026378Y020700D01*
X025918Y020624D02*
X025918Y020547D01*
X025841Y020470D01*
X025688Y020470D01*
X025611Y020393D01*
X025611Y020317D01*
X025688Y020240D01*
X025841Y020240D01*
X025918Y020317D01*
X025918Y020624D02*
X025841Y020700D01*
X025688Y020700D01*
X025611Y020624D01*
X025458Y020700D02*
X025227Y020700D01*
X025151Y020624D01*
X025151Y020470D01*
X025227Y020393D01*
X025458Y020393D01*
X025458Y020240D02*
X025458Y020700D01*
X024997Y020700D02*
X024690Y020700D01*
X024690Y020624D01*
X024997Y020317D01*
X024997Y020240D01*
X024537Y020317D02*
X024460Y020240D01*
X024307Y020240D01*
X024230Y020317D01*
X024230Y020470D01*
X024307Y020547D01*
X024383Y020547D01*
X024537Y020470D01*
X024537Y020700D01*
X024230Y020700D01*
X037230Y020700D02*
X037537Y020700D01*
X037537Y020470D01*
X037383Y020547D01*
X037307Y020547D01*
X037230Y020470D01*
X037230Y020317D01*
X037307Y020240D01*
X037460Y020240D01*
X037537Y020317D01*
X037690Y020624D02*
X037997Y020317D01*
X037997Y020240D01*
X038151Y020470D02*
X038227Y020393D01*
X038458Y020393D01*
X038611Y020393D02*
X038611Y020317D01*
X038688Y020240D01*
X038841Y020240D01*
X038918Y020317D01*
X039071Y020317D02*
X039148Y020240D01*
X039378Y020240D01*
X039378Y020700D01*
X039148Y020700D01*
X039071Y020624D01*
X039071Y020547D01*
X039148Y020470D01*
X039378Y020470D01*
X039148Y020470D02*
X039071Y020393D01*
X039071Y020317D01*
X038841Y020470D02*
X038688Y020470D01*
X038611Y020393D01*
X038458Y020240D02*
X038458Y020700D01*
X038227Y020700D01*
X038151Y020624D01*
X038151Y020470D01*
X037997Y020700D02*
X037690Y020700D01*
X037690Y020624D01*
X038611Y020624D02*
X038688Y020700D01*
X038841Y020700D01*
X038918Y020624D01*
X038918Y020547D01*
X038841Y020470D01*
X043730Y020470D02*
X043730Y020317D01*
X043807Y020240D01*
X043960Y020240D01*
X044037Y020317D01*
X044037Y020470D02*
X043883Y020547D01*
X043807Y020547D01*
X043730Y020470D01*
X043730Y020700D02*
X044037Y020700D01*
X044037Y020470D01*
X044190Y020624D02*
X044497Y020317D01*
X044497Y020240D01*
X044651Y020470D02*
X044727Y020393D01*
X044958Y020393D01*
X045111Y020393D02*
X045111Y020317D01*
X045188Y020240D01*
X045341Y020240D01*
X045418Y020317D01*
X045571Y020317D02*
X045648Y020240D01*
X045878Y020240D01*
X045878Y020700D01*
X045648Y020700D01*
X045571Y020624D01*
X045571Y020547D01*
X045648Y020470D01*
X045878Y020470D01*
X045648Y020470D02*
X045571Y020393D01*
X045571Y020317D01*
X045341Y020470D02*
X045188Y020470D01*
X045111Y020393D01*
X044958Y020240D02*
X044958Y020700D01*
X044727Y020700D01*
X044651Y020624D01*
X044651Y020470D01*
X044497Y020700D02*
X044190Y020700D01*
X044190Y020624D01*
X045111Y020624D02*
X045188Y020700D01*
X045341Y020700D01*
X045418Y020624D01*
X045418Y020547D01*
X045341Y020470D01*
X021576Y009160D02*
X021576Y008700D01*
X021346Y008700D01*
X021269Y008777D01*
X021269Y008853D01*
X021346Y008930D01*
X021576Y008930D01*
X021346Y008930D02*
X021269Y009007D01*
X021269Y009084D01*
X021346Y009160D01*
X021576Y009160D01*
X021116Y009084D02*
X021116Y009007D01*
X021039Y008930D01*
X020886Y008930D01*
X020809Y008853D01*
X020809Y008777D01*
X020886Y008700D01*
X021039Y008700D01*
X021116Y008777D01*
X021116Y009084D02*
X021039Y009160D01*
X020886Y009160D01*
X020809Y009084D01*
X020656Y009160D02*
X020656Y008700D01*
X020656Y008853D02*
X020425Y008853D01*
X020349Y008930D01*
X020349Y009084D01*
X020425Y009160D01*
X020656Y009160D01*
X020195Y009160D02*
X019888Y009160D01*
X019888Y009084D01*
X020195Y008777D01*
X020195Y008700D01*
X019735Y008777D02*
X019658Y008700D01*
X019505Y008700D01*
X019428Y008777D01*
X019428Y008930D01*
X019505Y009007D01*
X019581Y009007D01*
X019735Y008930D01*
X019735Y009160D01*
X019428Y009160D01*
X019367Y004067D02*
X019213Y004067D01*
X019136Y003990D01*
X019136Y003836D01*
X019213Y003760D01*
X019367Y003760D02*
X019443Y003913D01*
X019443Y003990D01*
X019367Y004067D01*
X019597Y004067D02*
X019597Y003760D01*
X019367Y003760D01*
X019520Y003606D02*
X019213Y003299D01*
X019136Y003299D01*
X019290Y003069D02*
X019290Y002839D01*
X019290Y002685D02*
X019213Y002685D01*
X019136Y002609D01*
X019136Y002455D01*
X019213Y002378D01*
X019213Y002225D02*
X019136Y002148D01*
X019136Y001918D01*
X019597Y001918D01*
X019597Y002148D01*
X019520Y002225D01*
X019443Y002225D01*
X019367Y002148D01*
X019367Y001918D01*
X019367Y002148D02*
X019290Y002225D01*
X019213Y002225D01*
X019367Y002455D02*
X019367Y002609D01*
X019290Y002685D01*
X019136Y002839D02*
X019597Y002839D01*
X019597Y003069D01*
X019520Y003146D01*
X019367Y003146D01*
X019290Y003069D01*
X019597Y003299D02*
X019597Y003606D01*
X019520Y003606D01*
X019520Y002685D02*
X019597Y002609D01*
X019597Y002455D01*
X019520Y002378D01*
X019443Y002378D01*
X019367Y002455D01*
X014827Y002279D02*
X014827Y002126D01*
X014750Y002049D01*
X014827Y002279D02*
X014750Y002356D01*
X014673Y002356D01*
X014366Y002049D01*
X014366Y002356D01*
X014366Y002510D02*
X014673Y002510D01*
X014827Y002663D01*
X014673Y002817D01*
X014366Y002817D01*
X014226Y002770D02*
X014226Y001620D01*
X014366Y001666D02*
X014366Y001359D01*
X014366Y001512D02*
X014827Y001512D01*
X014673Y001359D01*
X014443Y001819D02*
X014366Y001819D01*
X014366Y001896D01*
X014443Y001896D01*
X014443Y001819D01*
X014597Y002510D02*
X014597Y002817D01*
X012966Y002780D02*
X012966Y001620D01*
X044116Y005970D02*
X044116Y006277D01*
X044116Y006430D02*
X044577Y006430D01*
X044616Y006430D02*
X045077Y006430D01*
X044923Y006661D02*
X044770Y006430D01*
X044616Y006661D01*
X044423Y006661D02*
X044270Y006430D01*
X044116Y006661D01*
X044616Y006277D02*
X044616Y005970D01*
X044616Y006123D02*
X045077Y006123D01*
X044923Y005970D01*
X044577Y006123D02*
X044116Y006123D01*
X044423Y005970D02*
X044577Y006123D01*
D13*
X044097Y005908D03*
X044097Y006488D03*
X045097Y006488D03*
X045097Y005908D03*
X047847Y024908D03*
X047847Y025488D03*
X041347Y025488D03*
X041347Y024908D03*
X034847Y024908D03*
X034847Y025488D03*
X028347Y025238D03*
X028347Y024658D03*
X021847Y024908D03*
X021847Y025488D03*
D14*
X013597Y002953D03*
X013597Y001443D03*
D15*
X025096Y011178D03*
X025097Y012222D03*
X019096Y015678D03*
X019097Y016722D03*
X024597Y017222D03*
X025597Y017222D03*
X025596Y016178D03*
X024596Y016178D03*
D16*
X023541Y016094D02*
X022990Y016094D01*
X022990Y016306D02*
X023541Y016306D01*
X023541Y017094D01*
X022990Y017094D01*
X022990Y017306D02*
X023541Y017306D01*
X023541Y018094D01*
X022990Y018094D01*
X022714Y017976D02*
X022714Y017700D01*
X022478Y017936D01*
X022478Y017464D01*
X022714Y017700D01*
X022714Y017424D01*
X022203Y017306D02*
X021651Y017306D01*
X021651Y018094D01*
X022203Y018094D01*
X022203Y017094D02*
X021651Y017094D01*
X021651Y016306D01*
X022203Y016306D01*
X022203Y016094D02*
X021651Y016094D01*
X021651Y015306D01*
X022203Y015306D01*
X022478Y015464D02*
X022478Y015936D01*
X022714Y015700D01*
X022478Y015464D01*
X022714Y015424D02*
X022714Y015700D01*
X022714Y015976D01*
X023541Y016094D02*
X023541Y015306D01*
X022990Y015306D01*
X022714Y016424D02*
X022714Y016700D01*
X022478Y016936D01*
X022478Y016464D01*
X022714Y016700D01*
X022714Y016976D01*
X023806Y019500D02*
X026386Y019500D01*
X026386Y020900D01*
X023806Y020900D01*
X023806Y019500D01*
X019886Y019500D02*
X017306Y019500D01*
X017306Y020900D01*
X019886Y020900D01*
X019886Y019500D01*
X030306Y019500D02*
X032886Y019500D01*
X032886Y020900D01*
X030306Y020900D01*
X030306Y019500D01*
X036806Y019500D02*
X039386Y019500D01*
X039386Y020900D01*
X036806Y020900D01*
X036806Y019500D01*
X043306Y019500D02*
X045886Y019500D01*
X045886Y020900D01*
X043306Y020900D01*
X043306Y019500D01*
X033886Y009900D02*
X031306Y009900D01*
X031306Y008500D01*
X033886Y008500D01*
X033886Y009900D01*
X030886Y009900D02*
X030886Y008500D01*
X028306Y008500D01*
X028306Y009900D01*
X030886Y009900D01*
X027886Y009900D02*
X027886Y008500D01*
X025306Y008500D01*
X025306Y009900D01*
X027886Y009900D01*
X024886Y009900D02*
X024886Y008500D01*
X022306Y008500D01*
X022306Y009900D01*
X024886Y009900D01*
X021886Y009900D02*
X021886Y008500D01*
X019306Y008500D01*
X019306Y009900D01*
X021886Y009900D01*
X019796Y004490D02*
X018396Y004490D01*
X018396Y001910D01*
X019796Y001910D01*
X019796Y004490D01*
D17*
X022264Y016245D02*
X022239Y016270D01*
X022239Y016295D01*
X022264Y016320D01*
X022339Y016320D01*
X022339Y016270D01*
X022314Y016245D01*
X022264Y016245D01*
X022339Y016320D02*
X022289Y016370D01*
X022239Y016395D01*
X022386Y016370D02*
X022486Y016270D01*
X022461Y016245D01*
X022411Y016245D01*
X022386Y016270D01*
X022386Y016370D01*
X022411Y016395D01*
X022461Y016395D01*
X022486Y016370D01*
X022486Y016270D01*
X022533Y016245D02*
X022633Y016245D01*
X022533Y016345D01*
X022533Y016370D01*
X022558Y016395D01*
X022608Y016395D01*
X022633Y016370D01*
X022731Y016395D02*
X022731Y016245D01*
X022781Y016245D02*
X022681Y016245D01*
X022781Y016345D02*
X022731Y016395D01*
X022828Y016370D02*
X022853Y016395D01*
X022928Y016395D01*
X022928Y016245D01*
X022853Y016245D01*
X022828Y016270D01*
X022828Y016370D01*
X022975Y016245D02*
X023075Y016245D01*
X023025Y016245D02*
X023025Y016395D01*
X023075Y016345D01*
X023123Y016345D02*
X023148Y016320D01*
X023198Y016320D01*
X023223Y016345D01*
X023223Y016370D01*
X023198Y016395D01*
X023148Y016395D01*
X023123Y016370D01*
X023123Y016345D01*
X023148Y016320D02*
X023123Y016295D01*
X023123Y016270D01*
X023148Y016245D01*
X023198Y016245D01*
X023223Y016270D01*
X023223Y016295D01*
X023198Y016320D01*
X023270Y016320D02*
X023270Y016270D01*
X023295Y016245D01*
X023345Y016245D01*
X023370Y016270D01*
X023370Y016320D02*
X023320Y016345D01*
X023295Y016345D01*
X023270Y016320D01*
X023270Y016395D02*
X023370Y016395D01*
X023370Y016320D01*
X023417Y016245D02*
X023417Y016395D01*
X023517Y016395D02*
X023417Y016245D01*
X023517Y016245D02*
X023517Y016395D01*
X023615Y016395D02*
X023615Y016245D01*
X023665Y016245D02*
X023564Y016245D01*
X023665Y016345D02*
X023615Y016395D01*
X023615Y017245D02*
X023615Y017395D01*
X023665Y017345D01*
X023665Y017245D02*
X023564Y017245D01*
X023517Y017245D02*
X023517Y017395D01*
X023417Y017245D01*
X023417Y017395D01*
X023370Y017395D02*
X023370Y017320D01*
X023320Y017345D01*
X023295Y017345D01*
X023270Y017320D01*
X023270Y017270D01*
X023295Y017245D01*
X023345Y017245D01*
X023370Y017270D01*
X023370Y017395D02*
X023270Y017395D01*
X023223Y017370D02*
X023198Y017395D01*
X023148Y017395D01*
X023123Y017370D01*
X023123Y017345D01*
X023148Y017320D01*
X023198Y017320D01*
X023223Y017345D01*
X023223Y017370D01*
X023198Y017320D02*
X023223Y017295D01*
X023223Y017270D01*
X023198Y017245D01*
X023148Y017245D01*
X023123Y017270D01*
X023123Y017295D01*
X023148Y017320D01*
X023075Y017345D02*
X023025Y017395D01*
X023025Y017245D01*
X023075Y017245D02*
X022975Y017245D01*
X022928Y017245D02*
X022853Y017245D01*
X022828Y017270D01*
X022828Y017370D01*
X022853Y017395D01*
X022928Y017395D01*
X022928Y017245D01*
X022781Y017245D02*
X022681Y017245D01*
X022633Y017245D02*
X022533Y017345D01*
X022533Y017370D01*
X022558Y017395D01*
X022608Y017395D01*
X022633Y017370D01*
X022731Y017395D02*
X022731Y017245D01*
X022633Y017245D02*
X022533Y017245D01*
X022486Y017270D02*
X022386Y017370D01*
X022386Y017270D01*
X022411Y017245D01*
X022461Y017245D01*
X022486Y017270D01*
X022486Y017370D01*
X022461Y017395D01*
X022411Y017395D01*
X022386Y017370D01*
X022339Y017320D02*
X022264Y017320D01*
X022239Y017295D01*
X022239Y017270D01*
X022264Y017245D01*
X022314Y017245D01*
X022339Y017270D01*
X022339Y017320D01*
X022289Y017370D01*
X022239Y017395D01*
X022731Y017395D02*
X022781Y017345D01*
X022781Y018245D02*
X022681Y018245D01*
X022633Y018245D02*
X022533Y018345D01*
X022533Y018370D01*
X022558Y018395D01*
X022608Y018395D01*
X022633Y018370D01*
X022731Y018395D02*
X022731Y018245D01*
X022633Y018245D02*
X022533Y018245D01*
X022486Y018270D02*
X022386Y018370D01*
X022386Y018270D01*
X022411Y018245D01*
X022461Y018245D01*
X022486Y018270D01*
X022486Y018370D01*
X022461Y018395D01*
X022411Y018395D01*
X022386Y018370D01*
X022339Y018320D02*
X022289Y018370D01*
X022239Y018395D01*
X022264Y018320D02*
X022339Y018320D01*
X022339Y018270D01*
X022314Y018245D01*
X022264Y018245D01*
X022239Y018270D01*
X022239Y018295D01*
X022264Y018320D01*
X022731Y018395D02*
X022781Y018345D01*
X022828Y018370D02*
X022828Y018270D01*
X022853Y018245D01*
X022928Y018245D01*
X022928Y018395D01*
X022853Y018395D01*
X022828Y018370D01*
X022975Y018245D02*
X023075Y018245D01*
X023025Y018245D02*
X023025Y018395D01*
X023075Y018345D01*
X023123Y018345D02*
X023123Y018370D01*
X023148Y018395D01*
X023198Y018395D01*
X023223Y018370D01*
X023223Y018345D01*
X023198Y018320D01*
X023148Y018320D01*
X023123Y018295D01*
X023123Y018270D01*
X023148Y018245D01*
X023198Y018245D01*
X023223Y018270D01*
X023223Y018295D01*
X023198Y018320D01*
X023148Y018320D02*
X023123Y018345D01*
X023270Y018320D02*
X023270Y018270D01*
X023295Y018245D01*
X023345Y018245D01*
X023370Y018270D01*
X023370Y018320D02*
X023320Y018345D01*
X023295Y018345D01*
X023270Y018320D01*
X023270Y018395D02*
X023370Y018395D01*
X023370Y018320D01*
X023417Y018245D02*
X023417Y018395D01*
X023517Y018395D02*
X023417Y018245D01*
X023517Y018245D02*
X023517Y018395D01*
X023615Y018395D02*
X023615Y018245D01*
X023665Y018245D02*
X023564Y018245D01*
X023665Y018345D02*
X023615Y018395D01*
D18*
X025096Y019125D03*
X025096Y019125D03*
X018596Y019125D03*
X018596Y019125D03*
X031596Y019125D03*
X031596Y019125D03*
X038096Y019125D03*
X038096Y019125D03*
X044596Y019125D03*
X044596Y019125D03*
X032596Y010275D03*
X032596Y010275D03*
X029596Y010275D03*
X029596Y010275D03*
X026596Y010275D03*
X026596Y010275D03*
X023596Y010275D03*
X023596Y010275D03*
X020596Y010275D03*
X020596Y010275D03*
D19*
X020596Y008125D03*
X020596Y008125D03*
X019686Y008125D03*
X019686Y008125D03*
X021506Y008125D03*
X021506Y008125D03*
X022686Y008125D03*
X022686Y008125D03*
X023596Y008125D03*
X023596Y008125D03*
X024506Y008125D03*
X024506Y008125D03*
X025686Y008125D03*
X025686Y008125D03*
X026596Y008125D03*
X026596Y008125D03*
X027506Y008125D03*
X027506Y008125D03*
X028686Y008125D03*
X028686Y008125D03*
X029596Y008125D03*
X029596Y008125D03*
X030506Y008125D03*
X030506Y008125D03*
X031686Y008125D03*
X031686Y008125D03*
X032596Y008125D03*
X032596Y008125D03*
X033506Y008125D03*
X033506Y008125D03*
X032506Y021275D03*
X032506Y021275D03*
X031596Y021275D03*
X031596Y021275D03*
X030686Y021275D03*
X030686Y021275D03*
X026006Y021275D03*
X026006Y021275D03*
X025096Y021275D03*
X025096Y021275D03*
X024186Y021275D03*
X024186Y021275D03*
X019506Y021275D03*
X019506Y021275D03*
X018596Y021275D03*
X018596Y021275D03*
X017686Y021275D03*
X017686Y021275D03*
X037186Y021275D03*
X037186Y021275D03*
X038096Y021275D03*
X038096Y021275D03*
X039006Y021275D03*
X039006Y021275D03*
X043686Y021275D03*
X043686Y021275D03*
X044596Y021275D03*
X044596Y021275D03*
X045506Y021275D03*
X045506Y021275D03*
D20*
X030119Y015200D03*
X029074Y015200D03*
X029074Y013200D03*
X030119Y013200D03*
D21*
X023096Y012040D03*
X023096Y011360D03*
D22*
X018021Y003200D03*
X018021Y003200D03*
D23*
X020171Y003200D03*
X020171Y003200D03*
X020171Y002290D03*
X020171Y002290D03*
X020171Y004110D03*
X020171Y004110D03*
D24*
X035256Y007700D03*
X035936Y007700D03*
X037256Y007700D03*
X037936Y007700D03*
D25*
X032715Y010729D02*
X043916Y010729D01*
X043916Y018227D01*
X032715Y018227D01*
X032715Y010729D01*
D26*
X033846Y011200D03*
X033846Y017700D03*
D27*
X032971Y017700D03*
X032971Y011200D03*
D28*
X042846Y011200D03*
X042846Y012700D03*
D29*
X043346Y015950D03*
D30*
X038388Y009701D03*
X037808Y009701D03*
X036384Y009699D03*
X035804Y009699D03*
M02*
