G75*
%MOIN*%
%OFA0B0*%
%FSLAX24Y24*%
%IPPOS*%
%LPD*%
%AMOC8*
5,1,8,0,0,1.08239X$1,22.5*
%
%ADD10C,0.0000*%
%ADD11C,0.0554*%
%ADD12C,0.1181*%
%ADD13C,0.1266*%
%ADD14R,0.1181X0.1181*%
%ADD15R,0.0472X0.0472*%
%ADD16R,0.0512X0.0591*%
%ADD17R,0.1339X0.0748*%
%ADD18R,0.0709X0.0630*%
%ADD19R,0.0197X0.0591*%
%ADD20R,0.0591X0.0197*%
%ADD21R,0.1250X0.0750*%
%ADD22R,0.0710X0.0630*%
%ADD23R,0.0630X0.0512*%
%ADD24R,0.0630X0.0709*%
%ADD25R,0.1181X0.0984*%
%ADD26R,0.0984X0.0787*%
%ADD27R,0.1299X0.0787*%
%ADD28R,0.1220X0.0197*%
%ADD29R,0.0630X0.0787*%
%ADD30R,0.0591X0.0512*%
%ADD31R,0.0750X0.1250*%
%ADD32C,0.0650*%
%ADD33C,0.0515*%
%ADD34C,0.0700*%
%ADD35C,0.0660*%
%ADD36C,0.0180*%
%ADD37C,0.0240*%
%ADD38C,0.0160*%
%ADD39R,0.0356X0.0356*%
%ADD40R,0.0650X0.0650*%
D10*
X012596Y000100D02*
X012596Y027396D01*
X051666Y027396D01*
X051666Y000100D01*
X012596Y000100D01*
X015771Y001575D02*
X015773Y001601D01*
X015779Y001627D01*
X015788Y001651D01*
X015801Y001674D01*
X015818Y001694D01*
X015837Y001712D01*
X015859Y001727D01*
X015882Y001738D01*
X015907Y001746D01*
X015933Y001750D01*
X015959Y001750D01*
X015985Y001746D01*
X016010Y001738D01*
X016034Y001727D01*
X016055Y001712D01*
X016074Y001694D01*
X016091Y001674D01*
X016104Y001651D01*
X016113Y001627D01*
X016119Y001601D01*
X016121Y001575D01*
X016119Y001549D01*
X016113Y001523D01*
X016104Y001499D01*
X016091Y001476D01*
X016074Y001456D01*
X016055Y001438D01*
X016033Y001423D01*
X016010Y001412D01*
X015985Y001404D01*
X015959Y001400D01*
X015933Y001400D01*
X015907Y001404D01*
X015882Y001412D01*
X015858Y001423D01*
X015837Y001438D01*
X015818Y001456D01*
X015801Y001476D01*
X015788Y001499D01*
X015779Y001523D01*
X015773Y001549D01*
X015771Y001575D01*
X016571Y001575D02*
X016573Y001601D01*
X016579Y001627D01*
X016588Y001651D01*
X016601Y001674D01*
X016618Y001694D01*
X016637Y001712D01*
X016659Y001727D01*
X016682Y001738D01*
X016707Y001746D01*
X016733Y001750D01*
X016759Y001750D01*
X016785Y001746D01*
X016810Y001738D01*
X016834Y001727D01*
X016855Y001712D01*
X016874Y001694D01*
X016891Y001674D01*
X016904Y001651D01*
X016913Y001627D01*
X016919Y001601D01*
X016921Y001575D01*
X016919Y001549D01*
X016913Y001523D01*
X016904Y001499D01*
X016891Y001476D01*
X016874Y001456D01*
X016855Y001438D01*
X016833Y001423D01*
X016810Y001412D01*
X016785Y001404D01*
X016759Y001400D01*
X016733Y001400D01*
X016707Y001404D01*
X016682Y001412D01*
X016658Y001423D01*
X016637Y001438D01*
X016618Y001456D01*
X016601Y001476D01*
X016588Y001499D01*
X016579Y001523D01*
X016573Y001549D01*
X016571Y001575D01*
X016171Y003575D02*
X016173Y003601D01*
X016179Y003627D01*
X016188Y003651D01*
X016201Y003674D01*
X016218Y003694D01*
X016237Y003712D01*
X016259Y003727D01*
X016282Y003738D01*
X016307Y003746D01*
X016333Y003750D01*
X016359Y003750D01*
X016385Y003746D01*
X016410Y003738D01*
X016434Y003727D01*
X016455Y003712D01*
X016474Y003694D01*
X016491Y003674D01*
X016504Y003651D01*
X016513Y003627D01*
X016519Y003601D01*
X016521Y003575D01*
X016519Y003549D01*
X016513Y003523D01*
X016504Y003499D01*
X016491Y003476D01*
X016474Y003456D01*
X016455Y003438D01*
X016433Y003423D01*
X016410Y003412D01*
X016385Y003404D01*
X016359Y003400D01*
X016333Y003400D01*
X016307Y003404D01*
X016282Y003412D01*
X016258Y003423D01*
X016237Y003438D01*
X016218Y003456D01*
X016201Y003476D01*
X016188Y003499D01*
X016179Y003523D01*
X016173Y003549D01*
X016171Y003575D01*
X020956Y006200D02*
X020958Y006250D01*
X020964Y006300D01*
X020974Y006349D01*
X020987Y006398D01*
X021005Y006445D01*
X021026Y006491D01*
X021050Y006534D01*
X021078Y006576D01*
X021109Y006616D01*
X021143Y006653D01*
X021180Y006687D01*
X021220Y006718D01*
X021262Y006746D01*
X021305Y006770D01*
X021351Y006791D01*
X021398Y006809D01*
X021447Y006822D01*
X021496Y006832D01*
X021546Y006838D01*
X021596Y006840D01*
X021646Y006838D01*
X021696Y006832D01*
X021745Y006822D01*
X021794Y006809D01*
X021841Y006791D01*
X021887Y006770D01*
X021930Y006746D01*
X021972Y006718D01*
X022012Y006687D01*
X022049Y006653D01*
X022083Y006616D01*
X022114Y006576D01*
X022142Y006534D01*
X022166Y006491D01*
X022187Y006445D01*
X022205Y006398D01*
X022218Y006349D01*
X022228Y006300D01*
X022234Y006250D01*
X022236Y006200D01*
X022234Y006150D01*
X022228Y006100D01*
X022218Y006051D01*
X022205Y006002D01*
X022187Y005955D01*
X022166Y005909D01*
X022142Y005866D01*
X022114Y005824D01*
X022083Y005784D01*
X022049Y005747D01*
X022012Y005713D01*
X021972Y005682D01*
X021930Y005654D01*
X021887Y005630D01*
X021841Y005609D01*
X021794Y005591D01*
X021745Y005578D01*
X021696Y005568D01*
X021646Y005562D01*
X021596Y005560D01*
X021546Y005562D01*
X021496Y005568D01*
X021447Y005578D01*
X021398Y005591D01*
X021351Y005609D01*
X021305Y005630D01*
X021262Y005654D01*
X021220Y005682D01*
X021180Y005713D01*
X021143Y005747D01*
X021109Y005784D01*
X021078Y005824D01*
X021050Y005866D01*
X021026Y005909D01*
X021005Y005955D01*
X020987Y006002D01*
X020974Y006051D01*
X020964Y006100D01*
X020958Y006150D01*
X020956Y006200D01*
X024956Y006200D02*
X024958Y006250D01*
X024964Y006300D01*
X024974Y006349D01*
X024987Y006398D01*
X025005Y006445D01*
X025026Y006491D01*
X025050Y006534D01*
X025078Y006576D01*
X025109Y006616D01*
X025143Y006653D01*
X025180Y006687D01*
X025220Y006718D01*
X025262Y006746D01*
X025305Y006770D01*
X025351Y006791D01*
X025398Y006809D01*
X025447Y006822D01*
X025496Y006832D01*
X025546Y006838D01*
X025596Y006840D01*
X025646Y006838D01*
X025696Y006832D01*
X025745Y006822D01*
X025794Y006809D01*
X025841Y006791D01*
X025887Y006770D01*
X025930Y006746D01*
X025972Y006718D01*
X026012Y006687D01*
X026049Y006653D01*
X026083Y006616D01*
X026114Y006576D01*
X026142Y006534D01*
X026166Y006491D01*
X026187Y006445D01*
X026205Y006398D01*
X026218Y006349D01*
X026228Y006300D01*
X026234Y006250D01*
X026236Y006200D01*
X026234Y006150D01*
X026228Y006100D01*
X026218Y006051D01*
X026205Y006002D01*
X026187Y005955D01*
X026166Y005909D01*
X026142Y005866D01*
X026114Y005824D01*
X026083Y005784D01*
X026049Y005747D01*
X026012Y005713D01*
X025972Y005682D01*
X025930Y005654D01*
X025887Y005630D01*
X025841Y005609D01*
X025794Y005591D01*
X025745Y005578D01*
X025696Y005568D01*
X025646Y005562D01*
X025596Y005560D01*
X025546Y005562D01*
X025496Y005568D01*
X025447Y005578D01*
X025398Y005591D01*
X025351Y005609D01*
X025305Y005630D01*
X025262Y005654D01*
X025220Y005682D01*
X025180Y005713D01*
X025143Y005747D01*
X025109Y005784D01*
X025078Y005824D01*
X025050Y005866D01*
X025026Y005909D01*
X025005Y005955D01*
X024987Y006002D01*
X024974Y006051D01*
X024964Y006100D01*
X024958Y006150D01*
X024956Y006200D01*
X027456Y006200D02*
X027458Y006250D01*
X027464Y006300D01*
X027474Y006349D01*
X027487Y006398D01*
X027505Y006445D01*
X027526Y006491D01*
X027550Y006534D01*
X027578Y006576D01*
X027609Y006616D01*
X027643Y006653D01*
X027680Y006687D01*
X027720Y006718D01*
X027762Y006746D01*
X027805Y006770D01*
X027851Y006791D01*
X027898Y006809D01*
X027947Y006822D01*
X027996Y006832D01*
X028046Y006838D01*
X028096Y006840D01*
X028146Y006838D01*
X028196Y006832D01*
X028245Y006822D01*
X028294Y006809D01*
X028341Y006791D01*
X028387Y006770D01*
X028430Y006746D01*
X028472Y006718D01*
X028512Y006687D01*
X028549Y006653D01*
X028583Y006616D01*
X028614Y006576D01*
X028642Y006534D01*
X028666Y006491D01*
X028687Y006445D01*
X028705Y006398D01*
X028718Y006349D01*
X028728Y006300D01*
X028734Y006250D01*
X028736Y006200D01*
X028734Y006150D01*
X028728Y006100D01*
X028718Y006051D01*
X028705Y006002D01*
X028687Y005955D01*
X028666Y005909D01*
X028642Y005866D01*
X028614Y005824D01*
X028583Y005784D01*
X028549Y005747D01*
X028512Y005713D01*
X028472Y005682D01*
X028430Y005654D01*
X028387Y005630D01*
X028341Y005609D01*
X028294Y005591D01*
X028245Y005578D01*
X028196Y005568D01*
X028146Y005562D01*
X028096Y005560D01*
X028046Y005562D01*
X027996Y005568D01*
X027947Y005578D01*
X027898Y005591D01*
X027851Y005609D01*
X027805Y005630D01*
X027762Y005654D01*
X027720Y005682D01*
X027680Y005713D01*
X027643Y005747D01*
X027609Y005784D01*
X027578Y005824D01*
X027550Y005866D01*
X027526Y005909D01*
X027505Y005955D01*
X027487Y006002D01*
X027474Y006051D01*
X027464Y006100D01*
X027458Y006150D01*
X027456Y006200D01*
X031456Y006200D02*
X031458Y006250D01*
X031464Y006300D01*
X031474Y006349D01*
X031487Y006398D01*
X031505Y006445D01*
X031526Y006491D01*
X031550Y006534D01*
X031578Y006576D01*
X031609Y006616D01*
X031643Y006653D01*
X031680Y006687D01*
X031720Y006718D01*
X031762Y006746D01*
X031805Y006770D01*
X031851Y006791D01*
X031898Y006809D01*
X031947Y006822D01*
X031996Y006832D01*
X032046Y006838D01*
X032096Y006840D01*
X032146Y006838D01*
X032196Y006832D01*
X032245Y006822D01*
X032294Y006809D01*
X032341Y006791D01*
X032387Y006770D01*
X032430Y006746D01*
X032472Y006718D01*
X032512Y006687D01*
X032549Y006653D01*
X032583Y006616D01*
X032614Y006576D01*
X032642Y006534D01*
X032666Y006491D01*
X032687Y006445D01*
X032705Y006398D01*
X032718Y006349D01*
X032728Y006300D01*
X032734Y006250D01*
X032736Y006200D01*
X032734Y006150D01*
X032728Y006100D01*
X032718Y006051D01*
X032705Y006002D01*
X032687Y005955D01*
X032666Y005909D01*
X032642Y005866D01*
X032614Y005824D01*
X032583Y005784D01*
X032549Y005747D01*
X032512Y005713D01*
X032472Y005682D01*
X032430Y005654D01*
X032387Y005630D01*
X032341Y005609D01*
X032294Y005591D01*
X032245Y005578D01*
X032196Y005568D01*
X032146Y005562D01*
X032096Y005560D01*
X032046Y005562D01*
X031996Y005568D01*
X031947Y005578D01*
X031898Y005591D01*
X031851Y005609D01*
X031805Y005630D01*
X031762Y005654D01*
X031720Y005682D01*
X031680Y005713D01*
X031643Y005747D01*
X031609Y005784D01*
X031578Y005824D01*
X031550Y005866D01*
X031526Y005909D01*
X031505Y005955D01*
X031487Y006002D01*
X031474Y006051D01*
X031464Y006100D01*
X031458Y006150D01*
X031456Y006200D01*
X033956Y006200D02*
X033958Y006250D01*
X033964Y006300D01*
X033974Y006349D01*
X033987Y006398D01*
X034005Y006445D01*
X034026Y006491D01*
X034050Y006534D01*
X034078Y006576D01*
X034109Y006616D01*
X034143Y006653D01*
X034180Y006687D01*
X034220Y006718D01*
X034262Y006746D01*
X034305Y006770D01*
X034351Y006791D01*
X034398Y006809D01*
X034447Y006822D01*
X034496Y006832D01*
X034546Y006838D01*
X034596Y006840D01*
X034646Y006838D01*
X034696Y006832D01*
X034745Y006822D01*
X034794Y006809D01*
X034841Y006791D01*
X034887Y006770D01*
X034930Y006746D01*
X034972Y006718D01*
X035012Y006687D01*
X035049Y006653D01*
X035083Y006616D01*
X035114Y006576D01*
X035142Y006534D01*
X035166Y006491D01*
X035187Y006445D01*
X035205Y006398D01*
X035218Y006349D01*
X035228Y006300D01*
X035234Y006250D01*
X035236Y006200D01*
X035234Y006150D01*
X035228Y006100D01*
X035218Y006051D01*
X035205Y006002D01*
X035187Y005955D01*
X035166Y005909D01*
X035142Y005866D01*
X035114Y005824D01*
X035083Y005784D01*
X035049Y005747D01*
X035012Y005713D01*
X034972Y005682D01*
X034930Y005654D01*
X034887Y005630D01*
X034841Y005609D01*
X034794Y005591D01*
X034745Y005578D01*
X034696Y005568D01*
X034646Y005562D01*
X034596Y005560D01*
X034546Y005562D01*
X034496Y005568D01*
X034447Y005578D01*
X034398Y005591D01*
X034351Y005609D01*
X034305Y005630D01*
X034262Y005654D01*
X034220Y005682D01*
X034180Y005713D01*
X034143Y005747D01*
X034109Y005784D01*
X034078Y005824D01*
X034050Y005866D01*
X034026Y005909D01*
X034005Y005955D01*
X033987Y006002D01*
X033974Y006051D01*
X033964Y006100D01*
X033958Y006150D01*
X033956Y006200D01*
X037956Y006200D02*
X037958Y006250D01*
X037964Y006300D01*
X037974Y006349D01*
X037987Y006398D01*
X038005Y006445D01*
X038026Y006491D01*
X038050Y006534D01*
X038078Y006576D01*
X038109Y006616D01*
X038143Y006653D01*
X038180Y006687D01*
X038220Y006718D01*
X038262Y006746D01*
X038305Y006770D01*
X038351Y006791D01*
X038398Y006809D01*
X038447Y006822D01*
X038496Y006832D01*
X038546Y006838D01*
X038596Y006840D01*
X038646Y006838D01*
X038696Y006832D01*
X038745Y006822D01*
X038794Y006809D01*
X038841Y006791D01*
X038887Y006770D01*
X038930Y006746D01*
X038972Y006718D01*
X039012Y006687D01*
X039049Y006653D01*
X039083Y006616D01*
X039114Y006576D01*
X039142Y006534D01*
X039166Y006491D01*
X039187Y006445D01*
X039205Y006398D01*
X039218Y006349D01*
X039228Y006300D01*
X039234Y006250D01*
X039236Y006200D01*
X039234Y006150D01*
X039228Y006100D01*
X039218Y006051D01*
X039205Y006002D01*
X039187Y005955D01*
X039166Y005909D01*
X039142Y005866D01*
X039114Y005824D01*
X039083Y005784D01*
X039049Y005747D01*
X039012Y005713D01*
X038972Y005682D01*
X038930Y005654D01*
X038887Y005630D01*
X038841Y005609D01*
X038794Y005591D01*
X038745Y005578D01*
X038696Y005568D01*
X038646Y005562D01*
X038596Y005560D01*
X038546Y005562D01*
X038496Y005568D01*
X038447Y005578D01*
X038398Y005591D01*
X038351Y005609D01*
X038305Y005630D01*
X038262Y005654D01*
X038220Y005682D01*
X038180Y005713D01*
X038143Y005747D01*
X038109Y005784D01*
X038078Y005824D01*
X038050Y005866D01*
X038026Y005909D01*
X038005Y005955D01*
X037987Y006002D01*
X037974Y006051D01*
X037964Y006100D01*
X037958Y006150D01*
X037956Y006200D01*
X014419Y015334D02*
X014421Y015360D01*
X014427Y015386D01*
X014437Y015411D01*
X014450Y015434D01*
X014466Y015454D01*
X014486Y015472D01*
X014508Y015487D01*
X014531Y015499D01*
X014557Y015507D01*
X014583Y015511D01*
X014609Y015511D01*
X014635Y015507D01*
X014661Y015499D01*
X014685Y015487D01*
X014706Y015472D01*
X014726Y015454D01*
X014742Y015434D01*
X014755Y015411D01*
X014765Y015386D01*
X014771Y015360D01*
X014773Y015334D01*
X014771Y015308D01*
X014765Y015282D01*
X014755Y015257D01*
X014742Y015234D01*
X014726Y015214D01*
X014706Y015196D01*
X014684Y015181D01*
X014661Y015169D01*
X014635Y015161D01*
X014609Y015157D01*
X014583Y015157D01*
X014557Y015161D01*
X014531Y015169D01*
X014507Y015181D01*
X014486Y015196D01*
X014466Y015214D01*
X014450Y015234D01*
X014437Y015257D01*
X014427Y015282D01*
X014421Y015308D01*
X014419Y015334D01*
X014419Y017066D02*
X014421Y017092D01*
X014427Y017118D01*
X014437Y017143D01*
X014450Y017166D01*
X014466Y017186D01*
X014486Y017204D01*
X014508Y017219D01*
X014531Y017231D01*
X014557Y017239D01*
X014583Y017243D01*
X014609Y017243D01*
X014635Y017239D01*
X014661Y017231D01*
X014685Y017219D01*
X014706Y017204D01*
X014726Y017186D01*
X014742Y017166D01*
X014755Y017143D01*
X014765Y017118D01*
X014771Y017092D01*
X014773Y017066D01*
X014771Y017040D01*
X014765Y017014D01*
X014755Y016989D01*
X014742Y016966D01*
X014726Y016946D01*
X014706Y016928D01*
X014684Y016913D01*
X014661Y016901D01*
X014635Y016893D01*
X014609Y016889D01*
X014583Y016889D01*
X014557Y016893D01*
X014531Y016901D01*
X014507Y016913D01*
X014486Y016928D01*
X014466Y016946D01*
X014450Y016966D01*
X014437Y016989D01*
X014427Y017014D01*
X014421Y017040D01*
X014419Y017066D01*
X015956Y021700D02*
X015958Y021750D01*
X015964Y021800D01*
X015974Y021849D01*
X015987Y021898D01*
X016005Y021945D01*
X016026Y021991D01*
X016050Y022034D01*
X016078Y022076D01*
X016109Y022116D01*
X016143Y022153D01*
X016180Y022187D01*
X016220Y022218D01*
X016262Y022246D01*
X016305Y022270D01*
X016351Y022291D01*
X016398Y022309D01*
X016447Y022322D01*
X016496Y022332D01*
X016546Y022338D01*
X016596Y022340D01*
X016646Y022338D01*
X016696Y022332D01*
X016745Y022322D01*
X016794Y022309D01*
X016841Y022291D01*
X016887Y022270D01*
X016930Y022246D01*
X016972Y022218D01*
X017012Y022187D01*
X017049Y022153D01*
X017083Y022116D01*
X017114Y022076D01*
X017142Y022034D01*
X017166Y021991D01*
X017187Y021945D01*
X017205Y021898D01*
X017218Y021849D01*
X017228Y021800D01*
X017234Y021750D01*
X017236Y021700D01*
X017234Y021650D01*
X017228Y021600D01*
X017218Y021551D01*
X017205Y021502D01*
X017187Y021455D01*
X017166Y021409D01*
X017142Y021366D01*
X017114Y021324D01*
X017083Y021284D01*
X017049Y021247D01*
X017012Y021213D01*
X016972Y021182D01*
X016930Y021154D01*
X016887Y021130D01*
X016841Y021109D01*
X016794Y021091D01*
X016745Y021078D01*
X016696Y021068D01*
X016646Y021062D01*
X016596Y021060D01*
X016546Y021062D01*
X016496Y021068D01*
X016447Y021078D01*
X016398Y021091D01*
X016351Y021109D01*
X016305Y021130D01*
X016262Y021154D01*
X016220Y021182D01*
X016180Y021213D01*
X016143Y021247D01*
X016109Y021284D01*
X016078Y021324D01*
X016050Y021366D01*
X016026Y021409D01*
X016005Y021455D01*
X015987Y021502D01*
X015974Y021551D01*
X015964Y021600D01*
X015958Y021650D01*
X015956Y021700D01*
X019956Y021700D02*
X019958Y021750D01*
X019964Y021800D01*
X019974Y021849D01*
X019987Y021898D01*
X020005Y021945D01*
X020026Y021991D01*
X020050Y022034D01*
X020078Y022076D01*
X020109Y022116D01*
X020143Y022153D01*
X020180Y022187D01*
X020220Y022218D01*
X020262Y022246D01*
X020305Y022270D01*
X020351Y022291D01*
X020398Y022309D01*
X020447Y022322D01*
X020496Y022332D01*
X020546Y022338D01*
X020596Y022340D01*
X020646Y022338D01*
X020696Y022332D01*
X020745Y022322D01*
X020794Y022309D01*
X020841Y022291D01*
X020887Y022270D01*
X020930Y022246D01*
X020972Y022218D01*
X021012Y022187D01*
X021049Y022153D01*
X021083Y022116D01*
X021114Y022076D01*
X021142Y022034D01*
X021166Y021991D01*
X021187Y021945D01*
X021205Y021898D01*
X021218Y021849D01*
X021228Y021800D01*
X021234Y021750D01*
X021236Y021700D01*
X021234Y021650D01*
X021228Y021600D01*
X021218Y021551D01*
X021205Y021502D01*
X021187Y021455D01*
X021166Y021409D01*
X021142Y021366D01*
X021114Y021324D01*
X021083Y021284D01*
X021049Y021247D01*
X021012Y021213D01*
X020972Y021182D01*
X020930Y021154D01*
X020887Y021130D01*
X020841Y021109D01*
X020794Y021091D01*
X020745Y021078D01*
X020696Y021068D01*
X020646Y021062D01*
X020596Y021060D01*
X020546Y021062D01*
X020496Y021068D01*
X020447Y021078D01*
X020398Y021091D01*
X020351Y021109D01*
X020305Y021130D01*
X020262Y021154D01*
X020220Y021182D01*
X020180Y021213D01*
X020143Y021247D01*
X020109Y021284D01*
X020078Y021324D01*
X020050Y021366D01*
X020026Y021409D01*
X020005Y021455D01*
X019987Y021502D01*
X019974Y021551D01*
X019964Y021600D01*
X019958Y021650D01*
X019956Y021700D01*
X022456Y021700D02*
X022458Y021750D01*
X022464Y021800D01*
X022474Y021849D01*
X022487Y021898D01*
X022505Y021945D01*
X022526Y021991D01*
X022550Y022034D01*
X022578Y022076D01*
X022609Y022116D01*
X022643Y022153D01*
X022680Y022187D01*
X022720Y022218D01*
X022762Y022246D01*
X022805Y022270D01*
X022851Y022291D01*
X022898Y022309D01*
X022947Y022322D01*
X022996Y022332D01*
X023046Y022338D01*
X023096Y022340D01*
X023146Y022338D01*
X023196Y022332D01*
X023245Y022322D01*
X023294Y022309D01*
X023341Y022291D01*
X023387Y022270D01*
X023430Y022246D01*
X023472Y022218D01*
X023512Y022187D01*
X023549Y022153D01*
X023583Y022116D01*
X023614Y022076D01*
X023642Y022034D01*
X023666Y021991D01*
X023687Y021945D01*
X023705Y021898D01*
X023718Y021849D01*
X023728Y021800D01*
X023734Y021750D01*
X023736Y021700D01*
X023734Y021650D01*
X023728Y021600D01*
X023718Y021551D01*
X023705Y021502D01*
X023687Y021455D01*
X023666Y021409D01*
X023642Y021366D01*
X023614Y021324D01*
X023583Y021284D01*
X023549Y021247D01*
X023512Y021213D01*
X023472Y021182D01*
X023430Y021154D01*
X023387Y021130D01*
X023341Y021109D01*
X023294Y021091D01*
X023245Y021078D01*
X023196Y021068D01*
X023146Y021062D01*
X023096Y021060D01*
X023046Y021062D01*
X022996Y021068D01*
X022947Y021078D01*
X022898Y021091D01*
X022851Y021109D01*
X022805Y021130D01*
X022762Y021154D01*
X022720Y021182D01*
X022680Y021213D01*
X022643Y021247D01*
X022609Y021284D01*
X022578Y021324D01*
X022550Y021366D01*
X022526Y021409D01*
X022505Y021455D01*
X022487Y021502D01*
X022474Y021551D01*
X022464Y021600D01*
X022458Y021650D01*
X022456Y021700D01*
X026456Y021700D02*
X026458Y021750D01*
X026464Y021800D01*
X026474Y021849D01*
X026487Y021898D01*
X026505Y021945D01*
X026526Y021991D01*
X026550Y022034D01*
X026578Y022076D01*
X026609Y022116D01*
X026643Y022153D01*
X026680Y022187D01*
X026720Y022218D01*
X026762Y022246D01*
X026805Y022270D01*
X026851Y022291D01*
X026898Y022309D01*
X026947Y022322D01*
X026996Y022332D01*
X027046Y022338D01*
X027096Y022340D01*
X027146Y022338D01*
X027196Y022332D01*
X027245Y022322D01*
X027294Y022309D01*
X027341Y022291D01*
X027387Y022270D01*
X027430Y022246D01*
X027472Y022218D01*
X027512Y022187D01*
X027549Y022153D01*
X027583Y022116D01*
X027614Y022076D01*
X027642Y022034D01*
X027666Y021991D01*
X027687Y021945D01*
X027705Y021898D01*
X027718Y021849D01*
X027728Y021800D01*
X027734Y021750D01*
X027736Y021700D01*
X027734Y021650D01*
X027728Y021600D01*
X027718Y021551D01*
X027705Y021502D01*
X027687Y021455D01*
X027666Y021409D01*
X027642Y021366D01*
X027614Y021324D01*
X027583Y021284D01*
X027549Y021247D01*
X027512Y021213D01*
X027472Y021182D01*
X027430Y021154D01*
X027387Y021130D01*
X027341Y021109D01*
X027294Y021091D01*
X027245Y021078D01*
X027196Y021068D01*
X027146Y021062D01*
X027096Y021060D01*
X027046Y021062D01*
X026996Y021068D01*
X026947Y021078D01*
X026898Y021091D01*
X026851Y021109D01*
X026805Y021130D01*
X026762Y021154D01*
X026720Y021182D01*
X026680Y021213D01*
X026643Y021247D01*
X026609Y021284D01*
X026578Y021324D01*
X026550Y021366D01*
X026526Y021409D01*
X026505Y021455D01*
X026487Y021502D01*
X026474Y021551D01*
X026464Y021600D01*
X026458Y021650D01*
X026456Y021700D01*
X028956Y021700D02*
X028958Y021750D01*
X028964Y021800D01*
X028974Y021849D01*
X028987Y021898D01*
X029005Y021945D01*
X029026Y021991D01*
X029050Y022034D01*
X029078Y022076D01*
X029109Y022116D01*
X029143Y022153D01*
X029180Y022187D01*
X029220Y022218D01*
X029262Y022246D01*
X029305Y022270D01*
X029351Y022291D01*
X029398Y022309D01*
X029447Y022322D01*
X029496Y022332D01*
X029546Y022338D01*
X029596Y022340D01*
X029646Y022338D01*
X029696Y022332D01*
X029745Y022322D01*
X029794Y022309D01*
X029841Y022291D01*
X029887Y022270D01*
X029930Y022246D01*
X029972Y022218D01*
X030012Y022187D01*
X030049Y022153D01*
X030083Y022116D01*
X030114Y022076D01*
X030142Y022034D01*
X030166Y021991D01*
X030187Y021945D01*
X030205Y021898D01*
X030218Y021849D01*
X030228Y021800D01*
X030234Y021750D01*
X030236Y021700D01*
X030234Y021650D01*
X030228Y021600D01*
X030218Y021551D01*
X030205Y021502D01*
X030187Y021455D01*
X030166Y021409D01*
X030142Y021366D01*
X030114Y021324D01*
X030083Y021284D01*
X030049Y021247D01*
X030012Y021213D01*
X029972Y021182D01*
X029930Y021154D01*
X029887Y021130D01*
X029841Y021109D01*
X029794Y021091D01*
X029745Y021078D01*
X029696Y021068D01*
X029646Y021062D01*
X029596Y021060D01*
X029546Y021062D01*
X029496Y021068D01*
X029447Y021078D01*
X029398Y021091D01*
X029351Y021109D01*
X029305Y021130D01*
X029262Y021154D01*
X029220Y021182D01*
X029180Y021213D01*
X029143Y021247D01*
X029109Y021284D01*
X029078Y021324D01*
X029050Y021366D01*
X029026Y021409D01*
X029005Y021455D01*
X028987Y021502D01*
X028974Y021551D01*
X028964Y021600D01*
X028958Y021650D01*
X028956Y021700D01*
X032956Y021700D02*
X032958Y021750D01*
X032964Y021800D01*
X032974Y021849D01*
X032987Y021898D01*
X033005Y021945D01*
X033026Y021991D01*
X033050Y022034D01*
X033078Y022076D01*
X033109Y022116D01*
X033143Y022153D01*
X033180Y022187D01*
X033220Y022218D01*
X033262Y022246D01*
X033305Y022270D01*
X033351Y022291D01*
X033398Y022309D01*
X033447Y022322D01*
X033496Y022332D01*
X033546Y022338D01*
X033596Y022340D01*
X033646Y022338D01*
X033696Y022332D01*
X033745Y022322D01*
X033794Y022309D01*
X033841Y022291D01*
X033887Y022270D01*
X033930Y022246D01*
X033972Y022218D01*
X034012Y022187D01*
X034049Y022153D01*
X034083Y022116D01*
X034114Y022076D01*
X034142Y022034D01*
X034166Y021991D01*
X034187Y021945D01*
X034205Y021898D01*
X034218Y021849D01*
X034228Y021800D01*
X034234Y021750D01*
X034236Y021700D01*
X034234Y021650D01*
X034228Y021600D01*
X034218Y021551D01*
X034205Y021502D01*
X034187Y021455D01*
X034166Y021409D01*
X034142Y021366D01*
X034114Y021324D01*
X034083Y021284D01*
X034049Y021247D01*
X034012Y021213D01*
X033972Y021182D01*
X033930Y021154D01*
X033887Y021130D01*
X033841Y021109D01*
X033794Y021091D01*
X033745Y021078D01*
X033696Y021068D01*
X033646Y021062D01*
X033596Y021060D01*
X033546Y021062D01*
X033496Y021068D01*
X033447Y021078D01*
X033398Y021091D01*
X033351Y021109D01*
X033305Y021130D01*
X033262Y021154D01*
X033220Y021182D01*
X033180Y021213D01*
X033143Y021247D01*
X033109Y021284D01*
X033078Y021324D01*
X033050Y021366D01*
X033026Y021409D01*
X033005Y021455D01*
X032987Y021502D01*
X032974Y021551D01*
X032964Y021600D01*
X032958Y021650D01*
X032956Y021700D01*
X035456Y021700D02*
X035458Y021750D01*
X035464Y021800D01*
X035474Y021849D01*
X035487Y021898D01*
X035505Y021945D01*
X035526Y021991D01*
X035550Y022034D01*
X035578Y022076D01*
X035609Y022116D01*
X035643Y022153D01*
X035680Y022187D01*
X035720Y022218D01*
X035762Y022246D01*
X035805Y022270D01*
X035851Y022291D01*
X035898Y022309D01*
X035947Y022322D01*
X035996Y022332D01*
X036046Y022338D01*
X036096Y022340D01*
X036146Y022338D01*
X036196Y022332D01*
X036245Y022322D01*
X036294Y022309D01*
X036341Y022291D01*
X036387Y022270D01*
X036430Y022246D01*
X036472Y022218D01*
X036512Y022187D01*
X036549Y022153D01*
X036583Y022116D01*
X036614Y022076D01*
X036642Y022034D01*
X036666Y021991D01*
X036687Y021945D01*
X036705Y021898D01*
X036718Y021849D01*
X036728Y021800D01*
X036734Y021750D01*
X036736Y021700D01*
X036734Y021650D01*
X036728Y021600D01*
X036718Y021551D01*
X036705Y021502D01*
X036687Y021455D01*
X036666Y021409D01*
X036642Y021366D01*
X036614Y021324D01*
X036583Y021284D01*
X036549Y021247D01*
X036512Y021213D01*
X036472Y021182D01*
X036430Y021154D01*
X036387Y021130D01*
X036341Y021109D01*
X036294Y021091D01*
X036245Y021078D01*
X036196Y021068D01*
X036146Y021062D01*
X036096Y021060D01*
X036046Y021062D01*
X035996Y021068D01*
X035947Y021078D01*
X035898Y021091D01*
X035851Y021109D01*
X035805Y021130D01*
X035762Y021154D01*
X035720Y021182D01*
X035680Y021213D01*
X035643Y021247D01*
X035609Y021284D01*
X035578Y021324D01*
X035550Y021366D01*
X035526Y021409D01*
X035505Y021455D01*
X035487Y021502D01*
X035474Y021551D01*
X035464Y021600D01*
X035458Y021650D01*
X035456Y021700D01*
X039456Y021700D02*
X039458Y021750D01*
X039464Y021800D01*
X039474Y021849D01*
X039487Y021898D01*
X039505Y021945D01*
X039526Y021991D01*
X039550Y022034D01*
X039578Y022076D01*
X039609Y022116D01*
X039643Y022153D01*
X039680Y022187D01*
X039720Y022218D01*
X039762Y022246D01*
X039805Y022270D01*
X039851Y022291D01*
X039898Y022309D01*
X039947Y022322D01*
X039996Y022332D01*
X040046Y022338D01*
X040096Y022340D01*
X040146Y022338D01*
X040196Y022332D01*
X040245Y022322D01*
X040294Y022309D01*
X040341Y022291D01*
X040387Y022270D01*
X040430Y022246D01*
X040472Y022218D01*
X040512Y022187D01*
X040549Y022153D01*
X040583Y022116D01*
X040614Y022076D01*
X040642Y022034D01*
X040666Y021991D01*
X040687Y021945D01*
X040705Y021898D01*
X040718Y021849D01*
X040728Y021800D01*
X040734Y021750D01*
X040736Y021700D01*
X040734Y021650D01*
X040728Y021600D01*
X040718Y021551D01*
X040705Y021502D01*
X040687Y021455D01*
X040666Y021409D01*
X040642Y021366D01*
X040614Y021324D01*
X040583Y021284D01*
X040549Y021247D01*
X040512Y021213D01*
X040472Y021182D01*
X040430Y021154D01*
X040387Y021130D01*
X040341Y021109D01*
X040294Y021091D01*
X040245Y021078D01*
X040196Y021068D01*
X040146Y021062D01*
X040096Y021060D01*
X040046Y021062D01*
X039996Y021068D01*
X039947Y021078D01*
X039898Y021091D01*
X039851Y021109D01*
X039805Y021130D01*
X039762Y021154D01*
X039720Y021182D01*
X039680Y021213D01*
X039643Y021247D01*
X039609Y021284D01*
X039578Y021324D01*
X039550Y021366D01*
X039526Y021409D01*
X039505Y021455D01*
X039487Y021502D01*
X039474Y021551D01*
X039464Y021600D01*
X039458Y021650D01*
X039456Y021700D01*
X041956Y021700D02*
X041958Y021750D01*
X041964Y021800D01*
X041974Y021849D01*
X041987Y021898D01*
X042005Y021945D01*
X042026Y021991D01*
X042050Y022034D01*
X042078Y022076D01*
X042109Y022116D01*
X042143Y022153D01*
X042180Y022187D01*
X042220Y022218D01*
X042262Y022246D01*
X042305Y022270D01*
X042351Y022291D01*
X042398Y022309D01*
X042447Y022322D01*
X042496Y022332D01*
X042546Y022338D01*
X042596Y022340D01*
X042646Y022338D01*
X042696Y022332D01*
X042745Y022322D01*
X042794Y022309D01*
X042841Y022291D01*
X042887Y022270D01*
X042930Y022246D01*
X042972Y022218D01*
X043012Y022187D01*
X043049Y022153D01*
X043083Y022116D01*
X043114Y022076D01*
X043142Y022034D01*
X043166Y021991D01*
X043187Y021945D01*
X043205Y021898D01*
X043218Y021849D01*
X043228Y021800D01*
X043234Y021750D01*
X043236Y021700D01*
X043234Y021650D01*
X043228Y021600D01*
X043218Y021551D01*
X043205Y021502D01*
X043187Y021455D01*
X043166Y021409D01*
X043142Y021366D01*
X043114Y021324D01*
X043083Y021284D01*
X043049Y021247D01*
X043012Y021213D01*
X042972Y021182D01*
X042930Y021154D01*
X042887Y021130D01*
X042841Y021109D01*
X042794Y021091D01*
X042745Y021078D01*
X042696Y021068D01*
X042646Y021062D01*
X042596Y021060D01*
X042546Y021062D01*
X042496Y021068D01*
X042447Y021078D01*
X042398Y021091D01*
X042351Y021109D01*
X042305Y021130D01*
X042262Y021154D01*
X042220Y021182D01*
X042180Y021213D01*
X042143Y021247D01*
X042109Y021284D01*
X042078Y021324D01*
X042050Y021366D01*
X042026Y021409D01*
X042005Y021455D01*
X041987Y021502D01*
X041974Y021551D01*
X041964Y021600D01*
X041958Y021650D01*
X041956Y021700D01*
X045956Y021700D02*
X045958Y021750D01*
X045964Y021800D01*
X045974Y021849D01*
X045987Y021898D01*
X046005Y021945D01*
X046026Y021991D01*
X046050Y022034D01*
X046078Y022076D01*
X046109Y022116D01*
X046143Y022153D01*
X046180Y022187D01*
X046220Y022218D01*
X046262Y022246D01*
X046305Y022270D01*
X046351Y022291D01*
X046398Y022309D01*
X046447Y022322D01*
X046496Y022332D01*
X046546Y022338D01*
X046596Y022340D01*
X046646Y022338D01*
X046696Y022332D01*
X046745Y022322D01*
X046794Y022309D01*
X046841Y022291D01*
X046887Y022270D01*
X046930Y022246D01*
X046972Y022218D01*
X047012Y022187D01*
X047049Y022153D01*
X047083Y022116D01*
X047114Y022076D01*
X047142Y022034D01*
X047166Y021991D01*
X047187Y021945D01*
X047205Y021898D01*
X047218Y021849D01*
X047228Y021800D01*
X047234Y021750D01*
X047236Y021700D01*
X047234Y021650D01*
X047228Y021600D01*
X047218Y021551D01*
X047205Y021502D01*
X047187Y021455D01*
X047166Y021409D01*
X047142Y021366D01*
X047114Y021324D01*
X047083Y021284D01*
X047049Y021247D01*
X047012Y021213D01*
X046972Y021182D01*
X046930Y021154D01*
X046887Y021130D01*
X046841Y021109D01*
X046794Y021091D01*
X046745Y021078D01*
X046696Y021068D01*
X046646Y021062D01*
X046596Y021060D01*
X046546Y021062D01*
X046496Y021068D01*
X046447Y021078D01*
X046398Y021091D01*
X046351Y021109D01*
X046305Y021130D01*
X046262Y021154D01*
X046220Y021182D01*
X046180Y021213D01*
X046143Y021247D01*
X046109Y021284D01*
X046078Y021324D01*
X046050Y021366D01*
X046026Y021409D01*
X046005Y021455D01*
X045987Y021502D01*
X045974Y021551D01*
X045964Y021600D01*
X045958Y021650D01*
X045956Y021700D01*
X013915Y009684D02*
X013917Y009720D01*
X013923Y009756D01*
X013933Y009791D01*
X013946Y009825D01*
X013963Y009857D01*
X013983Y009887D01*
X014007Y009914D01*
X014033Y009939D01*
X014062Y009961D01*
X014093Y009980D01*
X014126Y009995D01*
X014160Y010007D01*
X014196Y010015D01*
X014232Y010019D01*
X014268Y010019D01*
X014304Y010015D01*
X014340Y010007D01*
X014374Y009995D01*
X014407Y009980D01*
X014438Y009961D01*
X014467Y009939D01*
X014493Y009914D01*
X014517Y009887D01*
X014537Y009857D01*
X014554Y009825D01*
X014567Y009791D01*
X014577Y009756D01*
X014583Y009720D01*
X014585Y009684D01*
X014583Y009648D01*
X014577Y009612D01*
X014567Y009577D01*
X014554Y009543D01*
X014537Y009511D01*
X014517Y009481D01*
X014493Y009454D01*
X014467Y009429D01*
X014438Y009407D01*
X014407Y009388D01*
X014374Y009373D01*
X014340Y009361D01*
X014304Y009353D01*
X014268Y009349D01*
X014232Y009349D01*
X014196Y009353D01*
X014160Y009361D01*
X014126Y009373D01*
X014093Y009388D01*
X014062Y009407D01*
X014033Y009429D01*
X014007Y009454D01*
X013983Y009481D01*
X013963Y009511D01*
X013946Y009543D01*
X013933Y009577D01*
X013923Y009612D01*
X013917Y009648D01*
X013915Y009684D01*
X013915Y007716D02*
X013917Y007752D01*
X013923Y007788D01*
X013933Y007823D01*
X013946Y007857D01*
X013963Y007889D01*
X013983Y007919D01*
X014007Y007946D01*
X014033Y007971D01*
X014062Y007993D01*
X014093Y008012D01*
X014126Y008027D01*
X014160Y008039D01*
X014196Y008047D01*
X014232Y008051D01*
X014268Y008051D01*
X014304Y008047D01*
X014340Y008039D01*
X014374Y008027D01*
X014407Y008012D01*
X014438Y007993D01*
X014467Y007971D01*
X014493Y007946D01*
X014517Y007919D01*
X014537Y007889D01*
X014554Y007857D01*
X014567Y007823D01*
X014577Y007788D01*
X014583Y007752D01*
X014585Y007716D01*
X014583Y007680D01*
X014577Y007644D01*
X014567Y007609D01*
X014554Y007575D01*
X014537Y007543D01*
X014517Y007513D01*
X014493Y007486D01*
X014467Y007461D01*
X014438Y007439D01*
X014407Y007420D01*
X014374Y007405D01*
X014340Y007393D01*
X014304Y007385D01*
X014268Y007381D01*
X014232Y007381D01*
X014196Y007385D01*
X014160Y007393D01*
X014126Y007405D01*
X014093Y007420D01*
X014062Y007439D01*
X014033Y007461D01*
X014007Y007486D01*
X013983Y007513D01*
X013963Y007543D01*
X013946Y007575D01*
X013933Y007609D01*
X013923Y007644D01*
X013917Y007680D01*
X013915Y007716D01*
D11*
X022346Y003700D03*
X023346Y003700D03*
X024346Y003700D03*
X023846Y002700D03*
X022846Y002700D03*
X024846Y002700D03*
X028846Y003700D03*
X029846Y003700D03*
X030846Y003700D03*
X030346Y002700D03*
X029346Y002700D03*
X031346Y002700D03*
X035346Y003700D03*
X036346Y003700D03*
X037346Y003700D03*
X036846Y002700D03*
X035846Y002700D03*
X037846Y002700D03*
X037346Y024200D03*
X038346Y024200D03*
X039346Y024200D03*
X038846Y025200D03*
X037846Y025200D03*
X036846Y025200D03*
X032846Y024200D03*
X031846Y024200D03*
X030846Y024200D03*
X030346Y025200D03*
X031346Y025200D03*
X032346Y025200D03*
X026346Y024200D03*
X025346Y024200D03*
X024346Y024200D03*
X023846Y025200D03*
X024846Y025200D03*
X025846Y025200D03*
X019846Y024200D03*
X018846Y024200D03*
X017846Y024200D03*
X017346Y025200D03*
X018346Y025200D03*
X019346Y025200D03*
X043346Y025200D03*
X044346Y025200D03*
X045346Y025200D03*
X044846Y024200D03*
X043846Y024200D03*
X045846Y024200D03*
D12*
X017596Y011771D03*
X013462Y008700D03*
X017596Y005629D03*
D13*
X014250Y005629D03*
X014250Y011771D03*
D14*
X015628Y009684D03*
X017065Y009763D03*
X017065Y007637D03*
X015628Y007716D03*
D15*
X018183Y013200D03*
X019010Y013200D03*
X019010Y014200D03*
X018183Y014200D03*
X022683Y013700D03*
X023510Y013700D03*
X023510Y014700D03*
X022683Y014700D03*
X022683Y015700D03*
X023510Y015700D03*
X042596Y015787D03*
X042596Y016613D03*
X043596Y016613D03*
X043596Y015787D03*
X044596Y015787D03*
X044596Y016613D03*
D16*
X025470Y015700D03*
X024722Y015700D03*
X024762Y014700D03*
X025431Y014700D03*
X025470Y013700D03*
X024722Y013700D03*
X020970Y013200D03*
X020222Y013200D03*
X020222Y014200D03*
X020970Y014200D03*
D17*
X013596Y023932D03*
X013596Y025468D03*
D18*
X037096Y015751D03*
X037096Y014649D03*
D19*
X034671Y016483D03*
X034356Y016483D03*
X034041Y016483D03*
X033726Y016483D03*
X033411Y016483D03*
X033096Y016483D03*
X032781Y016483D03*
X032466Y016483D03*
X032151Y016483D03*
X031836Y016483D03*
X031522Y016483D03*
X031522Y011917D03*
X031836Y011917D03*
X032151Y011917D03*
X032466Y011917D03*
X032781Y011917D03*
X033096Y011917D03*
X033411Y011917D03*
X033726Y011917D03*
X034041Y011917D03*
X034356Y011917D03*
X034671Y011917D03*
D20*
X035380Y012625D03*
X035380Y012940D03*
X035380Y013255D03*
X035380Y013570D03*
X035380Y013885D03*
X035380Y014200D03*
X035380Y014515D03*
X035380Y014830D03*
X035380Y015145D03*
X035380Y015460D03*
X035380Y015775D03*
X030813Y015775D03*
X030813Y015460D03*
X030813Y015145D03*
X030813Y014830D03*
X030813Y014515D03*
X030813Y014200D03*
X030813Y013885D03*
X030813Y013570D03*
X030813Y013255D03*
X030813Y012940D03*
X030813Y012625D03*
D21*
X025471Y012575D03*
X025471Y010825D03*
X022721Y010825D03*
X022721Y012575D03*
D22*
X029096Y013640D03*
X029096Y014760D03*
D23*
X037096Y013574D03*
X037096Y012826D03*
D24*
X033023Y017575D03*
X031920Y017575D03*
D25*
X027721Y015249D03*
X027721Y013190D03*
D26*
X013415Y014448D03*
X013415Y017952D03*
D27*
X015738Y017952D03*
X015738Y014448D03*
D28*
X015777Y015570D03*
X015777Y015885D03*
X015777Y016200D03*
X015777Y016515D03*
X015777Y016830D03*
D29*
X018545Y016950D03*
X019648Y016950D03*
X019648Y015700D03*
X018545Y015700D03*
D30*
X042596Y014574D03*
X042596Y013826D03*
X043596Y013826D03*
X043596Y014574D03*
X044596Y014574D03*
X044596Y013826D03*
D31*
X040471Y012825D03*
X038721Y012825D03*
X038721Y015575D03*
X040471Y015575D03*
D32*
X043096Y010025D02*
X043096Y009375D01*
X044096Y009375D02*
X044096Y010025D01*
X045096Y010025D02*
X045096Y009375D01*
X046096Y009375D02*
X046096Y010025D01*
X047096Y010025D02*
X047096Y009375D01*
X048096Y009375D02*
X048096Y010025D01*
X049096Y010025D02*
X049096Y009375D01*
X050096Y009375D02*
X050096Y010025D01*
X050096Y003025D02*
X050096Y002375D01*
X049096Y002375D02*
X049096Y003025D01*
X048096Y003025D02*
X048096Y002375D01*
X047096Y002375D02*
X047096Y003025D01*
X046096Y003025D02*
X046096Y002375D01*
X045096Y002375D02*
X045096Y003025D01*
X044096Y003025D02*
X044096Y002375D01*
X043096Y002375D02*
X043096Y003025D01*
D33*
X046441Y012712D02*
X046956Y012712D01*
X046992Y013657D02*
X047507Y013657D01*
X049770Y014443D02*
X049770Y014957D01*
X048728Y016491D02*
X048213Y016491D01*
X045439Y016532D02*
X045439Y016017D01*
D34*
X041471Y017030D02*
X041471Y013620D01*
X041471Y004700D01*
X036346Y004700D02*
X035346Y004700D01*
X028846Y004700D01*
X022096Y004700D01*
X022346Y004450D01*
X022346Y003700D01*
X022096Y004700D02*
X021471Y004700D01*
X021471Y000700D01*
X015456Y000700D01*
X013096Y000700D01*
X013096Y004200D01*
X015596Y004200D01*
X015596Y007684D01*
X015628Y007716D01*
X015628Y009684D01*
X022846Y002700D02*
X022846Y000700D01*
X029346Y000700D01*
X035846Y000700D01*
X043121Y000700D01*
X051096Y000700D01*
X051096Y014005D01*
X051096Y026700D01*
X045596Y026700D01*
X045346Y026450D01*
X045346Y025200D01*
X044846Y024200D02*
X044846Y023450D01*
X044596Y023200D01*
X041471Y023200D01*
X039596Y023200D01*
X039346Y023450D01*
X039346Y024200D01*
X038346Y024200D02*
X038346Y023450D01*
X038096Y023200D01*
X032596Y023200D01*
X032846Y023450D01*
X032846Y024200D01*
X031846Y024200D02*
X031846Y023450D01*
X031596Y023200D01*
X026596Y023200D01*
X026346Y023450D01*
X026346Y024200D01*
X025346Y024200D02*
X025346Y023450D01*
X025096Y023200D01*
X019596Y023200D01*
X019846Y023450D01*
X019846Y024200D01*
X018846Y024200D02*
X018846Y023200D01*
X019596Y023200D01*
X019346Y025200D02*
X019346Y026450D01*
X019096Y026700D01*
X025596Y026700D01*
X025846Y026450D01*
X025846Y025200D01*
X025596Y026700D02*
X032096Y026700D01*
X032346Y026450D01*
X032346Y025200D01*
X032096Y026700D02*
X039096Y026700D01*
X038846Y026450D01*
X038846Y025200D01*
X039096Y026700D02*
X045596Y026700D01*
X045846Y024200D02*
X045846Y023450D01*
X046096Y023200D01*
X044596Y023200D01*
X041471Y023200D02*
X041471Y017305D01*
X041471Y017030D01*
X039596Y023200D02*
X038096Y023200D01*
X032596Y023200D02*
X031596Y023200D01*
X026596Y023200D02*
X025096Y023200D01*
X019096Y026700D02*
X013596Y026700D01*
X013596Y025468D01*
X013596Y023932D02*
X013096Y023432D01*
X013096Y022700D01*
D35*
X028846Y004700D02*
X028846Y003700D01*
X029346Y002700D02*
X029346Y000700D01*
X035346Y003700D02*
X035346Y004700D01*
X036346Y004700D02*
X041471Y004700D01*
X036346Y004700D02*
X036346Y003700D01*
X035846Y002700D02*
X035846Y000700D01*
D36*
X043121Y000700D02*
X043121Y002675D01*
X043096Y002700D01*
X049096Y002700D02*
X049116Y002730D01*
X049116Y009660D01*
X049096Y009700D01*
X049611Y014005D02*
X051096Y014005D01*
X049770Y014700D02*
X049721Y014720D01*
X047851Y014720D01*
X045266Y017305D01*
X041471Y017305D01*
X041471Y017030D02*
X040866Y017030D01*
X042021Y016645D02*
X042571Y016645D01*
X042596Y016613D01*
X042901Y017030D02*
X043286Y016645D01*
X043561Y016645D01*
X043596Y016613D01*
X043891Y016205D02*
X042131Y016205D01*
X042021Y016095D01*
X043891Y016205D02*
X044276Y016590D01*
X044551Y016590D01*
X044596Y016613D01*
X043121Y014170D02*
X043121Y013840D01*
X042626Y013840D01*
X042596Y013826D01*
X043121Y013840D02*
X043561Y013840D01*
X043596Y013826D01*
X043671Y013840D01*
X044551Y013840D01*
X044596Y013826D01*
X044661Y013895D01*
X046641Y013895D01*
X046861Y014115D01*
X049501Y014115D01*
X049611Y014005D01*
X041471Y013620D02*
X040041Y013620D01*
X039271Y012850D01*
X038721Y012850D01*
X038721Y012825D01*
X037096Y013574D02*
X037126Y013675D01*
X037126Y014610D01*
X037096Y014649D01*
X037181Y014555D01*
X037676Y014555D01*
X037071Y013620D02*
X037096Y013574D01*
X037071Y013620D02*
X036411Y012960D01*
X035421Y012960D01*
X035380Y012940D01*
X031522Y011917D02*
X031516Y011915D01*
X031516Y009330D01*
X024256Y012300D02*
X023046Y012300D01*
X022771Y012575D01*
X022721Y012575D01*
X022661Y012520D01*
X021506Y012520D01*
X021396Y012410D01*
X019031Y012410D01*
X018261Y013180D01*
X018183Y013200D01*
X018096Y013180D01*
X017931Y013180D01*
X015731Y010980D01*
X015731Y010100D01*
X015628Y009684D01*
X015716Y010020D01*
X017876Y009220D02*
X017876Y006965D01*
X016116Y005205D01*
X016116Y003995D01*
X014136Y002015D01*
X015456Y001905D02*
X015456Y000700D01*
X018183Y013200D02*
X018206Y013235D01*
X018206Y014170D01*
X018183Y014200D01*
X018206Y014280D01*
X018206Y014720D01*
X018426Y014940D01*
X022716Y014940D01*
X022716Y015655D01*
X022683Y015700D01*
X022771Y015710D01*
X023211Y016150D01*
X025796Y016150D01*
X025961Y015985D01*
X026181Y016205D01*
X025961Y015985D02*
X026896Y015050D01*
X026896Y014775D01*
X025466Y013730D02*
X025026Y014170D01*
X022991Y014170D01*
X022716Y013730D02*
X022716Y014665D01*
X022683Y014700D01*
X022716Y014775D01*
X022716Y014940D01*
X022276Y014170D02*
X021781Y014170D01*
X021286Y014665D01*
X020626Y014665D01*
X022683Y013700D02*
X022716Y013730D01*
X025466Y013730D02*
X025470Y013700D01*
X029646Y015050D02*
X029811Y015050D01*
X030031Y014830D01*
X030801Y014830D01*
X030813Y014830D01*
X033441Y016150D02*
X033441Y016425D01*
X033411Y016483D01*
X033441Y016150D02*
X033606Y015985D01*
X033881Y015985D01*
X034376Y015490D01*
X034431Y015490D01*
X034431Y015545D01*
X034431Y015490D02*
X035366Y015490D01*
X035380Y015460D01*
X036246Y016480D02*
X036576Y016810D01*
X036356Y017030D01*
X036356Y018350D01*
X036576Y016810D02*
X036686Y016700D01*
X037951Y016700D01*
X018206Y014720D02*
X017381Y015545D01*
X015786Y015545D01*
X015777Y015570D01*
D37*
X018206Y014720D03*
X020626Y014665D03*
X021561Y015270D03*
X022276Y014170D03*
X022991Y014170D03*
X023706Y012685D03*
X024256Y012685D03*
X024256Y012300D03*
X025851Y011750D03*
X026896Y011420D03*
X027391Y011475D03*
X027006Y010925D03*
X028216Y010210D03*
X028821Y011145D03*
X029481Y011365D03*
X029701Y011145D03*
X029096Y011805D03*
X031021Y010595D03*
X030966Y010265D03*
X031846Y011035D03*
X033276Y010980D03*
X033606Y011035D03*
X033881Y009880D03*
X032946Y009330D03*
X032946Y009000D03*
X033221Y008450D03*
X033881Y008395D03*
X034871Y008175D03*
X033056Y007240D03*
X030966Y007845D03*
X030966Y008725D03*
X031516Y009330D03*
X029756Y008725D03*
X028216Y008615D03*
X027666Y007515D03*
X026126Y007515D03*
X025356Y007515D03*
X025136Y008615D03*
X023816Y009660D03*
X025466Y010265D03*
X026456Y009935D03*
X022551Y011475D03*
X022221Y011750D03*
X021286Y012685D03*
X018866Y011585D03*
X018371Y012080D03*
X018096Y012740D03*
X021176Y009660D03*
X022221Y007955D03*
X018866Y007625D03*
X017876Y009220D03*
X018371Y005095D03*
X017491Y002345D03*
X017216Y002125D03*
X015456Y001905D03*
X014136Y002015D03*
X028216Y003665D03*
X034871Y009385D03*
X035256Y009385D03*
X038446Y007625D03*
X038281Y007075D03*
X039876Y006580D03*
X040921Y009660D03*
X042021Y009605D03*
X042021Y012135D03*
X038666Y011915D03*
X036851Y011860D03*
X034431Y013015D03*
X033386Y013675D03*
X033716Y013950D03*
X034431Y013895D03*
X033111Y012905D03*
X032836Y013070D03*
X032121Y013125D03*
X032121Y013510D03*
X031736Y013895D03*
X032341Y014445D03*
X033001Y015380D03*
X032726Y015545D03*
X032396Y015545D03*
X032066Y015490D03*
X034101Y015380D03*
X034431Y015545D03*
X036246Y015765D03*
X036521Y015270D03*
X036246Y014885D03*
X036301Y014555D03*
X037676Y014555D03*
X038666Y013950D03*
X039051Y014390D03*
X039381Y014390D03*
X042021Y016095D03*
X042021Y016645D03*
X042901Y017030D03*
X040866Y017030D03*
X040921Y018625D03*
X038116Y018460D03*
X036796Y019065D03*
X036191Y018625D03*
X036356Y018350D03*
X036796Y016975D03*
X037181Y016975D03*
X037951Y016700D03*
X036246Y016480D03*
X034266Y018625D03*
X030636Y018735D03*
X030636Y017745D03*
X030636Y017360D03*
X029811Y017250D03*
X028381Y019010D03*
X027996Y018735D03*
X024366Y018460D03*
X021561Y018020D03*
X021176Y017250D03*
X017656Y017250D03*
X025411Y015215D03*
X026896Y014775D03*
X026896Y014280D03*
X025796Y014225D03*
X026181Y016205D03*
X029646Y015050D03*
X043121Y014170D03*
D38*
X043596Y014574D02*
X043616Y014610D01*
X043616Y015765D01*
X043596Y015787D01*
X042626Y015765D02*
X042596Y015787D01*
X042626Y015765D02*
X042626Y014610D01*
X042596Y014574D01*
X040426Y015050D02*
X040426Y015545D01*
X040471Y015575D01*
X040426Y015050D02*
X039051Y013675D01*
X038336Y013675D01*
X038171Y013510D01*
X038171Y013125D01*
X037456Y012410D01*
X037401Y012410D01*
X036851Y011860D01*
X036246Y011970D02*
X037071Y012795D01*
X037096Y012826D01*
X036246Y011970D02*
X034706Y011970D01*
X034671Y011917D01*
X034376Y011915D02*
X034356Y011917D01*
X034376Y011915D02*
X034376Y010650D01*
X035531Y009495D01*
X035531Y009275D01*
X034156Y007900D01*
X031296Y007900D01*
X030856Y008340D01*
X028106Y008340D01*
X027281Y009165D01*
X027281Y011035D01*
X026896Y011420D01*
X027391Y011475D02*
X029756Y009110D01*
X029756Y008725D01*
X030691Y009110D02*
X030966Y008835D01*
X030966Y008725D01*
X030966Y009165D02*
X032011Y008120D01*
X033991Y008120D01*
X035256Y009385D01*
X034871Y009385D02*
X033276Y010980D01*
X033606Y011035D02*
X033606Y011420D01*
X033441Y011585D01*
X033441Y011915D01*
X033411Y011917D01*
X033111Y011970D02*
X033096Y011917D01*
X033111Y011970D02*
X033111Y012905D01*
X032836Y013070D02*
X032506Y012740D01*
X032506Y011970D01*
X032466Y011917D01*
X032176Y011915D02*
X032151Y011917D01*
X032176Y011915D02*
X032176Y011035D01*
X032946Y010265D01*
X032946Y009330D01*
X032946Y009000D02*
X031461Y009000D01*
X031241Y009220D01*
X031241Y010375D01*
X031021Y010595D01*
X030966Y010265D02*
X030966Y009165D01*
X030691Y009110D02*
X030691Y011695D01*
X031846Y012850D01*
X032231Y012850D01*
X032726Y013345D01*
X033056Y013345D01*
X033991Y012410D01*
X033991Y011970D01*
X034041Y011917D01*
X034431Y012630D02*
X033661Y013400D01*
X033661Y013785D01*
X033606Y013840D01*
X033716Y013950D01*
X033606Y013840D02*
X033276Y014170D01*
X031296Y014170D01*
X031296Y013950D01*
X031736Y013510D01*
X032121Y013510D01*
X032011Y013235D02*
X032121Y013125D01*
X032011Y013235D02*
X030856Y013235D01*
X030813Y013255D01*
X030801Y013565D02*
X030526Y013565D01*
X029646Y012685D01*
X029646Y011640D01*
X029481Y011475D01*
X029481Y011365D01*
X029756Y011420D02*
X029756Y011200D01*
X029701Y011145D01*
X029756Y011420D02*
X029976Y011640D01*
X029976Y012410D01*
X030471Y012905D01*
X030801Y012905D01*
X030813Y012940D01*
X030813Y012625D02*
X030801Y012575D01*
X030801Y012135D01*
X029976Y011310D01*
X029976Y011035D01*
X029811Y010870D01*
X028381Y010870D01*
X026016Y013235D01*
X021946Y013235D01*
X021011Y014170D01*
X020970Y014200D01*
X020222Y014200D02*
X020186Y014225D01*
X019031Y014225D01*
X019010Y014200D01*
X019010Y013200D02*
X019031Y013180D01*
X020186Y013180D01*
X020222Y013200D01*
X020970Y013200D02*
X021011Y013180D01*
X021011Y012960D01*
X021286Y012685D01*
X022221Y011750D02*
X024091Y011750D01*
X024366Y011475D01*
X025576Y011475D01*
X025851Y011750D01*
X027006Y010925D02*
X026071Y009990D01*
X023761Y009990D01*
X021781Y008010D01*
X024421Y005370D01*
X035421Y005370D01*
X037126Y007075D01*
X038281Y007075D01*
X038336Y007515D02*
X038446Y007625D01*
X038336Y007515D02*
X027666Y007515D01*
X027611Y007845D02*
X027281Y007515D01*
X026126Y007515D01*
X026016Y007240D02*
X023816Y009440D01*
X023816Y009660D01*
X022716Y009495D02*
X022716Y010265D01*
X025466Y010265D01*
X026456Y009935D02*
X025136Y008615D01*
X024916Y007955D02*
X025356Y007515D01*
X024916Y007955D02*
X022221Y007955D01*
X021781Y008010D02*
X020736Y006965D01*
X020736Y006745D01*
X017491Y003500D01*
X017491Y002345D01*
X017216Y002125D02*
X017216Y003555D01*
X020516Y006855D01*
X020516Y007295D01*
X022716Y009495D01*
X022716Y010265D02*
X022716Y010815D01*
X022721Y010825D01*
X022661Y010870D01*
X022551Y010980D01*
X022551Y011475D01*
X023706Y012685D02*
X024256Y012685D01*
X024722Y013700D02*
X024696Y013730D01*
X023541Y013730D01*
X023510Y013700D01*
X023510Y014700D02*
X023541Y014720D01*
X024751Y014720D01*
X024762Y014700D01*
X025411Y014720D02*
X025411Y015215D01*
X025521Y015655D02*
X025470Y015700D01*
X025521Y015655D02*
X026896Y014280D01*
X025796Y014225D02*
X026951Y013070D01*
X026951Y012630D01*
X027776Y011805D01*
X029096Y011805D01*
X029426Y011750D02*
X028821Y011145D01*
X029426Y011750D02*
X029426Y012795D01*
X030471Y013840D01*
X030801Y013840D01*
X030813Y013885D01*
X030813Y013570D02*
X030801Y013565D01*
X030813Y014200D02*
X029721Y014200D01*
X029721Y013575D01*
X029096Y013575D01*
X029096Y013640D01*
X029096Y013190D01*
X029096Y012450D01*
X029096Y013190D02*
X027721Y013190D01*
X029096Y014760D02*
X029096Y015249D01*
X029096Y015950D01*
X029151Y016480D02*
X022771Y016480D01*
X021561Y015270D01*
X020596Y015700D02*
X020596Y016700D01*
X030346Y016700D01*
X030346Y018200D01*
X033726Y018200D01*
X033726Y016483D01*
X033411Y016483D02*
X033411Y017575D01*
X033023Y017575D01*
X033096Y016950D02*
X032096Y016950D01*
X032096Y017575D01*
X032096Y017700D01*
X032096Y017575D02*
X031920Y017575D01*
X031516Y016865D02*
X030636Y017745D01*
X030636Y017360D02*
X030636Y015985D01*
X030801Y015820D01*
X030813Y015775D01*
X030801Y015490D02*
X030141Y015490D01*
X029151Y016480D01*
X029811Y017250D02*
X021176Y017250D01*
X021561Y018020D02*
X023541Y018020D01*
X024806Y019285D01*
X027996Y019285D01*
X027996Y018735D01*
X028106Y018460D02*
X024366Y018460D01*
X027996Y019285D02*
X036576Y019285D01*
X036796Y019065D01*
X036191Y019010D02*
X028381Y019010D01*
X028381Y018735D02*
X028106Y018460D01*
X028381Y018735D02*
X030636Y018735D01*
X030096Y018450D02*
X034041Y018450D01*
X034041Y016483D01*
X034356Y016483D02*
X034376Y016480D01*
X034376Y016150D01*
X034706Y015820D01*
X035366Y015820D01*
X035380Y015775D01*
X035421Y015765D01*
X036246Y015765D01*
X036576Y015710D02*
X037071Y015710D01*
X037096Y015751D01*
X036576Y015710D02*
X036026Y015160D01*
X035421Y015160D01*
X035380Y015145D01*
X035476Y014885D02*
X035421Y014830D01*
X035380Y014830D01*
X035476Y014885D02*
X036246Y014885D01*
X036301Y014555D02*
X036301Y014170D01*
X035751Y013620D01*
X035421Y013620D01*
X035380Y013570D01*
X035380Y013255D02*
X035366Y013235D01*
X035036Y013235D01*
X034816Y013015D01*
X034431Y013015D01*
X034431Y012630D02*
X035366Y012630D01*
X035380Y012625D01*
X035380Y013885D02*
X035366Y013895D01*
X034431Y013895D01*
X034156Y014225D02*
X033001Y015380D01*
X032781Y015600D02*
X032726Y015545D01*
X032781Y015600D02*
X032781Y016480D01*
X032781Y016483D01*
X032466Y016483D02*
X032451Y016480D01*
X032396Y016425D01*
X032396Y015545D01*
X032066Y015490D02*
X032066Y016095D01*
X032121Y016150D01*
X032121Y016480D01*
X032151Y016483D01*
X031836Y016483D02*
X031791Y016480D01*
X031791Y014995D01*
X032341Y014445D01*
X031736Y013895D02*
X033166Y013895D01*
X033386Y013675D01*
X034156Y014225D02*
X035366Y014225D01*
X035380Y014200D01*
X035380Y014515D02*
X035366Y014555D01*
X034926Y014555D01*
X034101Y015380D01*
X034981Y016205D02*
X034706Y016480D01*
X034671Y016483D01*
X034981Y016205D02*
X036356Y016205D01*
X036411Y016260D01*
X037456Y016260D01*
X037621Y016095D01*
X037621Y015435D01*
X038666Y014390D01*
X039051Y014390D01*
X039381Y014390D02*
X039381Y016150D01*
X038556Y016975D01*
X037181Y016975D01*
X036796Y016975D02*
X036796Y018405D01*
X036191Y019010D01*
X036191Y018625D02*
X034266Y018625D01*
X033096Y016950D02*
X033096Y016483D01*
X031522Y016483D02*
X031516Y016535D01*
X031516Y016865D01*
X030096Y016950D02*
X030096Y018450D01*
X030096Y016950D02*
X019648Y016950D01*
X018545Y016950D02*
X017721Y016950D01*
X017721Y016515D01*
X015777Y016515D01*
X015777Y016830D02*
X015786Y016865D01*
X017271Y016865D01*
X017656Y017250D01*
X017721Y016200D02*
X015777Y016200D01*
X017721Y016200D02*
X017721Y015700D01*
X018545Y015700D01*
X019648Y015700D02*
X020596Y015700D01*
X023510Y015700D02*
X023541Y015710D01*
X024696Y015710D01*
X024722Y015700D01*
X025411Y014720D02*
X025431Y014700D01*
X025466Y014665D01*
X025796Y014335D01*
X025796Y014225D01*
X027721Y015249D02*
X029096Y015249D01*
X029096Y014760D02*
X029721Y014760D01*
X029721Y014450D01*
X030813Y014450D01*
X030813Y014515D01*
X031296Y014170D02*
X031296Y014940D01*
X031131Y015105D01*
X030856Y015105D01*
X030813Y015145D01*
X030813Y015460D02*
X030801Y015490D01*
X036521Y015270D02*
X037346Y015270D01*
X038666Y013950D01*
X038666Y011915D02*
X040921Y009660D01*
X042021Y009605D02*
X042021Y012135D01*
X044596Y014574D02*
X044606Y014610D01*
X044606Y015765D01*
X044596Y015787D01*
X040921Y018625D02*
X040756Y018460D01*
X038116Y018460D01*
X046699Y012712D02*
X046696Y012685D01*
X046696Y010320D01*
X046586Y010210D01*
X046586Y003170D01*
X046146Y002730D01*
X046096Y002700D01*
X039876Y006580D02*
X038281Y008175D01*
X034871Y008175D01*
X033881Y008395D02*
X033881Y009880D01*
X033221Y010320D02*
X033221Y008450D01*
X033056Y007240D02*
X026016Y007240D01*
X027611Y007845D02*
X030966Y007845D01*
X028216Y008615D02*
X028216Y010210D01*
X031846Y011035D02*
X031846Y011915D01*
X031836Y011917D01*
X032781Y011917D02*
X032836Y011915D01*
X032836Y010705D01*
X033221Y010320D01*
X037346Y003700D02*
X037346Y003665D01*
X036906Y003225D01*
X028656Y003225D01*
X028216Y003665D01*
X018866Y007625D02*
X018866Y011585D01*
X018371Y012080D02*
X018371Y005095D01*
X021176Y009660D02*
X018096Y012740D01*
D39*
X029096Y012450D03*
X029096Y015950D03*
D40*
X013096Y022700D03*
M02*
