%
M48
M72
T01C0.0120
T02C0.0236
T03C0.0315
T04C0.0350
T05C0.0354
T06C0.0433
T07C0.0669
T08C0.0787
T09C0.0866
T10C0.1280
%
T01
X15471Y1950
X17221Y1825
X15471Y2575
X17346Y3825
X17846Y4825
X19846Y4575
X22221Y8075
X24221Y9700
X24596Y10075
X26596Y9950
X27221Y11325
X27096Y11700
X27971Y12075
X27971Y12450
X28721Y12450
X29471Y12450
X29846Y11950
X29721Y11200
X30221Y11075
X30846Y10950
X29471Y9950
X31096Y9825
X31471Y9325
X32096Y8825
X33096Y8450
X33471Y8825
X34221Y8325
X34596Y7950
X33096Y7575
X33096Y7075
X34096Y7075
X34471Y7075
X33471Y5450
X31346Y5325
X31971Y4075
X27221Y5325
X24846Y5325
X26096Y4075
X24096Y1325
X20846Y1700
X20471Y1325
X27096Y7200
X27721Y7075
X27721Y7450
X26596Y8450
X27971Y8700
X30346Y7075
X34596Y9200
X34721Y9575
X35721Y9200
X35471Y10325
X36721Y10200
X37346Y10450
X37721Y10200
X37471Y9200
X38971Y9200
X39971Y8450
X39096Y7075
X39846Y5575
X43596Y6575
X45096Y8450
X39596Y12325
X38096Y11950
X36471Y12200
X37471Y13450
X36471Y13825
X37971Y14825
X37471Y15200
X36221Y15950
X37221Y16950
X37596Y16950
X40096Y16450
X42096Y16575
X44096Y16950
X45846Y15325
X46221Y15200
X45471Y14950
X43096Y14200
X42096Y13825
X42096Y14950
X39971Y14200
X39221Y14575
X42096Y12700
X45596Y13075
X36471Y18450
X36096Y19200
X34346Y18450
X30971Y17325
X29721Y17325
X27971Y18200
X27596Y18575
X26971Y17825
X27721Y17700
X27596Y17325
X26596Y16325
X26221Y16200
X26846Y15325
X27221Y14575
X26096Y14325
X25971Y13575
X25221Y13200
X23596Y12200
X23971Y11825
X22596Y11450
X22221Y11825
X21221Y12450
X19596Y11700
X19221Y10325
X17846Y9950
X14846Y8950
X21971Y10075
X25096Y8075
X29096Y10950
X32471Y9575
X33721Y10700
X33721Y11075
X33471Y12825
X33721Y13200
X34096Y12825
X34471Y12825
X34221Y13825
X34221Y14450
X34471Y14700
X33596Y14825
X33221Y15575
X32846Y15575
X31721Y15575
X29971Y15825
X29596Y15200
X28471Y15950
X31721Y14325
X32096Y13200
X33346Y13950
X29096Y18575
X29096Y18950
X28721Y19575
X21846Y19200
X22721Y17325
X21971Y15200
X21096Y14700
X18596Y14575
X18221Y14700
X17721Y13575
X16471Y15075
X17221Y15450
X16846Y15825
X17346Y16825
X25346Y15200
X40221Y3200
X30721Y1325
T02
X29096Y12450
X29096Y15950
T03
X48470Y16491
X49770Y14700
X47250Y13657
X46699Y12712
X45439Y16275
T04
X16346Y3575
X15946Y1575
X16746Y1575
T05
X17346Y25200
X18346Y25200
X19346Y25200
X18846Y24200
X17846Y24200
X19846Y24200
X24346Y24200
X25346Y24200
X26346Y24200
X25846Y25200
X24846Y25200
X23846Y25200
X30846Y24200
X31846Y24200
X32846Y24200
X32346Y25200
X31346Y25200
X30346Y25200
X37346Y24200
X38346Y24200
X39346Y24200
X38846Y25200
X37846Y25200
X36846Y25200
X43846Y24200
X44846Y24200
X45846Y24200
X45346Y25200
X44346Y25200
X43346Y25200
X22346Y3700
X23346Y3700
X24346Y3700
X23846Y2700
X22846Y2700
X24846Y2700
X28846Y3700
X29846Y3700
X30846Y3700
X30346Y2700
X29346Y2700
X31346Y2700
X35346Y3700
X36346Y3700
X37346Y3700
X36846Y2700
X35846Y2700
X37846Y2700
X14596Y15334
X14596Y17066
T06
X13096Y22700
X46096Y9700
X45096Y9700
X44096Y9700
X43096Y9700
X47096Y9700
X48096Y9700
X49096Y9700
X50096Y9700
X43096Y2700
X44096Y2700
X45096Y2700
X46096Y2700
X47096Y2700
X48096Y2700
X49096Y2700
X50096Y2700
T07
X14250Y9684
X14250Y7716
T08
X17596Y5629
X17065Y7637
X15628Y7716
X13462Y8700
X15628Y9684
X17065Y9763
X17596Y11771
T09
X14250Y5629
X14250Y11771
T10
X21596Y6200
X25596Y6200
X28096Y6200
X32096Y6200
X34596Y6200
X38596Y6200
X16596Y21700
X20596Y21700
X23096Y21700
X27096Y21700
X29596Y21700
X33596Y21700
X36096Y21700
X40096Y21700
X42596Y21700
X46596Y21700
M30
