G75*
G70*
%OFA0B0*%
%FSLAX24Y24*%
%IPPOS*%
%LPD*%
%AMOC8*
5,1,8,0,0,1.08239X$1,22.5*
%
%ADD10C,0.1340*%
%ADD11C,0.0740*%
%ADD12R,0.0740X0.0740*%
%ADD13OC8,0.0740*%
%ADD14C,0.0634*%
%ADD15C,0.1360*%
%ADD16R,0.0710X0.0867*%
%ADD17OC8,0.0600*%
%ADD18R,0.0340X0.1280*%
%ADD19R,0.0867X0.0710*%
%ADD20C,0.0674*%
%ADD21C,0.1261*%
%ADD22C,0.1346*%
%ADD23R,0.1261X0.1261*%
%ADD24C,0.0749*%
%ADD25C,0.0480*%
D10*
X005062Y002212D03*
X002562Y028712D03*
X044062Y028712D03*
X044062Y004212D03*
D11*
X033550Y020064D03*
X029550Y020064D03*
X017562Y020212D03*
X017562Y014212D03*
X001562Y014212D03*
X001562Y020212D03*
D12*
X016562Y020212D03*
D13*
X015562Y020212D03*
X014562Y020212D03*
X013562Y020212D03*
X012562Y020212D03*
X011562Y020212D03*
X010562Y020212D03*
X009562Y020212D03*
X008562Y020212D03*
X007562Y020212D03*
X006562Y020212D03*
X005562Y020212D03*
X004562Y020212D03*
X003562Y020212D03*
X002562Y020212D03*
X002562Y014212D03*
X003562Y014212D03*
X004562Y014212D03*
X005562Y014212D03*
X006562Y014212D03*
X007562Y014212D03*
X008562Y014212D03*
X009562Y014212D03*
X010562Y014212D03*
X011562Y014212D03*
X012562Y014212D03*
X013562Y014212D03*
X014562Y014212D03*
X015562Y014212D03*
X016562Y014212D03*
D14*
X014312Y006712D03*
X013312Y006712D03*
X012312Y006712D03*
X012812Y005712D03*
X013812Y005712D03*
X014812Y005712D03*
X018812Y006712D03*
X019812Y006712D03*
X020812Y006712D03*
X020312Y005712D03*
X019312Y005712D03*
X021312Y005712D03*
X025312Y006712D03*
X026312Y006712D03*
X027312Y006712D03*
X026812Y005712D03*
X025812Y005712D03*
X027812Y005712D03*
X031812Y006712D03*
X032812Y006712D03*
X033812Y006712D03*
X033312Y005712D03*
X032312Y005712D03*
X034312Y005712D03*
X039062Y010962D03*
X040062Y011462D03*
X039062Y011962D03*
X040062Y012462D03*
X039062Y012962D03*
X040062Y013462D03*
X039062Y017462D03*
X040062Y017962D03*
X039062Y018462D03*
X040062Y018962D03*
X039062Y019462D03*
X040062Y019962D03*
X039812Y026212D03*
X038812Y026212D03*
X038312Y027212D03*
X039312Y027212D03*
X040312Y027212D03*
X040812Y026212D03*
X034312Y026212D03*
X033312Y026212D03*
X032312Y026212D03*
X031812Y027212D03*
X032812Y027212D03*
X033812Y027212D03*
X027812Y026212D03*
X026812Y026212D03*
X025812Y026212D03*
X025312Y027212D03*
X026312Y027212D03*
X027312Y027212D03*
X021312Y026212D03*
X020312Y026212D03*
X019312Y026212D03*
X018812Y027212D03*
X019812Y027212D03*
X020812Y027212D03*
X014812Y026212D03*
X013812Y026212D03*
X012812Y026212D03*
X012312Y027212D03*
X013312Y027212D03*
X014312Y027212D03*
X008312Y026212D03*
X007312Y026212D03*
X006312Y026212D03*
X005812Y027212D03*
X006812Y027212D03*
X007812Y027212D03*
D15*
X009062Y029712D03*
X011562Y029712D03*
X015562Y029712D03*
X018062Y029712D03*
X022062Y029712D03*
X024562Y029712D03*
X028562Y029712D03*
X031062Y029712D03*
X035062Y029712D03*
X037562Y029712D03*
X041562Y029712D03*
X042562Y020712D03*
X042562Y016712D03*
X042562Y014212D03*
X042562Y010212D03*
X035062Y003212D03*
X031062Y003212D03*
X028562Y003212D03*
X024562Y003212D03*
X022062Y003212D03*
X018062Y003212D03*
X015562Y003212D03*
X011562Y003212D03*
X005062Y029712D03*
D16*
X005113Y024212D03*
X004011Y024212D03*
X004011Y022962D03*
X005113Y022962D03*
X010511Y022962D03*
X011613Y022962D03*
X011613Y024212D03*
X010511Y024212D03*
X017011Y024212D03*
X018113Y024212D03*
X018113Y022962D03*
X017011Y022962D03*
X023511Y022962D03*
X024613Y022962D03*
X024613Y024212D03*
X023511Y024212D03*
X030011Y024212D03*
X031113Y024212D03*
X031113Y022962D03*
X030011Y022962D03*
X036511Y022962D03*
X037613Y022962D03*
X037613Y024212D03*
X036511Y024212D03*
X017113Y010962D03*
X016011Y010962D03*
X016011Y009712D03*
X017113Y009712D03*
X017113Y008462D03*
X016011Y008462D03*
D17*
X008562Y008212D03*
X008562Y009212D03*
X008562Y007212D03*
X008562Y006212D03*
X007562Y023712D03*
X006562Y023712D03*
X013062Y023712D03*
X014062Y023712D03*
X019562Y023712D03*
X020562Y023712D03*
X026062Y023712D03*
X027062Y023712D03*
X032562Y023712D03*
X033562Y023712D03*
X039062Y023712D03*
X040062Y023712D03*
D18*
X036562Y018017D03*
X036062Y018017D03*
X035562Y018017D03*
X035062Y018017D03*
X034562Y018017D03*
X034062Y018017D03*
X033562Y018017D03*
X033062Y018017D03*
X032562Y018017D03*
X032562Y014392D03*
X033062Y014407D03*
X033562Y014407D03*
X034062Y014407D03*
X034562Y014407D03*
X035062Y014407D03*
X035562Y014407D03*
X036062Y014407D03*
X036562Y014407D03*
X025062Y014407D03*
X024562Y014407D03*
X024062Y014407D03*
X023562Y014407D03*
X023062Y014407D03*
X022562Y014407D03*
X022062Y014407D03*
X021562Y014407D03*
X021062Y014392D03*
X021062Y018017D03*
X021562Y018017D03*
X022062Y018017D03*
X022562Y018017D03*
X023062Y018017D03*
X023562Y018017D03*
X024062Y018017D03*
X024562Y018017D03*
X025062Y018017D03*
D19*
X025562Y009763D03*
X024312Y009763D03*
X024312Y008660D03*
X025562Y008660D03*
X026812Y008660D03*
X026812Y009763D03*
X028062Y009763D03*
X028062Y008660D03*
X032562Y008660D03*
X032562Y009763D03*
X012562Y016660D03*
X012562Y017763D03*
X010562Y017763D03*
X010562Y016660D03*
X008562Y016660D03*
X008562Y017763D03*
X008562Y011263D03*
X008562Y010160D03*
X008562Y005263D03*
X008562Y004160D03*
D20*
X013687Y007906D03*
X013687Y008693D03*
X013687Y009480D03*
X013687Y010268D03*
X020187Y010268D03*
X020187Y009480D03*
X020187Y008693D03*
X020187Y007906D03*
D21*
X006062Y010783D03*
X001928Y007712D03*
X006062Y004641D03*
D22*
X002716Y004641D03*
X002716Y010783D03*
D23*
X004094Y008696D03*
X005531Y008775D03*
X005531Y006649D03*
X004094Y006727D03*
D24*
X002716Y006727D03*
X002716Y008696D03*
D25*
X004312Y007712D03*
X010062Y009712D03*
X010812Y008212D03*
X015062Y011212D03*
X015562Y012212D03*
X014312Y012962D03*
X012812Y012962D03*
X012062Y013712D03*
X010312Y013212D03*
X010812Y012212D03*
X008562Y014962D03*
X007312Y015462D03*
X007812Y017462D03*
X011562Y015962D03*
X012562Y015962D03*
X013562Y017712D03*
X012812Y018462D03*
X012062Y018462D03*
X012562Y019462D03*
X012062Y021712D03*
X011312Y022212D03*
X013062Y022712D03*
X013562Y023212D03*
X013812Y022712D03*
X013562Y021712D03*
X015312Y021712D03*
X016312Y022712D03*
X019312Y024462D03*
X019812Y024712D03*
X017812Y025462D03*
X016562Y026712D03*
X013812Y028462D03*
X013062Y029462D03*
X009812Y027212D03*
X010062Y026212D03*
X011312Y025462D03*
X012812Y024712D03*
X008562Y024212D03*
X007562Y024962D03*
X007812Y028462D03*
X020062Y020712D03*
X018562Y019462D03*
X020562Y018962D03*
X021562Y018962D03*
X022562Y018962D03*
X023312Y018962D03*
X024562Y019712D03*
X025062Y019712D03*
X026062Y019712D03*
X026312Y018712D03*
X027312Y019462D03*
X027812Y018962D03*
X028812Y019712D03*
X027062Y020212D03*
X028312Y020962D03*
X029062Y022212D03*
X030062Y022212D03*
X029062Y023962D03*
X030562Y026212D03*
X031562Y026212D03*
X032062Y024962D03*
X035062Y024712D03*
X035812Y023462D03*
X035312Y022712D03*
X035812Y021212D03*
X034312Y020462D03*
X032812Y020212D03*
X031812Y020212D03*
X034062Y019212D03*
X034562Y018962D03*
X032312Y016962D03*
X031562Y017712D03*
X030562Y016212D03*
X027062Y015962D03*
X026312Y017212D03*
X025562Y014962D03*
X025562Y013962D03*
X026562Y012962D03*
X027562Y012962D03*
X028562Y012962D03*
X029562Y013462D03*
X027312Y011712D03*
X028812Y009962D03*
X028812Y009212D03*
X026562Y007962D03*
X023812Y007462D03*
X023562Y007962D03*
X023062Y008212D03*
X022312Y007212D03*
X021312Y009212D03*
X020812Y010212D03*
X022312Y010962D03*
X021562Y011712D03*
X020812Y011962D03*
X019812Y012962D03*
X019562Y013712D03*
X020062Y013962D03*
X020562Y014462D03*
X019062Y014212D03*
X018562Y015212D03*
X019062Y016212D03*
X020062Y015712D03*
X021062Y015712D03*
X020062Y016962D03*
X020562Y017212D03*
X021562Y019962D03*
X023062Y021212D03*
X022562Y021712D03*
X022062Y022212D03*
X023812Y022212D03*
X024062Y021712D03*
X025312Y022212D03*
X025062Y020712D03*
X025562Y024462D03*
X026062Y024712D03*
X024312Y025462D03*
X023062Y026212D03*
X023062Y027462D03*
X025812Y028962D03*
X027312Y028462D03*
X029562Y027962D03*
X035812Y027212D03*
X035812Y026462D03*
X037312Y024962D03*
X040562Y022712D03*
X038062Y019712D03*
X036062Y016462D03*
X037062Y015962D03*
X035312Y015712D03*
X034812Y016712D03*
X040312Y016462D03*
X040812Y014962D03*
X035812Y011212D03*
X035062Y011212D03*
X034312Y012212D03*
X033312Y012212D03*
X037062Y010962D03*
X033312Y009212D03*
X034312Y008212D03*
X036312Y008212D03*
X036312Y005712D03*
X037062Y004962D03*
X040812Y008462D03*
X030062Y006712D03*
X029812Y004962D03*
X029562Y004462D03*
X022562Y004962D03*
X021312Y004962D03*
X018312Y007712D03*
X019312Y008712D03*
X018562Y009462D03*
X018312Y010212D03*
X018062Y010962D03*
X017312Y012462D03*
X016312Y013462D03*
X018812Y012462D03*
X022062Y013462D03*
X023562Y010962D03*
X023062Y009712D03*
X016812Y004712D03*
X015562Y005712D03*
X019812Y001962D03*
X015312Y017462D03*
X015812Y017962D03*
X037812Y028212D03*
X039062Y029962D03*
M02*
