  0
SECTION
  2
HEADER
  9
$ACADVER
  1
AC1009
  9
$FILLMODE
 70
0
  9
$EXTMIN
 10
-4.4288
 20
-0.5888
 30
0.0000
  9
$EXTMAX
 10
112.3072
 20
83.0976
 30
0.0000
  0
ENDSEC
  0
SECTION
  2
TABLES
  0
TABLE
  2
LTYPE
 70
1
  0
LTYPE
  2
CONTINUOUS
 70
64
  3
Solid line
 72
65
 73
0
 40
0
  0
ENDTAB
  0
TABLE
  2
LAYER
 70
255
  0
LAYER
  2
150
 70
64
 62
6
  6
CONTINUOUS
  0
ENDTAB
  0
ENDSEC
  0
SECTION
  2
BLOCKS
  0
BLOCK
  8
0
  2
RECT
 70
64
 10
0.0000
 20
0.0000
 30
0.0000
  3
RECT
  0
SOLID
  8
0
 10
-0.5000
 20
-0.5000
 30
0.0000
 11
0.5000
 21
-0.5000
 31
0.0000
 12
-0.5000
 22
0.5000
 32
0.0000
 13
0.5000
 23
0.5000
 33
0.0000
  0
ENDBLK
  8
0
  0
BLOCK
  8
0
  2
PIE
 70
64
 10
0.0000
 20
0.0000
 30
0.0000
  3
PIE
  0
CIRCLE
  8
0
 10
0.0000
 20
0.0000
 30
0.0000
 40
0.5000
  0
ENDBLK
  8
0
  0
BLOCK
  8
0
  2
OCTAGONP
 70
64
 10
0.0000
 20
0.0000
 30
0.0000
  3
OCTAGONP
  0
POLYLINE
  8
0
 66
1
 10
0.0000
 20
0.0000
 30
0.0000
 40
0.0000
 41
0.0000
 70
1
  0
VERTEX
  8
0
 10
-0.5000
 20
-0.2071
 30
0.0000
  0
VERTEX
  8
0
 10
-0.5000
 20
0.2071
 30
0.0000
  0
VERTEX
  8
0
 10
-0.2071
 20
0.5000
 30
0.0000
  0
VERTEX
  8
0
 10
0.2071
 20
0.5000
 30
0.0000
  0
VERTEX
  8
0
 10
0.5000
 20
0.2071
 30
0.0000
  0
VERTEX
  8
0
 10
0.5000
 20
-0.2071
 30
0.0000
  0
VERTEX
  8
0
 10
0.2071
 20
-0.5000
 30
0.0000
  0
VERTEX
  8
0
 10
-0.2071
 20
-0.5000
 30
0.0000
  0
SEQEND
  8
0
  0
ENDBLK
  8
0
  0
BLOCK
  8
0
  2
SQUAREP
 70
64
 10
0.0000
 20
0.0000
 30
0.0000
  3
SQUAREP
  0
SOLID
  8
0
 10
-0.5000
 20
-0.5000
 30
0.0000
 11
0.5000
 21
-0.5000
 31
0.0000
 12
-0.5000
 22
0.5000
 32
0.0000
 13
0.5000
 23
0.5000
 33
0.0000
  0
ENDBLK
  8
0
  0
BLOCK
  8
0
  2
ROUNDP
 70
64
 10
0.0000
 20
0.0000
 30
0.0000
  3
ROUNDP
  0
CIRCLE
  8
0
 10
0.0000
 20
0.0000
 30
0.0000
 40
0.5000
  0
ENDBLK
  8
0
  0
BLOCK
  8
0
  2
ANNULUSP
 70
64
 10
0.0000
 20
0.0000
 30
0.0000
  3
ANNULUSP
  0
CIRCLE
  8
0
 10
0.0000
 20
0.0000
 30
0.0000
 40
0.5000
  0
ENDBLK
  8
0
  0
BLOCK
  8
0
  2
THERMALP
 70
64
 10
0.0000
 20
0.0000
 30
0.0000
  3
THERMALP
  0
POLYLINE
  8
0
 66
1
 10
0.0000
 20
0.0000
 30
0.0000
 40
0.0000
 41
0.0000
 70
1
  0
VERTEX
  8
0
 10
-0.2379
 20
0.4000
 30
0.0000
  0
VERTEX
  8
0
 10
0.2379
 20
0.4000
 30
0.0000
 42
1.0000
  0
VERTEX
  8
0
 10
0.2379
 20
0.5000
 30
0.0000
  0
VERTEX
  8
0
 10
-0.2379
 20
0.5000
 30
0.0000
 42
1.0000
  0
SEQEND
  8
0
  0
POLYLINE
  8
0
 66
1
 10
0.0000
 20
0.0000
 30
0.0000
 40
0.0000
 41
0.0000
 70
1
  0
VERTEX
  8
0
 10
0.4000
 20
0.2379
 30
0.0000
  0
VERTEX
  8
0
 10
0.4000
 20
-0.2379
 30
0.0000
 42
1.0000
  0
VERTEX
  8
0
 10
0.5000
 20
-0.2379
 30
0.0000
  0
VERTEX
  8
0
 10
0.5000
 20
0.2379
 30
0.0000
 42
1.0000
  0
SEQEND
  8
0
  0
POLYLINE
  8
0
 66
1
 10
0.0000
 20
0.0000
 30
0.0000
 40
0.0000
 41
0.0000
 70
1
  0
VERTEX
  8
0
 10
0.2379
 20
-0.4000
 30
0.0000
  0
VERTEX
  8
0
 10
-0.2379
 20
-0.4000
 30
0.0000
 42
1.0000
  0
VERTEX
  8
0
 10
-0.2379
 20
-0.5000
 30
0.0000
  0
VERTEX
  8
0
 10
0.2379
 20
-0.5000
 30
0.0000
 42
1.0000
  0
SEQEND
  8
0
  0
POLYLINE
  8
0
 66
1
 10
0.0000
 20
0.0000
 30
0.0000
 40
0.0000
 41
0.0000
 70
1
  0
VERTEX
  8
0
 10
-0.4000
 20
-0.2379
 30
0.0000
  0
VERTEX
  8
0
 10
-0.4000
 20
0.2379
 30
0.0000
 42
1.0000
  0
VERTEX
  8
0
 10
-0.5000
 20
0.2379
 30
0.0000
  0
VERTEX
  8
0
 10
-0.5000
 20
-0.2379
 30
0.0000
 42
1.0000
  0
SEQEND
  8
0
  0
ENDBLK
  8
0
  0
BLOCK
  8
0
  2
OCTAGONV
 70
64
 10
0.0000
 20
0.0000
 30
0.0000
  3
OCTAGONV
  0
POLYLINE
  8
0
 66
1
 10
0.0000
 20
0.0000
 30
0.0000
 40
0.0000
 41
0.0000
 70
1
  0
VERTEX
  8
0
 10
-0.5000
 20
-0.2071
 30
0.0000
  0
VERTEX
  8
0
 10
-0.5000
 20
0.2071
 30
0.0000
  0
VERTEX
  8
0
 10
-0.2071
 20
0.5000
 30
0.0000
  0
VERTEX
  8
0
 10
0.2071
 20
0.5000
 30
0.0000
  0
VERTEX
  8
0
 10
0.5000
 20
0.2071
 30
0.0000
  0
VERTEX
  8
0
 10
0.5000
 20
-0.2071
 30
0.0000
  0
VERTEX
  8
0
 10
0.2071
 20
-0.5000
 30
0.0000
  0
VERTEX
  8
0
 10
-0.2071
 20
-0.5000
 30
0.0000
  0
SEQEND
  8
0
  0
ENDBLK
  8
0
  0
BLOCK
  8
0
  2
SQUAREV
 70
64
 10
0.0000
 20
0.0000
 30
0.0000
  3
SQUAREV
  0
SOLID
  8
0
 10
-0.5000
 20
-0.5000
 30
0.0000
 11
0.5000
 21
-0.5000
 31
0.0000
 12
-0.5000
 22
0.5000
 32
0.0000
 13
0.5000
 23
0.5000
 33
0.0000
  0
ENDBLK
  8
0
  0
BLOCK
  8
0
  2
ROUNDV
 70
64
 10
0.0000
 20
0.0000
 30
0.0000
  3
ROUNDV
  0
CIRCLE
  8
0
 10
0.0000
 20
0.0000
 30
0.0000
 40
0.5000
  0
ENDBLK
  8
0
  0
BLOCK
  8
0
  2
ANNULUSV
 70
64
 10
0.0000
 20
0.0000
 30
0.0000
  3
ANNULUSV
  0
CIRCLE
  8
0
 10
0.0000
 20
0.0000
 30
0.0000
 40
0.5000
  0
ENDBLK
  8
0
  0
BLOCK
  8
0
  2
THERMALV
 70
64
 10
0.0000
 20
0.0000
 30
0.0000
  3
THERMALV
  0
POLYLINE
  8
0
 66
1
 10
0.0000
 20
0.0000
 30
0.0000
 40
0.0000
 41
0.0000
 70
1
  0
VERTEX
  8
0
 10
-0.2379
 20
0.4000
 30
0.0000
  0
VERTEX
  8
0
 10
0.2379
 20
0.4000
 30
0.0000
 42
1.0000
  0
VERTEX
  8
0
 10
0.2379
 20
0.5000
 30
0.0000
  0
VERTEX
  8
0
 10
-0.2379
 20
0.5000
 30
0.0000
 42
1.0000
  0
SEQEND
  8
0
  0
POLYLINE
  8
0
 66
1
 10
0.0000
 20
0.0000
 30
0.0000
 40
0.0000
 41
0.0000
 70
1
  0
VERTEX
  8
0
 10
0.4000
 20
0.2379
 30
0.0000
  0
VERTEX
  8
0
 10
0.4000
 20
-0.2379
 30
0.0000
 42
1.0000
  0
VERTEX
  8
0
 10
0.5000
 20
-0.2379
 30
0.0000
  0
VERTEX
  8
0
 10
0.5000
 20
0.2379
 30
0.0000
 42
1.0000
  0
SEQEND
  8
0
  0
POLYLINE
  8
0
 66
1
 10
0.0000
 20
0.0000
 30
0.0000
 40
0.0000
 41
0.0000
 70
1
  0
VERTEX
  8
0
 10
0.2379
 20
-0.4000
 30
0.0000
  0
VERTEX
  8
0
 10
-0.2379
 20
-0.4000
 30
0.0000
 42
1.0000
  0
VERTEX
  8
0
 10
-0.2379
 20
-0.5000
 30
0.0000
  0
VERTEX
  8
0
 10
0.2379
 20
-0.5000
 30
0.0000
 42
1.0000
  0
SEQEND
  8
0
  0
POLYLINE
  8
0
 66
1
 10
0.0000
 20
0.0000
 30
0.0000
 40
0.0000
 41
0.0000
 70
1
  0
VERTEX
  8
0
 10
-0.4000
 20
-0.2379
 30
0.0000
  0
VERTEX
  8
0
 10
-0.4000
 20
0.2379
 30
0.0000
 42
1.0000
  0
VERTEX
  8
0
 10
-0.5000
 20
0.2379
 30
0.0000
  0
VERTEX
  8
0
 10
-0.5000
 20
-0.2379
 30
0.0000
 42
1.0000
  0
SEQEND
  8
0
  0
ENDBLK
  8
0
  0
ENDSEC
  0
SECTION
  2
ENTITIES
  0
POLYLINE
  8
150
 66
1
 10
0.0000
 20
0.0000
 30
0.0000
 40
0.0000
 41
0.0000
 70
1
  0
VERTEX
  8
150
 10
-1.2700
 20
75.9968
 30
0.0000
  0
VERTEX
  8
150
 10
5.0800
 20
75.9968
 30
0.0000
 42
1.0000
  0
VERTEX
  8
150
 10
5.0800
 20
76.4032
 30
0.0000
  0
VERTEX
  8
150
 10
-1.2700
 20
76.4032
 30
0.0000
 42
1.0000
  0
SEQEND
  8
0
  0
POLYLINE
  8
150
 66
1
 10
0.0000
 20
0.0000
 30
0.0000
 40
0.0000
 41
0.0000
 70
1
  0
VERTEX
  8
150
 10
5.2832
 20
76.2000
 30
0.0000
  0
VERTEX
  8
150
 10
5.2832
 20
82.5500
 30
0.0000
 42
1.0000
  0
VERTEX
  8
150
 10
4.8768
 20
82.5500
 30
0.0000
  0
VERTEX
  8
150
 10
4.8768
 20
76.2000
 30
0.0000
 42
1.0000
  0
SEQEND
  8
0
  0
POLYLINE
  8
150
 66
1
 10
0.0000
 20
0.0000
 30
0.0000
 40
0.0000
 41
0.0000
 70
1
  0
VERTEX
  8
150
 10
5.0800
 20
82.3468
 30
0.0000
  0
VERTEX
  8
150
 10
105.4100
 20
82.3468
 30
0.0000
 42
1.0000
  0
VERTEX
  8
150
 10
105.4100
 20
82.7532
 30
0.0000
  0
VERTEX
  8
150
 10
5.0800
 20
82.7532
 30
0.0000
 42
1.0000
  0
SEQEND
  8
0
  0
POLYLINE
  8
150
 66
1
 10
0.0000
 20
0.0000
 30
0.0000
 40
0.0000
 41
0.0000
 70
1
  0
VERTEX
  8
150
 10
105.2068
 20
82.5500
 30
0.0000
  0
VERTEX
  8
150
 10
105.2068
 20
76.2000
 30
0.0000
 42
1.0000
  0
VERTEX
  8
150
 10
105.6132
 20
76.2000
 30
0.0000
  0
VERTEX
  8
150
 10
105.6132
 20
82.5500
 30
0.0000
 42
1.0000
  0
SEQEND
  8
0
  0
POLYLINE
  8
150
 66
1
 10
0.0000
 20
0.0000
 30
0.0000
 40
0.0000
 41
0.0000
 70
1
  0
VERTEX
  8
150
 10
105.4100
 20
75.9968
 30
0.0000
  0
VERTEX
  8
150
 10
111.7600
 20
75.9968
 30
0.0000
 42
1.0000
  0
VERTEX
  8
150
 10
111.7600
 20
76.4032
 30
0.0000
  0
VERTEX
  8
150
 10
105.4100
 20
76.4032
 30
0.0000
 42
1.0000
  0
SEQEND
  8
0
  0
POLYLINE
  8
150
 66
1
 10
0.0000
 20
0.0000
 30
0.0000
 40
0.0000
 41
0.0000
 70
1
  0
VERTEX
  8
150
 10
111.5568
 20
76.2000
 30
0.0000
  0
VERTEX
  8
150
 10
111.5568
 20
6.3500
 30
0.0000
 42
1.0000
  0
VERTEX
  8
150
 10
111.9632
 20
6.3500
 30
0.0000
  0
VERTEX
  8
150
 10
111.9632
 20
76.2000
 30
0.0000
 42
1.0000
  0
SEQEND
  8
0
  0
POLYLINE
  8
150
 66
1
 10
0.0000
 20
0.0000
 30
0.0000
 40
0.0000
 41
0.0000
 70
1
  0
VERTEX
  8
150
 10
111.7600
 20
6.5532
 30
0.0000
  0
VERTEX
  8
150
 10
105.4100
 20
6.5532
 30
0.0000
 42
1.0000
  0
VERTEX
  8
150
 10
105.4100
 20
6.1468
 30
0.0000
  0
VERTEX
  8
150
 10
111.7600
 20
6.1468
 30
0.0000
 42
1.0000
  0
SEQEND
  8
0
  0
POLYLINE
  8
150
 66
1
 10
0.0000
 20
0.0000
 30
0.0000
 40
0.0000
 41
0.0000
 70
1
  0
VERTEX
  8
150
 10
105.2068
 20
6.3500
 30
0.0000
  0
VERTEX
  8
150
 10
105.2068
 20
0.0000
 30
0.0000
 42
1.0000
  0
VERTEX
  8
150
 10
105.6132
 20
0.0000
 30
0.0000
  0
VERTEX
  8
150
 10
105.6132
 20
6.3500
 30
0.0000
 42
1.0000
  0
SEQEND
  8
0
  0
POLYLINE
  8
150
 66
1
 10
0.0000
 20
0.0000
 30
0.0000
 40
0.0000
 41
0.0000
 70
1
  0
VERTEX
  8
150
 10
105.4100
 20
0.2032
 30
0.0000
  0
VERTEX
  8
150
 10
5.0800
 20
0.2032
 30
0.0000
 42
1.0000
  0
VERTEX
  8
150
 10
5.0800
 20
-0.2032
 30
0.0000
  0
VERTEX
  8
150
 10
105.4100
 20
-0.2032
 30
0.0000
 42
1.0000
  0
SEQEND
  8
0
  0
POLYLINE
  8
150
 66
1
 10
0.0000
 20
0.0000
 30
0.0000
 40
0.0000
 41
0.0000
 70
1
  0
VERTEX
  8
150
 10
5.2832
 20
0.0000
 30
0.0000
  0
VERTEX
  8
150
 10
5.2832
 20
6.3500
 30
0.0000
 42
1.0000
  0
VERTEX
  8
150
 10
4.8768
 20
6.3500
 30
0.0000
  0
VERTEX
  8
150
 10
4.8768
 20
0.0000
 30
0.0000
 42
1.0000
  0
SEQEND
  8
0
  0
POLYLINE
  8
150
 66
1
 10
0.0000
 20
0.0000
 30
0.0000
 40
0.0000
 41
0.0000
 70
1
  0
VERTEX
  8
150
 10
5.0800
 20
6.5532
 30
0.0000
  0
VERTEX
  8
150
 10
-1.2700
 20
6.5532
 30
0.0000
 42
1.0000
  0
VERTEX
  8
150
 10
-1.2700
 20
6.1468
 30
0.0000
  0
VERTEX
  8
150
 10
5.0800
 20
6.1468
 30
0.0000
 42
1.0000
  0
SEQEND
  8
0
  0
POLYLINE
  8
150
 66
1
 10
0.0000
 20
0.0000
 30
0.0000
 40
0.0000
 41
0.0000
 70
1
  0
VERTEX
  8
150
 10
-1.0668
 20
6.3500
 30
0.0000
  0
VERTEX
  8
150
 10
-1.0668
 20
76.2000
 30
0.0000
 42
1.0000
  0
VERTEX
  8
150
 10
-1.4732
 20
76.2000
 30
0.0000
  0
VERTEX
  8
150
 10
-1.4732
 20
6.3500
 30
0.0000
 42
1.0000
  0
SEQEND
  8
0
  0
CIRCLE
  8
150
 10
30.7975
 20
22.5425
 30
0.0000
 40
2.6000
  0
CIRCLE
  8
150
 10
13.9700
 20
59.6900
 30
0.0000
 40
1.6000
  0
CIRCLE
  8
150
 10
30.4800
 20
59.6900
 30
0.0000
 40
1.6000
  0
CIRCLE
  8
150
 10
46.9900
 20
59.6900
 30
0.0000
 40
1.6000
  0
CIRCLE
  8
150
 10
63.5000
 20
59.6900
 30
0.0000
 40
1.6000
  0
CIRCLE
  8
150
 10
80.0100
 20
59.6900
 30
0.0000
 40
1.6000
  0
CIRCLE
  8
150
 10
96.5200
 20
59.6900
 30
0.0000
 40
1.6000
  0
CIRCLE
  8
150
 10
47.3075
 20
22.5425
 30
0.0000
 40
2.6000
  0
CIRCLE
  8
150
 10
17.7800
 20
21.5900
 30
0.0000
 40
1.6000
  0
CIRCLE
  8
150
 10
17.7800
 20
16.5100
 30
0.0000
 40
1.6000
  0
CIRCLE
  8
150
 10
2.5861
 20
72.4329
 30
0.0000
 40
1.6000
  0
CIRCLE
  8
150
 10
107.9655
 20
72.3541
 30
0.0000
 40
1.6000
  0
CIRCLE
  8
150
 10
107.8948
 20
10.2051
 30
0.0000
 40
1.6000
  0
CIRCLE
  8
150
 10
8.8057
 20
5.0403
 30
0.0000
 40
1.6000
  0
INSERT
  8
150
  2
RECT
 10
-1.2700
 20
43.1800
 30
0.0000
 41
2.5400
 42
5.0800
 43
1.0000
 50
0.0000
  0
INSERT
  8
150
  2
RECT
 10
-1.2700
 20
19.0500
 30
0.0000
 41
2.5400
 42
10.1600
 43
1.0000
 50
0.0000
  0
INSERT
  8
150
  2
RECT
 10
63.4407
 20
8.8628
 30
0.0000
 41
16.0200
 42
13.6000
 43
1.0000
 50
90.0000
  0
INSERT
  8
150
  2
RECT
 10
79.9507
 20
8.8628
 30
0.0000
 41
16.0200
 42
13.6000
 43
1.0000
 50
90.0000
  0
INSERT
  8
150
  2
RECT
 10
80.0693
 20
73.6872
 30
0.0000
 41
16.0200
 42
13.6000
 43
1.0000
 50
270.0000
  0
INSERT
  8
150
  2
RECT
 10
96.5793
 20
73.6872
 30
0.0000
 41
16.0200
 42
13.6000
 43
1.0000
 50
270.0000
  0
INSERT
  8
150
  2
RECT
 10
47.0493
 20
73.6872
 30
0.0000
 41
16.0200
 42
13.6000
 43
1.0000
 50
270.0000
  0
INSERT
  8
150
  2
RECT
 10
14.0293
 20
73.6872
 30
0.0000
 41
16.0200
 42
13.6000
 43
1.0000
 50
270.0000
  0
INSERT
  8
150
  2
RECT
 10
30.5393
 20
73.6872
 30
0.0000
 41
16.0200
 42
13.6000
 43
1.0000
 50
270.0000
  0
INSERT
  8
150
  2
RECT
 10
63.5593
 20
73.6872
 30
0.0000
 41
16.0200
 42
13.6000
 43
1.0000
 50
270.0000
  0
INSERT
  8
150
  2
RECT
 10
102.8972
 20
30.4207
 30
0.0000
 41
16.0200
 42
13.6000
 43
1.0000
 50
180.0000
  0
INSERT
  8
150
  2
RECT
 10
30.4207
 20
8.8628
 30
0.0000
 41
16.0200
 42
13.6000
 43
1.0000
 50
90.0000
  0
INSERT
  8
150
  2
RECT
 10
46.9307
 20
8.8628
 30
0.0000
 41
16.0200
 42
13.6000
 43
1.0000
 50
90.0000
  0
INSERT
  8
150
  2
RECT
 10
102.8972
 20
46.9307
 30
0.0000
 41
16.0200
 42
13.6000
 43
1.0000
 50
180.0000
  0
ENDSEC
  0
EOF
