%
M48
M72
T01C0.0240
T02C0.0315
T03C0.0320
T04C0.0354
T05C0.0394
T06C0.0440
T07C0.0660
T08C0.0669
T09C0.0787
T10C0.0866
T11C0.1260
T12C0.1280
%
T01
X4312Y7712
X10062Y9712
X10812Y8212
X15062Y11212
X15562Y12212
X14312Y12962
X12812Y12962
X12062Y13712
X10312Y13212
X10812Y12212
X8562Y14962
X7312Y15462
X7812Y17462
X11562Y15962
X12562Y15962
X13562Y17712
X12812Y18462
X12062Y18462
X12562Y19462
X12062Y21712
X11312Y22212
X13062Y22712
X13562Y23212
X13812Y22712
X13562Y21712
X15312Y21712
X16312Y22712
X19312Y24462
X19812Y24712
X17812Y25462
X16562Y26712
X13812Y28462
X13062Y29462
X9812Y27212
X10062Y26212
X11312Y25462
X12812Y24712
X8562Y24212
X7562Y24962
X7812Y28462
X20062Y20712
X18562Y19462
X20562Y18962
X21562Y18962
X22562Y18962
X23312Y18962
X24562Y19712
X25062Y19712
X26062Y19712
X26312Y18712
X27312Y19462
X27812Y18962
X28812Y19712
X27062Y20212
X28312Y20962
X29062Y22212
X30062Y22212
X29062Y23962
X30562Y26212
X31562Y26212
X32062Y24962
X35062Y24712
X35812Y23462
X35312Y22712
X35812Y21212
X34312Y20462
X32812Y20212
X31812Y20212
X34062Y19212
X34562Y18962
X32312Y16962
X31562Y17712
X30562Y16212
X27062Y15962
X26312Y17212
X25562Y14962
X25562Y13962
X26562Y12962
X27562Y12962
X28562Y12962
X29562Y13462
X27312Y11712
X28812Y9962
X28812Y9212
X26562Y7962
X23812Y7462
X23562Y7962
X23062Y8212
X22312Y7212
X21312Y9212
X20812Y10212
X22312Y10962
X21562Y11712
X20812Y11962
X19812Y12962
X19562Y13712
X20062Y13962
X20562Y14462
X19062Y14212
X18562Y15212
X19062Y16212
X20062Y15712
X21062Y15712
X20062Y16962
X20562Y17212
X21562Y19962
X23062Y21212
X22562Y21712
X22062Y22212
X23812Y22212
X24062Y21712
X25312Y22212
X25062Y20712
X25562Y24462
X26062Y24712
X24312Y25462
X23062Y26212
X23062Y27462
X25812Y28962
X27312Y28462
X29562Y27962
X35812Y27212
X35812Y26462
X37312Y24962
X40562Y22712
X38062Y19712
X36062Y16462
X37062Y15962
X35312Y15712
X34812Y16712
X40312Y16462
X40812Y14962
X35812Y11212
X35062Y11212
X34312Y12212
X33312Y12212
X37062Y10962
X33312Y9212
X34312Y8212
X36312Y8212
X36312Y5712
X37062Y4962
X40812Y8462
X30062Y6712
X29812Y4962
X29562Y4462
X22562Y4962
X21312Y4962
X18312Y7712
X19312Y8712
X18562Y9462
X18312Y10212
X18062Y10962
X17312Y12462
X16312Y13462
X18812Y12462
X22062Y13462
X23562Y10962
X23062Y9712
X16812Y4712
X15562Y5712
X19812Y1962
X15312Y17462
X15812Y17962
X37812Y28212
X39062Y29962
T02
X16562Y20212
X15562Y20212
X14562Y20212
X13562Y20212
X12562Y20212
X11562Y20212
X10562Y20212
X9562Y20212
X8562Y20212
X7562Y20212
X6562Y20212
X5562Y20212
X4562Y20212
X3562Y20212
X2562Y20212
X2562Y14212
X3562Y14212
X4562Y14212
X5562Y14212
X6562Y14212
X7562Y14212
X8562Y14212
X9562Y14212
X10562Y14212
X11562Y14212
X12562Y14212
X13562Y14212
X14562Y14212
X15562Y14212
X16562Y14212
T03
X8562Y9212
X8562Y8212
X8562Y7212
X8562Y6212
X7562Y23712
X6562Y23712
X13062Y23712
X14062Y23712
X19562Y23712
X20562Y23712
X26062Y23712
X27062Y23712
X32562Y23712
X33562Y23712
X39062Y23712
X40062Y23712
T04
X39812Y26212
X38812Y26212
X38312Y27212
X39312Y27212
X40312Y27212
X40812Y26212
X34312Y26212
X33312Y26212
X32312Y26212
X31812Y27212
X32812Y27212
X33812Y27212
X27812Y26212
X26812Y26212
X25812Y26212
X25312Y27212
X26312Y27212
X27312Y27212
X21312Y26212
X20312Y26212
X19312Y26212
X18812Y27212
X19812Y27212
X20812Y27212
X14812Y26212
X13812Y26212
X12812Y26212
X12312Y27212
X13312Y27212
X14312Y27212
X8312Y26212
X7312Y26212
X6312Y26212
X5812Y27212
X6812Y27212
X7812Y27212
X12312Y6712
X13312Y6712
X14312Y6712
X13812Y5712
X14812Y5712
X12812Y5712
X18812Y6712
X19812Y6712
X20812Y6712
X20312Y5712
X19312Y5712
X21312Y5712
X25312Y6712
X26312Y6712
X27312Y6712
X26812Y5712
X25812Y5712
X27812Y5712
X31812Y6712
X32812Y6712
X33812Y6712
X33312Y5712
X32312Y5712
X34312Y5712
X39062Y10962
X40062Y11462
X39062Y11962
X40062Y12462
X39062Y12962
X40062Y13462
X39062Y17462
X40062Y17962
X39062Y18462
X40062Y18962
X39062Y19462
X40062Y19962
T05
X20187Y10268
X20187Y9480
X20187Y8693
X20187Y7906
X13687Y7906
X13687Y8693
X13687Y9480
X13687Y10268
T06
X29550Y20064
X33550Y20064
T07
X17562Y20212
X17562Y14212
X1562Y14212
X1562Y20212
T08
X2716Y8696
X2716Y6727
T09
X1928Y7712
X4094Y8696
X5531Y8775
X6062Y10783
X5531Y6649
X4094Y6727
X6062Y4641
T10
X2716Y4641
X2716Y10783
T11
X5062Y2212
X2562Y28712
X44062Y28712
X44062Y4212
T12
X42562Y10212
X42562Y14212
X42562Y16712
X42562Y20712
X41562Y29712
X37562Y29712
X35062Y29712
X31062Y29712
X28562Y29712
X24562Y29712
X22062Y29712
X18062Y29712
X15562Y29712
X11562Y29712
X9062Y29712
X5062Y29712
X11562Y3212
X15562Y3212
X18062Y3212
X22062Y3212
X24562Y3212
X28562Y3212
X31062Y3212
X35062Y3212
M30
