G75*
G70*
%OFA0B0*%
%FSLAX24Y24*%
%IPPOS*%
%LPD*%
%AMOC8*
5,1,8,0,0,1.08239X$1,22.5*
%
%ADD10C,0.0000*%
%ADD11OC8,0.0520*%
%ADD12C,0.0560*%
%ADD13OC8,0.0560*%
%ADD14R,0.0800X0.0800*%
%ADD15C,0.0800*%
%ADD16C,0.0515*%
%ADD17C,0.0594*%
%ADD18R,0.0787X0.0630*%
%ADD19R,0.0433X0.0394*%
%ADD20R,0.0315X0.0315*%
%ADD21C,0.0160*%
%ADD22C,0.0400*%
%ADD23C,0.0100*%
%ADD24C,0.0400*%
D10*
X000344Y002903D02*
X000344Y012899D01*
X020214Y012899D01*
X020214Y002903D01*
X000344Y002903D01*
X003379Y003541D02*
X003381Y003584D01*
X003387Y003626D01*
X003397Y003668D01*
X003410Y003709D01*
X003428Y003748D01*
X003449Y003786D01*
X003473Y003821D01*
X003500Y003854D01*
X003531Y003885D01*
X003564Y003912D01*
X003599Y003936D01*
X003637Y003957D01*
X003676Y003975D01*
X003717Y003988D01*
X003759Y003998D01*
X003801Y004004D01*
X003844Y004006D01*
X003887Y004004D01*
X003929Y003998D01*
X003971Y003988D01*
X004012Y003975D01*
X004051Y003957D01*
X004089Y003936D01*
X004124Y003912D01*
X004157Y003885D01*
X004188Y003854D01*
X004215Y003821D01*
X004239Y003786D01*
X004260Y003748D01*
X004278Y003709D01*
X004291Y003668D01*
X004301Y003626D01*
X004307Y003584D01*
X004309Y003541D01*
X004307Y003498D01*
X004301Y003456D01*
X004291Y003414D01*
X004278Y003373D01*
X004260Y003334D01*
X004239Y003296D01*
X004215Y003261D01*
X004188Y003228D01*
X004157Y003197D01*
X004124Y003170D01*
X004089Y003146D01*
X004051Y003125D01*
X004012Y003107D01*
X003971Y003094D01*
X003929Y003084D01*
X003887Y003078D01*
X003844Y003076D01*
X003801Y003078D01*
X003759Y003084D01*
X003717Y003094D01*
X003676Y003107D01*
X003637Y003125D01*
X003599Y003146D01*
X003564Y003170D01*
X003531Y003197D01*
X003500Y003228D01*
X003473Y003261D01*
X003449Y003296D01*
X003428Y003334D01*
X003410Y003373D01*
X003397Y003414D01*
X003387Y003456D01*
X003381Y003498D01*
X003379Y003541D01*
X003379Y008265D02*
X003381Y008308D01*
X003387Y008350D01*
X003397Y008392D01*
X003410Y008433D01*
X003428Y008472D01*
X003449Y008510D01*
X003473Y008545D01*
X003500Y008578D01*
X003531Y008609D01*
X003564Y008636D01*
X003599Y008660D01*
X003637Y008681D01*
X003676Y008699D01*
X003717Y008712D01*
X003759Y008722D01*
X003801Y008728D01*
X003844Y008730D01*
X003887Y008728D01*
X003929Y008722D01*
X003971Y008712D01*
X004012Y008699D01*
X004051Y008681D01*
X004089Y008660D01*
X004124Y008636D01*
X004157Y008609D01*
X004188Y008578D01*
X004215Y008545D01*
X004239Y008510D01*
X004260Y008472D01*
X004278Y008433D01*
X004291Y008392D01*
X004301Y008350D01*
X004307Y008308D01*
X004309Y008265D01*
X004307Y008222D01*
X004301Y008180D01*
X004291Y008138D01*
X004278Y008097D01*
X004260Y008058D01*
X004239Y008020D01*
X004215Y007985D01*
X004188Y007952D01*
X004157Y007921D01*
X004124Y007894D01*
X004089Y007870D01*
X004051Y007849D01*
X004012Y007831D01*
X003971Y007818D01*
X003929Y007808D01*
X003887Y007802D01*
X003844Y007800D01*
X003801Y007802D01*
X003759Y007808D01*
X003717Y007818D01*
X003676Y007831D01*
X003637Y007849D01*
X003599Y007870D01*
X003564Y007894D01*
X003531Y007921D01*
X003500Y007952D01*
X003473Y007985D01*
X003449Y008020D01*
X003428Y008058D01*
X003410Y008097D01*
X003397Y008138D01*
X003387Y008180D01*
X003381Y008222D01*
X003379Y008265D01*
X016379Y008265D02*
X016381Y008308D01*
X016387Y008350D01*
X016397Y008392D01*
X016410Y008433D01*
X016428Y008472D01*
X016449Y008510D01*
X016473Y008545D01*
X016500Y008578D01*
X016531Y008609D01*
X016564Y008636D01*
X016599Y008660D01*
X016637Y008681D01*
X016676Y008699D01*
X016717Y008712D01*
X016759Y008722D01*
X016801Y008728D01*
X016844Y008730D01*
X016887Y008728D01*
X016929Y008722D01*
X016971Y008712D01*
X017012Y008699D01*
X017051Y008681D01*
X017089Y008660D01*
X017124Y008636D01*
X017157Y008609D01*
X017188Y008578D01*
X017215Y008545D01*
X017239Y008510D01*
X017260Y008472D01*
X017278Y008433D01*
X017291Y008392D01*
X017301Y008350D01*
X017307Y008308D01*
X017309Y008265D01*
X017307Y008222D01*
X017301Y008180D01*
X017291Y008138D01*
X017278Y008097D01*
X017260Y008058D01*
X017239Y008020D01*
X017215Y007985D01*
X017188Y007952D01*
X017157Y007921D01*
X017124Y007894D01*
X017089Y007870D01*
X017051Y007849D01*
X017012Y007831D01*
X016971Y007818D01*
X016929Y007808D01*
X016887Y007802D01*
X016844Y007800D01*
X016801Y007802D01*
X016759Y007808D01*
X016717Y007818D01*
X016676Y007831D01*
X016637Y007849D01*
X016599Y007870D01*
X016564Y007894D01*
X016531Y007921D01*
X016500Y007952D01*
X016473Y007985D01*
X016449Y008020D01*
X016428Y008058D01*
X016410Y008097D01*
X016397Y008138D01*
X016387Y008180D01*
X016381Y008222D01*
X016379Y008265D01*
X016379Y003541D02*
X016381Y003584D01*
X016387Y003626D01*
X016397Y003668D01*
X016410Y003709D01*
X016428Y003748D01*
X016449Y003786D01*
X016473Y003821D01*
X016500Y003854D01*
X016531Y003885D01*
X016564Y003912D01*
X016599Y003936D01*
X016637Y003957D01*
X016676Y003975D01*
X016717Y003988D01*
X016759Y003998D01*
X016801Y004004D01*
X016844Y004006D01*
X016887Y004004D01*
X016929Y003998D01*
X016971Y003988D01*
X017012Y003975D01*
X017051Y003957D01*
X017089Y003936D01*
X017124Y003912D01*
X017157Y003885D01*
X017188Y003854D01*
X017215Y003821D01*
X017239Y003786D01*
X017260Y003748D01*
X017278Y003709D01*
X017291Y003668D01*
X017301Y003626D01*
X017307Y003584D01*
X017309Y003541D01*
X017307Y003498D01*
X017301Y003456D01*
X017291Y003414D01*
X017278Y003373D01*
X017260Y003334D01*
X017239Y003296D01*
X017215Y003261D01*
X017188Y003228D01*
X017157Y003197D01*
X017124Y003170D01*
X017089Y003146D01*
X017051Y003125D01*
X017012Y003107D01*
X016971Y003094D01*
X016929Y003084D01*
X016887Y003078D01*
X016844Y003076D01*
X016801Y003078D01*
X016759Y003084D01*
X016717Y003094D01*
X016676Y003107D01*
X016637Y003125D01*
X016599Y003146D01*
X016564Y003170D01*
X016531Y003197D01*
X016500Y003228D01*
X016473Y003261D01*
X016449Y003296D01*
X016428Y003334D01*
X016410Y003373D01*
X016397Y003414D01*
X016387Y003456D01*
X016381Y003498D01*
X016379Y003541D01*
D11*
X016844Y009903D03*
X017844Y009903D03*
X018844Y009903D03*
X015844Y009903D03*
X014844Y009903D03*
X013844Y009903D03*
D12*
X004344Y010403D03*
D13*
X003344Y010403D03*
X002344Y010403D03*
X002344Y011403D03*
X003344Y011403D03*
X004344Y011403D03*
D14*
X019094Y012153D03*
D15*
X017716Y012153D03*
D16*
X017750Y006903D03*
X017750Y006100D03*
X018750Y005706D03*
X018750Y004903D03*
X017750Y005297D03*
X018750Y006509D03*
X002939Y006509D03*
X001939Y006903D03*
X001939Y006100D03*
X002939Y005706D03*
X002939Y004903D03*
X001939Y005297D03*
D17*
X006913Y009903D03*
X007700Y009903D03*
X008488Y009903D03*
X009275Y009903D03*
X010413Y009903D03*
X011200Y009903D03*
X011988Y009903D03*
X012775Y009903D03*
D18*
X013344Y007954D03*
X012094Y007954D03*
X010844Y007954D03*
X009594Y007954D03*
X008344Y007954D03*
X007094Y007954D03*
X007094Y006852D03*
X008344Y006852D03*
X009594Y006852D03*
X010844Y006852D03*
X012094Y006852D03*
X013344Y006852D03*
D19*
X012679Y004153D03*
X012009Y004153D03*
D20*
X013299Y004153D03*
X013889Y004153D03*
D21*
X013904Y004163D01*
X014564Y004163D01*
X016484Y006083D01*
X017744Y006083D01*
X017750Y006100D01*
X017750Y006903D02*
X017744Y006923D01*
X017744Y009443D01*
X017984Y009443D01*
X018404Y009863D01*
X018824Y009863D01*
X018844Y009903D01*
X017744Y009443D02*
X016424Y009443D01*
X016844Y009863D01*
X016844Y009903D01*
X016424Y009443D02*
X015704Y009443D01*
X015284Y009863D01*
X014864Y009863D01*
X014844Y009903D01*
X014264Y012403D02*
X014264Y006803D01*
X012044Y004583D01*
X012044Y004163D01*
X012009Y004153D01*
X008084Y006143D02*
X007784Y006443D01*
X007784Y007283D01*
X007964Y007463D01*
X008804Y007463D01*
X008924Y007583D01*
X008924Y009443D01*
X008504Y009863D01*
X008488Y009903D01*
X004344Y011403D02*
X004304Y011363D01*
X004004Y011363D01*
X003584Y010943D01*
X000844Y010943D01*
X005744Y004463D02*
X005744Y004343D01*
X005324Y003923D01*
D22*
X005324Y003923D03*
X005744Y004463D03*
X006104Y004103D03*
X008744Y005123D03*
X009224Y005123D03*
X008084Y006143D03*
X011624Y004703D03*
X011684Y005243D03*
X014864Y003923D03*
X006104Y009083D03*
X005624Y009083D03*
X004904Y008963D03*
X007184Y010823D03*
D23*
X005774Y009413D01*
X006104Y009083D01*
X005774Y009413D02*
X005684Y009503D01*
X003044Y009503D01*
X001364Y007823D01*
X001364Y006623D01*
X001904Y006083D01*
X001939Y006100D01*
X001784Y006503D02*
X002924Y006503D01*
X002939Y006509D01*
X001784Y006503D02*
X001544Y006743D01*
X001544Y007703D01*
X003164Y009323D01*
X005024Y009323D01*
X005264Y009083D01*
X005624Y009083D01*
X004904Y008963D02*
X007064Y006803D01*
X007094Y006852D01*
X007064Y006803D02*
X006104Y005843D01*
X006104Y004103D01*
X008744Y005123D02*
X008744Y006443D01*
X008384Y006803D01*
X008344Y006852D01*
X009224Y006443D02*
X009584Y006803D01*
X009594Y006852D01*
X009224Y006443D02*
X009224Y005123D01*
X010844Y004703D02*
X010844Y006852D01*
X010844Y006863D01*
X010304Y007403D01*
X010304Y008183D01*
X009944Y008543D01*
X009944Y009863D01*
X007964Y011843D01*
X004184Y011843D01*
X003764Y011423D01*
X003344Y011423D01*
X003344Y011403D01*
X006913Y009903D02*
X006944Y009863D01*
X007064Y009743D01*
X007064Y008003D01*
X007094Y007954D01*
X008324Y008003D02*
X008344Y007954D01*
X008324Y008003D02*
X008324Y009263D01*
X007724Y009863D01*
X007700Y009903D01*
X009275Y009903D02*
X009284Y009863D01*
X009584Y009563D01*
X009584Y008003D01*
X009594Y007954D01*
X010844Y007954D02*
X010844Y009443D01*
X010424Y009863D01*
X010413Y009903D01*
X011200Y009903D02*
X011204Y009863D01*
X012044Y009023D01*
X012044Y008003D01*
X012094Y007954D01*
X013304Y008003D02*
X013344Y007954D01*
X013304Y008003D02*
X013304Y009383D01*
X012824Y009863D01*
X012775Y009903D01*
X013304Y006863D02*
X013344Y006852D01*
X013304Y006863D02*
X011684Y005243D01*
X011324Y005123D02*
X011324Y006083D01*
X012044Y006803D01*
X012094Y006852D01*
X011324Y005123D02*
X011624Y004823D01*
X011624Y004703D01*
X010844Y004703D02*
X011744Y003803D01*
X014084Y003803D01*
X014204Y003923D01*
X014864Y003923D01*
X013299Y004153D02*
X013244Y004163D01*
X012704Y004163D01*
X012679Y004153D01*
D24*
X015344Y004403D02*
X015344Y003403D01*
X004844Y003403D01*
X004844Y004403D01*
X003844Y004403D01*
X003844Y007403D01*
X001939Y007403D01*
X001939Y006903D01*
X001939Y005403D02*
X000844Y005403D01*
X000844Y010943D01*
X000844Y012403D01*
X014264Y012403D01*
X016344Y012403D01*
X016344Y011153D01*
X018844Y011153D01*
X018844Y012153D01*
X019094Y012153D01*
X018844Y011153D02*
X019594Y011153D01*
X019594Y006509D01*
X018750Y006509D01*
X018750Y004903D02*
X018844Y004903D01*
X018844Y004403D01*
X015344Y004403D01*
X001939Y005297D02*
X001939Y005403D01*
M02*
