%
M48
M72
T01C0.0240
T02C0.0315
T03C0.0320
T04C0.0360
T05C0.0394
T06C0.0472
T07C0.0929
%
T01
X5324Y3923
X5744Y4463
X6104Y4103
X8744Y5123
X9224Y5123
X8084Y6143
X11624Y4703
X11684Y5243
X14864Y3923
X6104Y9083
X5624Y9083
X4904Y8963
X7184Y10823
T02
X1939Y6903
X1939Y6100
X2939Y5706
X2939Y4903
X1939Y5297
X2939Y6509
X17750Y6903
X17750Y6100
X18750Y5706
X18750Y4903
X17750Y5297
X18750Y6509
T03
X18844Y9903
X17844Y9903
X16844Y9903
X15844Y9903
X14844Y9903
X13844Y9903
T04
X4344Y10403
X3344Y10403
X2344Y10403
X2344Y11403
X3344Y11403
X4344Y11403
T05
X6913Y9903
X7700Y9903
X8488Y9903
X9275Y9903
X10413Y9903
X11200Y9903
X11988Y9903
X12775Y9903
T06
X17716Y12153
X19094Y12153
T07
X3844Y3541
X3844Y8265
X16844Y8265
X16844Y3541
M30
