G75*
G70*
%OFA0B0*%
%FSLAX24Y24*%
%IPPOS*%
%LPD*%
%AMOC8*
5,1,8,0,0,1.08239X$1,22.5*
%
%ADD10C,0.0000*%
%ADD11R,0.0540X0.0260*%
%ADD12R,0.0260X0.0540*%
%ADD13R,0.0827X0.0670*%
%ADD14OC8,0.0560*%
%ADD15R,0.0840X0.0840*%
%ADD16C,0.0840*%
%ADD17R,0.0670X0.0749*%
%ADD18C,0.0555*%
%ADD19C,0.0969*%
%ADD20C,0.0634*%
%ADD21C,0.0350*%
%ADD22C,0.0390*%
%ADD23C,0.0975*%
%ADD24R,0.0591X0.0512*%
%ADD25R,0.0300X0.1240*%
D10*
X000483Y000350D02*
X000483Y019721D01*
X019978Y019721D01*
X019978Y000350D01*
X000483Y000350D01*
X002018Y000988D02*
X002020Y001031D01*
X002026Y001073D01*
X002036Y001115D01*
X002049Y001156D01*
X002067Y001195D01*
X002088Y001233D01*
X002112Y001268D01*
X002139Y001301D01*
X002170Y001332D01*
X002203Y001359D01*
X002238Y001383D01*
X002276Y001404D01*
X002315Y001422D01*
X002356Y001435D01*
X002398Y001445D01*
X002440Y001451D01*
X002483Y001453D01*
X002526Y001451D01*
X002568Y001445D01*
X002610Y001435D01*
X002651Y001422D01*
X002690Y001404D01*
X002728Y001383D01*
X002763Y001359D01*
X002796Y001332D01*
X002827Y001301D01*
X002854Y001268D01*
X002878Y001233D01*
X002899Y001195D01*
X002917Y001156D01*
X002930Y001115D01*
X002940Y001073D01*
X002946Y001031D01*
X002948Y000988D01*
X002946Y000945D01*
X002940Y000903D01*
X002930Y000861D01*
X002917Y000820D01*
X002899Y000781D01*
X002878Y000743D01*
X002854Y000708D01*
X002827Y000675D01*
X002796Y000644D01*
X002763Y000617D01*
X002728Y000593D01*
X002690Y000572D01*
X002651Y000554D01*
X002610Y000541D01*
X002568Y000531D01*
X002526Y000525D01*
X002483Y000523D01*
X002440Y000525D01*
X002398Y000531D01*
X002356Y000541D01*
X002315Y000554D01*
X002276Y000572D01*
X002238Y000593D01*
X002203Y000617D01*
X002170Y000644D01*
X002139Y000675D01*
X002112Y000708D01*
X002088Y000743D01*
X002067Y000781D01*
X002049Y000820D01*
X002036Y000861D01*
X002026Y000903D01*
X002020Y000945D01*
X002018Y000988D01*
X002018Y005712D02*
X002020Y005755D01*
X002026Y005797D01*
X002036Y005839D01*
X002049Y005880D01*
X002067Y005919D01*
X002088Y005957D01*
X002112Y005992D01*
X002139Y006025D01*
X002170Y006056D01*
X002203Y006083D01*
X002238Y006107D01*
X002276Y006128D01*
X002315Y006146D01*
X002356Y006159D01*
X002398Y006169D01*
X002440Y006175D01*
X002483Y006177D01*
X002526Y006175D01*
X002568Y006169D01*
X002610Y006159D01*
X002651Y006146D01*
X002690Y006128D01*
X002728Y006107D01*
X002763Y006083D01*
X002796Y006056D01*
X002827Y006025D01*
X002854Y005992D01*
X002878Y005957D01*
X002899Y005919D01*
X002917Y005880D01*
X002930Y005839D01*
X002940Y005797D01*
X002946Y005755D01*
X002948Y005712D01*
X002946Y005669D01*
X002940Y005627D01*
X002930Y005585D01*
X002917Y005544D01*
X002899Y005505D01*
X002878Y005467D01*
X002854Y005432D01*
X002827Y005399D01*
X002796Y005368D01*
X002763Y005341D01*
X002728Y005317D01*
X002690Y005296D01*
X002651Y005278D01*
X002610Y005265D01*
X002568Y005255D01*
X002526Y005249D01*
X002483Y005247D01*
X002440Y005249D01*
X002398Y005255D01*
X002356Y005265D01*
X002315Y005278D01*
X002276Y005296D01*
X002238Y005317D01*
X002203Y005341D01*
X002170Y005368D01*
X002139Y005399D01*
X002112Y005432D01*
X002088Y005467D01*
X002067Y005505D01*
X002049Y005544D01*
X002036Y005585D01*
X002026Y005627D01*
X002020Y005669D01*
X002018Y005712D01*
X013558Y009950D02*
X013560Y009976D01*
X013566Y010002D01*
X013575Y010026D01*
X013588Y010049D01*
X013605Y010069D01*
X013624Y010087D01*
X013646Y010102D01*
X013669Y010113D01*
X013694Y010121D01*
X013720Y010125D01*
X013746Y010125D01*
X013772Y010121D01*
X013797Y010113D01*
X013821Y010102D01*
X013842Y010087D01*
X013861Y010069D01*
X013878Y010049D01*
X013891Y010026D01*
X013900Y010002D01*
X013906Y009976D01*
X013908Y009950D01*
X013906Y009924D01*
X013900Y009898D01*
X013891Y009874D01*
X013878Y009851D01*
X013861Y009831D01*
X013842Y009813D01*
X013820Y009798D01*
X013797Y009787D01*
X013772Y009779D01*
X013746Y009775D01*
X013720Y009775D01*
X013694Y009779D01*
X013669Y009787D01*
X013645Y009798D01*
X013624Y009813D01*
X013605Y009831D01*
X013588Y009851D01*
X013575Y009874D01*
X013566Y009898D01*
X013560Y009924D01*
X013558Y009950D01*
X013558Y010750D02*
X013560Y010776D01*
X013566Y010802D01*
X013575Y010826D01*
X013588Y010849D01*
X013605Y010869D01*
X013624Y010887D01*
X013646Y010902D01*
X013669Y010913D01*
X013694Y010921D01*
X013720Y010925D01*
X013746Y010925D01*
X013772Y010921D01*
X013797Y010913D01*
X013821Y010902D01*
X013842Y010887D01*
X013861Y010869D01*
X013878Y010849D01*
X013891Y010826D01*
X013900Y010802D01*
X013906Y010776D01*
X013908Y010750D01*
X013906Y010724D01*
X013900Y010698D01*
X013891Y010674D01*
X013878Y010651D01*
X013861Y010631D01*
X013842Y010613D01*
X013820Y010598D01*
X013797Y010587D01*
X013772Y010579D01*
X013746Y010575D01*
X013720Y010575D01*
X013694Y010579D01*
X013669Y010587D01*
X013645Y010598D01*
X013624Y010613D01*
X013605Y010631D01*
X013588Y010651D01*
X013575Y010674D01*
X013566Y010698D01*
X013560Y010724D01*
X013558Y010750D01*
X014016Y011350D02*
X014018Y011393D01*
X014024Y011436D01*
X014034Y011478D01*
X014048Y011519D01*
X014065Y011558D01*
X014086Y011596D01*
X014110Y011631D01*
X014138Y011665D01*
X014168Y011695D01*
X014202Y011723D01*
X014237Y011747D01*
X014275Y011768D01*
X014314Y011785D01*
X014355Y011799D01*
X014397Y011809D01*
X014440Y011815D01*
X014483Y011817D01*
X014526Y011815D01*
X014569Y011809D01*
X014611Y011799D01*
X014652Y011785D01*
X014691Y011768D01*
X014729Y011747D01*
X014764Y011723D01*
X014798Y011695D01*
X014828Y011665D01*
X014856Y011631D01*
X014880Y011596D01*
X014901Y011558D01*
X014918Y011519D01*
X014932Y011478D01*
X014942Y011436D01*
X014948Y011393D01*
X014950Y011350D01*
X014948Y011307D01*
X014942Y011264D01*
X014932Y011222D01*
X014918Y011181D01*
X014901Y011142D01*
X014880Y011104D01*
X014856Y011069D01*
X014828Y011035D01*
X014798Y011005D01*
X014764Y010977D01*
X014729Y010953D01*
X014691Y010932D01*
X014652Y010915D01*
X014611Y010901D01*
X014569Y010891D01*
X014526Y010885D01*
X014483Y010883D01*
X014440Y010885D01*
X014397Y010891D01*
X014355Y010901D01*
X014314Y010915D01*
X014275Y010932D01*
X014237Y010953D01*
X014202Y010977D01*
X014168Y011005D01*
X014138Y011035D01*
X014110Y011069D01*
X014086Y011104D01*
X014065Y011142D01*
X014048Y011181D01*
X014034Y011222D01*
X014024Y011264D01*
X014018Y011307D01*
X014016Y011350D01*
X015266Y011350D02*
X015268Y011393D01*
X015274Y011436D01*
X015284Y011478D01*
X015298Y011519D01*
X015315Y011558D01*
X015336Y011596D01*
X015360Y011631D01*
X015388Y011665D01*
X015418Y011695D01*
X015452Y011723D01*
X015487Y011747D01*
X015525Y011768D01*
X015564Y011785D01*
X015605Y011799D01*
X015647Y011809D01*
X015690Y011815D01*
X015733Y011817D01*
X015776Y011815D01*
X015819Y011809D01*
X015861Y011799D01*
X015902Y011785D01*
X015941Y011768D01*
X015979Y011747D01*
X016014Y011723D01*
X016048Y011695D01*
X016078Y011665D01*
X016106Y011631D01*
X016130Y011596D01*
X016151Y011558D01*
X016168Y011519D01*
X016182Y011478D01*
X016192Y011436D01*
X016198Y011393D01*
X016200Y011350D01*
X016198Y011307D01*
X016192Y011264D01*
X016182Y011222D01*
X016168Y011181D01*
X016151Y011142D01*
X016130Y011104D01*
X016106Y011069D01*
X016078Y011035D01*
X016048Y011005D01*
X016014Y010977D01*
X015979Y010953D01*
X015941Y010932D01*
X015902Y010915D01*
X015861Y010901D01*
X015819Y010891D01*
X015776Y010885D01*
X015733Y010883D01*
X015690Y010885D01*
X015647Y010891D01*
X015605Y010901D01*
X015564Y010915D01*
X015525Y010932D01*
X015487Y010953D01*
X015452Y010977D01*
X015418Y011005D01*
X015388Y011035D01*
X015360Y011069D01*
X015336Y011104D01*
X015315Y011142D01*
X015298Y011181D01*
X015284Y011222D01*
X015274Y011264D01*
X015268Y011307D01*
X015266Y011350D01*
X015558Y010350D02*
X015560Y010376D01*
X015566Y010402D01*
X015575Y010426D01*
X015588Y010449D01*
X015605Y010469D01*
X015624Y010487D01*
X015646Y010502D01*
X015669Y010513D01*
X015694Y010521D01*
X015720Y010525D01*
X015746Y010525D01*
X015772Y010521D01*
X015797Y010513D01*
X015821Y010502D01*
X015842Y010487D01*
X015861Y010469D01*
X015878Y010449D01*
X015891Y010426D01*
X015900Y010402D01*
X015906Y010376D01*
X015908Y010350D01*
X015906Y010324D01*
X015900Y010298D01*
X015891Y010274D01*
X015878Y010251D01*
X015861Y010231D01*
X015842Y010213D01*
X015820Y010198D01*
X015797Y010187D01*
X015772Y010179D01*
X015746Y010175D01*
X015720Y010175D01*
X015694Y010179D01*
X015669Y010187D01*
X015645Y010198D01*
X015624Y010213D01*
X015605Y010231D01*
X015588Y010251D01*
X015575Y010274D01*
X015566Y010298D01*
X015560Y010324D01*
X015558Y010350D01*
X015266Y009350D02*
X015268Y009393D01*
X015274Y009436D01*
X015284Y009478D01*
X015298Y009519D01*
X015315Y009558D01*
X015336Y009596D01*
X015360Y009631D01*
X015388Y009665D01*
X015418Y009695D01*
X015452Y009723D01*
X015487Y009747D01*
X015525Y009768D01*
X015564Y009785D01*
X015605Y009799D01*
X015647Y009809D01*
X015690Y009815D01*
X015733Y009817D01*
X015776Y009815D01*
X015819Y009809D01*
X015861Y009799D01*
X015902Y009785D01*
X015941Y009768D01*
X015979Y009747D01*
X016014Y009723D01*
X016048Y009695D01*
X016078Y009665D01*
X016106Y009631D01*
X016130Y009596D01*
X016151Y009558D01*
X016168Y009519D01*
X016182Y009478D01*
X016192Y009436D01*
X016198Y009393D01*
X016200Y009350D01*
X016198Y009307D01*
X016192Y009264D01*
X016182Y009222D01*
X016168Y009181D01*
X016151Y009142D01*
X016130Y009104D01*
X016106Y009069D01*
X016078Y009035D01*
X016048Y009005D01*
X016014Y008977D01*
X015979Y008953D01*
X015941Y008932D01*
X015902Y008915D01*
X015861Y008901D01*
X015819Y008891D01*
X015776Y008885D01*
X015733Y008883D01*
X015690Y008885D01*
X015647Y008891D01*
X015605Y008901D01*
X015564Y008915D01*
X015525Y008932D01*
X015487Y008953D01*
X015452Y008977D01*
X015418Y009005D01*
X015388Y009035D01*
X015360Y009069D01*
X015336Y009104D01*
X015315Y009142D01*
X015298Y009181D01*
X015284Y009222D01*
X015274Y009264D01*
X015268Y009307D01*
X015266Y009350D01*
X014016Y009350D02*
X014018Y009393D01*
X014024Y009436D01*
X014034Y009478D01*
X014048Y009519D01*
X014065Y009558D01*
X014086Y009596D01*
X014110Y009631D01*
X014138Y009665D01*
X014168Y009695D01*
X014202Y009723D01*
X014237Y009747D01*
X014275Y009768D01*
X014314Y009785D01*
X014355Y009799D01*
X014397Y009809D01*
X014440Y009815D01*
X014483Y009817D01*
X014526Y009815D01*
X014569Y009809D01*
X014611Y009799D01*
X014652Y009785D01*
X014691Y009768D01*
X014729Y009747D01*
X014764Y009723D01*
X014798Y009695D01*
X014828Y009665D01*
X014856Y009631D01*
X014880Y009596D01*
X014901Y009558D01*
X014918Y009519D01*
X014932Y009478D01*
X014942Y009436D01*
X014948Y009393D01*
X014950Y009350D01*
X014948Y009307D01*
X014942Y009264D01*
X014932Y009222D01*
X014918Y009181D01*
X014901Y009142D01*
X014880Y009104D01*
X014856Y009069D01*
X014828Y009035D01*
X014798Y009005D01*
X014764Y008977D01*
X014729Y008953D01*
X014691Y008932D01*
X014652Y008915D01*
X014611Y008901D01*
X014569Y008891D01*
X014526Y008885D01*
X014483Y008883D01*
X014440Y008885D01*
X014397Y008891D01*
X014355Y008901D01*
X014314Y008915D01*
X014275Y008932D01*
X014237Y008953D01*
X014202Y008977D01*
X014168Y009005D01*
X014138Y009035D01*
X014110Y009069D01*
X014086Y009104D01*
X014065Y009142D01*
X014048Y009181D01*
X014034Y009222D01*
X014024Y009264D01*
X014018Y009307D01*
X014016Y009350D01*
X017768Y005712D02*
X017770Y005755D01*
X017776Y005797D01*
X017786Y005839D01*
X017799Y005880D01*
X017817Y005919D01*
X017838Y005957D01*
X017862Y005992D01*
X017889Y006025D01*
X017920Y006056D01*
X017953Y006083D01*
X017988Y006107D01*
X018026Y006128D01*
X018065Y006146D01*
X018106Y006159D01*
X018148Y006169D01*
X018190Y006175D01*
X018233Y006177D01*
X018276Y006175D01*
X018318Y006169D01*
X018360Y006159D01*
X018401Y006146D01*
X018440Y006128D01*
X018478Y006107D01*
X018513Y006083D01*
X018546Y006056D01*
X018577Y006025D01*
X018604Y005992D01*
X018628Y005957D01*
X018649Y005919D01*
X018667Y005880D01*
X018680Y005839D01*
X018690Y005797D01*
X018696Y005755D01*
X018698Y005712D01*
X018696Y005669D01*
X018690Y005627D01*
X018680Y005585D01*
X018667Y005544D01*
X018649Y005505D01*
X018628Y005467D01*
X018604Y005432D01*
X018577Y005399D01*
X018546Y005368D01*
X018513Y005341D01*
X018478Y005317D01*
X018440Y005296D01*
X018401Y005278D01*
X018360Y005265D01*
X018318Y005255D01*
X018276Y005249D01*
X018233Y005247D01*
X018190Y005249D01*
X018148Y005255D01*
X018106Y005265D01*
X018065Y005278D01*
X018026Y005296D01*
X017988Y005317D01*
X017953Y005341D01*
X017920Y005368D01*
X017889Y005399D01*
X017862Y005432D01*
X017838Y005467D01*
X017817Y005505D01*
X017799Y005544D01*
X017786Y005585D01*
X017776Y005627D01*
X017770Y005669D01*
X017768Y005712D01*
X017768Y000988D02*
X017770Y001031D01*
X017776Y001073D01*
X017786Y001115D01*
X017799Y001156D01*
X017817Y001195D01*
X017838Y001233D01*
X017862Y001268D01*
X017889Y001301D01*
X017920Y001332D01*
X017953Y001359D01*
X017988Y001383D01*
X018026Y001404D01*
X018065Y001422D01*
X018106Y001435D01*
X018148Y001445D01*
X018190Y001451D01*
X018233Y001453D01*
X018276Y001451D01*
X018318Y001445D01*
X018360Y001435D01*
X018401Y001422D01*
X018440Y001404D01*
X018478Y001383D01*
X018513Y001359D01*
X018546Y001332D01*
X018577Y001301D01*
X018604Y001268D01*
X018628Y001233D01*
X018649Y001195D01*
X018667Y001156D01*
X018680Y001115D01*
X018690Y001073D01*
X018696Y001031D01*
X018698Y000988D01*
X018696Y000945D01*
X018690Y000903D01*
X018680Y000861D01*
X018667Y000820D01*
X018649Y000781D01*
X018628Y000743D01*
X018604Y000708D01*
X018577Y000675D01*
X018546Y000644D01*
X018513Y000617D01*
X018478Y000593D01*
X018440Y000572D01*
X018401Y000554D01*
X018360Y000541D01*
X018318Y000531D01*
X018276Y000525D01*
X018233Y000523D01*
X018190Y000525D01*
X018148Y000531D01*
X018106Y000541D01*
X018065Y000554D01*
X018026Y000572D01*
X017988Y000593D01*
X017953Y000617D01*
X017920Y000644D01*
X017889Y000675D01*
X017862Y000708D01*
X017838Y000743D01*
X017817Y000781D01*
X017799Y000820D01*
X017786Y000861D01*
X017776Y000903D01*
X017770Y000945D01*
X017768Y000988D01*
X018380Y017350D02*
X018382Y017393D01*
X018388Y017435D01*
X018398Y017477D01*
X018411Y017518D01*
X018429Y017557D01*
X018450Y017595D01*
X018474Y017630D01*
X018501Y017663D01*
X018532Y017694D01*
X018565Y017721D01*
X018600Y017745D01*
X018638Y017766D01*
X018677Y017784D01*
X018718Y017797D01*
X018760Y017807D01*
X018802Y017813D01*
X018845Y017815D01*
X018888Y017813D01*
X018930Y017807D01*
X018972Y017797D01*
X019013Y017784D01*
X019052Y017766D01*
X019090Y017745D01*
X019125Y017721D01*
X019158Y017694D01*
X019189Y017663D01*
X019216Y017630D01*
X019240Y017595D01*
X019261Y017557D01*
X019279Y017518D01*
X019292Y017477D01*
X019302Y017435D01*
X019308Y017393D01*
X019310Y017350D01*
X019308Y017307D01*
X019302Y017265D01*
X019292Y017223D01*
X019279Y017182D01*
X019261Y017143D01*
X019240Y017105D01*
X019216Y017070D01*
X019189Y017037D01*
X019158Y017006D01*
X019125Y016979D01*
X019090Y016955D01*
X019052Y016934D01*
X019013Y016916D01*
X018972Y016903D01*
X018930Y016893D01*
X018888Y016887D01*
X018845Y016885D01*
X018802Y016887D01*
X018760Y016893D01*
X018718Y016903D01*
X018677Y016916D01*
X018638Y016934D01*
X018600Y016955D01*
X018565Y016979D01*
X018532Y017006D01*
X018501Y017037D01*
X018474Y017070D01*
X018450Y017105D01*
X018429Y017143D01*
X018411Y017182D01*
X018398Y017223D01*
X018388Y017265D01*
X018382Y017307D01*
X018380Y017350D01*
X013655Y017350D02*
X013657Y017393D01*
X013663Y017435D01*
X013673Y017477D01*
X013686Y017518D01*
X013704Y017557D01*
X013725Y017595D01*
X013749Y017630D01*
X013776Y017663D01*
X013807Y017694D01*
X013840Y017721D01*
X013875Y017745D01*
X013913Y017766D01*
X013952Y017784D01*
X013993Y017797D01*
X014035Y017807D01*
X014077Y017813D01*
X014120Y017815D01*
X014163Y017813D01*
X014205Y017807D01*
X014247Y017797D01*
X014288Y017784D01*
X014327Y017766D01*
X014365Y017745D01*
X014400Y017721D01*
X014433Y017694D01*
X014464Y017663D01*
X014491Y017630D01*
X014515Y017595D01*
X014536Y017557D01*
X014554Y017518D01*
X014567Y017477D01*
X014577Y017435D01*
X014583Y017393D01*
X014585Y017350D01*
X014583Y017307D01*
X014577Y017265D01*
X014567Y017223D01*
X014554Y017182D01*
X014536Y017143D01*
X014515Y017105D01*
X014491Y017070D01*
X014464Y017037D01*
X014433Y017006D01*
X014400Y016979D01*
X014365Y016955D01*
X014327Y016934D01*
X014288Y016916D01*
X014247Y016903D01*
X014205Y016893D01*
X014163Y016887D01*
X014120Y016885D01*
X014077Y016887D01*
X014035Y016893D01*
X013993Y016903D01*
X013952Y016916D01*
X013913Y016934D01*
X013875Y016955D01*
X013840Y016979D01*
X013807Y017006D01*
X013776Y017037D01*
X013749Y017070D01*
X013725Y017105D01*
X013704Y017143D01*
X013686Y017182D01*
X013673Y017223D01*
X013663Y017265D01*
X013657Y017307D01*
X013655Y017350D01*
X012380Y017350D02*
X012382Y017393D01*
X012388Y017435D01*
X012398Y017477D01*
X012411Y017518D01*
X012429Y017557D01*
X012450Y017595D01*
X012474Y017630D01*
X012501Y017663D01*
X012532Y017694D01*
X012565Y017721D01*
X012600Y017745D01*
X012638Y017766D01*
X012677Y017784D01*
X012718Y017797D01*
X012760Y017807D01*
X012802Y017813D01*
X012845Y017815D01*
X012888Y017813D01*
X012930Y017807D01*
X012972Y017797D01*
X013013Y017784D01*
X013052Y017766D01*
X013090Y017745D01*
X013125Y017721D01*
X013158Y017694D01*
X013189Y017663D01*
X013216Y017630D01*
X013240Y017595D01*
X013261Y017557D01*
X013279Y017518D01*
X013292Y017477D01*
X013302Y017435D01*
X013308Y017393D01*
X013310Y017350D01*
X013308Y017307D01*
X013302Y017265D01*
X013292Y017223D01*
X013279Y017182D01*
X013261Y017143D01*
X013240Y017105D01*
X013216Y017070D01*
X013189Y017037D01*
X013158Y017006D01*
X013125Y016979D01*
X013090Y016955D01*
X013052Y016934D01*
X013013Y016916D01*
X012972Y016903D01*
X012930Y016893D01*
X012888Y016887D01*
X012845Y016885D01*
X012802Y016887D01*
X012760Y016893D01*
X012718Y016903D01*
X012677Y016916D01*
X012638Y016934D01*
X012600Y016955D01*
X012565Y016979D01*
X012532Y017006D01*
X012501Y017037D01*
X012474Y017070D01*
X012450Y017105D01*
X012429Y017143D01*
X012411Y017182D01*
X012398Y017223D01*
X012388Y017265D01*
X012382Y017307D01*
X012380Y017350D01*
X007655Y017350D02*
X007657Y017393D01*
X007663Y017435D01*
X007673Y017477D01*
X007686Y017518D01*
X007704Y017557D01*
X007725Y017595D01*
X007749Y017630D01*
X007776Y017663D01*
X007807Y017694D01*
X007840Y017721D01*
X007875Y017745D01*
X007913Y017766D01*
X007952Y017784D01*
X007993Y017797D01*
X008035Y017807D01*
X008077Y017813D01*
X008120Y017815D01*
X008163Y017813D01*
X008205Y017807D01*
X008247Y017797D01*
X008288Y017784D01*
X008327Y017766D01*
X008365Y017745D01*
X008400Y017721D01*
X008433Y017694D01*
X008464Y017663D01*
X008491Y017630D01*
X008515Y017595D01*
X008536Y017557D01*
X008554Y017518D01*
X008567Y017477D01*
X008577Y017435D01*
X008583Y017393D01*
X008585Y017350D01*
X008583Y017307D01*
X008577Y017265D01*
X008567Y017223D01*
X008554Y017182D01*
X008536Y017143D01*
X008515Y017105D01*
X008491Y017070D01*
X008464Y017037D01*
X008433Y017006D01*
X008400Y016979D01*
X008365Y016955D01*
X008327Y016934D01*
X008288Y016916D01*
X008247Y016903D01*
X008205Y016893D01*
X008163Y016887D01*
X008120Y016885D01*
X008077Y016887D01*
X008035Y016893D01*
X007993Y016903D01*
X007952Y016916D01*
X007913Y016934D01*
X007875Y016955D01*
X007840Y016979D01*
X007807Y017006D01*
X007776Y017037D01*
X007749Y017070D01*
X007725Y017105D01*
X007704Y017143D01*
X007686Y017182D01*
X007673Y017223D01*
X007663Y017265D01*
X007657Y017307D01*
X007655Y017350D01*
X006380Y017350D02*
X006382Y017393D01*
X006388Y017435D01*
X006398Y017477D01*
X006411Y017518D01*
X006429Y017557D01*
X006450Y017595D01*
X006474Y017630D01*
X006501Y017663D01*
X006532Y017694D01*
X006565Y017721D01*
X006600Y017745D01*
X006638Y017766D01*
X006677Y017784D01*
X006718Y017797D01*
X006760Y017807D01*
X006802Y017813D01*
X006845Y017815D01*
X006888Y017813D01*
X006930Y017807D01*
X006972Y017797D01*
X007013Y017784D01*
X007052Y017766D01*
X007090Y017745D01*
X007125Y017721D01*
X007158Y017694D01*
X007189Y017663D01*
X007216Y017630D01*
X007240Y017595D01*
X007261Y017557D01*
X007279Y017518D01*
X007292Y017477D01*
X007302Y017435D01*
X007308Y017393D01*
X007310Y017350D01*
X007308Y017307D01*
X007302Y017265D01*
X007292Y017223D01*
X007279Y017182D01*
X007261Y017143D01*
X007240Y017105D01*
X007216Y017070D01*
X007189Y017037D01*
X007158Y017006D01*
X007125Y016979D01*
X007090Y016955D01*
X007052Y016934D01*
X007013Y016916D01*
X006972Y016903D01*
X006930Y016893D01*
X006888Y016887D01*
X006845Y016885D01*
X006802Y016887D01*
X006760Y016893D01*
X006718Y016903D01*
X006677Y016916D01*
X006638Y016934D01*
X006600Y016955D01*
X006565Y016979D01*
X006532Y017006D01*
X006501Y017037D01*
X006474Y017070D01*
X006450Y017105D01*
X006429Y017143D01*
X006411Y017182D01*
X006398Y017223D01*
X006388Y017265D01*
X006382Y017307D01*
X006380Y017350D01*
X001655Y017350D02*
X001657Y017393D01*
X001663Y017435D01*
X001673Y017477D01*
X001686Y017518D01*
X001704Y017557D01*
X001725Y017595D01*
X001749Y017630D01*
X001776Y017663D01*
X001807Y017694D01*
X001840Y017721D01*
X001875Y017745D01*
X001913Y017766D01*
X001952Y017784D01*
X001993Y017797D01*
X002035Y017807D01*
X002077Y017813D01*
X002120Y017815D01*
X002163Y017813D01*
X002205Y017807D01*
X002247Y017797D01*
X002288Y017784D01*
X002327Y017766D01*
X002365Y017745D01*
X002400Y017721D01*
X002433Y017694D01*
X002464Y017663D01*
X002491Y017630D01*
X002515Y017595D01*
X002536Y017557D01*
X002554Y017518D01*
X002567Y017477D01*
X002577Y017435D01*
X002583Y017393D01*
X002585Y017350D01*
X002583Y017307D01*
X002577Y017265D01*
X002567Y017223D01*
X002554Y017182D01*
X002536Y017143D01*
X002515Y017105D01*
X002491Y017070D01*
X002464Y017037D01*
X002433Y017006D01*
X002400Y016979D01*
X002365Y016955D01*
X002327Y016934D01*
X002288Y016916D01*
X002247Y016903D01*
X002205Y016893D01*
X002163Y016887D01*
X002120Y016885D01*
X002077Y016887D01*
X002035Y016893D01*
X001993Y016903D01*
X001952Y016916D01*
X001913Y016934D01*
X001875Y016955D01*
X001840Y016979D01*
X001807Y017006D01*
X001776Y017037D01*
X001749Y017070D01*
X001725Y017105D01*
X001704Y017143D01*
X001686Y017182D01*
X001673Y017223D01*
X001663Y017265D01*
X001657Y017307D01*
X001655Y017350D01*
D11*
X007293Y004952D03*
X007293Y004637D03*
X007293Y004322D03*
X007293Y004007D03*
X007293Y003693D03*
X007293Y003378D03*
X007293Y003063D03*
X007293Y002748D03*
X010673Y002748D03*
X010673Y003063D03*
X010673Y003378D03*
X010673Y003693D03*
X010673Y004007D03*
X010673Y004322D03*
X010673Y004637D03*
X010673Y004952D03*
D12*
X010085Y005540D03*
X009770Y005540D03*
X009455Y005540D03*
X009140Y005540D03*
X008825Y005540D03*
X008510Y005540D03*
X008195Y005540D03*
X007880Y005540D03*
X007880Y002160D03*
X008195Y002160D03*
X008510Y002160D03*
X008825Y002160D03*
X009140Y002160D03*
X009455Y002160D03*
X009770Y002160D03*
X010085Y002160D03*
D13*
X011983Y003299D03*
X011983Y004401D03*
X013233Y004401D03*
X013233Y003299D03*
X014483Y003299D03*
X014483Y004401D03*
X010733Y011299D03*
X010733Y012401D03*
D14*
X013233Y007850D03*
X013233Y006850D03*
X014983Y006850D03*
X014983Y007850D03*
X016733Y007850D03*
X016733Y006850D03*
X018483Y006850D03*
X018483Y007850D03*
D15*
X018483Y012100D03*
D16*
X018483Y010722D03*
D17*
X006534Y002100D03*
X005431Y002100D03*
X004931Y005100D03*
X004931Y006100D03*
X006034Y006100D03*
X006034Y005100D03*
D18*
X004388Y003956D03*
X004388Y003153D03*
X004388Y002350D03*
X003388Y002744D03*
X003388Y003547D03*
X003388Y004350D03*
X003483Y015444D03*
X004286Y015444D03*
X005089Y015444D03*
X005483Y016444D03*
X004679Y016444D03*
X003876Y016444D03*
X009483Y015444D03*
X010286Y015444D03*
X011089Y015444D03*
X011483Y016444D03*
X010679Y016444D03*
X009876Y016444D03*
X015483Y015444D03*
X016286Y015444D03*
X017089Y015444D03*
X017483Y016444D03*
X016679Y016444D03*
X015876Y016444D03*
X016327Y004350D03*
X016327Y003547D03*
X016327Y002744D03*
X017327Y002350D03*
X017327Y003153D03*
X017327Y003956D03*
D19*
X018233Y005712D03*
X018233Y000988D03*
X002483Y000988D03*
X002483Y005712D03*
X002120Y017350D03*
X006845Y017350D03*
X008120Y017350D03*
X012845Y017350D03*
X014120Y017350D03*
X018845Y017350D03*
D20*
X011233Y009931D03*
X011233Y009244D03*
X011233Y008556D03*
X011233Y007869D03*
X008233Y007869D03*
X008233Y008556D03*
X008233Y009244D03*
X008233Y009931D03*
D21*
X014233Y010100D03*
X014733Y010100D03*
X015233Y010100D03*
X015233Y010600D03*
X014733Y010600D03*
X014233Y010600D03*
D22*
X013733Y010750D03*
X013733Y009950D03*
X015733Y010350D03*
D23*
X015733Y009350D03*
X014483Y009350D03*
X014483Y011350D03*
X015733Y011350D03*
D24*
X012108Y011259D03*
X012108Y012441D03*
D25*
X005983Y012655D03*
X005483Y012655D03*
X004983Y012655D03*
X004483Y012655D03*
X003983Y012655D03*
X003483Y012655D03*
X002983Y012655D03*
X002483Y012655D03*
X001983Y012655D03*
X001983Y009030D03*
X002483Y009045D03*
X002983Y009045D03*
X003483Y009045D03*
X003983Y009045D03*
X004483Y009045D03*
X004983Y009045D03*
X005483Y009045D03*
X005983Y009045D03*
M02*
