G75*
G70*
%OFA0B0*%
%FSLAX24Y24*%
%IPPOS*%
%LPD*%
%AMOC8*
5,1,8,0,0,1.08239X$1,22.5*
%
%ADD10C,0.0100*%
%ADD11C,0.0060*%
%ADD12C,0.0080*%
%ADD13C,0.0050*%
%ADD14C,0.0010*%
%ADD15R,0.0720X0.0230*%
%ADD16C,0.0040*%
%ADD17R,0.0197X0.0374*%
%ADD18R,0.0180X0.0300*%
%ADD19R,0.0157X0.0354*%
%ADD20R,0.0118X0.0059*%
%ADD21R,0.0118X0.0118*%
D10*
X012733Y007970D02*
X013733Y007970D01*
X014483Y007970D02*
X015483Y007970D01*
X015402Y006669D02*
X015354Y006641D01*
X015305Y006617D01*
X015253Y006597D01*
X015201Y006580D01*
X015147Y006567D01*
X015093Y006558D01*
X015038Y006552D01*
X014983Y006550D01*
X015380Y006655D02*
X015428Y006685D01*
X015473Y006718D01*
X015516Y006754D01*
X015557Y006792D01*
X015594Y006834D01*
X015629Y006878D01*
X015660Y006924D01*
X015689Y006973D01*
X015713Y007023D01*
X015734Y007075D01*
X015752Y007129D01*
X015765Y007183D01*
X015775Y007238D01*
X015781Y007294D01*
X015783Y007350D01*
X016233Y007970D02*
X017233Y007970D01*
X017983Y007970D02*
X018983Y007970D01*
X018902Y006669D02*
X018854Y006641D01*
X018805Y006617D01*
X018753Y006597D01*
X018701Y006580D01*
X018647Y006567D01*
X018593Y006558D01*
X018538Y006552D01*
X018483Y006550D01*
X018880Y006655D02*
X018928Y006685D01*
X018973Y006718D01*
X019016Y006754D01*
X019057Y006792D01*
X019094Y006834D01*
X019129Y006878D01*
X019160Y006924D01*
X019189Y006973D01*
X019213Y007023D01*
X019234Y007075D01*
X019252Y007129D01*
X019265Y007183D01*
X019275Y007238D01*
X019281Y007294D01*
X019283Y007350D01*
X018483Y006550D02*
X018427Y006552D01*
X018370Y006558D01*
X018315Y006568D01*
X018260Y006582D01*
X018207Y006599D01*
X018154Y006621D01*
X018104Y006646D01*
X017683Y007350D02*
X017685Y007404D01*
X017690Y007457D01*
X017699Y007511D01*
X017712Y007563D01*
X017728Y007614D01*
X017748Y007665D01*
X017770Y007714D01*
X017796Y007761D01*
X017826Y007806D01*
X017858Y007849D01*
X017893Y007890D01*
X017931Y007929D01*
X017971Y007965D01*
X017683Y007350D02*
X017685Y007296D01*
X017690Y007242D01*
X017699Y007189D01*
X017712Y007136D01*
X017728Y007085D01*
X017748Y007035D01*
X017771Y006986D01*
X017797Y006938D01*
X017826Y006893D01*
X017859Y006850D01*
X017894Y006809D01*
X017932Y006770D01*
X017972Y006734D01*
X018015Y006701D01*
X018060Y006671D01*
X018107Y006644D01*
X019283Y007350D02*
X019281Y007403D01*
X019276Y007457D01*
X019267Y007509D01*
X019255Y007561D01*
X019239Y007612D01*
X019220Y007662D01*
X019197Y007711D01*
X019171Y007758D01*
X019143Y007803D01*
X019111Y007846D01*
X019077Y007886D01*
X019039Y007925D01*
X019000Y007961D01*
X017152Y006669D02*
X017104Y006641D01*
X017055Y006617D01*
X017003Y006597D01*
X016951Y006580D01*
X016897Y006567D01*
X016843Y006558D01*
X016788Y006552D01*
X016733Y006550D01*
X017130Y006655D02*
X017178Y006685D01*
X017223Y006718D01*
X017266Y006754D01*
X017307Y006792D01*
X017344Y006834D01*
X017379Y006878D01*
X017410Y006924D01*
X017439Y006973D01*
X017463Y007023D01*
X017484Y007075D01*
X017502Y007129D01*
X017515Y007183D01*
X017525Y007238D01*
X017531Y007294D01*
X017533Y007350D01*
X016733Y006550D02*
X016677Y006552D01*
X016620Y006558D01*
X016565Y006568D01*
X016510Y006582D01*
X016457Y006599D01*
X016404Y006621D01*
X016354Y006646D01*
X015933Y007350D02*
X015935Y007404D01*
X015940Y007457D01*
X015949Y007511D01*
X015962Y007563D01*
X015978Y007614D01*
X015998Y007665D01*
X016020Y007714D01*
X016046Y007761D01*
X016076Y007806D01*
X016108Y007849D01*
X016143Y007890D01*
X016181Y007929D01*
X016221Y007965D01*
X015933Y007350D02*
X015935Y007296D01*
X015940Y007242D01*
X015949Y007189D01*
X015962Y007136D01*
X015978Y007085D01*
X015998Y007035D01*
X016021Y006986D01*
X016047Y006938D01*
X016076Y006893D01*
X016109Y006850D01*
X016144Y006809D01*
X016182Y006770D01*
X016222Y006734D01*
X016265Y006701D01*
X016310Y006671D01*
X016357Y006644D01*
X017533Y007350D02*
X017531Y007403D01*
X017526Y007457D01*
X017517Y007509D01*
X017505Y007561D01*
X017489Y007612D01*
X017470Y007662D01*
X017447Y007711D01*
X017421Y007758D01*
X017393Y007803D01*
X017361Y007846D01*
X017327Y007886D01*
X017289Y007925D01*
X017250Y007961D01*
X014607Y006644D02*
X014560Y006671D01*
X014515Y006701D01*
X014472Y006734D01*
X014432Y006770D01*
X014394Y006809D01*
X014359Y006850D01*
X014326Y006893D01*
X014297Y006938D01*
X014271Y006986D01*
X014248Y007035D01*
X014228Y007085D01*
X014212Y007136D01*
X014199Y007189D01*
X014190Y007242D01*
X014185Y007296D01*
X014183Y007350D01*
X015500Y007961D02*
X015539Y007925D01*
X015577Y007886D01*
X015611Y007846D01*
X015643Y007803D01*
X015671Y007758D01*
X015697Y007711D01*
X015720Y007662D01*
X015739Y007612D01*
X015755Y007561D01*
X015767Y007509D01*
X015776Y007457D01*
X015781Y007403D01*
X015783Y007350D01*
X014983Y006550D02*
X014927Y006552D01*
X014870Y006558D01*
X014815Y006568D01*
X014760Y006582D01*
X014707Y006599D01*
X014654Y006621D01*
X014604Y006646D01*
X014183Y007350D02*
X014185Y007404D01*
X014190Y007457D01*
X014199Y007511D01*
X014212Y007563D01*
X014228Y007614D01*
X014248Y007665D01*
X014270Y007714D01*
X014296Y007761D01*
X014326Y007806D01*
X014358Y007849D01*
X014393Y007890D01*
X014431Y007929D01*
X014471Y007965D01*
X013652Y006669D02*
X013604Y006641D01*
X013555Y006617D01*
X013503Y006597D01*
X013451Y006580D01*
X013397Y006567D01*
X013343Y006558D01*
X013288Y006552D01*
X013233Y006550D01*
X013630Y006655D02*
X013678Y006685D01*
X013723Y006718D01*
X013766Y006754D01*
X013807Y006792D01*
X013844Y006834D01*
X013879Y006878D01*
X013910Y006924D01*
X013939Y006973D01*
X013963Y007023D01*
X013984Y007075D01*
X014002Y007129D01*
X014015Y007183D01*
X014025Y007238D01*
X014031Y007294D01*
X014033Y007350D01*
X013233Y006550D02*
X013177Y006552D01*
X013120Y006558D01*
X013065Y006568D01*
X013010Y006582D01*
X012957Y006599D01*
X012904Y006621D01*
X012854Y006646D01*
X012433Y007350D02*
X012435Y007404D01*
X012440Y007457D01*
X012449Y007511D01*
X012462Y007563D01*
X012478Y007614D01*
X012498Y007665D01*
X012520Y007714D01*
X012546Y007761D01*
X012576Y007806D01*
X012608Y007849D01*
X012643Y007890D01*
X012681Y007929D01*
X012721Y007965D01*
X012433Y007350D02*
X012435Y007296D01*
X012440Y007242D01*
X012449Y007189D01*
X012462Y007136D01*
X012478Y007085D01*
X012498Y007035D01*
X012521Y006986D01*
X012547Y006938D01*
X012576Y006893D01*
X012609Y006850D01*
X012644Y006809D01*
X012682Y006770D01*
X012722Y006734D01*
X012765Y006701D01*
X012810Y006671D01*
X012857Y006644D01*
X014033Y007350D02*
X014031Y007403D01*
X014026Y007457D01*
X014017Y007509D01*
X014005Y007561D01*
X013989Y007612D01*
X013970Y007662D01*
X013947Y007711D01*
X013921Y007758D01*
X013893Y007803D01*
X013861Y007846D01*
X013827Y007886D01*
X013789Y007925D01*
X013750Y007961D01*
D11*
X013632Y006902D02*
X013594Y006871D01*
X013554Y006843D01*
X013512Y006819D01*
X013469Y006798D01*
X013423Y006781D01*
X013377Y006768D01*
X013329Y006758D01*
X013281Y006752D01*
X013233Y006750D01*
X012633Y007350D02*
X012635Y007397D01*
X012641Y007445D01*
X012650Y007491D01*
X012663Y007537D01*
X012679Y007581D01*
X012700Y007625D01*
X012723Y007666D01*
X012749Y007705D01*
X012779Y007742D01*
X012812Y007777D01*
X012847Y007809D01*
X012884Y007838D01*
X013833Y007350D02*
X013831Y007305D01*
X013826Y007259D01*
X013818Y007215D01*
X013806Y007171D01*
X013790Y007128D01*
X013772Y007086D01*
X013750Y007046D01*
X013726Y007008D01*
X013699Y006972D01*
X013669Y006937D01*
X013636Y006906D01*
X013601Y006876D01*
X013233Y007950D02*
X013186Y007948D01*
X013139Y007943D01*
X013093Y007933D01*
X013047Y007920D01*
X013003Y007904D01*
X012960Y007884D01*
X012919Y007861D01*
X012880Y007835D01*
X012843Y007806D01*
X013233Y007950D02*
X013279Y007948D01*
X013325Y007943D01*
X013371Y007934D01*
X013415Y007922D01*
X013459Y007906D01*
X013501Y007887D01*
X013542Y007865D01*
X013580Y007839D01*
X013617Y007811D01*
X013233Y007750D02*
X013272Y007748D01*
X013311Y007742D01*
X013349Y007733D01*
X013386Y007720D01*
X013422Y007703D01*
X013455Y007683D01*
X013487Y007659D01*
X013516Y007633D01*
X013542Y007604D01*
X013566Y007572D01*
X013586Y007539D01*
X013603Y007503D01*
X013616Y007466D01*
X013625Y007428D01*
X013631Y007389D01*
X013633Y007350D01*
X013233Y006750D02*
X013187Y006752D01*
X013141Y006757D01*
X013095Y006766D01*
X013051Y006778D01*
X013007Y006794D01*
X012965Y006813D01*
X012924Y006835D01*
X012886Y006861D01*
X012849Y006889D01*
X013833Y007350D02*
X013831Y007395D01*
X013826Y007441D01*
X013818Y007485D01*
X013806Y007529D01*
X013790Y007572D01*
X013772Y007614D01*
X013750Y007654D01*
X013726Y007692D01*
X013699Y007728D01*
X013669Y007763D01*
X013636Y007794D01*
X013601Y007824D01*
X013233Y007600D02*
X013263Y007598D01*
X013293Y007593D01*
X013322Y007584D01*
X013349Y007571D01*
X013375Y007556D01*
X013399Y007537D01*
X013420Y007516D01*
X013439Y007492D01*
X013454Y007466D01*
X013467Y007439D01*
X013476Y007410D01*
X013481Y007380D01*
X013483Y007350D01*
X013233Y006950D02*
X013194Y006952D01*
X013155Y006958D01*
X013117Y006967D01*
X013080Y006980D01*
X013044Y006997D01*
X013011Y007017D01*
X012979Y007041D01*
X012950Y007067D01*
X012924Y007096D01*
X012900Y007128D01*
X012880Y007161D01*
X012863Y007197D01*
X012850Y007234D01*
X012841Y007272D01*
X012835Y007311D01*
X012833Y007350D01*
X012983Y007350D02*
X012985Y007320D01*
X012990Y007290D01*
X012999Y007261D01*
X013012Y007234D01*
X013027Y007208D01*
X013046Y007184D01*
X013067Y007163D01*
X013091Y007144D01*
X013117Y007129D01*
X013144Y007116D01*
X013173Y007107D01*
X013203Y007102D01*
X013233Y007100D01*
X012873Y006870D02*
X012837Y006899D01*
X012803Y006931D01*
X012772Y006966D01*
X012744Y007002D01*
X012719Y007041D01*
X012696Y007082D01*
X012677Y007124D01*
X012661Y007167D01*
X012649Y007212D01*
X012640Y007258D01*
X012635Y007304D01*
X012633Y007350D01*
X012528Y005300D02*
X012528Y004400D01*
X012063Y004400D02*
X012063Y005300D01*
X011403Y005300D02*
X011403Y004400D01*
X010938Y004400D02*
X010938Y005300D01*
X010278Y005300D02*
X010278Y004400D01*
X009813Y004400D02*
X009813Y005300D01*
X009153Y005300D02*
X009153Y004400D01*
X008688Y004400D02*
X008688Y005300D01*
X008028Y005300D02*
X008028Y004400D01*
X007563Y004400D02*
X007563Y005300D01*
X006903Y005300D02*
X006903Y004400D01*
X013188Y004400D02*
X013188Y005300D01*
X013653Y005300D02*
X013653Y004400D01*
X014313Y004400D02*
X014313Y005300D01*
X014383Y007350D02*
X014385Y007397D01*
X014391Y007445D01*
X014400Y007491D01*
X014413Y007537D01*
X014429Y007581D01*
X014450Y007625D01*
X014473Y007666D01*
X014499Y007705D01*
X014529Y007742D01*
X014562Y007777D01*
X014597Y007809D01*
X014634Y007838D01*
X015583Y007350D02*
X015581Y007305D01*
X015576Y007259D01*
X015568Y007215D01*
X015556Y007171D01*
X015540Y007128D01*
X015522Y007086D01*
X015500Y007046D01*
X015476Y007008D01*
X015449Y006972D01*
X015419Y006937D01*
X015386Y006906D01*
X015351Y006876D01*
X015382Y006902D02*
X015344Y006871D01*
X015304Y006843D01*
X015262Y006819D01*
X015219Y006798D01*
X015173Y006781D01*
X015127Y006768D01*
X015079Y006758D01*
X015031Y006752D01*
X014983Y006750D01*
X015583Y007350D02*
X015581Y007395D01*
X015576Y007441D01*
X015568Y007485D01*
X015556Y007529D01*
X015540Y007572D01*
X015522Y007614D01*
X015500Y007654D01*
X015476Y007692D01*
X015449Y007728D01*
X015419Y007763D01*
X015386Y007794D01*
X015351Y007824D01*
X014983Y007950D02*
X014936Y007948D01*
X014889Y007943D01*
X014843Y007933D01*
X014797Y007920D01*
X014753Y007904D01*
X014710Y007884D01*
X014669Y007861D01*
X014630Y007835D01*
X014593Y007806D01*
X014983Y007950D02*
X015029Y007948D01*
X015075Y007943D01*
X015121Y007934D01*
X015165Y007922D01*
X015209Y007906D01*
X015251Y007887D01*
X015292Y007865D01*
X015330Y007839D01*
X015367Y007811D01*
X014983Y007750D02*
X015022Y007748D01*
X015061Y007742D01*
X015099Y007733D01*
X015136Y007720D01*
X015172Y007703D01*
X015205Y007683D01*
X015237Y007659D01*
X015266Y007633D01*
X015292Y007604D01*
X015316Y007572D01*
X015336Y007539D01*
X015353Y007503D01*
X015366Y007466D01*
X015375Y007428D01*
X015381Y007389D01*
X015383Y007350D01*
X014983Y006750D02*
X014937Y006752D01*
X014891Y006757D01*
X014845Y006766D01*
X014801Y006778D01*
X014757Y006794D01*
X014715Y006813D01*
X014674Y006835D01*
X014636Y006861D01*
X014599Y006889D01*
X015233Y007350D02*
X015231Y007380D01*
X015226Y007410D01*
X015217Y007439D01*
X015204Y007466D01*
X015189Y007492D01*
X015170Y007516D01*
X015149Y007537D01*
X015125Y007556D01*
X015099Y007571D01*
X015072Y007584D01*
X015043Y007593D01*
X015013Y007598D01*
X014983Y007600D01*
X014583Y007350D02*
X014585Y007311D01*
X014591Y007272D01*
X014600Y007234D01*
X014613Y007197D01*
X014630Y007161D01*
X014650Y007128D01*
X014674Y007096D01*
X014700Y007067D01*
X014729Y007041D01*
X014761Y007017D01*
X014794Y006997D01*
X014830Y006980D01*
X014867Y006967D01*
X014905Y006958D01*
X014944Y006952D01*
X014983Y006950D01*
X014983Y007100D02*
X014953Y007102D01*
X014923Y007107D01*
X014894Y007116D01*
X014867Y007129D01*
X014841Y007144D01*
X014817Y007163D01*
X014796Y007184D01*
X014777Y007208D01*
X014762Y007234D01*
X014749Y007261D01*
X014740Y007290D01*
X014735Y007320D01*
X014733Y007350D01*
X014383Y007350D02*
X014385Y007304D01*
X014390Y007258D01*
X014399Y007212D01*
X014411Y007167D01*
X014427Y007124D01*
X014446Y007082D01*
X014469Y007041D01*
X014494Y007002D01*
X014522Y006966D01*
X014553Y006931D01*
X014587Y006899D01*
X014623Y006870D01*
X016133Y007350D02*
X016135Y007397D01*
X016141Y007445D01*
X016150Y007491D01*
X016163Y007537D01*
X016179Y007581D01*
X016200Y007625D01*
X016223Y007666D01*
X016249Y007705D01*
X016279Y007742D01*
X016312Y007777D01*
X016347Y007809D01*
X016384Y007838D01*
X017333Y007350D02*
X017331Y007305D01*
X017326Y007259D01*
X017318Y007215D01*
X017306Y007171D01*
X017290Y007128D01*
X017272Y007086D01*
X017250Y007046D01*
X017226Y007008D01*
X017199Y006972D01*
X017169Y006937D01*
X017136Y006906D01*
X017101Y006876D01*
X017132Y006902D02*
X017094Y006871D01*
X017054Y006843D01*
X017012Y006819D01*
X016969Y006798D01*
X016923Y006781D01*
X016877Y006768D01*
X016829Y006758D01*
X016781Y006752D01*
X016733Y006750D01*
X017333Y007350D02*
X017331Y007395D01*
X017326Y007441D01*
X017318Y007485D01*
X017306Y007529D01*
X017290Y007572D01*
X017272Y007614D01*
X017250Y007654D01*
X017226Y007692D01*
X017199Y007728D01*
X017169Y007763D01*
X017136Y007794D01*
X017101Y007824D01*
X016733Y007950D02*
X016686Y007948D01*
X016639Y007943D01*
X016593Y007933D01*
X016547Y007920D01*
X016503Y007904D01*
X016460Y007884D01*
X016419Y007861D01*
X016380Y007835D01*
X016343Y007806D01*
X016733Y007950D02*
X016779Y007948D01*
X016825Y007943D01*
X016871Y007934D01*
X016915Y007922D01*
X016959Y007906D01*
X017001Y007887D01*
X017042Y007865D01*
X017080Y007839D01*
X017117Y007811D01*
X016733Y007750D02*
X016772Y007748D01*
X016811Y007742D01*
X016849Y007733D01*
X016886Y007720D01*
X016922Y007703D01*
X016955Y007683D01*
X016987Y007659D01*
X017016Y007633D01*
X017042Y007604D01*
X017066Y007572D01*
X017086Y007539D01*
X017103Y007503D01*
X017116Y007466D01*
X017125Y007428D01*
X017131Y007389D01*
X017133Y007350D01*
X016733Y006750D02*
X016687Y006752D01*
X016641Y006757D01*
X016595Y006766D01*
X016551Y006778D01*
X016507Y006794D01*
X016465Y006813D01*
X016424Y006835D01*
X016386Y006861D01*
X016349Y006889D01*
X016983Y007350D02*
X016981Y007380D01*
X016976Y007410D01*
X016967Y007439D01*
X016954Y007466D01*
X016939Y007492D01*
X016920Y007516D01*
X016899Y007537D01*
X016875Y007556D01*
X016849Y007571D01*
X016822Y007584D01*
X016793Y007593D01*
X016763Y007598D01*
X016733Y007600D01*
X016333Y007350D02*
X016335Y007311D01*
X016341Y007272D01*
X016350Y007234D01*
X016363Y007197D01*
X016380Y007161D01*
X016400Y007128D01*
X016424Y007096D01*
X016450Y007067D01*
X016479Y007041D01*
X016511Y007017D01*
X016544Y006997D01*
X016580Y006980D01*
X016617Y006967D01*
X016655Y006958D01*
X016694Y006952D01*
X016733Y006950D01*
X016733Y007100D02*
X016703Y007102D01*
X016673Y007107D01*
X016644Y007116D01*
X016617Y007129D01*
X016591Y007144D01*
X016567Y007163D01*
X016546Y007184D01*
X016527Y007208D01*
X016512Y007234D01*
X016499Y007261D01*
X016490Y007290D01*
X016485Y007320D01*
X016483Y007350D01*
X016133Y007350D02*
X016135Y007304D01*
X016140Y007258D01*
X016149Y007212D01*
X016161Y007167D01*
X016177Y007124D01*
X016196Y007082D01*
X016219Y007041D01*
X016244Y007002D01*
X016272Y006966D01*
X016303Y006931D01*
X016337Y006899D01*
X016373Y006870D01*
X017883Y007350D02*
X017885Y007397D01*
X017891Y007445D01*
X017900Y007491D01*
X017913Y007537D01*
X017929Y007581D01*
X017950Y007625D01*
X017973Y007666D01*
X017999Y007705D01*
X018029Y007742D01*
X018062Y007777D01*
X018097Y007809D01*
X018134Y007838D01*
X019083Y007350D02*
X019081Y007305D01*
X019076Y007259D01*
X019068Y007215D01*
X019056Y007171D01*
X019040Y007128D01*
X019022Y007086D01*
X019000Y007046D01*
X018976Y007008D01*
X018949Y006972D01*
X018919Y006937D01*
X018886Y006906D01*
X018851Y006876D01*
X018882Y006902D02*
X018844Y006871D01*
X018804Y006843D01*
X018762Y006819D01*
X018719Y006798D01*
X018673Y006781D01*
X018627Y006768D01*
X018579Y006758D01*
X018531Y006752D01*
X018483Y006750D01*
X019083Y007350D02*
X019081Y007395D01*
X019076Y007441D01*
X019068Y007485D01*
X019056Y007529D01*
X019040Y007572D01*
X019022Y007614D01*
X019000Y007654D01*
X018976Y007692D01*
X018949Y007728D01*
X018919Y007763D01*
X018886Y007794D01*
X018851Y007824D01*
X018483Y007950D02*
X018436Y007948D01*
X018389Y007943D01*
X018343Y007933D01*
X018297Y007920D01*
X018253Y007904D01*
X018210Y007884D01*
X018169Y007861D01*
X018130Y007835D01*
X018093Y007806D01*
X018483Y007950D02*
X018529Y007948D01*
X018575Y007943D01*
X018621Y007934D01*
X018665Y007922D01*
X018709Y007906D01*
X018751Y007887D01*
X018792Y007865D01*
X018830Y007839D01*
X018867Y007811D01*
X018483Y007750D02*
X018522Y007748D01*
X018561Y007742D01*
X018599Y007733D01*
X018636Y007720D01*
X018672Y007703D01*
X018705Y007683D01*
X018737Y007659D01*
X018766Y007633D01*
X018792Y007604D01*
X018816Y007572D01*
X018836Y007539D01*
X018853Y007503D01*
X018866Y007466D01*
X018875Y007428D01*
X018881Y007389D01*
X018883Y007350D01*
X018483Y006750D02*
X018437Y006752D01*
X018391Y006757D01*
X018345Y006766D01*
X018301Y006778D01*
X018257Y006794D01*
X018215Y006813D01*
X018174Y006835D01*
X018136Y006861D01*
X018099Y006889D01*
X018733Y007350D02*
X018731Y007380D01*
X018726Y007410D01*
X018717Y007439D01*
X018704Y007466D01*
X018689Y007492D01*
X018670Y007516D01*
X018649Y007537D01*
X018625Y007556D01*
X018599Y007571D01*
X018572Y007584D01*
X018543Y007593D01*
X018513Y007598D01*
X018483Y007600D01*
X018083Y007350D02*
X018085Y007311D01*
X018091Y007272D01*
X018100Y007234D01*
X018113Y007197D01*
X018130Y007161D01*
X018150Y007128D01*
X018174Y007096D01*
X018200Y007067D01*
X018229Y007041D01*
X018261Y007017D01*
X018294Y006997D01*
X018330Y006980D01*
X018367Y006967D01*
X018405Y006958D01*
X018444Y006952D01*
X018483Y006950D01*
X018483Y007100D02*
X018453Y007102D01*
X018423Y007107D01*
X018394Y007116D01*
X018367Y007129D01*
X018341Y007144D01*
X018317Y007163D01*
X018296Y007184D01*
X018277Y007208D01*
X018262Y007234D01*
X018249Y007261D01*
X018240Y007290D01*
X018235Y007320D01*
X018233Y007350D01*
X017883Y007350D02*
X017885Y007304D01*
X017890Y007258D01*
X017899Y007212D01*
X017911Y007167D01*
X017927Y007124D01*
X017946Y007082D01*
X017969Y007041D01*
X017994Y007002D01*
X018022Y006966D01*
X018053Y006931D01*
X018087Y006899D01*
X018123Y006870D01*
X010313Y011400D02*
X010313Y012300D01*
X009653Y012300D02*
X009653Y011400D01*
X009063Y011400D02*
X009063Y012300D01*
X008403Y012300D02*
X008403Y011400D01*
X007813Y011400D02*
X007813Y012300D01*
X007153Y012300D02*
X007153Y011400D01*
D12*
X002187Y000860D02*
X000140Y000860D01*
X000140Y005840D01*
X002187Y005840D01*
X002778Y005840D01*
X006004Y005840D01*
X006004Y000860D01*
X002187Y000860D01*
X002188Y000860D02*
X002202Y000829D01*
X002220Y000800D01*
X002241Y000773D01*
X002265Y000749D01*
X002291Y000727D01*
X002320Y000708D01*
X002350Y000692D01*
X002382Y000679D01*
X002415Y000670D01*
X002449Y000665D01*
X002483Y000663D01*
X002517Y000665D01*
X002551Y000670D01*
X002584Y000679D01*
X002616Y000692D01*
X002646Y000708D01*
X002675Y000727D01*
X002701Y000749D01*
X002725Y000773D01*
X002746Y000800D01*
X002764Y000829D01*
X002778Y000860D01*
X002778Y005840D02*
X002764Y005871D01*
X002746Y005900D01*
X002725Y005927D01*
X002701Y005951D01*
X002675Y005973D01*
X002646Y005992D01*
X002616Y006008D01*
X002584Y006021D01*
X002551Y006030D01*
X002517Y006035D01*
X002483Y006037D01*
X002449Y006035D01*
X002415Y006030D01*
X002382Y006021D01*
X002350Y006008D01*
X002320Y005992D01*
X002291Y005973D01*
X002265Y005951D01*
X002241Y005927D01*
X002220Y005900D01*
X002202Y005871D01*
X002188Y005840D01*
X001992Y013828D02*
X006973Y013828D01*
X006973Y017055D01*
X006973Y017645D01*
X006973Y019693D01*
X001992Y019693D01*
X001992Y017645D01*
X001992Y013828D01*
X001992Y017055D02*
X001961Y017069D01*
X001932Y017087D01*
X001905Y017108D01*
X001881Y017132D01*
X001859Y017158D01*
X001840Y017187D01*
X001824Y017217D01*
X001811Y017249D01*
X001802Y017282D01*
X001797Y017316D01*
X001795Y017350D01*
X001797Y017384D01*
X001802Y017418D01*
X001811Y017451D01*
X001824Y017483D01*
X001840Y017513D01*
X001859Y017542D01*
X001881Y017568D01*
X001905Y017592D01*
X001932Y017613D01*
X001961Y017631D01*
X001992Y017645D01*
X006973Y017645D02*
X007004Y017631D01*
X007033Y017613D01*
X007060Y017592D01*
X007084Y017568D01*
X007106Y017542D01*
X007125Y017513D01*
X007141Y017483D01*
X007154Y017451D01*
X007163Y017418D01*
X007168Y017384D01*
X007170Y017350D01*
X007168Y017316D01*
X007163Y017282D01*
X007154Y017249D01*
X007141Y017217D01*
X007125Y017187D01*
X007106Y017158D01*
X007084Y017132D01*
X007060Y017108D01*
X007033Y017087D01*
X007004Y017069D01*
X006973Y017055D01*
X007992Y017645D02*
X007992Y013828D01*
X012973Y013828D01*
X012973Y017055D01*
X012973Y017645D01*
X012973Y019693D01*
X007992Y019693D01*
X007992Y017645D01*
X007961Y017631D01*
X007932Y017613D01*
X007905Y017592D01*
X007881Y017568D01*
X007859Y017542D01*
X007840Y017513D01*
X007824Y017483D01*
X007811Y017451D01*
X007802Y017418D01*
X007797Y017384D01*
X007795Y017350D01*
X007797Y017316D01*
X007802Y017282D01*
X007811Y017249D01*
X007824Y017217D01*
X007840Y017187D01*
X007859Y017158D01*
X007881Y017132D01*
X007905Y017108D01*
X007932Y017087D01*
X007961Y017069D01*
X007992Y017055D01*
X011714Y012795D02*
X011714Y012244D01*
X011871Y011968D02*
X012108Y011732D01*
X012344Y011968D01*
X011871Y011968D01*
X011832Y011732D02*
X012108Y011732D01*
X012383Y011732D01*
X012501Y011456D02*
X012501Y010905D01*
X011714Y010905D01*
X011714Y011456D01*
X012501Y012244D02*
X012501Y012795D01*
X011714Y012795D01*
X013992Y013828D02*
X018973Y013828D01*
X018973Y017055D01*
X018973Y017645D01*
X018973Y019693D01*
X013992Y019693D01*
X013992Y017645D01*
X013992Y013828D01*
X017065Y012789D02*
X017380Y012789D01*
X017380Y010033D01*
X017065Y010033D01*
X017065Y012789D01*
X017380Y012789D02*
X019821Y012789D01*
X019821Y010033D01*
X017380Y010033D01*
X019329Y010033D02*
X019329Y009876D01*
X019723Y009876D01*
X019723Y010033D01*
X017951Y012789D02*
X017951Y012946D01*
X017557Y012946D01*
X017557Y012789D01*
X018973Y017055D02*
X019004Y017069D01*
X019033Y017087D01*
X019060Y017108D01*
X019084Y017132D01*
X019106Y017158D01*
X019125Y017187D01*
X019141Y017217D01*
X019154Y017249D01*
X019163Y017282D01*
X019168Y017316D01*
X019170Y017350D01*
X019168Y017384D01*
X019163Y017418D01*
X019154Y017451D01*
X019141Y017483D01*
X019125Y017513D01*
X019106Y017542D01*
X019084Y017568D01*
X019060Y017592D01*
X019033Y017613D01*
X019004Y017631D01*
X018973Y017645D01*
X013992Y017645D02*
X013961Y017631D01*
X013932Y017613D01*
X013905Y017592D01*
X013881Y017568D01*
X013859Y017542D01*
X013840Y017513D01*
X013824Y017483D01*
X013811Y017451D01*
X013802Y017418D01*
X013797Y017384D01*
X013795Y017350D01*
X013797Y017316D01*
X013802Y017282D01*
X013811Y017249D01*
X013824Y017217D01*
X013840Y017187D01*
X013859Y017158D01*
X013881Y017132D01*
X013905Y017108D01*
X013932Y017087D01*
X013961Y017069D01*
X013992Y017055D01*
X012973Y017055D02*
X013004Y017069D01*
X013033Y017087D01*
X013060Y017108D01*
X013084Y017132D01*
X013106Y017158D01*
X013125Y017187D01*
X013141Y017217D01*
X013154Y017249D01*
X013163Y017282D01*
X013168Y017316D01*
X013170Y017350D01*
X013168Y017384D01*
X013163Y017418D01*
X013154Y017451D01*
X013141Y017483D01*
X013125Y017513D01*
X013106Y017542D01*
X013084Y017568D01*
X013060Y017592D01*
X013033Y017613D01*
X013004Y017631D01*
X012973Y017645D01*
X014711Y005840D02*
X014711Y000860D01*
X017937Y000860D01*
X018528Y000860D01*
X020575Y000860D01*
X020575Y005840D01*
X018528Y005840D01*
X014711Y005840D01*
X017938Y005840D02*
X017952Y005871D01*
X017970Y005900D01*
X017991Y005927D01*
X018015Y005951D01*
X018041Y005973D01*
X018070Y005992D01*
X018100Y006008D01*
X018132Y006021D01*
X018165Y006030D01*
X018199Y006035D01*
X018233Y006037D01*
X018267Y006035D01*
X018301Y006030D01*
X018334Y006021D01*
X018366Y006008D01*
X018396Y005992D01*
X018425Y005973D01*
X018451Y005951D01*
X018475Y005927D01*
X018496Y005900D01*
X018514Y005871D01*
X018528Y005840D01*
X018528Y000860D02*
X018514Y000829D01*
X018496Y000800D01*
X018475Y000773D01*
X018451Y000749D01*
X018425Y000727D01*
X018396Y000708D01*
X018366Y000692D01*
X018334Y000679D01*
X018301Y000670D01*
X018267Y000665D01*
X018233Y000663D01*
X018199Y000665D01*
X018165Y000670D01*
X018132Y000679D01*
X018100Y000692D01*
X018070Y000708D01*
X018041Y000727D01*
X018015Y000749D01*
X017991Y000773D01*
X017970Y000800D01*
X017952Y000829D01*
X017938Y000860D01*
D13*
X012021Y010150D02*
X012082Y010106D01*
X012140Y010060D01*
X012197Y010011D01*
X012250Y009959D01*
X012301Y009904D01*
X012349Y009846D01*
X012393Y009786D01*
X012435Y009724D01*
X012473Y009660D01*
X012508Y009594D01*
X012539Y009526D01*
X012566Y009456D01*
X012590Y009385D01*
X012610Y009313D01*
X012627Y009240D01*
X012639Y009167D01*
X012648Y009092D01*
X012652Y009018D01*
X012653Y008943D01*
X012649Y008868D01*
X012642Y008794D01*
X012631Y008720D01*
X012616Y008647D01*
X012597Y008574D01*
X012575Y008503D01*
X012548Y008433D01*
X012518Y008365D01*
X012485Y008298D01*
X012448Y008233D01*
X012408Y008170D01*
X012364Y008109D01*
X012317Y008051D01*
X012267Y007995D01*
X012215Y007942D01*
X012159Y007892D01*
X012102Y007845D01*
X012041Y007800D01*
X011979Y007760D01*
X011914Y007722D01*
X011847Y007688D01*
X011779Y007657D01*
X011710Y007630D01*
X011638Y007607D01*
X011566Y007588D01*
X011493Y007572D01*
X011419Y007560D01*
X011345Y007552D01*
X011270Y007548D01*
X011196Y007548D01*
X011121Y007552D01*
X011047Y007560D01*
X010973Y007572D01*
X010900Y007588D01*
X010828Y007607D01*
X010756Y007630D01*
X010687Y007657D01*
X010619Y007688D01*
X010552Y007722D01*
X010487Y007760D01*
X010425Y007800D01*
X010364Y007845D01*
X010307Y007892D01*
X010251Y007942D01*
X010199Y007995D01*
X010149Y008051D01*
X010102Y008109D01*
X010058Y008170D01*
X010018Y008233D01*
X009981Y008298D01*
X009948Y008365D01*
X009918Y008433D01*
X009891Y008503D01*
X009869Y008574D01*
X009850Y008647D01*
X009835Y008720D01*
X009824Y008794D01*
X009817Y008868D01*
X009813Y008943D01*
X009814Y009018D01*
X009818Y009092D01*
X009827Y009167D01*
X009839Y009240D01*
X009856Y009313D01*
X009876Y009385D01*
X009900Y009456D01*
X009927Y009526D01*
X009958Y009594D01*
X009993Y009660D01*
X010031Y009724D01*
X010073Y009786D01*
X010117Y009846D01*
X010165Y009904D01*
X010216Y009959D01*
X010269Y010011D01*
X010326Y010060D01*
X010384Y010106D01*
X010445Y010150D01*
X010445Y010149D02*
X012020Y010149D01*
X009020Y010149D02*
X007445Y010149D01*
X007445Y010150D02*
X007384Y010106D01*
X007326Y010060D01*
X007269Y010011D01*
X007216Y009959D01*
X007165Y009904D01*
X007117Y009846D01*
X007073Y009786D01*
X007031Y009724D01*
X006993Y009660D01*
X006958Y009594D01*
X006927Y009526D01*
X006900Y009456D01*
X006876Y009385D01*
X006856Y009313D01*
X006839Y009240D01*
X006827Y009167D01*
X006818Y009092D01*
X006814Y009018D01*
X006813Y008943D01*
X006817Y008868D01*
X006824Y008794D01*
X006835Y008720D01*
X006850Y008647D01*
X006869Y008574D01*
X006891Y008503D01*
X006918Y008433D01*
X006948Y008365D01*
X006981Y008298D01*
X007018Y008233D01*
X007058Y008170D01*
X007102Y008109D01*
X007149Y008051D01*
X007199Y007995D01*
X007251Y007942D01*
X007307Y007892D01*
X007364Y007845D01*
X007425Y007800D01*
X007487Y007760D01*
X007552Y007722D01*
X007619Y007688D01*
X007687Y007657D01*
X007756Y007630D01*
X007828Y007607D01*
X007900Y007588D01*
X007973Y007572D01*
X008047Y007560D01*
X008121Y007552D01*
X008196Y007548D01*
X008270Y007548D01*
X008345Y007552D01*
X008419Y007560D01*
X008493Y007572D01*
X008566Y007588D01*
X008638Y007607D01*
X008710Y007630D01*
X008779Y007657D01*
X008847Y007688D01*
X008914Y007722D01*
X008979Y007760D01*
X009041Y007800D01*
X009102Y007845D01*
X009159Y007892D01*
X009215Y007942D01*
X009267Y007995D01*
X009317Y008051D01*
X009364Y008109D01*
X009408Y008170D01*
X009448Y008233D01*
X009485Y008298D01*
X009518Y008365D01*
X009548Y008433D01*
X009575Y008503D01*
X009597Y008574D01*
X009616Y008647D01*
X009631Y008720D01*
X009642Y008794D01*
X009649Y008868D01*
X009653Y008943D01*
X009652Y009018D01*
X009648Y009092D01*
X009639Y009167D01*
X009627Y009240D01*
X009610Y009313D01*
X009590Y009385D01*
X009566Y009456D01*
X009539Y009526D01*
X009508Y009594D01*
X009473Y009660D01*
X009435Y009724D01*
X009393Y009786D01*
X009349Y009846D01*
X009301Y009904D01*
X009250Y009959D01*
X009197Y010011D01*
X009140Y010060D01*
X009082Y010106D01*
X009021Y010150D01*
X019553Y011313D02*
X019555Y011333D01*
X019560Y011353D01*
X019570Y011371D01*
X019582Y011388D01*
X019597Y011402D01*
X019615Y011412D01*
X019634Y011420D01*
X019654Y011424D01*
X019674Y011424D01*
X019694Y011420D01*
X019713Y011412D01*
X019731Y011402D01*
X019746Y011388D01*
X019758Y011371D01*
X019768Y011353D01*
X019773Y011333D01*
X019775Y011313D01*
X019773Y011293D01*
X019768Y011273D01*
X019758Y011255D01*
X019746Y011238D01*
X019731Y011224D01*
X019713Y011214D01*
X019694Y011206D01*
X019674Y011202D01*
X019654Y011202D01*
X019634Y011206D01*
X019615Y011214D01*
X019597Y011224D01*
X019582Y011238D01*
X019570Y011255D01*
X019560Y011273D01*
X019555Y011293D01*
X019553Y011313D01*
D14*
X017171Y014660D02*
X017275Y014763D01*
X017275Y014970D01*
X017068Y014970D02*
X017068Y014763D01*
X017171Y014660D01*
X016980Y014712D02*
X016928Y014660D01*
X016825Y014660D01*
X016773Y014712D01*
X016773Y014815D02*
X016877Y014867D01*
X016928Y014867D01*
X016980Y014815D01*
X016980Y014712D01*
X016773Y014815D02*
X016773Y014970D01*
X016980Y014970D01*
X016525Y014919D02*
X016525Y014712D01*
X016473Y014660D01*
X016370Y014660D01*
X016318Y014712D01*
X016318Y014919D01*
X016370Y014970D01*
X016473Y014970D01*
X016525Y014919D01*
X016230Y014970D02*
X016023Y014660D01*
X015930Y014660D02*
X015827Y014660D01*
X015878Y014660D02*
X015878Y014970D01*
X015827Y014970D02*
X015930Y014970D01*
X015650Y014970D02*
X015650Y014763D01*
X015546Y014660D01*
X015443Y014763D01*
X015443Y014970D01*
X015355Y014919D02*
X015303Y014970D01*
X015200Y014970D01*
X015148Y014919D01*
X014957Y014970D02*
X014957Y014660D01*
X014854Y014660D02*
X015060Y014660D01*
X015148Y014660D02*
X015355Y014867D01*
X015355Y014919D01*
X015355Y014660D02*
X015148Y014660D01*
X014854Y014867D02*
X014957Y014970D01*
X015604Y016910D02*
X015604Y017220D01*
X015759Y017220D01*
X015810Y017169D01*
X015810Y017065D01*
X015759Y017013D01*
X015604Y017013D01*
X015898Y016910D02*
X015898Y017220D01*
X016105Y017220D02*
X016105Y016910D01*
X016002Y017013D01*
X015898Y016910D01*
X016193Y016910D02*
X016193Y017220D01*
X016296Y017117D01*
X016400Y017220D01*
X016400Y016910D01*
X016729Y016962D02*
X016729Y017169D01*
X016780Y017220D01*
X016884Y017220D01*
X016935Y017169D01*
X017023Y017220D02*
X017023Y016910D01*
X016935Y016962D02*
X016935Y017065D01*
X016832Y017065D01*
X016935Y016962D02*
X016884Y016910D01*
X016780Y016910D01*
X016729Y016962D01*
X017023Y017220D02*
X017230Y016910D01*
X017230Y017220D01*
X017318Y017220D02*
X017473Y017220D01*
X017525Y017169D01*
X017525Y016962D01*
X017473Y016910D01*
X017318Y016910D01*
X017318Y017220D01*
X011525Y017169D02*
X011525Y016962D01*
X011473Y016910D01*
X011318Y016910D01*
X011318Y017220D01*
X011473Y017220D01*
X011525Y017169D01*
X011230Y017220D02*
X011230Y016910D01*
X011023Y017220D01*
X011023Y016910D01*
X010935Y016962D02*
X010935Y017065D01*
X010832Y017065D01*
X010935Y016962D02*
X010884Y016910D01*
X010780Y016910D01*
X010729Y016962D01*
X010729Y017169D01*
X010780Y017220D01*
X010884Y017220D01*
X010935Y017169D01*
X010400Y017220D02*
X010400Y016910D01*
X010193Y016910D02*
X010193Y017220D01*
X010296Y017117D01*
X010400Y017220D01*
X010105Y017220D02*
X010105Y016910D01*
X010002Y017013D01*
X009898Y016910D01*
X009898Y017220D01*
X009810Y017169D02*
X009810Y017065D01*
X009759Y017013D01*
X009604Y017013D01*
X009604Y016910D02*
X009604Y017220D01*
X009759Y017220D01*
X009810Y017169D01*
X009827Y014970D02*
X009930Y014970D01*
X009878Y014970D02*
X009878Y014660D01*
X009827Y014660D02*
X009930Y014660D01*
X010023Y014660D02*
X010230Y014970D01*
X010318Y014919D02*
X010318Y014712D01*
X010370Y014660D01*
X010473Y014660D01*
X010525Y014712D01*
X010525Y014919D01*
X010473Y014970D01*
X010370Y014970D01*
X010318Y014919D01*
X010773Y014970D02*
X010773Y014815D01*
X010877Y014867D01*
X010928Y014867D01*
X010980Y014815D01*
X010980Y014712D01*
X010928Y014660D01*
X010825Y014660D01*
X010773Y014712D01*
X010773Y014970D02*
X010980Y014970D01*
X011068Y014970D02*
X011068Y014763D01*
X011171Y014660D01*
X011275Y014763D01*
X011275Y014970D01*
X009650Y014970D02*
X009650Y014763D01*
X009546Y014660D01*
X009443Y014763D01*
X009443Y014970D01*
X009355Y014919D02*
X009303Y014970D01*
X009200Y014970D01*
X009148Y014919D01*
X008957Y014970D02*
X008957Y014660D01*
X008854Y014660D02*
X009060Y014660D01*
X009148Y014660D02*
X009355Y014867D01*
X009355Y014919D01*
X009355Y014660D02*
X009148Y014660D01*
X008854Y014867D02*
X008957Y014970D01*
X011412Y012208D02*
X011437Y012158D01*
X011487Y012108D01*
X011487Y012183D01*
X011512Y012208D01*
X011537Y012208D01*
X011563Y012183D01*
X011563Y012133D01*
X011537Y012108D01*
X011487Y012108D01*
X011437Y012060D02*
X011537Y011960D01*
X011563Y011985D01*
X011563Y012035D01*
X011537Y012060D01*
X011437Y012060D01*
X011412Y012035D01*
X011412Y011985D01*
X011437Y011960D01*
X011537Y011960D01*
X011563Y011913D02*
X011563Y011813D01*
X011462Y011913D01*
X011437Y011913D01*
X011412Y011888D01*
X011412Y011838D01*
X011437Y011813D01*
X011412Y011716D02*
X011563Y011716D01*
X011563Y011666D02*
X011563Y011766D01*
X011462Y011666D02*
X011412Y011716D01*
X011437Y011618D02*
X011412Y011593D01*
X011412Y011518D01*
X011563Y011518D01*
X011563Y011593D01*
X011537Y011618D01*
X011437Y011618D01*
X011563Y011471D02*
X011563Y011371D01*
X011563Y011421D02*
X011412Y011421D01*
X011462Y011371D01*
X011462Y011324D02*
X011487Y011299D01*
X011487Y011249D01*
X011462Y011224D01*
X011437Y011224D01*
X011412Y011249D01*
X011412Y011299D01*
X011437Y011324D01*
X011462Y011324D01*
X011487Y011299D02*
X011512Y011324D01*
X011537Y011324D01*
X011563Y011299D01*
X011563Y011249D01*
X011537Y011224D01*
X011512Y011224D01*
X011487Y011249D01*
X011487Y011176D02*
X011537Y011176D01*
X011563Y011151D01*
X011563Y011101D01*
X011537Y011076D01*
X011487Y011076D02*
X011462Y011126D01*
X011462Y011151D01*
X011487Y011176D01*
X011412Y011176D02*
X011412Y011076D01*
X011487Y011076D01*
X011412Y011029D02*
X011563Y011029D01*
X011412Y010929D01*
X011563Y010929D01*
X011563Y010882D02*
X011563Y010782D01*
X011563Y010832D02*
X011412Y010832D01*
X011462Y010782D01*
X015542Y005151D02*
X015749Y005151D01*
X015853Y005048D01*
X015749Y004944D01*
X015542Y004944D01*
X015594Y004856D02*
X015542Y004805D01*
X015542Y004701D01*
X015594Y004650D01*
X015542Y004458D02*
X015853Y004458D01*
X015853Y004355D02*
X015853Y004562D01*
X015853Y004650D02*
X015646Y004856D01*
X015594Y004856D01*
X015853Y004856D02*
X015853Y004650D01*
X015646Y004355D02*
X015542Y004458D01*
X015646Y004026D02*
X015853Y004026D01*
X015697Y004026D02*
X015697Y003819D01*
X015646Y003819D02*
X015542Y003923D01*
X015646Y004026D01*
X015646Y003819D02*
X015853Y003819D01*
X015801Y003731D02*
X015594Y003731D01*
X015542Y003680D01*
X015542Y003525D01*
X015853Y003525D01*
X015853Y003680D01*
X015801Y003731D01*
X015801Y003437D02*
X015853Y003385D01*
X015853Y003282D01*
X015801Y003230D01*
X015697Y003282D02*
X015697Y003385D01*
X015749Y003437D01*
X015801Y003437D01*
X015697Y003282D02*
X015646Y003230D01*
X015594Y003230D01*
X015542Y003282D01*
X015542Y003385D01*
X015594Y003437D01*
X015542Y002981D02*
X015749Y002981D01*
X015853Y002878D01*
X015749Y002775D01*
X015542Y002775D01*
X015542Y002687D02*
X015542Y002480D01*
X015697Y002480D01*
X015646Y002583D01*
X015646Y002635D01*
X015697Y002687D01*
X015801Y002687D01*
X015853Y002635D01*
X015853Y002532D01*
X015801Y002480D01*
X017792Y002525D02*
X018103Y002731D01*
X017792Y002731D01*
X017792Y002819D02*
X017792Y002974D01*
X017844Y003026D01*
X018051Y003026D01*
X018103Y002974D01*
X018103Y002819D01*
X017792Y002819D01*
X017792Y002525D02*
X018103Y002525D01*
X018051Y002437D02*
X017947Y002437D01*
X017947Y002333D01*
X017844Y002230D02*
X018051Y002230D01*
X018103Y002282D01*
X018103Y002385D01*
X018051Y002437D01*
X017844Y002437D02*
X017792Y002385D01*
X017792Y002282D01*
X017844Y002230D01*
X017844Y003605D02*
X017792Y003657D01*
X017792Y003760D01*
X017844Y003812D01*
X017844Y003900D02*
X018051Y003900D01*
X018103Y003951D01*
X018103Y004055D01*
X018051Y004106D01*
X018103Y004194D02*
X018103Y004401D01*
X018103Y004194D02*
X017792Y004194D01*
X017844Y004106D02*
X017792Y004055D01*
X017792Y003951D01*
X017844Y003900D01*
X017947Y003760D02*
X017999Y003812D01*
X018051Y003812D01*
X018103Y003760D01*
X018103Y003657D01*
X018051Y003605D01*
X017947Y003657D02*
X017947Y003760D01*
X017947Y003657D02*
X017896Y003605D01*
X017844Y003605D01*
X012457Y001255D02*
X012382Y001205D01*
X012457Y001155D01*
X012382Y001155D02*
X012382Y001305D01*
X012335Y001280D02*
X012235Y001180D01*
X012260Y001155D01*
X012310Y001155D01*
X012335Y001180D01*
X012335Y001280D01*
X012310Y001305D01*
X012260Y001305D01*
X012235Y001280D01*
X012235Y001180D01*
X012188Y001155D02*
X012088Y001155D01*
X012138Y001155D02*
X012138Y001305D01*
X012088Y001255D01*
X005173Y001471D02*
X005173Y001678D01*
X005173Y001766D02*
X004966Y001973D01*
X004914Y001973D01*
X004862Y001921D01*
X004862Y001817D01*
X004914Y001766D01*
X004862Y001574D02*
X005173Y001574D01*
X005173Y001766D02*
X005173Y001973D01*
X005069Y002060D02*
X004862Y002060D01*
X005069Y002060D02*
X005173Y002164D01*
X005069Y002267D01*
X004862Y002267D01*
X004914Y002596D02*
X004966Y002596D01*
X005017Y002648D01*
X005017Y002751D01*
X005069Y002803D01*
X005121Y002803D01*
X005173Y002751D01*
X005173Y002648D01*
X005121Y002596D01*
X004914Y002596D02*
X004862Y002648D01*
X004862Y002751D01*
X004914Y002803D01*
X004862Y002891D02*
X004862Y003046D01*
X004914Y003098D01*
X005121Y003098D01*
X005173Y003046D01*
X005173Y002891D01*
X004862Y002891D01*
X004966Y003185D02*
X004862Y003289D01*
X004966Y003392D01*
X005173Y003392D01*
X005017Y003392D02*
X005017Y003185D01*
X004966Y003185D02*
X005173Y003185D01*
X005121Y003641D02*
X005173Y003692D01*
X005173Y003796D01*
X005121Y003848D01*
X005017Y003848D01*
X004966Y003796D01*
X004966Y003744D01*
X005017Y003641D01*
X004862Y003641D01*
X004862Y003848D01*
X004862Y003935D02*
X005069Y003935D01*
X005173Y004039D01*
X005069Y004142D01*
X004862Y004142D01*
X002923Y004185D02*
X002923Y004340D01*
X002871Y004392D01*
X002664Y004392D01*
X002612Y004340D01*
X002612Y004185D01*
X002923Y004185D01*
X002923Y004098D02*
X002612Y004098D01*
X002612Y003891D02*
X002923Y004098D01*
X002923Y003891D02*
X002612Y003891D01*
X002664Y003803D02*
X002612Y003751D01*
X002612Y003648D01*
X002664Y003596D01*
X002871Y003596D01*
X002923Y003648D01*
X002923Y003751D01*
X002871Y003803D01*
X002767Y003803D01*
X002767Y003699D01*
X002923Y003017D02*
X002923Y002810D01*
X002612Y002810D01*
X002664Y002723D02*
X002612Y002671D01*
X002612Y002567D01*
X002664Y002516D01*
X002871Y002516D01*
X002923Y002567D01*
X002923Y002671D01*
X002871Y002723D01*
X002871Y002428D02*
X002923Y002376D01*
X002923Y002273D01*
X002871Y002221D01*
X002767Y002273D02*
X002767Y002376D01*
X002819Y002428D01*
X002871Y002428D01*
X002767Y002273D02*
X002716Y002221D01*
X002664Y002221D01*
X002612Y002273D01*
X002612Y002376D01*
X002664Y002428D01*
X004862Y001574D02*
X004966Y001471D01*
X004928Y014660D02*
X004825Y014660D01*
X004773Y014712D01*
X004773Y014815D02*
X004877Y014867D01*
X004928Y014867D01*
X004980Y014815D01*
X004980Y014712D01*
X004928Y014660D01*
X005068Y014763D02*
X005171Y014660D01*
X005275Y014763D01*
X005275Y014970D01*
X005068Y014970D02*
X005068Y014763D01*
X004980Y014970D02*
X004773Y014970D01*
X004773Y014815D01*
X004525Y014712D02*
X004473Y014660D01*
X004370Y014660D01*
X004318Y014712D01*
X004318Y014919D01*
X004370Y014970D01*
X004473Y014970D01*
X004525Y014919D01*
X004525Y014712D01*
X004230Y014970D02*
X004023Y014660D01*
X003930Y014660D02*
X003827Y014660D01*
X003878Y014660D02*
X003878Y014970D01*
X003827Y014970D02*
X003930Y014970D01*
X003650Y014970D02*
X003650Y014763D01*
X003546Y014660D01*
X003443Y014763D01*
X003443Y014970D01*
X003355Y014919D02*
X003303Y014970D01*
X003200Y014970D01*
X003148Y014919D01*
X002957Y014970D02*
X002957Y014660D01*
X002854Y014660D02*
X003060Y014660D01*
X003148Y014660D02*
X003355Y014867D01*
X003355Y014919D01*
X003355Y014660D02*
X003148Y014660D01*
X002854Y014867D02*
X002957Y014970D01*
X003604Y016910D02*
X003604Y017220D01*
X003759Y017220D01*
X003810Y017169D01*
X003810Y017065D01*
X003759Y017013D01*
X003604Y017013D01*
X003898Y016910D02*
X003898Y017220D01*
X004105Y017220D02*
X004105Y016910D01*
X004002Y017013D01*
X003898Y016910D01*
X004193Y016910D02*
X004193Y017220D01*
X004296Y017117D01*
X004400Y017220D01*
X004400Y016910D01*
X004729Y016962D02*
X004729Y017169D01*
X004780Y017220D01*
X004884Y017220D01*
X004935Y017169D01*
X005023Y017220D02*
X005023Y016910D01*
X004935Y016962D02*
X004935Y017065D01*
X004832Y017065D01*
X004935Y016962D02*
X004884Y016910D01*
X004780Y016910D01*
X004729Y016962D01*
X005023Y017220D02*
X005230Y016910D01*
X005230Y017220D01*
X005318Y017220D02*
X005473Y017220D01*
X005525Y017169D01*
X005525Y016962D01*
X005473Y016910D01*
X005318Y016910D01*
X005318Y017220D01*
D15*
X007483Y012405D03*
X007483Y011295D03*
X008733Y011295D03*
X008733Y012405D03*
X009983Y012405D03*
X009983Y011295D03*
X009483Y005405D03*
X008358Y005405D03*
X008358Y004295D03*
X009483Y004295D03*
X010608Y004295D03*
X011733Y004295D03*
X011733Y005405D03*
X010608Y005405D03*
X012858Y005405D03*
X013983Y005405D03*
X013983Y004295D03*
X012858Y004295D03*
X007233Y004295D03*
X007233Y005405D03*
D16*
X007156Y005745D02*
X007002Y005898D01*
X007463Y005898D01*
X007463Y005745D02*
X007463Y006052D01*
X007463Y006205D02*
X007002Y006205D01*
X007156Y006436D02*
X007309Y006205D01*
X007463Y006436D01*
X008127Y006205D02*
X008588Y006205D01*
X008588Y006052D02*
X008588Y005745D01*
X008588Y005898D02*
X008127Y005898D01*
X008281Y005745D01*
X008434Y006205D02*
X008281Y006436D01*
X008434Y006205D02*
X008588Y006436D01*
X009252Y006205D02*
X009713Y006205D01*
X009713Y006052D02*
X009713Y005745D01*
X009713Y005898D02*
X009252Y005898D01*
X009406Y005745D01*
X009559Y006205D02*
X009406Y006436D01*
X009559Y006205D02*
X009713Y006436D01*
X010377Y006205D02*
X010838Y006205D01*
X010838Y006052D02*
X010838Y005745D01*
X010838Y005898D02*
X010377Y005898D01*
X010531Y005745D01*
X010684Y006205D02*
X010531Y006436D01*
X010684Y006205D02*
X010838Y006436D01*
X011502Y006205D02*
X011963Y006205D01*
X011963Y006052D02*
X011963Y005745D01*
X011963Y005898D02*
X011502Y005898D01*
X011656Y005745D01*
X011809Y006205D02*
X011656Y006436D01*
X011809Y006205D02*
X011963Y006436D01*
X012627Y006205D02*
X013088Y006205D01*
X013088Y006052D02*
X013088Y005745D01*
X013088Y005898D02*
X012627Y005898D01*
X012781Y005745D01*
X012934Y006205D02*
X012781Y006436D01*
X012934Y006205D02*
X013088Y006436D01*
X013752Y006205D02*
X014213Y006205D01*
X014213Y006052D02*
X014213Y005745D01*
X014213Y005898D02*
X013752Y005898D01*
X013906Y005745D01*
X014059Y006205D02*
X013906Y006436D01*
X014059Y006205D02*
X014213Y006436D01*
X013910Y001757D02*
X013555Y001757D01*
X013555Y001443D02*
X013910Y001443D01*
X012623Y001435D02*
X012342Y001435D01*
X012342Y001770D02*
X012623Y001770D01*
X010963Y011370D02*
X010963Y011677D01*
X010963Y011830D02*
X010502Y011830D01*
X010656Y012061D02*
X010809Y011830D01*
X010963Y012061D01*
X010963Y011523D02*
X010502Y011523D01*
X010656Y011370D01*
X009713Y011370D02*
X009713Y011677D01*
X009713Y011830D02*
X009252Y011830D01*
X009406Y012061D02*
X009559Y011830D01*
X009713Y012061D01*
X009713Y011523D02*
X009252Y011523D01*
X009406Y011370D01*
X008463Y011370D02*
X008463Y011677D01*
X008463Y011830D02*
X008002Y011830D01*
X008156Y012061D02*
X008309Y011830D01*
X008463Y012061D01*
X008463Y011523D02*
X008002Y011523D01*
X008156Y011370D01*
D17*
X012251Y001602D03*
X012711Y001602D03*
D18*
X012483Y001600D03*
D19*
X013477Y001600D03*
X013988Y001600D03*
D20*
X013792Y001452D03*
X013792Y001748D03*
D21*
X013792Y001600D03*
M02*
