%
M48
M72
T01C0.0120
T02C0.0315
T03C0.0320
T04C0.0350
T05C0.0394
T06C0.0472
T07C0.0929
T08C0.0935
%
T01
X5403Y3410
X5583Y3710
X5463Y4670
X4383Y5450
X6723Y6890
X7383Y6710
X6483Y7730
X6003Y8210
X5703Y8270
X5643Y7850
X4743Y8270
X3903Y8090
X7143Y9590
X9483Y8690
X10803Y6710
X12603Y6050
X12663Y4850
X12663Y3710
X11883Y2750
X12423Y2450
X11643Y2090
X9843Y3050
X9483Y3410
X9183Y3410
X8823Y3290
X8883Y2990
X8103Y3650
X8943Y4730
X6363Y2750
X6003Y1910
X13563Y9230
X15063Y8510
X16143Y10010
X12003Y10790
X11643Y11270
X9723Y10790
X7083Y13430
X6783Y13070
X6903Y14330
X14223Y6050
X13923Y4850
X15903Y5270
X16623Y5270
X14043Y1250
T02
X16327Y2744
X16327Y3547
X16327Y4350
X17327Y3956
X17327Y3153
X17327Y2350
X4388Y2350
X4388Y3153
X4388Y3956
X3388Y4350
X3388Y3547
X3388Y2744
X3483Y15444
X4286Y15444
X5089Y15444
X5483Y16444
X4679Y16444
X3876Y16444
X9483Y15444
X10286Y15444
X11089Y15444
X11483Y16444
X10679Y16444
X9876Y16444
X15483Y15444
X16286Y15444
X17089Y15444
X17483Y16444
X16679Y16444
X15876Y16444
T03
X16733Y7850
X16733Y6850
X14983Y6850
X14983Y7850
X13233Y7850
X13233Y6850
X18483Y6850
X18483Y7850
T04
X15733Y10350
X13733Y9950
X13733Y10750
T05
X11233Y9931
X11233Y9244
X11233Y8556
X11233Y7869
X8233Y7869
X8233Y8556
X8233Y9244
X8233Y9931
T06
X18483Y10722
X18483Y12100
T07
X2483Y988
X2483Y5712
X2120Y17350
X6845Y17350
X8120Y17350
X12845Y17350
X14120Y17350
X18845Y17350
X18233Y5712
X18233Y988
T08
X15733Y9350
X14483Y9350
X14483Y11350
X15733Y11350
M30
