G75*
G70*
%OFA0B0*%
%FSLAX24Y24*%
%IPPOS*%
%LPD*%
%AMOC8*
5,1,8,0,0,1.08239X$1,22.5*
%
%ADD10C,0.0010*%
%ADD11C,0.0520*%
%ADD12R,0.0787X0.0630*%
%ADD13R,0.0630X0.0460*%
%ADD14R,0.0768X0.0591*%
%ADD15R,0.0630X0.0709*%
%ADD16C,0.0600*%
%ADD17C,0.0515*%
%ADD18C,0.0594*%
%ADD19C,0.0315*%
%ADD20C,0.0350*%
%ADD21C,0.0157*%
D10*
X028858Y009464D02*
X028858Y010264D01*
X029094Y010178D01*
X029338Y010116D01*
X029587Y010078D01*
X029838Y010064D01*
X029878Y010064D01*
X030129Y010078D01*
X030378Y010116D01*
X030622Y010178D01*
X030858Y010264D01*
X030858Y009464D01*
X028858Y009464D01*
X028858Y009471D02*
X030858Y009471D01*
X030858Y009479D02*
X028858Y009479D01*
X028858Y009488D02*
X030858Y009488D01*
X030858Y009496D02*
X028858Y009496D01*
X028858Y009505D02*
X030858Y009505D01*
X030858Y009513D02*
X028858Y009513D01*
X028858Y009522D02*
X030858Y009522D01*
X030858Y009530D02*
X028858Y009530D01*
X028858Y009539D02*
X030858Y009539D01*
X030858Y009547D02*
X028858Y009547D01*
X028858Y009556D02*
X030858Y009556D01*
X030858Y009564D02*
X028858Y009564D01*
X028858Y009573D02*
X030858Y009573D01*
X030858Y009581D02*
X028858Y009581D01*
X028858Y009590D02*
X030858Y009590D01*
X030858Y009598D02*
X028858Y009598D01*
X028858Y009607D02*
X030858Y009607D01*
X030858Y009615D02*
X028858Y009615D01*
X028858Y009624D02*
X030858Y009624D01*
X030858Y009632D02*
X028858Y009632D01*
X028858Y009641D02*
X030858Y009641D01*
X030858Y009649D02*
X028858Y009649D01*
X028858Y009658D02*
X030858Y009658D01*
X030858Y009666D02*
X028858Y009666D01*
X028858Y009675D02*
X030858Y009675D01*
X030858Y009683D02*
X028858Y009683D01*
X028858Y009692D02*
X030858Y009692D01*
X030858Y009700D02*
X028858Y009700D01*
X028858Y009709D02*
X030858Y009709D01*
X030858Y009717D02*
X028858Y009717D01*
X028858Y009726D02*
X030858Y009726D01*
X030858Y009734D02*
X028858Y009734D01*
X028858Y009743D02*
X030858Y009743D01*
X030858Y009751D02*
X028858Y009751D01*
X028858Y009760D02*
X030858Y009760D01*
X030858Y009768D02*
X028858Y009768D01*
X028858Y009777D02*
X030858Y009777D01*
X030858Y009785D02*
X028858Y009785D01*
X028858Y009794D02*
X030858Y009794D01*
X030858Y009802D02*
X028858Y009802D01*
X028858Y009811D02*
X030858Y009811D01*
X030858Y009819D02*
X028858Y009819D01*
X028858Y009828D02*
X030858Y009828D01*
X030858Y009836D02*
X028858Y009836D01*
X028858Y009845D02*
X030858Y009845D01*
X030858Y009853D02*
X028858Y009853D01*
X028858Y009862D02*
X030858Y009862D01*
X030858Y009870D02*
X028858Y009870D01*
X028858Y009879D02*
X030858Y009879D01*
X030858Y009887D02*
X028858Y009887D01*
X028858Y009896D02*
X030858Y009896D01*
X030858Y009904D02*
X028858Y009904D01*
X028858Y009913D02*
X030858Y009913D01*
X030858Y009921D02*
X028858Y009921D01*
X028858Y009930D02*
X030858Y009930D01*
X030858Y009938D02*
X028858Y009938D01*
X028858Y009947D02*
X030858Y009947D01*
X030858Y009955D02*
X028858Y009955D01*
X028858Y009964D02*
X030858Y009964D01*
X030858Y009972D02*
X028858Y009972D01*
X028858Y009981D02*
X030858Y009981D01*
X030858Y009989D02*
X028858Y009989D01*
X028858Y009998D02*
X030858Y009998D01*
X030858Y010006D02*
X028858Y010006D01*
X028858Y010015D02*
X030858Y010015D01*
X030858Y010023D02*
X028858Y010023D01*
X028858Y010032D02*
X030858Y010032D01*
X030858Y010040D02*
X028858Y010040D01*
X028858Y010049D02*
X030858Y010049D01*
X030858Y010057D02*
X028858Y010057D01*
X028858Y010066D02*
X029808Y010066D01*
X029908Y010066D02*
X030858Y010066D01*
X030858Y010074D02*
X030066Y010074D01*
X030162Y010083D02*
X030858Y010083D01*
X030858Y010091D02*
X030218Y010091D01*
X030273Y010100D02*
X030858Y010100D01*
X030858Y010108D02*
X030329Y010108D01*
X030382Y010117D02*
X030858Y010117D01*
X030858Y010125D02*
X030415Y010125D01*
X030448Y010134D02*
X030858Y010134D01*
X030858Y010142D02*
X030481Y010142D01*
X030514Y010151D02*
X030858Y010151D01*
X030858Y010159D02*
X030548Y010159D01*
X030581Y010168D02*
X030858Y010168D01*
X030858Y010176D02*
X030614Y010176D01*
X030640Y010185D02*
X030858Y010185D01*
X030858Y010193D02*
X030663Y010193D01*
X030686Y010202D02*
X030858Y010202D01*
X030858Y010210D02*
X030710Y010210D01*
X030733Y010219D02*
X030858Y010219D01*
X030858Y010227D02*
X030757Y010227D01*
X030780Y010236D02*
X030858Y010236D01*
X030858Y010244D02*
X030803Y010244D01*
X030827Y010253D02*
X030858Y010253D01*
X030858Y010261D02*
X030850Y010261D01*
X030753Y010482D02*
X028963Y010482D01*
X028984Y010474D02*
X030732Y010474D01*
X030710Y010465D02*
X029005Y010465D01*
X029027Y010457D02*
X030689Y010457D01*
X030668Y010448D02*
X029048Y010448D01*
X029069Y010440D02*
X030646Y010440D01*
X030625Y010431D02*
X029091Y010431D01*
X029097Y010429D02*
X028858Y010524D01*
X028858Y010744D01*
X029072Y010648D01*
X029295Y010576D01*
X029525Y010528D01*
X029758Y010504D01*
X029758Y010704D01*
X029958Y010704D01*
X029958Y010504D01*
X030191Y010528D01*
X030421Y010576D01*
X030644Y010648D01*
X030858Y010744D01*
X030858Y010524D01*
X030623Y010431D01*
X030380Y010362D01*
X030130Y010320D01*
X029878Y010304D01*
X029858Y010304D01*
X029600Y010318D01*
X029346Y010360D01*
X029097Y010429D01*
X029119Y010423D02*
X030595Y010423D01*
X030565Y010414D02*
X029149Y010414D01*
X029180Y010406D02*
X030535Y010406D01*
X030504Y010397D02*
X029211Y010397D01*
X029241Y010389D02*
X030474Y010389D01*
X030444Y010380D02*
X029272Y010380D01*
X029303Y010372D02*
X030413Y010372D01*
X030383Y010363D02*
X029333Y010363D01*
X029376Y010355D02*
X030335Y010355D01*
X030285Y010346D02*
X029428Y010346D01*
X029480Y010338D02*
X030235Y010338D01*
X030185Y010329D02*
X029532Y010329D01*
X029584Y010321D02*
X030134Y010321D01*
X030005Y010312D02*
X029710Y010312D01*
X029723Y010508D02*
X028899Y010508D01*
X028920Y010499D02*
X030796Y010499D01*
X030817Y010508D02*
X029992Y010508D01*
X029958Y010508D02*
X029758Y010508D01*
X029758Y010516D02*
X029958Y010516D01*
X029958Y010525D02*
X029758Y010525D01*
X029758Y010533D02*
X029958Y010533D01*
X029958Y010542D02*
X029758Y010542D01*
X029758Y010550D02*
X029958Y010550D01*
X029958Y010559D02*
X029758Y010559D01*
X029758Y010567D02*
X029958Y010567D01*
X029958Y010576D02*
X029758Y010576D01*
X029758Y010584D02*
X029958Y010584D01*
X029958Y010593D02*
X029758Y010593D01*
X029758Y010601D02*
X029958Y010601D01*
X029958Y010610D02*
X029758Y010610D01*
X029758Y010618D02*
X029958Y010618D01*
X029958Y010627D02*
X029758Y010627D01*
X029758Y010635D02*
X029958Y010635D01*
X029958Y010644D02*
X029758Y010644D01*
X029758Y010652D02*
X029958Y010652D01*
X029958Y010661D02*
X029758Y010661D01*
X029758Y010669D02*
X029958Y010669D01*
X029958Y010678D02*
X029758Y010678D01*
X029758Y010686D02*
X029958Y010686D01*
X029958Y010695D02*
X029758Y010695D01*
X029758Y010703D02*
X029958Y010703D01*
X030077Y010516D02*
X030839Y010516D01*
X030858Y010525D02*
X030161Y010525D01*
X030217Y010533D02*
X030858Y010533D01*
X030858Y010542D02*
X030258Y010542D01*
X030298Y010550D02*
X030858Y010550D01*
X030858Y010559D02*
X030339Y010559D01*
X030379Y010567D02*
X030858Y010567D01*
X030858Y010576D02*
X030420Y010576D01*
X030446Y010584D02*
X030858Y010584D01*
X030858Y010593D02*
X030472Y010593D01*
X030499Y010601D02*
X030858Y010601D01*
X030858Y010610D02*
X030525Y010610D01*
X030551Y010618D02*
X030858Y010618D01*
X030858Y010627D02*
X030577Y010627D01*
X030603Y010635D02*
X030858Y010635D01*
X030858Y010644D02*
X030630Y010644D01*
X030653Y010652D02*
X030858Y010652D01*
X030858Y010661D02*
X030672Y010661D01*
X030691Y010669D02*
X030858Y010669D01*
X030858Y010678D02*
X030710Y010678D01*
X030729Y010686D02*
X030858Y010686D01*
X030858Y010695D02*
X030748Y010695D01*
X030767Y010703D02*
X030858Y010703D01*
X030858Y010712D02*
X030786Y010712D01*
X030805Y010720D02*
X030858Y010720D01*
X030858Y010729D02*
X030824Y010729D01*
X030843Y010737D02*
X030858Y010737D01*
X030858Y010904D02*
X028858Y010904D01*
X028858Y011104D01*
X030858Y011104D01*
X030858Y010904D01*
X030858Y010907D02*
X028858Y010907D01*
X028858Y010916D02*
X030858Y010916D01*
X030858Y010924D02*
X028858Y010924D01*
X028858Y010933D02*
X030858Y010933D01*
X030858Y010941D02*
X028858Y010941D01*
X028858Y010950D02*
X030858Y010950D01*
X030858Y010958D02*
X028858Y010958D01*
X028858Y010967D02*
X030858Y010967D01*
X030858Y010975D02*
X028858Y010975D01*
X028858Y010984D02*
X030858Y010984D01*
X030858Y010992D02*
X028858Y010992D01*
X028858Y011001D02*
X030858Y011001D01*
X030858Y011009D02*
X028858Y011009D01*
X028858Y011018D02*
X030858Y011018D01*
X030858Y011026D02*
X028858Y011026D01*
X028858Y011035D02*
X030858Y011035D01*
X030858Y011043D02*
X028858Y011043D01*
X028858Y011052D02*
X030858Y011052D01*
X030858Y011060D02*
X028858Y011060D01*
X028858Y011069D02*
X030858Y011069D01*
X030858Y011077D02*
X028858Y011077D01*
X028858Y011086D02*
X030858Y011086D01*
X030858Y011094D02*
X028858Y011094D01*
X028858Y011103D02*
X030858Y011103D01*
X030858Y011604D02*
X029858Y011604D01*
X029600Y011618D01*
X029346Y011660D01*
X029097Y011729D01*
X028858Y011824D01*
X028858Y012044D01*
X029072Y011948D01*
X029295Y011876D01*
X029525Y011828D01*
X029758Y011804D01*
X029758Y012004D01*
X029958Y012004D01*
X029958Y011804D01*
X030858Y011804D01*
X030858Y011604D01*
X029858Y011604D01*
X029700Y011613D02*
X030858Y011613D01*
X030858Y011621D02*
X029581Y011621D01*
X029529Y011630D02*
X030858Y011630D01*
X030858Y011638D02*
X029477Y011638D01*
X029425Y011647D02*
X030858Y011647D01*
X030858Y011655D02*
X029373Y011655D01*
X029331Y011664D02*
X030858Y011664D01*
X030858Y011672D02*
X029301Y011672D01*
X029270Y011681D02*
X030858Y011681D01*
X030858Y011689D02*
X029239Y011689D01*
X029209Y011698D02*
X030858Y011698D01*
X030858Y011706D02*
X029178Y011706D01*
X029147Y011715D02*
X030858Y011715D01*
X030858Y011723D02*
X029117Y011723D01*
X029089Y011732D02*
X030858Y011732D01*
X030858Y011740D02*
X029068Y011740D01*
X029047Y011749D02*
X030858Y011749D01*
X030858Y011757D02*
X029025Y011757D01*
X029004Y011766D02*
X030858Y011766D01*
X030858Y011774D02*
X028983Y011774D01*
X028961Y011783D02*
X030858Y011783D01*
X030858Y011791D02*
X028940Y011791D01*
X028919Y011800D02*
X030858Y011800D01*
X030623Y012331D02*
X030380Y012262D01*
X030130Y012220D01*
X029878Y012204D01*
X028858Y012204D01*
X028858Y012404D01*
X029958Y012404D01*
X030191Y012428D01*
X030421Y012476D01*
X030644Y012548D01*
X030858Y012644D01*
X030858Y012424D01*
X030623Y012331D01*
X030635Y012335D02*
X028858Y012335D01*
X028858Y012327D02*
X030610Y012327D01*
X030579Y012318D02*
X028858Y012318D01*
X028858Y012310D02*
X030549Y012310D01*
X030519Y012301D02*
X028858Y012301D01*
X028858Y012293D02*
X030488Y012293D01*
X030458Y012284D02*
X028858Y012284D01*
X028858Y012276D02*
X030428Y012276D01*
X030397Y012267D02*
X028858Y012267D01*
X028858Y012259D02*
X030359Y012259D01*
X030309Y012250D02*
X028858Y012250D01*
X028858Y012242D02*
X030259Y012242D01*
X030209Y012233D02*
X028858Y012233D01*
X028858Y012225D02*
X030158Y012225D01*
X030070Y012216D02*
X028858Y012216D01*
X028858Y012208D02*
X029934Y012208D01*
X029958Y012004D02*
X029758Y012004D01*
X029758Y011995D02*
X029958Y011995D01*
X029958Y011987D02*
X029758Y011987D01*
X029758Y011978D02*
X029958Y011978D01*
X029958Y011970D02*
X029758Y011970D01*
X029758Y011961D02*
X029958Y011961D01*
X029958Y011953D02*
X029758Y011953D01*
X029758Y011944D02*
X029958Y011944D01*
X029958Y011936D02*
X029758Y011936D01*
X029758Y011927D02*
X029958Y011927D01*
X029958Y011919D02*
X029758Y011919D01*
X029758Y011910D02*
X029958Y011910D01*
X029958Y011902D02*
X029758Y011902D01*
X029758Y011893D02*
X029958Y011893D01*
X029958Y011885D02*
X029758Y011885D01*
X029758Y011876D02*
X029958Y011876D01*
X029958Y011868D02*
X029758Y011868D01*
X029758Y011859D02*
X029958Y011859D01*
X029958Y011851D02*
X029758Y011851D01*
X029758Y011842D02*
X029958Y011842D01*
X029958Y011834D02*
X029758Y011834D01*
X029758Y011825D02*
X029958Y011825D01*
X029958Y011817D02*
X029758Y011817D01*
X029758Y011808D02*
X029958Y011808D01*
X029718Y011808D02*
X028897Y011808D01*
X028876Y011817D02*
X029634Y011817D01*
X029549Y011825D02*
X028858Y011825D01*
X028858Y011834D02*
X029496Y011834D01*
X029456Y011842D02*
X028858Y011842D01*
X028858Y011851D02*
X029415Y011851D01*
X029375Y011859D02*
X028858Y011859D01*
X028858Y011868D02*
X029334Y011868D01*
X029294Y011876D02*
X028858Y011876D01*
X028858Y011885D02*
X029268Y011885D01*
X029242Y011893D02*
X028858Y011893D01*
X028858Y011902D02*
X029216Y011902D01*
X029189Y011910D02*
X028858Y011910D01*
X028858Y011919D02*
X029163Y011919D01*
X029137Y011927D02*
X028858Y011927D01*
X028858Y011936D02*
X029111Y011936D01*
X029085Y011944D02*
X028858Y011944D01*
X028858Y011953D02*
X029062Y011953D01*
X029043Y011961D02*
X028858Y011961D01*
X028858Y011970D02*
X029024Y011970D01*
X029005Y011978D02*
X028858Y011978D01*
X028858Y011987D02*
X028986Y011987D01*
X028967Y011995D02*
X028858Y011995D01*
X028858Y012004D02*
X028948Y012004D01*
X028929Y012012D02*
X028858Y012012D01*
X028858Y012021D02*
X028910Y012021D01*
X028891Y012029D02*
X028858Y012029D01*
X028858Y012038D02*
X028872Y012038D01*
X028858Y012344D02*
X030656Y012344D01*
X030678Y012352D02*
X028858Y012352D01*
X028858Y012361D02*
X030699Y012361D01*
X030721Y012369D02*
X028858Y012369D01*
X028858Y012378D02*
X030742Y012378D01*
X030763Y012386D02*
X028858Y012386D01*
X028858Y012395D02*
X030785Y012395D01*
X030806Y012403D02*
X028858Y012403D01*
X028858Y012644D02*
X028858Y013464D01*
X030858Y013464D01*
X030858Y012884D01*
X030625Y012782D01*
X030382Y012707D01*
X030132Y012661D01*
X029878Y012644D01*
X028858Y012644D01*
X028858Y012650D02*
X029964Y012650D01*
X030091Y012658D02*
X028858Y012658D01*
X028858Y012667D02*
X030163Y012667D01*
X030209Y012675D02*
X028858Y012675D01*
X028858Y012684D02*
X030255Y012684D01*
X030301Y012692D02*
X028858Y012692D01*
X028858Y012701D02*
X030347Y012701D01*
X030389Y012709D02*
X028858Y012709D01*
X028858Y012718D02*
X030416Y012718D01*
X030444Y012726D02*
X028858Y012726D01*
X028858Y012735D02*
X030472Y012735D01*
X030499Y012743D02*
X028858Y012743D01*
X028858Y012752D02*
X030527Y012752D01*
X030555Y012760D02*
X028858Y012760D01*
X028858Y012769D02*
X030582Y012769D01*
X030610Y012777D02*
X028858Y012777D01*
X028858Y012786D02*
X030634Y012786D01*
X030653Y012794D02*
X028858Y012794D01*
X028858Y012803D02*
X030673Y012803D01*
X030692Y012811D02*
X028858Y012811D01*
X028858Y012820D02*
X030711Y012820D01*
X030731Y012828D02*
X028858Y012828D01*
X028858Y012837D02*
X030750Y012837D01*
X030769Y012845D02*
X028858Y012845D01*
X028858Y012854D02*
X030789Y012854D01*
X030808Y012862D02*
X028858Y012862D01*
X028858Y012871D02*
X030827Y012871D01*
X030847Y012879D02*
X028858Y012879D01*
X028858Y012888D02*
X030858Y012888D01*
X030858Y012896D02*
X028858Y012896D01*
X028858Y012905D02*
X030858Y012905D01*
X030858Y012913D02*
X028858Y012913D01*
X028858Y012922D02*
X030858Y012922D01*
X030858Y012930D02*
X028858Y012930D01*
X028858Y012939D02*
X030858Y012939D01*
X030858Y012947D02*
X028858Y012947D01*
X028858Y012956D02*
X030858Y012956D01*
X030858Y012964D02*
X028858Y012964D01*
X028858Y012973D02*
X030858Y012973D01*
X030858Y012981D02*
X028858Y012981D01*
X028858Y012990D02*
X030858Y012990D01*
X030858Y012998D02*
X028858Y012998D01*
X028858Y013007D02*
X030858Y013007D01*
X030858Y013015D02*
X028858Y013015D01*
X028858Y013024D02*
X030858Y013024D01*
X030858Y013032D02*
X028858Y013032D01*
X028858Y013041D02*
X030858Y013041D01*
X030858Y013049D02*
X028858Y013049D01*
X028858Y013058D02*
X030858Y013058D01*
X030858Y013066D02*
X028858Y013066D01*
X028858Y013075D02*
X030858Y013075D01*
X030858Y013083D02*
X028858Y013083D01*
X028858Y013092D02*
X030858Y013092D01*
X030858Y013100D02*
X028858Y013100D01*
X028858Y013109D02*
X030858Y013109D01*
X030858Y013117D02*
X028858Y013117D01*
X028858Y013126D02*
X030858Y013126D01*
X030858Y013134D02*
X028858Y013134D01*
X028858Y013143D02*
X030858Y013143D01*
X030858Y013151D02*
X028858Y013151D01*
X028858Y013160D02*
X030858Y013160D01*
X030858Y013168D02*
X028858Y013168D01*
X028858Y013177D02*
X030858Y013177D01*
X030858Y013185D02*
X028858Y013185D01*
X028858Y013194D02*
X030858Y013194D01*
X030858Y013202D02*
X028858Y013202D01*
X028858Y013211D02*
X030858Y013211D01*
X030858Y013219D02*
X028858Y013219D01*
X028858Y013228D02*
X030858Y013228D01*
X030858Y013236D02*
X028858Y013236D01*
X028858Y013245D02*
X030858Y013245D01*
X030858Y013253D02*
X028858Y013253D01*
X028858Y013262D02*
X030858Y013262D01*
X030858Y013270D02*
X028858Y013270D01*
X028858Y013279D02*
X030858Y013279D01*
X030858Y013287D02*
X028858Y013287D01*
X028858Y013296D02*
X030858Y013296D01*
X030858Y013304D02*
X028858Y013304D01*
X028858Y013313D02*
X030858Y013313D01*
X030858Y013321D02*
X028858Y013321D01*
X028858Y013330D02*
X030858Y013330D01*
X030858Y013338D02*
X028858Y013338D01*
X028858Y013347D02*
X030858Y013347D01*
X030858Y013355D02*
X028858Y013355D01*
X028858Y013364D02*
X030858Y013364D01*
X030858Y013372D02*
X028858Y013372D01*
X028858Y013381D02*
X030858Y013381D01*
X030858Y013389D02*
X028858Y013389D01*
X028858Y013398D02*
X030858Y013398D01*
X030858Y013406D02*
X028858Y013406D01*
X028858Y013415D02*
X030858Y013415D01*
X030858Y013423D02*
X028858Y013423D01*
X028858Y013432D02*
X030858Y013432D01*
X030858Y013440D02*
X028858Y013440D01*
X028858Y013449D02*
X030858Y013449D01*
X030858Y013457D02*
X028858Y013457D01*
X030033Y012412D02*
X030827Y012412D01*
X030849Y012420D02*
X030117Y012420D01*
X030196Y012429D02*
X030858Y012429D01*
X030858Y012437D02*
X030237Y012437D01*
X030277Y012446D02*
X030858Y012446D01*
X030858Y012454D02*
X030317Y012454D01*
X030358Y012463D02*
X030858Y012463D01*
X030858Y012471D02*
X030398Y012471D01*
X030432Y012480D02*
X030858Y012480D01*
X030858Y012488D02*
X030459Y012488D01*
X030485Y012497D02*
X030858Y012497D01*
X030858Y012505D02*
X030511Y012505D01*
X030537Y012514D02*
X030858Y012514D01*
X030858Y012522D02*
X030563Y012522D01*
X030590Y012531D02*
X030858Y012531D01*
X030858Y012539D02*
X030616Y012539D01*
X030642Y012548D02*
X030858Y012548D01*
X030858Y012556D02*
X030662Y012556D01*
X030681Y012565D02*
X030858Y012565D01*
X030858Y012573D02*
X030700Y012573D01*
X030719Y012582D02*
X030858Y012582D01*
X030858Y012590D02*
X030738Y012590D01*
X030757Y012599D02*
X030858Y012599D01*
X030858Y012607D02*
X030776Y012607D01*
X030795Y012616D02*
X030858Y012616D01*
X030858Y012624D02*
X030814Y012624D01*
X030833Y012633D02*
X030858Y012633D01*
X030858Y012641D02*
X030852Y012641D01*
X029858Y011344D02*
X029858Y011214D01*
X029788Y011214D01*
X029691Y011261D01*
X029590Y011295D01*
X029485Y011316D01*
X029378Y011324D01*
X029338Y011324D01*
X029228Y011315D01*
X029120Y011292D01*
X029016Y011255D01*
X028918Y011204D01*
X028858Y011204D01*
X028858Y011344D01*
X028975Y011404D01*
X029099Y011447D01*
X029227Y011474D01*
X029358Y011484D01*
X029489Y011474D01*
X029617Y011447D01*
X029741Y011404D01*
X029858Y011344D01*
X029858Y011341D02*
X028858Y011341D01*
X028858Y011332D02*
X029858Y011332D01*
X029858Y011324D02*
X029381Y011324D01*
X029335Y011324D02*
X028858Y011324D01*
X028858Y011315D02*
X029230Y011315D01*
X029189Y011307D02*
X028858Y011307D01*
X028858Y011298D02*
X029149Y011298D01*
X029114Y011290D02*
X028858Y011290D01*
X028858Y011281D02*
X029090Y011281D01*
X029066Y011273D02*
X028858Y011273D01*
X028858Y011264D02*
X029043Y011264D01*
X029019Y011256D02*
X028858Y011256D01*
X028858Y011247D02*
X029001Y011247D01*
X028985Y011239D02*
X028858Y011239D01*
X028858Y011230D02*
X028968Y011230D01*
X028952Y011222D02*
X028858Y011222D01*
X028858Y011213D02*
X028935Y011213D01*
X028919Y011205D02*
X028858Y011205D01*
X028868Y011349D02*
X029848Y011349D01*
X029831Y011358D02*
X028885Y011358D01*
X028902Y011366D02*
X029814Y011366D01*
X029797Y011375D02*
X028918Y011375D01*
X028935Y011383D02*
X029781Y011383D01*
X029764Y011392D02*
X028952Y011392D01*
X028969Y011400D02*
X029747Y011400D01*
X029726Y011409D02*
X028990Y011409D01*
X029014Y011417D02*
X029702Y011417D01*
X029678Y011426D02*
X029038Y011426D01*
X029062Y011434D02*
X029654Y011434D01*
X029630Y011443D02*
X029086Y011443D01*
X029118Y011451D02*
X029598Y011451D01*
X029557Y011460D02*
X029159Y011460D01*
X029199Y011468D02*
X029517Y011468D01*
X029455Y011477D02*
X029261Y011477D01*
X029491Y011315D02*
X029858Y011315D01*
X029858Y011307D02*
X029533Y011307D01*
X029575Y011298D02*
X029858Y011298D01*
X029858Y011290D02*
X029606Y011290D01*
X029632Y011281D02*
X029858Y011281D01*
X029858Y011273D02*
X029657Y011273D01*
X029682Y011264D02*
X029858Y011264D01*
X029858Y011256D02*
X029702Y011256D01*
X029720Y011247D02*
X029858Y011247D01*
X029858Y011239D02*
X029737Y011239D01*
X029755Y011230D02*
X029858Y011230D01*
X029858Y011222D02*
X029772Y011222D01*
X029639Y010516D02*
X028877Y010516D01*
X028858Y010525D02*
X029555Y010525D01*
X029499Y010533D02*
X028858Y010533D01*
X028858Y010542D02*
X029458Y010542D01*
X029418Y010550D02*
X028858Y010550D01*
X028858Y010559D02*
X029377Y010559D01*
X029337Y010567D02*
X028858Y010567D01*
X028858Y010576D02*
X029296Y010576D01*
X029270Y010584D02*
X028858Y010584D01*
X028858Y010593D02*
X029243Y010593D01*
X029217Y010601D02*
X028858Y010601D01*
X028858Y010610D02*
X029191Y010610D01*
X029165Y010618D02*
X028858Y010618D01*
X028858Y010627D02*
X029139Y010627D01*
X029112Y010635D02*
X028858Y010635D01*
X028858Y010644D02*
X029086Y010644D01*
X029063Y010652D02*
X028858Y010652D01*
X028858Y010661D02*
X029044Y010661D01*
X029025Y010669D02*
X028858Y010669D01*
X028858Y010678D02*
X029006Y010678D01*
X028987Y010686D02*
X028858Y010686D01*
X028858Y010695D02*
X028968Y010695D01*
X028949Y010703D02*
X028858Y010703D01*
X028858Y010712D02*
X028930Y010712D01*
X028911Y010720D02*
X028858Y010720D01*
X028858Y010729D02*
X028892Y010729D01*
X028873Y010737D02*
X028858Y010737D01*
X028941Y010491D02*
X030774Y010491D01*
X029650Y010074D02*
X028858Y010074D01*
X028858Y010083D02*
X029554Y010083D01*
X029498Y010091D02*
X028858Y010091D01*
X028858Y010100D02*
X029443Y010100D01*
X029387Y010108D02*
X028858Y010108D01*
X028858Y010117D02*
X029334Y010117D01*
X029301Y010125D02*
X028858Y010125D01*
X028858Y010134D02*
X029268Y010134D01*
X029235Y010142D02*
X028858Y010142D01*
X028858Y010151D02*
X029201Y010151D01*
X029168Y010159D02*
X028858Y010159D01*
X028858Y010168D02*
X029135Y010168D01*
X029102Y010176D02*
X028858Y010176D01*
X028858Y010185D02*
X029076Y010185D01*
X029053Y010193D02*
X028858Y010193D01*
X028858Y010202D02*
X029029Y010202D01*
X029006Y010210D02*
X028858Y010210D01*
X028858Y010219D02*
X028983Y010219D01*
X028959Y010227D02*
X028858Y010227D01*
X028858Y010236D02*
X028936Y010236D01*
X028913Y010244D02*
X028858Y010244D01*
X028858Y010253D02*
X028889Y010253D01*
X028866Y010261D02*
X028858Y010261D01*
D11*
X027358Y010283D02*
X026838Y010283D01*
X026838Y011283D02*
X027358Y011283D01*
X027358Y012283D02*
X026838Y012283D01*
X025148Y012473D02*
X025148Y012993D01*
X024148Y012993D02*
X024148Y012473D01*
X023148Y012473D02*
X023148Y012993D01*
X022148Y012993D02*
X022148Y012473D01*
X021148Y012473D02*
X021148Y012993D01*
X020148Y012993D02*
X020148Y012473D01*
X019148Y012473D02*
X019148Y012993D01*
X018148Y012993D02*
X018148Y012473D01*
X017148Y012473D02*
X017148Y012993D01*
X017148Y009993D02*
X017148Y009473D01*
X018148Y009473D02*
X018148Y009993D01*
X019148Y009993D02*
X019148Y009473D01*
X020148Y009473D02*
X020148Y009993D01*
X021148Y009993D02*
X021148Y009473D01*
X022148Y009473D02*
X022148Y009993D01*
X023148Y009993D02*
X023148Y009473D01*
X024148Y009473D02*
X024148Y009993D01*
X025148Y009993D02*
X025148Y009473D01*
D12*
X024598Y014681D03*
X023098Y014681D03*
X021598Y014681D03*
X020148Y014681D03*
X020148Y015784D03*
X021598Y015784D03*
X023098Y015784D03*
X024598Y015784D03*
X026098Y015784D03*
X027598Y015784D03*
X027598Y014681D03*
X026098Y014681D03*
D13*
X018598Y015433D03*
X018598Y016033D03*
X017098Y016033D03*
X017098Y015433D03*
X015598Y015433D03*
X015598Y016033D03*
D14*
X014489Y009283D03*
X013407Y009283D03*
D15*
X013447Y010683D03*
X014549Y010683D03*
D16*
X014698Y007453D02*
X014698Y006853D01*
X013698Y006853D02*
X013698Y007453D01*
X015698Y007453D02*
X015698Y006853D01*
X016698Y006853D02*
X016698Y007453D01*
X017698Y007453D02*
X017698Y006853D01*
X018698Y006853D02*
X018698Y007453D01*
X019698Y007453D02*
X019698Y006853D01*
X020698Y006853D02*
X020698Y007453D01*
X021698Y007453D02*
X021698Y006853D01*
X022698Y006853D02*
X022698Y007453D01*
X023698Y007453D02*
X023698Y006853D01*
X024698Y006853D02*
X024698Y007453D01*
X025698Y007453D02*
X025698Y006853D01*
X026698Y006853D02*
X026698Y007453D01*
X027698Y007453D02*
X027698Y006853D01*
X028698Y006853D02*
X028698Y007453D01*
X027898Y004733D02*
X027298Y004733D01*
X029598Y004033D02*
X029598Y003433D01*
X027898Y002733D02*
X027298Y002733D01*
D17*
X023098Y004388D03*
X022295Y004388D03*
X021492Y004388D03*
X021098Y003388D03*
X021901Y003388D03*
X022704Y003388D03*
X016098Y004388D03*
X015295Y004388D03*
X014492Y004388D03*
X014098Y003388D03*
X014901Y003388D03*
X015704Y003388D03*
D18*
X013645Y013233D02*
X013051Y013233D01*
X013051Y014233D02*
X013645Y014233D01*
X013645Y015233D02*
X013051Y015233D01*
X013051Y016233D02*
X013645Y016233D01*
D19*
X014848Y015983D02*
X014848Y012233D01*
X014598Y011983D01*
X014598Y010733D01*
X014549Y010683D01*
X014598Y010483D01*
X014598Y009483D01*
X014489Y009283D01*
X014598Y009233D01*
X014598Y007233D01*
X014698Y007153D01*
X014598Y006983D01*
X014598Y004483D01*
X014492Y004388D01*
X014098Y003388D02*
X014098Y002733D01*
X015598Y001233D01*
X021098Y001233D01*
X021098Y003388D01*
X021848Y003233D02*
X021901Y003388D01*
X021848Y003233D02*
X021848Y001483D01*
X020098Y003983D02*
X021098Y004983D01*
X021098Y005733D01*
X021348Y005983D01*
X023098Y005983D01*
X023098Y004388D01*
X021598Y004483D02*
X021492Y004388D01*
X021598Y004483D02*
X021598Y005483D01*
X025848Y009233D02*
X025348Y009733D01*
X025148Y009733D01*
X025848Y009233D02*
X025848Y013733D01*
X025348Y014233D01*
X025348Y015733D01*
X024598Y015733D01*
X024598Y015784D01*
X025348Y015733D02*
X026098Y015733D01*
X026098Y015784D01*
X023098Y015733D02*
X023098Y015784D01*
X023098Y015733D02*
X021598Y015733D01*
X021598Y015784D01*
X021598Y015733D02*
X020848Y015733D01*
X020848Y014233D01*
X020098Y013483D02*
X019348Y014233D01*
X019348Y015733D01*
X019098Y015983D01*
X018598Y015983D01*
X018598Y016033D01*
X018598Y015983D02*
X017098Y015983D01*
X017098Y016033D01*
X017098Y015983D02*
X015598Y015983D01*
X015598Y016033D01*
X015598Y015983D02*
X014848Y015983D01*
X013348Y014233D02*
X013098Y013983D01*
X012848Y013983D01*
X012348Y013483D01*
X012348Y012733D01*
X013348Y011733D01*
X013348Y010733D01*
X013447Y010683D01*
X013348Y010483D01*
X013348Y009483D01*
X013407Y009283D01*
X014598Y011983D02*
X013348Y013233D01*
X020098Y013483D02*
X020098Y012733D01*
X020148Y012733D01*
X020348Y015733D02*
X020148Y015784D01*
X020348Y015733D02*
X020848Y015733D01*
X027098Y012283D02*
X027098Y012233D01*
X027348Y012233D01*
X028348Y011233D01*
X028348Y008733D01*
X028598Y008483D01*
X028598Y007233D01*
X028698Y007153D01*
X028598Y006983D01*
X028598Y004483D01*
X027598Y003483D01*
X027598Y002733D01*
X027598Y004733D02*
X027598Y006983D01*
X027698Y007153D01*
X027598Y007233D01*
X027598Y007483D01*
X025848Y009233D01*
D20*
X011598Y005483D03*
X015098Y005483D03*
X020098Y003983D03*
X021598Y005483D03*
X026598Y003733D03*
X021848Y001483D03*
X027348Y008483D03*
X026348Y011983D03*
X028348Y011983D03*
X026848Y014983D03*
X022348Y014733D03*
X020848Y014233D03*
X018598Y014733D03*
X015598Y013733D03*
X018098Y011483D03*
X015598Y010983D03*
D21*
X015598Y007233D01*
X015698Y007153D01*
X015098Y005483D02*
X015098Y004483D01*
X015295Y004388D01*
X011598Y005483D02*
X011598Y013983D01*
X012848Y015233D01*
X013348Y015233D01*
X015598Y015433D02*
X015598Y013733D01*
X017098Y015233D02*
X017098Y015433D01*
X017098Y015233D02*
X018598Y013733D01*
X019348Y013733D01*
X019598Y013483D01*
X019598Y012233D01*
X020098Y011733D01*
X022098Y011733D01*
X022098Y012733D01*
X022148Y012733D01*
X022098Y012733D02*
X022098Y013483D01*
X021848Y013733D01*
X021848Y014233D01*
X021598Y014483D01*
X021598Y014681D01*
X022348Y014733D02*
X023098Y014733D01*
X023098Y014681D01*
X023098Y012733D01*
X023148Y012733D01*
X024098Y012733D02*
X024148Y012733D01*
X024098Y012733D02*
X024098Y013483D01*
X024348Y013733D01*
X024348Y014233D01*
X024598Y014483D01*
X024598Y014681D01*
X023848Y013733D02*
X023598Y013483D01*
X023598Y011483D01*
X024098Y010983D01*
X024098Y009733D01*
X024148Y009733D01*
X023598Y008233D02*
X022598Y009233D01*
X022598Y011233D01*
X019848Y011233D01*
X019098Y010483D01*
X019098Y009733D01*
X019148Y009733D01*
X020098Y009733D02*
X020148Y009733D01*
X020098Y009733D02*
X020098Y008733D01*
X018848Y007483D01*
X018848Y007233D01*
X018698Y007153D01*
X018148Y009733D02*
X018098Y009733D01*
X018098Y011483D01*
X020348Y013733D02*
X021098Y012983D01*
X021098Y012733D01*
X021148Y012733D01*
X020348Y013733D02*
X020348Y014483D01*
X020148Y014681D01*
X018598Y014733D02*
X018598Y015433D01*
X023848Y013733D02*
X023848Y017233D01*
X026348Y017233D01*
X027598Y015983D01*
X027598Y015784D01*
X026848Y014983D02*
X026598Y014733D01*
X026098Y014733D01*
X026098Y014681D01*
X026098Y013983D01*
X026348Y013733D01*
X026348Y011983D01*
X028348Y011983D02*
X028348Y014733D01*
X027598Y014733D01*
X027598Y014681D01*
X027098Y010283D02*
X027098Y008733D01*
X027348Y008483D01*
X026698Y007153D02*
X026598Y006983D01*
X026598Y003733D01*
X023698Y007153D02*
X023598Y007233D01*
X023598Y008233D01*
M02*
