G75*
G70*
%OFA0B0*%
%FSLAX24Y24*%
%IPPOS*%
%LPD*%
%AMOC8*
5,1,8,0,0,1.08239X$1,22.5*
%
%ADD10C,0.0520*%
%ADD11C,0.0600*%
%ADD12C,0.0515*%
%ADD13C,0.0594*%
%ADD14C,0.0315*%
%ADD15C,0.0350*%
%ADD16C,0.0157*%
D10*
X017148Y009473D02*
X017148Y009993D01*
X018148Y009993D02*
X018148Y009473D01*
X019148Y009473D02*
X019148Y009993D01*
X020148Y009993D02*
X020148Y009473D01*
X021148Y009473D02*
X021148Y009993D01*
X022148Y009993D02*
X022148Y009473D01*
X023148Y009473D02*
X023148Y009993D01*
X024148Y009993D02*
X024148Y009473D01*
X025148Y009473D02*
X025148Y009993D01*
X026838Y010283D02*
X027358Y010283D01*
X027358Y011283D02*
X026838Y011283D01*
X026838Y012283D02*
X027358Y012283D01*
X025148Y012473D02*
X025148Y012993D01*
X024148Y012993D02*
X024148Y012473D01*
X023148Y012473D02*
X023148Y012993D01*
X022148Y012993D02*
X022148Y012473D01*
X021148Y012473D02*
X021148Y012993D01*
X020148Y012993D02*
X020148Y012473D01*
X019148Y012473D02*
X019148Y012993D01*
X018148Y012993D02*
X018148Y012473D01*
X017148Y012473D02*
X017148Y012993D01*
D11*
X016698Y007453D02*
X016698Y006853D01*
X015698Y006853D02*
X015698Y007453D01*
X014698Y007453D02*
X014698Y006853D01*
X013698Y006853D02*
X013698Y007453D01*
X017698Y007453D02*
X017698Y006853D01*
X018698Y006853D02*
X018698Y007453D01*
X019698Y007453D02*
X019698Y006853D01*
X020698Y006853D02*
X020698Y007453D01*
X021698Y007453D02*
X021698Y006853D01*
X022698Y006853D02*
X022698Y007453D01*
X023698Y007453D02*
X023698Y006853D01*
X024698Y006853D02*
X024698Y007453D01*
X025698Y007453D02*
X025698Y006853D01*
X026698Y006853D02*
X026698Y007453D01*
X027698Y007453D02*
X027698Y006853D01*
X028698Y006853D02*
X028698Y007453D01*
X027898Y004733D02*
X027298Y004733D01*
X029598Y004033D02*
X029598Y003433D01*
X027898Y002733D02*
X027298Y002733D01*
D12*
X023098Y004388D03*
X022295Y004388D03*
X021492Y004388D03*
X021098Y003388D03*
X021901Y003388D03*
X022704Y003388D03*
X016098Y004388D03*
X015295Y004388D03*
X014492Y004388D03*
X014098Y003388D03*
X014901Y003388D03*
X015704Y003388D03*
D13*
X013645Y013233D02*
X013051Y013233D01*
X013051Y014233D02*
X013645Y014233D01*
X013645Y015233D02*
X013051Y015233D01*
X013051Y016233D02*
X013645Y016233D01*
D14*
X013348Y014233D02*
X014348Y014233D01*
X020848Y014233D01*
X021348Y013733D01*
X025348Y013733D01*
X026848Y012233D01*
X027098Y012233D01*
X027098Y012283D01*
X028698Y007153D02*
X028848Y006983D01*
X028098Y006233D01*
X024848Y006233D01*
X024848Y006983D01*
X024698Y007153D01*
X022098Y004983D02*
X021598Y005483D01*
X015848Y005483D01*
X015348Y004983D01*
X014848Y004983D01*
X014348Y004483D01*
X014492Y004388D01*
X014901Y003388D02*
X015098Y003233D01*
X015098Y001233D01*
X021848Y001233D01*
X021848Y001483D01*
X021848Y001233D02*
X025348Y001233D01*
X026848Y002733D01*
X027598Y002733D01*
X027598Y004733D02*
X026098Y004733D01*
X025848Y004983D01*
X022098Y004983D01*
X020098Y003983D02*
X016848Y003983D01*
X016598Y004233D01*
X016098Y004233D01*
X016098Y004388D01*
X015848Y012733D02*
X014348Y014233D01*
X015848Y012733D02*
X017148Y012733D01*
D15*
X011598Y005483D03*
X015098Y005483D03*
X020098Y003983D03*
X021598Y005483D03*
X026598Y003733D03*
X021848Y001483D03*
X027348Y008483D03*
X026348Y011983D03*
X028348Y011983D03*
X026848Y014983D03*
X022348Y014733D03*
X020848Y014233D03*
X018598Y014733D03*
X015598Y013733D03*
X018098Y011483D03*
X015598Y010983D03*
D16*
X021348Y010983D01*
X021598Y010733D01*
X022098Y010733D01*
X023098Y009733D01*
X023148Y009733D01*
X022148Y009733D02*
X022098Y009733D01*
X021348Y010483D01*
X019848Y010483D01*
X019598Y010233D01*
X019598Y008733D01*
X018598Y008733D01*
X018098Y008233D01*
X017598Y008233D01*
X017098Y007733D01*
X017098Y007233D01*
X016848Y007233D01*
X016698Y007153D01*
X017698Y007153D02*
X017848Y007233D01*
X018098Y007233D01*
X018098Y007733D01*
X018598Y008233D01*
X019598Y008233D01*
X021098Y009733D01*
X021148Y009733D01*
X022598Y010733D02*
X025098Y010733D01*
X026098Y009733D01*
X026098Y007233D01*
X025848Y007233D01*
X025698Y007153D01*
X027348Y008483D02*
X028348Y008483D01*
X029348Y007483D01*
X029348Y005983D01*
X028348Y005983D01*
X028098Y005733D01*
X022098Y005733D01*
X021848Y005983D01*
X014348Y005983D01*
X013598Y006733D01*
X013598Y006983D01*
X013698Y007153D01*
X015098Y005483D02*
X011598Y005483D01*
X015295Y004388D02*
X015348Y004483D01*
X015848Y004983D01*
X016348Y004983D01*
X016848Y004483D01*
X020848Y004483D01*
X021348Y004983D01*
X021598Y004983D01*
X022098Y004483D01*
X022295Y004388D01*
X022848Y003483D02*
X022704Y003388D01*
X022598Y003233D01*
X022098Y002733D01*
X021098Y002733D01*
X020348Y003483D01*
X015848Y003483D01*
X015704Y003388D01*
X022848Y003483D02*
X025348Y003483D01*
X026098Y004233D01*
X028098Y004233D01*
X029848Y005983D01*
X029848Y008983D01*
X027348Y008983D01*
X026098Y010233D01*
X026098Y011983D01*
X026348Y011983D01*
X026348Y012233D01*
X025848Y012733D01*
X025148Y012733D01*
X024348Y012733D02*
X024148Y012733D01*
X024348Y012733D02*
X023348Y011733D01*
X021598Y011733D01*
X021348Y011983D01*
X016848Y011983D01*
X016598Y012233D01*
X015848Y012233D01*
X014348Y013733D01*
X012348Y013733D01*
X012348Y014983D01*
X012598Y015233D01*
X013348Y015233D01*
X013348Y016233D02*
X017598Y016233D01*
X018598Y015233D01*
X026598Y015233D01*
X026848Y014983D01*
X022348Y014733D02*
X018598Y014733D01*
X020848Y013733D02*
X021098Y013483D01*
X021098Y012733D01*
X021148Y012733D01*
X020848Y013733D02*
X015598Y013733D01*
X018098Y011483D02*
X021348Y011483D01*
X021598Y011233D01*
X022098Y011233D01*
X022598Y010733D01*
X027098Y011233D02*
X027098Y011283D01*
X027098Y011233D02*
X028348Y011233D01*
X028348Y011983D01*
X029598Y003733D02*
X026598Y003733D01*
M02*
