%
M48
M72
T01C0.0120
T02C0.0315
T03C0.0354
T04C0.0669
T05C0.0787
T06C0.0866
T07C0.0929
%
T01
X14420Y6020
X15460Y6100
X11620Y8500
X12100Y9620
X6020Y9540
X20420Y8500
X21460Y10020
X26020Y10340
X21780Y5700
X21780Y5300
T02
X21600Y12694
X22403Y12694
X23206Y12694
X23600Y13694
X22797Y13694
X21994Y13694
X17600Y13694
X16797Y13694
X15994Y13694
X15600Y12694
X16403Y12694
X17206Y12694
X11600Y13694
X10797Y13694
X9994Y13694
X9600Y12694
X10403Y12694
X11206Y12694
X5100Y13694
X4297Y13694
X3494Y13694
X3100Y12694
X3903Y12694
X4706Y12694
X27600Y12694
X28403Y12694
X29206Y12694
X29600Y13694
X28797Y13694
X27994Y13694
T03
X9494Y7387
X8706Y7387
X8706Y6600
X9494Y6600
X9494Y5813
X8706Y5813
T04
X1754Y6584
X1754Y4616
T05
X3131Y4616
X4569Y4537
X4569Y6663
X3131Y6584
X966Y5600
X5100Y2529
X5100Y8671
T06
X1754Y2529
X1754Y8671
T07
X1738Y14600
X6462Y14600
X8238Y14600
X12962Y14600
X14238Y14600
X18962Y14600
X20238Y14600
X24962Y14600
X26238Y14600
X30962Y14600
M30
