G75*
G70*
%OFA0B0*%
%FSLAX24Y24*%
%IPPOS*%
%LPD*%
%AMOC8*
5,1,8,0,0,1.08239X$1,22.5*
%
%ADD10C,0.0080*%
%ADD11C,0.0010*%
%ADD12C,0.0040*%
%ADD13R,0.0193X0.0598*%
%ADD14C,0.0050*%
%ADD15R,0.0669X0.0295*%
%ADD16R,0.0197X0.0197*%
D10*
X008943Y005478D02*
X008955Y005499D01*
X008970Y005518D01*
X008987Y005536D01*
X009007Y005550D01*
X009029Y005562D01*
X009052Y005570D01*
X009076Y005575D01*
X009100Y005577D01*
X009124Y005575D01*
X009148Y005570D01*
X009171Y005562D01*
X009193Y005550D01*
X009213Y005536D01*
X009230Y005518D01*
X009245Y005499D01*
X009257Y005478D01*
X009848Y005478D01*
X009848Y007722D01*
X009257Y007722D01*
X009245Y007701D01*
X009230Y007682D01*
X009213Y007664D01*
X009193Y007650D01*
X009171Y007638D01*
X009148Y007630D01*
X009124Y007625D01*
X009100Y007623D01*
X009076Y007625D01*
X009052Y007630D01*
X009029Y007638D01*
X009007Y007650D01*
X008987Y007664D01*
X008970Y007682D01*
X008955Y007701D01*
X008943Y007722D01*
X008352Y007722D01*
X008352Y005478D01*
X008943Y005478D01*
X012655Y006706D02*
X013206Y006706D01*
X013482Y006864D02*
X013718Y007100D01*
X013482Y007336D01*
X013482Y006864D01*
X013718Y006824D02*
X013718Y007100D01*
X013718Y007376D01*
X013994Y007494D02*
X014545Y007494D01*
X014545Y006706D01*
X013994Y006706D01*
X013206Y007494D02*
X012655Y007494D01*
X012655Y006706D01*
X016057Y006057D02*
X021143Y006057D01*
X021143Y003340D01*
X021143Y003143D01*
X016057Y003143D01*
X016057Y003340D01*
X021143Y003340D01*
X016057Y003340D02*
X016057Y006057D01*
X014110Y011078D02*
X019090Y011078D01*
X019090Y014305D01*
X019090Y014895D01*
X019090Y016943D01*
X014110Y016943D01*
X014110Y014895D01*
X014110Y011078D01*
X013090Y011078D02*
X013090Y014305D01*
X013090Y014895D01*
X013090Y016943D01*
X008110Y016943D01*
X008110Y014895D01*
X008110Y011078D01*
X013090Y011078D01*
X013090Y014305D02*
X013121Y014319D01*
X013150Y014337D01*
X013177Y014358D01*
X013201Y014382D01*
X013223Y014408D01*
X013242Y014437D01*
X013258Y014467D01*
X013271Y014499D01*
X013280Y014532D01*
X013285Y014566D01*
X013287Y014600D01*
X013285Y014634D01*
X013280Y014668D01*
X013271Y014701D01*
X013258Y014733D01*
X013242Y014763D01*
X013223Y014792D01*
X013201Y014818D01*
X013177Y014842D01*
X013150Y014863D01*
X013121Y014881D01*
X013090Y014895D01*
X014110Y014895D02*
X014079Y014881D01*
X014050Y014863D01*
X014023Y014842D01*
X013999Y014818D01*
X013977Y014792D01*
X013958Y014763D01*
X013942Y014733D01*
X013929Y014701D01*
X013920Y014668D01*
X013915Y014634D01*
X013913Y014600D01*
X013915Y014566D01*
X013920Y014532D01*
X013929Y014499D01*
X013942Y014467D01*
X013958Y014437D01*
X013977Y014408D01*
X013999Y014382D01*
X014023Y014358D01*
X014050Y014337D01*
X014079Y014319D01*
X014110Y014305D01*
X019090Y014305D02*
X019121Y014319D01*
X019150Y014337D01*
X019177Y014358D01*
X019201Y014382D01*
X019223Y014408D01*
X019242Y014437D01*
X019258Y014467D01*
X019271Y014499D01*
X019280Y014532D01*
X019285Y014566D01*
X019287Y014600D01*
X019285Y014634D01*
X019280Y014668D01*
X019271Y014701D01*
X019258Y014733D01*
X019242Y014763D01*
X019223Y014792D01*
X019201Y014818D01*
X019177Y014842D01*
X019150Y014863D01*
X019121Y014881D01*
X019090Y014895D01*
X020110Y014895D02*
X020110Y011078D01*
X025090Y011078D01*
X025090Y014305D01*
X025090Y014895D01*
X025090Y016943D01*
X020110Y016943D01*
X020110Y014895D01*
X020079Y014881D01*
X020050Y014863D01*
X020023Y014842D01*
X019999Y014818D01*
X019977Y014792D01*
X019958Y014763D01*
X019942Y014733D01*
X019929Y014701D01*
X019920Y014668D01*
X019915Y014634D01*
X019913Y014600D01*
X019915Y014566D01*
X019920Y014532D01*
X019929Y014499D01*
X019942Y014467D01*
X019958Y014437D01*
X019977Y014408D01*
X019999Y014382D01*
X020023Y014358D01*
X020050Y014337D01*
X020079Y014319D01*
X020110Y014305D01*
X025090Y014305D02*
X025121Y014319D01*
X025150Y014337D01*
X025177Y014358D01*
X025201Y014382D01*
X025223Y014408D01*
X025242Y014437D01*
X025258Y014467D01*
X025271Y014499D01*
X025280Y014532D01*
X025285Y014566D01*
X025287Y014600D01*
X025285Y014634D01*
X025280Y014668D01*
X025271Y014701D01*
X025258Y014733D01*
X025242Y014763D01*
X025223Y014792D01*
X025201Y014818D01*
X025177Y014842D01*
X025150Y014863D01*
X025121Y014881D01*
X025090Y014895D01*
X026110Y014895D02*
X026110Y011078D01*
X031090Y011078D01*
X031090Y014305D01*
X031090Y014895D01*
X031090Y016943D01*
X026110Y016943D01*
X026110Y014895D01*
X026079Y014881D01*
X026050Y014863D01*
X026023Y014842D01*
X025999Y014818D01*
X025977Y014792D01*
X025958Y014763D01*
X025942Y014733D01*
X025929Y014701D01*
X025920Y014668D01*
X025915Y014634D01*
X025913Y014600D01*
X025915Y014566D01*
X025920Y014532D01*
X025929Y014499D01*
X025942Y014467D01*
X025958Y014437D01*
X025977Y014408D01*
X025999Y014382D01*
X026023Y014358D01*
X026050Y014337D01*
X026079Y014319D01*
X026110Y014305D01*
X031090Y014305D02*
X031121Y014319D01*
X031150Y014337D01*
X031177Y014358D01*
X031201Y014382D01*
X031223Y014408D01*
X031242Y014437D01*
X031258Y014467D01*
X031271Y014499D01*
X031280Y014532D01*
X031285Y014566D01*
X031287Y014600D01*
X031285Y014634D01*
X031280Y014668D01*
X031271Y014701D01*
X031258Y014733D01*
X031242Y014763D01*
X031223Y014792D01*
X031201Y014818D01*
X031177Y014842D01*
X031150Y014863D01*
X031121Y014881D01*
X031090Y014895D01*
X008110Y014895D02*
X008079Y014881D01*
X008050Y014863D01*
X008023Y014842D01*
X007999Y014818D01*
X007977Y014792D01*
X007958Y014763D01*
X007942Y014733D01*
X007929Y014701D01*
X007920Y014668D01*
X007915Y014634D01*
X007913Y014600D01*
X007915Y014566D01*
X007920Y014532D01*
X007929Y014499D01*
X007942Y014467D01*
X007958Y014437D01*
X007977Y014408D01*
X007999Y014382D01*
X008023Y014358D01*
X008050Y014337D01*
X008079Y014319D01*
X008110Y014305D01*
X006590Y014305D02*
X006590Y014895D01*
X006590Y016943D01*
X001610Y016943D01*
X001610Y014895D01*
X001610Y011078D01*
X006590Y011078D01*
X006590Y014305D01*
X006621Y014319D01*
X006650Y014337D01*
X006677Y014358D01*
X006701Y014382D01*
X006723Y014408D01*
X006742Y014437D01*
X006758Y014467D01*
X006771Y014499D01*
X006780Y014532D01*
X006785Y014566D01*
X006787Y014600D01*
X006785Y014634D01*
X006780Y014668D01*
X006771Y014701D01*
X006758Y014733D01*
X006742Y014763D01*
X006723Y014792D01*
X006701Y014818D01*
X006677Y014842D01*
X006650Y014863D01*
X006621Y014881D01*
X006590Y014895D01*
X001610Y014895D02*
X001579Y014881D01*
X001550Y014863D01*
X001523Y014842D01*
X001499Y014818D01*
X001477Y014792D01*
X001458Y014763D01*
X001442Y014733D01*
X001429Y014701D01*
X001420Y014668D01*
X001415Y014634D01*
X001413Y014600D01*
X001415Y014566D01*
X001420Y014532D01*
X001429Y014499D01*
X001442Y014467D01*
X001458Y014437D01*
X001477Y014408D01*
X001499Y014382D01*
X001523Y014358D01*
X001550Y014337D01*
X001579Y014319D01*
X001610Y014305D01*
D11*
X002971Y014367D02*
X003023Y014315D01*
X003126Y014315D01*
X003178Y014263D01*
X003178Y014212D01*
X003126Y014160D01*
X003023Y014160D01*
X002971Y014212D01*
X002971Y014367D02*
X002971Y014419D01*
X003023Y014470D01*
X003126Y014470D01*
X003178Y014419D01*
X003266Y014419D02*
X003266Y014212D01*
X003317Y014160D01*
X003421Y014160D01*
X003473Y014212D01*
X003560Y014160D02*
X003767Y014160D01*
X003560Y014160D02*
X003560Y014470D01*
X003473Y014419D02*
X003421Y014470D01*
X003317Y014470D01*
X003266Y014419D01*
X004346Y014419D02*
X004346Y014212D01*
X004398Y014160D01*
X004501Y014160D01*
X004553Y014212D01*
X004553Y014315D01*
X004449Y014315D01*
X004346Y014419D02*
X004398Y014470D01*
X004501Y014470D01*
X004553Y014419D01*
X004641Y014470D02*
X004641Y014160D01*
X004848Y014160D02*
X004848Y014470D01*
X004935Y014470D02*
X005090Y014470D01*
X005142Y014419D01*
X005142Y014212D01*
X005090Y014160D01*
X004935Y014160D01*
X004935Y014470D01*
X004641Y014470D02*
X004848Y014160D01*
X004892Y012220D02*
X004892Y012013D01*
X004789Y011910D01*
X004685Y012013D01*
X004685Y012220D01*
X004598Y012220D02*
X004391Y012220D01*
X004391Y012065D01*
X004494Y012117D01*
X004546Y012117D01*
X004598Y012065D01*
X004598Y011962D01*
X004546Y011910D01*
X004442Y011910D01*
X004391Y011962D01*
X004142Y011910D02*
X004142Y012117D01*
X004039Y012220D01*
X003935Y012117D01*
X003935Y011910D01*
X003848Y011962D02*
X003848Y012169D01*
X003796Y012220D01*
X003641Y012220D01*
X003641Y011910D01*
X003796Y011910D01*
X003848Y011962D01*
X003935Y012065D02*
X004142Y012065D01*
X003553Y012013D02*
X003553Y011962D01*
X003501Y011910D01*
X003398Y011910D01*
X003346Y011962D01*
X003398Y012065D02*
X003501Y012065D01*
X003553Y012013D01*
X003553Y012169D02*
X003501Y012220D01*
X003398Y012220D01*
X003346Y012169D01*
X003346Y012117D01*
X003398Y012065D01*
X003017Y012013D02*
X002914Y011910D01*
X002810Y012013D01*
X002810Y012220D01*
X002723Y012169D02*
X002671Y012220D01*
X002567Y012220D01*
X002516Y012169D01*
X002324Y012220D02*
X002324Y011910D01*
X002221Y011910D02*
X002428Y011910D01*
X002516Y011910D02*
X002723Y012117D01*
X002723Y012169D01*
X003017Y012220D02*
X003017Y012013D01*
X002723Y011910D02*
X002516Y011910D01*
X002221Y012117D02*
X002324Y012220D01*
X008721Y012117D02*
X008824Y012220D01*
X008824Y011910D01*
X008721Y011910D02*
X008928Y011910D01*
X009016Y011910D02*
X009223Y012117D01*
X009223Y012169D01*
X009171Y012220D01*
X009067Y012220D01*
X009016Y012169D01*
X009310Y012220D02*
X009310Y012013D01*
X009414Y011910D01*
X009517Y012013D01*
X009517Y012220D01*
X009846Y012169D02*
X009846Y012117D01*
X009898Y012065D01*
X010001Y012065D01*
X010053Y012013D01*
X010053Y011962D01*
X010001Y011910D01*
X009898Y011910D01*
X009846Y011962D01*
X009846Y012169D02*
X009898Y012220D01*
X010001Y012220D01*
X010053Y012169D01*
X010141Y012220D02*
X010296Y012220D01*
X010348Y012169D01*
X010348Y011962D01*
X010296Y011910D01*
X010141Y011910D01*
X010141Y012220D01*
X010435Y012117D02*
X010539Y012220D01*
X010642Y012117D01*
X010642Y011910D01*
X010642Y012065D02*
X010435Y012065D01*
X010435Y012117D02*
X010435Y011910D01*
X010891Y011962D02*
X010942Y011910D01*
X011046Y011910D01*
X011098Y011962D01*
X011098Y012065D01*
X011046Y012117D01*
X010994Y012117D01*
X010891Y012065D01*
X010891Y012220D01*
X011098Y012220D01*
X011185Y012220D02*
X011185Y012013D01*
X011289Y011910D01*
X011392Y012013D01*
X011392Y012220D01*
X009223Y011910D02*
X009016Y011910D01*
X009523Y014160D02*
X009471Y014212D01*
X009523Y014160D02*
X009626Y014160D01*
X009678Y014212D01*
X009678Y014263D01*
X009626Y014315D01*
X009523Y014315D01*
X009471Y014367D01*
X009471Y014419D01*
X009523Y014470D01*
X009626Y014470D01*
X009678Y014419D01*
X009766Y014419D02*
X009766Y014212D01*
X009817Y014160D01*
X009921Y014160D01*
X009973Y014212D01*
X010060Y014160D02*
X010267Y014160D01*
X010060Y014160D02*
X010060Y014470D01*
X009973Y014419D02*
X009921Y014470D01*
X009817Y014470D01*
X009766Y014419D01*
X010846Y014419D02*
X010846Y014212D01*
X010898Y014160D01*
X011001Y014160D01*
X011053Y014212D01*
X011053Y014315D01*
X010949Y014315D01*
X010846Y014419D02*
X010898Y014470D01*
X011001Y014470D01*
X011053Y014419D01*
X011141Y014470D02*
X011141Y014160D01*
X011348Y014160D02*
X011348Y014470D01*
X011435Y014470D02*
X011590Y014470D01*
X011642Y014419D01*
X011642Y014212D01*
X011590Y014160D01*
X011435Y014160D01*
X011435Y014470D01*
X011141Y014470D02*
X011348Y014160D01*
X014721Y012117D02*
X014824Y012220D01*
X014824Y011910D01*
X014721Y011910D02*
X014928Y011910D01*
X015016Y011910D02*
X015223Y012117D01*
X015223Y012169D01*
X015171Y012220D01*
X015067Y012220D01*
X015016Y012169D01*
X015310Y012220D02*
X015310Y012013D01*
X015414Y011910D01*
X015517Y012013D01*
X015517Y012220D01*
X015846Y012169D02*
X015846Y012117D01*
X015898Y012065D01*
X016001Y012065D01*
X016053Y012013D01*
X016053Y011962D01*
X016001Y011910D01*
X015898Y011910D01*
X015846Y011962D01*
X015846Y012169D02*
X015898Y012220D01*
X016001Y012220D01*
X016053Y012169D01*
X016141Y012220D02*
X016296Y012220D01*
X016348Y012169D01*
X016348Y011962D01*
X016296Y011910D01*
X016141Y011910D01*
X016141Y012220D01*
X016435Y012117D02*
X016539Y012220D01*
X016642Y012117D01*
X016642Y011910D01*
X016642Y012065D02*
X016435Y012065D01*
X016435Y012117D02*
X016435Y011910D01*
X016891Y011962D02*
X016942Y011910D01*
X017046Y011910D01*
X017098Y011962D01*
X017098Y012065D01*
X017046Y012117D01*
X016994Y012117D01*
X016891Y012065D01*
X016891Y012220D01*
X017098Y012220D01*
X017185Y012220D02*
X017185Y012013D01*
X017289Y011910D01*
X017392Y012013D01*
X017392Y012220D01*
X015223Y011910D02*
X015016Y011910D01*
X015523Y014160D02*
X015471Y014212D01*
X015523Y014160D02*
X015626Y014160D01*
X015678Y014212D01*
X015678Y014263D01*
X015626Y014315D01*
X015523Y014315D01*
X015471Y014367D01*
X015471Y014419D01*
X015523Y014470D01*
X015626Y014470D01*
X015678Y014419D01*
X015766Y014419D02*
X015766Y014212D01*
X015817Y014160D01*
X015921Y014160D01*
X015973Y014212D01*
X016060Y014160D02*
X016267Y014160D01*
X016060Y014160D02*
X016060Y014470D01*
X015973Y014419D02*
X015921Y014470D01*
X015817Y014470D01*
X015766Y014419D01*
X016846Y014419D02*
X016846Y014212D01*
X016898Y014160D01*
X017001Y014160D01*
X017053Y014212D01*
X017053Y014315D01*
X016949Y014315D01*
X016846Y014419D02*
X016898Y014470D01*
X017001Y014470D01*
X017053Y014419D01*
X017141Y014470D02*
X017348Y014160D01*
X017348Y014470D01*
X017435Y014470D02*
X017590Y014470D01*
X017642Y014419D01*
X017642Y014212D01*
X017590Y014160D01*
X017435Y014160D01*
X017435Y014470D01*
X017141Y014470D02*
X017141Y014160D01*
X020721Y012117D02*
X020824Y012220D01*
X020824Y011910D01*
X020721Y011910D02*
X020928Y011910D01*
X021016Y011910D02*
X021223Y012117D01*
X021223Y012169D01*
X021171Y012220D01*
X021067Y012220D01*
X021016Y012169D01*
X021310Y012220D02*
X021310Y012013D01*
X021414Y011910D01*
X021517Y012013D01*
X021517Y012220D01*
X021846Y012169D02*
X021846Y012117D01*
X021898Y012065D01*
X022001Y012065D01*
X022053Y012013D01*
X022053Y011962D01*
X022001Y011910D01*
X021898Y011910D01*
X021846Y011962D01*
X021846Y012169D02*
X021898Y012220D01*
X022001Y012220D01*
X022053Y012169D01*
X022141Y012220D02*
X022296Y012220D01*
X022348Y012169D01*
X022348Y011962D01*
X022296Y011910D01*
X022141Y011910D01*
X022141Y012220D01*
X022435Y012117D02*
X022539Y012220D01*
X022642Y012117D01*
X022642Y011910D01*
X022642Y012065D02*
X022435Y012065D01*
X022435Y012117D02*
X022435Y011910D01*
X022891Y011962D02*
X022942Y011910D01*
X023046Y011910D01*
X023098Y011962D01*
X023098Y012065D01*
X023046Y012117D01*
X022994Y012117D01*
X022891Y012065D01*
X022891Y012220D01*
X023098Y012220D01*
X023185Y012220D02*
X023185Y012013D01*
X023289Y011910D01*
X023392Y012013D01*
X023392Y012220D01*
X021223Y011910D02*
X021016Y011910D01*
X021523Y014160D02*
X021471Y014212D01*
X021523Y014160D02*
X021626Y014160D01*
X021678Y014212D01*
X021678Y014263D01*
X021626Y014315D01*
X021523Y014315D01*
X021471Y014367D01*
X021471Y014419D01*
X021523Y014470D01*
X021626Y014470D01*
X021678Y014419D01*
X021766Y014419D02*
X021766Y014212D01*
X021817Y014160D01*
X021921Y014160D01*
X021973Y014212D01*
X022060Y014160D02*
X022267Y014160D01*
X022060Y014160D02*
X022060Y014470D01*
X021973Y014419D02*
X021921Y014470D01*
X021817Y014470D01*
X021766Y014419D01*
X022846Y014419D02*
X022846Y014212D01*
X022898Y014160D01*
X023001Y014160D01*
X023053Y014212D01*
X023053Y014315D01*
X022949Y014315D01*
X022846Y014419D02*
X022898Y014470D01*
X023001Y014470D01*
X023053Y014419D01*
X023141Y014470D02*
X023141Y014160D01*
X023348Y014160D02*
X023348Y014470D01*
X023435Y014470D02*
X023590Y014470D01*
X023642Y014419D01*
X023642Y014212D01*
X023590Y014160D01*
X023435Y014160D01*
X023435Y014470D01*
X023141Y014470D02*
X023348Y014160D01*
X026721Y012117D02*
X026824Y012220D01*
X026824Y011910D01*
X026721Y011910D02*
X026928Y011910D01*
X027016Y011910D02*
X027223Y012117D01*
X027223Y012169D01*
X027171Y012220D01*
X027067Y012220D01*
X027016Y012169D01*
X027310Y012220D02*
X027310Y012013D01*
X027414Y011910D01*
X027517Y012013D01*
X027517Y012220D01*
X027846Y012169D02*
X027846Y012117D01*
X027898Y012065D01*
X028001Y012065D01*
X028053Y012013D01*
X028053Y011962D01*
X028001Y011910D01*
X027898Y011910D01*
X027846Y011962D01*
X027846Y012169D02*
X027898Y012220D01*
X028001Y012220D01*
X028053Y012169D01*
X028141Y012220D02*
X028296Y012220D01*
X028348Y012169D01*
X028348Y011962D01*
X028296Y011910D01*
X028141Y011910D01*
X028141Y012220D01*
X028435Y012117D02*
X028539Y012220D01*
X028642Y012117D01*
X028642Y011910D01*
X028642Y012065D02*
X028435Y012065D01*
X028435Y012117D02*
X028435Y011910D01*
X028891Y011962D02*
X028942Y011910D01*
X029046Y011910D01*
X029098Y011962D01*
X029098Y012065D01*
X029046Y012117D01*
X028994Y012117D01*
X028891Y012065D01*
X028891Y012220D01*
X029098Y012220D01*
X029185Y012220D02*
X029185Y012013D01*
X029289Y011910D01*
X029392Y012013D01*
X029392Y012220D01*
X027223Y011910D02*
X027016Y011910D01*
X027523Y014160D02*
X027471Y014212D01*
X027523Y014160D02*
X027626Y014160D01*
X027678Y014212D01*
X027678Y014263D01*
X027626Y014315D01*
X027523Y014315D01*
X027471Y014367D01*
X027471Y014419D01*
X027523Y014470D01*
X027626Y014470D01*
X027678Y014419D01*
X027766Y014419D02*
X027766Y014212D01*
X027817Y014160D01*
X027921Y014160D01*
X027973Y014212D01*
X028060Y014160D02*
X028267Y014160D01*
X028060Y014160D02*
X028060Y014470D01*
X027973Y014419D02*
X027921Y014470D01*
X027817Y014470D01*
X027766Y014419D01*
X028846Y014419D02*
X028846Y014212D01*
X028898Y014160D01*
X029001Y014160D01*
X029053Y014212D01*
X029053Y014315D01*
X028949Y014315D01*
X028846Y014419D02*
X028898Y014470D01*
X029001Y014470D01*
X029053Y014419D01*
X029141Y014470D02*
X029141Y014160D01*
X029348Y014160D02*
X029348Y014470D01*
X029435Y014470D02*
X029590Y014470D01*
X029642Y014419D01*
X029642Y014212D01*
X029590Y014160D01*
X029435Y014160D01*
X029435Y014470D01*
X029141Y014470D02*
X029348Y014160D01*
X014631Y006555D02*
X014581Y006530D01*
X014531Y006480D01*
X014606Y006480D01*
X014631Y006455D01*
X014631Y006430D01*
X014606Y006405D01*
X014556Y006405D01*
X014531Y006430D01*
X014531Y006480D01*
X014484Y006530D02*
X014484Y006430D01*
X014459Y006405D01*
X014409Y006405D01*
X014384Y006430D01*
X014484Y006530D01*
X014459Y006555D01*
X014409Y006555D01*
X014384Y006530D01*
X014384Y006430D01*
X014336Y006405D02*
X014236Y006405D01*
X014336Y006505D01*
X014336Y006530D01*
X014311Y006555D01*
X014261Y006555D01*
X014236Y006530D01*
X014139Y006555D02*
X014139Y006405D01*
X014089Y006405D02*
X014189Y006405D01*
X014089Y006505D02*
X014139Y006555D01*
X014042Y006530D02*
X014017Y006555D01*
X013942Y006555D01*
X013942Y006405D01*
X014017Y006405D01*
X014042Y006430D01*
X014042Y006530D01*
X013894Y006405D02*
X013794Y006405D01*
X013844Y006405D02*
X013844Y006555D01*
X013794Y006505D01*
X013747Y006505D02*
X013722Y006480D01*
X013672Y006480D01*
X013647Y006505D01*
X013647Y006530D01*
X013672Y006555D01*
X013722Y006555D01*
X013747Y006530D01*
X013747Y006505D01*
X013722Y006480D02*
X013747Y006455D01*
X013747Y006430D01*
X013722Y006405D01*
X013672Y006405D01*
X013647Y006430D01*
X013647Y006455D01*
X013672Y006480D01*
X013600Y006480D02*
X013600Y006430D01*
X013575Y006405D01*
X013525Y006405D01*
X013500Y006430D01*
X013500Y006480D02*
X013550Y006505D01*
X013575Y006505D01*
X013600Y006480D01*
X013600Y006555D02*
X013500Y006555D01*
X013500Y006480D01*
X013452Y006405D02*
X013452Y006555D01*
X013352Y006555D02*
X013452Y006405D01*
X013352Y006405D02*
X013352Y006555D01*
X013255Y006555D02*
X013255Y006405D01*
X013205Y006405D02*
X013305Y006405D01*
X013205Y006505D02*
X013255Y006555D01*
X009784Y005635D02*
X009784Y005562D01*
X009784Y005598D02*
X009674Y005598D01*
X009711Y005562D01*
D12*
X010620Y004967D02*
X010620Y004660D01*
X011080Y004660D01*
X011080Y004506D02*
X010850Y004506D01*
X010773Y004429D01*
X010773Y004199D01*
X011080Y004199D01*
X011003Y004046D02*
X010696Y004046D01*
X011003Y003739D01*
X011080Y003816D01*
X011080Y003969D01*
X011003Y004046D01*
X010696Y004046D02*
X010620Y003969D01*
X010620Y003816D01*
X010696Y003739D01*
X011003Y003739D01*
X011003Y003585D02*
X010696Y003585D01*
X011003Y003278D01*
X011080Y003355D01*
X011080Y003509D01*
X011003Y003585D01*
X011003Y003278D02*
X010696Y003278D01*
X010620Y003355D01*
X010620Y003509D01*
X010696Y003585D01*
X011080Y003125D02*
X011080Y002818D01*
X011080Y002971D02*
X010620Y002971D01*
X010773Y002818D01*
X012120Y003432D02*
X012580Y003432D01*
X012580Y003585D02*
X012580Y003278D01*
X012273Y003278D02*
X012120Y003432D01*
X012196Y003739D02*
X012120Y003816D01*
X012120Y003969D01*
X012196Y004046D01*
X012503Y003739D01*
X012580Y003816D01*
X012580Y003969D01*
X012503Y004046D01*
X012196Y004046D01*
X012273Y004199D02*
X012503Y004199D01*
X012580Y004276D01*
X012580Y004506D01*
X012273Y004506D01*
X012350Y004660D02*
X012350Y004813D01*
X012580Y004660D02*
X012120Y004660D01*
X012120Y004967D01*
X011910Y004980D02*
X011910Y004220D01*
X011290Y004220D02*
X011290Y004980D01*
X010850Y004813D02*
X010850Y004660D01*
X012196Y003739D02*
X012503Y003739D01*
X012790Y004220D02*
X012790Y004980D01*
X013410Y004980D02*
X013410Y004220D01*
X016470Y004320D02*
X016470Y004780D01*
X016700Y004780D01*
X016777Y004704D01*
X016777Y004550D01*
X016700Y004473D01*
X016470Y004473D01*
X016930Y004397D02*
X017007Y004320D01*
X017161Y004320D01*
X017237Y004397D01*
X017391Y004320D02*
X017391Y004627D01*
X017544Y004780D01*
X017698Y004627D01*
X017698Y004320D01*
X017851Y004397D02*
X017928Y004320D01*
X018081Y004320D01*
X018158Y004397D01*
X018158Y004704D01*
X018081Y004780D01*
X017928Y004780D01*
X017851Y004704D01*
X017851Y004627D01*
X017928Y004550D01*
X018158Y004550D01*
X018312Y004550D02*
X018465Y004627D01*
X018542Y004627D01*
X018618Y004550D01*
X018618Y004397D01*
X018542Y004320D01*
X018388Y004320D01*
X018312Y004397D01*
X018312Y004550D02*
X018312Y004780D01*
X018618Y004780D01*
X018772Y004627D02*
X018925Y004780D01*
X018925Y004320D01*
X018772Y004320D02*
X019079Y004320D01*
X019232Y004397D02*
X019309Y004320D01*
X019463Y004320D01*
X019539Y004397D01*
X019539Y004473D01*
X019463Y004550D01*
X019309Y004550D01*
X019232Y004627D01*
X019232Y004704D01*
X019309Y004780D01*
X019463Y004780D01*
X019539Y004704D01*
X019539Y004627D01*
X019463Y004550D01*
X019309Y004550D02*
X019232Y004473D01*
X019232Y004397D01*
X017698Y004550D02*
X017391Y004550D01*
X017237Y004704D02*
X017161Y004780D01*
X017007Y004780D01*
X016930Y004704D01*
X016930Y004397D01*
X008080Y005665D02*
X008003Y005589D01*
X007927Y005589D01*
X007850Y005665D01*
X007850Y005819D01*
X007927Y005895D01*
X008003Y005895D01*
X008080Y005819D01*
X008080Y005665D01*
X007850Y005665D02*
X007773Y005589D01*
X007696Y005589D01*
X007620Y005665D01*
X007620Y005819D01*
X007696Y005895D01*
X007773Y005895D01*
X007850Y005819D01*
X008003Y006049D02*
X008080Y006049D01*
X008003Y006049D02*
X007696Y006356D01*
X007620Y006356D01*
X007620Y006049D01*
X007620Y006509D02*
X007620Y006816D01*
X007696Y006816D01*
X008003Y006509D01*
X008080Y006509D01*
X008003Y006970D02*
X008080Y007046D01*
X008080Y007200D01*
X008003Y007277D01*
X007850Y007277D01*
X007773Y007200D01*
X007773Y007123D01*
X007850Y006970D01*
X007620Y006970D01*
X007620Y007277D01*
X007696Y007430D02*
X007773Y007430D01*
X007850Y007507D01*
X007850Y007660D01*
X007927Y007737D01*
X008003Y007737D01*
X008080Y007660D01*
X008080Y007507D01*
X008003Y007430D01*
X007927Y007430D01*
X007850Y007507D01*
X007850Y007660D02*
X007773Y007737D01*
X007696Y007737D01*
X007620Y007660D01*
X007620Y007507D01*
X007696Y007430D01*
X007850Y007890D02*
X007850Y008197D01*
X008003Y008351D02*
X007696Y008351D01*
X007620Y008428D01*
X007620Y008581D01*
X007696Y008658D01*
X008003Y008351D01*
X008080Y008428D01*
X008080Y008581D01*
X008003Y008658D01*
X007696Y008658D01*
X007850Y008811D02*
X007850Y009041D01*
X007927Y009118D01*
X008003Y009118D01*
X008080Y009041D01*
X008080Y008888D01*
X008003Y008811D01*
X007850Y008811D01*
X007696Y008965D01*
X007620Y009118D01*
X007773Y009272D02*
X007620Y009425D01*
X008080Y009425D01*
X008080Y009272D02*
X008080Y009579D01*
X008003Y009732D02*
X008080Y009809D01*
X008080Y009962D01*
X008003Y010039D01*
X007927Y010039D01*
X007850Y009962D01*
X007850Y009732D01*
X008003Y009732D01*
X007850Y009732D02*
X007696Y009885D01*
X007620Y010039D01*
X003584Y007693D02*
X003507Y007769D01*
X003277Y007769D01*
X003277Y007309D01*
X003507Y007309D01*
X003584Y007386D01*
X003584Y007693D01*
X003123Y007769D02*
X003123Y007309D01*
X002816Y007769D01*
X002816Y007309D01*
X002663Y007386D02*
X002663Y007539D01*
X002509Y007539D01*
X002356Y007386D02*
X002433Y007309D01*
X002586Y007309D01*
X002663Y007386D01*
X002356Y007386D02*
X002356Y007693D01*
X002433Y007769D01*
X002586Y007769D01*
X002663Y007693D01*
X005335Y007247D02*
X005642Y007247D01*
X005796Y007094D01*
X005642Y006940D01*
X005335Y006940D01*
X005335Y006787D02*
X005335Y006480D01*
X005565Y006480D01*
X005489Y006633D01*
X005489Y006710D01*
X005565Y006787D01*
X005719Y006787D01*
X005796Y006710D01*
X005796Y006557D01*
X005719Y006480D01*
X005565Y006327D02*
X005565Y006020D01*
X005412Y006173D02*
X005719Y006173D01*
X005642Y005459D02*
X005335Y005459D01*
X005642Y005459D02*
X005796Y005305D01*
X005642Y005152D01*
X005335Y005152D01*
X005412Y004998D02*
X005335Y004922D01*
X005335Y004768D01*
X005412Y004691D01*
X005335Y004384D02*
X005796Y004384D01*
X005796Y004231D02*
X005796Y004538D01*
X005796Y004691D02*
X005489Y004998D01*
X005412Y004998D01*
X005796Y004998D02*
X005796Y004691D01*
X005489Y004231D02*
X005335Y004384D01*
X005565Y004078D02*
X005565Y003771D01*
X005412Y003924D02*
X005719Y003924D01*
X003549Y003693D02*
X003549Y003386D01*
X003472Y003309D01*
X003242Y003309D01*
X003242Y003769D01*
X003472Y003769D01*
X003549Y003693D01*
X003089Y003769D02*
X003089Y003309D01*
X002782Y003769D01*
X002782Y003309D01*
X002628Y003386D02*
X002628Y003539D01*
X002475Y003539D01*
X002628Y003386D02*
X002552Y003309D01*
X002398Y003309D01*
X002321Y003386D01*
X002321Y003693D01*
X002398Y003769D01*
X002552Y003769D01*
X002628Y003693D01*
D13*
X016350Y002805D03*
X016850Y002805D03*
X017350Y002805D03*
X017850Y002805D03*
X018350Y002805D03*
X018850Y002805D03*
X019350Y002805D03*
X019850Y002805D03*
X020350Y002805D03*
X020850Y002805D03*
X020850Y006395D03*
X020350Y006395D03*
X019850Y006395D03*
X019350Y006395D03*
X018850Y006395D03*
X018350Y006395D03*
X017850Y006395D03*
X017350Y006395D03*
X016850Y006395D03*
X016350Y006395D03*
D14*
X005887Y002529D02*
X000376Y002529D01*
X000376Y008750D01*
X005887Y008750D01*
X005887Y002529D01*
D15*
X011600Y004078D03*
X013100Y004078D03*
X013100Y005122D03*
X011600Y005122D03*
D16*
X009494Y005813D03*
X008706Y005813D03*
X008706Y006600D03*
X009494Y006600D03*
X009494Y007387D03*
X008706Y007387D03*
M02*
