G75*
G70*
%OFA0B0*%
%FSLAX24Y24*%
%IPPOS*%
%LPD*%
%AMOC8*
5,1,8,0,0,1.08239X$1,22.5*
%
%ADD10C,0.1340*%
%ADD11OC8,0.0600*%
%ADD12C,0.0634*%
%ADD13C,0.1360*%
%ADD14C,0.0600*%
%ADD15C,0.0740*%
%ADD16R,0.0710X0.0867*%
%ADD17R,0.0867X0.0710*%
%ADD18R,0.0710X0.0789*%
%ADD19OC8,0.0710*%
%ADD20C,0.0710*%
%ADD21C,0.0848*%
%ADD22OC8,0.1580*%
%ADD23C,0.0480*%
D10*
X003600Y001704D03*
X040100Y001704D03*
X040100Y028204D03*
X003600Y028204D03*
D11*
X009600Y013204D03*
X010600Y013204D03*
X016600Y013204D03*
X017600Y013204D03*
X023600Y013204D03*
X024600Y013204D03*
X024600Y008704D03*
X025600Y008704D03*
X030600Y013204D03*
X031600Y013204D03*
D12*
X030350Y006704D03*
X029350Y006704D03*
X028350Y006704D03*
X028850Y005704D03*
X029850Y005704D03*
X030850Y005704D03*
X034850Y006704D03*
X035850Y006704D03*
X036850Y006704D03*
X036350Y005704D03*
X037350Y005704D03*
X035350Y005704D03*
D13*
X034100Y003204D03*
X031600Y003204D03*
X027600Y003204D03*
X038100Y003204D03*
D14*
X021600Y006444D02*
X021600Y006964D01*
X020600Y006964D02*
X020600Y006444D01*
X019600Y006444D02*
X019600Y006964D01*
X019600Y009444D02*
X019600Y009964D01*
X020600Y009964D02*
X020600Y009444D01*
X021600Y009444D02*
X021600Y009964D01*
X016360Y010204D02*
X015840Y010204D01*
X015840Y009204D02*
X016360Y009204D01*
X016360Y008204D02*
X015840Y008204D01*
X015840Y007204D02*
X016360Y007204D01*
X016360Y006204D02*
X015840Y006204D01*
X015840Y005204D02*
X016360Y005204D01*
X016360Y004204D02*
X015840Y004204D01*
X015840Y003204D02*
X016360Y003204D01*
X016360Y002204D02*
X015840Y002204D01*
X013360Y002204D02*
X012840Y002204D01*
X012840Y003204D02*
X013360Y003204D01*
X013360Y004204D02*
X012840Y004204D01*
X012840Y005204D02*
X013360Y005204D01*
X013360Y006204D02*
X012840Y006204D01*
X012840Y007204D02*
X013360Y007204D01*
X013360Y008204D02*
X012840Y008204D01*
X012840Y009204D02*
X013360Y009204D01*
X013360Y010204D02*
X012840Y010204D01*
X008860Y010204D02*
X008340Y010204D01*
X008340Y009204D02*
X008860Y009204D01*
X008860Y008204D02*
X008340Y008204D01*
X008340Y007204D02*
X008860Y007204D01*
X008860Y006204D02*
X008340Y006204D01*
X008340Y005204D02*
X008860Y005204D01*
X008860Y004204D02*
X008340Y004204D01*
X008340Y003204D02*
X008860Y003204D01*
X008860Y002204D02*
X008340Y002204D01*
X005860Y002204D02*
X005340Y002204D01*
X005340Y003204D02*
X005860Y003204D01*
X005860Y004204D02*
X005340Y004204D01*
X005340Y005204D02*
X005860Y005204D01*
X005860Y006204D02*
X005340Y006204D01*
X005340Y007204D02*
X005860Y007204D01*
X005860Y008204D02*
X005340Y008204D01*
X005340Y009204D02*
X005860Y009204D01*
X005860Y010204D02*
X005340Y010204D01*
D15*
X010600Y006204D03*
X010600Y002204D03*
D16*
X024549Y006704D03*
X025651Y006704D03*
D17*
X022100Y004755D03*
X022100Y003653D03*
X020600Y003653D03*
X020600Y004755D03*
X019100Y004755D03*
X019100Y003653D03*
D18*
X024549Y005204D03*
X025651Y005204D03*
D19*
X024400Y002704D03*
D20*
X025800Y002704D03*
D21*
X022600Y015779D03*
X024962Y016566D03*
X027238Y016566D03*
X029600Y015779D03*
X031962Y016566D03*
X031962Y021369D03*
X027238Y021369D03*
X024962Y021369D03*
X020238Y021369D03*
X017962Y021369D03*
X013238Y021369D03*
X010962Y021369D03*
X006238Y021369D03*
X006238Y016566D03*
X008600Y015779D03*
X010962Y016566D03*
X013238Y016566D03*
X015600Y015779D03*
X017962Y016566D03*
X020238Y016566D03*
D22*
X020350Y025704D03*
X022600Y025704D03*
X024850Y025704D03*
X027350Y025704D03*
X029600Y025704D03*
X031850Y025704D03*
X017850Y025704D03*
X015600Y025704D03*
X013350Y025704D03*
X010850Y025704D03*
X008600Y025704D03*
X006350Y025704D03*
D23*
X015100Y011204D03*
X011600Y010204D03*
X022600Y002204D03*
X025600Y004204D03*
X018100Y001704D03*
M02*
