G75*
G70*
%OFA0B0*%
%FSLAX24Y24*%
%IPPOS*%
%LPD*%
%AMOC8*
5,1,8,0,0,1.08239X$1,22.5*
%
%ADD10OC8,0.0520*%
%ADD11C,0.0554*%
%ADD12C,0.0520*%
%ADD13C,0.0660*%
%ADD14R,0.0630X0.0787*%
%ADD15R,0.0787X0.0630*%
%ADD16R,0.0630X0.0709*%
%ADD17OC8,0.0630*%
%ADD18C,0.0630*%
%ADD19C,0.0768*%
%ADD20OC8,0.1500*%
%ADD21C,0.0540*%
%ADD22C,0.0400*%
%ADD23C,0.0360*%
%ADD24C,0.0180*%
%ADD25C,0.0860*%
D10*
X009600Y013204D03*
X010600Y013204D03*
X016600Y013204D03*
X017600Y013204D03*
X023600Y013204D03*
X024600Y013204D03*
X024600Y008704D03*
X025600Y008704D03*
X030600Y013204D03*
X031600Y013204D03*
D11*
X030350Y006704D03*
X029350Y006704D03*
X028350Y006704D03*
X028850Y005704D03*
X029850Y005704D03*
X030850Y005704D03*
X034850Y006704D03*
X035850Y006704D03*
X036850Y006704D03*
X036350Y005704D03*
X037350Y005704D03*
X035350Y005704D03*
D12*
X021600Y006444D02*
X021600Y006964D01*
X020600Y006964D02*
X020600Y006444D01*
X019600Y006444D02*
X019600Y006964D01*
X019600Y009444D02*
X019600Y009964D01*
X020600Y009964D02*
X020600Y009444D01*
X021600Y009444D02*
X021600Y009964D01*
X016360Y010204D02*
X015840Y010204D01*
X015840Y009204D02*
X016360Y009204D01*
X016360Y008204D02*
X015840Y008204D01*
X015840Y007204D02*
X016360Y007204D01*
X016360Y006204D02*
X015840Y006204D01*
X015840Y005204D02*
X016360Y005204D01*
X016360Y004204D02*
X015840Y004204D01*
X015840Y003204D02*
X016360Y003204D01*
X016360Y002204D02*
X015840Y002204D01*
X013360Y002204D02*
X012840Y002204D01*
X012840Y003204D02*
X013360Y003204D01*
X013360Y004204D02*
X012840Y004204D01*
X012840Y005204D02*
X013360Y005204D01*
X013360Y006204D02*
X012840Y006204D01*
X012840Y007204D02*
X013360Y007204D01*
X013360Y008204D02*
X012840Y008204D01*
X012840Y009204D02*
X013360Y009204D01*
X013360Y010204D02*
X012840Y010204D01*
X008860Y010204D02*
X008340Y010204D01*
X008340Y009204D02*
X008860Y009204D01*
X008860Y008204D02*
X008340Y008204D01*
X008340Y007204D02*
X008860Y007204D01*
X008860Y006204D02*
X008340Y006204D01*
X008340Y005204D02*
X008860Y005204D01*
X008860Y004204D02*
X008340Y004204D01*
X008340Y003204D02*
X008860Y003204D01*
X008860Y002204D02*
X008340Y002204D01*
X005860Y002204D02*
X005340Y002204D01*
X005340Y003204D02*
X005860Y003204D01*
X005860Y004204D02*
X005340Y004204D01*
X005340Y005204D02*
X005860Y005204D01*
X005860Y006204D02*
X005340Y006204D01*
X005340Y007204D02*
X005860Y007204D01*
X005860Y008204D02*
X005340Y008204D01*
X005340Y009204D02*
X005860Y009204D01*
X005860Y010204D02*
X005340Y010204D01*
D13*
X010600Y006204D03*
X010600Y002204D03*
D14*
X024549Y006704D03*
X025651Y006704D03*
D15*
X022100Y004755D03*
X022100Y003653D03*
X020600Y003653D03*
X020600Y004755D03*
X019100Y004755D03*
X019100Y003653D03*
D16*
X024549Y005204D03*
X025651Y005204D03*
D17*
X024400Y002704D03*
D18*
X025800Y002704D03*
D19*
X022600Y015779D03*
X024962Y016566D03*
X027238Y016566D03*
X029600Y015779D03*
X031962Y016566D03*
X031962Y021369D03*
X027238Y021369D03*
X024962Y021369D03*
X020238Y021369D03*
X017962Y021369D03*
X013238Y021369D03*
X010962Y021369D03*
X006238Y021369D03*
X006238Y016566D03*
X008600Y015779D03*
X010962Y016566D03*
X013238Y016566D03*
X015600Y015779D03*
X017962Y016566D03*
X020238Y016566D03*
D20*
X020350Y025704D03*
X022600Y025704D03*
X024850Y025704D03*
X027350Y025704D03*
X029600Y025704D03*
X031850Y025704D03*
X017850Y025704D03*
X015600Y025704D03*
X013350Y025704D03*
X010850Y025704D03*
X008600Y025704D03*
X006350Y025704D03*
D21*
X008600Y010204D02*
X011600Y010204D01*
X016100Y010204D02*
X017600Y010204D01*
X019100Y008704D01*
X023600Y008704D01*
X024600Y008704D01*
X023600Y008704D02*
X023600Y006204D01*
X024600Y005204D01*
X024549Y005204D01*
X024600Y005204D02*
X023600Y004204D01*
X025600Y004204D01*
X025600Y005204D02*
X025651Y005204D01*
X025600Y005204D02*
X025600Y006704D01*
X025651Y006704D01*
X025600Y006704D02*
X026600Y007704D01*
X027600Y007704D01*
X025600Y009704D01*
X021600Y009704D01*
X027600Y007704D02*
X036100Y007704D01*
X037100Y006704D01*
X036850Y006704D01*
X036600Y005704D02*
X036350Y005704D01*
X036600Y005704D02*
X035600Y004704D01*
X032100Y004704D01*
X031100Y005704D01*
X030850Y005704D01*
X025800Y002704D02*
X025600Y002704D01*
X024100Y001204D01*
X022600Y001204D01*
X022600Y002204D01*
X022600Y001204D02*
X018100Y001204D01*
X018100Y001704D01*
X018100Y001204D02*
X014100Y001204D01*
X013100Y002204D01*
X019100Y003653D02*
X019100Y003704D01*
X020600Y003704D01*
X020600Y003653D01*
X020600Y003704D02*
X022100Y003704D01*
X022100Y003653D01*
X022100Y003704D02*
X023100Y003704D01*
X023600Y004204D01*
D22*
X025600Y004204D03*
X022600Y002204D03*
X018100Y001704D03*
X011600Y010204D03*
X015100Y011204D03*
D23*
X005600Y003204D02*
X003600Y003204D01*
X003600Y011204D01*
X004600Y012204D01*
X009600Y012204D01*
X010600Y013204D01*
X011600Y013204D02*
X010100Y011704D01*
X005100Y011704D01*
X004100Y010704D01*
X004100Y005204D01*
X005600Y005204D01*
X005600Y009204D02*
X004600Y009204D01*
X004600Y010204D01*
X005600Y011204D01*
X013100Y011204D01*
X013600Y010704D01*
X015600Y010704D01*
X016100Y011204D01*
X029600Y011204D01*
X031600Y013204D01*
X024600Y013204D02*
X023100Y011704D01*
X015600Y011704D01*
X015100Y011204D01*
X016100Y012204D02*
X015100Y013204D01*
X011600Y013204D01*
X016100Y012204D02*
X016600Y012204D01*
X017600Y013204D01*
D24*
X014600Y009704D02*
X014100Y010204D01*
X013100Y010204D01*
X014100Y009704D02*
X009100Y009704D01*
X008600Y009204D01*
X007100Y008704D02*
X007100Y004704D01*
X009100Y004704D01*
X010600Y006204D01*
X012100Y007204D02*
X008600Y007204D01*
X008100Y007704D02*
X007600Y007204D01*
X007600Y005204D01*
X008600Y005204D01*
X009100Y003704D02*
X008600Y003204D01*
X009100Y003704D02*
X014600Y003704D01*
X014600Y009704D01*
X014100Y009704D02*
X014100Y008204D01*
X013100Y007204D01*
X012100Y007204D02*
X013100Y008204D01*
X013100Y009204D02*
X011600Y007704D01*
X008100Y007704D01*
X007100Y008704D02*
X005600Y010204D01*
X016100Y006204D02*
X017600Y007704D01*
X020600Y007704D01*
X021600Y006704D01*
X022100Y006704D01*
X022100Y004755D01*
X022100Y004704D01*
X020600Y004704D02*
X020600Y004755D01*
X020600Y006704D01*
X019600Y006704D02*
X019100Y006704D01*
X019100Y004755D01*
X019100Y004704D01*
X016600Y004704D01*
X016100Y004204D01*
X016600Y002704D02*
X023600Y002704D01*
X024600Y003704D01*
X026100Y003704D01*
X028100Y005704D01*
X028850Y005704D01*
X029100Y005704D01*
X029600Y006204D01*
X034600Y006204D01*
X035100Y005704D01*
X035350Y005704D01*
X035600Y006704D02*
X035850Y006704D01*
X035600Y006704D02*
X035100Y007204D01*
X030100Y007204D01*
X029600Y006704D01*
X029350Y006704D01*
X025600Y008704D02*
X025100Y008204D01*
X024600Y008204D01*
X024600Y006704D01*
X024549Y006704D01*
X016600Y002704D02*
X016100Y002204D01*
D25*
X015600Y015779D02*
X015600Y025704D01*
X013350Y025704D02*
X013350Y021369D01*
X013238Y021369D01*
X010962Y021369D02*
X010962Y025704D01*
X010850Y025704D01*
X008600Y025704D02*
X008600Y015779D01*
X006238Y021369D02*
X006350Y022119D01*
X006350Y025704D01*
X017850Y025704D02*
X017962Y025704D01*
X017962Y021369D01*
X020238Y021369D02*
X020350Y021369D01*
X020350Y025704D01*
X022600Y025704D02*
X022600Y015779D01*
X029600Y015779D02*
X029600Y025704D01*
X027350Y025704D02*
X027350Y021369D01*
X027238Y021369D01*
X024962Y021369D02*
X024962Y025704D01*
X024850Y025704D01*
X031850Y025704D02*
X031962Y025704D01*
X031962Y021369D01*
M02*
