%
M48
M72
T01C0.0120
T02C0.0315
T03C0.0350
T04C0.0394
T05C0.0929
T06C0.0935
%
T01
X5362Y4820
X5842Y5540
X7522Y5300
X7522Y7300
X5602Y8900
X5842Y10100
X5282Y10340
X3842Y9620
X4082Y8580
X4402Y8260
X2082Y7220
X1682Y7220
X1602Y6900
X7522Y10740
X9282Y9860
X9522Y8980
X9602Y8420
X10962Y9220
X11042Y9540
X12802Y10900
X12002Y12420
X11282Y11780
X10642Y13140
X10642Y13940
X8962Y15540
X6162Y15300
X5522Y13780
X12722Y18180
X13682Y15140
X13442Y13860
X13682Y12740
X14722Y11780
X15282Y9300
X15682Y8900
X15762Y8420
X14802Y8420
X17202Y10980
X18562Y11220
X18002Y14100
X17042Y16260
X18002Y6420
X16882Y5700
X13602Y5700
X12642Y3620
X14242Y1780
T02
X18067Y8100
X18067Y8903
X18067Y9706
X17067Y10100
X17067Y9297
X17067Y8494
X2756Y8100
X2756Y8903
X2756Y9706
X1756Y10100
X1756Y9297
X1756Y8494
T03
X15912Y14100
X17912Y13700
X17912Y14500
T04
X3162Y2600
X4162Y2600
X5162Y2600
X6162Y2600
X7162Y2600
X8162Y2600
X11662Y2600
X12662Y2600
X13662Y2600
X14662Y2600
X15662Y2600
X16662Y2600
X16662Y17100
X15662Y17100
X14662Y17100
X13662Y17100
X12662Y17100
X11662Y17100
X8162Y17100
X7162Y17100
X6162Y17100
X5162Y17100
X4162Y17100
X3162Y17100
T05
X3662Y11462
X3662Y6738
X16162Y6738
X16162Y11462
T06
X15912Y13100
X17162Y13100
X17162Y15100
X15912Y15100
M30
