G75*
G70*
%OFA0B0*%
%FSLAX24Y24*%
%IPPOS*%
%LPD*%
%AMOC8*
5,1,8,0,0,1.08239X$1,22.5*
%
%ADD10C,0.0060*%
%ADD11C,0.0030*%
%ADD12R,0.0180X0.0390*%
%ADD13R,0.0390X0.0180*%
%ADD14C,0.0040*%
%ADD15R,0.0230X0.0720*%
%ADD16R,0.0295X0.0669*%
%ADD17C,0.0080*%
%ADD18C,0.0010*%
%ADD19R,0.0197X0.0374*%
%ADD20R,0.0180X0.0300*%
%ADD21R,0.0157X0.0354*%
%ADD22R,0.0118X0.0059*%
%ADD23R,0.0118X0.0118*%
%ADD24C,0.0100*%
D10*
X008921Y007720D02*
X008782Y007860D01*
X008782Y010480D01*
X011542Y010480D01*
X011542Y007720D01*
X008921Y007720D01*
X008941Y008020D02*
X008943Y008043D01*
X008949Y008066D01*
X008958Y008087D01*
X008971Y008107D01*
X008987Y008124D01*
X009005Y008138D01*
X009025Y008149D01*
X009047Y008157D01*
X009070Y008161D01*
X009094Y008161D01*
X009117Y008157D01*
X009139Y008149D01*
X009159Y008138D01*
X009177Y008124D01*
X009193Y008107D01*
X009206Y008087D01*
X009215Y008066D01*
X009221Y008043D01*
X009223Y008020D01*
X009221Y007997D01*
X009215Y007974D01*
X009206Y007953D01*
X009193Y007933D01*
X009177Y007916D01*
X009159Y007902D01*
X009139Y007891D01*
X009117Y007883D01*
X009094Y007879D01*
X009070Y007879D01*
X009047Y007883D01*
X009025Y007891D01*
X009005Y007902D01*
X008987Y007916D01*
X008971Y007933D01*
X008958Y007953D01*
X008949Y007974D01*
X008943Y007997D01*
X008941Y008020D01*
X010212Y014020D02*
X011112Y014020D01*
X011112Y014680D02*
X010212Y014680D01*
D11*
X010356Y010084D02*
X010356Y009988D01*
X010356Y010036D02*
X010647Y010036D01*
X010647Y009988D02*
X010647Y010084D01*
X010647Y009886D02*
X010453Y009886D01*
X010356Y009790D01*
X010453Y009693D01*
X010647Y009693D01*
X010502Y009693D02*
X010502Y009886D01*
X010502Y009592D02*
X010502Y009398D01*
X010550Y009297D02*
X010502Y009249D01*
X010502Y009152D01*
X010453Y009104D01*
X010405Y009104D01*
X010356Y009152D01*
X010356Y009249D01*
X010405Y009297D01*
X010453Y009297D01*
X010502Y009249D01*
X010550Y009297D02*
X010598Y009297D01*
X010647Y009249D01*
X010647Y009152D01*
X010598Y009104D01*
X010550Y009104D01*
X010502Y009152D01*
X010502Y009002D02*
X010502Y008809D01*
X010453Y008809D02*
X010356Y008906D01*
X010453Y009002D01*
X010647Y009002D01*
X010647Y008809D02*
X010453Y008809D01*
X010405Y008708D02*
X010356Y008659D01*
X010356Y008563D01*
X010405Y008514D01*
X010598Y008514D01*
X010647Y008563D01*
X010647Y008659D01*
X010598Y008708D01*
X010502Y008708D01*
X010502Y008611D01*
X010647Y008413D02*
X010647Y008220D01*
X010356Y008220D01*
X010356Y008413D01*
X010502Y008316D02*
X010502Y008220D01*
X010647Y008118D02*
X010356Y008118D01*
X010453Y008022D01*
X010356Y007925D01*
X010647Y007925D01*
D12*
X010634Y007505D03*
X010319Y007505D03*
X010004Y007505D03*
X009689Y007505D03*
X009374Y007505D03*
X009059Y007505D03*
X010949Y007505D03*
X011264Y007505D03*
X011264Y010695D03*
X010949Y010695D03*
X010634Y010695D03*
X010319Y010695D03*
X010004Y010695D03*
X009689Y010695D03*
X009374Y010695D03*
X009059Y010695D03*
D13*
X008567Y010202D03*
X008567Y009887D03*
X008567Y009572D03*
X008567Y009257D03*
X008567Y008943D03*
X008567Y008628D03*
X008567Y008313D03*
X008567Y007998D03*
X011757Y007998D03*
X011757Y008313D03*
X011757Y008628D03*
X011757Y008943D03*
X011757Y009257D03*
X011757Y009572D03*
X011757Y009887D03*
X011757Y010202D03*
D14*
X009600Y012380D02*
X009293Y012380D01*
X009293Y011920D01*
X009140Y011920D02*
X009140Y012227D01*
X009293Y012150D02*
X009446Y012150D01*
X009140Y011920D02*
X008909Y011920D01*
X008833Y011997D01*
X008833Y012227D01*
X008679Y011920D02*
X008372Y011920D01*
X008219Y011920D02*
X008142Y011920D01*
X008142Y011997D01*
X008219Y011997D01*
X008219Y011920D01*
X007989Y011997D02*
X007912Y011920D01*
X007758Y011920D01*
X007682Y011997D01*
X007989Y012304D01*
X007989Y011997D01*
X007989Y012304D02*
X007912Y012380D01*
X007758Y012380D01*
X007682Y012304D01*
X007682Y011997D01*
X007782Y012540D02*
X008542Y012540D01*
X008526Y012380D02*
X008526Y011920D01*
X008372Y012227D02*
X008526Y012380D01*
X008542Y013160D02*
X007782Y013160D01*
X007835Y013420D02*
X007835Y013880D01*
X007682Y013727D01*
X007782Y014040D02*
X008542Y014040D01*
X008372Y013880D02*
X008449Y013804D01*
X008142Y013497D01*
X008219Y013420D01*
X008372Y013420D01*
X008449Y013497D01*
X008449Y013804D01*
X008372Y013880D02*
X008219Y013880D01*
X008142Y013804D01*
X008142Y013497D01*
X007989Y013420D02*
X007682Y013420D01*
X008602Y013497D02*
X008679Y013420D01*
X008909Y013420D01*
X008909Y013727D01*
X009063Y013650D02*
X009216Y013650D01*
X009110Y013704D02*
X009110Y013397D01*
X009417Y013704D01*
X009417Y013397D01*
X009340Y013320D01*
X009187Y013320D01*
X009110Y013397D01*
X009063Y013420D02*
X009063Y013880D01*
X009370Y013880D01*
X009340Y013780D02*
X009187Y013780D01*
X009110Y013704D01*
X009340Y013780D02*
X009417Y013704D01*
X009570Y013397D02*
X009647Y013397D01*
X009647Y013320D01*
X009570Y013320D01*
X009570Y013397D01*
X009800Y013320D02*
X010107Y013320D01*
X010182Y013370D02*
X010489Y013370D01*
X010568Y013320D02*
X010338Y013320D01*
X010261Y013397D01*
X010261Y013627D01*
X010182Y013677D02*
X010335Y013830D01*
X010335Y013370D01*
X010282Y013160D02*
X011042Y013160D01*
X011102Y013370D02*
X011102Y013830D01*
X011028Y013780D02*
X010721Y013780D01*
X010721Y013320D01*
X010719Y013370D02*
X010642Y013447D01*
X010949Y013754D01*
X010949Y013447D01*
X010872Y013370D01*
X010719Y013370D01*
X010642Y013447D02*
X010642Y013754D01*
X010719Y013830D01*
X010872Y013830D01*
X010949Y013754D01*
X010875Y013550D02*
X010721Y013550D01*
X010568Y013627D02*
X010568Y013320D01*
X011102Y013523D02*
X011333Y013677D01*
X011102Y013523D02*
X011333Y013370D01*
X011042Y012540D02*
X010282Y012540D01*
X009954Y013320D02*
X009954Y013780D01*
X009800Y013627D01*
X008602Y013727D02*
X008602Y013497D01*
X008542Y014660D02*
X007782Y014660D01*
X011021Y005520D02*
X011302Y005520D01*
X011302Y005185D02*
X011021Y005185D01*
X012234Y005193D02*
X012589Y005193D01*
X012589Y005507D02*
X012234Y005507D01*
D15*
X011217Y014350D03*
X010107Y014350D03*
D16*
X008684Y014350D03*
X007639Y014350D03*
X007639Y012850D03*
X008684Y012850D03*
X010139Y012850D03*
X011184Y012850D03*
D17*
X013819Y011590D02*
X015866Y011590D01*
X016457Y011590D01*
X019683Y011590D01*
X019683Y006610D01*
X015866Y006610D01*
X013819Y006610D01*
X013819Y011590D01*
X015867Y011590D02*
X015881Y011621D01*
X015899Y011650D01*
X015920Y011677D01*
X015944Y011701D01*
X015970Y011723D01*
X015999Y011742D01*
X016029Y011758D01*
X016061Y011771D01*
X016094Y011780D01*
X016128Y011785D01*
X016162Y011787D01*
X016196Y011785D01*
X016230Y011780D01*
X016263Y011771D01*
X016295Y011758D01*
X016325Y011742D01*
X016354Y011723D01*
X016380Y011701D01*
X016404Y011677D01*
X016425Y011650D01*
X016443Y011621D01*
X016457Y011590D01*
X016457Y006610D02*
X016443Y006579D01*
X016425Y006550D01*
X016404Y006523D01*
X016380Y006499D01*
X016354Y006477D01*
X016325Y006458D01*
X016295Y006442D01*
X016263Y006429D01*
X016230Y006420D01*
X016196Y006415D01*
X016162Y006413D01*
X016128Y006415D01*
X016094Y006420D01*
X016061Y006429D01*
X016029Y006442D01*
X015999Y006458D01*
X015970Y006477D01*
X015944Y006499D01*
X015920Y006523D01*
X015899Y006550D01*
X015881Y006579D01*
X015867Y006610D01*
X006607Y012581D02*
X006055Y012581D01*
X005780Y012699D02*
X005780Y012975D01*
X005544Y012739D01*
X005544Y013211D01*
X005780Y012975D01*
X005780Y013251D01*
X006055Y013369D02*
X006607Y013369D01*
X006607Y012581D01*
X006004Y011590D02*
X003957Y011590D01*
X000140Y011590D01*
X000140Y006610D01*
X003366Y006610D01*
X003957Y006610D01*
X006004Y006610D01*
X006004Y011590D01*
X005268Y012581D02*
X004717Y012581D01*
X004717Y013369D01*
X005268Y013369D01*
X005268Y013831D02*
X004717Y013831D01*
X004717Y014619D01*
X005268Y014619D01*
X005544Y014461D02*
X005544Y013989D01*
X005780Y014225D01*
X005544Y014461D01*
X005780Y014501D02*
X005780Y014225D01*
X005780Y013949D01*
X006055Y013831D02*
X006607Y013831D01*
X006607Y014619D01*
X006055Y014619D01*
X003957Y011590D02*
X003943Y011621D01*
X003925Y011650D01*
X003904Y011677D01*
X003880Y011701D01*
X003854Y011723D01*
X003825Y011742D01*
X003795Y011758D01*
X003763Y011771D01*
X003730Y011780D01*
X003696Y011785D01*
X003662Y011787D01*
X003628Y011785D01*
X003594Y011780D01*
X003561Y011771D01*
X003529Y011758D01*
X003499Y011742D01*
X003470Y011723D01*
X003444Y011701D01*
X003420Y011677D01*
X003399Y011650D01*
X003381Y011621D01*
X003367Y011590D01*
X003367Y006610D02*
X003381Y006579D01*
X003399Y006550D01*
X003420Y006523D01*
X003444Y006499D01*
X003470Y006477D01*
X003499Y006458D01*
X003529Y006442D01*
X003561Y006429D01*
X003594Y006420D01*
X003628Y006415D01*
X003662Y006413D01*
X003696Y006415D01*
X003730Y006420D01*
X003763Y006429D01*
X003795Y006442D01*
X003825Y006458D01*
X003854Y006477D01*
X003880Y006499D01*
X003904Y006523D01*
X003925Y006550D01*
X003943Y006579D01*
X003957Y006610D01*
D18*
X003480Y007980D02*
X003273Y007980D01*
X003221Y008032D01*
X003221Y008135D01*
X003273Y008187D01*
X003221Y008275D02*
X003532Y008481D01*
X003221Y008481D01*
X003221Y008569D02*
X003221Y008724D01*
X003273Y008776D01*
X003480Y008776D01*
X003532Y008724D01*
X003532Y008569D01*
X003221Y008569D01*
X003221Y008275D02*
X003532Y008275D01*
X003480Y008187D02*
X003377Y008187D01*
X003377Y008083D01*
X003480Y007980D02*
X003532Y008032D01*
X003532Y008135D01*
X003480Y008187D01*
X003480Y009355D02*
X003532Y009407D01*
X003532Y009510D01*
X003480Y009562D01*
X003428Y009562D01*
X003377Y009510D01*
X003377Y009407D01*
X003325Y009355D01*
X003273Y009355D01*
X003221Y009407D01*
X003221Y009510D01*
X003273Y009562D01*
X003273Y009650D02*
X003480Y009650D01*
X003532Y009701D01*
X003532Y009805D01*
X003480Y009856D01*
X003532Y009944D02*
X003532Y010151D01*
X003532Y009944D02*
X003221Y009944D01*
X003273Y009856D02*
X003221Y009805D01*
X003221Y009701D01*
X003273Y009650D01*
X001282Y009569D02*
X001075Y009569D01*
X000971Y009673D01*
X001075Y009776D01*
X001282Y009776D01*
X001127Y009776D02*
X001127Y009569D01*
X001230Y009481D02*
X001023Y009481D01*
X000971Y009430D01*
X000971Y009275D01*
X001282Y009275D01*
X001282Y009430D01*
X001230Y009481D01*
X001230Y009187D02*
X001178Y009187D01*
X001127Y009135D01*
X001127Y009032D01*
X001075Y008980D01*
X001023Y008980D01*
X000971Y009032D01*
X000971Y009135D01*
X001023Y009187D01*
X001230Y009187D02*
X001282Y009135D01*
X001282Y009032D01*
X001230Y008980D01*
X001178Y008731D02*
X000971Y008731D01*
X000971Y008525D02*
X001178Y008525D01*
X001282Y008628D01*
X001178Y008731D01*
X001127Y008437D02*
X001230Y008437D01*
X001282Y008385D01*
X001282Y008282D01*
X001230Y008230D01*
X001127Y008230D02*
X001075Y008333D01*
X001075Y008385D01*
X001127Y008437D01*
X000971Y008437D02*
X000971Y008230D01*
X001127Y008230D01*
X001075Y010105D02*
X000971Y010208D01*
X001282Y010208D01*
X001282Y010105D02*
X001282Y010312D01*
X001282Y010400D02*
X001075Y010606D01*
X001023Y010606D01*
X000971Y010555D01*
X000971Y010451D01*
X001023Y010400D01*
X001282Y010400D02*
X001282Y010606D01*
X001178Y010694D02*
X001282Y010798D01*
X001178Y010901D01*
X000971Y010901D01*
X000971Y010694D02*
X001178Y010694D01*
X005267Y012280D02*
X005367Y012280D01*
X005414Y012280D02*
X005414Y012430D01*
X005514Y012280D01*
X005514Y012430D01*
X005561Y012430D02*
X005561Y012355D01*
X005611Y012380D01*
X005636Y012380D01*
X005661Y012355D01*
X005661Y012305D01*
X005636Y012280D01*
X005586Y012280D01*
X005561Y012305D01*
X005561Y012430D02*
X005661Y012430D01*
X005709Y012405D02*
X005709Y012380D01*
X005734Y012355D01*
X005784Y012355D01*
X005809Y012330D01*
X005809Y012305D01*
X005784Y012280D01*
X005734Y012280D01*
X005709Y012305D01*
X005709Y012330D01*
X005734Y012355D01*
X005784Y012355D02*
X005809Y012380D01*
X005809Y012405D01*
X005784Y012430D01*
X005734Y012430D01*
X005709Y012405D01*
X005856Y012380D02*
X005906Y012430D01*
X005906Y012280D01*
X005856Y012280D02*
X005956Y012280D01*
X006003Y012280D02*
X006078Y012280D01*
X006103Y012305D01*
X006103Y012405D01*
X006078Y012430D01*
X006003Y012430D01*
X006003Y012280D01*
X006151Y012280D02*
X006251Y012280D01*
X006298Y012280D02*
X006398Y012380D01*
X006398Y012405D01*
X006373Y012430D01*
X006323Y012430D01*
X006298Y012405D01*
X006201Y012430D02*
X006201Y012280D01*
X006298Y012280D02*
X006398Y012280D01*
X006445Y012305D02*
X006545Y012405D01*
X006545Y012305D01*
X006520Y012280D01*
X006470Y012280D01*
X006445Y012305D01*
X006445Y012405D01*
X006470Y012430D01*
X006520Y012430D01*
X006545Y012405D01*
X006593Y012355D02*
X006668Y012355D01*
X006693Y012330D01*
X006693Y012305D01*
X006668Y012280D01*
X006618Y012280D01*
X006593Y012305D01*
X006593Y012355D01*
X006643Y012405D01*
X006693Y012430D01*
X006201Y012430D02*
X006151Y012380D01*
X005317Y012430D02*
X005317Y012280D01*
X005267Y012380D02*
X005317Y012430D01*
X005317Y013530D02*
X005317Y013680D01*
X005267Y013630D01*
X005267Y013530D02*
X005367Y013530D01*
X005414Y013530D02*
X005414Y013680D01*
X005514Y013530D01*
X005514Y013680D01*
X005561Y013680D02*
X005561Y013605D01*
X005611Y013630D01*
X005636Y013630D01*
X005661Y013605D01*
X005661Y013555D01*
X005636Y013530D01*
X005586Y013530D01*
X005561Y013555D01*
X005561Y013680D02*
X005661Y013680D01*
X005709Y013655D02*
X005734Y013680D01*
X005784Y013680D01*
X005809Y013655D01*
X005809Y013630D01*
X005784Y013605D01*
X005734Y013605D01*
X005709Y013630D01*
X005709Y013655D01*
X005734Y013605D02*
X005709Y013580D01*
X005709Y013555D01*
X005734Y013530D01*
X005784Y013530D01*
X005809Y013555D01*
X005809Y013580D01*
X005784Y013605D01*
X005856Y013630D02*
X005906Y013680D01*
X005906Y013530D01*
X005856Y013530D02*
X005956Y013530D01*
X006003Y013530D02*
X006078Y013530D01*
X006103Y013555D01*
X006103Y013655D01*
X006078Y013680D01*
X006003Y013680D01*
X006003Y013530D01*
X006151Y013530D02*
X006251Y013530D01*
X006298Y013530D02*
X006398Y013630D01*
X006398Y013655D01*
X006373Y013680D01*
X006323Y013680D01*
X006298Y013655D01*
X006201Y013680D02*
X006201Y013530D01*
X006298Y013530D02*
X006398Y013530D01*
X006445Y013555D02*
X006545Y013655D01*
X006545Y013555D01*
X006520Y013530D01*
X006470Y013530D01*
X006445Y013555D01*
X006445Y013655D01*
X006470Y013680D01*
X006520Y013680D01*
X006545Y013655D01*
X006593Y013605D02*
X006668Y013605D01*
X006693Y013580D01*
X006693Y013555D01*
X006668Y013530D01*
X006618Y013530D01*
X006593Y013555D01*
X006593Y013605D01*
X006643Y013655D01*
X006693Y013680D01*
X006201Y013680D02*
X006151Y013630D01*
X010817Y005055D02*
X010817Y004905D01*
X010767Y004905D02*
X010867Y004905D01*
X010914Y004930D02*
X011014Y005030D01*
X011014Y004930D01*
X010989Y004905D01*
X010939Y004905D01*
X010914Y004930D01*
X010914Y005030D01*
X010939Y005055D01*
X010989Y005055D01*
X011014Y005030D01*
X011061Y005055D02*
X011061Y004905D01*
X011061Y004955D02*
X011136Y005005D01*
X011061Y004955D02*
X011136Y004905D01*
X010817Y005055D02*
X010767Y005005D01*
X016291Y008023D02*
X016343Y007971D01*
X016395Y007971D01*
X016447Y008023D01*
X016447Y008126D01*
X016498Y008178D01*
X016550Y008178D01*
X016602Y008126D01*
X016602Y008023D01*
X016550Y007971D01*
X016291Y008023D02*
X016291Y008126D01*
X016343Y008178D01*
X016343Y008266D02*
X016550Y008266D01*
X016602Y008317D01*
X016602Y008421D01*
X016550Y008473D01*
X016602Y008560D02*
X016602Y008767D01*
X016602Y008560D02*
X016291Y008560D01*
X016343Y008473D02*
X016291Y008421D01*
X016291Y008317D01*
X016343Y008266D01*
X016343Y009346D02*
X016550Y009346D01*
X016602Y009398D01*
X016602Y009501D01*
X016550Y009553D01*
X016447Y009553D01*
X016447Y009449D01*
X016343Y009346D02*
X016291Y009398D01*
X016291Y009501D01*
X016343Y009553D01*
X016291Y009641D02*
X016602Y009848D01*
X016291Y009848D01*
X016291Y009935D02*
X016291Y010090D01*
X016343Y010142D01*
X016550Y010142D01*
X016602Y010090D01*
X016602Y009935D01*
X016291Y009935D01*
X016291Y009641D02*
X016602Y009641D01*
X018541Y009598D02*
X018541Y009391D01*
X018697Y009391D01*
X018645Y009494D01*
X018645Y009546D01*
X018697Y009598D01*
X018800Y009598D01*
X018852Y009546D01*
X018852Y009442D01*
X018800Y009391D01*
X018748Y009685D02*
X018541Y009685D01*
X018541Y009892D02*
X018748Y009892D01*
X018852Y009789D01*
X018748Y009685D01*
X018697Y009142D02*
X018697Y008935D01*
X018645Y008935D02*
X018541Y009039D01*
X018645Y009142D01*
X018852Y009142D01*
X018852Y008935D02*
X018645Y008935D01*
X018593Y008848D02*
X018800Y008848D01*
X018852Y008796D01*
X018852Y008641D01*
X018541Y008641D01*
X018541Y008796D01*
X018593Y008848D01*
X018593Y008553D02*
X018541Y008501D01*
X018541Y008398D01*
X018593Y008346D01*
X018645Y008346D01*
X018697Y008398D01*
X018697Y008501D01*
X018748Y008553D01*
X018800Y008553D01*
X018852Y008501D01*
X018852Y008398D01*
X018800Y008346D01*
X018748Y008017D02*
X018541Y008017D01*
X018541Y007810D02*
X018748Y007810D01*
X018852Y007914D01*
X018748Y008017D01*
X018645Y007723D02*
X018593Y007723D01*
X018541Y007671D01*
X018541Y007567D01*
X018593Y007516D01*
X018541Y007324D02*
X018852Y007324D01*
X018852Y007221D02*
X018852Y007428D01*
X018852Y007516D02*
X018645Y007723D01*
X018852Y007723D02*
X018852Y007516D01*
X018645Y007221D02*
X018541Y007324D01*
D19*
X011390Y005352D03*
X010930Y005352D03*
D20*
X011162Y005350D03*
D21*
X012156Y005350D03*
X012668Y005350D03*
D22*
X012471Y005202D03*
X012471Y005498D03*
D23*
X012471Y005350D03*
D24*
X002662Y002100D02*
X002662Y001350D01*
X008662Y001350D01*
X008662Y002100D01*
X002662Y002100D01*
X002662Y003850D01*
X008662Y003850D01*
X008662Y002100D01*
X011162Y002100D02*
X011162Y001350D01*
X017162Y001350D01*
X017162Y002100D01*
X011162Y002100D01*
X011162Y003850D01*
X017162Y003850D01*
X017162Y002100D01*
X017162Y015850D02*
X011162Y015850D01*
X011162Y017600D01*
X017162Y017600D01*
X017162Y015850D01*
X017162Y017600D02*
X017162Y018350D01*
X011162Y018350D01*
X011162Y017600D01*
X008662Y017600D02*
X008662Y015850D01*
X002662Y015850D01*
X002662Y017600D01*
X008662Y017600D01*
X008662Y018350D01*
X002662Y018350D01*
X002662Y017600D01*
M02*
