%
M48
M72
T01C0.0240
T02C0.0320
T03C0.0354
T04C0.0440
T05C0.0512
T06C0.0550
T07C0.1260
T08C0.1280
%
T01
X16600Y1204
X16600Y11704
X15600Y12204
X19600Y12204
T02
X17600Y13204
X16600Y13204
X16100Y10204
X16100Y9204
X16100Y8204
X16100Y7204
X16100Y6204
X16100Y5204
X16100Y4204
X16100Y3204
X16100Y2204
X13100Y2204
X13100Y3204
X13100Y4204
X13100Y5204
X13100Y6204
X13100Y7204
X13100Y8204
X13100Y9204
X13100Y10204
X10600Y13204
X9600Y13204
X8600Y10204
X8600Y9204
X8600Y8204
X8600Y7204
X8600Y6204
X8600Y5204
X8600Y4204
X8600Y3204
X8600Y2204
X5600Y2204
X5600Y3204
X5600Y4204
X5600Y5204
X5600Y6204
X5600Y7204
X5600Y8204
X5600Y9204
X5600Y10204
X19600Y9704
X20600Y9704
X21600Y9704
X24600Y8704
X25600Y8704
X21600Y6704
X20600Y6704
X19600Y6704
X24400Y2704
X25800Y2704
X24600Y13204
X23600Y13204
X30600Y13204
X31600Y13204
T03
X30350Y6704
X29350Y6704
X28350Y6704
X28850Y5704
X29850Y5704
X30850Y5704
X34850Y6704
X35850Y6704
X36850Y6704
X36350Y5704
X37350Y5704
X35350Y5704
T04
X10600Y6204
X10600Y2204
T05
X8600Y15779
X6238Y16566
X10962Y16566
X13238Y16566
X15600Y15779
X17962Y16566
X20238Y16566
X22600Y15779
X24962Y16566
X27238Y16566
X29600Y15779
X31962Y16566
X31962Y21369
X27238Y21369
X24962Y21369
X20238Y21369
X17962Y21369
X13238Y21369
X10962Y21369
X6238Y21369
T06
X6350Y25704
X8600Y25704
X10850Y25704
X13350Y25704
X15600Y25704
X17850Y25704
X20350Y25704
X22600Y25704
X24850Y25704
X27350Y25704
X29600Y25704
X31850Y25704
X36600Y25704
X36600Y23704
T07
X3600Y1704
X40100Y1704
X40100Y28204
X3600Y28204
T08
X27600Y3204
X31600Y3204
X34100Y3204
X38100Y3204
M30
