%
M48
M72
T01C0.0120
T02C0.0315
T03C0.0320
T04C0.0350
T05C0.0394
T06C0.0472
T07C0.0929
T08C0.0935
%
T01
X5883Y2810
X6363Y2750
X6123Y3410
X8163Y3050
X8823Y2990
X9123Y3050
X9483Y3050
X9783Y2990
X11883Y2750
X12423Y2510
X11643Y1610
X15063Y1610
X12603Y3770
X12663Y4850
X14583Y5390
X14343Y5930
X15663Y5810
X11043Y9470
X5103Y8210
X3123Y9230
X4383Y6530
X4383Y6170
X4383Y5810
X5463Y5690
X6363Y4550
X6123Y1850
T02
X4388Y2350
X3388Y2744
X4388Y3153
X3388Y3547
X4388Y3956
X3388Y4350
X16577Y4350
X17577Y3956
X16577Y3547
X17577Y3153
X16577Y2744
X17577Y2350
T03
X16733Y6850
X14983Y6850
X13233Y6850
X13233Y7850
X14983Y7850
X16733Y7850
X18483Y7850
X18483Y6850
T04
X3733Y7850
X1733Y7450
X1733Y8250
T05
X7733Y8244
X7733Y7556
X7733Y6869
X10733Y6869
X10733Y7556
X10733Y8244
X10733Y8931
X7733Y8931
T06
X17855Y9600
X19233Y9600
T07
X2483Y988
X2483Y5712
X18483Y5712
X18483Y988
T08
X3733Y6850
X2483Y6850
X2483Y8850
X3733Y8850
M30
