G75*
G70*
%OFA0B0*%
%FSLAX24Y24*%
%IPPOS*%
%LPD*%
%AMOC8*
5,1,8,0,0,1.08239X$1,22.5*
%
%ADD10C,0.0010*%
%ADD11R,0.0660X0.0660*%
%ADD12OC8,0.0660*%
%ADD13C,0.0554*%
%ADD14OC8,0.0520*%
%ADD15R,0.0260X0.1200*%
%ADD16R,0.0787X0.0630*%
%ADD17R,0.0630X0.0787*%
%ADD18C,0.0594*%
%ADD19C,0.1181*%
%ADD20C,0.1266*%
%ADD21R,0.1181X0.1181*%
%ADD22C,0.0660*%
%ADD23C,0.0540*%
%ADD24C,0.0400*%
%ADD25C,0.0180*%
%ADD26C,0.0360*%
D10*
X043322Y022943D02*
X043322Y023743D01*
X043558Y023657D01*
X043802Y023595D01*
X044051Y023557D01*
X044302Y023543D01*
X044342Y023543D01*
X044593Y023557D01*
X044842Y023595D01*
X045086Y023657D01*
X045322Y023743D01*
X045322Y022943D01*
X043322Y022943D01*
X043322Y022945D02*
X045322Y022945D01*
X045322Y022954D02*
X043322Y022954D01*
X043322Y022962D02*
X045322Y022962D01*
X045322Y022971D02*
X043322Y022971D01*
X043322Y022980D02*
X045322Y022980D01*
X045322Y022988D02*
X043322Y022988D01*
X043322Y022997D02*
X045322Y022997D01*
X045322Y023005D02*
X043322Y023005D01*
X043322Y023014D02*
X045322Y023014D01*
X045322Y023022D02*
X043322Y023022D01*
X043322Y023031D02*
X045322Y023031D01*
X045322Y023039D02*
X043322Y023039D01*
X043322Y023048D02*
X045322Y023048D01*
X045322Y023056D02*
X043322Y023056D01*
X043322Y023065D02*
X045322Y023065D01*
X045322Y023074D02*
X043322Y023074D01*
X043322Y023082D02*
X045322Y023082D01*
X045322Y023091D02*
X043322Y023091D01*
X043322Y023099D02*
X045322Y023099D01*
X045322Y023108D02*
X043322Y023108D01*
X043322Y023116D02*
X045322Y023116D01*
X045322Y023125D02*
X043322Y023125D01*
X043322Y023133D02*
X045322Y023133D01*
X045322Y023142D02*
X043322Y023142D01*
X043322Y023150D02*
X045322Y023150D01*
X045322Y023159D02*
X043322Y023159D01*
X043322Y023168D02*
X045322Y023168D01*
X045322Y023176D02*
X043322Y023176D01*
X043322Y023185D02*
X045322Y023185D01*
X045322Y023193D02*
X043322Y023193D01*
X043322Y023202D02*
X045322Y023202D01*
X045322Y023210D02*
X043322Y023210D01*
X043322Y023219D02*
X045322Y023219D01*
X045322Y023227D02*
X043322Y023227D01*
X043322Y023236D02*
X045322Y023236D01*
X045322Y023244D02*
X043322Y023244D01*
X043322Y023253D02*
X045322Y023253D01*
X045322Y023261D02*
X043322Y023261D01*
X043322Y023270D02*
X045322Y023270D01*
X045322Y023279D02*
X043322Y023279D01*
X043322Y023287D02*
X045322Y023287D01*
X045322Y023296D02*
X043322Y023296D01*
X043322Y023304D02*
X045322Y023304D01*
X045322Y023313D02*
X043322Y023313D01*
X043322Y023321D02*
X045322Y023321D01*
X045322Y023330D02*
X043322Y023330D01*
X043322Y023338D02*
X045322Y023338D01*
X045322Y023347D02*
X043322Y023347D01*
X043322Y023355D02*
X045322Y023355D01*
X045322Y023364D02*
X043322Y023364D01*
X043322Y023373D02*
X045322Y023373D01*
X045322Y023381D02*
X043322Y023381D01*
X043322Y023390D02*
X045322Y023390D01*
X045322Y023398D02*
X043322Y023398D01*
X043322Y023407D02*
X045322Y023407D01*
X045322Y023415D02*
X043322Y023415D01*
X043322Y023424D02*
X045322Y023424D01*
X045322Y023432D02*
X043322Y023432D01*
X043322Y023441D02*
X045322Y023441D01*
X045322Y023449D02*
X043322Y023449D01*
X043322Y023458D02*
X045322Y023458D01*
X045322Y023467D02*
X043322Y023467D01*
X043322Y023475D02*
X045322Y023475D01*
X045322Y023484D02*
X043322Y023484D01*
X043322Y023492D02*
X045322Y023492D01*
X045322Y023501D02*
X043322Y023501D01*
X043322Y023509D02*
X045322Y023509D01*
X045322Y023518D02*
X043322Y023518D01*
X043322Y023526D02*
X045322Y023526D01*
X045322Y023535D02*
X043322Y023535D01*
X043322Y023543D02*
X044300Y023543D01*
X044344Y023543D02*
X045322Y023543D01*
X045322Y023552D02*
X044503Y023552D01*
X044617Y023561D02*
X045322Y023561D01*
X045322Y023569D02*
X044673Y023569D01*
X044729Y023578D02*
X045322Y023578D01*
X045322Y023586D02*
X044784Y023586D01*
X044840Y023595D02*
X045322Y023595D01*
X045322Y023603D02*
X044874Y023603D01*
X044908Y023612D02*
X045322Y023612D01*
X045322Y023620D02*
X044941Y023620D01*
X044974Y023629D02*
X045322Y023629D01*
X045322Y023637D02*
X045008Y023637D01*
X045041Y023646D02*
X045322Y023646D01*
X045322Y023654D02*
X045075Y023654D01*
X045101Y023663D02*
X045322Y023663D01*
X045322Y023672D02*
X045125Y023672D01*
X045148Y023680D02*
X045322Y023680D01*
X045322Y023689D02*
X045172Y023689D01*
X045195Y023697D02*
X045322Y023697D01*
X045322Y023706D02*
X045219Y023706D01*
X045242Y023714D02*
X045322Y023714D01*
X045322Y023723D02*
X045266Y023723D01*
X045289Y023731D02*
X045322Y023731D01*
X045322Y023740D02*
X045313Y023740D01*
X045219Y023962D02*
X043425Y023962D01*
X043404Y023971D02*
X045240Y023971D01*
X045262Y023979D02*
X043382Y023979D01*
X043361Y023988D02*
X044180Y023988D01*
X044222Y023988D02*
X044422Y023988D01*
X044422Y023983D02*
X044655Y024007D01*
X044885Y024055D01*
X045108Y024128D01*
X045322Y024223D01*
X045322Y024003D01*
X045087Y023910D01*
X044844Y023841D01*
X044594Y023799D01*
X044342Y023783D01*
X044322Y023783D01*
X044065Y023797D01*
X043810Y023839D01*
X043562Y023908D01*
X043322Y024003D01*
X043322Y024223D01*
X043536Y024128D01*
X043759Y024055D01*
X043989Y024007D01*
X044222Y023983D01*
X044222Y024183D01*
X044422Y024183D01*
X044422Y023983D01*
X044422Y023996D02*
X044222Y023996D01*
X044222Y024005D02*
X044422Y024005D01*
X044422Y024013D02*
X044222Y024013D01*
X044222Y024022D02*
X044422Y024022D01*
X044422Y024030D02*
X044222Y024030D01*
X044222Y024039D02*
X044422Y024039D01*
X044422Y024047D02*
X044222Y024047D01*
X044222Y024056D02*
X044422Y024056D01*
X044422Y024065D02*
X044222Y024065D01*
X044222Y024073D02*
X044422Y024073D01*
X044422Y024082D02*
X044222Y024082D01*
X044222Y024090D02*
X044422Y024090D01*
X044422Y024099D02*
X044222Y024099D01*
X044222Y024107D02*
X044422Y024107D01*
X044422Y024116D02*
X044222Y024116D01*
X044222Y024124D02*
X044422Y024124D01*
X044422Y024133D02*
X044222Y024133D01*
X044222Y024141D02*
X044422Y024141D01*
X044422Y024150D02*
X044222Y024150D01*
X044222Y024159D02*
X044422Y024159D01*
X044422Y024167D02*
X044222Y024167D01*
X044222Y024176D02*
X044422Y024176D01*
X044464Y023988D02*
X045283Y023988D01*
X045305Y023996D02*
X044549Y023996D01*
X044634Y024005D02*
X045322Y024005D01*
X045322Y024013D02*
X044686Y024013D01*
X044726Y024022D02*
X045322Y024022D01*
X045322Y024030D02*
X044767Y024030D01*
X044808Y024039D02*
X045322Y024039D01*
X045322Y024047D02*
X044848Y024047D01*
X044887Y024056D02*
X045322Y024056D01*
X045322Y024065D02*
X044914Y024065D01*
X044940Y024073D02*
X045322Y024073D01*
X045322Y024082D02*
X044966Y024082D01*
X044993Y024090D02*
X045322Y024090D01*
X045322Y024099D02*
X045019Y024099D01*
X045045Y024107D02*
X045322Y024107D01*
X045322Y024116D02*
X045072Y024116D01*
X045098Y024124D02*
X045322Y024124D01*
X045322Y024133D02*
X045120Y024133D01*
X045139Y024141D02*
X045322Y024141D01*
X045322Y024150D02*
X045158Y024150D01*
X045177Y024159D02*
X045322Y024159D01*
X045322Y024167D02*
X045196Y024167D01*
X045216Y024176D02*
X045322Y024176D01*
X045322Y024184D02*
X045235Y024184D01*
X045254Y024193D02*
X045322Y024193D01*
X045322Y024201D02*
X045273Y024201D01*
X045292Y024210D02*
X045322Y024210D01*
X045322Y024218D02*
X045311Y024218D01*
X045322Y024383D02*
X043322Y024383D01*
X043322Y024583D01*
X045322Y024583D01*
X045322Y024383D01*
X045322Y024389D02*
X043322Y024389D01*
X043322Y024398D02*
X045322Y024398D01*
X045322Y024406D02*
X043322Y024406D01*
X043322Y024415D02*
X045322Y024415D01*
X045322Y024423D02*
X043322Y024423D01*
X043322Y024432D02*
X045322Y024432D01*
X045322Y024440D02*
X043322Y024440D01*
X043322Y024449D02*
X045322Y024449D01*
X045322Y024458D02*
X043322Y024458D01*
X043322Y024466D02*
X045322Y024466D01*
X045322Y024475D02*
X043322Y024475D01*
X043322Y024483D02*
X045322Y024483D01*
X045322Y024492D02*
X043322Y024492D01*
X043322Y024500D02*
X045322Y024500D01*
X045322Y024509D02*
X043322Y024509D01*
X043322Y024517D02*
X045322Y024517D01*
X045322Y024526D02*
X043322Y024526D01*
X043322Y024534D02*
X045322Y024534D01*
X045322Y024543D02*
X043322Y024543D01*
X043322Y024552D02*
X045322Y024552D01*
X045322Y024560D02*
X043322Y024560D01*
X043322Y024569D02*
X045322Y024569D01*
X045322Y024577D02*
X043322Y024577D01*
X043322Y024683D02*
X043322Y024823D01*
X043439Y024883D01*
X043563Y024926D01*
X043691Y024953D01*
X043822Y024963D01*
X043953Y024953D01*
X044081Y024926D01*
X044205Y024883D01*
X044322Y024823D01*
X044322Y024693D01*
X044252Y024693D01*
X044156Y024740D01*
X044054Y024774D01*
X043949Y024796D01*
X043842Y024803D01*
X043802Y024803D01*
X043692Y024794D01*
X043584Y024771D01*
X043480Y024734D01*
X043382Y024683D01*
X043322Y024683D01*
X043322Y024688D02*
X043391Y024688D01*
X043408Y024697D02*
X043322Y024697D01*
X043322Y024705D02*
X043424Y024705D01*
X043441Y024714D02*
X043322Y024714D01*
X043322Y024722D02*
X043458Y024722D01*
X043474Y024731D02*
X043322Y024731D01*
X043322Y024739D02*
X043496Y024739D01*
X043520Y024748D02*
X043322Y024748D01*
X043322Y024757D02*
X043543Y024757D01*
X043567Y024765D02*
X043322Y024765D01*
X043322Y024774D02*
X043596Y024774D01*
X043636Y024782D02*
X043322Y024782D01*
X043322Y024791D02*
X043676Y024791D01*
X043754Y024799D02*
X043322Y024799D01*
X043322Y024808D02*
X044322Y024808D01*
X044322Y024816D02*
X043322Y024816D01*
X043325Y024825D02*
X044319Y024825D01*
X044302Y024833D02*
X043342Y024833D01*
X043359Y024842D02*
X044285Y024842D01*
X044268Y024851D02*
X043376Y024851D01*
X043393Y024859D02*
X044251Y024859D01*
X044235Y024868D02*
X043409Y024868D01*
X043426Y024876D02*
X044218Y024876D01*
X044199Y024885D02*
X043445Y024885D01*
X043469Y024893D02*
X044175Y024893D01*
X044151Y024902D02*
X043493Y024902D01*
X043517Y024910D02*
X044127Y024910D01*
X044102Y024919D02*
X043542Y024919D01*
X043568Y024927D02*
X044076Y024927D01*
X044036Y024936D02*
X043609Y024936D01*
X043649Y024945D02*
X043995Y024945D01*
X043954Y024953D02*
X043690Y024953D01*
X043799Y024962D02*
X043845Y024962D01*
X043849Y025132D02*
X045322Y025132D01*
X045322Y025124D02*
X043902Y025124D01*
X043954Y025115D02*
X045322Y025115D01*
X045322Y025107D02*
X044006Y025107D01*
X044058Y025098D02*
X045322Y025098D01*
X045322Y025090D02*
X044205Y025090D01*
X044322Y025083D02*
X044065Y025097D01*
X043810Y025139D01*
X043562Y025208D01*
X043322Y025303D01*
X043322Y025523D01*
X043536Y025428D01*
X043759Y025355D01*
X043989Y025307D01*
X044222Y025283D01*
X044222Y025483D01*
X044422Y025483D01*
X044422Y025283D01*
X045322Y025283D01*
X045322Y025083D01*
X044322Y025083D01*
X044222Y025286D02*
X044422Y025286D01*
X044422Y025295D02*
X044222Y025295D01*
X044222Y025303D02*
X044422Y025303D01*
X044422Y025312D02*
X044222Y025312D01*
X044222Y025320D02*
X044422Y025320D01*
X044422Y025329D02*
X044222Y025329D01*
X044222Y025338D02*
X044422Y025338D01*
X044422Y025346D02*
X044222Y025346D01*
X044222Y025355D02*
X044422Y025355D01*
X044422Y025363D02*
X044222Y025363D01*
X044222Y025372D02*
X044422Y025372D01*
X044422Y025380D02*
X044222Y025380D01*
X044222Y025389D02*
X044422Y025389D01*
X044422Y025397D02*
X044222Y025397D01*
X044222Y025406D02*
X044422Y025406D01*
X044422Y025414D02*
X044222Y025414D01*
X044222Y025423D02*
X044422Y025423D01*
X044422Y025431D02*
X044222Y025431D01*
X044222Y025440D02*
X044422Y025440D01*
X044422Y025449D02*
X044222Y025449D01*
X044222Y025457D02*
X044422Y025457D01*
X044422Y025466D02*
X044222Y025466D01*
X044222Y025474D02*
X044422Y025474D01*
X044422Y025483D02*
X044222Y025483D01*
X044194Y025286D02*
X043365Y025286D01*
X043386Y025278D02*
X045322Y025278D01*
X045322Y025269D02*
X043407Y025269D01*
X043429Y025261D02*
X045322Y025261D01*
X045322Y025252D02*
X043450Y025252D01*
X043472Y025244D02*
X045322Y025244D01*
X045322Y025235D02*
X043493Y025235D01*
X043515Y025226D02*
X045322Y025226D01*
X045322Y025218D02*
X043536Y025218D01*
X043558Y025209D02*
X045322Y025209D01*
X045322Y025201D02*
X043587Y025201D01*
X043618Y025192D02*
X045322Y025192D01*
X045322Y025184D02*
X043648Y025184D01*
X043679Y025175D02*
X045322Y025175D01*
X045322Y025167D02*
X043710Y025167D01*
X043741Y025158D02*
X045322Y025158D01*
X045322Y025150D02*
X043772Y025150D01*
X043802Y025141D02*
X045322Y025141D01*
X045087Y025810D02*
X044844Y025741D01*
X044594Y025699D01*
X044342Y025683D01*
X043322Y025683D01*
X043322Y025883D01*
X044422Y025883D01*
X044655Y025907D01*
X044885Y025955D01*
X045108Y026028D01*
X045322Y026123D01*
X045322Y025903D01*
X045087Y025810D01*
X045079Y025807D02*
X043322Y025807D01*
X043322Y025799D02*
X045049Y025799D01*
X045018Y025790D02*
X043322Y025790D01*
X043322Y025782D02*
X044988Y025782D01*
X044957Y025773D02*
X043322Y025773D01*
X043322Y025765D02*
X044927Y025765D01*
X044896Y025756D02*
X043322Y025756D01*
X043322Y025748D02*
X044866Y025748D01*
X044830Y025739D02*
X043322Y025739D01*
X043322Y025731D02*
X044779Y025731D01*
X044729Y025722D02*
X043322Y025722D01*
X043322Y025713D02*
X044678Y025713D01*
X044628Y025705D02*
X043322Y025705D01*
X043322Y025696D02*
X044548Y025696D01*
X044411Y025688D02*
X043322Y025688D01*
X043322Y025816D02*
X045103Y025816D01*
X045124Y025824D02*
X043322Y025824D01*
X043322Y025833D02*
X045146Y025833D01*
X045167Y025842D02*
X043322Y025842D01*
X043322Y025850D02*
X045189Y025850D01*
X045210Y025859D02*
X043322Y025859D01*
X043322Y025867D02*
X045232Y025867D01*
X045253Y025876D02*
X043322Y025876D01*
X043322Y026123D02*
X043322Y026943D01*
X045322Y026943D01*
X045322Y026363D01*
X045089Y026261D01*
X044846Y026186D01*
X044596Y026140D01*
X044342Y026123D01*
X043322Y026123D01*
X043322Y026124D02*
X044346Y026124D01*
X044474Y026132D02*
X043322Y026132D01*
X043322Y026141D02*
X044598Y026141D01*
X044644Y026149D02*
X043322Y026149D01*
X043322Y026158D02*
X044691Y026158D01*
X044737Y026166D02*
X043322Y026166D01*
X043322Y026175D02*
X044783Y026175D01*
X044829Y026183D02*
X043322Y026183D01*
X043322Y026192D02*
X044864Y026192D01*
X044892Y026200D02*
X043322Y026200D01*
X043322Y026209D02*
X044919Y026209D01*
X044947Y026217D02*
X043322Y026217D01*
X043322Y026226D02*
X044975Y026226D01*
X045003Y026235D02*
X043322Y026235D01*
X043322Y026243D02*
X045031Y026243D01*
X045059Y026252D02*
X043322Y026252D01*
X043322Y026260D02*
X045086Y026260D01*
X045107Y026269D02*
X043322Y026269D01*
X043322Y026277D02*
X045126Y026277D01*
X045146Y026286D02*
X043322Y026286D01*
X043322Y026294D02*
X045165Y026294D01*
X045184Y026303D02*
X043322Y026303D01*
X043322Y026311D02*
X045204Y026311D01*
X045223Y026320D02*
X043322Y026320D01*
X043322Y026329D02*
X045243Y026329D01*
X045262Y026337D02*
X043322Y026337D01*
X043322Y026346D02*
X045282Y026346D01*
X045301Y026354D02*
X043322Y026354D01*
X043322Y026363D02*
X045321Y026363D01*
X045322Y026371D02*
X043322Y026371D01*
X043322Y026380D02*
X045322Y026380D01*
X045322Y026388D02*
X043322Y026388D01*
X043322Y026397D02*
X045322Y026397D01*
X045322Y026405D02*
X043322Y026405D01*
X043322Y026414D02*
X045322Y026414D01*
X045322Y026423D02*
X043322Y026423D01*
X043322Y026431D02*
X045322Y026431D01*
X045322Y026440D02*
X043322Y026440D01*
X043322Y026448D02*
X045322Y026448D01*
X045322Y026457D02*
X043322Y026457D01*
X043322Y026465D02*
X045322Y026465D01*
X045322Y026474D02*
X043322Y026474D01*
X043322Y026482D02*
X045322Y026482D01*
X045322Y026491D02*
X043322Y026491D01*
X043322Y026499D02*
X045322Y026499D01*
X045322Y026508D02*
X043322Y026508D01*
X043322Y026516D02*
X045322Y026516D01*
X045322Y026525D02*
X043322Y026525D01*
X043322Y026534D02*
X045322Y026534D01*
X045322Y026542D02*
X043322Y026542D01*
X043322Y026551D02*
X045322Y026551D01*
X045322Y026559D02*
X043322Y026559D01*
X043322Y026568D02*
X045322Y026568D01*
X045322Y026576D02*
X043322Y026576D01*
X043322Y026585D02*
X045322Y026585D01*
X045322Y026593D02*
X043322Y026593D01*
X043322Y026602D02*
X045322Y026602D01*
X045322Y026610D02*
X043322Y026610D01*
X043322Y026619D02*
X045322Y026619D01*
X045322Y026628D02*
X043322Y026628D01*
X043322Y026636D02*
X045322Y026636D01*
X045322Y026645D02*
X043322Y026645D01*
X043322Y026653D02*
X045322Y026653D01*
X045322Y026662D02*
X043322Y026662D01*
X043322Y026670D02*
X045322Y026670D01*
X045322Y026679D02*
X043322Y026679D01*
X043322Y026687D02*
X045322Y026687D01*
X045322Y026696D02*
X043322Y026696D01*
X043322Y026704D02*
X045322Y026704D01*
X045322Y026713D02*
X043322Y026713D01*
X043322Y026722D02*
X045322Y026722D01*
X045322Y026730D02*
X043322Y026730D01*
X043322Y026739D02*
X045322Y026739D01*
X045322Y026747D02*
X043322Y026747D01*
X043322Y026756D02*
X045322Y026756D01*
X045322Y026764D02*
X043322Y026764D01*
X043322Y026773D02*
X045322Y026773D01*
X045322Y026781D02*
X043322Y026781D01*
X043322Y026790D02*
X045322Y026790D01*
X045322Y026798D02*
X043322Y026798D01*
X043322Y026807D02*
X045322Y026807D01*
X045322Y026816D02*
X043322Y026816D01*
X043322Y026824D02*
X045322Y026824D01*
X045322Y026833D02*
X043322Y026833D01*
X043322Y026841D02*
X045322Y026841D01*
X045322Y026850D02*
X043322Y026850D01*
X043322Y026858D02*
X045322Y026858D01*
X045322Y026867D02*
X043322Y026867D01*
X043322Y026875D02*
X045322Y026875D01*
X045322Y026884D02*
X043322Y026884D01*
X043322Y026892D02*
X045322Y026892D01*
X045322Y026901D02*
X043322Y026901D01*
X043322Y026909D02*
X045322Y026909D01*
X045322Y026918D02*
X043322Y026918D01*
X043322Y026927D02*
X045322Y026927D01*
X045322Y026935D02*
X043322Y026935D01*
X044430Y025884D02*
X045275Y025884D01*
X045296Y025893D02*
X044515Y025893D01*
X044600Y025901D02*
X045318Y025901D01*
X045322Y025910D02*
X044669Y025910D01*
X044710Y025918D02*
X045322Y025918D01*
X045322Y025927D02*
X044751Y025927D01*
X044791Y025936D02*
X045322Y025936D01*
X045322Y025944D02*
X044832Y025944D01*
X044873Y025953D02*
X045322Y025953D01*
X045322Y025961D02*
X044903Y025961D01*
X044930Y025970D02*
X045322Y025970D01*
X045322Y025978D02*
X044956Y025978D01*
X044982Y025987D02*
X045322Y025987D01*
X045322Y025995D02*
X045009Y025995D01*
X045035Y026004D02*
X045322Y026004D01*
X045322Y026012D02*
X045061Y026012D01*
X045088Y026021D02*
X045322Y026021D01*
X045322Y026030D02*
X045112Y026030D01*
X045131Y026038D02*
X045322Y026038D01*
X045322Y026047D02*
X045151Y026047D01*
X045170Y026055D02*
X045322Y026055D01*
X045322Y026064D02*
X045189Y026064D01*
X045208Y026072D02*
X045322Y026072D01*
X045322Y026081D02*
X045227Y026081D01*
X045246Y026089D02*
X045322Y026089D01*
X045322Y026098D02*
X045265Y026098D01*
X045284Y026106D02*
X045322Y026106D01*
X045322Y026115D02*
X045304Y026115D01*
X044109Y025295D02*
X043343Y025295D01*
X043322Y025303D02*
X044025Y025303D01*
X043965Y025312D02*
X043322Y025312D01*
X043322Y025320D02*
X043925Y025320D01*
X043884Y025329D02*
X043322Y025329D01*
X043322Y025338D02*
X043843Y025338D01*
X043803Y025346D02*
X043322Y025346D01*
X043322Y025355D02*
X043762Y025355D01*
X043735Y025363D02*
X043322Y025363D01*
X043322Y025372D02*
X043708Y025372D01*
X043682Y025380D02*
X043322Y025380D01*
X043322Y025389D02*
X043656Y025389D01*
X043629Y025397D02*
X043322Y025397D01*
X043322Y025406D02*
X043603Y025406D01*
X043577Y025414D02*
X043322Y025414D01*
X043322Y025423D02*
X043550Y025423D01*
X043527Y025431D02*
X043322Y025431D01*
X043322Y025440D02*
X043508Y025440D01*
X043489Y025449D02*
X043322Y025449D01*
X043322Y025457D02*
X043470Y025457D01*
X043451Y025466D02*
X043322Y025466D01*
X043322Y025474D02*
X043432Y025474D01*
X043413Y025483D02*
X043322Y025483D01*
X043322Y025491D02*
X043394Y025491D01*
X043374Y025500D02*
X043322Y025500D01*
X043322Y025508D02*
X043355Y025508D01*
X043336Y025517D02*
X043322Y025517D01*
X043897Y024799D02*
X044322Y024799D01*
X044322Y024791D02*
X043973Y024791D01*
X044016Y024782D02*
X044322Y024782D01*
X044322Y024774D02*
X044057Y024774D01*
X044082Y024765D02*
X044322Y024765D01*
X044322Y024757D02*
X044107Y024757D01*
X044132Y024748D02*
X044322Y024748D01*
X044322Y024739D02*
X044157Y024739D01*
X044175Y024731D02*
X044322Y024731D01*
X044322Y024722D02*
X044192Y024722D01*
X044210Y024714D02*
X044322Y024714D01*
X044322Y024705D02*
X044227Y024705D01*
X044245Y024697D02*
X044322Y024697D01*
X043877Y024030D02*
X043322Y024030D01*
X043322Y024022D02*
X043918Y024022D01*
X043959Y024013D02*
X043322Y024013D01*
X043322Y024005D02*
X044011Y024005D01*
X044095Y023996D02*
X043340Y023996D01*
X043322Y024039D02*
X043837Y024039D01*
X043796Y024047D02*
X043322Y024047D01*
X043322Y024056D02*
X043757Y024056D01*
X043730Y024065D02*
X043322Y024065D01*
X043322Y024073D02*
X043704Y024073D01*
X043678Y024082D02*
X043322Y024082D01*
X043322Y024090D02*
X043651Y024090D01*
X043625Y024099D02*
X043322Y024099D01*
X043322Y024107D02*
X043599Y024107D01*
X043572Y024116D02*
X043322Y024116D01*
X043322Y024124D02*
X043546Y024124D01*
X043524Y024133D02*
X043322Y024133D01*
X043322Y024141D02*
X043505Y024141D01*
X043486Y024150D02*
X043322Y024150D01*
X043322Y024159D02*
X043467Y024159D01*
X043448Y024167D02*
X043322Y024167D01*
X043322Y024176D02*
X043429Y024176D01*
X043409Y024184D02*
X043322Y024184D01*
X043322Y024193D02*
X043390Y024193D01*
X043371Y024201D02*
X043322Y024201D01*
X043322Y024210D02*
X043352Y024210D01*
X043333Y024218D02*
X043322Y024218D01*
X043447Y023954D02*
X045197Y023954D01*
X045176Y023945D02*
X043468Y023945D01*
X043490Y023936D02*
X045154Y023936D01*
X045133Y023928D02*
X043511Y023928D01*
X043533Y023919D02*
X045111Y023919D01*
X045090Y023911D02*
X043554Y023911D01*
X043582Y023902D02*
X045061Y023902D01*
X045030Y023894D02*
X043613Y023894D01*
X043643Y023885D02*
X045000Y023885D01*
X044969Y023877D02*
X043674Y023877D01*
X043705Y023868D02*
X044939Y023868D01*
X044908Y023860D02*
X043736Y023860D01*
X043767Y023851D02*
X044878Y023851D01*
X044847Y023842D02*
X043797Y023842D01*
X043841Y023834D02*
X044799Y023834D01*
X044749Y023825D02*
X043893Y023825D01*
X043945Y023817D02*
X044698Y023817D01*
X044648Y023808D02*
X043997Y023808D01*
X044050Y023800D02*
X044597Y023800D01*
X044466Y023791D02*
X044178Y023791D01*
X044141Y023552D02*
X043322Y023552D01*
X043322Y023561D02*
X044027Y023561D01*
X043971Y023569D02*
X043322Y023569D01*
X043322Y023578D02*
X043915Y023578D01*
X043860Y023586D02*
X043322Y023586D01*
X043322Y023595D02*
X043804Y023595D01*
X043770Y023603D02*
X043322Y023603D01*
X043322Y023612D02*
X043736Y023612D01*
X043703Y023620D02*
X043322Y023620D01*
X043322Y023629D02*
X043670Y023629D01*
X043636Y023637D02*
X043322Y023637D01*
X043322Y023646D02*
X043603Y023646D01*
X043570Y023654D02*
X043322Y023654D01*
X043322Y023663D02*
X043543Y023663D01*
X043519Y023672D02*
X043322Y023672D01*
X043322Y023680D02*
X043496Y023680D01*
X043472Y023689D02*
X043322Y023689D01*
X043322Y023697D02*
X043449Y023697D01*
X043425Y023706D02*
X043322Y023706D01*
X043322Y023714D02*
X043402Y023714D01*
X043378Y023723D02*
X043322Y023723D01*
X043322Y023731D02*
X043355Y023731D01*
X043331Y023740D02*
X043322Y023740D01*
D11*
X016562Y020212D03*
D12*
X015562Y020212D03*
X014562Y020212D03*
X013562Y020212D03*
X012562Y020212D03*
X011562Y020212D03*
X010562Y020212D03*
X009562Y020212D03*
X008562Y020212D03*
X007562Y020212D03*
X006562Y020212D03*
X005562Y020212D03*
X004562Y020212D03*
X003562Y020212D03*
X002562Y020212D03*
X002562Y014212D03*
X003562Y014212D03*
X004562Y014212D03*
X005562Y014212D03*
X006562Y014212D03*
X007562Y014212D03*
X008562Y014212D03*
X009562Y014212D03*
X010562Y014212D03*
X011562Y014212D03*
X012562Y014212D03*
X013562Y014212D03*
X014562Y014212D03*
X015562Y014212D03*
X016562Y014212D03*
D13*
X014312Y006712D03*
X013312Y006712D03*
X012312Y006712D03*
X012812Y005712D03*
X013812Y005712D03*
X014812Y005712D03*
X018812Y006712D03*
X019812Y006712D03*
X020812Y006712D03*
X020312Y005712D03*
X019312Y005712D03*
X021312Y005712D03*
X025312Y006712D03*
X026312Y006712D03*
X027312Y006712D03*
X026812Y005712D03*
X025812Y005712D03*
X027812Y005712D03*
X031812Y006712D03*
X032812Y006712D03*
X033812Y006712D03*
X033312Y005712D03*
X032312Y005712D03*
X034312Y005712D03*
X039062Y010962D03*
X040062Y011462D03*
X039062Y011962D03*
X040062Y012462D03*
X039062Y012962D03*
X040062Y013462D03*
X039062Y017462D03*
X040062Y017962D03*
X039062Y018462D03*
X040062Y018962D03*
X039062Y019462D03*
X040062Y019962D03*
X039812Y026212D03*
X038812Y026212D03*
X038312Y027212D03*
X039312Y027212D03*
X040312Y027212D03*
X040812Y026212D03*
X034312Y026212D03*
X033312Y026212D03*
X032312Y026212D03*
X031812Y027212D03*
X032812Y027212D03*
X033812Y027212D03*
X027812Y026212D03*
X026812Y026212D03*
X025812Y026212D03*
X025312Y027212D03*
X026312Y027212D03*
X027312Y027212D03*
X021312Y026212D03*
X020312Y026212D03*
X019312Y026212D03*
X018812Y027212D03*
X019812Y027212D03*
X020812Y027212D03*
X014812Y026212D03*
X013812Y026212D03*
X012812Y026212D03*
X012312Y027212D03*
X013312Y027212D03*
X014312Y027212D03*
X008312Y026212D03*
X007312Y026212D03*
X006312Y026212D03*
X005812Y027212D03*
X006812Y027212D03*
X007812Y027212D03*
D14*
X007562Y023712D03*
X006562Y023712D03*
X013062Y023712D03*
X014062Y023712D03*
X019562Y023712D03*
X020562Y023712D03*
X026062Y023712D03*
X027062Y023712D03*
X032562Y023712D03*
X033562Y023712D03*
X039062Y023712D03*
X040062Y023712D03*
X008562Y009212D03*
X008562Y008212D03*
X008562Y007212D03*
X008562Y006212D03*
D15*
X027062Y014407D03*
X027562Y014407D03*
X028062Y014407D03*
X028562Y014407D03*
X029062Y014407D03*
X029562Y014407D03*
X030062Y014407D03*
X030562Y014407D03*
X031062Y014407D03*
X031062Y018017D03*
X030562Y018017D03*
X030062Y018017D03*
X029562Y018017D03*
X029062Y018017D03*
X028562Y018017D03*
X028062Y018017D03*
X027562Y018017D03*
X027062Y018032D03*
D16*
X039062Y007763D03*
X039062Y006660D03*
X039062Y005763D03*
X039062Y004660D03*
X040562Y004660D03*
X040562Y005763D03*
X040562Y006660D03*
X040562Y007763D03*
D17*
X037613Y020462D03*
X036511Y020462D03*
X036511Y021712D03*
X037613Y021712D03*
D18*
X020187Y010268D03*
X020187Y009480D03*
X020187Y008693D03*
X020187Y007906D03*
X013687Y007906D03*
X013687Y008693D03*
X013687Y009480D03*
X013687Y010268D03*
D19*
X006062Y010783D03*
X001928Y007712D03*
X006062Y004641D03*
D20*
X002716Y004641D03*
X002716Y010783D03*
D21*
X004094Y008696D03*
X005531Y008775D03*
X005531Y006649D03*
X004094Y006727D03*
D22*
X029550Y020064D03*
X033550Y020064D03*
D23*
X033562Y020212D01*
X033562Y022712D01*
X034312Y023462D01*
X034312Y026212D01*
X032812Y027212D02*
X033562Y027962D01*
X035812Y027962D01*
X035812Y027212D01*
X035812Y026462D02*
X037312Y024962D01*
X038312Y025712D02*
X038312Y020462D01*
X039062Y019712D01*
X039062Y019462D01*
X037812Y018212D01*
X037812Y014212D01*
X038187Y013837D01*
X038062Y013712D01*
X038062Y005462D01*
X037812Y005462D01*
X037812Y004212D01*
X036812Y004212D01*
X035562Y005462D01*
X035562Y006712D01*
X033812Y006712D01*
X034312Y008212D02*
X034312Y012212D01*
X033312Y012212D02*
X033312Y012462D01*
X033062Y012712D01*
X033062Y013212D01*
X033312Y013462D01*
X033312Y019212D01*
X032812Y019712D01*
X032812Y020212D01*
X031812Y020212D02*
X031812Y021212D01*
X031062Y021962D01*
X030812Y021962D01*
X030312Y021462D01*
X029062Y021462D01*
X029062Y022212D01*
X029062Y021462D02*
X029062Y020712D01*
X028812Y020462D01*
X028812Y019712D01*
X027312Y019462D02*
X027062Y019212D01*
X027062Y018032D01*
X027062Y015962D01*
X027312Y011712D02*
X027312Y006712D01*
X025312Y006712D02*
X025312Y006212D01*
X025062Y005962D01*
X025062Y005462D01*
X026062Y004462D01*
X028062Y004462D01*
X029187Y005587D01*
X029812Y004962D01*
X029187Y005587D02*
X030062Y006462D01*
X030062Y006712D01*
X036312Y005712D02*
X036312Y008212D01*
X038062Y005462D02*
X038812Y004712D01*
X039062Y004660D01*
X039062Y004712D01*
X040562Y004712D01*
X040562Y004660D01*
X037062Y004962D02*
X037062Y010962D01*
X037062Y015962D01*
X038187Y013837D02*
X039062Y012962D01*
X040062Y012462D02*
X040062Y013462D01*
X040062Y016212D01*
X040312Y016462D01*
X040062Y018962D02*
X040062Y019962D01*
X038312Y025712D02*
X038812Y026212D01*
X031812Y026712D02*
X031562Y026462D01*
X031562Y026212D01*
X031812Y026712D02*
X031812Y027212D01*
X030562Y026212D02*
X030562Y022712D01*
X030812Y022462D01*
X030812Y021962D01*
X028312Y020962D02*
X028312Y025712D01*
X027812Y026212D01*
X026062Y025962D02*
X026062Y024712D01*
X025062Y025212D02*
X024812Y024962D01*
X024812Y022712D01*
X025312Y022212D01*
X025062Y025212D02*
X025062Y026462D01*
X025312Y026712D01*
X025312Y027212D01*
X025812Y026212D02*
X026062Y025962D01*
X024312Y026212D02*
X024312Y025462D01*
X024312Y026212D02*
X023062Y026212D01*
X023062Y027462D02*
X023062Y027962D01*
X020562Y027962D01*
X019812Y027212D01*
X018812Y027212D02*
X018812Y026712D01*
X018562Y026462D01*
X018562Y024962D01*
X016312Y022712D01*
X013812Y022712D02*
X013812Y021712D01*
X013562Y021712D01*
X013562Y020212D01*
X013562Y017712D01*
X013562Y014212D02*
X013562Y011462D01*
X014562Y010462D01*
X014562Y008962D01*
X014062Y009462D01*
X013812Y009462D01*
X013687Y009480D01*
X014562Y008962D02*
X014562Y006962D01*
X014312Y006712D01*
X015562Y005712D02*
X015812Y005962D01*
X015812Y012212D01*
X015562Y012212D01*
X015812Y012212D02*
X015812Y012462D01*
X015562Y012712D01*
X015562Y014212D01*
X018062Y010962D02*
X017562Y010462D01*
X017562Y007212D01*
X018437Y006337D01*
X018812Y006712D01*
X018437Y006337D02*
X016812Y004712D01*
X018312Y007712D02*
X018312Y009212D01*
X018562Y009462D01*
X021312Y009462D02*
X021312Y009212D01*
X021312Y007212D01*
X020812Y006712D01*
X021312Y005712D02*
X021312Y004962D01*
X022312Y007212D02*
X022312Y010962D01*
X021562Y011712D02*
X021562Y009712D01*
X021312Y009462D01*
X020562Y014462D02*
X020562Y015212D01*
X021062Y015712D01*
X012062Y021712D02*
X012062Y026462D01*
X012312Y026712D01*
X012312Y027212D01*
X012812Y026212D02*
X012812Y024712D01*
X011312Y025462D02*
X011312Y026212D01*
X010062Y026212D01*
X009812Y027212D02*
X009812Y027962D01*
X009062Y027962D01*
X008562Y028462D01*
X007812Y028462D01*
X006312Y026212D02*
X007562Y024962D01*
X016562Y026712D02*
X017812Y025462D01*
X019312Y026212D02*
X019812Y025712D01*
X019812Y024712D01*
X010812Y012212D02*
X010812Y008212D01*
X008562Y008212D02*
X008562Y007212D01*
X004312Y007712D02*
X004062Y007712D01*
X004062Y006962D01*
X004094Y006727D01*
X004062Y007712D02*
X004062Y008462D01*
X004094Y008696D01*
X040062Y012462D02*
X040312Y012462D01*
X040812Y011962D01*
X040812Y008462D01*
D24*
X040812Y008462D03*
X037062Y010962D03*
X035812Y011212D03*
X035062Y011212D03*
X034312Y012212D03*
X033312Y012212D03*
X029562Y013462D03*
X028562Y012962D03*
X027562Y012962D03*
X026562Y012962D03*
X025562Y013962D03*
X025562Y014962D03*
X027062Y015962D03*
X026312Y017212D03*
X026312Y018712D03*
X026062Y019712D03*
X025062Y019712D03*
X024562Y019712D03*
X025062Y020712D03*
X024062Y021712D03*
X023812Y022212D03*
X023062Y021212D03*
X022562Y021712D03*
X022062Y022212D03*
X020062Y020712D03*
X018562Y019462D03*
X020562Y018962D03*
X021562Y018962D03*
X022562Y018962D03*
X023312Y018962D03*
X021562Y019962D03*
X020562Y017212D03*
X020062Y016962D03*
X019062Y016212D03*
X020062Y015712D03*
X021062Y015712D03*
X020562Y014462D03*
X020062Y013962D03*
X019562Y013712D03*
X019062Y014212D03*
X018562Y015212D03*
X016312Y013462D03*
X017312Y012462D03*
X015562Y012212D03*
X015062Y011212D03*
X014312Y012962D03*
X012812Y012962D03*
X012062Y013712D03*
X010312Y013212D03*
X010812Y012212D03*
X010062Y009712D03*
X010812Y008212D03*
X015562Y005712D03*
X016812Y004712D03*
X018312Y007712D03*
X019312Y008712D03*
X018562Y009462D03*
X018312Y010212D03*
X018062Y010962D03*
X018812Y012462D03*
X019812Y012962D03*
X020812Y011962D03*
X021562Y011712D03*
X022312Y010962D03*
X023562Y010962D03*
X023062Y009712D03*
X021312Y009212D03*
X020812Y010212D03*
X023062Y008212D03*
X023562Y007962D03*
X023812Y007462D03*
X022312Y007212D03*
X022562Y004962D03*
X021312Y004962D03*
X019812Y001962D03*
X026562Y007962D03*
X028812Y009212D03*
X028812Y009962D03*
X027312Y011712D03*
X022062Y013462D03*
X015812Y017962D03*
X015312Y017462D03*
X013562Y017712D03*
X012812Y018462D03*
X012062Y018462D03*
X012562Y019462D03*
X012062Y021712D03*
X011312Y022212D03*
X013062Y022712D03*
X013562Y023212D03*
X013812Y022712D03*
X013562Y021712D03*
X015312Y021712D03*
X016312Y022712D03*
X019312Y024462D03*
X019812Y024712D03*
X017812Y025462D03*
X016562Y026712D03*
X013812Y028462D03*
X013062Y029462D03*
X009812Y027212D03*
X010062Y026212D03*
X011312Y025462D03*
X012812Y024712D03*
X008562Y024212D03*
X007562Y024962D03*
X007812Y028462D03*
X007812Y017462D03*
X007312Y015462D03*
X008562Y014962D03*
X011562Y015962D03*
X012562Y015962D03*
X004312Y007712D03*
X025312Y022212D03*
X027062Y020212D03*
X027312Y019462D03*
X027812Y018962D03*
X028812Y019712D03*
X028312Y020962D03*
X029062Y022212D03*
X030062Y022212D03*
X029062Y023962D03*
X030562Y026212D03*
X031562Y026212D03*
X032062Y024962D03*
X035062Y024712D03*
X035812Y023462D03*
X035312Y022712D03*
X035812Y021212D03*
X034312Y020462D03*
X032812Y020212D03*
X031812Y020212D03*
X034062Y019212D03*
X034562Y018962D03*
X032312Y016962D03*
X031562Y017712D03*
X030562Y016212D03*
X034812Y016712D03*
X036062Y016462D03*
X037062Y015962D03*
X035312Y015712D03*
X040312Y016462D03*
X040812Y014962D03*
X038062Y019712D03*
X040562Y022712D03*
X037312Y024962D03*
X035812Y026462D03*
X035812Y027212D03*
X037812Y028212D03*
X039062Y029962D03*
X029562Y027962D03*
X027312Y028462D03*
X025812Y028962D03*
X023062Y027462D03*
X023062Y026212D03*
X024312Y025462D03*
X025562Y024462D03*
X026062Y024712D03*
X033312Y009212D03*
X034312Y008212D03*
X036312Y008212D03*
X036312Y005712D03*
X037062Y004962D03*
X030062Y006712D03*
X029812Y004962D03*
X029562Y004462D03*
D25*
X031312Y004462D01*
X031312Y011962D01*
X031562Y012212D01*
X031562Y015962D01*
X030062Y017462D01*
X030062Y017962D01*
X030062Y018017D01*
X030062Y017962D02*
X029562Y017962D01*
X029562Y018017D01*
X029062Y018017D02*
X029062Y017962D01*
X028562Y017962D01*
X028562Y018017D01*
X028562Y018962D01*
X027812Y019712D01*
X027812Y023712D01*
X027312Y024212D01*
X027312Y026462D01*
X026812Y026962D01*
X026812Y030962D01*
X008562Y030962D01*
X007312Y029712D01*
X007312Y026962D01*
X007812Y026462D01*
X007812Y025962D01*
X008062Y025712D01*
X008062Y021712D01*
X009562Y020212D01*
X010062Y020462D02*
X010062Y014712D01*
X010562Y014212D01*
X011562Y014212D02*
X011562Y015962D01*
X012062Y016462D02*
X012062Y013712D01*
X012562Y014212D02*
X012562Y015962D01*
X012062Y016462D02*
X014312Y016462D01*
X015312Y017462D01*
X015812Y017962D02*
X018562Y015212D01*
X020062Y015712D02*
X020062Y016212D01*
X021312Y016212D01*
X022562Y014962D01*
X022562Y013462D01*
X026812Y013462D01*
X027062Y013212D01*
X027062Y012712D01*
X027812Y011962D01*
X027812Y010962D01*
X028812Y009962D01*
X028812Y009212D02*
X027812Y008212D01*
X027812Y006462D01*
X027562Y006212D01*
X025812Y006212D01*
X025812Y009962D01*
X023062Y012712D01*
X020312Y012712D01*
X020312Y010462D01*
X020187Y010268D01*
X020812Y010212D02*
X020812Y009212D01*
X020312Y008712D01*
X020187Y008693D01*
X019062Y006212D02*
X022562Y006212D01*
X022562Y004962D01*
X024312Y005462D02*
X024312Y010962D01*
X023062Y012212D01*
X020812Y012212D01*
X020812Y011962D01*
X020062Y013462D02*
X020062Y013962D01*
X019562Y013712D02*
X019562Y018462D01*
X015562Y018462D01*
X014562Y017462D01*
X014562Y017212D01*
X013312Y017212D01*
X012062Y018462D01*
X012562Y018712D02*
X012562Y019462D01*
X013062Y019962D01*
X013062Y022712D01*
X013562Y023212D02*
X013562Y024212D01*
X013812Y024462D01*
X013812Y026212D01*
X013312Y026462D02*
X013812Y026962D01*
X013812Y028462D01*
X013062Y029462D02*
X010312Y026712D01*
X009562Y026712D01*
X009562Y020962D01*
X010062Y020462D01*
X010562Y020212D02*
X010562Y021462D01*
X011312Y022212D01*
X012562Y023962D02*
X012812Y024212D01*
X013062Y024212D01*
X013312Y024462D01*
X013312Y026462D01*
X016062Y028462D02*
X016062Y023212D01*
X015812Y022962D01*
X015812Y020962D01*
X016562Y020212D01*
X015562Y020212D02*
X015562Y019212D01*
X017812Y019212D01*
X018062Y019462D01*
X018562Y019462D01*
X019562Y020212D02*
X019562Y018462D01*
X020562Y018962D02*
X021062Y019462D01*
X021062Y020462D01*
X021562Y020962D01*
X021562Y022462D01*
X021812Y022712D01*
X023062Y022712D01*
X023062Y021962D01*
X023562Y021462D01*
X023562Y019462D01*
X024312Y018712D01*
X026312Y018712D01*
X026562Y019212D02*
X026562Y025962D01*
X026812Y026212D01*
X025562Y024462D02*
X025562Y022712D01*
X026062Y022212D01*
X026062Y019712D01*
X026562Y019212D02*
X024312Y019212D01*
X024062Y019462D01*
X024062Y021712D01*
X023812Y022212D02*
X023562Y022462D01*
X023562Y023212D01*
X021812Y023212D01*
X021062Y022462D01*
X021062Y020962D01*
X020062Y019962D01*
X020062Y016962D01*
X020562Y017212D02*
X022312Y017212D01*
X025562Y013962D01*
X025562Y014962D02*
X022062Y018462D01*
X022062Y022212D01*
X020062Y020712D02*
X019562Y020212D01*
X024562Y020212D02*
X024562Y019712D01*
X024562Y020212D02*
X025062Y020712D01*
X027562Y018712D02*
X027562Y018017D01*
X027562Y017962D01*
X028062Y017962D01*
X028062Y018017D01*
X027562Y018712D02*
X027812Y018962D01*
X026312Y017212D02*
X026312Y015212D01*
X027062Y014462D01*
X027062Y014407D01*
X031062Y018212D02*
X031562Y017712D01*
X031062Y017962D02*
X031062Y018017D01*
X031062Y018212D01*
X031062Y017962D02*
X030562Y017962D01*
X030562Y018017D01*
X032312Y016962D02*
X032312Y021712D01*
X031062Y022962D01*
X031062Y026462D01*
X029562Y027962D01*
X027312Y028462D02*
X030062Y025712D01*
X030062Y022212D01*
X032062Y024962D02*
X033312Y026212D01*
X035812Y023462D02*
X037062Y022212D01*
X037062Y020962D01*
X037562Y020462D01*
X037613Y020462D01*
X037312Y019712D02*
X038062Y019712D01*
X037312Y019712D02*
X036562Y020462D01*
X036511Y020462D01*
X035812Y021212D02*
X036312Y021712D01*
X036511Y021712D01*
X037613Y021712D02*
X037812Y021712D01*
X037812Y028212D01*
X039062Y029962D02*
X042062Y026962D01*
X042062Y025212D01*
X041312Y024462D01*
X041312Y007462D01*
X040562Y006712D01*
X040562Y006660D01*
X040562Y005763D01*
X040062Y005212D02*
X041312Y005212D01*
X041312Y004212D01*
X039062Y001962D01*
X025812Y001962D01*
X025812Y003962D01*
X024312Y005462D01*
X019812Y001962D02*
X011062Y001962D01*
X008062Y004962D01*
X008062Y011712D01*
X005062Y011712D01*
X002562Y014212D01*
X006562Y014212D02*
X006562Y014712D01*
X007312Y015462D01*
X008562Y014962D02*
X005562Y017962D01*
X005562Y020212D01*
X007562Y020212D02*
X007812Y019962D01*
X007812Y017462D01*
X009062Y019712D02*
X009062Y008462D01*
X013062Y004462D01*
X016312Y004462D01*
X016562Y004212D01*
X017312Y004212D01*
X017312Y004462D01*
X019062Y006212D01*
X017312Y012462D02*
X016312Y013462D01*
X020062Y013462D02*
X022062Y013462D01*
X012812Y018462D02*
X012562Y018712D01*
X011062Y019712D02*
X011562Y020212D01*
X011062Y019712D02*
X011062Y013212D01*
X010062Y012212D01*
X010062Y009712D01*
X010312Y013212D02*
X009562Y013962D01*
X009562Y014212D01*
X009062Y019712D02*
X008562Y020212D01*
X012562Y020212D02*
X012562Y023962D01*
X016062Y028462D02*
X025312Y028462D01*
X025812Y028962D01*
X020312Y026212D02*
X020312Y024212D01*
X019562Y024212D01*
X019312Y024462D01*
X035312Y022712D02*
X035312Y015712D01*
X039062Y011962D02*
X038562Y011462D01*
X038562Y008462D01*
X039062Y007962D01*
X039062Y007763D01*
X040062Y008462D02*
X040062Y011462D01*
X040062Y008462D02*
X040562Y007962D01*
X040562Y007763D01*
X039062Y006660D02*
X039062Y005763D01*
X039062Y005712D01*
X039812Y005712D01*
X039812Y005462D01*
X040062Y005212D01*
X033312Y009212D02*
X032812Y008712D01*
X032812Y006712D01*
X040812Y014962D02*
X040812Y022462D01*
X040562Y022712D01*
D26*
X040062Y023712D02*
X041562Y025212D01*
X041562Y026462D01*
X040812Y027212D01*
X040312Y027212D01*
X035062Y026462D02*
X035062Y024712D01*
X035062Y023462D01*
X034812Y023212D01*
X034812Y019212D01*
X034562Y018962D01*
X034062Y019212D02*
X034312Y019462D01*
X034312Y020462D01*
X029062Y023962D02*
X029062Y025962D01*
X027812Y027212D01*
X027312Y027212D01*
X027062Y023712D02*
X027062Y020212D01*
X025562Y020212D02*
X025562Y021212D01*
X024062Y022712D01*
X024062Y023212D01*
X022062Y025212D01*
X022062Y026462D01*
X021312Y027212D01*
X020812Y027212D01*
X022062Y025212D02*
X020562Y023712D01*
X022562Y021712D02*
X022562Y018962D01*
X023062Y019212D02*
X023062Y021212D01*
X021562Y019962D02*
X021562Y018962D01*
X023062Y019212D02*
X023312Y018962D01*
X025062Y019712D02*
X025562Y020212D01*
X030562Y016212D02*
X030562Y014462D01*
X030562Y014407D01*
X030562Y014462D02*
X031062Y014462D01*
X031062Y014407D01*
X030062Y014407D02*
X030062Y014462D01*
X029562Y014462D01*
X029562Y014407D01*
X029562Y013462D01*
X028562Y012962D02*
X028562Y014407D01*
X028562Y014462D01*
X029062Y014462D01*
X029062Y014407D01*
X028062Y014407D02*
X028062Y014462D01*
X027562Y014462D01*
X027562Y014407D01*
X027562Y012962D01*
X026562Y012962D02*
X026562Y007962D01*
X023812Y007462D02*
X023562Y007212D01*
X023562Y003962D01*
X023312Y003712D01*
X023312Y002712D01*
X022562Y001962D01*
X020312Y001962D01*
X020312Y003712D01*
X019312Y004712D01*
X019312Y005712D01*
X020312Y005712D02*
X020562Y005462D01*
X020562Y004212D01*
X021312Y004212D01*
X021562Y004462D01*
X022812Y004462D01*
X023062Y004712D01*
X023062Y007462D01*
X023562Y007962D01*
X023562Y010962D01*
X023062Y009712D02*
X023062Y008212D01*
X019312Y008712D02*
X019312Y012462D01*
X019812Y012962D01*
X018812Y012462D02*
X018312Y011962D01*
X018312Y011712D01*
X018187Y011587D01*
X018812Y010962D01*
X018812Y010712D01*
X018312Y010212D01*
X018187Y011587D02*
X018062Y011712D01*
X016562Y011712D01*
X016562Y005962D01*
X015562Y004962D01*
X013812Y004962D01*
X013812Y005712D01*
X012812Y005712D02*
X012312Y005712D01*
X011562Y006462D01*
X011562Y011712D01*
X012812Y012962D01*
X014312Y012962D02*
X014312Y011962D01*
X015062Y011212D01*
X019062Y014212D02*
X019062Y016212D01*
X015312Y021712D02*
X014562Y022462D01*
X014562Y023962D01*
X014437Y024087D01*
X014062Y023712D01*
X014437Y024087D02*
X015562Y025212D01*
X015562Y026462D01*
X014812Y027212D01*
X014312Y027212D01*
X009062Y026462D02*
X009062Y024712D01*
X008562Y024212D01*
X009062Y026462D02*
X008312Y027212D01*
X007812Y027212D01*
X033812Y027212D02*
X034312Y027212D01*
X035062Y026462D01*
X034812Y016712D02*
X034812Y012462D01*
X035062Y012212D01*
X035062Y011212D01*
X035812Y011212D02*
X035812Y016212D01*
X036062Y016462D01*
M02*
