G75*
G70*
%OFA0B0*%
%FSLAX24Y24*%
%IPPOS*%
%LPD*%
%AMOC8*
5,1,8,0,0,1.08239X$1,22.5*
%
%ADD10C,0.0520*%
%ADD11C,0.0554*%
%ADD12OC8,0.0520*%
%ADD13C,0.0660*%
%ADD14C,0.0787*%
%ADD15C,0.1181*%
%ADD16C,0.1266*%
%ADD17R,0.1181X0.1181*%
%ADD18C,0.1000*%
%ADD19R,0.0630X0.0709*%
%ADD20OC8,0.0630*%
%ADD21C,0.0630*%
%ADD22C,0.0540*%
%ADD23C,0.0400*%
%ADD24C,0.0360*%
%ADD25C,0.0180*%
D10*
X005605Y014952D02*
X005605Y015472D01*
X006605Y015472D02*
X006605Y014952D01*
X007605Y014952D02*
X007605Y015472D01*
X008605Y015472D02*
X008605Y014952D01*
X009605Y014952D02*
X009605Y015472D01*
X010605Y015472D02*
X010605Y014952D01*
X011605Y014952D02*
X011605Y015472D01*
X012605Y015472D02*
X012605Y014952D01*
X015105Y014952D02*
X015105Y015472D01*
X016105Y015472D02*
X016105Y014952D01*
X017105Y014952D02*
X017105Y015472D01*
X018105Y015472D02*
X018105Y014952D01*
X019105Y014952D02*
X019105Y015472D01*
X020105Y015472D02*
X020105Y014952D01*
X021105Y014952D02*
X021105Y015472D01*
X022105Y015472D02*
X022105Y014952D01*
X023105Y014952D02*
X023105Y015472D01*
X025605Y015472D02*
X025605Y014952D01*
X026605Y014952D02*
X026605Y015472D01*
X027605Y015472D02*
X027605Y014952D01*
X028605Y014952D02*
X028605Y015472D01*
X029605Y015472D02*
X029605Y014952D01*
X030605Y014952D02*
X030605Y015472D01*
X031605Y015472D02*
X031605Y014952D01*
X032605Y014952D02*
X032605Y015472D01*
X033605Y015472D02*
X033605Y014952D01*
X033605Y017952D02*
X033605Y018472D01*
X032605Y018472D02*
X032605Y017952D01*
X031605Y017952D02*
X031605Y018472D01*
X030605Y018472D02*
X030605Y017952D01*
X029605Y017952D02*
X029605Y018472D01*
X028605Y018472D02*
X028605Y017952D01*
X027605Y017952D02*
X027605Y018472D01*
X026605Y018472D02*
X026605Y017952D01*
X025605Y017952D02*
X025605Y018472D01*
X023105Y018472D02*
X023105Y017952D01*
X022105Y017952D02*
X022105Y018472D01*
X021105Y018472D02*
X021105Y017952D01*
X020105Y017952D02*
X020105Y018472D01*
X019105Y018472D02*
X019105Y017952D01*
X018105Y017952D02*
X018105Y018472D01*
X017105Y018472D02*
X017105Y017952D01*
X016105Y017952D02*
X016105Y018472D01*
X015105Y018472D02*
X015105Y017952D01*
X012605Y017952D02*
X012605Y018472D01*
X011605Y018472D02*
X011605Y017952D01*
X010605Y017952D02*
X010605Y018472D01*
X009605Y018472D02*
X009605Y017952D01*
X008605Y017952D02*
X008605Y018472D01*
X007605Y018472D02*
X007605Y017952D01*
X006605Y017952D02*
X006605Y018472D01*
X005605Y018472D02*
X005605Y017952D01*
X006105Y023452D02*
X006105Y023972D01*
X007105Y023972D02*
X007105Y023452D01*
X005105Y023452D02*
X005105Y023972D01*
X005105Y026452D02*
X005105Y026972D01*
X006105Y026972D02*
X006105Y026452D01*
X007105Y026452D02*
X007105Y026972D01*
D11*
X011355Y027212D03*
X012355Y027212D03*
X013355Y027212D03*
X013855Y026212D03*
X012855Y026212D03*
X011855Y026212D03*
X017855Y027212D03*
X018855Y027212D03*
X019855Y027212D03*
X020355Y026212D03*
X019355Y026212D03*
X018355Y026212D03*
X024355Y027212D03*
X025355Y027212D03*
X026355Y027212D03*
X026855Y026212D03*
X025855Y026212D03*
X024855Y026212D03*
X030855Y027212D03*
X031855Y027212D03*
X032855Y027212D03*
X033355Y026212D03*
X032355Y026212D03*
X031355Y026212D03*
X039105Y019962D03*
X038105Y019462D03*
X039105Y018962D03*
X038105Y018462D03*
X039105Y017962D03*
X038105Y017462D03*
X039105Y013462D03*
X038105Y012962D03*
X039105Y012462D03*
X038105Y011962D03*
X039105Y011462D03*
X038105Y010962D03*
X032855Y006712D03*
X031855Y006712D03*
X030855Y006712D03*
X031355Y005712D03*
X032355Y005712D03*
X033355Y005712D03*
X026855Y005712D03*
X025855Y005712D03*
X024855Y005712D03*
X025355Y006712D03*
X026355Y006712D03*
X024355Y006712D03*
X020355Y005712D03*
X019355Y005712D03*
X018355Y005712D03*
X018855Y006712D03*
X019855Y006712D03*
X017855Y006712D03*
X013855Y005712D03*
X012855Y005712D03*
X011855Y005712D03*
X012355Y006712D03*
X013355Y006712D03*
X011355Y006712D03*
D12*
X012105Y009212D03*
X013105Y009212D03*
X008105Y008712D03*
X007105Y008712D03*
X007105Y006712D03*
X008105Y006712D03*
X018605Y009212D03*
X019605Y009212D03*
X025105Y009212D03*
X026105Y009212D03*
X031605Y009212D03*
X032605Y009212D03*
X032605Y023712D03*
X031605Y023712D03*
X026105Y023712D03*
X025105Y023712D03*
X019605Y023712D03*
X018605Y023712D03*
X013105Y023712D03*
X012105Y023712D03*
D13*
X025605Y020712D03*
X029605Y020712D03*
D14*
X037711Y023682D02*
X038498Y023682D01*
X038498Y024742D02*
X037711Y024742D01*
X040211Y024742D02*
X040998Y024742D01*
X040998Y023682D02*
X040211Y023682D01*
D15*
X005105Y010783D03*
X000971Y007712D03*
X005105Y004641D03*
D16*
X001758Y004641D03*
X001758Y010783D03*
D17*
X003136Y008696D03*
X004573Y008775D03*
X004573Y006649D03*
X003136Y006727D03*
D18*
X037700Y026712D02*
X037700Y027712D01*
X038635Y027712D02*
X038635Y026712D01*
D19*
X038156Y007212D03*
X037054Y007212D03*
X039054Y003712D03*
X040156Y003712D03*
D20*
X037605Y003912D03*
X040605Y006912D03*
D21*
X040605Y005512D03*
X037605Y002512D03*
D22*
X037605Y003712D02*
X037605Y003912D01*
X037605Y004212D01*
X038105Y004212D01*
X038105Y007212D01*
X038156Y007212D01*
X040605Y007212D01*
X040605Y006912D01*
X041605Y007212D02*
X041605Y005712D01*
X040605Y005712D01*
X040605Y005512D01*
X040605Y005212D01*
X040105Y005212D01*
X040105Y003712D01*
X040156Y003712D01*
X039105Y003712D02*
X039054Y003712D01*
X037605Y003712D01*
X037605Y004212D02*
X035105Y004212D01*
X033605Y005712D01*
X033355Y005712D01*
X032355Y005712D02*
X032105Y005712D01*
X032105Y004712D01*
X025605Y004712D01*
X018605Y004712D01*
X019605Y005712D01*
X019355Y005712D01*
X019855Y006712D02*
X020105Y006712D01*
X021105Y007712D01*
X014605Y007712D01*
X013605Y006712D01*
X013355Y006712D01*
X013855Y005712D02*
X017105Y005712D01*
X018105Y004712D01*
X018605Y004712D01*
X015605Y004712D02*
X011105Y004712D01*
X010105Y005712D01*
X005105Y005712D01*
X004605Y006212D01*
X004573Y006649D01*
X003605Y007212D02*
X003136Y006727D01*
X003605Y007212D02*
X003605Y007712D01*
X006105Y007712D01*
X007105Y008712D01*
X008105Y009712D01*
X011605Y009712D01*
X012605Y010712D01*
X013605Y011712D02*
X007605Y011712D01*
X005105Y009212D01*
X004605Y009212D01*
X004573Y008775D01*
X010105Y005712D02*
X011105Y006712D01*
X011355Y006712D01*
X014605Y010712D02*
X019105Y010712D01*
X019605Y011212D01*
X022105Y008712D02*
X021605Y008212D01*
X026605Y008212D01*
X026605Y006712D01*
X026355Y006712D01*
X026605Y006712D02*
X027105Y006712D01*
X028105Y005712D01*
X029105Y005712D01*
X028605Y006712D02*
X030855Y006712D01*
X031105Y006712D01*
X031105Y007712D01*
X036105Y007712D01*
X036605Y008212D01*
X040605Y008212D01*
X041605Y007212D01*
X037105Y007212D02*
X037054Y007212D01*
X037105Y007212D02*
X036605Y006712D01*
X032855Y006712D01*
X028605Y006712D02*
X027605Y007712D01*
X027105Y008212D02*
X026605Y008212D01*
X027105Y008212D02*
X027105Y009212D01*
X026605Y009712D01*
X023605Y006712D02*
X023105Y007212D01*
X023605Y006712D02*
X024355Y006712D01*
X025605Y005712D02*
X025855Y005712D01*
X025605Y005712D02*
X025605Y004712D01*
X021605Y008212D02*
X021105Y007712D01*
X023605Y012712D02*
X032605Y012712D01*
X033605Y013712D01*
X033605Y015212D01*
X036105Y017712D02*
X036105Y020712D01*
X038105Y022712D01*
X038105Y023682D01*
X038105Y023712D01*
X038105Y024712D02*
X038105Y024742D01*
X038105Y024712D02*
X030605Y024712D01*
X030605Y023712D01*
X029605Y022712D01*
X027105Y022712D01*
X026605Y022212D01*
X017105Y022212D01*
X016605Y022712D01*
X020605Y022712D01*
X020605Y025212D01*
X019105Y025212D01*
X018605Y025712D01*
X018605Y026212D01*
X018355Y026212D01*
X017605Y026212D02*
X013855Y026212D01*
X014105Y025212D02*
X012605Y025212D01*
X011605Y026212D01*
X011855Y026212D01*
X011605Y026212D02*
X007605Y026212D01*
X007105Y026712D01*
X012355Y027212D02*
X012605Y027212D01*
X012605Y028212D01*
X016605Y028212D01*
X023105Y028212D01*
X029605Y028212D01*
X036605Y028212D01*
X037605Y027212D01*
X037700Y027212D01*
X039605Y025712D02*
X040605Y024712D01*
X040605Y024742D01*
X040605Y023712D02*
X040605Y023682D01*
X040605Y023712D02*
X037105Y020212D01*
X037105Y017712D01*
X038105Y017712D01*
X038105Y017462D01*
X038105Y017212D01*
X040105Y017212D01*
X040105Y013212D01*
X038105Y012962D02*
X038105Y016212D01*
X037605Y016212D01*
X036105Y017712D01*
X036105Y021712D02*
X029605Y021712D01*
X028105Y020212D01*
X026105Y020212D01*
X025605Y020712D01*
X026605Y023212D02*
X027105Y023712D01*
X027105Y026212D01*
X026855Y026212D01*
X024855Y026212D02*
X024605Y026212D01*
X023605Y025212D01*
X020605Y025212D01*
X020355Y026212D02*
X023105Y026212D01*
X024105Y027212D02*
X024355Y027212D01*
X024105Y027212D02*
X023105Y028212D01*
X017855Y027212D02*
X017605Y027212D01*
X016605Y028212D01*
X014105Y025212D02*
X016605Y022712D01*
X005605Y018212D02*
X003105Y015712D01*
X013605Y011712D02*
X014605Y010712D01*
X023105Y013212D02*
X023605Y012712D01*
X031105Y023212D02*
X030605Y023712D01*
X030605Y024712D02*
X030605Y026212D01*
X031355Y026212D01*
X030855Y027212D02*
X030605Y027212D01*
X029605Y028212D01*
X033355Y026212D02*
X033605Y026212D01*
X034105Y025712D01*
X039605Y025712D01*
D23*
X036105Y021712D03*
X031605Y022712D03*
X031105Y023212D03*
X026605Y023212D03*
X026605Y021212D03*
X024605Y019212D03*
X022105Y019212D03*
X023105Y021212D03*
X024605Y017212D03*
X024105Y016712D03*
X021105Y016212D03*
X023105Y013212D03*
X024105Y011712D03*
X025105Y013712D03*
X027105Y016712D03*
X033105Y016212D03*
X034105Y012712D03*
X040105Y013212D03*
X030105Y007712D03*
X029105Y005712D03*
X027605Y007712D03*
X026605Y009712D03*
X023105Y007212D03*
X022105Y008712D03*
X019605Y011212D03*
X016105Y008712D03*
X014605Y010712D03*
X012605Y010712D03*
X009605Y008712D03*
X009105Y008212D03*
X015605Y004712D03*
X011605Y013712D03*
X013605Y016712D03*
X014605Y017212D03*
X015105Y022212D03*
X017105Y022212D03*
X016605Y025212D03*
X017605Y026212D03*
X023105Y026212D03*
X007105Y019712D03*
X006105Y019712D03*
X004105Y019212D03*
X003105Y015712D03*
D24*
X009605Y008712D02*
X011605Y008712D01*
X012105Y009212D01*
X016105Y008712D02*
X018105Y008712D01*
X018605Y009212D01*
X020105Y010712D01*
X023105Y010712D01*
X024105Y011712D01*
X030105Y007712D02*
X031605Y009212D01*
X034105Y012712D02*
X034605Y012712D01*
X034605Y016212D01*
X032605Y018212D01*
X031605Y018212D01*
X029605Y018212D02*
X028605Y017212D01*
X024605Y017212D01*
X025105Y017712D02*
X023605Y017712D01*
X022605Y016712D01*
X013605Y016712D01*
X015105Y018212D02*
X016105Y018212D01*
X015105Y022212D02*
X014605Y022212D01*
X013105Y023712D01*
X016605Y025212D02*
X017105Y024712D01*
X018605Y024712D01*
X019605Y023712D01*
X023105Y019212D02*
X024605Y019212D01*
X025605Y018212D02*
X025105Y017712D01*
X024105Y016712D02*
X027105Y016712D01*
X023105Y019212D02*
X022105Y018212D01*
D25*
X023105Y018212D02*
X023605Y018712D01*
X025105Y018712D01*
X026105Y019712D01*
X028605Y019712D01*
X029605Y020712D01*
X031105Y020712D01*
X033605Y018212D01*
X033105Y016212D02*
X033105Y014212D01*
X023105Y014212D01*
X022105Y015212D01*
X021105Y015212D02*
X020105Y016212D01*
X012605Y016212D01*
X011605Y015212D01*
X010605Y015212D02*
X011605Y014212D01*
X018105Y014212D01*
X019105Y015212D01*
X021105Y016212D02*
X026605Y016212D01*
X027605Y015212D01*
X025105Y013712D02*
X011605Y013712D01*
X008605Y015212D02*
X010605Y017212D01*
X014605Y017212D01*
X011605Y019212D02*
X022105Y019212D01*
X023105Y021212D02*
X026605Y021212D01*
X028605Y021712D02*
X029105Y022212D01*
X031105Y022212D01*
X031605Y022712D01*
X028605Y021712D02*
X013105Y021712D01*
X009605Y018212D01*
X010605Y018212D02*
X011605Y019212D01*
X008105Y015712D02*
X007605Y016212D01*
X006605Y016212D01*
X006605Y018212D01*
X005605Y019212D01*
X004105Y019212D01*
X006105Y019712D02*
X006105Y023712D01*
X007105Y023712D02*
X007105Y019712D01*
X008105Y015712D02*
X008105Y012212D01*
X038105Y012212D01*
X038105Y011962D01*
X039105Y011462D02*
X039105Y011212D01*
X038105Y010212D01*
X021605Y010212D01*
X019605Y008212D01*
X009105Y008212D01*
X006605Y014212D02*
X003105Y014212D01*
X001105Y016212D01*
X001105Y023712D01*
X005105Y023712D01*
X007605Y015212D02*
X006605Y014212D01*
M02*
