%
M48
M72
T01C0.0240
T02C0.0320
T03C0.0354
T04C0.0440
T05C0.0512
T06C0.0551
T07C0.0669
T08C0.0787
T09C0.0866
T10C0.1260
T11C0.1280
%
T01
X9105Y8212
X9605Y8712
X12605Y10712
X14605Y10712
X16105Y8712
X19605Y11212
X22105Y8712
X23105Y7212
X26605Y9712
X27605Y7712
X30105Y7712
X29105Y5712
X24105Y11712
X23105Y13212
X25105Y13712
X24105Y16712
X24605Y17212
X24605Y19212
X22105Y19212
X23105Y21212
X26605Y21212
X26605Y23212
X23105Y26212
X17605Y26212
X16605Y25212
X17105Y22212
X15105Y22212
X14605Y17212
X13605Y16712
X11605Y13712
X4105Y19212
X6105Y19712
X7105Y19712
X3105Y15712
X15605Y4712
X21105Y16212
X27105Y16712
X33105Y16212
X34105Y12712
X40105Y13212
X36105Y21712
X31605Y22712
X31105Y23212
T02
X31605Y23712
X32605Y23712
X26105Y23712
X25105Y23712
X19605Y23712
X18605Y23712
X13105Y23712
X12105Y23712
X7105Y23712
X6105Y23712
X5105Y23712
X5105Y26712
X6105Y26712
X7105Y26712
X7605Y18212
X6605Y18212
X5605Y18212
X8605Y18212
X9605Y18212
X10605Y18212
X11605Y18212
X12605Y18212
X15105Y18212
X16105Y18212
X17105Y18212
X18105Y18212
X19105Y18212
X20105Y18212
X21105Y18212
X22105Y18212
X23105Y18212
X25605Y18212
X26605Y18212
X27605Y18212
X28605Y18212
X29605Y18212
X30605Y18212
X31605Y18212
X32605Y18212
X33605Y18212
X33605Y15212
X32605Y15212
X31605Y15212
X30605Y15212
X29605Y15212
X28605Y15212
X27605Y15212
X26605Y15212
X25605Y15212
X23105Y15212
X22105Y15212
X21105Y15212
X20105Y15212
X19105Y15212
X18105Y15212
X17105Y15212
X16105Y15212
X15105Y15212
X12605Y15212
X11605Y15212
X10605Y15212
X9605Y15212
X8605Y15212
X7605Y15212
X6605Y15212
X5605Y15212
X12105Y9212
X13105Y9212
X8105Y8712
X7105Y8712
X7105Y6712
X8105Y6712
X18605Y9212
X19605Y9212
X25105Y9212
X26105Y9212
X31605Y9212
X32605Y9212
X37605Y3912
X37605Y2512
X40605Y5512
X40605Y6912
T03
X38105Y10962
X39105Y11462
X38105Y11962
X39105Y12462
X38105Y12962
X39105Y13462
X38105Y17462
X39105Y17962
X38105Y18462
X39105Y18962
X38105Y19462
X39105Y19962
X33355Y26212
X32355Y26212
X31355Y26212
X31855Y27212
X32855Y27212
X30855Y27212
X26855Y26212
X25855Y26212
X24855Y26212
X25355Y27212
X26355Y27212
X24355Y27212
X20355Y26212
X19355Y26212
X18355Y26212
X18855Y27212
X19855Y27212
X17855Y27212
X13855Y26212
X12855Y26212
X11855Y26212
X12355Y27212
X13355Y27212
X11355Y27212
X11355Y6712
X12355Y6712
X13355Y6712
X13855Y5712
X12855Y5712
X11855Y5712
X17855Y6712
X18855Y6712
X19855Y6712
X20355Y5712
X19355Y5712
X18355Y5712
X24355Y6712
X25355Y6712
X26355Y6712
X26855Y5712
X25855Y5712
X24855Y5712
X30855Y6712
X31855Y6712
X32855Y6712
X33355Y5712
X32355Y5712
X31355Y5712
T04
X29605Y20712
X25605Y20712
T05
X38105Y23682
X38105Y24742
X40605Y24742
X40605Y23682
T06
X38635Y27212
X37700Y27212
T07
X1758Y8696
X1758Y6727
T08
X971Y7712
X3136Y8696
X4573Y8775
X5105Y10783
X4573Y6649
X3136Y6727
X5105Y4641
T09
X1758Y4641
X1758Y10783
T10
X4105Y1712
X40605Y1712
X43105Y28712
X1605Y28712
T11
X10605Y29712
X14605Y29712
X17105Y29712
X21105Y29712
X23605Y29712
X27605Y29712
X30105Y29712
X34105Y29712
X41605Y20712
X41605Y16712
X41605Y14212
X41605Y10212
X34105Y3212
X30105Y3212
X27605Y3212
X23605Y3212
X21105Y3212
X17105Y3212
X14605Y3212
X10605Y3212
M30
