G75*
G70*
%OFA0B0*%
%FSLAX24Y24*%
%IPPOS*%
%LPD*%
%AMOC8*
5,1,8,0,0,1.08239X$1,22.5*
%
%ADD10C,0.1340*%
%ADD11C,0.0600*%
%ADD12C,0.0634*%
%ADD13C,0.1360*%
%ADD14R,0.0867X0.0710*%
%ADD15OC8,0.0600*%
%ADD16C,0.0740*%
%ADD17C,0.0867*%
%ADD18C,0.1261*%
%ADD19C,0.1346*%
%ADD20R,0.1261X0.1261*%
%ADD21C,0.0749*%
%ADD22R,0.0710X0.0867*%
%ADD23C,0.1080*%
%ADD24OC8,0.0710*%
%ADD25C,0.0710*%
%ADD26C,0.0480*%
D10*
X004105Y001712D03*
X040605Y001712D03*
X043105Y028712D03*
X001605Y028712D03*
D11*
X005105Y026972D02*
X005105Y026452D01*
X006105Y026452D02*
X006105Y026972D01*
X007105Y026972D02*
X007105Y026452D01*
X007105Y023972D02*
X007105Y023452D01*
X006105Y023452D02*
X006105Y023972D01*
X005105Y023972D02*
X005105Y023452D01*
X005605Y018472D02*
X005605Y017952D01*
X006605Y017952D02*
X006605Y018472D01*
X007605Y018472D02*
X007605Y017952D01*
X008605Y017952D02*
X008605Y018472D01*
X009605Y018472D02*
X009605Y017952D01*
X010605Y017952D02*
X010605Y018472D01*
X011605Y018472D02*
X011605Y017952D01*
X012605Y017952D02*
X012605Y018472D01*
X015105Y018472D02*
X015105Y017952D01*
X016105Y017952D02*
X016105Y018472D01*
X017105Y018472D02*
X017105Y017952D01*
X018105Y017952D02*
X018105Y018472D01*
X019105Y018472D02*
X019105Y017952D01*
X020105Y017952D02*
X020105Y018472D01*
X021105Y018472D02*
X021105Y017952D01*
X022105Y017952D02*
X022105Y018472D01*
X023105Y018472D02*
X023105Y017952D01*
X025605Y017952D02*
X025605Y018472D01*
X026605Y018472D02*
X026605Y017952D01*
X027605Y017952D02*
X027605Y018472D01*
X028605Y018472D02*
X028605Y017952D01*
X029605Y017952D02*
X029605Y018472D01*
X030605Y018472D02*
X030605Y017952D01*
X031605Y017952D02*
X031605Y018472D01*
X032605Y018472D02*
X032605Y017952D01*
X033605Y017952D02*
X033605Y018472D01*
X033605Y015472D02*
X033605Y014952D01*
X032605Y014952D02*
X032605Y015472D01*
X031605Y015472D02*
X031605Y014952D01*
X030605Y014952D02*
X030605Y015472D01*
X029605Y015472D02*
X029605Y014952D01*
X028605Y014952D02*
X028605Y015472D01*
X027605Y015472D02*
X027605Y014952D01*
X026605Y014952D02*
X026605Y015472D01*
X025605Y015472D02*
X025605Y014952D01*
X023105Y014952D02*
X023105Y015472D01*
X022105Y015472D02*
X022105Y014952D01*
X021105Y014952D02*
X021105Y015472D01*
X020105Y015472D02*
X020105Y014952D01*
X019105Y014952D02*
X019105Y015472D01*
X018105Y015472D02*
X018105Y014952D01*
X017105Y014952D02*
X017105Y015472D01*
X016105Y015472D02*
X016105Y014952D01*
X015105Y014952D02*
X015105Y015472D01*
X012605Y015472D02*
X012605Y014952D01*
X011605Y014952D02*
X011605Y015472D01*
X010605Y015472D02*
X010605Y014952D01*
X009605Y014952D02*
X009605Y015472D01*
X008605Y015472D02*
X008605Y014952D01*
X007605Y014952D02*
X007605Y015472D01*
X006605Y015472D02*
X006605Y014952D01*
X005605Y014952D02*
X005605Y015472D01*
D12*
X011355Y006712D03*
X012355Y006712D03*
X013355Y006712D03*
X013855Y005712D03*
X012855Y005712D03*
X011855Y005712D03*
X017855Y006712D03*
X018855Y006712D03*
X019855Y006712D03*
X020355Y005712D03*
X019355Y005712D03*
X018355Y005712D03*
X024355Y006712D03*
X025355Y006712D03*
X026355Y006712D03*
X026855Y005712D03*
X025855Y005712D03*
X024855Y005712D03*
X030855Y006712D03*
X031855Y006712D03*
X032855Y006712D03*
X033355Y005712D03*
X032355Y005712D03*
X031355Y005712D03*
X038105Y010962D03*
X039105Y011462D03*
X038105Y011962D03*
X039105Y012462D03*
X038105Y012962D03*
X039105Y013462D03*
X038105Y017462D03*
X039105Y017962D03*
X038105Y018462D03*
X039105Y018962D03*
X038105Y019462D03*
X039105Y019962D03*
X033355Y026212D03*
X032355Y026212D03*
X031355Y026212D03*
X031855Y027212D03*
X032855Y027212D03*
X030855Y027212D03*
X026855Y026212D03*
X025855Y026212D03*
X024855Y026212D03*
X025355Y027212D03*
X026355Y027212D03*
X024355Y027212D03*
X020355Y026212D03*
X019355Y026212D03*
X018355Y026212D03*
X018855Y027212D03*
X019855Y027212D03*
X017855Y027212D03*
X013855Y026212D03*
X012855Y026212D03*
X011855Y026212D03*
X012355Y027212D03*
X013355Y027212D03*
X011355Y027212D03*
D13*
X010605Y029712D03*
X014605Y029712D03*
X017105Y029712D03*
X021105Y029712D03*
X023605Y029712D03*
X027605Y029712D03*
X030105Y029712D03*
X034105Y029712D03*
X041605Y020712D03*
X041605Y016712D03*
X041605Y014212D03*
X041605Y010212D03*
X034105Y003212D03*
X030105Y003212D03*
X027605Y003212D03*
X023605Y003212D03*
X021105Y003212D03*
X017105Y003212D03*
X014605Y003212D03*
X010605Y003212D03*
D14*
X010605Y008660D03*
X010605Y009763D03*
X014605Y009763D03*
X014605Y008660D03*
X017105Y008660D03*
X017105Y009763D03*
X021105Y009763D03*
X021105Y008660D03*
X023605Y008660D03*
X023605Y009763D03*
X027605Y009763D03*
X027605Y008660D03*
X030105Y008660D03*
X030105Y009763D03*
X034105Y009763D03*
X034105Y008660D03*
X034105Y023160D03*
X034105Y024263D03*
X030105Y024263D03*
X030105Y023160D03*
X027605Y023160D03*
X027605Y024263D03*
X023605Y024263D03*
X023605Y023160D03*
X021105Y023160D03*
X021105Y024263D03*
X017105Y024263D03*
X017105Y023160D03*
X014605Y023160D03*
X014605Y024263D03*
X010605Y024263D03*
X010605Y023160D03*
X007605Y021763D03*
X006105Y021763D03*
X004605Y021763D03*
X004605Y020660D03*
X006105Y020660D03*
X007605Y020660D03*
D15*
X012105Y023712D03*
X013105Y023712D03*
X018605Y023712D03*
X019605Y023712D03*
X025105Y023712D03*
X026105Y023712D03*
X031605Y023712D03*
X032605Y023712D03*
X032605Y009212D03*
X031605Y009212D03*
X026105Y009212D03*
X025105Y009212D03*
X019605Y009212D03*
X018605Y009212D03*
X013105Y009212D03*
X012105Y009212D03*
X008105Y008712D03*
X007105Y008712D03*
X007105Y006712D03*
X008105Y006712D03*
D16*
X025605Y020712D03*
X029605Y020712D03*
D17*
X037711Y023682D02*
X038498Y023682D01*
X038498Y024742D02*
X037711Y024742D01*
X040211Y024742D02*
X040998Y024742D01*
X040998Y023682D02*
X040211Y023682D01*
D18*
X005105Y010783D03*
X000971Y007712D03*
X005105Y004641D03*
D19*
X001758Y004641D03*
X001758Y010783D03*
D20*
X003136Y008696D03*
X004573Y008775D03*
X004573Y006649D03*
X003136Y006727D03*
D21*
X001758Y006727D03*
X001758Y008696D03*
D22*
X007054Y010712D03*
X008156Y010712D03*
X008156Y004712D03*
X007054Y004712D03*
X003156Y016712D03*
X002054Y016712D03*
X002054Y018212D03*
X003156Y018212D03*
D23*
X037700Y026712D02*
X037700Y027712D01*
X038635Y027712D02*
X038635Y026712D01*
D24*
X040605Y006912D03*
X037605Y003912D03*
D25*
X037605Y002512D03*
X040605Y005512D03*
D26*
X034105Y012712D03*
X033105Y016212D03*
X027105Y016712D03*
X024605Y017212D03*
X024105Y016712D03*
X021105Y016212D03*
X022105Y019212D03*
X024605Y019212D03*
X023105Y021212D03*
X026605Y021212D03*
X026605Y023212D03*
X023105Y026212D03*
X017605Y026212D03*
X016605Y025212D03*
X017105Y022212D03*
X015105Y022212D03*
X014605Y017212D03*
X013605Y016712D03*
X011605Y013712D03*
X012605Y010712D03*
X014605Y010712D03*
X016105Y008712D03*
X019605Y011212D03*
X022105Y008712D03*
X023105Y007212D03*
X026605Y009712D03*
X027605Y007712D03*
X030105Y007712D03*
X029105Y005712D03*
X024105Y011712D03*
X023105Y013212D03*
X025105Y013712D03*
X036105Y021712D03*
X031605Y022712D03*
X031105Y023212D03*
X040105Y013212D03*
X015605Y004712D03*
X009605Y008712D03*
X009105Y008212D03*
X003105Y015712D03*
X004105Y019212D03*
X006105Y019712D03*
X007105Y019712D03*
M02*
