G75*
G70*
%OFA0B0*%
%FSLAX24Y24*%
%IPPOS*%
%LPD*%
%AMOC8*
5,1,8,0,0,1.08239X$1,22.5*
%
%ADD10C,0.1380*%
%ADD11C,0.0720*%
%ADD12OC8,0.0720*%
%ADD13C,0.0680*%
%ADD14OC8,0.0680*%
D10*
X007284Y008038D03*
X007284Y027038D03*
X036784Y027038D03*
X039284Y008038D03*
D11*
X005534Y003838D02*
X005534Y003238D01*
X006534Y003238D02*
X006534Y003838D01*
X007534Y003838D02*
X007534Y003238D01*
X008534Y003238D02*
X008534Y003838D01*
X009784Y005488D02*
X009784Y006088D01*
X010784Y006088D02*
X010784Y005488D01*
X011784Y005488D02*
X011784Y006088D01*
X014284Y007738D02*
X014284Y008338D01*
X015284Y008338D02*
X015284Y007738D01*
X016284Y007738D02*
X016284Y008338D01*
X017284Y008338D02*
X017284Y007738D01*
X018284Y007738D02*
X018284Y008338D01*
X019284Y008338D02*
X019284Y007738D01*
X021284Y007738D02*
X021284Y008338D01*
X022284Y008338D02*
X022284Y007738D01*
X023284Y007738D02*
X023284Y008338D01*
X024284Y008338D02*
X024284Y007738D01*
X025284Y007738D02*
X025284Y008338D01*
X026284Y008338D02*
X026284Y007738D01*
X027284Y007738D02*
X027284Y008338D01*
X028284Y008338D02*
X028284Y007738D01*
X030284Y007738D02*
X030284Y008338D01*
X031284Y008338D02*
X031284Y007738D01*
X032284Y007738D02*
X032284Y008338D01*
X033284Y008338D02*
X033284Y007738D01*
X034284Y007738D02*
X034284Y008338D01*
X035284Y008338D02*
X035284Y007738D01*
X036284Y007738D02*
X036284Y008338D01*
X037284Y008338D02*
X037284Y007738D01*
X037284Y004088D02*
X037284Y003488D01*
X038284Y003488D02*
X038284Y004088D01*
X039284Y004088D02*
X039284Y003488D01*
X040784Y003488D02*
X040784Y004088D01*
X041784Y004088D02*
X041784Y003488D01*
X042784Y003488D02*
X042784Y004088D01*
X035784Y004088D02*
X035784Y003488D01*
X034784Y003488D02*
X034784Y004088D01*
X033784Y004088D02*
X033784Y003488D01*
X032284Y003488D02*
X032284Y004088D01*
X031284Y004088D02*
X031284Y003488D01*
X030284Y003488D02*
X030284Y004088D01*
X004284Y005488D02*
X004284Y006088D01*
X003284Y006088D02*
X003284Y005488D01*
X002284Y005488D02*
X002284Y006088D01*
X010784Y026738D02*
X010784Y027338D01*
X011784Y027338D02*
X011784Y026738D01*
X012784Y026738D02*
X012784Y027338D01*
X013784Y027338D02*
X013784Y026738D01*
X014784Y026738D02*
X014784Y027338D01*
X015784Y027338D02*
X015784Y026738D01*
X016784Y026738D02*
X016784Y027338D01*
X017784Y027338D02*
X017784Y026738D01*
X019284Y026738D02*
X019284Y027338D01*
X020284Y027338D02*
X020284Y026738D01*
X021284Y026738D02*
X021284Y027338D01*
X022284Y027338D02*
X022284Y026738D01*
X023284Y026738D02*
X023284Y027338D01*
X024284Y027338D02*
X024284Y026738D01*
X025284Y026738D02*
X025284Y027338D01*
X026284Y027338D02*
X026284Y026738D01*
X028284Y026738D02*
X028284Y027338D01*
X029284Y027338D02*
X029284Y026738D01*
X030284Y026738D02*
X030284Y027338D01*
X031284Y027338D02*
X031284Y026738D01*
X032284Y026738D02*
X032284Y027338D01*
X033284Y027338D02*
X033284Y026738D01*
X034284Y026738D02*
X034284Y027338D01*
X035284Y027338D02*
X035284Y026738D01*
X022284Y030738D02*
X022284Y031338D01*
X021284Y031338D02*
X021284Y030738D01*
X020284Y030738D02*
X020284Y031338D01*
X009284Y031338D02*
X009284Y030738D01*
X008284Y030738D02*
X008284Y031338D01*
X007284Y031338D02*
X007284Y030738D01*
D12*
X038284Y027038D03*
X039284Y027038D03*
X039284Y026038D03*
X038284Y026038D03*
X038284Y025038D03*
X038284Y024038D03*
X039284Y024038D03*
X039284Y025038D03*
X039284Y023038D03*
X038284Y023038D03*
X038284Y022038D03*
X039284Y022038D03*
X039284Y021038D03*
X038284Y021038D03*
X038284Y020038D03*
X039284Y020038D03*
X039284Y019038D03*
X038284Y019038D03*
X038284Y018038D03*
X039284Y018038D03*
X039284Y017038D03*
X038284Y017038D03*
X038284Y016038D03*
X039284Y016038D03*
X039284Y015038D03*
X038284Y015038D03*
X038284Y014038D03*
X039284Y014038D03*
X039284Y013038D03*
X038284Y013038D03*
X038284Y012038D03*
X039284Y012038D03*
X039284Y011038D03*
X038284Y011038D03*
X038284Y010038D03*
X039284Y010038D03*
D13*
X045284Y007538D03*
X045284Y015788D03*
X045284Y024038D03*
X038034Y031538D03*
X045284Y032288D03*
X029784Y031538D03*
X016784Y031538D03*
X003284Y027538D03*
X015034Y003288D03*
X023284Y003288D03*
D14*
X024284Y003288D03*
X025284Y003288D03*
X026284Y003288D03*
X027284Y003288D03*
X027284Y004288D03*
X026284Y004288D03*
X025284Y004288D03*
X024284Y004288D03*
X023284Y004288D03*
X019034Y004288D03*
X018034Y004288D03*
X017034Y004288D03*
X016034Y004288D03*
X015034Y004288D03*
X016034Y003288D03*
X017034Y003288D03*
X018034Y003288D03*
X019034Y003288D03*
X004284Y018538D03*
X003284Y018538D03*
X003284Y019538D03*
X003284Y020538D03*
X004284Y020538D03*
X004284Y019538D03*
X004284Y021538D03*
X003284Y021538D03*
X003284Y022538D03*
X004284Y022538D03*
X004284Y023538D03*
X003284Y023538D03*
X003284Y024538D03*
X004284Y024538D03*
X004284Y025538D03*
X003284Y025538D03*
X003284Y026538D03*
X004284Y026538D03*
X004284Y027538D03*
X012784Y030538D03*
X013784Y030538D03*
X014784Y030538D03*
X015784Y030538D03*
X016784Y030538D03*
X015784Y031538D03*
X014784Y031538D03*
X013784Y031538D03*
X012784Y031538D03*
X025784Y031538D03*
X026784Y031538D03*
X027784Y031538D03*
X028784Y031538D03*
X028784Y030538D03*
X027784Y030538D03*
X026784Y030538D03*
X025784Y030538D03*
X029784Y030538D03*
X034034Y030538D03*
X035034Y030538D03*
X036034Y030538D03*
X037034Y030538D03*
X038034Y030538D03*
X037034Y031538D03*
X036034Y031538D03*
X035034Y031538D03*
X034034Y031538D03*
X045284Y031288D03*
X046284Y031288D03*
X046284Y030288D03*
X045284Y030288D03*
X045284Y029288D03*
X046284Y029288D03*
X046284Y028288D03*
X045284Y028288D03*
X046284Y032288D03*
X046284Y024038D03*
X046284Y023038D03*
X045284Y023038D03*
X045284Y022038D03*
X046284Y022038D03*
X046284Y021038D03*
X045284Y021038D03*
X045284Y020038D03*
X046284Y020038D03*
X046284Y015788D03*
X046284Y014788D03*
X045284Y014788D03*
X045284Y013788D03*
X046284Y013788D03*
X046284Y012788D03*
X045284Y012788D03*
X045284Y011788D03*
X046284Y011788D03*
X046284Y007538D03*
X046284Y006538D03*
X045284Y006538D03*
X045284Y005538D03*
X045284Y004538D03*
X046284Y004538D03*
X046284Y005538D03*
X046284Y003538D03*
X045284Y003538D03*
M02*
