G75*
G70*
%OFA0B0*%
%FSLAX24Y24*%
%IPPOS*%
%LPD*%
%AMOC8*
5,1,8,0,0,1.08239X$1,22.5*
%
%ADD10C,0.0010*%
%ADD11C,0.0600*%
%ADD12OC8,0.0600*%
%ADD13C,0.0560*%
%ADD14OC8,0.0560*%
%ADD15C,0.0160*%
%ADD16C,0.0320*%
D10*
X012016Y016528D02*
X012016Y018528D01*
X012816Y018528D01*
X012730Y018292D01*
X012667Y018048D01*
X012016Y018048D01*
X012016Y018056D02*
X012670Y018056D01*
X012667Y018048D02*
X012629Y017799D01*
X012616Y017548D01*
X012616Y017508D01*
X012629Y017257D01*
X012667Y017008D01*
X012730Y016765D01*
X012816Y016528D01*
X012016Y016528D01*
X012016Y016536D02*
X012813Y016536D01*
X012810Y016544D02*
X012016Y016544D01*
X012016Y016553D02*
X012807Y016553D01*
X012804Y016561D02*
X012016Y016561D01*
X012016Y016570D02*
X012801Y016570D01*
X012798Y016578D02*
X012016Y016578D01*
X012016Y016587D02*
X012794Y016587D01*
X012791Y016595D02*
X012016Y016595D01*
X012016Y016604D02*
X012788Y016604D01*
X012785Y016613D02*
X012016Y016613D01*
X012016Y016621D02*
X012782Y016621D01*
X012779Y016630D02*
X012016Y016630D01*
X012016Y016638D02*
X012776Y016638D01*
X012773Y016647D02*
X012016Y016647D01*
X012016Y016655D02*
X012770Y016655D01*
X012766Y016664D02*
X012016Y016664D01*
X012016Y016672D02*
X012763Y016672D01*
X012760Y016681D02*
X012016Y016681D01*
X012016Y016689D02*
X012757Y016689D01*
X012754Y016698D02*
X012016Y016698D01*
X012016Y016707D02*
X012751Y016707D01*
X012748Y016715D02*
X012016Y016715D01*
X012016Y016724D02*
X012745Y016724D01*
X012742Y016732D02*
X012016Y016732D01*
X012016Y016741D02*
X012739Y016741D01*
X012735Y016749D02*
X012016Y016749D01*
X012016Y016758D02*
X012732Y016758D01*
X012729Y016766D02*
X012016Y016766D01*
X012016Y016775D02*
X012727Y016775D01*
X012725Y016783D02*
X012016Y016783D01*
X012016Y016792D02*
X012723Y016792D01*
X012721Y016801D02*
X012016Y016801D01*
X012016Y016809D02*
X012718Y016809D01*
X012716Y016818D02*
X012016Y016818D01*
X012016Y016826D02*
X012714Y016826D01*
X012712Y016835D02*
X012016Y016835D01*
X012016Y016843D02*
X012710Y016843D01*
X012708Y016852D02*
X012016Y016852D01*
X012016Y016860D02*
X012705Y016860D01*
X012703Y016869D02*
X012016Y016869D01*
X012016Y016877D02*
X012701Y016877D01*
X012699Y016886D02*
X012016Y016886D01*
X012016Y016894D02*
X012697Y016894D01*
X012694Y016903D02*
X012016Y016903D01*
X012016Y016912D02*
X012692Y016912D01*
X012690Y016920D02*
X012016Y016920D01*
X012016Y016929D02*
X012688Y016929D01*
X012686Y016937D02*
X012016Y016937D01*
X012016Y016946D02*
X012683Y016946D01*
X012681Y016954D02*
X012016Y016954D01*
X012016Y016963D02*
X012679Y016963D01*
X012677Y016971D02*
X012016Y016971D01*
X012016Y016980D02*
X012675Y016980D01*
X012673Y016988D02*
X012016Y016988D01*
X012016Y016997D02*
X012670Y016997D01*
X012668Y017006D02*
X012016Y017006D01*
X012016Y017014D02*
X012667Y017014D01*
X012665Y017023D02*
X012016Y017023D01*
X012016Y017031D02*
X012664Y017031D01*
X012663Y017040D02*
X012016Y017040D01*
X012016Y017048D02*
X012661Y017048D01*
X012660Y017057D02*
X012016Y017057D01*
X012016Y017065D02*
X012659Y017065D01*
X012657Y017074D02*
X012016Y017074D01*
X012016Y017082D02*
X012656Y017082D01*
X012655Y017091D02*
X012016Y017091D01*
X012016Y017100D02*
X012653Y017100D01*
X012652Y017108D02*
X012016Y017108D01*
X012016Y017117D02*
X012651Y017117D01*
X012650Y017125D02*
X012016Y017125D01*
X012016Y017134D02*
X012648Y017134D01*
X012647Y017142D02*
X012016Y017142D01*
X012016Y017151D02*
X012646Y017151D01*
X012644Y017159D02*
X012016Y017159D01*
X012016Y017168D02*
X012643Y017168D01*
X012642Y017176D02*
X012016Y017176D01*
X012016Y017185D02*
X012640Y017185D01*
X012639Y017194D02*
X012016Y017194D01*
X012016Y017202D02*
X012638Y017202D01*
X012636Y017211D02*
X012016Y017211D01*
X012016Y017219D02*
X012635Y017219D01*
X012634Y017228D02*
X012016Y017228D01*
X012016Y017236D02*
X012633Y017236D01*
X012631Y017245D02*
X012016Y017245D01*
X012016Y017253D02*
X012630Y017253D01*
X012629Y017262D02*
X012016Y017262D01*
X012016Y017270D02*
X012629Y017270D01*
X012628Y017279D02*
X012016Y017279D01*
X012016Y017287D02*
X012628Y017287D01*
X012627Y017296D02*
X012016Y017296D01*
X012016Y017305D02*
X012627Y017305D01*
X012626Y017313D02*
X012016Y017313D01*
X012016Y017322D02*
X012626Y017322D01*
X012625Y017330D02*
X012016Y017330D01*
X012016Y017339D02*
X012625Y017339D01*
X012624Y017347D02*
X012016Y017347D01*
X012016Y017356D02*
X012624Y017356D01*
X012624Y017364D02*
X012016Y017364D01*
X012016Y017373D02*
X012623Y017373D01*
X012623Y017381D02*
X012016Y017381D01*
X012016Y017390D02*
X012622Y017390D01*
X012622Y017399D02*
X012016Y017399D01*
X012016Y017407D02*
X012621Y017407D01*
X012621Y017416D02*
X012016Y017416D01*
X012016Y017424D02*
X012620Y017424D01*
X012620Y017433D02*
X012016Y017433D01*
X012016Y017441D02*
X012619Y017441D01*
X012619Y017450D02*
X012016Y017450D01*
X012016Y017458D02*
X012619Y017458D01*
X012618Y017467D02*
X012016Y017467D01*
X012016Y017475D02*
X012618Y017475D01*
X012617Y017484D02*
X012016Y017484D01*
X012016Y017493D02*
X012617Y017493D01*
X012616Y017501D02*
X012016Y017501D01*
X012016Y017510D02*
X012616Y017510D01*
X012616Y017518D02*
X012016Y017518D01*
X012016Y017527D02*
X012616Y017527D01*
X012616Y017535D02*
X012016Y017535D01*
X012016Y017544D02*
X012616Y017544D01*
X012616Y017552D02*
X012016Y017552D01*
X012016Y017561D02*
X012617Y017561D01*
X012617Y017569D02*
X012016Y017569D01*
X012016Y017578D02*
X012617Y017578D01*
X012618Y017586D02*
X012016Y017586D01*
X012016Y017595D02*
X012618Y017595D01*
X012619Y017604D02*
X012016Y017604D01*
X012016Y017612D02*
X012619Y017612D01*
X012620Y017621D02*
X012016Y017621D01*
X012016Y017629D02*
X012620Y017629D01*
X012621Y017638D02*
X012016Y017638D01*
X012016Y017646D02*
X012621Y017646D01*
X012622Y017655D02*
X012016Y017655D01*
X012016Y017663D02*
X012622Y017663D01*
X012623Y017672D02*
X012016Y017672D01*
X012016Y017680D02*
X012623Y017680D01*
X012623Y017689D02*
X012016Y017689D01*
X012016Y017698D02*
X012624Y017698D01*
X012624Y017706D02*
X012016Y017706D01*
X012016Y017715D02*
X012625Y017715D01*
X012625Y017723D02*
X012016Y017723D01*
X012016Y017732D02*
X012626Y017732D01*
X012626Y017740D02*
X012016Y017740D01*
X012016Y017749D02*
X012627Y017749D01*
X012627Y017757D02*
X012016Y017757D01*
X012016Y017766D02*
X012628Y017766D01*
X012628Y017774D02*
X012016Y017774D01*
X012016Y017783D02*
X012629Y017783D01*
X012629Y017792D02*
X012016Y017792D01*
X012016Y017800D02*
X012629Y017800D01*
X012631Y017809D02*
X012016Y017809D01*
X012016Y017817D02*
X012632Y017817D01*
X012633Y017826D02*
X012016Y017826D01*
X012016Y017834D02*
X012635Y017834D01*
X012636Y017843D02*
X012016Y017843D01*
X012016Y017851D02*
X012637Y017851D01*
X012639Y017860D02*
X012016Y017860D01*
X012016Y017868D02*
X012640Y017868D01*
X012641Y017877D02*
X012016Y017877D01*
X012016Y017886D02*
X012643Y017886D01*
X012644Y017894D02*
X012016Y017894D01*
X012016Y017903D02*
X012645Y017903D01*
X012646Y017911D02*
X012016Y017911D01*
X012016Y017920D02*
X012648Y017920D01*
X012649Y017928D02*
X012016Y017928D01*
X012016Y017937D02*
X012650Y017937D01*
X012652Y017945D02*
X012016Y017945D01*
X012016Y017954D02*
X012653Y017954D01*
X012654Y017962D02*
X012016Y017962D01*
X012016Y017971D02*
X012656Y017971D01*
X012657Y017979D02*
X012016Y017979D01*
X012016Y017988D02*
X012658Y017988D01*
X012660Y017997D02*
X012016Y017997D01*
X012016Y018005D02*
X012661Y018005D01*
X012662Y018014D02*
X012016Y018014D01*
X012016Y018022D02*
X012664Y018022D01*
X012665Y018031D02*
X012016Y018031D01*
X012016Y018039D02*
X012666Y018039D01*
X012672Y018065D02*
X012016Y018065D01*
X012016Y018073D02*
X012674Y018073D01*
X012676Y018082D02*
X012016Y018082D01*
X012016Y018091D02*
X012678Y018091D01*
X012681Y018099D02*
X012016Y018099D01*
X012016Y018108D02*
X012683Y018108D01*
X012685Y018116D02*
X012016Y018116D01*
X012016Y018125D02*
X012687Y018125D01*
X012689Y018133D02*
X012016Y018133D01*
X012016Y018142D02*
X012691Y018142D01*
X012694Y018150D02*
X012016Y018150D01*
X012016Y018159D02*
X012696Y018159D01*
X012698Y018167D02*
X012016Y018167D01*
X012016Y018176D02*
X012700Y018176D01*
X012702Y018185D02*
X012016Y018185D01*
X012016Y018193D02*
X012705Y018193D01*
X012707Y018202D02*
X012016Y018202D01*
X012016Y018210D02*
X012709Y018210D01*
X012711Y018219D02*
X012016Y018219D01*
X012016Y018227D02*
X012713Y018227D01*
X012716Y018236D02*
X012016Y018236D01*
X012016Y018244D02*
X012718Y018244D01*
X012720Y018253D02*
X012016Y018253D01*
X012016Y018261D02*
X012722Y018261D01*
X012724Y018270D02*
X012016Y018270D01*
X012016Y018279D02*
X012726Y018279D01*
X012729Y018287D02*
X012016Y018287D01*
X012016Y018296D02*
X012731Y018296D01*
X012734Y018304D02*
X012016Y018304D01*
X012016Y018313D02*
X012737Y018313D01*
X012741Y018321D02*
X012016Y018321D01*
X012016Y018330D02*
X012744Y018330D01*
X012747Y018338D02*
X012016Y018338D01*
X012016Y018347D02*
X012750Y018347D01*
X012753Y018355D02*
X012016Y018355D01*
X012016Y018364D02*
X012756Y018364D01*
X012759Y018372D02*
X012016Y018372D01*
X012016Y018381D02*
X012762Y018381D01*
X012765Y018390D02*
X012016Y018390D01*
X012016Y018398D02*
X012769Y018398D01*
X012772Y018407D02*
X012016Y018407D01*
X012016Y018415D02*
X012775Y018415D01*
X012778Y018424D02*
X012016Y018424D01*
X012016Y018432D02*
X012781Y018432D01*
X012784Y018441D02*
X012016Y018441D01*
X012016Y018449D02*
X012787Y018449D01*
X012790Y018458D02*
X012016Y018458D01*
X012016Y018466D02*
X012793Y018466D01*
X012796Y018475D02*
X012016Y018475D01*
X012016Y018484D02*
X012800Y018484D01*
X012803Y018492D02*
X012016Y018492D01*
X012016Y018501D02*
X012806Y018501D01*
X012809Y018509D02*
X012016Y018509D01*
X012016Y018518D02*
X012812Y018518D01*
X012815Y018526D02*
X012016Y018526D01*
X012973Y018261D02*
X013183Y018261D01*
X013180Y018253D02*
X012970Y018253D01*
X012968Y018244D02*
X013177Y018244D01*
X013175Y018236D02*
X012966Y018236D01*
X012963Y018227D02*
X013172Y018227D01*
X013169Y018219D02*
X012961Y018219D01*
X012959Y018210D02*
X013166Y018210D01*
X013164Y018202D02*
X012956Y018202D01*
X012954Y018193D02*
X013161Y018193D01*
X013158Y018185D02*
X012951Y018185D01*
X012949Y018176D02*
X013155Y018176D01*
X013153Y018167D02*
X012947Y018167D01*
X012944Y018159D02*
X013150Y018159D01*
X013147Y018150D02*
X012942Y018150D01*
X012940Y018142D02*
X013144Y018142D01*
X013141Y018133D02*
X012937Y018133D01*
X012935Y018125D02*
X013139Y018125D01*
X013136Y018116D02*
X012932Y018116D01*
X012930Y018108D02*
X013133Y018108D01*
X013130Y018099D02*
X012928Y018099D01*
X012925Y018091D02*
X013128Y018091D01*
X013079Y017862D01*
X013056Y017628D01*
X013256Y017628D01*
X013256Y017428D01*
X013056Y017428D01*
X013079Y017195D01*
X013128Y016965D01*
X013200Y016742D01*
X013296Y016528D01*
X013076Y016528D01*
X012982Y016763D01*
X012914Y017007D01*
X012872Y017256D01*
X012856Y017508D01*
X012856Y017528D01*
X012870Y017786D01*
X012911Y018040D01*
X012980Y018289D01*
X013076Y018528D01*
X013296Y018528D01*
X013200Y018314D01*
X013128Y018091D01*
X013126Y018082D02*
X012923Y018082D01*
X012921Y018073D02*
X013124Y018073D01*
X013122Y018065D02*
X012918Y018065D01*
X012916Y018056D02*
X013120Y018056D01*
X013119Y018048D02*
X012914Y018048D01*
X012911Y018039D02*
X013117Y018039D01*
X013115Y018031D02*
X012910Y018031D01*
X012908Y018022D02*
X013113Y018022D01*
X013111Y018014D02*
X012907Y018014D01*
X012906Y018005D02*
X013110Y018005D01*
X013108Y017997D02*
X012904Y017997D01*
X012903Y017988D02*
X013106Y017988D01*
X013104Y017979D02*
X012901Y017979D01*
X012900Y017971D02*
X013102Y017971D01*
X013101Y017962D02*
X012899Y017962D01*
X012897Y017954D02*
X013099Y017954D01*
X013097Y017945D02*
X012896Y017945D01*
X012894Y017937D02*
X013095Y017937D01*
X013094Y017928D02*
X012893Y017928D01*
X012892Y017920D02*
X013092Y017920D01*
X013090Y017911D02*
X012890Y017911D01*
X012889Y017903D02*
X013088Y017903D01*
X013086Y017894D02*
X012888Y017894D01*
X012886Y017886D02*
X013085Y017886D01*
X013083Y017877D02*
X012885Y017877D01*
X012883Y017868D02*
X013081Y017868D01*
X013079Y017860D02*
X012882Y017860D01*
X012881Y017851D02*
X013078Y017851D01*
X013078Y017843D02*
X012879Y017843D01*
X012878Y017834D02*
X013077Y017834D01*
X013076Y017826D02*
X012876Y017826D01*
X012875Y017817D02*
X013075Y017817D01*
X013074Y017809D02*
X012874Y017809D01*
X012872Y017800D02*
X013073Y017800D01*
X013072Y017792D02*
X012871Y017792D01*
X012870Y017783D02*
X013072Y017783D01*
X013071Y017774D02*
X012869Y017774D01*
X012869Y017766D02*
X013070Y017766D01*
X013069Y017757D02*
X012868Y017757D01*
X012868Y017749D02*
X013068Y017749D01*
X013067Y017740D02*
X012867Y017740D01*
X012867Y017732D02*
X013066Y017732D01*
X013066Y017723D02*
X012866Y017723D01*
X012866Y017715D02*
X013065Y017715D01*
X013064Y017706D02*
X012866Y017706D01*
X012865Y017698D02*
X013063Y017698D01*
X013062Y017689D02*
X012865Y017689D01*
X012864Y017680D02*
X013061Y017680D01*
X013060Y017672D02*
X012864Y017672D01*
X012863Y017663D02*
X013060Y017663D01*
X013059Y017655D02*
X012863Y017655D01*
X012862Y017646D02*
X013058Y017646D01*
X013057Y017638D02*
X012862Y017638D01*
X012861Y017629D02*
X013056Y017629D01*
X012861Y017621D02*
X013256Y017621D01*
X013256Y017612D02*
X012860Y017612D01*
X012860Y017604D02*
X013256Y017604D01*
X013256Y017595D02*
X012860Y017595D01*
X012859Y017586D02*
X013256Y017586D01*
X013256Y017578D02*
X012859Y017578D01*
X012858Y017569D02*
X013256Y017569D01*
X013256Y017561D02*
X012858Y017561D01*
X012857Y017552D02*
X013256Y017552D01*
X013256Y017544D02*
X012857Y017544D01*
X012856Y017535D02*
X013256Y017535D01*
X013256Y017527D02*
X012856Y017527D01*
X012856Y017518D02*
X013256Y017518D01*
X013256Y017510D02*
X012856Y017510D01*
X012856Y017501D02*
X013256Y017501D01*
X013256Y017493D02*
X012857Y017493D01*
X012858Y017484D02*
X013256Y017484D01*
X013256Y017475D02*
X012858Y017475D01*
X012859Y017467D02*
X013256Y017467D01*
X013256Y017458D02*
X012859Y017458D01*
X012860Y017450D02*
X013256Y017450D01*
X013256Y017441D02*
X012860Y017441D01*
X012861Y017433D02*
X013256Y017433D01*
X013057Y017416D02*
X012862Y017416D01*
X012861Y017424D02*
X013056Y017424D01*
X013058Y017407D02*
X012862Y017407D01*
X012863Y017399D02*
X013059Y017399D01*
X013060Y017390D02*
X012863Y017390D01*
X012864Y017381D02*
X013061Y017381D01*
X013062Y017373D02*
X012864Y017373D01*
X012865Y017364D02*
X013062Y017364D01*
X013063Y017356D02*
X012866Y017356D01*
X012866Y017347D02*
X013064Y017347D01*
X013065Y017339D02*
X012867Y017339D01*
X012867Y017330D02*
X013066Y017330D01*
X013067Y017322D02*
X012868Y017322D01*
X012868Y017313D02*
X013068Y017313D01*
X013068Y017305D02*
X012869Y017305D01*
X012869Y017296D02*
X013069Y017296D01*
X013070Y017287D02*
X012870Y017287D01*
X012870Y017279D02*
X013071Y017279D01*
X013072Y017270D02*
X012871Y017270D01*
X012871Y017262D02*
X013073Y017262D01*
X013074Y017253D02*
X012872Y017253D01*
X012874Y017245D02*
X013074Y017245D01*
X013075Y017236D02*
X012875Y017236D01*
X012877Y017228D02*
X013076Y017228D01*
X013077Y017219D02*
X012878Y017219D01*
X012879Y017211D02*
X013078Y017211D01*
X013079Y017202D02*
X012881Y017202D01*
X012882Y017194D02*
X013080Y017194D01*
X013082Y017185D02*
X012884Y017185D01*
X012885Y017176D02*
X013083Y017176D01*
X013085Y017168D02*
X012887Y017168D01*
X012888Y017159D02*
X013087Y017159D01*
X013089Y017151D02*
X012890Y017151D01*
X012891Y017142D02*
X013091Y017142D01*
X013092Y017134D02*
X012892Y017134D01*
X012894Y017125D02*
X013094Y017125D01*
X013096Y017117D02*
X012895Y017117D01*
X012897Y017108D02*
X013098Y017108D01*
X013100Y017100D02*
X012898Y017100D01*
X012900Y017091D02*
X013101Y017091D01*
X013103Y017082D02*
X012901Y017082D01*
X012903Y017074D02*
X013105Y017074D01*
X013107Y017065D02*
X012904Y017065D01*
X012905Y017057D02*
X013109Y017057D01*
X013110Y017048D02*
X012907Y017048D01*
X012908Y017040D02*
X013112Y017040D01*
X013114Y017031D02*
X012910Y017031D01*
X012911Y017023D02*
X013116Y017023D01*
X013117Y017014D02*
X012913Y017014D01*
X012914Y017006D02*
X013119Y017006D01*
X013121Y016997D02*
X012917Y016997D01*
X012919Y016988D02*
X013123Y016988D01*
X013125Y016980D02*
X012921Y016980D01*
X012924Y016971D02*
X013126Y016971D01*
X013129Y016963D02*
X012926Y016963D01*
X012929Y016954D02*
X013131Y016954D01*
X013134Y016946D02*
X012931Y016946D01*
X012933Y016937D02*
X013137Y016937D01*
X013140Y016929D02*
X012936Y016929D01*
X012938Y016920D02*
X013142Y016920D01*
X013145Y016912D02*
X012941Y016912D01*
X012943Y016903D02*
X013148Y016903D01*
X013151Y016894D02*
X012945Y016894D01*
X012948Y016886D02*
X013153Y016886D01*
X013156Y016877D02*
X012950Y016877D01*
X012953Y016869D02*
X013159Y016869D01*
X013162Y016860D02*
X012955Y016860D01*
X012957Y016852D02*
X013165Y016852D01*
X013167Y016843D02*
X012960Y016843D01*
X012962Y016835D02*
X013170Y016835D01*
X013173Y016826D02*
X012965Y016826D01*
X012967Y016818D02*
X013176Y016818D01*
X013178Y016809D02*
X012969Y016809D01*
X012972Y016801D02*
X013181Y016801D01*
X013184Y016792D02*
X012974Y016792D01*
X012977Y016783D02*
X013187Y016783D01*
X013189Y016775D02*
X012979Y016775D01*
X012981Y016766D02*
X013192Y016766D01*
X013195Y016758D02*
X012984Y016758D01*
X012988Y016749D02*
X013198Y016749D01*
X013201Y016741D02*
X012991Y016741D01*
X012995Y016732D02*
X013205Y016732D01*
X013208Y016724D02*
X012998Y016724D01*
X013001Y016715D02*
X013212Y016715D01*
X013216Y016707D02*
X013005Y016707D01*
X013008Y016698D02*
X013220Y016698D01*
X013224Y016689D02*
X013012Y016689D01*
X013015Y016681D02*
X013228Y016681D01*
X013231Y016672D02*
X013018Y016672D01*
X013022Y016664D02*
X013235Y016664D01*
X013239Y016655D02*
X013025Y016655D01*
X013029Y016647D02*
X013243Y016647D01*
X013247Y016638D02*
X013032Y016638D01*
X013035Y016630D02*
X013250Y016630D01*
X013254Y016621D02*
X013039Y016621D01*
X013042Y016613D02*
X013258Y016613D01*
X013262Y016604D02*
X013046Y016604D01*
X013049Y016595D02*
X013266Y016595D01*
X013269Y016587D02*
X013052Y016587D01*
X013056Y016578D02*
X013273Y016578D01*
X013277Y016570D02*
X013059Y016570D01*
X013063Y016561D02*
X013281Y016561D01*
X013285Y016553D02*
X013066Y016553D01*
X013069Y016544D02*
X013289Y016544D01*
X013292Y016536D02*
X013073Y016536D01*
X013456Y016536D02*
X013656Y016536D01*
X013656Y016528D02*
X013656Y018528D01*
X013456Y018528D01*
X013456Y016528D01*
X013656Y016528D01*
X013656Y016544D02*
X013456Y016544D01*
X013456Y016553D02*
X013656Y016553D01*
X013656Y016561D02*
X013456Y016561D01*
X013456Y016570D02*
X013656Y016570D01*
X013656Y016578D02*
X013456Y016578D01*
X013456Y016587D02*
X013656Y016587D01*
X013656Y016595D02*
X013456Y016595D01*
X013456Y016604D02*
X013656Y016604D01*
X013656Y016613D02*
X013456Y016613D01*
X013456Y016621D02*
X013656Y016621D01*
X013656Y016630D02*
X013456Y016630D01*
X013456Y016638D02*
X013656Y016638D01*
X013656Y016647D02*
X013456Y016647D01*
X013456Y016655D02*
X013656Y016655D01*
X013656Y016664D02*
X013456Y016664D01*
X013456Y016672D02*
X013656Y016672D01*
X013656Y016681D02*
X013456Y016681D01*
X013456Y016689D02*
X013656Y016689D01*
X013656Y016698D02*
X013456Y016698D01*
X013456Y016707D02*
X013656Y016707D01*
X013656Y016715D02*
X013456Y016715D01*
X013456Y016724D02*
X013656Y016724D01*
X013656Y016732D02*
X013456Y016732D01*
X013456Y016741D02*
X013656Y016741D01*
X013656Y016749D02*
X013456Y016749D01*
X013456Y016758D02*
X013656Y016758D01*
X013656Y016766D02*
X013456Y016766D01*
X013456Y016775D02*
X013656Y016775D01*
X013656Y016783D02*
X013456Y016783D01*
X013456Y016792D02*
X013656Y016792D01*
X013656Y016801D02*
X013456Y016801D01*
X013456Y016809D02*
X013656Y016809D01*
X013656Y016818D02*
X013456Y016818D01*
X013456Y016826D02*
X013656Y016826D01*
X013656Y016835D02*
X013456Y016835D01*
X013456Y016843D02*
X013656Y016843D01*
X013656Y016852D02*
X013456Y016852D01*
X013456Y016860D02*
X013656Y016860D01*
X013656Y016869D02*
X013456Y016869D01*
X013456Y016877D02*
X013656Y016877D01*
X013656Y016886D02*
X013456Y016886D01*
X013456Y016894D02*
X013656Y016894D01*
X013656Y016903D02*
X013456Y016903D01*
X013456Y016912D02*
X013656Y016912D01*
X013656Y016920D02*
X013456Y016920D01*
X013456Y016929D02*
X013656Y016929D01*
X013656Y016937D02*
X013456Y016937D01*
X013456Y016946D02*
X013656Y016946D01*
X013656Y016954D02*
X013456Y016954D01*
X013456Y016963D02*
X013656Y016963D01*
X013656Y016971D02*
X013456Y016971D01*
X013456Y016980D02*
X013656Y016980D01*
X013656Y016988D02*
X013456Y016988D01*
X013456Y016997D02*
X013656Y016997D01*
X013656Y017006D02*
X013456Y017006D01*
X013456Y017014D02*
X013656Y017014D01*
X013656Y017023D02*
X013456Y017023D01*
X013456Y017031D02*
X013656Y017031D01*
X013656Y017040D02*
X013456Y017040D01*
X013456Y017048D02*
X013656Y017048D01*
X013656Y017057D02*
X013456Y017057D01*
X013456Y017065D02*
X013656Y017065D01*
X013656Y017074D02*
X013456Y017074D01*
X013456Y017082D02*
X013656Y017082D01*
X013656Y017091D02*
X013456Y017091D01*
X013456Y017100D02*
X013656Y017100D01*
X013656Y017108D02*
X013456Y017108D01*
X013456Y017117D02*
X013656Y017117D01*
X013656Y017125D02*
X013456Y017125D01*
X013456Y017134D02*
X013656Y017134D01*
X013656Y017142D02*
X013456Y017142D01*
X013456Y017151D02*
X013656Y017151D01*
X013656Y017159D02*
X013456Y017159D01*
X013456Y017168D02*
X013656Y017168D01*
X013656Y017176D02*
X013456Y017176D01*
X013456Y017185D02*
X013656Y017185D01*
X013656Y017194D02*
X013456Y017194D01*
X013456Y017202D02*
X013656Y017202D01*
X013656Y017211D02*
X013456Y017211D01*
X013456Y017219D02*
X013656Y017219D01*
X013656Y017228D02*
X013456Y017228D01*
X013456Y017236D02*
X013656Y017236D01*
X013656Y017245D02*
X013456Y017245D01*
X013456Y017253D02*
X013656Y017253D01*
X013656Y017262D02*
X013456Y017262D01*
X013456Y017270D02*
X013656Y017270D01*
X013656Y017279D02*
X013456Y017279D01*
X013456Y017287D02*
X013656Y017287D01*
X013656Y017296D02*
X013456Y017296D01*
X013456Y017305D02*
X013656Y017305D01*
X013656Y017313D02*
X013456Y017313D01*
X013456Y017322D02*
X013656Y017322D01*
X013656Y017330D02*
X013456Y017330D01*
X013456Y017339D02*
X013656Y017339D01*
X013656Y017347D02*
X013456Y017347D01*
X013456Y017356D02*
X013656Y017356D01*
X013656Y017364D02*
X013456Y017364D01*
X013456Y017373D02*
X013656Y017373D01*
X013656Y017381D02*
X013456Y017381D01*
X013456Y017390D02*
X013656Y017390D01*
X013656Y017399D02*
X013456Y017399D01*
X013456Y017407D02*
X013656Y017407D01*
X013656Y017416D02*
X013456Y017416D01*
X013456Y017424D02*
X013656Y017424D01*
X013656Y017433D02*
X013456Y017433D01*
X013456Y017441D02*
X013656Y017441D01*
X013656Y017450D02*
X013456Y017450D01*
X013456Y017458D02*
X013656Y017458D01*
X013656Y017467D02*
X013456Y017467D01*
X013456Y017475D02*
X013656Y017475D01*
X013656Y017484D02*
X013456Y017484D01*
X013456Y017493D02*
X013656Y017493D01*
X013656Y017501D02*
X013456Y017501D01*
X013456Y017510D02*
X013656Y017510D01*
X013656Y017518D02*
X013456Y017518D01*
X013456Y017527D02*
X013656Y017527D01*
X013656Y017535D02*
X013456Y017535D01*
X013456Y017544D02*
X013656Y017544D01*
X013656Y017552D02*
X013456Y017552D01*
X013456Y017561D02*
X013656Y017561D01*
X013656Y017569D02*
X013456Y017569D01*
X013456Y017578D02*
X013656Y017578D01*
X013656Y017586D02*
X013456Y017586D01*
X013456Y017595D02*
X013656Y017595D01*
X013656Y017604D02*
X013456Y017604D01*
X013456Y017612D02*
X013656Y017612D01*
X013656Y017621D02*
X013456Y017621D01*
X013456Y017629D02*
X013656Y017629D01*
X013656Y017638D02*
X013456Y017638D01*
X013456Y017646D02*
X013656Y017646D01*
X013656Y017655D02*
X013456Y017655D01*
X013456Y017663D02*
X013656Y017663D01*
X013656Y017672D02*
X013456Y017672D01*
X013456Y017680D02*
X013656Y017680D01*
X013656Y017689D02*
X013456Y017689D01*
X013456Y017698D02*
X013656Y017698D01*
X013656Y017706D02*
X013456Y017706D01*
X013456Y017715D02*
X013656Y017715D01*
X013656Y017723D02*
X013456Y017723D01*
X013456Y017732D02*
X013656Y017732D01*
X013656Y017740D02*
X013456Y017740D01*
X013456Y017749D02*
X013656Y017749D01*
X013656Y017757D02*
X013456Y017757D01*
X013456Y017766D02*
X013656Y017766D01*
X013656Y017774D02*
X013456Y017774D01*
X013456Y017783D02*
X013656Y017783D01*
X013656Y017792D02*
X013456Y017792D01*
X013456Y017800D02*
X013656Y017800D01*
X013656Y017809D02*
X013456Y017809D01*
X013456Y017817D02*
X013656Y017817D01*
X013656Y017826D02*
X013456Y017826D01*
X013456Y017834D02*
X013656Y017834D01*
X013656Y017843D02*
X013456Y017843D01*
X013456Y017851D02*
X013656Y017851D01*
X013656Y017860D02*
X013456Y017860D01*
X013456Y017868D02*
X013656Y017868D01*
X013656Y017877D02*
X013456Y017877D01*
X013456Y017886D02*
X013656Y017886D01*
X013656Y017894D02*
X013456Y017894D01*
X013456Y017903D02*
X013656Y017903D01*
X013656Y017911D02*
X013456Y017911D01*
X013456Y017920D02*
X013656Y017920D01*
X013656Y017928D02*
X013456Y017928D01*
X013456Y017937D02*
X013656Y017937D01*
X013656Y017945D02*
X013456Y017945D01*
X013456Y017954D02*
X013656Y017954D01*
X013656Y017962D02*
X013456Y017962D01*
X013456Y017971D02*
X013656Y017971D01*
X013656Y017979D02*
X013456Y017979D01*
X013456Y017988D02*
X013656Y017988D01*
X013656Y017997D02*
X013456Y017997D01*
X013456Y018005D02*
X013656Y018005D01*
X013656Y018014D02*
X013456Y018014D01*
X013456Y018022D02*
X013656Y018022D01*
X013656Y018031D02*
X013456Y018031D01*
X013456Y018039D02*
X013656Y018039D01*
X013656Y018048D02*
X013456Y018048D01*
X013456Y018056D02*
X013656Y018056D01*
X013656Y018065D02*
X013456Y018065D01*
X013456Y018073D02*
X013656Y018073D01*
X013656Y018082D02*
X013456Y018082D01*
X013456Y018091D02*
X013656Y018091D01*
X013656Y018099D02*
X013456Y018099D01*
X013456Y018108D02*
X013656Y018108D01*
X013656Y018116D02*
X013456Y018116D01*
X013456Y018125D02*
X013656Y018125D01*
X013656Y018133D02*
X013456Y018133D01*
X013456Y018142D02*
X013656Y018142D01*
X013656Y018150D02*
X013456Y018150D01*
X013456Y018159D02*
X013656Y018159D01*
X013656Y018167D02*
X013456Y018167D01*
X013456Y018176D02*
X013656Y018176D01*
X013656Y018185D02*
X013456Y018185D01*
X013456Y018193D02*
X013656Y018193D01*
X013656Y018202D02*
X013456Y018202D01*
X013456Y018210D02*
X013656Y018210D01*
X013656Y018219D02*
X013456Y018219D01*
X013456Y018227D02*
X013656Y018227D01*
X013656Y018236D02*
X013456Y018236D01*
X013456Y018244D02*
X013656Y018244D01*
X013656Y018253D02*
X013456Y018253D01*
X013456Y018261D02*
X013656Y018261D01*
X013656Y018270D02*
X013456Y018270D01*
X013456Y018279D02*
X013656Y018279D01*
X013656Y018287D02*
X013456Y018287D01*
X013456Y018296D02*
X013656Y018296D01*
X013656Y018304D02*
X013456Y018304D01*
X013456Y018313D02*
X013656Y018313D01*
X013656Y018321D02*
X013456Y018321D01*
X013456Y018330D02*
X013656Y018330D01*
X013656Y018338D02*
X013456Y018338D01*
X013456Y018347D02*
X013656Y018347D01*
X013656Y018355D02*
X013456Y018355D01*
X013456Y018364D02*
X013656Y018364D01*
X013656Y018372D02*
X013456Y018372D01*
X013456Y018381D02*
X013656Y018381D01*
X013656Y018390D02*
X013456Y018390D01*
X013456Y018398D02*
X013656Y018398D01*
X013656Y018407D02*
X013456Y018407D01*
X013456Y018415D02*
X013656Y018415D01*
X013656Y018424D02*
X013456Y018424D01*
X013456Y018432D02*
X013656Y018432D01*
X013656Y018441D02*
X013456Y018441D01*
X013456Y018449D02*
X013656Y018449D01*
X013656Y018458D02*
X013456Y018458D01*
X013456Y018466D02*
X013656Y018466D01*
X013656Y018475D02*
X013456Y018475D01*
X013456Y018484D02*
X013656Y018484D01*
X013656Y018492D02*
X013456Y018492D01*
X013456Y018501D02*
X013656Y018501D01*
X013656Y018509D02*
X013456Y018509D01*
X013456Y018518D02*
X013656Y018518D01*
X013656Y018526D02*
X013456Y018526D01*
X013295Y018526D02*
X013075Y018526D01*
X013071Y018518D02*
X013291Y018518D01*
X013287Y018509D02*
X013068Y018509D01*
X013065Y018501D02*
X013283Y018501D01*
X013280Y018492D02*
X013061Y018492D01*
X013058Y018484D02*
X013276Y018484D01*
X013272Y018475D02*
X013054Y018475D01*
X013051Y018466D02*
X013268Y018466D01*
X013264Y018458D02*
X013048Y018458D01*
X013044Y018449D02*
X013261Y018449D01*
X013257Y018441D02*
X013041Y018441D01*
X013037Y018432D02*
X013253Y018432D01*
X013249Y018424D02*
X013034Y018424D01*
X013031Y018415D02*
X013245Y018415D01*
X013241Y018407D02*
X013027Y018407D01*
X013024Y018398D02*
X013238Y018398D01*
X013234Y018390D02*
X013020Y018390D01*
X013017Y018381D02*
X013230Y018381D01*
X013226Y018372D02*
X013014Y018372D01*
X013010Y018364D02*
X013222Y018364D01*
X013219Y018355D02*
X013007Y018355D01*
X013003Y018347D02*
X013215Y018347D01*
X013211Y018338D02*
X013000Y018338D01*
X012997Y018330D02*
X013207Y018330D01*
X013203Y018321D02*
X012993Y018321D01*
X012990Y018313D02*
X013200Y018313D01*
X013197Y018304D02*
X012986Y018304D01*
X012983Y018296D02*
X013194Y018296D01*
X013191Y018287D02*
X012980Y018287D01*
X012977Y018279D02*
X013189Y018279D01*
X013186Y018270D02*
X012975Y018270D01*
X013756Y018468D02*
X013806Y018370D01*
X013844Y018266D01*
X013867Y018158D01*
X013876Y018048D01*
X014034Y018048D01*
X014034Y018056D02*
X013875Y018056D01*
X013876Y018048D02*
X013876Y018008D01*
X013868Y017901D01*
X013847Y017796D01*
X013813Y017695D01*
X013766Y017598D01*
X013766Y017528D01*
X013896Y017528D01*
X013955Y017645D01*
X013999Y017769D01*
X014026Y017897D01*
X014036Y018028D01*
X014026Y018159D01*
X013999Y018287D01*
X013836Y018287D01*
X013833Y018296D02*
X013996Y018296D01*
X013993Y018304D02*
X013830Y018304D01*
X013827Y018313D02*
X013990Y018313D01*
X013987Y018321D02*
X013824Y018321D01*
X013821Y018330D02*
X013984Y018330D01*
X013981Y018338D02*
X013818Y018338D01*
X013815Y018347D02*
X013978Y018347D01*
X013975Y018355D02*
X013812Y018355D01*
X013809Y018364D02*
X013972Y018364D01*
X013969Y018372D02*
X013805Y018372D01*
X013801Y018381D02*
X013966Y018381D01*
X013963Y018390D02*
X013797Y018390D01*
X013792Y018398D02*
X013960Y018398D01*
X013957Y018407D02*
X013788Y018407D01*
X013783Y018415D02*
X013953Y018415D01*
X013955Y018411D02*
X013999Y018287D01*
X014001Y018279D02*
X013839Y018279D01*
X013842Y018270D02*
X014003Y018270D01*
X014004Y018261D02*
X013845Y018261D01*
X013847Y018253D02*
X014006Y018253D01*
X014008Y018244D02*
X013848Y018244D01*
X013850Y018236D02*
X014010Y018236D01*
X014012Y018227D02*
X013852Y018227D01*
X013854Y018219D02*
X014013Y018219D01*
X014015Y018210D02*
X013856Y018210D01*
X013858Y018202D02*
X014017Y018202D01*
X014019Y018193D02*
X013859Y018193D01*
X013861Y018185D02*
X014021Y018185D01*
X014022Y018176D02*
X013863Y018176D01*
X013865Y018167D02*
X014024Y018167D01*
X014026Y018159D02*
X013867Y018159D01*
X013867Y018150D02*
X014027Y018150D01*
X014027Y018142D02*
X013868Y018142D01*
X013869Y018133D02*
X014028Y018133D01*
X014029Y018125D02*
X013870Y018125D01*
X013870Y018116D02*
X014029Y018116D01*
X014030Y018108D02*
X013871Y018108D01*
X013872Y018099D02*
X014030Y018099D01*
X014031Y018091D02*
X013872Y018091D01*
X013873Y018082D02*
X014032Y018082D01*
X014032Y018073D02*
X013874Y018073D01*
X013874Y018065D02*
X014033Y018065D01*
X014035Y018039D02*
X013876Y018039D01*
X013876Y018031D02*
X014036Y018031D01*
X014035Y018022D02*
X013876Y018022D01*
X013876Y018014D02*
X014035Y018014D01*
X014034Y018005D02*
X013875Y018005D01*
X013875Y017997D02*
X014034Y017997D01*
X014033Y017988D02*
X013874Y017988D01*
X013874Y017979D02*
X014032Y017979D01*
X014032Y017971D02*
X013873Y017971D01*
X013872Y017962D02*
X014031Y017962D01*
X014030Y017954D02*
X013872Y017954D01*
X013871Y017945D02*
X014030Y017945D01*
X014029Y017937D02*
X013871Y017937D01*
X013870Y017928D02*
X014028Y017928D01*
X014028Y017920D02*
X013869Y017920D01*
X013869Y017911D02*
X014027Y017911D01*
X014026Y017903D02*
X013868Y017903D01*
X013867Y017894D02*
X014025Y017894D01*
X014023Y017886D02*
X013865Y017886D01*
X013863Y017877D02*
X014022Y017877D01*
X014020Y017868D02*
X013861Y017868D01*
X013860Y017860D02*
X014018Y017860D01*
X014016Y017851D02*
X013858Y017851D01*
X013856Y017843D02*
X014014Y017843D01*
X014013Y017834D02*
X013855Y017834D01*
X013853Y017826D02*
X014011Y017826D01*
X014009Y017817D02*
X013851Y017817D01*
X013849Y017809D02*
X014007Y017809D01*
X014005Y017800D02*
X013848Y017800D01*
X013845Y017792D02*
X014004Y017792D01*
X014002Y017783D02*
X013843Y017783D01*
X013840Y017774D02*
X014000Y017774D01*
X013998Y017766D02*
X013837Y017766D01*
X013834Y017757D02*
X013995Y017757D01*
X013992Y017749D02*
X013831Y017749D01*
X013828Y017740D02*
X013989Y017740D01*
X013986Y017732D02*
X013825Y017732D01*
X013822Y017723D02*
X013983Y017723D01*
X013980Y017715D02*
X013819Y017715D01*
X013817Y017706D02*
X013977Y017706D01*
X013974Y017698D02*
X013814Y017698D01*
X013810Y017689D02*
X013971Y017689D01*
X013968Y017680D02*
X013806Y017680D01*
X013802Y017672D02*
X013965Y017672D01*
X013962Y017663D02*
X013797Y017663D01*
X013793Y017655D02*
X013959Y017655D01*
X013956Y017646D02*
X013789Y017646D01*
X013785Y017638D02*
X013951Y017638D01*
X013947Y017629D02*
X013781Y017629D01*
X013777Y017621D02*
X013943Y017621D01*
X013938Y017612D02*
X013773Y017612D01*
X013768Y017604D02*
X013934Y017604D01*
X013930Y017595D02*
X013766Y017595D01*
X013766Y017586D02*
X013925Y017586D01*
X013921Y017578D02*
X013766Y017578D01*
X013766Y017569D02*
X013917Y017569D01*
X013912Y017561D02*
X013766Y017561D01*
X013766Y017552D02*
X013908Y017552D01*
X013904Y017544D02*
X013766Y017544D01*
X013766Y017535D02*
X013899Y017535D01*
X014156Y017528D02*
X014170Y017786D01*
X014211Y018040D01*
X014280Y018289D01*
X014376Y018528D01*
X014596Y018528D01*
X014500Y018314D01*
X014428Y018091D01*
X014379Y017862D01*
X014356Y017628D01*
X014556Y017628D01*
X014556Y017428D01*
X014356Y017428D01*
X014356Y016528D01*
X014156Y016528D01*
X014156Y017528D01*
X014156Y017527D02*
X014556Y017527D01*
X014556Y017535D02*
X014156Y017535D01*
X014157Y017544D02*
X014556Y017544D01*
X014556Y017552D02*
X014157Y017552D01*
X014158Y017561D02*
X014556Y017561D01*
X014556Y017569D02*
X014158Y017569D01*
X014159Y017578D02*
X014556Y017578D01*
X014556Y017586D02*
X014159Y017586D01*
X014160Y017595D02*
X014556Y017595D01*
X014556Y017604D02*
X014160Y017604D01*
X014160Y017612D02*
X014556Y017612D01*
X014556Y017621D02*
X014161Y017621D01*
X014161Y017629D02*
X014356Y017629D01*
X014357Y017638D02*
X014162Y017638D01*
X014162Y017646D02*
X014358Y017646D01*
X014359Y017655D02*
X014163Y017655D01*
X014163Y017663D02*
X014360Y017663D01*
X014360Y017672D02*
X014164Y017672D01*
X014164Y017680D02*
X014361Y017680D01*
X014362Y017689D02*
X014165Y017689D01*
X014165Y017698D02*
X014363Y017698D01*
X014364Y017706D02*
X014166Y017706D01*
X014166Y017715D02*
X014365Y017715D01*
X014366Y017723D02*
X014166Y017723D01*
X014167Y017732D02*
X014366Y017732D01*
X014367Y017740D02*
X014167Y017740D01*
X014168Y017749D02*
X014368Y017749D01*
X014369Y017757D02*
X014168Y017757D01*
X014169Y017766D02*
X014370Y017766D01*
X014371Y017774D02*
X014169Y017774D01*
X014170Y017783D02*
X014372Y017783D01*
X014372Y017792D02*
X014171Y017792D01*
X014172Y017800D02*
X014373Y017800D01*
X014374Y017809D02*
X014174Y017809D01*
X014175Y017817D02*
X014375Y017817D01*
X014376Y017826D02*
X014176Y017826D01*
X014178Y017834D02*
X014377Y017834D01*
X014378Y017843D02*
X014179Y017843D01*
X014181Y017851D02*
X014378Y017851D01*
X014379Y017860D02*
X014182Y017860D01*
X014183Y017868D02*
X014381Y017868D01*
X014383Y017877D02*
X014185Y017877D01*
X014186Y017886D02*
X014385Y017886D01*
X014386Y017894D02*
X014188Y017894D01*
X014189Y017903D02*
X014388Y017903D01*
X014390Y017911D02*
X014190Y017911D01*
X014192Y017920D02*
X014392Y017920D01*
X014394Y017928D02*
X014193Y017928D01*
X014194Y017937D02*
X014395Y017937D01*
X014397Y017945D02*
X014196Y017945D01*
X014197Y017954D02*
X014399Y017954D01*
X014401Y017962D02*
X014199Y017962D01*
X014200Y017971D02*
X014402Y017971D01*
X014404Y017979D02*
X014201Y017979D01*
X014203Y017988D02*
X014406Y017988D01*
X014408Y017997D02*
X014204Y017997D01*
X014206Y018005D02*
X014410Y018005D01*
X014411Y018014D02*
X014207Y018014D01*
X014208Y018022D02*
X014413Y018022D01*
X014415Y018031D02*
X014210Y018031D01*
X014211Y018039D02*
X014417Y018039D01*
X014419Y018048D02*
X014214Y018048D01*
X014216Y018056D02*
X014420Y018056D01*
X014422Y018065D02*
X014218Y018065D01*
X014221Y018073D02*
X014424Y018073D01*
X014426Y018082D02*
X014223Y018082D01*
X014225Y018091D02*
X014428Y018091D01*
X014430Y018099D02*
X014228Y018099D01*
X014230Y018108D02*
X014433Y018108D01*
X014436Y018116D02*
X014232Y018116D01*
X014235Y018125D02*
X014439Y018125D01*
X014441Y018133D02*
X014237Y018133D01*
X014240Y018142D02*
X014444Y018142D01*
X014447Y018150D02*
X014242Y018150D01*
X014244Y018159D02*
X014450Y018159D01*
X014453Y018167D02*
X014247Y018167D01*
X014249Y018176D02*
X014455Y018176D01*
X014458Y018185D02*
X014251Y018185D01*
X014254Y018193D02*
X014461Y018193D01*
X014464Y018202D02*
X014256Y018202D01*
X014259Y018210D02*
X014466Y018210D01*
X014469Y018219D02*
X014261Y018219D01*
X014263Y018227D02*
X014472Y018227D01*
X014475Y018236D02*
X014266Y018236D01*
X014268Y018244D02*
X014477Y018244D01*
X014480Y018253D02*
X014270Y018253D01*
X014273Y018261D02*
X014483Y018261D01*
X014486Y018270D02*
X014275Y018270D01*
X014277Y018279D02*
X014489Y018279D01*
X014491Y018287D02*
X014280Y018287D01*
X014283Y018296D02*
X014494Y018296D01*
X014497Y018304D02*
X014286Y018304D01*
X014290Y018313D02*
X014500Y018313D01*
X014503Y018321D02*
X014293Y018321D01*
X014297Y018330D02*
X014507Y018330D01*
X014511Y018338D02*
X014300Y018338D01*
X014303Y018347D02*
X014515Y018347D01*
X014519Y018355D02*
X014307Y018355D01*
X014310Y018364D02*
X014522Y018364D01*
X014526Y018372D02*
X014314Y018372D01*
X014317Y018381D02*
X014530Y018381D01*
X014534Y018390D02*
X014320Y018390D01*
X014324Y018398D02*
X014538Y018398D01*
X014541Y018407D02*
X014327Y018407D01*
X014331Y018415D02*
X014545Y018415D01*
X014549Y018424D02*
X014334Y018424D01*
X014337Y018432D02*
X014553Y018432D01*
X014557Y018441D02*
X014341Y018441D01*
X014344Y018449D02*
X014561Y018449D01*
X014564Y018458D02*
X014348Y018458D01*
X014351Y018466D02*
X014568Y018466D01*
X014572Y018475D02*
X014354Y018475D01*
X014358Y018484D02*
X014576Y018484D01*
X014580Y018492D02*
X014361Y018492D01*
X014365Y018501D02*
X014583Y018501D01*
X014587Y018509D02*
X014368Y018509D01*
X014371Y018518D02*
X014591Y018518D01*
X014595Y018526D02*
X014375Y018526D01*
X014756Y018526D02*
X014956Y018526D01*
X014956Y018528D02*
X014956Y017428D01*
X014979Y017195D01*
X015028Y016965D01*
X015100Y016742D01*
X015196Y016528D01*
X014976Y016528D01*
X014882Y016763D01*
X014814Y017007D01*
X014772Y017256D01*
X014756Y017508D01*
X014756Y018528D01*
X014956Y018528D01*
X014956Y018518D02*
X014756Y018518D01*
X014756Y018509D02*
X014956Y018509D01*
X014956Y018501D02*
X014756Y018501D01*
X014756Y018492D02*
X014956Y018492D01*
X014956Y018484D02*
X014756Y018484D01*
X014756Y018475D02*
X014956Y018475D01*
X014956Y018466D02*
X014756Y018466D01*
X014756Y018458D02*
X014956Y018458D01*
X014956Y018449D02*
X014756Y018449D01*
X014756Y018441D02*
X014956Y018441D01*
X014956Y018432D02*
X014756Y018432D01*
X014756Y018424D02*
X014956Y018424D01*
X014956Y018415D02*
X014756Y018415D01*
X014756Y018407D02*
X014956Y018407D01*
X014956Y018398D02*
X014756Y018398D01*
X014756Y018390D02*
X014956Y018390D01*
X014956Y018381D02*
X014756Y018381D01*
X014756Y018372D02*
X014956Y018372D01*
X014956Y018364D02*
X014756Y018364D01*
X014756Y018355D02*
X014956Y018355D01*
X014956Y018347D02*
X014756Y018347D01*
X014756Y018338D02*
X014956Y018338D01*
X014956Y018330D02*
X014756Y018330D01*
X014756Y018321D02*
X014956Y018321D01*
X014956Y018313D02*
X014756Y018313D01*
X014756Y018304D02*
X014956Y018304D01*
X014956Y018296D02*
X014756Y018296D01*
X014756Y018287D02*
X014956Y018287D01*
X014956Y018279D02*
X014756Y018279D01*
X014756Y018270D02*
X014956Y018270D01*
X014956Y018261D02*
X014756Y018261D01*
X014756Y018253D02*
X014956Y018253D01*
X014956Y018244D02*
X014756Y018244D01*
X014756Y018236D02*
X014956Y018236D01*
X014956Y018227D02*
X014756Y018227D01*
X014756Y018219D02*
X014956Y018219D01*
X014956Y018210D02*
X014756Y018210D01*
X014756Y018202D02*
X014956Y018202D01*
X014956Y018193D02*
X014756Y018193D01*
X014756Y018185D02*
X014956Y018185D01*
X014956Y018176D02*
X014756Y018176D01*
X014756Y018167D02*
X014956Y018167D01*
X014956Y018159D02*
X014756Y018159D01*
X014756Y018150D02*
X014956Y018150D01*
X014956Y018142D02*
X014756Y018142D01*
X014756Y018133D02*
X014956Y018133D01*
X014956Y018125D02*
X014756Y018125D01*
X014756Y018116D02*
X014956Y018116D01*
X014956Y018108D02*
X014756Y018108D01*
X014756Y018099D02*
X014956Y018099D01*
X014956Y018091D02*
X014756Y018091D01*
X014756Y018082D02*
X014956Y018082D01*
X014956Y018073D02*
X014756Y018073D01*
X014756Y018065D02*
X014956Y018065D01*
X014956Y018056D02*
X014756Y018056D01*
X014756Y018048D02*
X014956Y018048D01*
X014956Y018039D02*
X014756Y018039D01*
X014756Y018031D02*
X014956Y018031D01*
X014956Y018022D02*
X014756Y018022D01*
X014756Y018014D02*
X014956Y018014D01*
X014956Y018005D02*
X014756Y018005D01*
X014756Y017997D02*
X014956Y017997D01*
X014956Y017988D02*
X014756Y017988D01*
X014756Y017979D02*
X014956Y017979D01*
X014956Y017971D02*
X014756Y017971D01*
X014756Y017962D02*
X014956Y017962D01*
X014956Y017954D02*
X014756Y017954D01*
X014756Y017945D02*
X014956Y017945D01*
X014956Y017937D02*
X014756Y017937D01*
X014756Y017928D02*
X014956Y017928D01*
X014956Y017920D02*
X014756Y017920D01*
X014756Y017911D02*
X014956Y017911D01*
X014956Y017903D02*
X014756Y017903D01*
X014756Y017894D02*
X014956Y017894D01*
X014956Y017886D02*
X014756Y017886D01*
X014756Y017877D02*
X014956Y017877D01*
X014956Y017868D02*
X014756Y017868D01*
X014756Y017860D02*
X014956Y017860D01*
X014956Y017851D02*
X014756Y017851D01*
X014756Y017843D02*
X014956Y017843D01*
X014956Y017834D02*
X014756Y017834D01*
X014756Y017826D02*
X014956Y017826D01*
X014956Y017817D02*
X014756Y017817D01*
X014756Y017809D02*
X014956Y017809D01*
X014956Y017800D02*
X014756Y017800D01*
X014756Y017792D02*
X014956Y017792D01*
X014956Y017783D02*
X014756Y017783D01*
X014756Y017774D02*
X014956Y017774D01*
X014956Y017766D02*
X014756Y017766D01*
X014756Y017757D02*
X014956Y017757D01*
X014956Y017749D02*
X014756Y017749D01*
X014756Y017740D02*
X014956Y017740D01*
X014956Y017732D02*
X014756Y017732D01*
X014756Y017723D02*
X014956Y017723D01*
X014956Y017715D02*
X014756Y017715D01*
X014756Y017706D02*
X014956Y017706D01*
X014956Y017698D02*
X014756Y017698D01*
X014756Y017689D02*
X014956Y017689D01*
X014956Y017680D02*
X014756Y017680D01*
X014756Y017672D02*
X014956Y017672D01*
X014956Y017663D02*
X014756Y017663D01*
X014756Y017655D02*
X014956Y017655D01*
X014956Y017646D02*
X014756Y017646D01*
X014756Y017638D02*
X014956Y017638D01*
X014956Y017629D02*
X014756Y017629D01*
X014756Y017621D02*
X014956Y017621D01*
X014956Y017612D02*
X014756Y017612D01*
X014756Y017604D02*
X014956Y017604D01*
X014956Y017595D02*
X014756Y017595D01*
X014756Y017586D02*
X014956Y017586D01*
X014956Y017578D02*
X014756Y017578D01*
X014756Y017569D02*
X014956Y017569D01*
X014956Y017561D02*
X014756Y017561D01*
X014756Y017552D02*
X014956Y017552D01*
X014956Y017544D02*
X014756Y017544D01*
X014756Y017535D02*
X014956Y017535D01*
X014956Y017527D02*
X014756Y017527D01*
X014756Y017518D02*
X014956Y017518D01*
X014956Y017510D02*
X014756Y017510D01*
X014756Y017501D02*
X014956Y017501D01*
X014956Y017493D02*
X014757Y017493D01*
X014758Y017484D02*
X014956Y017484D01*
X014956Y017475D02*
X014758Y017475D01*
X014759Y017467D02*
X014956Y017467D01*
X014956Y017458D02*
X014759Y017458D01*
X014760Y017450D02*
X014956Y017450D01*
X014956Y017441D02*
X014760Y017441D01*
X014761Y017433D02*
X014956Y017433D01*
X014956Y017424D02*
X014761Y017424D01*
X014762Y017416D02*
X014957Y017416D01*
X014958Y017407D02*
X014762Y017407D01*
X014763Y017399D02*
X014959Y017399D01*
X014960Y017390D02*
X014763Y017390D01*
X014764Y017381D02*
X014961Y017381D01*
X014962Y017373D02*
X014764Y017373D01*
X014765Y017364D02*
X014962Y017364D01*
X014963Y017356D02*
X014766Y017356D01*
X014766Y017347D02*
X014964Y017347D01*
X014965Y017339D02*
X014767Y017339D01*
X014767Y017330D02*
X014966Y017330D01*
X014967Y017322D02*
X014768Y017322D01*
X014768Y017313D02*
X014968Y017313D01*
X014968Y017305D02*
X014769Y017305D01*
X014769Y017296D02*
X014969Y017296D01*
X014970Y017287D02*
X014770Y017287D01*
X014770Y017279D02*
X014971Y017279D01*
X014972Y017270D02*
X014771Y017270D01*
X014771Y017262D02*
X014973Y017262D01*
X014974Y017253D02*
X014772Y017253D01*
X014774Y017245D02*
X014974Y017245D01*
X014975Y017236D02*
X014775Y017236D01*
X014777Y017228D02*
X014976Y017228D01*
X014977Y017219D02*
X014778Y017219D01*
X014779Y017211D02*
X014978Y017211D01*
X014979Y017202D02*
X014781Y017202D01*
X014782Y017194D02*
X014980Y017194D01*
X014982Y017185D02*
X014784Y017185D01*
X014785Y017176D02*
X014983Y017176D01*
X014985Y017168D02*
X014787Y017168D01*
X014788Y017159D02*
X014987Y017159D01*
X014989Y017151D02*
X014790Y017151D01*
X014791Y017142D02*
X014991Y017142D01*
X014992Y017134D02*
X014792Y017134D01*
X014794Y017125D02*
X014994Y017125D01*
X014996Y017117D02*
X014795Y017117D01*
X014797Y017108D02*
X014998Y017108D01*
X015000Y017100D02*
X014798Y017100D01*
X014800Y017091D02*
X015001Y017091D01*
X015003Y017082D02*
X014801Y017082D01*
X014803Y017074D02*
X015005Y017074D01*
X015007Y017065D02*
X014804Y017065D01*
X014805Y017057D02*
X015009Y017057D01*
X015010Y017048D02*
X014807Y017048D01*
X014808Y017040D02*
X015012Y017040D01*
X015014Y017031D02*
X014810Y017031D01*
X014811Y017023D02*
X015016Y017023D01*
X015017Y017014D02*
X014813Y017014D01*
X014814Y017006D02*
X015019Y017006D01*
X015021Y016997D02*
X014817Y016997D01*
X014819Y016988D02*
X015023Y016988D01*
X015025Y016980D02*
X014821Y016980D01*
X014824Y016971D02*
X015026Y016971D01*
X015029Y016963D02*
X014826Y016963D01*
X014829Y016954D02*
X015031Y016954D01*
X015034Y016946D02*
X014831Y016946D01*
X014833Y016937D02*
X015037Y016937D01*
X015040Y016929D02*
X014836Y016929D01*
X014838Y016920D02*
X015042Y016920D01*
X015045Y016912D02*
X014841Y016912D01*
X014843Y016903D02*
X015048Y016903D01*
X015051Y016894D02*
X014845Y016894D01*
X014848Y016886D02*
X015053Y016886D01*
X015056Y016877D02*
X014850Y016877D01*
X014853Y016869D02*
X015059Y016869D01*
X015062Y016860D02*
X014855Y016860D01*
X014857Y016852D02*
X015065Y016852D01*
X015067Y016843D02*
X014860Y016843D01*
X014862Y016835D02*
X015070Y016835D01*
X015073Y016826D02*
X014865Y016826D01*
X014867Y016818D02*
X015076Y016818D01*
X015078Y016809D02*
X014869Y016809D01*
X014872Y016801D02*
X015081Y016801D01*
X015084Y016792D02*
X014874Y016792D01*
X014877Y016783D02*
X015087Y016783D01*
X015089Y016775D02*
X014879Y016775D01*
X014881Y016766D02*
X015092Y016766D01*
X015095Y016758D02*
X014884Y016758D01*
X014888Y016749D02*
X015098Y016749D01*
X015101Y016741D02*
X014891Y016741D01*
X014895Y016732D02*
X015105Y016732D01*
X015108Y016724D02*
X014898Y016724D01*
X014901Y016715D02*
X015112Y016715D01*
X015116Y016707D02*
X014905Y016707D01*
X014908Y016698D02*
X015120Y016698D01*
X015124Y016689D02*
X014912Y016689D01*
X014915Y016681D02*
X015128Y016681D01*
X015131Y016672D02*
X014918Y016672D01*
X014922Y016664D02*
X015135Y016664D01*
X015139Y016655D02*
X014925Y016655D01*
X014929Y016647D02*
X015143Y016647D01*
X015147Y016638D02*
X014932Y016638D01*
X014935Y016630D02*
X015150Y016630D01*
X015154Y016621D02*
X014939Y016621D01*
X014942Y016613D02*
X015158Y016613D01*
X015162Y016604D02*
X014946Y016604D01*
X014949Y016595D02*
X015166Y016595D01*
X015169Y016587D02*
X014952Y016587D01*
X014956Y016578D02*
X015173Y016578D01*
X015177Y016570D02*
X014959Y016570D01*
X014963Y016561D02*
X015181Y016561D01*
X015185Y016553D02*
X014966Y016553D01*
X014969Y016544D02*
X015189Y016544D01*
X015192Y016536D02*
X014973Y016536D01*
X015358Y016707D02*
X016016Y016707D01*
X016016Y016715D02*
X015354Y016715D01*
X015350Y016724D02*
X016016Y016724D01*
X016016Y016732D02*
X015346Y016732D01*
X015343Y016741D02*
X016016Y016741D01*
X016016Y016749D02*
X015339Y016749D01*
X015335Y016758D02*
X016016Y016758D01*
X016016Y016766D02*
X015332Y016766D01*
X015334Y016761D02*
X015259Y017004D01*
X015213Y017254D01*
X015196Y017508D01*
X015196Y018528D01*
X016016Y018528D01*
X016016Y016528D01*
X015436Y016528D01*
X015334Y016761D01*
X015329Y016775D02*
X016016Y016775D01*
X016016Y016783D02*
X015327Y016783D01*
X015324Y016792D02*
X016016Y016792D01*
X016016Y016801D02*
X015322Y016801D01*
X015319Y016809D02*
X016016Y016809D01*
X016016Y016818D02*
X015316Y016818D01*
X015314Y016826D02*
X016016Y016826D01*
X016016Y016835D02*
X015311Y016835D01*
X015308Y016843D02*
X016016Y016843D01*
X016016Y016852D02*
X015306Y016852D01*
X015303Y016860D02*
X016016Y016860D01*
X016016Y016869D02*
X015301Y016869D01*
X015298Y016877D02*
X016016Y016877D01*
X016016Y016886D02*
X015295Y016886D01*
X015293Y016894D02*
X016016Y016894D01*
X016016Y016903D02*
X015290Y016903D01*
X015287Y016912D02*
X016016Y016912D01*
X016016Y016920D02*
X015285Y016920D01*
X015282Y016929D02*
X016016Y016929D01*
X016016Y016937D02*
X015280Y016937D01*
X015277Y016946D02*
X016016Y016946D01*
X016016Y016954D02*
X015274Y016954D01*
X015272Y016963D02*
X016016Y016963D01*
X016016Y016971D02*
X015269Y016971D01*
X015266Y016980D02*
X016016Y016980D01*
X016016Y016988D02*
X015264Y016988D01*
X015261Y016997D02*
X016016Y016997D01*
X016016Y017006D02*
X015259Y017006D01*
X015257Y017014D02*
X016016Y017014D01*
X016016Y017023D02*
X015256Y017023D01*
X015254Y017031D02*
X016016Y017031D01*
X016016Y017040D02*
X015252Y017040D01*
X015251Y017048D02*
X016016Y017048D01*
X016016Y017057D02*
X015249Y017057D01*
X015248Y017065D02*
X016016Y017065D01*
X016016Y017074D02*
X015246Y017074D01*
X015244Y017082D02*
X016016Y017082D01*
X016016Y017091D02*
X015243Y017091D01*
X015241Y017100D02*
X016016Y017100D01*
X016016Y017108D02*
X015240Y017108D01*
X015238Y017117D02*
X016016Y017117D01*
X016016Y017125D02*
X015237Y017125D01*
X015235Y017134D02*
X016016Y017134D01*
X016016Y017142D02*
X015233Y017142D01*
X015232Y017151D02*
X016016Y017151D01*
X016016Y017159D02*
X015230Y017159D01*
X015229Y017168D02*
X016016Y017168D01*
X016016Y017176D02*
X015227Y017176D01*
X015226Y017185D02*
X016016Y017185D01*
X016016Y017194D02*
X015224Y017194D01*
X015222Y017202D02*
X016016Y017202D01*
X016016Y017211D02*
X015221Y017211D01*
X015219Y017219D02*
X016016Y017219D01*
X016016Y017228D02*
X015218Y017228D01*
X015216Y017236D02*
X016016Y017236D01*
X016016Y017245D02*
X015215Y017245D01*
X015213Y017253D02*
X016016Y017253D01*
X016016Y017262D02*
X015212Y017262D01*
X015212Y017270D02*
X016016Y017270D01*
X016016Y017279D02*
X015211Y017279D01*
X015211Y017287D02*
X016016Y017287D01*
X016016Y017296D02*
X015210Y017296D01*
X015209Y017305D02*
X016016Y017305D01*
X016016Y017313D02*
X015209Y017313D01*
X015208Y017322D02*
X016016Y017322D01*
X016016Y017330D02*
X015208Y017330D01*
X015207Y017339D02*
X016016Y017339D01*
X016016Y017347D02*
X015207Y017347D01*
X015206Y017356D02*
X016016Y017356D01*
X016016Y017364D02*
X015205Y017364D01*
X015205Y017373D02*
X016016Y017373D01*
X016016Y017381D02*
X015204Y017381D01*
X015204Y017390D02*
X016016Y017390D01*
X016016Y017399D02*
X015203Y017399D01*
X015203Y017407D02*
X016016Y017407D01*
X016016Y017416D02*
X015202Y017416D01*
X015201Y017424D02*
X016016Y017424D01*
X016016Y017433D02*
X015201Y017433D01*
X015200Y017441D02*
X016016Y017441D01*
X016016Y017450D02*
X015200Y017450D01*
X015199Y017458D02*
X016016Y017458D01*
X016016Y017467D02*
X015199Y017467D01*
X015198Y017475D02*
X016016Y017475D01*
X016016Y017484D02*
X015197Y017484D01*
X015197Y017493D02*
X016016Y017493D01*
X016016Y017501D02*
X015196Y017501D01*
X015196Y017510D02*
X016016Y017510D01*
X016016Y017518D02*
X015196Y017518D01*
X015196Y017527D02*
X016016Y017527D01*
X016016Y017535D02*
X015196Y017535D01*
X015196Y017544D02*
X016016Y017544D01*
X016016Y017552D02*
X015196Y017552D01*
X015196Y017561D02*
X016016Y017561D01*
X016016Y017569D02*
X015196Y017569D01*
X015196Y017578D02*
X016016Y017578D01*
X016016Y017586D02*
X015196Y017586D01*
X015196Y017595D02*
X016016Y017595D01*
X016016Y017604D02*
X015196Y017604D01*
X015196Y017612D02*
X016016Y017612D01*
X016016Y017621D02*
X015196Y017621D01*
X015196Y017629D02*
X016016Y017629D01*
X016016Y017638D02*
X015196Y017638D01*
X015196Y017646D02*
X016016Y017646D01*
X016016Y017655D02*
X015196Y017655D01*
X015196Y017663D02*
X016016Y017663D01*
X016016Y017672D02*
X015196Y017672D01*
X015196Y017680D02*
X016016Y017680D01*
X016016Y017689D02*
X015196Y017689D01*
X015196Y017698D02*
X016016Y017698D01*
X016016Y017706D02*
X015196Y017706D01*
X015196Y017715D02*
X016016Y017715D01*
X016016Y017723D02*
X015196Y017723D01*
X015196Y017732D02*
X016016Y017732D01*
X016016Y017740D02*
X015196Y017740D01*
X015196Y017749D02*
X016016Y017749D01*
X016016Y017757D02*
X015196Y017757D01*
X015196Y017766D02*
X016016Y017766D01*
X016016Y017774D02*
X015196Y017774D01*
X015196Y017783D02*
X016016Y017783D01*
X016016Y017792D02*
X015196Y017792D01*
X015196Y017800D02*
X016016Y017800D01*
X016016Y017809D02*
X015196Y017809D01*
X015196Y017817D02*
X016016Y017817D01*
X016016Y017826D02*
X015196Y017826D01*
X015196Y017834D02*
X016016Y017834D01*
X016016Y017843D02*
X015196Y017843D01*
X015196Y017851D02*
X016016Y017851D01*
X016016Y017860D02*
X015196Y017860D01*
X015196Y017868D02*
X016016Y017868D01*
X016016Y017877D02*
X015196Y017877D01*
X015196Y017886D02*
X016016Y017886D01*
X016016Y017894D02*
X015196Y017894D01*
X015196Y017903D02*
X016016Y017903D01*
X016016Y017911D02*
X015196Y017911D01*
X015196Y017920D02*
X016016Y017920D01*
X016016Y017928D02*
X015196Y017928D01*
X015196Y017937D02*
X016016Y017937D01*
X016016Y017945D02*
X015196Y017945D01*
X015196Y017954D02*
X016016Y017954D01*
X016016Y017962D02*
X015196Y017962D01*
X015196Y017971D02*
X016016Y017971D01*
X016016Y017979D02*
X015196Y017979D01*
X015196Y017988D02*
X016016Y017988D01*
X016016Y017997D02*
X015196Y017997D01*
X015196Y018005D02*
X016016Y018005D01*
X016016Y018014D02*
X015196Y018014D01*
X015196Y018022D02*
X016016Y018022D01*
X016016Y018031D02*
X015196Y018031D01*
X015196Y018039D02*
X016016Y018039D01*
X016016Y018048D02*
X015196Y018048D01*
X015196Y018056D02*
X016016Y018056D01*
X016016Y018065D02*
X015196Y018065D01*
X015196Y018073D02*
X016016Y018073D01*
X016016Y018082D02*
X015196Y018082D01*
X015196Y018091D02*
X016016Y018091D01*
X016016Y018099D02*
X015196Y018099D01*
X015196Y018108D02*
X016016Y018108D01*
X016016Y018116D02*
X015196Y018116D01*
X015196Y018125D02*
X016016Y018125D01*
X016016Y018133D02*
X015196Y018133D01*
X015196Y018142D02*
X016016Y018142D01*
X016016Y018150D02*
X015196Y018150D01*
X015196Y018159D02*
X016016Y018159D01*
X016016Y018167D02*
X015196Y018167D01*
X015196Y018176D02*
X016016Y018176D01*
X016016Y018185D02*
X015196Y018185D01*
X015196Y018193D02*
X016016Y018193D01*
X016016Y018202D02*
X015196Y018202D01*
X015196Y018210D02*
X016016Y018210D01*
X016016Y018219D02*
X015196Y018219D01*
X015196Y018227D02*
X016016Y018227D01*
X016016Y018236D02*
X015196Y018236D01*
X015196Y018244D02*
X016016Y018244D01*
X016016Y018253D02*
X015196Y018253D01*
X015196Y018261D02*
X016016Y018261D01*
X016016Y018270D02*
X015196Y018270D01*
X015196Y018279D02*
X016016Y018279D01*
X016016Y018287D02*
X015196Y018287D01*
X015196Y018296D02*
X016016Y018296D01*
X016016Y018304D02*
X015196Y018304D01*
X015196Y018313D02*
X016016Y018313D01*
X016016Y018321D02*
X015196Y018321D01*
X015196Y018330D02*
X016016Y018330D01*
X016016Y018338D02*
X015196Y018338D01*
X015196Y018347D02*
X016016Y018347D01*
X016016Y018355D02*
X015196Y018355D01*
X015196Y018364D02*
X016016Y018364D01*
X016016Y018372D02*
X015196Y018372D01*
X015196Y018381D02*
X016016Y018381D01*
X016016Y018390D02*
X015196Y018390D01*
X015196Y018398D02*
X016016Y018398D01*
X016016Y018407D02*
X015196Y018407D01*
X015196Y018415D02*
X016016Y018415D01*
X016016Y018424D02*
X015196Y018424D01*
X015196Y018432D02*
X016016Y018432D01*
X016016Y018441D02*
X015196Y018441D01*
X015196Y018449D02*
X016016Y018449D01*
X016016Y018458D02*
X015196Y018458D01*
X015196Y018466D02*
X016016Y018466D01*
X016016Y018475D02*
X015196Y018475D01*
X015196Y018484D02*
X016016Y018484D01*
X016016Y018492D02*
X015196Y018492D01*
X015196Y018501D02*
X016016Y018501D01*
X016016Y018509D02*
X015196Y018509D01*
X015196Y018518D02*
X016016Y018518D01*
X016016Y018526D02*
X015196Y018526D01*
X014556Y017518D02*
X014156Y017518D01*
X014156Y017510D02*
X014556Y017510D01*
X014556Y017501D02*
X014156Y017501D01*
X014156Y017493D02*
X014556Y017493D01*
X014556Y017484D02*
X014156Y017484D01*
X014156Y017475D02*
X014556Y017475D01*
X014556Y017467D02*
X014156Y017467D01*
X014156Y017458D02*
X014556Y017458D01*
X014556Y017450D02*
X014156Y017450D01*
X014156Y017441D02*
X014556Y017441D01*
X014556Y017433D02*
X014156Y017433D01*
X014156Y017424D02*
X014356Y017424D01*
X014356Y017416D02*
X014156Y017416D01*
X014156Y017407D02*
X014356Y017407D01*
X014356Y017399D02*
X014156Y017399D01*
X014156Y017390D02*
X014356Y017390D01*
X014356Y017381D02*
X014156Y017381D01*
X014156Y017373D02*
X014356Y017373D01*
X014356Y017364D02*
X014156Y017364D01*
X014156Y017356D02*
X014356Y017356D01*
X014356Y017347D02*
X014156Y017347D01*
X014156Y017339D02*
X014356Y017339D01*
X014356Y017330D02*
X014156Y017330D01*
X014156Y017322D02*
X014356Y017322D01*
X014356Y017313D02*
X014156Y017313D01*
X014156Y017305D02*
X014356Y017305D01*
X014356Y017296D02*
X014156Y017296D01*
X014156Y017287D02*
X014356Y017287D01*
X014356Y017279D02*
X014156Y017279D01*
X014156Y017270D02*
X014356Y017270D01*
X014356Y017262D02*
X014156Y017262D01*
X014156Y017253D02*
X014356Y017253D01*
X014356Y017245D02*
X014156Y017245D01*
X014156Y017236D02*
X014356Y017236D01*
X014356Y017228D02*
X014156Y017228D01*
X014156Y017219D02*
X014356Y017219D01*
X014356Y017211D02*
X014156Y017211D01*
X014156Y017202D02*
X014356Y017202D01*
X014356Y017194D02*
X014156Y017194D01*
X014156Y017185D02*
X014356Y017185D01*
X014356Y017176D02*
X014156Y017176D01*
X014156Y017168D02*
X014356Y017168D01*
X014356Y017159D02*
X014156Y017159D01*
X014156Y017151D02*
X014356Y017151D01*
X014356Y017142D02*
X014156Y017142D01*
X014156Y017134D02*
X014356Y017134D01*
X014356Y017125D02*
X014156Y017125D01*
X014156Y017117D02*
X014356Y017117D01*
X014356Y017108D02*
X014156Y017108D01*
X014156Y017100D02*
X014356Y017100D01*
X014356Y017091D02*
X014156Y017091D01*
X014156Y017082D02*
X014356Y017082D01*
X014356Y017074D02*
X014156Y017074D01*
X014156Y017065D02*
X014356Y017065D01*
X014356Y017057D02*
X014156Y017057D01*
X014156Y017048D02*
X014356Y017048D01*
X014356Y017040D02*
X014156Y017040D01*
X014156Y017031D02*
X014356Y017031D01*
X014356Y017023D02*
X014156Y017023D01*
X014156Y017014D02*
X014356Y017014D01*
X014356Y017006D02*
X014156Y017006D01*
X014156Y016997D02*
X014356Y016997D01*
X014356Y016988D02*
X014156Y016988D01*
X014156Y016980D02*
X014356Y016980D01*
X014356Y016971D02*
X014156Y016971D01*
X014156Y016963D02*
X014356Y016963D01*
X014356Y016954D02*
X014156Y016954D01*
X014156Y016946D02*
X014356Y016946D01*
X014356Y016937D02*
X014156Y016937D01*
X014156Y016929D02*
X014356Y016929D01*
X014356Y016920D02*
X014156Y016920D01*
X014156Y016912D02*
X014356Y016912D01*
X014356Y016903D02*
X014156Y016903D01*
X014156Y016894D02*
X014356Y016894D01*
X014356Y016886D02*
X014156Y016886D01*
X014156Y016877D02*
X014356Y016877D01*
X014356Y016869D02*
X014156Y016869D01*
X014156Y016860D02*
X014356Y016860D01*
X014356Y016852D02*
X014156Y016852D01*
X014156Y016843D02*
X014356Y016843D01*
X014356Y016835D02*
X014156Y016835D01*
X014156Y016826D02*
X014356Y016826D01*
X014356Y016818D02*
X014156Y016818D01*
X014156Y016809D02*
X014356Y016809D01*
X014356Y016801D02*
X014156Y016801D01*
X014156Y016792D02*
X014356Y016792D01*
X014356Y016783D02*
X014156Y016783D01*
X014156Y016775D02*
X014356Y016775D01*
X014356Y016766D02*
X014156Y016766D01*
X014156Y016758D02*
X014356Y016758D01*
X014356Y016749D02*
X014156Y016749D01*
X014156Y016741D02*
X014356Y016741D01*
X014356Y016732D02*
X014156Y016732D01*
X014156Y016724D02*
X014356Y016724D01*
X014356Y016715D02*
X014156Y016715D01*
X014156Y016707D02*
X014356Y016707D01*
X014356Y016698D02*
X014156Y016698D01*
X014156Y016689D02*
X014356Y016689D01*
X014356Y016681D02*
X014156Y016681D01*
X014156Y016672D02*
X014356Y016672D01*
X014356Y016664D02*
X014156Y016664D01*
X014156Y016655D02*
X014356Y016655D01*
X014356Y016647D02*
X014156Y016647D01*
X014156Y016638D02*
X014356Y016638D01*
X014356Y016630D02*
X014156Y016630D01*
X014156Y016621D02*
X014356Y016621D01*
X014356Y016613D02*
X014156Y016613D01*
X014156Y016604D02*
X014356Y016604D01*
X014356Y016595D02*
X014156Y016595D01*
X014156Y016587D02*
X014356Y016587D01*
X014356Y016578D02*
X014156Y016578D01*
X014156Y016570D02*
X014356Y016570D01*
X014356Y016561D02*
X014156Y016561D01*
X014156Y016553D02*
X014356Y016553D01*
X014356Y016544D02*
X014156Y016544D01*
X014156Y016536D02*
X014356Y016536D01*
X015361Y016698D02*
X016016Y016698D01*
X016016Y016689D02*
X015365Y016689D01*
X015369Y016681D02*
X016016Y016681D01*
X016016Y016672D02*
X015373Y016672D01*
X015376Y016664D02*
X016016Y016664D01*
X016016Y016655D02*
X015380Y016655D01*
X015384Y016647D02*
X016016Y016647D01*
X016016Y016638D02*
X015388Y016638D01*
X015391Y016630D02*
X016016Y016630D01*
X016016Y016621D02*
X015395Y016621D01*
X015399Y016613D02*
X016016Y016613D01*
X016016Y016604D02*
X015403Y016604D01*
X015406Y016595D02*
X016016Y016595D01*
X016016Y016587D02*
X015410Y016587D01*
X015414Y016578D02*
X016016Y016578D01*
X016016Y016570D02*
X015418Y016570D01*
X015421Y016561D02*
X016016Y016561D01*
X016016Y016553D02*
X015425Y016553D01*
X015429Y016544D02*
X016016Y016544D01*
X016016Y016536D02*
X015433Y016536D01*
X013955Y018411D02*
X013896Y018528D01*
X013756Y018528D01*
X013756Y018468D01*
X013757Y018466D02*
X013927Y018466D01*
X013931Y018458D02*
X013761Y018458D01*
X013766Y018449D02*
X013936Y018449D01*
X013940Y018441D02*
X013770Y018441D01*
X013775Y018432D02*
X013944Y018432D01*
X013949Y018424D02*
X013779Y018424D01*
X013756Y018475D02*
X013923Y018475D01*
X013918Y018484D02*
X013756Y018484D01*
X013756Y018492D02*
X013914Y018492D01*
X013910Y018501D02*
X013756Y018501D01*
X013756Y018509D02*
X013905Y018509D01*
X013901Y018518D02*
X013756Y018518D01*
X013756Y018526D02*
X013897Y018526D01*
D11*
X005534Y003838D02*
X005534Y003238D01*
X006534Y003238D02*
X006534Y003838D01*
X007534Y003838D02*
X007534Y003238D01*
X008534Y003238D02*
X008534Y003838D01*
X009784Y005488D02*
X009784Y006088D01*
X010784Y006088D02*
X010784Y005488D01*
X011784Y005488D02*
X011784Y006088D01*
X014284Y007738D02*
X014284Y008338D01*
X015284Y008338D02*
X015284Y007738D01*
X016284Y007738D02*
X016284Y008338D01*
X017284Y008338D02*
X017284Y007738D01*
X018284Y007738D02*
X018284Y008338D01*
X019284Y008338D02*
X019284Y007738D01*
X021284Y007738D02*
X021284Y008338D01*
X022284Y008338D02*
X022284Y007738D01*
X023284Y007738D02*
X023284Y008338D01*
X024284Y008338D02*
X024284Y007738D01*
X025284Y007738D02*
X025284Y008338D01*
X026284Y008338D02*
X026284Y007738D01*
X027284Y007738D02*
X027284Y008338D01*
X028284Y008338D02*
X028284Y007738D01*
X030284Y007738D02*
X030284Y008338D01*
X031284Y008338D02*
X031284Y007738D01*
X032284Y007738D02*
X032284Y008338D01*
X033284Y008338D02*
X033284Y007738D01*
X034284Y007738D02*
X034284Y008338D01*
X035284Y008338D02*
X035284Y007738D01*
X036284Y007738D02*
X036284Y008338D01*
X037284Y008338D02*
X037284Y007738D01*
X037284Y004088D02*
X037284Y003488D01*
X038284Y003488D02*
X038284Y004088D01*
X039284Y004088D02*
X039284Y003488D01*
X040784Y003488D02*
X040784Y004088D01*
X041784Y004088D02*
X041784Y003488D01*
X042784Y003488D02*
X042784Y004088D01*
X035784Y004088D02*
X035784Y003488D01*
X034784Y003488D02*
X034784Y004088D01*
X033784Y004088D02*
X033784Y003488D01*
X032284Y003488D02*
X032284Y004088D01*
X031284Y004088D02*
X031284Y003488D01*
X030284Y003488D02*
X030284Y004088D01*
X004284Y005488D02*
X004284Y006088D01*
X003284Y006088D02*
X003284Y005488D01*
X002284Y005488D02*
X002284Y006088D01*
X010784Y026738D02*
X010784Y027338D01*
X011784Y027338D02*
X011784Y026738D01*
X012784Y026738D02*
X012784Y027338D01*
X013784Y027338D02*
X013784Y026738D01*
X014784Y026738D02*
X014784Y027338D01*
X015784Y027338D02*
X015784Y026738D01*
X016784Y026738D02*
X016784Y027338D01*
X017784Y027338D02*
X017784Y026738D01*
X019284Y026738D02*
X019284Y027338D01*
X020284Y027338D02*
X020284Y026738D01*
X021284Y026738D02*
X021284Y027338D01*
X022284Y027338D02*
X022284Y026738D01*
X023284Y026738D02*
X023284Y027338D01*
X024284Y027338D02*
X024284Y026738D01*
X025284Y026738D02*
X025284Y027338D01*
X026284Y027338D02*
X026284Y026738D01*
X028284Y026738D02*
X028284Y027338D01*
X029284Y027338D02*
X029284Y026738D01*
X030284Y026738D02*
X030284Y027338D01*
X031284Y027338D02*
X031284Y026738D01*
X032284Y026738D02*
X032284Y027338D01*
X033284Y027338D02*
X033284Y026738D01*
X034284Y026738D02*
X034284Y027338D01*
X035284Y027338D02*
X035284Y026738D01*
X022284Y030738D02*
X022284Y031338D01*
X021284Y031338D02*
X021284Y030738D01*
X020284Y030738D02*
X020284Y031338D01*
X009284Y031338D02*
X009284Y030738D01*
X008284Y030738D02*
X008284Y031338D01*
X007284Y031338D02*
X007284Y030738D01*
D12*
X038284Y027038D03*
X039284Y027038D03*
X039284Y026038D03*
X038284Y026038D03*
X038284Y025038D03*
X038284Y024038D03*
X039284Y024038D03*
X039284Y025038D03*
X039284Y023038D03*
X038284Y023038D03*
X038284Y022038D03*
X039284Y022038D03*
X039284Y021038D03*
X038284Y021038D03*
X038284Y020038D03*
X039284Y020038D03*
X039284Y019038D03*
X038284Y019038D03*
X038284Y018038D03*
X039284Y018038D03*
X039284Y017038D03*
X038284Y017038D03*
X038284Y016038D03*
X039284Y016038D03*
X039284Y015038D03*
X038284Y015038D03*
X038284Y014038D03*
X039284Y014038D03*
X039284Y013038D03*
X038284Y013038D03*
X038284Y012038D03*
X039284Y012038D03*
X039284Y011038D03*
X038284Y011038D03*
X038284Y010038D03*
X039284Y010038D03*
D13*
X045284Y007538D03*
X045284Y015788D03*
X045284Y024038D03*
X038034Y031538D03*
X045284Y032288D03*
X029784Y031538D03*
X016784Y031538D03*
X003284Y027538D03*
X015034Y003288D03*
X023284Y003288D03*
D14*
X024284Y003288D03*
X025284Y003288D03*
X026284Y003288D03*
X027284Y003288D03*
X027284Y004288D03*
X026284Y004288D03*
X025284Y004288D03*
X024284Y004288D03*
X023284Y004288D03*
X019034Y004288D03*
X018034Y004288D03*
X017034Y004288D03*
X016034Y004288D03*
X015034Y004288D03*
X016034Y003288D03*
X017034Y003288D03*
X018034Y003288D03*
X019034Y003288D03*
X004284Y018538D03*
X003284Y018538D03*
X003284Y019538D03*
X003284Y020538D03*
X004284Y020538D03*
X004284Y019538D03*
X004284Y021538D03*
X003284Y021538D03*
X003284Y022538D03*
X004284Y022538D03*
X004284Y023538D03*
X003284Y023538D03*
X003284Y024538D03*
X004284Y024538D03*
X004284Y025538D03*
X003284Y025538D03*
X003284Y026538D03*
X004284Y026538D03*
X004284Y027538D03*
X012784Y030538D03*
X013784Y030538D03*
X014784Y030538D03*
X015784Y030538D03*
X016784Y030538D03*
X015784Y031538D03*
X014784Y031538D03*
X013784Y031538D03*
X012784Y031538D03*
X025784Y031538D03*
X026784Y031538D03*
X027784Y031538D03*
X028784Y031538D03*
X028784Y030538D03*
X027784Y030538D03*
X026784Y030538D03*
X025784Y030538D03*
X029784Y030538D03*
X034034Y030538D03*
X035034Y030538D03*
X036034Y030538D03*
X037034Y030538D03*
X038034Y030538D03*
X037034Y031538D03*
X036034Y031538D03*
X035034Y031538D03*
X034034Y031538D03*
X045284Y031288D03*
X046284Y031288D03*
X046284Y030288D03*
X045284Y030288D03*
X045284Y029288D03*
X046284Y029288D03*
X046284Y028288D03*
X045284Y028288D03*
X046284Y032288D03*
X046284Y024038D03*
X046284Y023038D03*
X045284Y023038D03*
X045284Y022038D03*
X046284Y022038D03*
X046284Y021038D03*
X045284Y021038D03*
X045284Y020038D03*
X046284Y020038D03*
X046284Y015788D03*
X046284Y014788D03*
X045284Y014788D03*
X045284Y013788D03*
X046284Y013788D03*
X046284Y012788D03*
X045284Y012788D03*
X045284Y011788D03*
X046284Y011788D03*
X046284Y007538D03*
X046284Y006538D03*
X045284Y006538D03*
X045284Y005538D03*
X045284Y004538D03*
X046284Y004538D03*
X046284Y005538D03*
X046284Y003538D03*
X045284Y003538D03*
D15*
X038034Y006788D02*
X038034Y009038D01*
X036284Y009038D01*
X036284Y008038D01*
X035284Y008038D02*
X035284Y010788D01*
X006534Y010788D01*
X006534Y020538D01*
X004284Y020538D01*
X003784Y020038D02*
X006284Y020038D01*
X006284Y010538D01*
X034284Y010538D01*
X034284Y008038D01*
X033784Y007038D02*
X033784Y010288D01*
X006034Y010288D01*
X006034Y019538D01*
X004284Y019538D01*
X003784Y020038D02*
X003284Y020538D01*
X003284Y019538D02*
X003784Y019038D01*
X005784Y019038D01*
X005784Y010038D01*
X032784Y010038D01*
X032784Y006788D01*
X038034Y006788D01*
X037284Y007038D02*
X033784Y007038D01*
X037284Y007038D02*
X037284Y008038D01*
X026284Y025038D02*
X003784Y025038D01*
X003284Y025538D01*
X004284Y025538D02*
X025284Y025538D01*
X025284Y027038D01*
X024284Y027038D02*
X024284Y028538D01*
X037534Y028538D01*
X037534Y031038D01*
X037034Y031538D01*
X037034Y030538D02*
X037034Y028788D01*
X023284Y028788D01*
X023284Y027038D01*
X020284Y027038D02*
X020284Y029038D01*
X008784Y029038D01*
X008284Y029038D01*
X008284Y031038D01*
X026284Y027038D02*
X026284Y025038D01*
X010784Y005788D02*
X010784Y004788D01*
X007534Y004788D01*
X007534Y003538D01*
X006534Y003538D02*
X006534Y004788D01*
X003284Y004788D01*
X003284Y005788D01*
D16*
X004284Y005788D02*
X004284Y009538D01*
X001534Y009538D01*
X001534Y018538D01*
X001534Y033788D01*
X007284Y033788D01*
X007284Y031038D01*
X007284Y033788D02*
X012784Y033788D01*
X020284Y033788D01*
X020284Y031038D01*
X020284Y033788D02*
X025784Y033788D01*
X034034Y033788D01*
X034034Y031538D01*
X034034Y030538D01*
X034034Y033788D02*
X048534Y033788D01*
X048534Y028288D01*
X048534Y020038D01*
X048534Y011788D01*
X048534Y003538D01*
X046284Y003538D01*
X045284Y003538D01*
X042784Y003788D02*
X042784Y001788D01*
X048534Y001788D01*
X048534Y003538D01*
X042784Y001788D02*
X039284Y001788D01*
X035784Y001788D01*
X035784Y003788D01*
X035784Y001788D02*
X032284Y001788D01*
X032284Y003788D01*
X032284Y001788D02*
X027284Y001788D01*
X027284Y003288D01*
X027284Y004288D01*
X027284Y001788D02*
X019034Y001788D01*
X011784Y001788D01*
X008534Y001788D01*
X008534Y003538D01*
X011784Y003538D02*
X011784Y005788D01*
X011784Y001788D01*
X017284Y006288D02*
X019034Y004538D01*
X019034Y004288D01*
X019034Y003288D01*
X019034Y001788D01*
X017284Y006288D02*
X017284Y008038D01*
X004284Y018538D02*
X003284Y018538D01*
X004284Y018538D02*
X001534Y018538D01*
X012784Y030538D02*
X012784Y031538D01*
X012784Y033788D01*
X025784Y033788D02*
X025784Y031538D01*
X025784Y030538D01*
X045284Y028288D02*
X046284Y028288D01*
X048534Y028288D01*
X048534Y020038D02*
X046284Y020038D01*
X045284Y020038D01*
X045284Y011788D02*
X046284Y011788D01*
X048534Y011788D01*
X039284Y003788D02*
X039284Y001788D01*
M02*
