%
M48
M72
T01C0.0360
T02C0.0400
T03C0.1260
%
T01
X15034Y3288
X16034Y3288
X17034Y3288
X18034Y3288
X19034Y3288
X19034Y4288
X18034Y4288
X17034Y4288
X16034Y4288
X15034Y4288
X23284Y4288
X24284Y4288
X25284Y4288
X26284Y4288
X27284Y4288
X27284Y3288
X26284Y3288
X25284Y3288
X24284Y3288
X23284Y3288
X45284Y3538
X46284Y3538
X46284Y4538
X45284Y4538
X45284Y5538
X46284Y5538
X46284Y6538
X45284Y6538
X45284Y7538
X46284Y7538
X46284Y11788
X45284Y11788
X45284Y12788
X46284Y12788
X46284Y13788
X45284Y13788
X45284Y14788
X46284Y14788
X46284Y15788
X45284Y15788
X45284Y20038
X46284Y20038
X46284Y21038
X45284Y21038
X45284Y22038
X46284Y22038
X46284Y23038
X45284Y23038
X45284Y24038
X46284Y24038
X46284Y28288
X45284Y28288
X45284Y29288
X45284Y30288
X46284Y30288
X46284Y29288
X46284Y31288
X45284Y31288
X45284Y32288
X46284Y32288
X38034Y31538
X37034Y31538
X36034Y31538
X35034Y31538
X34034Y31538
X34034Y30538
X35034Y30538
X36034Y30538
X37034Y30538
X38034Y30538
X29784Y30538
X28784Y30538
X27784Y30538
X26784Y30538
X25784Y30538
X25784Y31538
X26784Y31538
X27784Y31538
X28784Y31538
X29784Y31538
X16784Y31538
X15784Y31538
X14784Y31538
X13784Y31538
X12784Y31538
X12784Y30538
X13784Y30538
X14784Y30538
X15784Y30538
X16784Y30538
X4284Y27538
X3284Y27538
X3284Y26538
X4284Y26538
X4284Y25538
X3284Y25538
X3284Y24538
X4284Y24538
X4284Y23538
X3284Y23538
X3284Y22538
X4284Y22538
X4284Y21538
X3284Y21538
X3284Y20538
X3284Y19538
X4284Y19538
X4284Y20538
X4284Y18538
X3284Y18538
T02
X5534Y3538
X6534Y3538
X7534Y3538
X8534Y3538
X9784Y5788
X10784Y5788
X11784Y5788
X14284Y8038
X15284Y8038
X16284Y8038
X17284Y8038
X18284Y8038
X19284Y8038
X21284Y8038
X22284Y8038
X23284Y8038
X24284Y8038
X25284Y8038
X26284Y8038
X27284Y8038
X28284Y8038
X30284Y8038
X31284Y8038
X32284Y8038
X33284Y8038
X34284Y8038
X35284Y8038
X36284Y8038
X37284Y8038
X38284Y10038
X39284Y10038
X39284Y11038
X38284Y11038
X38284Y12038
X39284Y12038
X39284Y13038
X38284Y13038
X38284Y14038
X39284Y14038
X39284Y15038
X38284Y15038
X38284Y16038
X38284Y17038
X39284Y17038
X39284Y16038
X39284Y18038
X38284Y18038
X38284Y19038
X39284Y19038
X39284Y20038
X38284Y20038
X38284Y21038
X39284Y21038
X39284Y22038
X38284Y22038
X38284Y23038
X39284Y23038
X39284Y24038
X38284Y24038
X38284Y25038
X39284Y25038
X39284Y26038
X38284Y26038
X38284Y27038
X39284Y27038
X35284Y27038
X34284Y27038
X33284Y27038
X32284Y27038
X31284Y27038
X30284Y27038
X29284Y27038
X28284Y27038
X26284Y27038
X25284Y27038
X24284Y27038
X23284Y27038
X22284Y27038
X21284Y27038
X20284Y27038
X19284Y27038
X17784Y27038
X16784Y27038
X15784Y27038
X14784Y27038
X13784Y27038
X12784Y27038
X11784Y27038
X10784Y27038
X9284Y31038
X8284Y31038
X7284Y31038
X20284Y31038
X21284Y31038
X22284Y31038
X4284Y5788
X3284Y5788
X2284Y5788
X30284Y3788
X31284Y3788
X32284Y3788
X33784Y3788
X34784Y3788
X35784Y3788
X37284Y3788
X38284Y3788
X39284Y3788
X40784Y3788
X41784Y3788
X42784Y3788
T03
X39284Y8038
X36784Y27038
X7284Y27038
X7284Y8038
M30
