%
M48
M72
T01C0.0236
T02C0.0320
T03C0.0354
T04C0.0360
T05C0.0400
T06C0.0760
T07C0.1000
T08C0.1280
T09C0.1570
T10C0.1575
%
T01
X9699Y1189
X10699Y1689
X11699Y2189
X12699Y2689
X13699Y3189
T02
X13699Y5189
X12699Y5189
X11699Y5189
X10699Y5189
X9699Y5189
X9699Y8189
X10699Y8189
X11699Y8189
X12699Y8189
X13699Y8189
X14699Y8189
X14699Y5189
X20199Y5689
X21199Y5689
X22199Y5689
X23199Y5689
X24199Y5689
X25199Y5689
X26199Y5689
X27199Y5689
X28199Y5689
X27199Y4189
X26199Y4189
X25199Y4189
X24199Y4189
X23199Y4189
X22199Y4189
X22199Y1189
X23199Y1189
X24199Y1189
X25199Y1189
X26199Y1189
X27199Y1189
X27199Y8689
X26199Y8689
X25199Y8689
X24199Y8689
X23199Y8689
X22199Y8689
X21199Y8689
X20199Y8689
X28199Y8689
X27699Y13689
X29199Y13689
X30199Y13689
X30699Y13689
X33699Y13689
X35199Y13689
X36199Y13689
X36699Y13689
X39699Y13689
X41199Y13689
X41199Y10689
X41199Y9689
X41199Y8689
X24699Y13689
X24199Y13689
X23199Y13689
X21699Y13689
X18699Y13689
X18199Y13689
X17199Y13689
X15699Y13689
X12699Y13689
X12199Y13689
X11199Y13689
X9699Y13689
X6699Y13689
X6199Y13689
X5199Y13689
X3199Y10689
X2199Y10689
X4199Y10189
X7199Y10189
T03
X6949Y20689
X5949Y20689
X4949Y20689
X4449Y21689
X5449Y21689
X6449Y21689
X10449Y21689
X11449Y21689
X12449Y21689
X11949Y20689
X10949Y20689
X12949Y20689
X16449Y21689
X17449Y21689
X18449Y21689
X17949Y20689
X16949Y20689
X18949Y20689
X22449Y21689
X23449Y21689
X24449Y21689
X23949Y20689
X22949Y20689
X24949Y20689
X28449Y21689
X29449Y21689
X30449Y21689
X29949Y20689
X30949Y20689
X28949Y20689
X34449Y21689
X35449Y21689
X36449Y21689
X35949Y20689
X34949Y20689
X36949Y20689
T04
X4949Y7439
X3949Y7439
X3949Y6439
X4949Y6439
X4949Y5439
X3949Y5439
X3949Y4439
X4949Y4439
X4949Y3439
X3949Y3439
T05
X5199Y11689
X7199Y11689
X11199Y11689
X13199Y11689
X17199Y11689
X19199Y11689
X23199Y11689
X25199Y11689
X29199Y11689
X31199Y11689
X35199Y11689
X37199Y11689
T06
X41199Y17189
X41199Y19189
X41199Y21189
X41199Y23189
T07
X42199Y24389
X42199Y15989
T08
X37699Y18189
X33699Y18189
X31699Y18189
X27699Y18189
X25699Y18189
X21699Y18189
X19699Y18189
X15699Y18189
X13699Y18189
X9699Y18189
X7699Y18189
X3699Y18189
T09
X45199Y18189
X45199Y22189
T10
X1699Y1689
X1699Y26689
X45199Y1689
X45699Y26689
M30
