G75*
G70*
%OFA0B0*%
%FSLAX24Y24*%
%IPPOS*%
%LPD*%
%AMOC8*
5,1,8,0,0,1.08239X$1,22.5*
%
%ADD10C,0.1655*%
%ADD11C,0.0634*%
%ADD12C,0.1360*%
%ADD13C,0.0640*%
%ADD14OC8,0.0640*%
%ADD15C,0.0600*%
%ADD16C,0.1580*%
%ADD17C,0.1080*%
%ADD18C,0.1650*%
%ADD19C,0.0680*%
%ADD20OC8,0.0600*%
%ADD21R,0.0476X0.0476*%
D10*
X001699Y001689D03*
X001699Y026689D03*
X045199Y001689D03*
X045699Y026689D03*
D11*
X036449Y021689D03*
X035449Y021689D03*
X034449Y021689D03*
X034949Y020689D03*
X035949Y020689D03*
X036949Y020689D03*
X030949Y020689D03*
X029949Y020689D03*
X028949Y020689D03*
X028449Y021689D03*
X029449Y021689D03*
X030449Y021689D03*
X024949Y020689D03*
X023949Y020689D03*
X022949Y020689D03*
X022449Y021689D03*
X023449Y021689D03*
X024449Y021689D03*
X018949Y020689D03*
X017949Y020689D03*
X016949Y020689D03*
X016449Y021689D03*
X017449Y021689D03*
X018449Y021689D03*
X012949Y020689D03*
X011949Y020689D03*
X010949Y020689D03*
X010449Y021689D03*
X011449Y021689D03*
X012449Y021689D03*
X006949Y020689D03*
X005949Y020689D03*
X004949Y020689D03*
X004449Y021689D03*
X005449Y021689D03*
X006449Y021689D03*
D12*
X007699Y018189D03*
X009699Y018189D03*
X013699Y018189D03*
X015699Y018189D03*
X019699Y018189D03*
X021699Y018189D03*
X025699Y018189D03*
X027699Y018189D03*
X031699Y018189D03*
X033699Y018189D03*
X037699Y018189D03*
X003699Y018189D03*
D13*
X004949Y003439D03*
D14*
X003949Y003439D03*
X003949Y004439D03*
X004949Y004439D03*
X004949Y005439D03*
X003949Y005439D03*
X003949Y006439D03*
X004949Y006439D03*
X004949Y007439D03*
X003949Y007439D03*
D15*
X020199Y008429D02*
X020199Y008949D01*
X021199Y008949D02*
X021199Y008429D01*
X022199Y008429D02*
X022199Y008949D01*
X023199Y008949D02*
X023199Y008429D01*
X024199Y008429D02*
X024199Y008949D01*
X025199Y008949D02*
X025199Y008429D01*
X026199Y008429D02*
X026199Y008949D01*
X027199Y008949D02*
X027199Y008429D01*
X028199Y008429D02*
X028199Y008949D01*
X028199Y005949D02*
X028199Y005429D01*
X027199Y005429D02*
X027199Y005949D01*
X026199Y005949D02*
X026199Y005429D01*
X025199Y005429D02*
X025199Y005949D01*
X024199Y005949D02*
X024199Y005429D01*
X023199Y005429D02*
X023199Y005949D01*
X022199Y005949D02*
X022199Y005429D01*
X021199Y005429D02*
X021199Y005949D01*
X020199Y005949D02*
X020199Y005429D01*
X022199Y004449D02*
X022199Y003929D01*
X023199Y003929D02*
X023199Y004449D01*
X024199Y004449D02*
X024199Y003929D01*
X025199Y003929D02*
X025199Y004449D01*
X026199Y004449D02*
X026199Y003929D01*
X027199Y003929D02*
X027199Y004449D01*
X027199Y001449D02*
X027199Y000929D01*
X026199Y000929D02*
X026199Y001449D01*
X025199Y001449D02*
X025199Y000929D01*
X024199Y000929D02*
X024199Y001449D01*
X023199Y001449D02*
X023199Y000929D01*
X022199Y000929D02*
X022199Y001449D01*
D16*
X040449Y017189D02*
X041949Y017189D01*
X041949Y019189D02*
X040449Y019189D01*
X040449Y021189D02*
X041949Y021189D01*
X041949Y023189D02*
X040449Y023189D01*
D17*
X042199Y024389D03*
X042199Y015989D03*
D18*
X045199Y018189D03*
X045199Y022189D03*
D19*
X037199Y011989D02*
X037199Y011389D01*
X035199Y011389D02*
X035199Y011989D01*
X031199Y011989D02*
X031199Y011389D01*
X029199Y011389D02*
X029199Y011989D01*
X025199Y011989D02*
X025199Y011389D01*
X023199Y011389D02*
X023199Y011989D01*
X019199Y011989D02*
X019199Y011389D01*
X017199Y011389D02*
X017199Y011989D01*
X013199Y011989D02*
X013199Y011389D01*
X011199Y011389D02*
X011199Y011989D01*
X007199Y011989D02*
X007199Y011389D01*
X005199Y011389D02*
X005199Y011989D01*
D20*
X003199Y010689D03*
X002199Y010689D03*
X004199Y010189D03*
X007199Y010189D03*
X009699Y008189D03*
X010699Y008189D03*
X011699Y008189D03*
X012699Y008189D03*
X013699Y008189D03*
X014699Y008189D03*
X014699Y005189D03*
X013699Y005189D03*
X012699Y005189D03*
X011699Y005189D03*
X010699Y005189D03*
X009699Y005189D03*
X009699Y013689D03*
X011199Y013689D03*
X012199Y013689D03*
X012699Y013689D03*
X015699Y013689D03*
X017199Y013689D03*
X018199Y013689D03*
X018699Y013689D03*
X021699Y013689D03*
X023199Y013689D03*
X024199Y013689D03*
X024699Y013689D03*
X027699Y013689D03*
X029199Y013689D03*
X030199Y013689D03*
X030699Y013689D03*
X033699Y013689D03*
X035199Y013689D03*
X036199Y013689D03*
X036699Y013689D03*
X039699Y013689D03*
X041199Y013689D03*
X041199Y010689D03*
X041199Y009689D03*
X041199Y008689D03*
X006699Y013689D03*
X006199Y013689D03*
X005199Y013689D03*
D21*
X013699Y003189D03*
X012699Y002689D03*
X011699Y002189D03*
X010699Y001689D03*
X009699Y001189D03*
M02*
