G75*
G70*
%OFA0B0*%
%FSLAX24Y24*%
%IPPOS*%
%LPD*%
%AMOC8*
5,1,8,0,0,1.08239X$1,22.5*
%
%ADD10C,0.0010*%
%ADD11C,0.0554*%
%ADD12C,0.0560*%
%ADD13OC8,0.0560*%
%ADD14C,0.0520*%
%ADD15C,0.1500*%
%ADD16C,0.0600*%
%ADD17OC8,0.0520*%
%ADD18C,0.0160*%
%ADD19C,0.0500*%
%ADD20R,0.0396X0.0396*%
D10*
X035431Y003429D02*
X035431Y005429D01*
X036231Y005429D01*
X036145Y005193D01*
X036083Y004949D01*
X036045Y004701D01*
X036031Y004449D01*
X036031Y004409D01*
X036045Y004158D01*
X036083Y003909D01*
X036145Y003666D01*
X036231Y003429D01*
X035431Y003429D01*
X035431Y003436D02*
X036229Y003436D01*
X036225Y003445D02*
X035431Y003445D01*
X035431Y003453D02*
X036222Y003453D01*
X036219Y003462D02*
X035431Y003462D01*
X035431Y003470D02*
X036216Y003470D01*
X036213Y003479D02*
X035431Y003479D01*
X035431Y003487D02*
X036210Y003487D01*
X036207Y003496D02*
X035431Y003496D01*
X035431Y003505D02*
X036204Y003505D01*
X036201Y003513D02*
X035431Y003513D01*
X035431Y003522D02*
X036197Y003522D01*
X036194Y003530D02*
X035431Y003530D01*
X035431Y003539D02*
X036191Y003539D01*
X036188Y003547D02*
X035431Y003547D01*
X035431Y003556D02*
X036185Y003556D01*
X036182Y003564D02*
X035431Y003564D01*
X035431Y003573D02*
X036179Y003573D01*
X036176Y003581D02*
X035431Y003581D01*
X035431Y003590D02*
X036173Y003590D01*
X036169Y003599D02*
X035431Y003599D01*
X035431Y003607D02*
X036166Y003607D01*
X036163Y003616D02*
X035431Y003616D01*
X035431Y003624D02*
X036160Y003624D01*
X036157Y003633D02*
X035431Y003633D01*
X035431Y003641D02*
X036154Y003641D01*
X036151Y003650D02*
X035431Y003650D01*
X035431Y003658D02*
X036148Y003658D01*
X036145Y003667D02*
X035431Y003667D01*
X035431Y003675D02*
X036143Y003675D01*
X036140Y003684D02*
X035431Y003684D01*
X035431Y003692D02*
X036138Y003692D01*
X036136Y003701D02*
X035431Y003701D01*
X035431Y003710D02*
X036134Y003710D01*
X036132Y003718D02*
X035431Y003718D01*
X035431Y003727D02*
X036129Y003727D01*
X036127Y003735D02*
X035431Y003735D01*
X035431Y003744D02*
X036125Y003744D01*
X036123Y003752D02*
X035431Y003752D01*
X035431Y003761D02*
X036121Y003761D01*
X036119Y003769D02*
X035431Y003769D01*
X035431Y003778D02*
X036116Y003778D01*
X036114Y003786D02*
X035431Y003786D01*
X035431Y003795D02*
X036112Y003795D01*
X036110Y003804D02*
X035431Y003804D01*
X035431Y003812D02*
X036108Y003812D01*
X036105Y003821D02*
X035431Y003821D01*
X035431Y003829D02*
X036103Y003829D01*
X036101Y003838D02*
X035431Y003838D01*
X035431Y003846D02*
X036099Y003846D01*
X036097Y003855D02*
X035431Y003855D01*
X035431Y003863D02*
X036094Y003863D01*
X036092Y003872D02*
X035431Y003872D01*
X035431Y003880D02*
X036090Y003880D01*
X036088Y003889D02*
X035431Y003889D01*
X035431Y003898D02*
X036086Y003898D01*
X036084Y003906D02*
X035431Y003906D01*
X035431Y003915D02*
X036082Y003915D01*
X036081Y003923D02*
X035431Y003923D01*
X035431Y003932D02*
X036079Y003932D01*
X036078Y003940D02*
X035431Y003940D01*
X035431Y003949D02*
X036077Y003949D01*
X036075Y003957D02*
X035431Y003957D01*
X035431Y003966D02*
X036074Y003966D01*
X036073Y003974D02*
X035431Y003974D01*
X035431Y003983D02*
X036071Y003983D01*
X036070Y003991D02*
X035431Y003991D01*
X035431Y004000D02*
X036069Y004000D01*
X036067Y004009D02*
X035431Y004009D01*
X035431Y004017D02*
X036066Y004017D01*
X036065Y004026D02*
X035431Y004026D01*
X035431Y004034D02*
X036064Y004034D01*
X036062Y004043D02*
X035431Y004043D01*
X035431Y004051D02*
X036061Y004051D01*
X036060Y004060D02*
X035431Y004060D01*
X035431Y004068D02*
X036058Y004068D01*
X036057Y004077D02*
X035431Y004077D01*
X035431Y004085D02*
X036056Y004085D01*
X036054Y004094D02*
X035431Y004094D01*
X035431Y004103D02*
X036053Y004103D01*
X036052Y004111D02*
X035431Y004111D01*
X035431Y004120D02*
X036050Y004120D01*
X036049Y004128D02*
X035431Y004128D01*
X035431Y004137D02*
X036048Y004137D01*
X036047Y004145D02*
X035431Y004145D01*
X035431Y004154D02*
X036045Y004154D01*
X036044Y004162D02*
X035431Y004162D01*
X035431Y004171D02*
X036044Y004171D01*
X036043Y004179D02*
X035431Y004179D01*
X035431Y004188D02*
X036043Y004188D01*
X036042Y004197D02*
X035431Y004197D01*
X035431Y004205D02*
X036042Y004205D01*
X036042Y004214D02*
X035431Y004214D01*
X035431Y004222D02*
X036041Y004222D01*
X036041Y004231D02*
X035431Y004231D01*
X035431Y004239D02*
X036040Y004239D01*
X036040Y004248D02*
X035431Y004248D01*
X035431Y004256D02*
X036039Y004256D01*
X036039Y004265D02*
X035431Y004265D01*
X035431Y004273D02*
X036038Y004273D01*
X036038Y004282D02*
X035431Y004282D01*
X035431Y004291D02*
X036037Y004291D01*
X036037Y004299D02*
X035431Y004299D01*
X035431Y004308D02*
X036036Y004308D01*
X036036Y004316D02*
X035431Y004316D01*
X035431Y004325D02*
X036036Y004325D01*
X036035Y004333D02*
X035431Y004333D01*
X035431Y004342D02*
X036035Y004342D01*
X036034Y004350D02*
X035431Y004350D01*
X035431Y004359D02*
X036034Y004359D01*
X036033Y004367D02*
X035431Y004367D01*
X035431Y004376D02*
X036033Y004376D01*
X036032Y004384D02*
X035431Y004384D01*
X035431Y004393D02*
X036032Y004393D01*
X036031Y004402D02*
X035431Y004402D01*
X035431Y004410D02*
X036031Y004410D01*
X036031Y004419D02*
X035431Y004419D01*
X035431Y004427D02*
X036031Y004427D01*
X036031Y004436D02*
X035431Y004436D01*
X035431Y004444D02*
X036031Y004444D01*
X036031Y004453D02*
X035431Y004453D01*
X035431Y004461D02*
X036032Y004461D01*
X036032Y004470D02*
X035431Y004470D01*
X035431Y004478D02*
X036033Y004478D01*
X036033Y004487D02*
X035431Y004487D01*
X035431Y004496D02*
X036034Y004496D01*
X036034Y004504D02*
X035431Y004504D01*
X035431Y004513D02*
X036034Y004513D01*
X036035Y004521D02*
X035431Y004521D01*
X035431Y004530D02*
X036035Y004530D01*
X036036Y004538D02*
X035431Y004538D01*
X035431Y004547D02*
X036036Y004547D01*
X036037Y004555D02*
X035431Y004555D01*
X035431Y004564D02*
X036037Y004564D01*
X036038Y004572D02*
X035431Y004572D01*
X035431Y004581D02*
X036038Y004581D01*
X036039Y004590D02*
X035431Y004590D01*
X035431Y004598D02*
X036039Y004598D01*
X036040Y004607D02*
X035431Y004607D01*
X035431Y004615D02*
X036040Y004615D01*
X036040Y004624D02*
X035431Y004624D01*
X035431Y004632D02*
X036041Y004632D01*
X036041Y004641D02*
X035431Y004641D01*
X035431Y004649D02*
X036042Y004649D01*
X036042Y004658D02*
X035431Y004658D01*
X035431Y004666D02*
X036043Y004666D01*
X036043Y004675D02*
X035431Y004675D01*
X035431Y004684D02*
X036044Y004684D01*
X036044Y004692D02*
X035431Y004692D01*
X035431Y004701D02*
X036045Y004701D01*
X036046Y004709D02*
X035431Y004709D01*
X035431Y004718D02*
X036047Y004718D01*
X036049Y004726D02*
X035431Y004726D01*
X035431Y004735D02*
X036050Y004735D01*
X036051Y004743D02*
X035431Y004743D01*
X035431Y004752D02*
X036052Y004752D01*
X036054Y004760D02*
X035431Y004760D01*
X035431Y004769D02*
X036055Y004769D01*
X036056Y004777D02*
X035431Y004777D01*
X035431Y004786D02*
X036058Y004786D01*
X036059Y004795D02*
X035431Y004795D01*
X035431Y004803D02*
X036060Y004803D01*
X036062Y004812D02*
X035431Y004812D01*
X035431Y004820D02*
X036063Y004820D01*
X036064Y004829D02*
X035431Y004829D01*
X035431Y004837D02*
X036066Y004837D01*
X036067Y004846D02*
X035431Y004846D01*
X035431Y004854D02*
X036068Y004854D01*
X036069Y004863D02*
X035431Y004863D01*
X035431Y004871D02*
X036071Y004871D01*
X036072Y004880D02*
X035431Y004880D01*
X035431Y004889D02*
X036073Y004889D01*
X036075Y004897D02*
X035431Y004897D01*
X035431Y004906D02*
X036076Y004906D01*
X036077Y004914D02*
X035431Y004914D01*
X035431Y004923D02*
X036079Y004923D01*
X036080Y004931D02*
X035431Y004931D01*
X035431Y004940D02*
X036081Y004940D01*
X036083Y004948D02*
X035431Y004948D01*
X035431Y004957D02*
X036085Y004957D01*
X036087Y004965D02*
X035431Y004965D01*
X035431Y004974D02*
X036089Y004974D01*
X036091Y004983D02*
X035431Y004983D01*
X035431Y004991D02*
X036093Y004991D01*
X036096Y005000D02*
X035431Y005000D01*
X035431Y005008D02*
X036098Y005008D01*
X036100Y005017D02*
X035431Y005017D01*
X035431Y005025D02*
X036102Y005025D01*
X036104Y005034D02*
X035431Y005034D01*
X035431Y005042D02*
X036106Y005042D01*
X036109Y005051D02*
X035431Y005051D01*
X035431Y005059D02*
X036111Y005059D01*
X036113Y005068D02*
X035431Y005068D01*
X035431Y005076D02*
X036115Y005076D01*
X036117Y005085D02*
X035431Y005085D01*
X035431Y005094D02*
X036120Y005094D01*
X036122Y005102D02*
X035431Y005102D01*
X035431Y005111D02*
X036124Y005111D01*
X036126Y005119D02*
X035431Y005119D01*
X035431Y005128D02*
X036128Y005128D01*
X036131Y005136D02*
X035431Y005136D01*
X035431Y005145D02*
X036133Y005145D01*
X036135Y005153D02*
X035431Y005153D01*
X035431Y005162D02*
X036137Y005162D01*
X036139Y005170D02*
X035431Y005170D01*
X035431Y005179D02*
X036141Y005179D01*
X036144Y005188D02*
X035431Y005188D01*
X035431Y005196D02*
X036146Y005196D01*
X036149Y005205D02*
X035431Y005205D01*
X035431Y005213D02*
X036152Y005213D01*
X036156Y005222D02*
X035431Y005222D01*
X035431Y005230D02*
X036159Y005230D01*
X036162Y005239D02*
X035431Y005239D01*
X035431Y005247D02*
X036165Y005247D01*
X036168Y005256D02*
X035431Y005256D01*
X035431Y005264D02*
X036171Y005264D01*
X036174Y005273D02*
X035431Y005273D01*
X035431Y005282D02*
X036177Y005282D01*
X036180Y005290D02*
X035431Y005290D01*
X035431Y005299D02*
X036183Y005299D01*
X036187Y005307D02*
X035431Y005307D01*
X035431Y005316D02*
X036190Y005316D01*
X036193Y005324D02*
X035431Y005324D01*
X035431Y005333D02*
X036196Y005333D01*
X036199Y005341D02*
X035431Y005341D01*
X035431Y005350D02*
X036202Y005350D01*
X036205Y005358D02*
X035431Y005358D01*
X035431Y005367D02*
X036208Y005367D01*
X036211Y005376D02*
X035431Y005376D01*
X035431Y005384D02*
X036215Y005384D01*
X036218Y005393D02*
X035431Y005393D01*
X035431Y005401D02*
X036221Y005401D01*
X036224Y005410D02*
X035431Y005410D01*
X035431Y005418D02*
X036227Y005418D01*
X036230Y005427D02*
X035431Y005427D01*
X036388Y005162D02*
X036598Y005162D01*
X036601Y005170D02*
X036390Y005170D01*
X036392Y005179D02*
X036604Y005179D01*
X036606Y005188D02*
X036395Y005188D01*
X036396Y005190D02*
X036491Y005429D01*
X036711Y005429D01*
X036615Y005215D01*
X036543Y004992D01*
X036495Y004763D01*
X036471Y004529D01*
X036671Y004529D01*
X036671Y004329D01*
X036471Y004329D01*
X036495Y004096D01*
X036543Y003867D01*
X036615Y003644D01*
X036711Y003429D01*
X036491Y003429D01*
X036397Y003664D01*
X036329Y003908D01*
X036287Y004157D01*
X036271Y004409D01*
X036271Y004429D01*
X036285Y004687D01*
X036327Y004941D01*
X036396Y005190D01*
X036398Y005196D02*
X036609Y005196D01*
X036612Y005205D02*
X036401Y005205D01*
X036405Y005213D02*
X036615Y005213D01*
X036618Y005222D02*
X036408Y005222D01*
X036412Y005230D02*
X036622Y005230D01*
X036626Y005239D02*
X036415Y005239D01*
X036418Y005247D02*
X036630Y005247D01*
X036633Y005256D02*
X036422Y005256D01*
X036425Y005264D02*
X036637Y005264D01*
X036641Y005273D02*
X036429Y005273D01*
X036432Y005282D02*
X036645Y005282D01*
X036649Y005290D02*
X036435Y005290D01*
X036439Y005299D02*
X036653Y005299D01*
X036656Y005307D02*
X036442Y005307D01*
X036446Y005316D02*
X036660Y005316D01*
X036664Y005324D02*
X036449Y005324D01*
X036452Y005333D02*
X036668Y005333D01*
X036672Y005341D02*
X036456Y005341D01*
X036459Y005350D02*
X036675Y005350D01*
X036679Y005358D02*
X036463Y005358D01*
X036466Y005367D02*
X036683Y005367D01*
X036687Y005376D02*
X036469Y005376D01*
X036473Y005384D02*
X036691Y005384D01*
X036695Y005393D02*
X036476Y005393D01*
X036480Y005401D02*
X036698Y005401D01*
X036702Y005410D02*
X036483Y005410D01*
X036486Y005418D02*
X036706Y005418D01*
X036710Y005427D02*
X036490Y005427D01*
X036385Y005153D02*
X036595Y005153D01*
X036592Y005145D02*
X036383Y005145D01*
X036381Y005136D02*
X036590Y005136D01*
X036587Y005128D02*
X036378Y005128D01*
X036376Y005119D02*
X036584Y005119D01*
X036581Y005111D02*
X036374Y005111D01*
X036371Y005102D02*
X036579Y005102D01*
X036576Y005094D02*
X036369Y005094D01*
X036366Y005085D02*
X036573Y005085D01*
X036570Y005076D02*
X036364Y005076D01*
X036362Y005068D02*
X036567Y005068D01*
X036565Y005059D02*
X036359Y005059D01*
X036357Y005051D02*
X036562Y005051D01*
X036559Y005042D02*
X036355Y005042D01*
X036352Y005034D02*
X036556Y005034D01*
X036554Y005025D02*
X036350Y005025D01*
X036347Y005017D02*
X036551Y005017D01*
X036548Y005008D02*
X036345Y005008D01*
X036343Y005000D02*
X036545Y005000D01*
X036543Y004991D02*
X036340Y004991D01*
X036338Y004983D02*
X036541Y004983D01*
X036539Y004974D02*
X036336Y004974D01*
X036333Y004965D02*
X036537Y004965D01*
X036536Y004957D02*
X036331Y004957D01*
X036329Y004948D02*
X036534Y004948D01*
X036532Y004940D02*
X036326Y004940D01*
X036325Y004931D02*
X036530Y004931D01*
X036528Y004923D02*
X036324Y004923D01*
X036322Y004914D02*
X036527Y004914D01*
X036525Y004906D02*
X036321Y004906D01*
X036319Y004897D02*
X036523Y004897D01*
X036521Y004889D02*
X036318Y004889D01*
X036317Y004880D02*
X036519Y004880D01*
X036518Y004871D02*
X036315Y004871D01*
X036314Y004863D02*
X036516Y004863D01*
X036514Y004854D02*
X036312Y004854D01*
X036311Y004846D02*
X036512Y004846D01*
X036510Y004837D02*
X036310Y004837D01*
X036308Y004829D02*
X036509Y004829D01*
X036507Y004820D02*
X036307Y004820D01*
X036305Y004812D02*
X036505Y004812D01*
X036503Y004803D02*
X036304Y004803D01*
X036303Y004795D02*
X036501Y004795D01*
X036500Y004786D02*
X036301Y004786D01*
X036300Y004777D02*
X036498Y004777D01*
X036496Y004769D02*
X036298Y004769D01*
X036297Y004760D02*
X036494Y004760D01*
X036494Y004752D02*
X036296Y004752D01*
X036294Y004743D02*
X036493Y004743D01*
X036492Y004735D02*
X036293Y004735D01*
X036291Y004726D02*
X036491Y004726D01*
X036490Y004718D02*
X036290Y004718D01*
X036289Y004709D02*
X036489Y004709D01*
X036488Y004701D02*
X036287Y004701D01*
X036286Y004692D02*
X036488Y004692D01*
X036487Y004684D02*
X036285Y004684D01*
X036284Y004675D02*
X036486Y004675D01*
X036485Y004666D02*
X036284Y004666D01*
X036283Y004658D02*
X036484Y004658D01*
X036483Y004649D02*
X036283Y004649D01*
X036283Y004641D02*
X036482Y004641D01*
X036482Y004632D02*
X036282Y004632D01*
X036282Y004624D02*
X036481Y004624D01*
X036480Y004615D02*
X036281Y004615D01*
X036281Y004607D02*
X036479Y004607D01*
X036478Y004598D02*
X036280Y004598D01*
X036280Y004590D02*
X036477Y004590D01*
X036476Y004581D02*
X036279Y004581D01*
X036279Y004572D02*
X036476Y004572D01*
X036475Y004564D02*
X036278Y004564D01*
X036278Y004555D02*
X036474Y004555D01*
X036473Y004547D02*
X036277Y004547D01*
X036277Y004538D02*
X036472Y004538D01*
X036471Y004530D02*
X036277Y004530D01*
X036276Y004521D02*
X036671Y004521D01*
X036671Y004513D02*
X036276Y004513D01*
X036275Y004504D02*
X036671Y004504D01*
X036671Y004496D02*
X036275Y004496D01*
X036274Y004487D02*
X036671Y004487D01*
X036671Y004478D02*
X036274Y004478D01*
X036273Y004470D02*
X036671Y004470D01*
X036671Y004461D02*
X036273Y004461D01*
X036272Y004453D02*
X036671Y004453D01*
X036671Y004444D02*
X036272Y004444D01*
X036271Y004436D02*
X036671Y004436D01*
X036671Y004427D02*
X036271Y004427D01*
X036271Y004419D02*
X036671Y004419D01*
X036671Y004410D02*
X036271Y004410D01*
X036272Y004402D02*
X036671Y004402D01*
X036671Y004393D02*
X036272Y004393D01*
X036273Y004384D02*
X036671Y004384D01*
X036671Y004376D02*
X036273Y004376D01*
X036274Y004367D02*
X036671Y004367D01*
X036671Y004359D02*
X036274Y004359D01*
X036275Y004350D02*
X036671Y004350D01*
X036671Y004342D02*
X036275Y004342D01*
X036276Y004333D02*
X036671Y004333D01*
X036472Y004316D02*
X036277Y004316D01*
X036278Y004308D02*
X036473Y004308D01*
X036474Y004299D02*
X036278Y004299D01*
X036279Y004291D02*
X036475Y004291D01*
X036476Y004282D02*
X036279Y004282D01*
X036280Y004273D02*
X036477Y004273D01*
X036478Y004265D02*
X036280Y004265D01*
X036281Y004256D02*
X036479Y004256D01*
X036479Y004248D02*
X036281Y004248D01*
X036282Y004239D02*
X036480Y004239D01*
X036481Y004231D02*
X036282Y004231D01*
X036283Y004222D02*
X036482Y004222D01*
X036483Y004214D02*
X036283Y004214D01*
X036284Y004205D02*
X036484Y004205D01*
X036485Y004197D02*
X036285Y004197D01*
X036285Y004188D02*
X036485Y004188D01*
X036486Y004179D02*
X036286Y004179D01*
X036286Y004171D02*
X036487Y004171D01*
X036488Y004162D02*
X036287Y004162D01*
X036288Y004154D02*
X036489Y004154D01*
X036490Y004145D02*
X036289Y004145D01*
X036290Y004137D02*
X036491Y004137D01*
X036491Y004128D02*
X036292Y004128D01*
X036293Y004120D02*
X036492Y004120D01*
X036493Y004111D02*
X036295Y004111D01*
X036296Y004103D02*
X036494Y004103D01*
X036495Y004094D02*
X036298Y004094D01*
X036299Y004085D02*
X036497Y004085D01*
X036499Y004077D02*
X036301Y004077D01*
X036302Y004068D02*
X036500Y004068D01*
X036502Y004060D02*
X036303Y004060D01*
X036305Y004051D02*
X036504Y004051D01*
X036506Y004043D02*
X036306Y004043D01*
X036308Y004034D02*
X036508Y004034D01*
X036509Y004026D02*
X036309Y004026D01*
X036311Y004017D02*
X036511Y004017D01*
X036513Y004009D02*
X036312Y004009D01*
X036314Y004000D02*
X036515Y004000D01*
X036517Y003991D02*
X036315Y003991D01*
X036316Y003983D02*
X036518Y003983D01*
X036520Y003974D02*
X036318Y003974D01*
X036319Y003966D02*
X036522Y003966D01*
X036524Y003957D02*
X036321Y003957D01*
X036322Y003949D02*
X036526Y003949D01*
X036527Y003940D02*
X036324Y003940D01*
X036325Y003932D02*
X036529Y003932D01*
X036531Y003923D02*
X036327Y003923D01*
X036328Y003915D02*
X036533Y003915D01*
X036535Y003906D02*
X036330Y003906D01*
X036332Y003898D02*
X036536Y003898D01*
X036538Y003889D02*
X036334Y003889D01*
X036337Y003880D02*
X036540Y003880D01*
X036542Y003872D02*
X036339Y003872D01*
X036342Y003863D02*
X036544Y003863D01*
X036547Y003855D02*
X036344Y003855D01*
X036346Y003846D02*
X036549Y003846D01*
X036552Y003838D02*
X036349Y003838D01*
X036351Y003829D02*
X036555Y003829D01*
X036558Y003821D02*
X036354Y003821D01*
X036356Y003812D02*
X036561Y003812D01*
X036563Y003804D02*
X036358Y003804D01*
X036361Y003795D02*
X036566Y003795D01*
X036569Y003786D02*
X036363Y003786D01*
X036366Y003778D02*
X036572Y003778D01*
X036574Y003769D02*
X036368Y003769D01*
X036370Y003761D02*
X036577Y003761D01*
X036580Y003752D02*
X036373Y003752D01*
X036375Y003744D02*
X036583Y003744D01*
X036586Y003735D02*
X036378Y003735D01*
X036380Y003727D02*
X036588Y003727D01*
X036591Y003718D02*
X036382Y003718D01*
X036385Y003710D02*
X036594Y003710D01*
X036597Y003701D02*
X036387Y003701D01*
X036390Y003692D02*
X036599Y003692D01*
X036602Y003684D02*
X036392Y003684D01*
X036394Y003675D02*
X036605Y003675D01*
X036608Y003667D02*
X036397Y003667D01*
X036400Y003658D02*
X036610Y003658D01*
X036613Y003650D02*
X036403Y003650D01*
X036407Y003641D02*
X036616Y003641D01*
X036620Y003633D02*
X036410Y003633D01*
X036413Y003624D02*
X036624Y003624D01*
X036628Y003616D02*
X036417Y003616D01*
X036420Y003607D02*
X036632Y003607D01*
X036635Y003599D02*
X036424Y003599D01*
X036427Y003590D02*
X036639Y003590D01*
X036643Y003581D02*
X036430Y003581D01*
X036434Y003573D02*
X036647Y003573D01*
X036651Y003564D02*
X036437Y003564D01*
X036441Y003556D02*
X036654Y003556D01*
X036658Y003547D02*
X036444Y003547D01*
X036447Y003539D02*
X036662Y003539D01*
X036666Y003530D02*
X036451Y003530D01*
X036454Y003522D02*
X036670Y003522D01*
X036674Y003513D02*
X036458Y003513D01*
X036461Y003505D02*
X036677Y003505D01*
X036681Y003496D02*
X036464Y003496D01*
X036468Y003487D02*
X036685Y003487D01*
X036689Y003479D02*
X036471Y003479D01*
X036475Y003470D02*
X036693Y003470D01*
X036696Y003462D02*
X036478Y003462D01*
X036481Y003453D02*
X036700Y003453D01*
X036704Y003445D02*
X036485Y003445D01*
X036488Y003436D02*
X036708Y003436D01*
X036871Y003436D02*
X037071Y003436D01*
X037071Y003429D02*
X037071Y005429D01*
X036871Y005429D01*
X036871Y003429D01*
X037071Y003429D01*
X037071Y003445D02*
X036871Y003445D01*
X036871Y003453D02*
X037071Y003453D01*
X037071Y003462D02*
X036871Y003462D01*
X036871Y003470D02*
X037071Y003470D01*
X037071Y003479D02*
X036871Y003479D01*
X036871Y003487D02*
X037071Y003487D01*
X037071Y003496D02*
X036871Y003496D01*
X036871Y003505D02*
X037071Y003505D01*
X037071Y003513D02*
X036871Y003513D01*
X036871Y003522D02*
X037071Y003522D01*
X037071Y003530D02*
X036871Y003530D01*
X036871Y003539D02*
X037071Y003539D01*
X037071Y003547D02*
X036871Y003547D01*
X036871Y003556D02*
X037071Y003556D01*
X037071Y003564D02*
X036871Y003564D01*
X036871Y003573D02*
X037071Y003573D01*
X037071Y003581D02*
X036871Y003581D01*
X036871Y003590D02*
X037071Y003590D01*
X037071Y003599D02*
X036871Y003599D01*
X036871Y003607D02*
X037071Y003607D01*
X037071Y003616D02*
X036871Y003616D01*
X036871Y003624D02*
X037071Y003624D01*
X037071Y003633D02*
X036871Y003633D01*
X036871Y003641D02*
X037071Y003641D01*
X037071Y003650D02*
X036871Y003650D01*
X036871Y003658D02*
X037071Y003658D01*
X037071Y003667D02*
X036871Y003667D01*
X036871Y003675D02*
X037071Y003675D01*
X037071Y003684D02*
X036871Y003684D01*
X036871Y003692D02*
X037071Y003692D01*
X037071Y003701D02*
X036871Y003701D01*
X036871Y003710D02*
X037071Y003710D01*
X037071Y003718D02*
X036871Y003718D01*
X036871Y003727D02*
X037071Y003727D01*
X037071Y003735D02*
X036871Y003735D01*
X036871Y003744D02*
X037071Y003744D01*
X037071Y003752D02*
X036871Y003752D01*
X036871Y003761D02*
X037071Y003761D01*
X037071Y003769D02*
X036871Y003769D01*
X036871Y003778D02*
X037071Y003778D01*
X037071Y003786D02*
X036871Y003786D01*
X036871Y003795D02*
X037071Y003795D01*
X037071Y003804D02*
X036871Y003804D01*
X036871Y003812D02*
X037071Y003812D01*
X037071Y003821D02*
X036871Y003821D01*
X036871Y003829D02*
X037071Y003829D01*
X037071Y003838D02*
X036871Y003838D01*
X036871Y003846D02*
X037071Y003846D01*
X037071Y003855D02*
X036871Y003855D01*
X036871Y003863D02*
X037071Y003863D01*
X037071Y003872D02*
X036871Y003872D01*
X036871Y003880D02*
X037071Y003880D01*
X037071Y003889D02*
X036871Y003889D01*
X036871Y003898D02*
X037071Y003898D01*
X037071Y003906D02*
X036871Y003906D01*
X036871Y003915D02*
X037071Y003915D01*
X037071Y003923D02*
X036871Y003923D01*
X036871Y003932D02*
X037071Y003932D01*
X037071Y003940D02*
X036871Y003940D01*
X036871Y003949D02*
X037071Y003949D01*
X037071Y003957D02*
X036871Y003957D01*
X036871Y003966D02*
X037071Y003966D01*
X037071Y003974D02*
X036871Y003974D01*
X036871Y003983D02*
X037071Y003983D01*
X037071Y003991D02*
X036871Y003991D01*
X036871Y004000D02*
X037071Y004000D01*
X037071Y004009D02*
X036871Y004009D01*
X036871Y004017D02*
X037071Y004017D01*
X037071Y004026D02*
X036871Y004026D01*
X036871Y004034D02*
X037071Y004034D01*
X037071Y004043D02*
X036871Y004043D01*
X036871Y004051D02*
X037071Y004051D01*
X037071Y004060D02*
X036871Y004060D01*
X036871Y004068D02*
X037071Y004068D01*
X037071Y004077D02*
X036871Y004077D01*
X036871Y004085D02*
X037071Y004085D01*
X037071Y004094D02*
X036871Y004094D01*
X036871Y004103D02*
X037071Y004103D01*
X037071Y004111D02*
X036871Y004111D01*
X036871Y004120D02*
X037071Y004120D01*
X037071Y004128D02*
X036871Y004128D01*
X036871Y004137D02*
X037071Y004137D01*
X037071Y004145D02*
X036871Y004145D01*
X036871Y004154D02*
X037071Y004154D01*
X037071Y004162D02*
X036871Y004162D01*
X036871Y004171D02*
X037071Y004171D01*
X037071Y004179D02*
X036871Y004179D01*
X036871Y004188D02*
X037071Y004188D01*
X037071Y004197D02*
X036871Y004197D01*
X036871Y004205D02*
X037071Y004205D01*
X037071Y004214D02*
X036871Y004214D01*
X036871Y004222D02*
X037071Y004222D01*
X037071Y004231D02*
X036871Y004231D01*
X036871Y004239D02*
X037071Y004239D01*
X037071Y004248D02*
X036871Y004248D01*
X036871Y004256D02*
X037071Y004256D01*
X037071Y004265D02*
X036871Y004265D01*
X036871Y004273D02*
X037071Y004273D01*
X037071Y004282D02*
X036871Y004282D01*
X036871Y004291D02*
X037071Y004291D01*
X037071Y004299D02*
X036871Y004299D01*
X036871Y004308D02*
X037071Y004308D01*
X037071Y004316D02*
X036871Y004316D01*
X036871Y004325D02*
X037071Y004325D01*
X037071Y004333D02*
X036871Y004333D01*
X036871Y004342D02*
X037071Y004342D01*
X037071Y004350D02*
X036871Y004350D01*
X036871Y004359D02*
X037071Y004359D01*
X037071Y004367D02*
X036871Y004367D01*
X036871Y004376D02*
X037071Y004376D01*
X037071Y004384D02*
X036871Y004384D01*
X036871Y004393D02*
X037071Y004393D01*
X037071Y004402D02*
X036871Y004402D01*
X036871Y004410D02*
X037071Y004410D01*
X037071Y004419D02*
X036871Y004419D01*
X036871Y004427D02*
X037071Y004427D01*
X037071Y004436D02*
X036871Y004436D01*
X036871Y004444D02*
X037071Y004444D01*
X037071Y004453D02*
X036871Y004453D01*
X036871Y004461D02*
X037071Y004461D01*
X037071Y004470D02*
X036871Y004470D01*
X036871Y004478D02*
X037071Y004478D01*
X037071Y004487D02*
X036871Y004487D01*
X036871Y004496D02*
X037071Y004496D01*
X037071Y004504D02*
X036871Y004504D01*
X036871Y004513D02*
X037071Y004513D01*
X037071Y004521D02*
X036871Y004521D01*
X036871Y004530D02*
X037071Y004530D01*
X037071Y004538D02*
X036871Y004538D01*
X036871Y004547D02*
X037071Y004547D01*
X037071Y004555D02*
X036871Y004555D01*
X036871Y004564D02*
X037071Y004564D01*
X037071Y004572D02*
X036871Y004572D01*
X036871Y004581D02*
X037071Y004581D01*
X037071Y004590D02*
X036871Y004590D01*
X036871Y004598D02*
X037071Y004598D01*
X037071Y004607D02*
X036871Y004607D01*
X036871Y004615D02*
X037071Y004615D01*
X037071Y004624D02*
X036871Y004624D01*
X036871Y004632D02*
X037071Y004632D01*
X037071Y004641D02*
X036871Y004641D01*
X036871Y004649D02*
X037071Y004649D01*
X037071Y004658D02*
X036871Y004658D01*
X036871Y004666D02*
X037071Y004666D01*
X037071Y004675D02*
X036871Y004675D01*
X036871Y004684D02*
X037071Y004684D01*
X037071Y004692D02*
X036871Y004692D01*
X036871Y004701D02*
X037071Y004701D01*
X037071Y004709D02*
X036871Y004709D01*
X036871Y004718D02*
X037071Y004718D01*
X037071Y004726D02*
X036871Y004726D01*
X036871Y004735D02*
X037071Y004735D01*
X037071Y004743D02*
X036871Y004743D01*
X036871Y004752D02*
X037071Y004752D01*
X037071Y004760D02*
X036871Y004760D01*
X036871Y004769D02*
X037071Y004769D01*
X037071Y004777D02*
X036871Y004777D01*
X036871Y004786D02*
X037071Y004786D01*
X037071Y004795D02*
X036871Y004795D01*
X036871Y004803D02*
X037071Y004803D01*
X037071Y004812D02*
X036871Y004812D01*
X036871Y004820D02*
X037071Y004820D01*
X037071Y004829D02*
X036871Y004829D01*
X036871Y004837D02*
X037071Y004837D01*
X037071Y004846D02*
X036871Y004846D01*
X036871Y004854D02*
X037071Y004854D01*
X037071Y004863D02*
X036871Y004863D01*
X036871Y004871D02*
X037071Y004871D01*
X037071Y004880D02*
X036871Y004880D01*
X036871Y004889D02*
X037071Y004889D01*
X037071Y004897D02*
X036871Y004897D01*
X036871Y004906D02*
X037071Y004906D01*
X037071Y004914D02*
X036871Y004914D01*
X036871Y004923D02*
X037071Y004923D01*
X037071Y004931D02*
X036871Y004931D01*
X036871Y004940D02*
X037071Y004940D01*
X037071Y004948D02*
X036871Y004948D01*
X036871Y004957D02*
X037071Y004957D01*
X037071Y004965D02*
X036871Y004965D01*
X036871Y004974D02*
X037071Y004974D01*
X037071Y004983D02*
X036871Y004983D01*
X036871Y004991D02*
X037071Y004991D01*
X037071Y005000D02*
X036871Y005000D01*
X036871Y005008D02*
X037071Y005008D01*
X037071Y005017D02*
X036871Y005017D01*
X036871Y005025D02*
X037071Y005025D01*
X037071Y005034D02*
X036871Y005034D01*
X036871Y005042D02*
X037071Y005042D01*
X037071Y005051D02*
X036871Y005051D01*
X036871Y005059D02*
X037071Y005059D01*
X037071Y005068D02*
X036871Y005068D01*
X036871Y005076D02*
X037071Y005076D01*
X037071Y005085D02*
X036871Y005085D01*
X036871Y005094D02*
X037071Y005094D01*
X037071Y005102D02*
X036871Y005102D01*
X036871Y005111D02*
X037071Y005111D01*
X037071Y005119D02*
X036871Y005119D01*
X036871Y005128D02*
X037071Y005128D01*
X037071Y005136D02*
X036871Y005136D01*
X036871Y005145D02*
X037071Y005145D01*
X037071Y005153D02*
X036871Y005153D01*
X036871Y005162D02*
X037071Y005162D01*
X037071Y005170D02*
X036871Y005170D01*
X036871Y005179D02*
X037071Y005179D01*
X037071Y005188D02*
X036871Y005188D01*
X036871Y005196D02*
X037071Y005196D01*
X037071Y005205D02*
X036871Y005205D01*
X036871Y005213D02*
X037071Y005213D01*
X037071Y005222D02*
X036871Y005222D01*
X036871Y005230D02*
X037071Y005230D01*
X037071Y005239D02*
X036871Y005239D01*
X036871Y005247D02*
X037071Y005247D01*
X037071Y005256D02*
X036871Y005256D01*
X036871Y005264D02*
X037071Y005264D01*
X037071Y005273D02*
X036871Y005273D01*
X036871Y005282D02*
X037071Y005282D01*
X037071Y005290D02*
X036871Y005290D01*
X036871Y005299D02*
X037071Y005299D01*
X037071Y005307D02*
X036871Y005307D01*
X036871Y005316D02*
X037071Y005316D01*
X037071Y005324D02*
X036871Y005324D01*
X036871Y005333D02*
X037071Y005333D01*
X037071Y005341D02*
X036871Y005341D01*
X036871Y005350D02*
X037071Y005350D01*
X037071Y005358D02*
X036871Y005358D01*
X036871Y005367D02*
X037071Y005367D01*
X037071Y005376D02*
X036871Y005376D01*
X036871Y005384D02*
X037071Y005384D01*
X037071Y005393D02*
X036871Y005393D01*
X036871Y005401D02*
X037071Y005401D01*
X037071Y005410D02*
X036871Y005410D01*
X036871Y005418D02*
X037071Y005418D01*
X037071Y005427D02*
X036871Y005427D01*
X037171Y005429D02*
X037171Y005370D01*
X037222Y005271D01*
X037259Y005167D01*
X037282Y005060D01*
X037291Y004949D01*
X037291Y004909D01*
X037283Y004802D01*
X037262Y004697D01*
X037228Y004596D01*
X037181Y004499D01*
X037181Y004429D01*
X037311Y004429D01*
X037370Y004546D01*
X037414Y004670D01*
X037441Y004799D01*
X037451Y004929D01*
X037441Y005060D01*
X037414Y005189D01*
X037370Y005312D01*
X037311Y005429D01*
X037171Y005429D01*
X037171Y005427D02*
X037312Y005427D01*
X037317Y005418D02*
X037171Y005418D01*
X037171Y005410D02*
X037321Y005410D01*
X037325Y005401D02*
X037171Y005401D01*
X037171Y005393D02*
X037330Y005393D01*
X037334Y005384D02*
X037171Y005384D01*
X037171Y005376D02*
X037338Y005376D01*
X037343Y005367D02*
X037173Y005367D01*
X037177Y005358D02*
X037347Y005358D01*
X037351Y005350D02*
X037181Y005350D01*
X037186Y005341D02*
X037356Y005341D01*
X037360Y005333D02*
X037190Y005333D01*
X037194Y005324D02*
X037364Y005324D01*
X037369Y005316D02*
X037199Y005316D01*
X037203Y005307D02*
X037372Y005307D01*
X037375Y005299D02*
X037208Y005299D01*
X037212Y005290D02*
X037378Y005290D01*
X037381Y005282D02*
X037216Y005282D01*
X037221Y005273D02*
X037384Y005273D01*
X037387Y005264D02*
X037224Y005264D01*
X037227Y005256D02*
X037390Y005256D01*
X037393Y005247D02*
X037230Y005247D01*
X037233Y005239D02*
X037396Y005239D01*
X037399Y005230D02*
X037236Y005230D01*
X037239Y005222D02*
X037402Y005222D01*
X037405Y005213D02*
X037242Y005213D01*
X037246Y005205D02*
X037408Y005205D01*
X037411Y005196D02*
X037249Y005196D01*
X037252Y005188D02*
X037414Y005188D01*
X037416Y005179D02*
X037255Y005179D01*
X037258Y005170D02*
X037418Y005170D01*
X037420Y005162D02*
X037260Y005162D01*
X037262Y005153D02*
X037421Y005153D01*
X037423Y005145D02*
X037264Y005145D01*
X037266Y005136D02*
X037425Y005136D01*
X037427Y005128D02*
X037267Y005128D01*
X037269Y005119D02*
X037429Y005119D01*
X037430Y005111D02*
X037271Y005111D01*
X037273Y005102D02*
X037432Y005102D01*
X037434Y005094D02*
X037275Y005094D01*
X037277Y005085D02*
X037436Y005085D01*
X037438Y005076D02*
X037278Y005076D01*
X037280Y005068D02*
X037439Y005068D01*
X037441Y005059D02*
X037282Y005059D01*
X037283Y005051D02*
X037442Y005051D01*
X037442Y005042D02*
X037283Y005042D01*
X037284Y005034D02*
X037443Y005034D01*
X037444Y005025D02*
X037285Y005025D01*
X037285Y005017D02*
X037444Y005017D01*
X037445Y005008D02*
X037286Y005008D01*
X037287Y005000D02*
X037446Y005000D01*
X037446Y004991D02*
X037288Y004991D01*
X037288Y004983D02*
X037447Y004983D01*
X037448Y004974D02*
X037289Y004974D01*
X037290Y004965D02*
X037448Y004965D01*
X037449Y004957D02*
X037290Y004957D01*
X037291Y004948D02*
X037450Y004948D01*
X037450Y004940D02*
X037291Y004940D01*
X037291Y004931D02*
X037451Y004931D01*
X037451Y004923D02*
X037291Y004923D01*
X037291Y004914D02*
X037450Y004914D01*
X037449Y004906D02*
X037291Y004906D01*
X037290Y004897D02*
X037449Y004897D01*
X037448Y004889D02*
X037289Y004889D01*
X037289Y004880D02*
X037447Y004880D01*
X037447Y004871D02*
X037288Y004871D01*
X037288Y004863D02*
X037446Y004863D01*
X037445Y004854D02*
X037287Y004854D01*
X037286Y004846D02*
X037445Y004846D01*
X037444Y004837D02*
X037286Y004837D01*
X037285Y004829D02*
X037443Y004829D01*
X037443Y004820D02*
X037285Y004820D01*
X037284Y004812D02*
X037442Y004812D01*
X037441Y004803D02*
X037283Y004803D01*
X037282Y004795D02*
X037440Y004795D01*
X037438Y004786D02*
X037280Y004786D01*
X037278Y004777D02*
X037437Y004777D01*
X037435Y004769D02*
X037277Y004769D01*
X037275Y004760D02*
X037433Y004760D01*
X037431Y004752D02*
X037273Y004752D01*
X037271Y004743D02*
X037429Y004743D01*
X037428Y004735D02*
X037270Y004735D01*
X037268Y004726D02*
X037426Y004726D01*
X037424Y004718D02*
X037266Y004718D01*
X037265Y004709D02*
X037422Y004709D01*
X037420Y004701D02*
X037263Y004701D01*
X037260Y004692D02*
X037419Y004692D01*
X037417Y004684D02*
X037258Y004684D01*
X037255Y004675D02*
X037415Y004675D01*
X037413Y004666D02*
X037252Y004666D01*
X037249Y004658D02*
X037410Y004658D01*
X037407Y004649D02*
X037246Y004649D01*
X037243Y004641D02*
X037404Y004641D01*
X037401Y004632D02*
X037240Y004632D01*
X037237Y004624D02*
X037398Y004624D01*
X037395Y004615D02*
X037234Y004615D01*
X037232Y004607D02*
X037392Y004607D01*
X037389Y004598D02*
X037229Y004598D01*
X037225Y004590D02*
X037386Y004590D01*
X037383Y004581D02*
X037221Y004581D01*
X037216Y004572D02*
X037380Y004572D01*
X037377Y004564D02*
X037212Y004564D01*
X037208Y004555D02*
X037374Y004555D01*
X037371Y004547D02*
X037204Y004547D01*
X037200Y004538D02*
X037366Y004538D01*
X037362Y004530D02*
X037196Y004530D01*
X037192Y004521D02*
X037358Y004521D01*
X037353Y004513D02*
X037187Y004513D01*
X037183Y004504D02*
X037349Y004504D01*
X037345Y004496D02*
X037181Y004496D01*
X037181Y004487D02*
X037340Y004487D01*
X037336Y004478D02*
X037181Y004478D01*
X037181Y004470D02*
X037332Y004470D01*
X037327Y004461D02*
X037181Y004461D01*
X037181Y004453D02*
X037323Y004453D01*
X037319Y004444D02*
X037181Y004444D01*
X037181Y004436D02*
X037314Y004436D01*
X037571Y004429D02*
X037585Y004687D01*
X037627Y004941D01*
X037696Y005190D01*
X037791Y005429D01*
X038011Y005429D01*
X037915Y005215D01*
X037843Y004992D01*
X037795Y004763D01*
X037771Y004529D01*
X037971Y004529D01*
X037971Y004329D01*
X037771Y004329D01*
X037771Y003429D01*
X037571Y003429D01*
X037571Y004429D01*
X037571Y004427D02*
X037971Y004427D01*
X037971Y004419D02*
X037571Y004419D01*
X037571Y004410D02*
X037971Y004410D01*
X037971Y004402D02*
X037571Y004402D01*
X037571Y004393D02*
X037971Y004393D01*
X037971Y004384D02*
X037571Y004384D01*
X037571Y004376D02*
X037971Y004376D01*
X037971Y004367D02*
X037571Y004367D01*
X037571Y004359D02*
X037971Y004359D01*
X037971Y004350D02*
X037571Y004350D01*
X037571Y004342D02*
X037971Y004342D01*
X037971Y004333D02*
X037571Y004333D01*
X037571Y004325D02*
X037771Y004325D01*
X037771Y004316D02*
X037571Y004316D01*
X037571Y004308D02*
X037771Y004308D01*
X037771Y004299D02*
X037571Y004299D01*
X037571Y004291D02*
X037771Y004291D01*
X037771Y004282D02*
X037571Y004282D01*
X037571Y004273D02*
X037771Y004273D01*
X037771Y004265D02*
X037571Y004265D01*
X037571Y004256D02*
X037771Y004256D01*
X037771Y004248D02*
X037571Y004248D01*
X037571Y004239D02*
X037771Y004239D01*
X037771Y004231D02*
X037571Y004231D01*
X037571Y004222D02*
X037771Y004222D01*
X037771Y004214D02*
X037571Y004214D01*
X037571Y004205D02*
X037771Y004205D01*
X037771Y004197D02*
X037571Y004197D01*
X037571Y004188D02*
X037771Y004188D01*
X037771Y004179D02*
X037571Y004179D01*
X037571Y004171D02*
X037771Y004171D01*
X037771Y004162D02*
X037571Y004162D01*
X037571Y004154D02*
X037771Y004154D01*
X037771Y004145D02*
X037571Y004145D01*
X037571Y004137D02*
X037771Y004137D01*
X037771Y004128D02*
X037571Y004128D01*
X037571Y004120D02*
X037771Y004120D01*
X037771Y004111D02*
X037571Y004111D01*
X037571Y004103D02*
X037771Y004103D01*
X037771Y004094D02*
X037571Y004094D01*
X037571Y004085D02*
X037771Y004085D01*
X037771Y004077D02*
X037571Y004077D01*
X037571Y004068D02*
X037771Y004068D01*
X037771Y004060D02*
X037571Y004060D01*
X037571Y004051D02*
X037771Y004051D01*
X037771Y004043D02*
X037571Y004043D01*
X037571Y004034D02*
X037771Y004034D01*
X037771Y004026D02*
X037571Y004026D01*
X037571Y004017D02*
X037771Y004017D01*
X037771Y004009D02*
X037571Y004009D01*
X037571Y004000D02*
X037771Y004000D01*
X037771Y003991D02*
X037571Y003991D01*
X037571Y003983D02*
X037771Y003983D01*
X037771Y003974D02*
X037571Y003974D01*
X037571Y003966D02*
X037771Y003966D01*
X037771Y003957D02*
X037571Y003957D01*
X037571Y003949D02*
X037771Y003949D01*
X037771Y003940D02*
X037571Y003940D01*
X037571Y003932D02*
X037771Y003932D01*
X037771Y003923D02*
X037571Y003923D01*
X037571Y003915D02*
X037771Y003915D01*
X037771Y003906D02*
X037571Y003906D01*
X037571Y003898D02*
X037771Y003898D01*
X037771Y003889D02*
X037571Y003889D01*
X037571Y003880D02*
X037771Y003880D01*
X037771Y003872D02*
X037571Y003872D01*
X037571Y003863D02*
X037771Y003863D01*
X037771Y003855D02*
X037571Y003855D01*
X037571Y003846D02*
X037771Y003846D01*
X037771Y003838D02*
X037571Y003838D01*
X037571Y003829D02*
X037771Y003829D01*
X037771Y003821D02*
X037571Y003821D01*
X037571Y003812D02*
X037771Y003812D01*
X037771Y003804D02*
X037571Y003804D01*
X037571Y003795D02*
X037771Y003795D01*
X037771Y003786D02*
X037571Y003786D01*
X037571Y003778D02*
X037771Y003778D01*
X037771Y003769D02*
X037571Y003769D01*
X037571Y003761D02*
X037771Y003761D01*
X037771Y003752D02*
X037571Y003752D01*
X037571Y003744D02*
X037771Y003744D01*
X037771Y003735D02*
X037571Y003735D01*
X037571Y003727D02*
X037771Y003727D01*
X037771Y003718D02*
X037571Y003718D01*
X037571Y003710D02*
X037771Y003710D01*
X037771Y003701D02*
X037571Y003701D01*
X037571Y003692D02*
X037771Y003692D01*
X037771Y003684D02*
X037571Y003684D01*
X037571Y003675D02*
X037771Y003675D01*
X037771Y003667D02*
X037571Y003667D01*
X037571Y003658D02*
X037771Y003658D01*
X037771Y003650D02*
X037571Y003650D01*
X037571Y003641D02*
X037771Y003641D01*
X037771Y003633D02*
X037571Y003633D01*
X037571Y003624D02*
X037771Y003624D01*
X037771Y003616D02*
X037571Y003616D01*
X037571Y003607D02*
X037771Y003607D01*
X037771Y003599D02*
X037571Y003599D01*
X037571Y003590D02*
X037771Y003590D01*
X037771Y003581D02*
X037571Y003581D01*
X037571Y003573D02*
X037771Y003573D01*
X037771Y003564D02*
X037571Y003564D01*
X037571Y003556D02*
X037771Y003556D01*
X037771Y003547D02*
X037571Y003547D01*
X037571Y003539D02*
X037771Y003539D01*
X037771Y003530D02*
X037571Y003530D01*
X037571Y003522D02*
X037771Y003522D01*
X037771Y003513D02*
X037571Y003513D01*
X037571Y003505D02*
X037771Y003505D01*
X037771Y003496D02*
X037571Y003496D01*
X037571Y003487D02*
X037771Y003487D01*
X037771Y003479D02*
X037571Y003479D01*
X037571Y003470D02*
X037771Y003470D01*
X037771Y003462D02*
X037571Y003462D01*
X037571Y003453D02*
X037771Y003453D01*
X037771Y003445D02*
X037571Y003445D01*
X037571Y003436D02*
X037771Y003436D01*
X038303Y003650D02*
X038513Y003650D01*
X038515Y003644D02*
X038611Y003429D01*
X038391Y003429D01*
X038297Y003664D01*
X038229Y003908D01*
X038187Y004157D01*
X038171Y004409D01*
X038171Y005429D01*
X038371Y005429D01*
X038371Y004329D01*
X038395Y004096D01*
X038443Y003867D01*
X038515Y003644D01*
X038516Y003641D02*
X038307Y003641D01*
X038310Y003633D02*
X038520Y003633D01*
X038524Y003624D02*
X038313Y003624D01*
X038317Y003616D02*
X038528Y003616D01*
X038532Y003607D02*
X038320Y003607D01*
X038324Y003599D02*
X038535Y003599D01*
X038539Y003590D02*
X038327Y003590D01*
X038330Y003581D02*
X038543Y003581D01*
X038547Y003573D02*
X038334Y003573D01*
X038337Y003564D02*
X038551Y003564D01*
X038554Y003556D02*
X038341Y003556D01*
X038344Y003547D02*
X038558Y003547D01*
X038562Y003539D02*
X038347Y003539D01*
X038351Y003530D02*
X038566Y003530D01*
X038570Y003522D02*
X038354Y003522D01*
X038358Y003513D02*
X038574Y003513D01*
X038577Y003505D02*
X038361Y003505D01*
X038364Y003496D02*
X038581Y003496D01*
X038585Y003487D02*
X038368Y003487D01*
X038371Y003479D02*
X038589Y003479D01*
X038593Y003470D02*
X038375Y003470D01*
X038378Y003462D02*
X038596Y003462D01*
X038600Y003453D02*
X038381Y003453D01*
X038385Y003445D02*
X038604Y003445D01*
X038608Y003436D02*
X038388Y003436D01*
X038300Y003658D02*
X038510Y003658D01*
X038508Y003667D02*
X038297Y003667D01*
X038294Y003675D02*
X038505Y003675D01*
X038502Y003684D02*
X038292Y003684D01*
X038290Y003692D02*
X038499Y003692D01*
X038497Y003701D02*
X038287Y003701D01*
X038285Y003710D02*
X038494Y003710D01*
X038491Y003718D02*
X038282Y003718D01*
X038280Y003727D02*
X038488Y003727D01*
X038486Y003735D02*
X038278Y003735D01*
X038275Y003744D02*
X038483Y003744D01*
X038480Y003752D02*
X038273Y003752D01*
X038270Y003761D02*
X038477Y003761D01*
X038474Y003769D02*
X038268Y003769D01*
X038266Y003778D02*
X038472Y003778D01*
X038469Y003786D02*
X038263Y003786D01*
X038261Y003795D02*
X038466Y003795D01*
X038463Y003804D02*
X038258Y003804D01*
X038256Y003812D02*
X038461Y003812D01*
X038458Y003821D02*
X038254Y003821D01*
X038251Y003829D02*
X038455Y003829D01*
X038452Y003838D02*
X038249Y003838D01*
X038246Y003846D02*
X038449Y003846D01*
X038447Y003855D02*
X038244Y003855D01*
X038242Y003863D02*
X038444Y003863D01*
X038442Y003872D02*
X038239Y003872D01*
X038237Y003880D02*
X038440Y003880D01*
X038438Y003889D02*
X038234Y003889D01*
X038232Y003898D02*
X038436Y003898D01*
X038435Y003906D02*
X038230Y003906D01*
X038228Y003915D02*
X038433Y003915D01*
X038431Y003923D02*
X038227Y003923D01*
X038225Y003932D02*
X038429Y003932D01*
X038427Y003940D02*
X038224Y003940D01*
X038222Y003949D02*
X038426Y003949D01*
X038424Y003957D02*
X038221Y003957D01*
X038219Y003966D02*
X038422Y003966D01*
X038420Y003974D02*
X038218Y003974D01*
X038216Y003983D02*
X038418Y003983D01*
X038417Y003991D02*
X038215Y003991D01*
X038214Y004000D02*
X038415Y004000D01*
X038413Y004009D02*
X038212Y004009D01*
X038211Y004017D02*
X038411Y004017D01*
X038409Y004026D02*
X038209Y004026D01*
X038208Y004034D02*
X038408Y004034D01*
X038406Y004043D02*
X038206Y004043D01*
X038205Y004051D02*
X038404Y004051D01*
X038402Y004060D02*
X038203Y004060D01*
X038202Y004068D02*
X038400Y004068D01*
X038399Y004077D02*
X038201Y004077D01*
X038199Y004085D02*
X038397Y004085D01*
X038395Y004094D02*
X038198Y004094D01*
X038196Y004103D02*
X038394Y004103D01*
X038393Y004111D02*
X038195Y004111D01*
X038193Y004120D02*
X038392Y004120D01*
X038391Y004128D02*
X038192Y004128D01*
X038190Y004137D02*
X038391Y004137D01*
X038390Y004145D02*
X038189Y004145D01*
X038188Y004154D02*
X038389Y004154D01*
X038388Y004162D02*
X038187Y004162D01*
X038186Y004171D02*
X038387Y004171D01*
X038386Y004179D02*
X038186Y004179D01*
X038185Y004188D02*
X038385Y004188D01*
X038385Y004197D02*
X038185Y004197D01*
X038184Y004205D02*
X038384Y004205D01*
X038383Y004214D02*
X038183Y004214D01*
X038183Y004222D02*
X038382Y004222D01*
X038381Y004231D02*
X038182Y004231D01*
X038182Y004239D02*
X038380Y004239D01*
X038379Y004248D02*
X038181Y004248D01*
X038181Y004256D02*
X038379Y004256D01*
X038378Y004265D02*
X038180Y004265D01*
X038180Y004273D02*
X038377Y004273D01*
X038376Y004282D02*
X038179Y004282D01*
X038179Y004291D02*
X038375Y004291D01*
X038374Y004299D02*
X038178Y004299D01*
X038178Y004308D02*
X038373Y004308D01*
X038372Y004316D02*
X038177Y004316D01*
X038176Y004325D02*
X038372Y004325D01*
X038371Y004333D02*
X038176Y004333D01*
X038175Y004342D02*
X038371Y004342D01*
X038371Y004350D02*
X038175Y004350D01*
X038174Y004359D02*
X038371Y004359D01*
X038371Y004367D02*
X038174Y004367D01*
X038173Y004376D02*
X038371Y004376D01*
X038371Y004384D02*
X038173Y004384D01*
X038172Y004393D02*
X038371Y004393D01*
X038371Y004402D02*
X038172Y004402D01*
X038171Y004410D02*
X038371Y004410D01*
X038371Y004419D02*
X038171Y004419D01*
X038171Y004427D02*
X038371Y004427D01*
X038371Y004436D02*
X038171Y004436D01*
X038171Y004444D02*
X038371Y004444D01*
X038371Y004453D02*
X038171Y004453D01*
X038171Y004461D02*
X038371Y004461D01*
X038371Y004470D02*
X038171Y004470D01*
X038171Y004478D02*
X038371Y004478D01*
X038371Y004487D02*
X038171Y004487D01*
X038171Y004496D02*
X038371Y004496D01*
X038371Y004504D02*
X038171Y004504D01*
X038171Y004513D02*
X038371Y004513D01*
X038371Y004521D02*
X038171Y004521D01*
X038171Y004530D02*
X038371Y004530D01*
X038371Y004538D02*
X038171Y004538D01*
X038171Y004547D02*
X038371Y004547D01*
X038371Y004555D02*
X038171Y004555D01*
X038171Y004564D02*
X038371Y004564D01*
X038371Y004572D02*
X038171Y004572D01*
X038171Y004581D02*
X038371Y004581D01*
X038371Y004590D02*
X038171Y004590D01*
X038171Y004598D02*
X038371Y004598D01*
X038371Y004607D02*
X038171Y004607D01*
X038171Y004615D02*
X038371Y004615D01*
X038371Y004624D02*
X038171Y004624D01*
X038171Y004632D02*
X038371Y004632D01*
X038371Y004641D02*
X038171Y004641D01*
X038171Y004649D02*
X038371Y004649D01*
X038371Y004658D02*
X038171Y004658D01*
X038171Y004666D02*
X038371Y004666D01*
X038371Y004675D02*
X038171Y004675D01*
X038171Y004684D02*
X038371Y004684D01*
X038371Y004692D02*
X038171Y004692D01*
X038171Y004701D02*
X038371Y004701D01*
X038371Y004709D02*
X038171Y004709D01*
X038171Y004718D02*
X038371Y004718D01*
X038371Y004726D02*
X038171Y004726D01*
X038171Y004735D02*
X038371Y004735D01*
X038371Y004743D02*
X038171Y004743D01*
X038171Y004752D02*
X038371Y004752D01*
X038371Y004760D02*
X038171Y004760D01*
X038171Y004769D02*
X038371Y004769D01*
X038371Y004777D02*
X038171Y004777D01*
X038171Y004786D02*
X038371Y004786D01*
X038371Y004795D02*
X038171Y004795D01*
X038171Y004803D02*
X038371Y004803D01*
X038371Y004812D02*
X038171Y004812D01*
X038171Y004820D02*
X038371Y004820D01*
X038371Y004829D02*
X038171Y004829D01*
X038171Y004837D02*
X038371Y004837D01*
X038371Y004846D02*
X038171Y004846D01*
X038171Y004854D02*
X038371Y004854D01*
X038371Y004863D02*
X038171Y004863D01*
X038171Y004871D02*
X038371Y004871D01*
X038371Y004880D02*
X038171Y004880D01*
X038171Y004889D02*
X038371Y004889D01*
X038371Y004897D02*
X038171Y004897D01*
X038171Y004906D02*
X038371Y004906D01*
X038371Y004914D02*
X038171Y004914D01*
X038171Y004923D02*
X038371Y004923D01*
X038371Y004931D02*
X038171Y004931D01*
X038171Y004940D02*
X038371Y004940D01*
X038371Y004948D02*
X038171Y004948D01*
X038171Y004957D02*
X038371Y004957D01*
X038371Y004965D02*
X038171Y004965D01*
X038171Y004974D02*
X038371Y004974D01*
X038371Y004983D02*
X038171Y004983D01*
X038171Y004991D02*
X038371Y004991D01*
X038371Y005000D02*
X038171Y005000D01*
X038171Y005008D02*
X038371Y005008D01*
X038371Y005017D02*
X038171Y005017D01*
X038171Y005025D02*
X038371Y005025D01*
X038371Y005034D02*
X038171Y005034D01*
X038171Y005042D02*
X038371Y005042D01*
X038371Y005051D02*
X038171Y005051D01*
X038171Y005059D02*
X038371Y005059D01*
X038371Y005068D02*
X038171Y005068D01*
X038171Y005076D02*
X038371Y005076D01*
X038371Y005085D02*
X038171Y005085D01*
X038171Y005094D02*
X038371Y005094D01*
X038371Y005102D02*
X038171Y005102D01*
X038171Y005111D02*
X038371Y005111D01*
X038371Y005119D02*
X038171Y005119D01*
X038171Y005128D02*
X038371Y005128D01*
X038371Y005136D02*
X038171Y005136D01*
X038171Y005145D02*
X038371Y005145D01*
X038371Y005153D02*
X038171Y005153D01*
X038171Y005162D02*
X038371Y005162D01*
X038371Y005170D02*
X038171Y005170D01*
X038171Y005179D02*
X038371Y005179D01*
X038371Y005188D02*
X038171Y005188D01*
X038171Y005196D02*
X038371Y005196D01*
X038371Y005205D02*
X038171Y005205D01*
X038171Y005213D02*
X038371Y005213D01*
X038371Y005222D02*
X038171Y005222D01*
X038171Y005230D02*
X038371Y005230D01*
X038371Y005239D02*
X038171Y005239D01*
X038171Y005247D02*
X038371Y005247D01*
X038371Y005256D02*
X038171Y005256D01*
X038171Y005264D02*
X038371Y005264D01*
X038371Y005273D02*
X038171Y005273D01*
X038171Y005282D02*
X038371Y005282D01*
X038371Y005290D02*
X038171Y005290D01*
X038171Y005299D02*
X038371Y005299D01*
X038371Y005307D02*
X038171Y005307D01*
X038171Y005316D02*
X038371Y005316D01*
X038371Y005324D02*
X038171Y005324D01*
X038171Y005333D02*
X038371Y005333D01*
X038371Y005341D02*
X038171Y005341D01*
X038171Y005350D02*
X038371Y005350D01*
X038371Y005358D02*
X038171Y005358D01*
X038171Y005367D02*
X038371Y005367D01*
X038371Y005376D02*
X038171Y005376D01*
X038171Y005384D02*
X038371Y005384D01*
X038371Y005393D02*
X038171Y005393D01*
X038171Y005401D02*
X038371Y005401D01*
X038371Y005410D02*
X038171Y005410D01*
X038171Y005418D02*
X038371Y005418D01*
X038371Y005427D02*
X038171Y005427D01*
X038010Y005427D02*
X037790Y005427D01*
X037786Y005418D02*
X038006Y005418D01*
X038002Y005410D02*
X037783Y005410D01*
X037780Y005401D02*
X037998Y005401D01*
X037995Y005393D02*
X037776Y005393D01*
X037773Y005384D02*
X037991Y005384D01*
X037987Y005376D02*
X037769Y005376D01*
X037766Y005367D02*
X037983Y005367D01*
X037979Y005358D02*
X037763Y005358D01*
X037759Y005350D02*
X037975Y005350D01*
X037972Y005341D02*
X037756Y005341D01*
X037752Y005333D02*
X037968Y005333D01*
X037964Y005324D02*
X037749Y005324D01*
X037746Y005316D02*
X037960Y005316D01*
X037956Y005307D02*
X037742Y005307D01*
X037739Y005299D02*
X037953Y005299D01*
X037949Y005290D02*
X037735Y005290D01*
X037732Y005282D02*
X037945Y005282D01*
X037941Y005273D02*
X037729Y005273D01*
X037725Y005264D02*
X037937Y005264D01*
X037933Y005256D02*
X037722Y005256D01*
X037718Y005247D02*
X037930Y005247D01*
X037926Y005239D02*
X037715Y005239D01*
X037712Y005230D02*
X037922Y005230D01*
X037918Y005222D02*
X037708Y005222D01*
X037705Y005213D02*
X037915Y005213D01*
X037912Y005205D02*
X037701Y005205D01*
X037698Y005196D02*
X037909Y005196D01*
X037906Y005188D02*
X037695Y005188D01*
X037692Y005179D02*
X037904Y005179D01*
X037901Y005170D02*
X037690Y005170D01*
X037688Y005162D02*
X037898Y005162D01*
X037895Y005153D02*
X037685Y005153D01*
X037683Y005145D02*
X037892Y005145D01*
X037890Y005136D02*
X037681Y005136D01*
X037678Y005128D02*
X037887Y005128D01*
X037884Y005119D02*
X037676Y005119D01*
X037674Y005111D02*
X037881Y005111D01*
X037879Y005102D02*
X037671Y005102D01*
X037669Y005094D02*
X037876Y005094D01*
X037873Y005085D02*
X037666Y005085D01*
X037664Y005076D02*
X037870Y005076D01*
X037867Y005068D02*
X037662Y005068D01*
X037659Y005059D02*
X037865Y005059D01*
X037862Y005051D02*
X037657Y005051D01*
X037655Y005042D02*
X037859Y005042D01*
X037856Y005034D02*
X037652Y005034D01*
X037650Y005025D02*
X037854Y005025D01*
X037851Y005017D02*
X037647Y005017D01*
X037645Y005008D02*
X037848Y005008D01*
X037845Y005000D02*
X037643Y005000D01*
X037640Y004991D02*
X037843Y004991D01*
X037841Y004983D02*
X037638Y004983D01*
X037636Y004974D02*
X037839Y004974D01*
X037837Y004965D02*
X037633Y004965D01*
X037631Y004957D02*
X037836Y004957D01*
X037834Y004948D02*
X037629Y004948D01*
X037626Y004940D02*
X037832Y004940D01*
X037830Y004931D02*
X037625Y004931D01*
X037624Y004923D02*
X037828Y004923D01*
X037827Y004914D02*
X037622Y004914D01*
X037621Y004906D02*
X037825Y004906D01*
X037823Y004897D02*
X037619Y004897D01*
X037618Y004889D02*
X037821Y004889D01*
X037819Y004880D02*
X037617Y004880D01*
X037615Y004871D02*
X037818Y004871D01*
X037816Y004863D02*
X037614Y004863D01*
X037612Y004854D02*
X037814Y004854D01*
X037812Y004846D02*
X037611Y004846D01*
X037610Y004837D02*
X037810Y004837D01*
X037809Y004829D02*
X037608Y004829D01*
X037607Y004820D02*
X037807Y004820D01*
X037805Y004812D02*
X037605Y004812D01*
X037604Y004803D02*
X037803Y004803D01*
X037801Y004795D02*
X037603Y004795D01*
X037601Y004786D02*
X037800Y004786D01*
X037798Y004777D02*
X037600Y004777D01*
X037598Y004769D02*
X037796Y004769D01*
X037794Y004760D02*
X037597Y004760D01*
X037596Y004752D02*
X037794Y004752D01*
X037793Y004743D02*
X037594Y004743D01*
X037593Y004735D02*
X037792Y004735D01*
X037791Y004726D02*
X037591Y004726D01*
X037590Y004718D02*
X037790Y004718D01*
X037789Y004709D02*
X037589Y004709D01*
X037587Y004701D02*
X037788Y004701D01*
X037788Y004692D02*
X037586Y004692D01*
X037585Y004684D02*
X037787Y004684D01*
X037786Y004675D02*
X037584Y004675D01*
X037584Y004666D02*
X037785Y004666D01*
X037784Y004658D02*
X037583Y004658D01*
X037583Y004649D02*
X037783Y004649D01*
X037782Y004641D02*
X037583Y004641D01*
X037582Y004632D02*
X037782Y004632D01*
X037781Y004624D02*
X037582Y004624D01*
X037581Y004615D02*
X037780Y004615D01*
X037779Y004607D02*
X037581Y004607D01*
X037580Y004598D02*
X037778Y004598D01*
X037777Y004590D02*
X037580Y004590D01*
X037579Y004581D02*
X037776Y004581D01*
X037776Y004572D02*
X037579Y004572D01*
X037578Y004564D02*
X037775Y004564D01*
X037774Y004555D02*
X037578Y004555D01*
X037577Y004547D02*
X037773Y004547D01*
X037772Y004538D02*
X037577Y004538D01*
X037577Y004530D02*
X037771Y004530D01*
X037576Y004521D02*
X037971Y004521D01*
X037971Y004513D02*
X037576Y004513D01*
X037575Y004504D02*
X037971Y004504D01*
X037971Y004496D02*
X037575Y004496D01*
X037574Y004487D02*
X037971Y004487D01*
X037971Y004478D02*
X037574Y004478D01*
X037573Y004470D02*
X037971Y004470D01*
X037971Y004461D02*
X037573Y004461D01*
X037572Y004453D02*
X037971Y004453D01*
X037971Y004444D02*
X037572Y004444D01*
X037571Y004436D02*
X037971Y004436D01*
X038611Y004436D02*
X039431Y004436D01*
X039431Y004444D02*
X038611Y004444D01*
X038611Y004453D02*
X039431Y004453D01*
X039431Y004461D02*
X038611Y004461D01*
X038611Y004470D02*
X039431Y004470D01*
X039431Y004478D02*
X038611Y004478D01*
X038611Y004487D02*
X039431Y004487D01*
X039431Y004496D02*
X038611Y004496D01*
X038611Y004504D02*
X039431Y004504D01*
X039431Y004513D02*
X038611Y004513D01*
X038611Y004521D02*
X039431Y004521D01*
X039431Y004530D02*
X038611Y004530D01*
X038611Y004538D02*
X039431Y004538D01*
X039431Y004547D02*
X038611Y004547D01*
X038611Y004555D02*
X039431Y004555D01*
X039431Y004564D02*
X038611Y004564D01*
X038611Y004572D02*
X039431Y004572D01*
X039431Y004581D02*
X038611Y004581D01*
X038611Y004590D02*
X039431Y004590D01*
X039431Y004598D02*
X038611Y004598D01*
X038611Y004607D02*
X039431Y004607D01*
X039431Y004615D02*
X038611Y004615D01*
X038611Y004624D02*
X039431Y004624D01*
X039431Y004632D02*
X038611Y004632D01*
X038611Y004641D02*
X039431Y004641D01*
X039431Y004649D02*
X038611Y004649D01*
X038611Y004658D02*
X039431Y004658D01*
X039431Y004666D02*
X038611Y004666D01*
X038611Y004675D02*
X039431Y004675D01*
X039431Y004684D02*
X038611Y004684D01*
X038611Y004692D02*
X039431Y004692D01*
X039431Y004701D02*
X038611Y004701D01*
X038611Y004709D02*
X039431Y004709D01*
X039431Y004718D02*
X038611Y004718D01*
X038611Y004726D02*
X039431Y004726D01*
X039431Y004735D02*
X038611Y004735D01*
X038611Y004743D02*
X039431Y004743D01*
X039431Y004752D02*
X038611Y004752D01*
X038611Y004760D02*
X039431Y004760D01*
X039431Y004769D02*
X038611Y004769D01*
X038611Y004777D02*
X039431Y004777D01*
X039431Y004786D02*
X038611Y004786D01*
X038611Y004795D02*
X039431Y004795D01*
X039431Y004803D02*
X038611Y004803D01*
X038611Y004812D02*
X039431Y004812D01*
X039431Y004820D02*
X038611Y004820D01*
X038611Y004829D02*
X039431Y004829D01*
X039431Y004837D02*
X038611Y004837D01*
X038611Y004846D02*
X039431Y004846D01*
X039431Y004854D02*
X038611Y004854D01*
X038611Y004863D02*
X039431Y004863D01*
X039431Y004871D02*
X038611Y004871D01*
X038611Y004880D02*
X039431Y004880D01*
X039431Y004889D02*
X038611Y004889D01*
X038611Y004897D02*
X039431Y004897D01*
X039431Y004906D02*
X038611Y004906D01*
X038611Y004914D02*
X039431Y004914D01*
X039431Y004923D02*
X038611Y004923D01*
X038611Y004931D02*
X039431Y004931D01*
X039431Y004940D02*
X038611Y004940D01*
X038611Y004948D02*
X039431Y004948D01*
X039431Y004957D02*
X038611Y004957D01*
X038611Y004965D02*
X039431Y004965D01*
X039431Y004974D02*
X038611Y004974D01*
X038611Y004983D02*
X039431Y004983D01*
X039431Y004991D02*
X038611Y004991D01*
X038611Y005000D02*
X039431Y005000D01*
X039431Y005008D02*
X038611Y005008D01*
X038611Y005017D02*
X039431Y005017D01*
X039431Y005025D02*
X038611Y005025D01*
X038611Y005034D02*
X039431Y005034D01*
X039431Y005042D02*
X038611Y005042D01*
X038611Y005051D02*
X039431Y005051D01*
X039431Y005059D02*
X038611Y005059D01*
X038611Y005068D02*
X039431Y005068D01*
X039431Y005076D02*
X038611Y005076D01*
X038611Y005085D02*
X039431Y005085D01*
X039431Y005094D02*
X038611Y005094D01*
X038611Y005102D02*
X039431Y005102D01*
X039431Y005111D02*
X038611Y005111D01*
X038611Y005119D02*
X039431Y005119D01*
X039431Y005128D02*
X038611Y005128D01*
X038611Y005136D02*
X039431Y005136D01*
X039431Y005145D02*
X038611Y005145D01*
X038611Y005153D02*
X039431Y005153D01*
X039431Y005162D02*
X038611Y005162D01*
X038611Y005170D02*
X039431Y005170D01*
X039431Y005179D02*
X038611Y005179D01*
X038611Y005188D02*
X039431Y005188D01*
X039431Y005196D02*
X038611Y005196D01*
X038611Y005205D02*
X039431Y005205D01*
X039431Y005213D02*
X038611Y005213D01*
X038611Y005222D02*
X039431Y005222D01*
X039431Y005230D02*
X038611Y005230D01*
X038611Y005239D02*
X039431Y005239D01*
X039431Y005247D02*
X038611Y005247D01*
X038611Y005256D02*
X039431Y005256D01*
X039431Y005264D02*
X038611Y005264D01*
X038611Y005273D02*
X039431Y005273D01*
X039431Y005282D02*
X038611Y005282D01*
X038611Y005290D02*
X039431Y005290D01*
X039431Y005299D02*
X038611Y005299D01*
X038611Y005307D02*
X039431Y005307D01*
X039431Y005316D02*
X038611Y005316D01*
X038611Y005324D02*
X039431Y005324D01*
X039431Y005333D02*
X038611Y005333D01*
X038611Y005341D02*
X039431Y005341D01*
X039431Y005350D02*
X038611Y005350D01*
X038611Y005358D02*
X039431Y005358D01*
X039431Y005367D02*
X038611Y005367D01*
X038611Y005376D02*
X039431Y005376D01*
X039431Y005384D02*
X038611Y005384D01*
X038611Y005393D02*
X039431Y005393D01*
X039431Y005401D02*
X038611Y005401D01*
X038611Y005410D02*
X039431Y005410D01*
X039431Y005418D02*
X038611Y005418D01*
X038611Y005427D02*
X039431Y005427D01*
X039431Y005429D02*
X039431Y003429D01*
X038851Y003429D01*
X038749Y003662D01*
X038674Y003905D01*
X038628Y004156D01*
X038611Y004409D01*
X038611Y005429D01*
X039431Y005429D01*
X039431Y004427D02*
X038611Y004427D01*
X038611Y004419D02*
X039431Y004419D01*
X039431Y004410D02*
X038611Y004410D01*
X038611Y004402D02*
X039431Y004402D01*
X039431Y004393D02*
X038612Y004393D01*
X038613Y004384D02*
X039431Y004384D01*
X039431Y004376D02*
X038613Y004376D01*
X038614Y004367D02*
X039431Y004367D01*
X039431Y004359D02*
X038614Y004359D01*
X038615Y004350D02*
X039431Y004350D01*
X039431Y004342D02*
X038616Y004342D01*
X038616Y004333D02*
X039431Y004333D01*
X039431Y004325D02*
X038617Y004325D01*
X038617Y004316D02*
X039431Y004316D01*
X039431Y004308D02*
X038618Y004308D01*
X038618Y004299D02*
X039431Y004299D01*
X039431Y004291D02*
X038619Y004291D01*
X038619Y004282D02*
X039431Y004282D01*
X039431Y004273D02*
X038620Y004273D01*
X038621Y004265D02*
X039431Y004265D01*
X039431Y004256D02*
X038621Y004256D01*
X038622Y004248D02*
X039431Y004248D01*
X039431Y004239D02*
X038622Y004239D01*
X038623Y004231D02*
X039431Y004231D01*
X039431Y004222D02*
X038624Y004222D01*
X038624Y004214D02*
X039431Y004214D01*
X039431Y004205D02*
X038625Y004205D01*
X038625Y004197D02*
X039431Y004197D01*
X039431Y004188D02*
X038626Y004188D01*
X038626Y004179D02*
X039431Y004179D01*
X039431Y004171D02*
X038627Y004171D01*
X038628Y004162D02*
X039431Y004162D01*
X039431Y004154D02*
X038628Y004154D01*
X038630Y004145D02*
X039431Y004145D01*
X039431Y004137D02*
X038631Y004137D01*
X038633Y004128D02*
X039431Y004128D01*
X039431Y004120D02*
X038635Y004120D01*
X038636Y004111D02*
X039431Y004111D01*
X039431Y004103D02*
X038638Y004103D01*
X038639Y004094D02*
X039431Y004094D01*
X039431Y004085D02*
X038641Y004085D01*
X038642Y004077D02*
X039431Y004077D01*
X039431Y004068D02*
X038644Y004068D01*
X038646Y004060D02*
X039431Y004060D01*
X039431Y004051D02*
X038647Y004051D01*
X038649Y004043D02*
X039431Y004043D01*
X039431Y004034D02*
X038650Y004034D01*
X038652Y004026D02*
X039431Y004026D01*
X039431Y004017D02*
X038654Y004017D01*
X038655Y004009D02*
X039431Y004009D01*
X039431Y004000D02*
X038657Y004000D01*
X038658Y003991D02*
X039431Y003991D01*
X039431Y003983D02*
X038660Y003983D01*
X038661Y003974D02*
X039431Y003974D01*
X039431Y003966D02*
X038663Y003966D01*
X038665Y003957D02*
X039431Y003957D01*
X039431Y003949D02*
X038666Y003949D01*
X038668Y003940D02*
X039431Y003940D01*
X039431Y003932D02*
X038669Y003932D01*
X038671Y003923D02*
X039431Y003923D01*
X039431Y003915D02*
X038672Y003915D01*
X038674Y003906D02*
X039431Y003906D01*
X039431Y003898D02*
X038677Y003898D01*
X038679Y003889D02*
X039431Y003889D01*
X039431Y003880D02*
X038682Y003880D01*
X038684Y003872D02*
X039431Y003872D01*
X039431Y003863D02*
X038687Y003863D01*
X038690Y003855D02*
X039431Y003855D01*
X039431Y003846D02*
X038692Y003846D01*
X038695Y003838D02*
X039431Y003838D01*
X039431Y003829D02*
X038698Y003829D01*
X038700Y003821D02*
X039431Y003821D01*
X039431Y003812D02*
X038703Y003812D01*
X038705Y003804D02*
X039431Y003804D01*
X039431Y003795D02*
X038708Y003795D01*
X038711Y003786D02*
X039431Y003786D01*
X039431Y003778D02*
X038713Y003778D01*
X038716Y003769D02*
X039431Y003769D01*
X039431Y003761D02*
X038719Y003761D01*
X038721Y003752D02*
X039431Y003752D01*
X039431Y003744D02*
X038724Y003744D01*
X038726Y003735D02*
X039431Y003735D01*
X039431Y003727D02*
X038729Y003727D01*
X038732Y003718D02*
X039431Y003718D01*
X039431Y003710D02*
X038734Y003710D01*
X038737Y003701D02*
X039431Y003701D01*
X039431Y003692D02*
X038740Y003692D01*
X038742Y003684D02*
X039431Y003684D01*
X039431Y003675D02*
X038745Y003675D01*
X038747Y003667D02*
X039431Y003667D01*
X039431Y003658D02*
X038751Y003658D01*
X038754Y003650D02*
X039431Y003650D01*
X039431Y003641D02*
X038758Y003641D01*
X038762Y003633D02*
X039431Y003633D01*
X039431Y003624D02*
X038766Y003624D01*
X038769Y003616D02*
X039431Y003616D01*
X039431Y003607D02*
X038773Y003607D01*
X038777Y003599D02*
X039431Y003599D01*
X039431Y003590D02*
X038781Y003590D01*
X038784Y003581D02*
X039431Y003581D01*
X039431Y003573D02*
X038788Y003573D01*
X038792Y003564D02*
X039431Y003564D01*
X039431Y003556D02*
X038796Y003556D01*
X038799Y003547D02*
X039431Y003547D01*
X039431Y003539D02*
X038803Y003539D01*
X038807Y003530D02*
X039431Y003530D01*
X039431Y003522D02*
X038811Y003522D01*
X038814Y003513D02*
X039431Y003513D01*
X039431Y003505D02*
X038818Y003505D01*
X038822Y003496D02*
X039431Y003496D01*
X039431Y003487D02*
X038826Y003487D01*
X038829Y003479D02*
X039431Y003479D01*
X039431Y003470D02*
X038833Y003470D01*
X038837Y003462D02*
X039431Y003462D01*
X039431Y003453D02*
X038841Y003453D01*
X038844Y003445D02*
X039431Y003445D01*
X039431Y003436D02*
X038848Y003436D01*
X036472Y004325D02*
X036276Y004325D01*
D11*
X035949Y020689D03*
X034949Y020689D03*
X034449Y021689D03*
X035449Y021689D03*
X036449Y021689D03*
X036949Y020689D03*
X030949Y020689D03*
X029949Y020689D03*
X028949Y020689D03*
X028449Y021689D03*
X029449Y021689D03*
X030449Y021689D03*
X024949Y020689D03*
X023949Y020689D03*
X022949Y020689D03*
X022449Y021689D03*
X023449Y021689D03*
X024449Y021689D03*
X018949Y020689D03*
X017949Y020689D03*
X016949Y020689D03*
X016449Y021689D03*
X017449Y021689D03*
X018449Y021689D03*
X012949Y020689D03*
X011949Y020689D03*
X010949Y020689D03*
X010449Y021689D03*
X011449Y021689D03*
X012449Y021689D03*
X006949Y020689D03*
X005949Y020689D03*
X004949Y020689D03*
X004449Y021689D03*
X005449Y021689D03*
X006449Y021689D03*
D12*
X004949Y003439D03*
D13*
X003949Y003439D03*
X003949Y004439D03*
X004949Y004439D03*
X004949Y005439D03*
X003949Y005439D03*
X003949Y006439D03*
X004949Y006439D03*
X004949Y007439D03*
X003949Y007439D03*
D14*
X020199Y008429D02*
X020199Y008949D01*
X021199Y008949D02*
X021199Y008429D01*
X022199Y008429D02*
X022199Y008949D01*
X023199Y008949D02*
X023199Y008429D01*
X024199Y008429D02*
X024199Y008949D01*
X025199Y008949D02*
X025199Y008429D01*
X026199Y008429D02*
X026199Y008949D01*
X027199Y008949D02*
X027199Y008429D01*
X028199Y008429D02*
X028199Y008949D01*
X028199Y005949D02*
X028199Y005429D01*
X027199Y005429D02*
X027199Y005949D01*
X026199Y005949D02*
X026199Y005429D01*
X025199Y005429D02*
X025199Y005949D01*
X024199Y005949D02*
X024199Y005429D01*
X023199Y005429D02*
X023199Y005949D01*
X022199Y005949D02*
X022199Y005429D01*
X021199Y005429D02*
X021199Y005949D01*
X020199Y005949D02*
X020199Y005429D01*
X022199Y004449D02*
X022199Y003929D01*
X023199Y003929D02*
X023199Y004449D01*
X024199Y004449D02*
X024199Y003929D01*
X025199Y003929D02*
X025199Y004449D01*
X026199Y004449D02*
X026199Y003929D01*
X027199Y003929D02*
X027199Y004449D01*
X027199Y001449D02*
X027199Y000929D01*
X026199Y000929D02*
X026199Y001449D01*
X025199Y001449D02*
X025199Y000929D01*
X024199Y000929D02*
X024199Y001449D01*
X023199Y001449D02*
X023199Y000929D01*
X022199Y000929D02*
X022199Y001449D01*
D15*
X040449Y017189D02*
X041949Y017189D01*
X041949Y019189D02*
X040449Y019189D01*
X040449Y021189D02*
X041949Y021189D01*
X041949Y023189D02*
X040449Y023189D01*
D16*
X037199Y011989D02*
X037199Y011389D01*
X035199Y011389D02*
X035199Y011989D01*
X031199Y011989D02*
X031199Y011389D01*
X029199Y011389D02*
X029199Y011989D01*
X025199Y011989D02*
X025199Y011389D01*
X023199Y011389D02*
X023199Y011989D01*
X019199Y011989D02*
X019199Y011389D01*
X017199Y011389D02*
X017199Y011989D01*
X013199Y011989D02*
X013199Y011389D01*
X011199Y011389D02*
X011199Y011989D01*
X007199Y011989D02*
X007199Y011389D01*
X005199Y011389D02*
X005199Y011989D01*
D17*
X003199Y010689D03*
X002199Y010689D03*
X004199Y010189D03*
X007199Y010189D03*
X009699Y008189D03*
X010699Y008189D03*
X011699Y008189D03*
X012699Y008189D03*
X013699Y008189D03*
X014699Y008189D03*
X014699Y005189D03*
X013699Y005189D03*
X012699Y005189D03*
X011699Y005189D03*
X010699Y005189D03*
X009699Y005189D03*
X009699Y013689D03*
X011199Y013689D03*
X012199Y013689D03*
X012699Y013689D03*
X015699Y013689D03*
X017199Y013689D03*
X018199Y013689D03*
X018699Y013689D03*
X021699Y013689D03*
X023199Y013689D03*
X024199Y013689D03*
X024699Y013689D03*
X027699Y013689D03*
X029199Y013689D03*
X030199Y013689D03*
X030699Y013689D03*
X033699Y013689D03*
X035199Y013689D03*
X036199Y013689D03*
X036699Y013689D03*
X039699Y013689D03*
X041199Y013689D03*
X041199Y010689D03*
X041199Y009689D03*
X041199Y008689D03*
X006699Y013689D03*
X006199Y013689D03*
X005199Y013689D03*
D18*
X002699Y009439D02*
X002699Y003439D01*
X003949Y003439D01*
X004949Y003439D01*
X009699Y005189D02*
X009699Y001189D01*
X010699Y001689D02*
X010699Y005189D01*
X011699Y005189D02*
X011699Y002189D01*
X012699Y002689D02*
X012699Y005189D01*
X013699Y005189D02*
X013699Y003189D01*
X013699Y008189D02*
X013699Y008939D01*
X016449Y008939D01*
X016449Y010189D01*
X028449Y010189D01*
X028449Y016689D01*
X028949Y016689D01*
X028949Y019189D01*
X028449Y019189D01*
X027699Y019939D01*
X027699Y022689D01*
X029449Y022689D01*
X029449Y021689D01*
X033699Y022689D02*
X033699Y019939D01*
X034449Y019189D01*
X034949Y019189D01*
X034949Y016689D01*
X034449Y016689D01*
X034449Y009689D01*
X018199Y009689D01*
X018199Y008189D01*
X014699Y008189D01*
X012699Y008189D02*
X012699Y010189D01*
X014949Y010189D01*
X014949Y010689D01*
X022449Y010689D01*
X022449Y016689D01*
X022949Y016689D01*
X022949Y019189D01*
X022449Y019189D01*
X021699Y019939D01*
X021699Y022689D01*
X023449Y022689D01*
X023449Y021689D01*
X017449Y021689D02*
X017449Y022689D01*
X015699Y022689D01*
X015699Y019939D01*
X016449Y019189D01*
X016949Y019189D01*
X016949Y016689D01*
X013949Y016689D01*
X013949Y010689D01*
X011699Y010689D01*
X011699Y008189D01*
X010699Y008189D02*
X010699Y010189D01*
X010449Y010189D01*
X010449Y016689D01*
X010949Y016689D01*
X010949Y019189D01*
X010449Y019189D01*
X009699Y019939D01*
X009699Y022689D01*
X011449Y022689D01*
X011449Y021689D01*
X005449Y021689D02*
X005449Y022689D01*
X003699Y022689D01*
X003699Y019939D01*
X004449Y019189D01*
X004949Y019189D01*
X004949Y016689D01*
X004199Y016689D01*
X004199Y010689D01*
X009199Y010689D01*
X009199Y008189D01*
X009699Y008189D01*
X007199Y009439D02*
X007199Y010189D01*
X007199Y009439D02*
X002699Y009439D01*
X033699Y022689D02*
X035449Y022689D01*
X035449Y021689D01*
X041199Y023189D02*
X043699Y023189D01*
X043699Y013689D01*
X041199Y013689D01*
X039699Y013689D01*
D19*
X035699Y015189D02*
X035699Y019689D01*
X034949Y019689D01*
X034949Y020689D01*
X036449Y021689D02*
X036449Y023189D01*
X036449Y024689D01*
X030449Y024689D01*
X030449Y021689D01*
X028949Y020689D02*
X028949Y019689D01*
X029699Y019689D01*
X029699Y015189D01*
X029199Y015189D01*
X029199Y013689D01*
X029199Y011689D01*
X023699Y015189D02*
X023699Y019689D01*
X022949Y019689D01*
X022949Y020689D01*
X024449Y021689D02*
X024449Y024689D01*
X018449Y024689D01*
X018449Y021689D01*
X016949Y020689D02*
X016949Y019689D01*
X017699Y019689D01*
X017699Y015189D01*
X017199Y015189D01*
X017199Y013689D01*
X017199Y011689D01*
X023199Y011689D02*
X023199Y013689D01*
X023199Y015189D01*
X023699Y015189D01*
X012449Y021689D02*
X012449Y024689D01*
X006449Y024689D01*
X006449Y021689D01*
X004949Y020689D02*
X004949Y019689D01*
X005699Y019689D01*
X005699Y015189D01*
X005199Y015189D01*
X005199Y013689D01*
X005199Y011689D01*
X011199Y011689D02*
X011199Y013689D01*
X011199Y015189D01*
X011699Y015189D01*
X011699Y019689D01*
X010949Y019689D01*
X010949Y020689D01*
X012449Y024689D02*
X018449Y024689D01*
X024449Y024689D02*
X030449Y024689D01*
X036449Y023189D02*
X041199Y023189D01*
X035699Y015189D02*
X035199Y015189D01*
X035199Y013689D01*
X035199Y011689D01*
D20*
X013699Y003189D03*
X012699Y002689D03*
X011699Y002189D03*
X010699Y001689D03*
X009699Y001189D03*
M02*
