G75*
%MOIN*%
%OFA0B0*%
%FSLAX24Y24*%
%IPPOS*%
%LPD*%
%AMOC8*
5,1,8,0,0,1.08239X$1,22.5*
%
%ADD10C,0.0000*%
%ADD11C,0.0080*%
%ADD12C,0.0040*%
%ADD13R,0.0730X0.1260*%
%ADD14R,0.0730X0.0340*%
%ADD15R,0.1260X0.0730*%
%ADD16R,0.0340X0.0730*%
D10*
X000100Y000204D02*
X000100Y032825D01*
X037720Y032825D01*
X037720Y000204D01*
X000100Y000204D01*
X003835Y003204D02*
X003837Y003254D01*
X003843Y003304D01*
X003853Y003353D01*
X003866Y003402D01*
X003884Y003449D01*
X003905Y003495D01*
X003929Y003538D01*
X003957Y003580D01*
X003988Y003620D01*
X004022Y003657D01*
X004059Y003691D01*
X004099Y003722D01*
X004141Y003750D01*
X004184Y003774D01*
X004230Y003795D01*
X004277Y003813D01*
X004326Y003826D01*
X004375Y003836D01*
X004425Y003842D01*
X004475Y003844D01*
X004525Y003842D01*
X004575Y003836D01*
X004624Y003826D01*
X004673Y003813D01*
X004720Y003795D01*
X004766Y003774D01*
X004809Y003750D01*
X004851Y003722D01*
X004891Y003691D01*
X004928Y003657D01*
X004962Y003620D01*
X004993Y003580D01*
X005021Y003538D01*
X005045Y003495D01*
X005066Y003449D01*
X005084Y003402D01*
X005097Y003353D01*
X005107Y003304D01*
X005113Y003254D01*
X005115Y003204D01*
X005113Y003154D01*
X005107Y003104D01*
X005097Y003055D01*
X005084Y003006D01*
X005066Y002959D01*
X005045Y002913D01*
X005021Y002870D01*
X004993Y002828D01*
X004962Y002788D01*
X004928Y002751D01*
X004891Y002717D01*
X004851Y002686D01*
X004809Y002658D01*
X004766Y002634D01*
X004720Y002613D01*
X004673Y002595D01*
X004624Y002582D01*
X004575Y002572D01*
X004525Y002566D01*
X004475Y002564D01*
X004425Y002566D01*
X004375Y002572D01*
X004326Y002582D01*
X004277Y002595D01*
X004230Y002613D01*
X004184Y002634D01*
X004141Y002658D01*
X004099Y002686D01*
X004059Y002717D01*
X004022Y002751D01*
X003988Y002788D01*
X003957Y002828D01*
X003929Y002870D01*
X003905Y002913D01*
X003884Y002959D01*
X003866Y003006D01*
X003853Y003055D01*
X003843Y003104D01*
X003837Y003154D01*
X003835Y003204D01*
X007835Y003204D02*
X007837Y003254D01*
X007843Y003304D01*
X007853Y003353D01*
X007866Y003402D01*
X007884Y003449D01*
X007905Y003495D01*
X007929Y003538D01*
X007957Y003580D01*
X007988Y003620D01*
X008022Y003657D01*
X008059Y003691D01*
X008099Y003722D01*
X008141Y003750D01*
X008184Y003774D01*
X008230Y003795D01*
X008277Y003813D01*
X008326Y003826D01*
X008375Y003836D01*
X008425Y003842D01*
X008475Y003844D01*
X008525Y003842D01*
X008575Y003836D01*
X008624Y003826D01*
X008673Y003813D01*
X008720Y003795D01*
X008766Y003774D01*
X008809Y003750D01*
X008851Y003722D01*
X008891Y003691D01*
X008928Y003657D01*
X008962Y003620D01*
X008993Y003580D01*
X009021Y003538D01*
X009045Y003495D01*
X009066Y003449D01*
X009084Y003402D01*
X009097Y003353D01*
X009107Y003304D01*
X009113Y003254D01*
X009115Y003204D01*
X009113Y003154D01*
X009107Y003104D01*
X009097Y003055D01*
X009084Y003006D01*
X009066Y002959D01*
X009045Y002913D01*
X009021Y002870D01*
X008993Y002828D01*
X008962Y002788D01*
X008928Y002751D01*
X008891Y002717D01*
X008851Y002686D01*
X008809Y002658D01*
X008766Y002634D01*
X008720Y002613D01*
X008673Y002595D01*
X008624Y002582D01*
X008575Y002572D01*
X008525Y002566D01*
X008475Y002564D01*
X008425Y002566D01*
X008375Y002572D01*
X008326Y002582D01*
X008277Y002595D01*
X008230Y002613D01*
X008184Y002634D01*
X008141Y002658D01*
X008099Y002686D01*
X008059Y002717D01*
X008022Y002751D01*
X007988Y002788D01*
X007957Y002828D01*
X007929Y002870D01*
X007905Y002913D01*
X007884Y002959D01*
X007866Y003006D01*
X007853Y003055D01*
X007843Y003104D01*
X007837Y003154D01*
X007835Y003204D01*
X014335Y003204D02*
X014337Y003254D01*
X014343Y003304D01*
X014353Y003353D01*
X014366Y003402D01*
X014384Y003449D01*
X014405Y003495D01*
X014429Y003538D01*
X014457Y003580D01*
X014488Y003620D01*
X014522Y003657D01*
X014559Y003691D01*
X014599Y003722D01*
X014641Y003750D01*
X014684Y003774D01*
X014730Y003795D01*
X014777Y003813D01*
X014826Y003826D01*
X014875Y003836D01*
X014925Y003842D01*
X014975Y003844D01*
X015025Y003842D01*
X015075Y003836D01*
X015124Y003826D01*
X015173Y003813D01*
X015220Y003795D01*
X015266Y003774D01*
X015309Y003750D01*
X015351Y003722D01*
X015391Y003691D01*
X015428Y003657D01*
X015462Y003620D01*
X015493Y003580D01*
X015521Y003538D01*
X015545Y003495D01*
X015566Y003449D01*
X015584Y003402D01*
X015597Y003353D01*
X015607Y003304D01*
X015613Y003254D01*
X015615Y003204D01*
X015613Y003154D01*
X015607Y003104D01*
X015597Y003055D01*
X015584Y003006D01*
X015566Y002959D01*
X015545Y002913D01*
X015521Y002870D01*
X015493Y002828D01*
X015462Y002788D01*
X015428Y002751D01*
X015391Y002717D01*
X015351Y002686D01*
X015309Y002658D01*
X015266Y002634D01*
X015220Y002613D01*
X015173Y002595D01*
X015124Y002582D01*
X015075Y002572D01*
X015025Y002566D01*
X014975Y002564D01*
X014925Y002566D01*
X014875Y002572D01*
X014826Y002582D01*
X014777Y002595D01*
X014730Y002613D01*
X014684Y002634D01*
X014641Y002658D01*
X014599Y002686D01*
X014559Y002717D01*
X014522Y002751D01*
X014488Y002788D01*
X014457Y002828D01*
X014429Y002870D01*
X014405Y002913D01*
X014384Y002959D01*
X014366Y003006D01*
X014353Y003055D01*
X014343Y003104D01*
X014337Y003154D01*
X014335Y003204D01*
X018335Y003204D02*
X018337Y003254D01*
X018343Y003304D01*
X018353Y003353D01*
X018366Y003402D01*
X018384Y003449D01*
X018405Y003495D01*
X018429Y003538D01*
X018457Y003580D01*
X018488Y003620D01*
X018522Y003657D01*
X018559Y003691D01*
X018599Y003722D01*
X018641Y003750D01*
X018684Y003774D01*
X018730Y003795D01*
X018777Y003813D01*
X018826Y003826D01*
X018875Y003836D01*
X018925Y003842D01*
X018975Y003844D01*
X019025Y003842D01*
X019075Y003836D01*
X019124Y003826D01*
X019173Y003813D01*
X019220Y003795D01*
X019266Y003774D01*
X019309Y003750D01*
X019351Y003722D01*
X019391Y003691D01*
X019428Y003657D01*
X019462Y003620D01*
X019493Y003580D01*
X019521Y003538D01*
X019545Y003495D01*
X019566Y003449D01*
X019584Y003402D01*
X019597Y003353D01*
X019607Y003304D01*
X019613Y003254D01*
X019615Y003204D01*
X019613Y003154D01*
X019607Y003104D01*
X019597Y003055D01*
X019584Y003006D01*
X019566Y002959D01*
X019545Y002913D01*
X019521Y002870D01*
X019493Y002828D01*
X019462Y002788D01*
X019428Y002751D01*
X019391Y002717D01*
X019351Y002686D01*
X019309Y002658D01*
X019266Y002634D01*
X019220Y002613D01*
X019173Y002595D01*
X019124Y002582D01*
X019075Y002572D01*
X019025Y002566D01*
X018975Y002564D01*
X018925Y002566D01*
X018875Y002572D01*
X018826Y002582D01*
X018777Y002595D01*
X018730Y002613D01*
X018684Y002634D01*
X018641Y002658D01*
X018599Y002686D01*
X018559Y002717D01*
X018522Y002751D01*
X018488Y002788D01*
X018457Y002828D01*
X018429Y002870D01*
X018405Y002913D01*
X018384Y002959D01*
X018366Y003006D01*
X018353Y003055D01*
X018343Y003104D01*
X018337Y003154D01*
X018335Y003204D01*
X024835Y003204D02*
X024837Y003254D01*
X024843Y003304D01*
X024853Y003353D01*
X024866Y003402D01*
X024884Y003449D01*
X024905Y003495D01*
X024929Y003538D01*
X024957Y003580D01*
X024988Y003620D01*
X025022Y003657D01*
X025059Y003691D01*
X025099Y003722D01*
X025141Y003750D01*
X025184Y003774D01*
X025230Y003795D01*
X025277Y003813D01*
X025326Y003826D01*
X025375Y003836D01*
X025425Y003842D01*
X025475Y003844D01*
X025525Y003842D01*
X025575Y003836D01*
X025624Y003826D01*
X025673Y003813D01*
X025720Y003795D01*
X025766Y003774D01*
X025809Y003750D01*
X025851Y003722D01*
X025891Y003691D01*
X025928Y003657D01*
X025962Y003620D01*
X025993Y003580D01*
X026021Y003538D01*
X026045Y003495D01*
X026066Y003449D01*
X026084Y003402D01*
X026097Y003353D01*
X026107Y003304D01*
X026113Y003254D01*
X026115Y003204D01*
X026113Y003154D01*
X026107Y003104D01*
X026097Y003055D01*
X026084Y003006D01*
X026066Y002959D01*
X026045Y002913D01*
X026021Y002870D01*
X025993Y002828D01*
X025962Y002788D01*
X025928Y002751D01*
X025891Y002717D01*
X025851Y002686D01*
X025809Y002658D01*
X025766Y002634D01*
X025720Y002613D01*
X025673Y002595D01*
X025624Y002582D01*
X025575Y002572D01*
X025525Y002566D01*
X025475Y002564D01*
X025425Y002566D01*
X025375Y002572D01*
X025326Y002582D01*
X025277Y002595D01*
X025230Y002613D01*
X025184Y002634D01*
X025141Y002658D01*
X025099Y002686D01*
X025059Y002717D01*
X025022Y002751D01*
X024988Y002788D01*
X024957Y002828D01*
X024929Y002870D01*
X024905Y002913D01*
X024884Y002959D01*
X024866Y003006D01*
X024853Y003055D01*
X024843Y003104D01*
X024837Y003154D01*
X024835Y003204D01*
X028835Y003204D02*
X028837Y003254D01*
X028843Y003304D01*
X028853Y003353D01*
X028866Y003402D01*
X028884Y003449D01*
X028905Y003495D01*
X028929Y003538D01*
X028957Y003580D01*
X028988Y003620D01*
X029022Y003657D01*
X029059Y003691D01*
X029099Y003722D01*
X029141Y003750D01*
X029184Y003774D01*
X029230Y003795D01*
X029277Y003813D01*
X029326Y003826D01*
X029375Y003836D01*
X029425Y003842D01*
X029475Y003844D01*
X029525Y003842D01*
X029575Y003836D01*
X029624Y003826D01*
X029673Y003813D01*
X029720Y003795D01*
X029766Y003774D01*
X029809Y003750D01*
X029851Y003722D01*
X029891Y003691D01*
X029928Y003657D01*
X029962Y003620D01*
X029993Y003580D01*
X030021Y003538D01*
X030045Y003495D01*
X030066Y003449D01*
X030084Y003402D01*
X030097Y003353D01*
X030107Y003304D01*
X030113Y003254D01*
X030115Y003204D01*
X030113Y003154D01*
X030107Y003104D01*
X030097Y003055D01*
X030084Y003006D01*
X030066Y002959D01*
X030045Y002913D01*
X030021Y002870D01*
X029993Y002828D01*
X029962Y002788D01*
X029928Y002751D01*
X029891Y002717D01*
X029851Y002686D01*
X029809Y002658D01*
X029766Y002634D01*
X029720Y002613D01*
X029673Y002595D01*
X029624Y002582D01*
X029575Y002572D01*
X029525Y002566D01*
X029475Y002564D01*
X029425Y002566D01*
X029375Y002572D01*
X029326Y002582D01*
X029277Y002595D01*
X029230Y002613D01*
X029184Y002634D01*
X029141Y002658D01*
X029099Y002686D01*
X029059Y002717D01*
X029022Y002751D01*
X028988Y002788D01*
X028957Y002828D01*
X028929Y002870D01*
X028905Y002913D01*
X028884Y002959D01*
X028866Y003006D01*
X028853Y003055D01*
X028843Y003104D01*
X028837Y003154D01*
X028835Y003204D01*
X032983Y012204D02*
X032985Y012248D01*
X032991Y012292D01*
X033001Y012335D01*
X033014Y012377D01*
X033032Y012417D01*
X033053Y012456D01*
X033077Y012493D01*
X033104Y012528D01*
X033135Y012560D01*
X033168Y012589D01*
X033204Y012615D01*
X033242Y012637D01*
X033282Y012656D01*
X033323Y012672D01*
X033366Y012684D01*
X033409Y012692D01*
X033453Y012696D01*
X033497Y012696D01*
X033541Y012692D01*
X033584Y012684D01*
X033627Y012672D01*
X033668Y012656D01*
X033708Y012637D01*
X033746Y012615D01*
X033782Y012589D01*
X033815Y012560D01*
X033846Y012528D01*
X033873Y012493D01*
X033897Y012456D01*
X033918Y012417D01*
X033936Y012377D01*
X033949Y012335D01*
X033959Y012292D01*
X033965Y012248D01*
X033967Y012204D01*
X033965Y012160D01*
X033959Y012116D01*
X033949Y012073D01*
X033936Y012031D01*
X033918Y011991D01*
X033897Y011952D01*
X033873Y011915D01*
X033846Y011880D01*
X033815Y011848D01*
X033782Y011819D01*
X033746Y011793D01*
X033708Y011771D01*
X033668Y011752D01*
X033627Y011736D01*
X033584Y011724D01*
X033541Y011716D01*
X033497Y011712D01*
X033453Y011712D01*
X033409Y011716D01*
X033366Y011724D01*
X033323Y011736D01*
X033282Y011752D01*
X033242Y011771D01*
X033204Y011793D01*
X033168Y011819D01*
X033135Y011848D01*
X033104Y011880D01*
X033077Y011915D01*
X033053Y011952D01*
X033032Y011991D01*
X033014Y012031D01*
X033001Y012073D01*
X032991Y012116D01*
X032985Y012160D01*
X032983Y012204D01*
X035688Y014204D02*
X035690Y014260D01*
X035696Y014315D01*
X035706Y014369D01*
X035719Y014423D01*
X035737Y014476D01*
X035758Y014527D01*
X035782Y014577D01*
X035810Y014625D01*
X035842Y014671D01*
X035876Y014715D01*
X035914Y014756D01*
X035954Y014794D01*
X035997Y014829D01*
X036042Y014861D01*
X036090Y014890D01*
X036139Y014916D01*
X036190Y014938D01*
X036242Y014956D01*
X036296Y014970D01*
X036351Y014981D01*
X036406Y014988D01*
X036461Y014991D01*
X036517Y014990D01*
X036572Y014985D01*
X036627Y014976D01*
X036681Y014964D01*
X036734Y014947D01*
X036786Y014927D01*
X036836Y014903D01*
X036884Y014876D01*
X036931Y014846D01*
X036975Y014812D01*
X037017Y014775D01*
X037055Y014735D01*
X037092Y014693D01*
X037125Y014648D01*
X037154Y014602D01*
X037181Y014553D01*
X037203Y014502D01*
X037223Y014450D01*
X037238Y014396D01*
X037250Y014342D01*
X037258Y014287D01*
X037262Y014232D01*
X037262Y014176D01*
X037258Y014121D01*
X037250Y014066D01*
X037238Y014012D01*
X037223Y013958D01*
X037203Y013906D01*
X037181Y013855D01*
X037154Y013806D01*
X037125Y013760D01*
X037092Y013715D01*
X037055Y013673D01*
X037017Y013633D01*
X036975Y013596D01*
X036931Y013562D01*
X036884Y013532D01*
X036836Y013505D01*
X036786Y013481D01*
X036734Y013461D01*
X036681Y013444D01*
X036627Y013432D01*
X036572Y013423D01*
X036517Y013418D01*
X036461Y013417D01*
X036406Y013420D01*
X036351Y013427D01*
X036296Y013438D01*
X036242Y013452D01*
X036190Y013470D01*
X036139Y013492D01*
X036090Y013518D01*
X036042Y013547D01*
X035997Y013579D01*
X035954Y013614D01*
X035914Y013652D01*
X035876Y013693D01*
X035842Y013737D01*
X035810Y013783D01*
X035782Y013831D01*
X035758Y013881D01*
X035737Y013932D01*
X035719Y013985D01*
X035706Y014039D01*
X035696Y014093D01*
X035690Y014148D01*
X035688Y014204D01*
X035688Y018204D02*
X035690Y018260D01*
X035696Y018315D01*
X035706Y018369D01*
X035719Y018423D01*
X035737Y018476D01*
X035758Y018527D01*
X035782Y018577D01*
X035810Y018625D01*
X035842Y018671D01*
X035876Y018715D01*
X035914Y018756D01*
X035954Y018794D01*
X035997Y018829D01*
X036042Y018861D01*
X036090Y018890D01*
X036139Y018916D01*
X036190Y018938D01*
X036242Y018956D01*
X036296Y018970D01*
X036351Y018981D01*
X036406Y018988D01*
X036461Y018991D01*
X036517Y018990D01*
X036572Y018985D01*
X036627Y018976D01*
X036681Y018964D01*
X036734Y018947D01*
X036786Y018927D01*
X036836Y018903D01*
X036884Y018876D01*
X036931Y018846D01*
X036975Y018812D01*
X037017Y018775D01*
X037055Y018735D01*
X037092Y018693D01*
X037125Y018648D01*
X037154Y018602D01*
X037181Y018553D01*
X037203Y018502D01*
X037223Y018450D01*
X037238Y018396D01*
X037250Y018342D01*
X037258Y018287D01*
X037262Y018232D01*
X037262Y018176D01*
X037258Y018121D01*
X037250Y018066D01*
X037238Y018012D01*
X037223Y017958D01*
X037203Y017906D01*
X037181Y017855D01*
X037154Y017806D01*
X037125Y017760D01*
X037092Y017715D01*
X037055Y017673D01*
X037017Y017633D01*
X036975Y017596D01*
X036931Y017562D01*
X036884Y017532D01*
X036836Y017505D01*
X036786Y017481D01*
X036734Y017461D01*
X036681Y017444D01*
X036627Y017432D01*
X036572Y017423D01*
X036517Y017418D01*
X036461Y017417D01*
X036406Y017420D01*
X036351Y017427D01*
X036296Y017438D01*
X036242Y017452D01*
X036190Y017470D01*
X036139Y017492D01*
X036090Y017518D01*
X036042Y017547D01*
X035997Y017579D01*
X035954Y017614D01*
X035914Y017652D01*
X035876Y017693D01*
X035842Y017737D01*
X035810Y017783D01*
X035782Y017831D01*
X035758Y017881D01*
X035737Y017932D01*
X035719Y017985D01*
X035706Y018039D01*
X035696Y018093D01*
X035690Y018148D01*
X035688Y018204D01*
X032983Y020204D02*
X032985Y020248D01*
X032991Y020292D01*
X033001Y020335D01*
X033014Y020377D01*
X033032Y020417D01*
X033053Y020456D01*
X033077Y020493D01*
X033104Y020528D01*
X033135Y020560D01*
X033168Y020589D01*
X033204Y020615D01*
X033242Y020637D01*
X033282Y020656D01*
X033323Y020672D01*
X033366Y020684D01*
X033409Y020692D01*
X033453Y020696D01*
X033497Y020696D01*
X033541Y020692D01*
X033584Y020684D01*
X033627Y020672D01*
X033668Y020656D01*
X033708Y020637D01*
X033746Y020615D01*
X033782Y020589D01*
X033815Y020560D01*
X033846Y020528D01*
X033873Y020493D01*
X033897Y020456D01*
X033918Y020417D01*
X033936Y020377D01*
X033949Y020335D01*
X033959Y020292D01*
X033965Y020248D01*
X033967Y020204D01*
X033965Y020160D01*
X033959Y020116D01*
X033949Y020073D01*
X033936Y020031D01*
X033918Y019991D01*
X033897Y019952D01*
X033873Y019915D01*
X033846Y019880D01*
X033815Y019848D01*
X033782Y019819D01*
X033746Y019793D01*
X033708Y019771D01*
X033668Y019752D01*
X033627Y019736D01*
X033584Y019724D01*
X033541Y019716D01*
X033497Y019712D01*
X033453Y019712D01*
X033409Y019716D01*
X033366Y019724D01*
X033323Y019736D01*
X033282Y019752D01*
X033242Y019771D01*
X033204Y019793D01*
X033168Y019819D01*
X033135Y019848D01*
X033104Y019880D01*
X033077Y019915D01*
X033053Y019952D01*
X033032Y019991D01*
X033014Y020031D01*
X033001Y020073D01*
X032991Y020116D01*
X032985Y020160D01*
X032983Y020204D01*
X024258Y014704D02*
X024260Y014747D01*
X024266Y014790D01*
X024276Y014832D01*
X024290Y014873D01*
X024307Y014912D01*
X024328Y014950D01*
X024352Y014985D01*
X024380Y015019D01*
X024410Y015049D01*
X024444Y015077D01*
X024479Y015101D01*
X024517Y015122D01*
X024556Y015139D01*
X024597Y015153D01*
X024639Y015163D01*
X024682Y015169D01*
X024725Y015171D01*
X024768Y015169D01*
X024811Y015163D01*
X024853Y015153D01*
X024894Y015139D01*
X024933Y015122D01*
X024971Y015101D01*
X025006Y015077D01*
X025040Y015049D01*
X025070Y015019D01*
X025098Y014985D01*
X025122Y014950D01*
X025143Y014912D01*
X025160Y014873D01*
X025174Y014832D01*
X025184Y014790D01*
X025190Y014747D01*
X025192Y014704D01*
X025190Y014661D01*
X025184Y014618D01*
X025174Y014576D01*
X025160Y014535D01*
X025143Y014496D01*
X025122Y014458D01*
X025098Y014423D01*
X025070Y014389D01*
X025040Y014359D01*
X025006Y014331D01*
X024971Y014307D01*
X024933Y014286D01*
X024894Y014269D01*
X024853Y014255D01*
X024811Y014245D01*
X024768Y014239D01*
X024725Y014237D01*
X024682Y014239D01*
X024639Y014245D01*
X024597Y014255D01*
X024556Y014269D01*
X024517Y014286D01*
X024479Y014307D01*
X024444Y014331D01*
X024410Y014359D01*
X024380Y014389D01*
X024352Y014423D01*
X024328Y014458D01*
X024307Y014496D01*
X024290Y014535D01*
X024276Y014576D01*
X024266Y014618D01*
X024260Y014661D01*
X024258Y014704D01*
X023008Y014704D02*
X023010Y014747D01*
X023016Y014790D01*
X023026Y014832D01*
X023040Y014873D01*
X023057Y014912D01*
X023078Y014950D01*
X023102Y014985D01*
X023130Y015019D01*
X023160Y015049D01*
X023194Y015077D01*
X023229Y015101D01*
X023267Y015122D01*
X023306Y015139D01*
X023347Y015153D01*
X023389Y015163D01*
X023432Y015169D01*
X023475Y015171D01*
X023518Y015169D01*
X023561Y015163D01*
X023603Y015153D01*
X023644Y015139D01*
X023683Y015122D01*
X023721Y015101D01*
X023756Y015077D01*
X023790Y015049D01*
X023820Y015019D01*
X023848Y014985D01*
X023872Y014950D01*
X023893Y014912D01*
X023910Y014873D01*
X023924Y014832D01*
X023934Y014790D01*
X023940Y014747D01*
X023942Y014704D01*
X023940Y014661D01*
X023934Y014618D01*
X023924Y014576D01*
X023910Y014535D01*
X023893Y014496D01*
X023872Y014458D01*
X023848Y014423D01*
X023820Y014389D01*
X023790Y014359D01*
X023756Y014331D01*
X023721Y014307D01*
X023683Y014286D01*
X023644Y014269D01*
X023603Y014255D01*
X023561Y014245D01*
X023518Y014239D01*
X023475Y014237D01*
X023432Y014239D01*
X023389Y014245D01*
X023347Y014255D01*
X023306Y014269D01*
X023267Y014286D01*
X023229Y014307D01*
X023194Y014331D01*
X023160Y014359D01*
X023130Y014389D01*
X023102Y014423D01*
X023078Y014458D01*
X023057Y014496D01*
X023040Y014535D01*
X023026Y014576D01*
X023016Y014618D01*
X023010Y014661D01*
X023008Y014704D01*
X022550Y014104D02*
X022552Y014130D01*
X022558Y014156D01*
X022567Y014180D01*
X022580Y014203D01*
X022597Y014223D01*
X022616Y014241D01*
X022638Y014256D01*
X022661Y014267D01*
X022686Y014275D01*
X022712Y014279D01*
X022738Y014279D01*
X022764Y014275D01*
X022789Y014267D01*
X022813Y014256D01*
X022834Y014241D01*
X022853Y014223D01*
X022870Y014203D01*
X022883Y014180D01*
X022892Y014156D01*
X022898Y014130D01*
X022900Y014104D01*
X022898Y014078D01*
X022892Y014052D01*
X022883Y014028D01*
X022870Y014005D01*
X022853Y013985D01*
X022834Y013967D01*
X022812Y013952D01*
X022789Y013941D01*
X022764Y013933D01*
X022738Y013929D01*
X022712Y013929D01*
X022686Y013933D01*
X022661Y013941D01*
X022637Y013952D01*
X022616Y013967D01*
X022597Y013985D01*
X022580Y014005D01*
X022567Y014028D01*
X022558Y014052D01*
X022552Y014078D01*
X022550Y014104D01*
X022550Y013304D02*
X022552Y013330D01*
X022558Y013356D01*
X022567Y013380D01*
X022580Y013403D01*
X022597Y013423D01*
X022616Y013441D01*
X022638Y013456D01*
X022661Y013467D01*
X022686Y013475D01*
X022712Y013479D01*
X022738Y013479D01*
X022764Y013475D01*
X022789Y013467D01*
X022813Y013456D01*
X022834Y013441D01*
X022853Y013423D01*
X022870Y013403D01*
X022883Y013380D01*
X022892Y013356D01*
X022898Y013330D01*
X022900Y013304D01*
X022898Y013278D01*
X022892Y013252D01*
X022883Y013228D01*
X022870Y013205D01*
X022853Y013185D01*
X022834Y013167D01*
X022812Y013152D01*
X022789Y013141D01*
X022764Y013133D01*
X022738Y013129D01*
X022712Y013129D01*
X022686Y013133D01*
X022661Y013141D01*
X022637Y013152D01*
X022616Y013167D01*
X022597Y013185D01*
X022580Y013205D01*
X022567Y013228D01*
X022558Y013252D01*
X022552Y013278D01*
X022550Y013304D01*
X023008Y012704D02*
X023010Y012747D01*
X023016Y012790D01*
X023026Y012832D01*
X023040Y012873D01*
X023057Y012912D01*
X023078Y012950D01*
X023102Y012985D01*
X023130Y013019D01*
X023160Y013049D01*
X023194Y013077D01*
X023229Y013101D01*
X023267Y013122D01*
X023306Y013139D01*
X023347Y013153D01*
X023389Y013163D01*
X023432Y013169D01*
X023475Y013171D01*
X023518Y013169D01*
X023561Y013163D01*
X023603Y013153D01*
X023644Y013139D01*
X023683Y013122D01*
X023721Y013101D01*
X023756Y013077D01*
X023790Y013049D01*
X023820Y013019D01*
X023848Y012985D01*
X023872Y012950D01*
X023893Y012912D01*
X023910Y012873D01*
X023924Y012832D01*
X023934Y012790D01*
X023940Y012747D01*
X023942Y012704D01*
X023940Y012661D01*
X023934Y012618D01*
X023924Y012576D01*
X023910Y012535D01*
X023893Y012496D01*
X023872Y012458D01*
X023848Y012423D01*
X023820Y012389D01*
X023790Y012359D01*
X023756Y012331D01*
X023721Y012307D01*
X023683Y012286D01*
X023644Y012269D01*
X023603Y012255D01*
X023561Y012245D01*
X023518Y012239D01*
X023475Y012237D01*
X023432Y012239D01*
X023389Y012245D01*
X023347Y012255D01*
X023306Y012269D01*
X023267Y012286D01*
X023229Y012307D01*
X023194Y012331D01*
X023160Y012359D01*
X023130Y012389D01*
X023102Y012423D01*
X023078Y012458D01*
X023057Y012496D01*
X023040Y012535D01*
X023026Y012576D01*
X023016Y012618D01*
X023010Y012661D01*
X023008Y012704D01*
X024258Y012704D02*
X024260Y012747D01*
X024266Y012790D01*
X024276Y012832D01*
X024290Y012873D01*
X024307Y012912D01*
X024328Y012950D01*
X024352Y012985D01*
X024380Y013019D01*
X024410Y013049D01*
X024444Y013077D01*
X024479Y013101D01*
X024517Y013122D01*
X024556Y013139D01*
X024597Y013153D01*
X024639Y013163D01*
X024682Y013169D01*
X024725Y013171D01*
X024768Y013169D01*
X024811Y013163D01*
X024853Y013153D01*
X024894Y013139D01*
X024933Y013122D01*
X024971Y013101D01*
X025006Y013077D01*
X025040Y013049D01*
X025070Y013019D01*
X025098Y012985D01*
X025122Y012950D01*
X025143Y012912D01*
X025160Y012873D01*
X025174Y012832D01*
X025184Y012790D01*
X025190Y012747D01*
X025192Y012704D01*
X025190Y012661D01*
X025184Y012618D01*
X025174Y012576D01*
X025160Y012535D01*
X025143Y012496D01*
X025122Y012458D01*
X025098Y012423D01*
X025070Y012389D01*
X025040Y012359D01*
X025006Y012331D01*
X024971Y012307D01*
X024933Y012286D01*
X024894Y012269D01*
X024853Y012255D01*
X024811Y012245D01*
X024768Y012239D01*
X024725Y012237D01*
X024682Y012239D01*
X024639Y012245D01*
X024597Y012255D01*
X024556Y012269D01*
X024517Y012286D01*
X024479Y012307D01*
X024444Y012331D01*
X024410Y012359D01*
X024380Y012389D01*
X024352Y012423D01*
X024328Y012458D01*
X024307Y012496D01*
X024290Y012535D01*
X024276Y012576D01*
X024266Y012618D01*
X024260Y012661D01*
X024258Y012704D01*
X024550Y013704D02*
X024552Y013730D01*
X024558Y013756D01*
X024567Y013780D01*
X024580Y013803D01*
X024597Y013823D01*
X024616Y013841D01*
X024638Y013856D01*
X024661Y013867D01*
X024686Y013875D01*
X024712Y013879D01*
X024738Y013879D01*
X024764Y013875D01*
X024789Y013867D01*
X024813Y013856D01*
X024834Y013841D01*
X024853Y013823D01*
X024870Y013803D01*
X024883Y013780D01*
X024892Y013756D01*
X024898Y013730D01*
X024900Y013704D01*
X024898Y013678D01*
X024892Y013652D01*
X024883Y013628D01*
X024870Y013605D01*
X024853Y013585D01*
X024834Y013567D01*
X024812Y013552D01*
X024789Y013541D01*
X024764Y013533D01*
X024738Y013529D01*
X024712Y013529D01*
X024686Y013533D01*
X024661Y013541D01*
X024637Y013552D01*
X024616Y013567D01*
X024597Y013585D01*
X024580Y013605D01*
X024567Y013628D01*
X024558Y013652D01*
X024552Y013678D01*
X024550Y013704D01*
X025335Y029704D02*
X025337Y029754D01*
X025343Y029804D01*
X025353Y029853D01*
X025366Y029902D01*
X025384Y029949D01*
X025405Y029995D01*
X025429Y030038D01*
X025457Y030080D01*
X025488Y030120D01*
X025522Y030157D01*
X025559Y030191D01*
X025599Y030222D01*
X025641Y030250D01*
X025684Y030274D01*
X025730Y030295D01*
X025777Y030313D01*
X025826Y030326D01*
X025875Y030336D01*
X025925Y030342D01*
X025975Y030344D01*
X026025Y030342D01*
X026075Y030336D01*
X026124Y030326D01*
X026173Y030313D01*
X026220Y030295D01*
X026266Y030274D01*
X026309Y030250D01*
X026351Y030222D01*
X026391Y030191D01*
X026428Y030157D01*
X026462Y030120D01*
X026493Y030080D01*
X026521Y030038D01*
X026545Y029995D01*
X026566Y029949D01*
X026584Y029902D01*
X026597Y029853D01*
X026607Y029804D01*
X026613Y029754D01*
X026615Y029704D01*
X026613Y029654D01*
X026607Y029604D01*
X026597Y029555D01*
X026584Y029506D01*
X026566Y029459D01*
X026545Y029413D01*
X026521Y029370D01*
X026493Y029328D01*
X026462Y029288D01*
X026428Y029251D01*
X026391Y029217D01*
X026351Y029186D01*
X026309Y029158D01*
X026266Y029134D01*
X026220Y029113D01*
X026173Y029095D01*
X026124Y029082D01*
X026075Y029072D01*
X026025Y029066D01*
X025975Y029064D01*
X025925Y029066D01*
X025875Y029072D01*
X025826Y029082D01*
X025777Y029095D01*
X025730Y029113D01*
X025684Y029134D01*
X025641Y029158D01*
X025599Y029186D01*
X025559Y029217D01*
X025522Y029251D01*
X025488Y029288D01*
X025457Y029328D01*
X025429Y029370D01*
X025405Y029413D01*
X025384Y029459D01*
X025366Y029506D01*
X025353Y029555D01*
X025343Y029604D01*
X025337Y029654D01*
X025335Y029704D01*
X029335Y029704D02*
X029337Y029754D01*
X029343Y029804D01*
X029353Y029853D01*
X029366Y029902D01*
X029384Y029949D01*
X029405Y029995D01*
X029429Y030038D01*
X029457Y030080D01*
X029488Y030120D01*
X029522Y030157D01*
X029559Y030191D01*
X029599Y030222D01*
X029641Y030250D01*
X029684Y030274D01*
X029730Y030295D01*
X029777Y030313D01*
X029826Y030326D01*
X029875Y030336D01*
X029925Y030342D01*
X029975Y030344D01*
X030025Y030342D01*
X030075Y030336D01*
X030124Y030326D01*
X030173Y030313D01*
X030220Y030295D01*
X030266Y030274D01*
X030309Y030250D01*
X030351Y030222D01*
X030391Y030191D01*
X030428Y030157D01*
X030462Y030120D01*
X030493Y030080D01*
X030521Y030038D01*
X030545Y029995D01*
X030566Y029949D01*
X030584Y029902D01*
X030597Y029853D01*
X030607Y029804D01*
X030613Y029754D01*
X030615Y029704D01*
X030613Y029654D01*
X030607Y029604D01*
X030597Y029555D01*
X030584Y029506D01*
X030566Y029459D01*
X030545Y029413D01*
X030521Y029370D01*
X030493Y029328D01*
X030462Y029288D01*
X030428Y029251D01*
X030391Y029217D01*
X030351Y029186D01*
X030309Y029158D01*
X030266Y029134D01*
X030220Y029113D01*
X030173Y029095D01*
X030124Y029082D01*
X030075Y029072D01*
X030025Y029066D01*
X029975Y029064D01*
X029925Y029066D01*
X029875Y029072D01*
X029826Y029082D01*
X029777Y029095D01*
X029730Y029113D01*
X029684Y029134D01*
X029641Y029158D01*
X029599Y029186D01*
X029559Y029217D01*
X029522Y029251D01*
X029488Y029288D01*
X029457Y029328D01*
X029429Y029370D01*
X029405Y029413D01*
X029384Y029459D01*
X029366Y029506D01*
X029353Y029555D01*
X029343Y029604D01*
X029337Y029654D01*
X029335Y029704D01*
X018835Y029704D02*
X018837Y029754D01*
X018843Y029804D01*
X018853Y029853D01*
X018866Y029902D01*
X018884Y029949D01*
X018905Y029995D01*
X018929Y030038D01*
X018957Y030080D01*
X018988Y030120D01*
X019022Y030157D01*
X019059Y030191D01*
X019099Y030222D01*
X019141Y030250D01*
X019184Y030274D01*
X019230Y030295D01*
X019277Y030313D01*
X019326Y030326D01*
X019375Y030336D01*
X019425Y030342D01*
X019475Y030344D01*
X019525Y030342D01*
X019575Y030336D01*
X019624Y030326D01*
X019673Y030313D01*
X019720Y030295D01*
X019766Y030274D01*
X019809Y030250D01*
X019851Y030222D01*
X019891Y030191D01*
X019928Y030157D01*
X019962Y030120D01*
X019993Y030080D01*
X020021Y030038D01*
X020045Y029995D01*
X020066Y029949D01*
X020084Y029902D01*
X020097Y029853D01*
X020107Y029804D01*
X020113Y029754D01*
X020115Y029704D01*
X020113Y029654D01*
X020107Y029604D01*
X020097Y029555D01*
X020084Y029506D01*
X020066Y029459D01*
X020045Y029413D01*
X020021Y029370D01*
X019993Y029328D01*
X019962Y029288D01*
X019928Y029251D01*
X019891Y029217D01*
X019851Y029186D01*
X019809Y029158D01*
X019766Y029134D01*
X019720Y029113D01*
X019673Y029095D01*
X019624Y029082D01*
X019575Y029072D01*
X019525Y029066D01*
X019475Y029064D01*
X019425Y029066D01*
X019375Y029072D01*
X019326Y029082D01*
X019277Y029095D01*
X019230Y029113D01*
X019184Y029134D01*
X019141Y029158D01*
X019099Y029186D01*
X019059Y029217D01*
X019022Y029251D01*
X018988Y029288D01*
X018957Y029328D01*
X018929Y029370D01*
X018905Y029413D01*
X018884Y029459D01*
X018866Y029506D01*
X018853Y029555D01*
X018843Y029604D01*
X018837Y029654D01*
X018835Y029704D01*
X014835Y029704D02*
X014837Y029754D01*
X014843Y029804D01*
X014853Y029853D01*
X014866Y029902D01*
X014884Y029949D01*
X014905Y029995D01*
X014929Y030038D01*
X014957Y030080D01*
X014988Y030120D01*
X015022Y030157D01*
X015059Y030191D01*
X015099Y030222D01*
X015141Y030250D01*
X015184Y030274D01*
X015230Y030295D01*
X015277Y030313D01*
X015326Y030326D01*
X015375Y030336D01*
X015425Y030342D01*
X015475Y030344D01*
X015525Y030342D01*
X015575Y030336D01*
X015624Y030326D01*
X015673Y030313D01*
X015720Y030295D01*
X015766Y030274D01*
X015809Y030250D01*
X015851Y030222D01*
X015891Y030191D01*
X015928Y030157D01*
X015962Y030120D01*
X015993Y030080D01*
X016021Y030038D01*
X016045Y029995D01*
X016066Y029949D01*
X016084Y029902D01*
X016097Y029853D01*
X016107Y029804D01*
X016113Y029754D01*
X016115Y029704D01*
X016113Y029654D01*
X016107Y029604D01*
X016097Y029555D01*
X016084Y029506D01*
X016066Y029459D01*
X016045Y029413D01*
X016021Y029370D01*
X015993Y029328D01*
X015962Y029288D01*
X015928Y029251D01*
X015891Y029217D01*
X015851Y029186D01*
X015809Y029158D01*
X015766Y029134D01*
X015720Y029113D01*
X015673Y029095D01*
X015624Y029082D01*
X015575Y029072D01*
X015525Y029066D01*
X015475Y029064D01*
X015425Y029066D01*
X015375Y029072D01*
X015326Y029082D01*
X015277Y029095D01*
X015230Y029113D01*
X015184Y029134D01*
X015141Y029158D01*
X015099Y029186D01*
X015059Y029217D01*
X015022Y029251D01*
X014988Y029288D01*
X014957Y029328D01*
X014929Y029370D01*
X014905Y029413D01*
X014884Y029459D01*
X014866Y029506D01*
X014853Y029555D01*
X014843Y029604D01*
X014837Y029654D01*
X014835Y029704D01*
X008335Y029704D02*
X008337Y029754D01*
X008343Y029804D01*
X008353Y029853D01*
X008366Y029902D01*
X008384Y029949D01*
X008405Y029995D01*
X008429Y030038D01*
X008457Y030080D01*
X008488Y030120D01*
X008522Y030157D01*
X008559Y030191D01*
X008599Y030222D01*
X008641Y030250D01*
X008684Y030274D01*
X008730Y030295D01*
X008777Y030313D01*
X008826Y030326D01*
X008875Y030336D01*
X008925Y030342D01*
X008975Y030344D01*
X009025Y030342D01*
X009075Y030336D01*
X009124Y030326D01*
X009173Y030313D01*
X009220Y030295D01*
X009266Y030274D01*
X009309Y030250D01*
X009351Y030222D01*
X009391Y030191D01*
X009428Y030157D01*
X009462Y030120D01*
X009493Y030080D01*
X009521Y030038D01*
X009545Y029995D01*
X009566Y029949D01*
X009584Y029902D01*
X009597Y029853D01*
X009607Y029804D01*
X009613Y029754D01*
X009615Y029704D01*
X009613Y029654D01*
X009607Y029604D01*
X009597Y029555D01*
X009584Y029506D01*
X009566Y029459D01*
X009545Y029413D01*
X009521Y029370D01*
X009493Y029328D01*
X009462Y029288D01*
X009428Y029251D01*
X009391Y029217D01*
X009351Y029186D01*
X009309Y029158D01*
X009266Y029134D01*
X009220Y029113D01*
X009173Y029095D01*
X009124Y029082D01*
X009075Y029072D01*
X009025Y029066D01*
X008975Y029064D01*
X008925Y029066D01*
X008875Y029072D01*
X008826Y029082D01*
X008777Y029095D01*
X008730Y029113D01*
X008684Y029134D01*
X008641Y029158D01*
X008599Y029186D01*
X008559Y029217D01*
X008522Y029251D01*
X008488Y029288D01*
X008457Y029328D01*
X008429Y029370D01*
X008405Y029413D01*
X008384Y029459D01*
X008366Y029506D01*
X008353Y029555D01*
X008343Y029604D01*
X008337Y029654D01*
X008335Y029704D01*
X004335Y029704D02*
X004337Y029754D01*
X004343Y029804D01*
X004353Y029853D01*
X004366Y029902D01*
X004384Y029949D01*
X004405Y029995D01*
X004429Y030038D01*
X004457Y030080D01*
X004488Y030120D01*
X004522Y030157D01*
X004559Y030191D01*
X004599Y030222D01*
X004641Y030250D01*
X004684Y030274D01*
X004730Y030295D01*
X004777Y030313D01*
X004826Y030326D01*
X004875Y030336D01*
X004925Y030342D01*
X004975Y030344D01*
X005025Y030342D01*
X005075Y030336D01*
X005124Y030326D01*
X005173Y030313D01*
X005220Y030295D01*
X005266Y030274D01*
X005309Y030250D01*
X005351Y030222D01*
X005391Y030191D01*
X005428Y030157D01*
X005462Y030120D01*
X005493Y030080D01*
X005521Y030038D01*
X005545Y029995D01*
X005566Y029949D01*
X005584Y029902D01*
X005597Y029853D01*
X005607Y029804D01*
X005613Y029754D01*
X005615Y029704D01*
X005613Y029654D01*
X005607Y029604D01*
X005597Y029555D01*
X005584Y029506D01*
X005566Y029459D01*
X005545Y029413D01*
X005521Y029370D01*
X005493Y029328D01*
X005462Y029288D01*
X005428Y029251D01*
X005391Y029217D01*
X005351Y029186D01*
X005309Y029158D01*
X005266Y029134D01*
X005220Y029113D01*
X005173Y029095D01*
X005124Y029082D01*
X005075Y029072D01*
X005025Y029066D01*
X004975Y029064D01*
X004925Y029066D01*
X004875Y029072D01*
X004826Y029082D01*
X004777Y029095D01*
X004730Y029113D01*
X004684Y029134D01*
X004641Y029158D01*
X004599Y029186D01*
X004559Y029217D01*
X004522Y029251D01*
X004488Y029288D01*
X004457Y029328D01*
X004429Y029370D01*
X004405Y029413D01*
X004384Y029459D01*
X004366Y029506D01*
X004353Y029555D01*
X004343Y029604D01*
X004337Y029654D01*
X004335Y029704D01*
X002510Y022066D02*
X002512Y022109D01*
X002518Y022151D01*
X002528Y022193D01*
X002541Y022234D01*
X002559Y022273D01*
X002580Y022311D01*
X002604Y022346D01*
X002631Y022379D01*
X002662Y022410D01*
X002695Y022437D01*
X002730Y022461D01*
X002768Y022482D01*
X002807Y022500D01*
X002848Y022513D01*
X002890Y022523D01*
X002932Y022529D01*
X002975Y022531D01*
X003018Y022529D01*
X003060Y022523D01*
X003102Y022513D01*
X003143Y022500D01*
X003182Y022482D01*
X003220Y022461D01*
X003255Y022437D01*
X003288Y022410D01*
X003319Y022379D01*
X003346Y022346D01*
X003370Y022311D01*
X003391Y022273D01*
X003409Y022234D01*
X003422Y022193D01*
X003432Y022151D01*
X003438Y022109D01*
X003440Y022066D01*
X003438Y022023D01*
X003432Y021981D01*
X003422Y021939D01*
X003409Y021898D01*
X003391Y021859D01*
X003370Y021821D01*
X003346Y021786D01*
X003319Y021753D01*
X003288Y021722D01*
X003255Y021695D01*
X003220Y021671D01*
X003182Y021650D01*
X003143Y021632D01*
X003102Y021619D01*
X003060Y021609D01*
X003018Y021603D01*
X002975Y021601D01*
X002932Y021603D01*
X002890Y021609D01*
X002848Y021619D01*
X002807Y021632D01*
X002768Y021650D01*
X002730Y021671D01*
X002695Y021695D01*
X002662Y021722D01*
X002631Y021753D01*
X002604Y021786D01*
X002580Y021821D01*
X002559Y021859D01*
X002541Y021898D01*
X002528Y021939D01*
X002518Y021981D01*
X002512Y022023D01*
X002510Y022066D01*
X002510Y017342D02*
X002512Y017385D01*
X002518Y017427D01*
X002528Y017469D01*
X002541Y017510D01*
X002559Y017549D01*
X002580Y017587D01*
X002604Y017622D01*
X002631Y017655D01*
X002662Y017686D01*
X002695Y017713D01*
X002730Y017737D01*
X002768Y017758D01*
X002807Y017776D01*
X002848Y017789D01*
X002890Y017799D01*
X002932Y017805D01*
X002975Y017807D01*
X003018Y017805D01*
X003060Y017799D01*
X003102Y017789D01*
X003143Y017776D01*
X003182Y017758D01*
X003220Y017737D01*
X003255Y017713D01*
X003288Y017686D01*
X003319Y017655D01*
X003346Y017622D01*
X003370Y017587D01*
X003391Y017549D01*
X003409Y017510D01*
X003422Y017469D01*
X003432Y017427D01*
X003438Y017385D01*
X003440Y017342D01*
X003438Y017299D01*
X003432Y017257D01*
X003422Y017215D01*
X003409Y017174D01*
X003391Y017135D01*
X003370Y017097D01*
X003346Y017062D01*
X003319Y017029D01*
X003288Y016998D01*
X003255Y016971D01*
X003220Y016947D01*
X003182Y016926D01*
X003143Y016908D01*
X003102Y016895D01*
X003060Y016885D01*
X003018Y016879D01*
X002975Y016877D01*
X002932Y016879D01*
X002890Y016885D01*
X002848Y016895D01*
X002807Y016908D01*
X002768Y016926D01*
X002730Y016947D01*
X002695Y016971D01*
X002662Y016998D01*
X002631Y017029D01*
X002604Y017062D01*
X002580Y017097D01*
X002559Y017135D01*
X002541Y017174D01*
X002528Y017215D01*
X002518Y017257D01*
X002512Y017299D01*
X002510Y017342D01*
X002510Y016066D02*
X002512Y016109D01*
X002518Y016151D01*
X002528Y016193D01*
X002541Y016234D01*
X002559Y016273D01*
X002580Y016311D01*
X002604Y016346D01*
X002631Y016379D01*
X002662Y016410D01*
X002695Y016437D01*
X002730Y016461D01*
X002768Y016482D01*
X002807Y016500D01*
X002848Y016513D01*
X002890Y016523D01*
X002932Y016529D01*
X002975Y016531D01*
X003018Y016529D01*
X003060Y016523D01*
X003102Y016513D01*
X003143Y016500D01*
X003182Y016482D01*
X003220Y016461D01*
X003255Y016437D01*
X003288Y016410D01*
X003319Y016379D01*
X003346Y016346D01*
X003370Y016311D01*
X003391Y016273D01*
X003409Y016234D01*
X003422Y016193D01*
X003432Y016151D01*
X003438Y016109D01*
X003440Y016066D01*
X003438Y016023D01*
X003432Y015981D01*
X003422Y015939D01*
X003409Y015898D01*
X003391Y015859D01*
X003370Y015821D01*
X003346Y015786D01*
X003319Y015753D01*
X003288Y015722D01*
X003255Y015695D01*
X003220Y015671D01*
X003182Y015650D01*
X003143Y015632D01*
X003102Y015619D01*
X003060Y015609D01*
X003018Y015603D01*
X002975Y015601D01*
X002932Y015603D01*
X002890Y015609D01*
X002848Y015619D01*
X002807Y015632D01*
X002768Y015650D01*
X002730Y015671D01*
X002695Y015695D01*
X002662Y015722D01*
X002631Y015753D01*
X002604Y015786D01*
X002580Y015821D01*
X002559Y015859D01*
X002541Y015898D01*
X002528Y015939D01*
X002518Y015981D01*
X002512Y016023D01*
X002510Y016066D01*
X002510Y011342D02*
X002512Y011385D01*
X002518Y011427D01*
X002528Y011469D01*
X002541Y011510D01*
X002559Y011549D01*
X002580Y011587D01*
X002604Y011622D01*
X002631Y011655D01*
X002662Y011686D01*
X002695Y011713D01*
X002730Y011737D01*
X002768Y011758D01*
X002807Y011776D01*
X002848Y011789D01*
X002890Y011799D01*
X002932Y011805D01*
X002975Y011807D01*
X003018Y011805D01*
X003060Y011799D01*
X003102Y011789D01*
X003143Y011776D01*
X003182Y011758D01*
X003220Y011737D01*
X003255Y011713D01*
X003288Y011686D01*
X003319Y011655D01*
X003346Y011622D01*
X003370Y011587D01*
X003391Y011549D01*
X003409Y011510D01*
X003422Y011469D01*
X003432Y011427D01*
X003438Y011385D01*
X003440Y011342D01*
X003438Y011299D01*
X003432Y011257D01*
X003422Y011215D01*
X003409Y011174D01*
X003391Y011135D01*
X003370Y011097D01*
X003346Y011062D01*
X003319Y011029D01*
X003288Y010998D01*
X003255Y010971D01*
X003220Y010947D01*
X003182Y010926D01*
X003143Y010908D01*
X003102Y010895D01*
X003060Y010885D01*
X003018Y010879D01*
X002975Y010877D01*
X002932Y010879D01*
X002890Y010885D01*
X002848Y010895D01*
X002807Y010908D01*
X002768Y010926D01*
X002730Y010947D01*
X002695Y010971D01*
X002662Y010998D01*
X002631Y011029D01*
X002604Y011062D01*
X002580Y011097D01*
X002559Y011135D01*
X002541Y011174D01*
X002528Y011215D01*
X002518Y011257D01*
X002512Y011299D01*
X002510Y011342D01*
D11*
X004935Y009904D02*
X007515Y009904D01*
X007515Y008504D01*
X004935Y008504D01*
X004935Y009904D01*
X002675Y006994D02*
X001275Y006994D01*
X001275Y004414D01*
X002675Y004414D01*
X002675Y006994D01*
X011775Y006994D02*
X011775Y004414D01*
X013175Y004414D01*
X013175Y006994D01*
X011775Y006994D01*
X015435Y008504D02*
X015435Y009904D01*
X018015Y009904D01*
X018015Y008504D01*
X015435Y008504D01*
X022275Y006994D02*
X022275Y004414D01*
X023675Y004414D01*
X023675Y006994D01*
X022275Y006994D01*
X025935Y008504D02*
X028515Y008504D01*
X028515Y009904D01*
X025935Y009904D01*
X025935Y008504D01*
X026935Y023004D02*
X029515Y023004D01*
X029515Y024404D01*
X026935Y024404D01*
X026935Y023004D01*
X022675Y025914D02*
X022675Y028494D01*
X021275Y028494D01*
X021275Y025914D01*
X022675Y025914D01*
X019015Y024404D02*
X019015Y023004D01*
X016435Y023004D01*
X016435Y024404D01*
X019015Y024404D01*
X012175Y025914D02*
X012175Y028494D01*
X010775Y028494D01*
X010775Y025914D01*
X012175Y025914D01*
X008515Y024404D02*
X008515Y023004D01*
X005935Y023004D01*
X005935Y024404D01*
X008515Y024404D01*
X031775Y025914D02*
X033175Y025914D01*
X033175Y028494D01*
X031775Y028494D01*
X031775Y025914D01*
D12*
X031975Y026224D02*
X031975Y026454D01*
X032052Y026531D01*
X032128Y026531D01*
X032205Y026454D01*
X032205Y026224D01*
X032205Y026454D02*
X032282Y026531D01*
X032359Y026531D01*
X032435Y026454D01*
X032435Y026224D01*
X031975Y026224D01*
X032052Y026684D02*
X031975Y026761D01*
X031975Y026914D01*
X032052Y026991D01*
X032128Y026991D01*
X032205Y026914D01*
X032205Y026761D01*
X032282Y026684D01*
X032359Y026684D01*
X032435Y026761D01*
X032435Y026914D01*
X032359Y026991D01*
X032435Y027145D02*
X031975Y027145D01*
X032128Y027145D02*
X032128Y027375D01*
X032205Y027451D01*
X032359Y027451D01*
X032435Y027375D01*
X032435Y027145D01*
X032435Y027605D02*
X032435Y027912D01*
X032359Y027912D01*
X032052Y027605D01*
X031975Y027605D01*
X032052Y028065D02*
X031975Y028142D01*
X031975Y028296D01*
X032052Y028372D01*
X032205Y028372D01*
X032282Y028296D01*
X032282Y028219D01*
X032205Y028065D01*
X032435Y028065D01*
X032435Y028372D01*
X029507Y024204D02*
X029277Y024204D01*
X029200Y024127D01*
X029200Y024051D01*
X029277Y023974D01*
X029507Y023974D01*
X029507Y023744D02*
X029507Y024204D01*
X029277Y023974D02*
X029200Y023897D01*
X029200Y023821D01*
X029277Y023744D01*
X029507Y023744D01*
X029047Y023821D02*
X028970Y023744D01*
X028816Y023744D01*
X028740Y023821D01*
X028740Y023897D01*
X028816Y023974D01*
X028970Y023974D01*
X029047Y024051D01*
X029047Y024127D01*
X028970Y024204D01*
X028816Y024204D01*
X028740Y024127D01*
X028586Y024204D02*
X028356Y024204D01*
X028279Y024127D01*
X028279Y023974D01*
X028356Y023897D01*
X028586Y023897D01*
X028586Y023744D02*
X028586Y024204D01*
X028126Y024204D02*
X027819Y024204D01*
X027819Y024127D01*
X028126Y023821D01*
X028126Y023744D01*
X027665Y023821D02*
X027589Y023744D01*
X027435Y023744D01*
X027358Y023821D01*
X027358Y023974D01*
X027435Y024051D01*
X027512Y024051D01*
X027665Y023974D01*
X027665Y024204D01*
X027358Y024204D01*
X021935Y026224D02*
X021935Y026454D01*
X021859Y026531D01*
X021782Y026531D01*
X021705Y026454D01*
X021705Y026224D01*
X021705Y026454D02*
X021628Y026531D01*
X021552Y026531D01*
X021475Y026454D01*
X021475Y026224D01*
X021935Y026224D01*
X021859Y026684D02*
X021782Y026684D01*
X021705Y026761D01*
X021705Y026914D01*
X021628Y026991D01*
X021552Y026991D01*
X021475Y026914D01*
X021475Y026761D01*
X021552Y026684D01*
X021859Y026684D02*
X021935Y026761D01*
X021935Y026914D01*
X021859Y026991D01*
X021935Y027145D02*
X021475Y027145D01*
X021628Y027145D02*
X021628Y027375D01*
X021705Y027451D01*
X021859Y027451D01*
X021935Y027375D01*
X021935Y027145D01*
X021935Y027605D02*
X021935Y027912D01*
X021859Y027912D01*
X021552Y027605D01*
X021475Y027605D01*
X021552Y028065D02*
X021475Y028142D01*
X021475Y028296D01*
X021552Y028372D01*
X021705Y028372D01*
X021782Y028296D01*
X021782Y028219D01*
X021705Y028065D01*
X021935Y028065D01*
X021935Y028372D01*
X019007Y024204D02*
X018777Y024204D01*
X018700Y024127D01*
X018700Y024051D01*
X018777Y023974D01*
X019007Y023974D01*
X019007Y023744D02*
X019007Y024204D01*
X018777Y023974D02*
X018700Y023897D01*
X018700Y023821D01*
X018777Y023744D01*
X019007Y023744D01*
X018547Y023821D02*
X018470Y023744D01*
X018316Y023744D01*
X018240Y023821D01*
X018240Y023897D01*
X018316Y023974D01*
X018470Y023974D01*
X018547Y024051D01*
X018547Y024127D01*
X018470Y024204D01*
X018316Y024204D01*
X018240Y024127D01*
X018086Y024204D02*
X018086Y023744D01*
X018086Y023897D02*
X017856Y023897D01*
X017779Y023974D01*
X017779Y024127D01*
X017856Y024204D01*
X018086Y024204D01*
X017626Y024204D02*
X017319Y024204D01*
X017319Y024127D01*
X017626Y023821D01*
X017626Y023744D01*
X017165Y023821D02*
X017089Y023744D01*
X016935Y023744D01*
X016858Y023821D01*
X016858Y023974D01*
X016935Y024051D01*
X017012Y024051D01*
X017165Y023974D01*
X017165Y024204D01*
X016858Y024204D01*
X011435Y026224D02*
X011435Y026454D01*
X011359Y026531D01*
X011282Y026531D01*
X011205Y026454D01*
X011205Y026224D01*
X011205Y026454D02*
X011128Y026531D01*
X011052Y026531D01*
X010975Y026454D01*
X010975Y026224D01*
X011435Y026224D01*
X011359Y026684D02*
X011282Y026684D01*
X011205Y026761D01*
X011205Y026914D01*
X011128Y026991D01*
X011052Y026991D01*
X010975Y026914D01*
X010975Y026761D01*
X011052Y026684D01*
X011359Y026684D02*
X011435Y026761D01*
X011435Y026914D01*
X011359Y026991D01*
X011435Y027145D02*
X010975Y027145D01*
X011128Y027145D02*
X011128Y027375D01*
X011205Y027451D01*
X011359Y027451D01*
X011435Y027375D01*
X011435Y027145D01*
X011435Y027605D02*
X011435Y027912D01*
X011359Y027912D01*
X011052Y027605D01*
X010975Y027605D01*
X011052Y028065D02*
X010975Y028142D01*
X010975Y028296D01*
X011052Y028372D01*
X011205Y028372D01*
X011282Y028296D01*
X011282Y028219D01*
X011205Y028065D01*
X011435Y028065D01*
X011435Y028372D01*
X008507Y024204D02*
X008277Y024204D01*
X008200Y024127D01*
X008200Y024051D01*
X008277Y023974D01*
X008507Y023974D01*
X008507Y023744D02*
X008507Y024204D01*
X008277Y023974D02*
X008200Y023897D01*
X008200Y023821D01*
X008277Y023744D01*
X008507Y023744D01*
X008047Y023821D02*
X007970Y023744D01*
X007816Y023744D01*
X007740Y023821D01*
X007740Y023897D01*
X007816Y023974D01*
X007970Y023974D01*
X008047Y024051D01*
X008047Y024127D01*
X007970Y024204D01*
X007816Y024204D01*
X007740Y024127D01*
X007586Y024204D02*
X007356Y024204D01*
X007279Y024127D01*
X007279Y023974D01*
X007356Y023897D01*
X007586Y023897D01*
X007586Y023744D02*
X007586Y024204D01*
X007126Y024204D02*
X006819Y024204D01*
X006819Y024127D01*
X007126Y023821D01*
X007126Y023744D01*
X006665Y023821D02*
X006589Y023744D01*
X006435Y023744D01*
X006358Y023821D01*
X006358Y023974D01*
X006435Y024051D01*
X006512Y024051D01*
X006665Y023974D01*
X006665Y024204D01*
X006358Y024204D01*
X006284Y009164D02*
X006054Y009164D01*
X005977Y009087D01*
X005977Y008934D01*
X006054Y008857D01*
X006284Y008857D01*
X006284Y008704D02*
X006284Y009164D01*
X006438Y009087D02*
X006514Y009164D01*
X006668Y009164D01*
X006745Y009087D01*
X006745Y009011D01*
X006668Y008934D01*
X006514Y008934D01*
X006438Y008857D01*
X006438Y008781D01*
X006514Y008704D01*
X006668Y008704D01*
X006745Y008781D01*
X006898Y008781D02*
X006975Y008704D01*
X007205Y008704D01*
X007205Y009164D01*
X006975Y009164D01*
X006898Y009087D01*
X006898Y009011D01*
X006975Y008934D01*
X007205Y008934D01*
X006975Y008934D02*
X006898Y008857D01*
X006898Y008781D01*
X005824Y008781D02*
X005824Y008704D01*
X005824Y008781D02*
X005517Y009087D01*
X005517Y009164D01*
X005824Y009164D01*
X005363Y009164D02*
X005363Y008934D01*
X005210Y009011D01*
X005133Y009011D01*
X005057Y008934D01*
X005057Y008781D01*
X005133Y008704D01*
X005287Y008704D01*
X005363Y008781D01*
X005363Y009164D02*
X005057Y009164D01*
X002475Y006570D02*
X002475Y006263D01*
X002245Y006263D01*
X002322Y006417D01*
X002322Y006494D01*
X002245Y006570D01*
X002092Y006570D01*
X002015Y006494D01*
X002015Y006340D01*
X002092Y006263D01*
X002399Y006110D02*
X002092Y005803D01*
X002015Y005803D01*
X002245Y005650D02*
X002168Y005573D01*
X002168Y005343D01*
X002015Y005343D02*
X002475Y005343D01*
X002475Y005573D01*
X002399Y005650D01*
X002245Y005650D01*
X002475Y005803D02*
X002475Y006110D01*
X002399Y006110D01*
X002399Y005189D02*
X002475Y005112D01*
X002475Y004959D01*
X002399Y004882D01*
X002322Y004882D01*
X002245Y004959D01*
X002245Y005112D01*
X002168Y005189D01*
X002092Y005189D01*
X002015Y005112D01*
X002015Y004959D01*
X002092Y004882D01*
X002092Y004729D02*
X002015Y004652D01*
X002015Y004422D01*
X002475Y004422D01*
X002475Y004652D01*
X002399Y004729D01*
X002322Y004729D01*
X002245Y004652D01*
X002245Y004422D01*
X002245Y004652D02*
X002168Y004729D01*
X002092Y004729D01*
X012515Y004652D02*
X012515Y004422D01*
X012975Y004422D01*
X012975Y004652D01*
X012899Y004729D01*
X012822Y004729D01*
X012745Y004652D01*
X012745Y004422D01*
X012745Y004652D02*
X012668Y004729D01*
X012592Y004729D01*
X012515Y004652D01*
X012592Y004882D02*
X012515Y004959D01*
X012515Y005112D01*
X012592Y005189D01*
X012668Y005189D01*
X012745Y005112D01*
X012745Y004959D01*
X012822Y004882D01*
X012899Y004882D01*
X012975Y004959D01*
X012975Y005112D01*
X012899Y005189D01*
X012975Y005343D02*
X012515Y005343D01*
X012668Y005343D02*
X012668Y005573D01*
X012745Y005650D01*
X012899Y005650D01*
X012975Y005573D01*
X012975Y005343D01*
X012975Y005803D02*
X012975Y006110D01*
X012899Y006110D01*
X012592Y005803D01*
X012515Y005803D01*
X012592Y006263D02*
X012515Y006340D01*
X012515Y006494D01*
X012592Y006570D01*
X012745Y006570D01*
X012822Y006494D01*
X012822Y006417D01*
X012745Y006263D01*
X012975Y006263D01*
X012975Y006570D01*
X015557Y008781D02*
X015633Y008704D01*
X015787Y008704D01*
X015863Y008781D01*
X015863Y008934D02*
X015710Y009011D01*
X015633Y009011D01*
X015557Y008934D01*
X015557Y008781D01*
X015863Y008934D02*
X015863Y009164D01*
X015557Y009164D01*
X016017Y009164D02*
X016017Y009087D01*
X016324Y008781D01*
X016324Y008704D01*
X016477Y008934D02*
X016554Y008857D01*
X016784Y008857D01*
X016784Y008704D02*
X016784Y009164D01*
X016554Y009164D01*
X016477Y009087D01*
X016477Y008934D01*
X016324Y009164D02*
X016017Y009164D01*
X016938Y009087D02*
X017014Y009164D01*
X017168Y009164D01*
X017245Y009087D01*
X017245Y009011D01*
X017168Y008934D01*
X017014Y008934D01*
X016938Y008857D01*
X016938Y008781D01*
X017014Y008704D01*
X017168Y008704D01*
X017245Y008781D01*
X017398Y008781D02*
X017475Y008704D01*
X017705Y008704D01*
X017705Y009164D01*
X017475Y009164D01*
X017398Y009087D01*
X017398Y009011D01*
X017475Y008934D01*
X017705Y008934D01*
X017475Y008934D02*
X017398Y008857D01*
X017398Y008781D01*
X023015Y006494D02*
X023015Y006340D01*
X023092Y006263D01*
X023245Y006263D02*
X023322Y006417D01*
X023322Y006494D01*
X023245Y006570D01*
X023092Y006570D01*
X023015Y006494D01*
X023245Y006263D02*
X023475Y006263D01*
X023475Y006570D01*
X023475Y006110D02*
X023399Y006110D01*
X023092Y005803D01*
X023015Y005803D01*
X023245Y005650D02*
X023168Y005573D01*
X023168Y005343D01*
X023015Y005343D02*
X023475Y005343D01*
X023475Y005573D01*
X023399Y005650D01*
X023245Y005650D01*
X023475Y005803D02*
X023475Y006110D01*
X023399Y005189D02*
X023475Y005112D01*
X023475Y004959D01*
X023399Y004882D01*
X023322Y004882D01*
X023245Y004959D01*
X023245Y005112D01*
X023168Y005189D01*
X023092Y005189D01*
X023015Y005112D01*
X023015Y004959D01*
X023092Y004882D01*
X023092Y004729D02*
X023015Y004652D01*
X023015Y004422D01*
X023475Y004422D01*
X023475Y004652D01*
X023399Y004729D01*
X023322Y004729D01*
X023245Y004652D01*
X023245Y004422D01*
X023245Y004652D02*
X023168Y004729D01*
X023092Y004729D01*
X026133Y008704D02*
X026057Y008781D01*
X026057Y008934D01*
X026133Y009011D01*
X026210Y009011D01*
X026363Y008934D01*
X026363Y009164D01*
X026057Y009164D01*
X026133Y008704D02*
X026287Y008704D01*
X026363Y008781D01*
X026517Y009087D02*
X026824Y008781D01*
X026824Y008704D01*
X026977Y008934D02*
X027054Y008857D01*
X027284Y008857D01*
X027284Y008704D02*
X027284Y009164D01*
X027054Y009164D01*
X026977Y009087D01*
X026977Y008934D01*
X026824Y009164D02*
X026517Y009164D01*
X026517Y009087D01*
X027438Y009087D02*
X027514Y009164D01*
X027668Y009164D01*
X027745Y009087D01*
X027745Y009011D01*
X027668Y008934D01*
X027514Y008934D01*
X027438Y008857D01*
X027438Y008781D01*
X027514Y008704D01*
X027668Y008704D01*
X027745Y008781D01*
X027898Y008781D02*
X027975Y008704D01*
X028205Y008704D01*
X028205Y009164D01*
X027975Y009164D01*
X027898Y009087D01*
X027898Y009011D01*
X027975Y008934D01*
X028205Y008934D01*
X027975Y008934D02*
X027898Y008857D01*
X027898Y008781D01*
D13*
X021900Y005704D03*
X021900Y005704D03*
X011400Y005704D03*
X011400Y005704D03*
X000900Y005704D03*
X000900Y005704D03*
X012550Y027204D03*
X012550Y027204D03*
X023050Y027204D03*
X023050Y027204D03*
X033550Y027204D03*
X033550Y027204D03*
D14*
X031400Y027204D03*
X031400Y027204D03*
X031400Y028114D03*
X031400Y028114D03*
X031400Y026294D03*
X031400Y026294D03*
X020900Y026294D03*
X020900Y026294D03*
X020900Y027204D03*
X020900Y027204D03*
X020900Y028114D03*
X020900Y028114D03*
X010400Y028114D03*
X010400Y028114D03*
X010400Y027204D03*
X010400Y027204D03*
X010400Y026294D03*
X010400Y026294D03*
X013550Y006614D03*
X013550Y006614D03*
X013550Y005704D03*
X013550Y005704D03*
X013550Y004794D03*
X013550Y004794D03*
X003050Y004794D03*
X003050Y004794D03*
X003050Y005704D03*
X003050Y005704D03*
X003050Y006614D03*
X003050Y006614D03*
X024050Y006614D03*
X024050Y006614D03*
X024050Y005704D03*
X024050Y005704D03*
X024050Y004794D03*
X024050Y004794D03*
D15*
X027225Y010279D03*
X027225Y010279D03*
X016725Y010279D03*
X016725Y010279D03*
X006225Y010279D03*
X006225Y010279D03*
X007225Y022629D03*
X007225Y022629D03*
X017725Y022629D03*
X017725Y022629D03*
X028225Y022629D03*
X028225Y022629D03*
D16*
X028225Y024779D03*
X028225Y024779D03*
X027315Y024779D03*
X027315Y024779D03*
X029135Y024779D03*
X029135Y024779D03*
X018635Y024779D03*
X018635Y024779D03*
X017725Y024779D03*
X017725Y024779D03*
X016815Y024779D03*
X016815Y024779D03*
X008135Y024779D03*
X008135Y024779D03*
X007225Y024779D03*
X007225Y024779D03*
X006315Y024779D03*
X006315Y024779D03*
X006225Y008129D03*
X006225Y008129D03*
X005315Y008129D03*
X005315Y008129D03*
X007135Y008129D03*
X007135Y008129D03*
X015815Y008129D03*
X015815Y008129D03*
X016725Y008129D03*
X016725Y008129D03*
X017635Y008129D03*
X017635Y008129D03*
X026315Y008129D03*
X026315Y008129D03*
X027225Y008129D03*
X027225Y008129D03*
X028135Y008129D03*
X028135Y008129D03*
M02*
