%
M48
M72
T01C0.0120
T02C0.0315
T03C0.0350
T04C0.0354
T05C0.0591
T06C0.0929
T07C0.0935
T08C0.0984
T09C0.1280
T10C0.1575
%
T01
X3730Y7134
X7525Y8399
X7470Y10874
X10330Y11204
X15280Y14669
X17095Y15549
X17370Y15384
X17865Y14669
X18140Y13844
X18855Y15274
X18195Y15494
X16270Y17694
X15390Y17804
X14840Y17859
X17150Y19399
X21275Y19124
X22375Y16374
X22375Y15769
X23090Y16044
X22760Y11864
X23365Y10929
X24190Y10104
X24190Y8619
X28095Y8619
X28095Y11149
X25125Y14119
X26170Y14559
X26885Y24514
X26720Y23139
X30735Y25779
X20230Y25779
X16380Y24514
X13410Y23139
X10715Y25834
X7140Y21984
X9780Y19784
X10550Y18189
X9120Y16759
X18800Y8399
X19075Y8619
X17920Y10874
X17865Y11204
X17810Y12084
T02
X3881Y13097
X4881Y12704
X4881Y13507
X4881Y14310
X3881Y14704
X3881Y13901
X3881Y19097
X3881Y19901
X3881Y20704
X4881Y20310
X4881Y19507
X4881Y18704
T03
X22725Y13304
X22725Y14104
X24725Y13704
T04
X5725Y27204
X6725Y27204
X7725Y27204
X7225Y26204
X8225Y26204
X6225Y26204
X16225Y27204
X17225Y27204
X18225Y27204
X17725Y26204
X16725Y26204
X18725Y26204
X26725Y27204
X27725Y27204
X28725Y27204
X28225Y26204
X27225Y26204
X29225Y26204
X28225Y6704
X27225Y6704
X26225Y6704
X26725Y5704
X27725Y5704
X28725Y5704
X18225Y5704
X17225Y5704
X16225Y5704
X15725Y6704
X16725Y6704
X17725Y6704
X7725Y5704
X6725Y5704
X5725Y5704
X5225Y6704
X6225Y6704
X7225Y6704
T05
X32475Y13204
X32475Y15204
X32475Y17204
X32475Y19204
T06
X2975Y22066
X2975Y17342
X2975Y16066
X2975Y11342
T07
X24725Y14704
X24725Y12704
X23475Y12704
X23475Y14704
T08
X33475Y12204
X33475Y20204
T09
X4475Y3204
X8475Y3204
X14975Y3204
X18975Y3204
X25475Y3204
X29475Y3204
X25975Y29704
X29975Y29704
X19475Y29704
X15475Y29704
X8975Y29704
X4975Y29704
T10
X36475Y14204
X36475Y18204
M30
