G75*
%MOIN*%
%OFA0B0*%
%FSLAX24Y24*%
%IPPOS*%
%LPD*%
%AMOC8*
5,1,8,0,0,1.08239X$1,22.5*
%
%ADD10C,0.0000*%
%ADD11C,0.0060*%
%ADD12C,0.0030*%
%ADD13R,0.0180X0.0390*%
%ADD14R,0.0390X0.0180*%
%ADD15C,0.0040*%
%ADD16R,0.0230X0.0720*%
%ADD17R,0.0295X0.0669*%
%ADD18R,0.0669X0.0295*%
%ADD19C,0.0080*%
%ADD20C,0.0010*%
%ADD21R,0.0374X0.0197*%
%ADD22R,0.0300X0.0180*%
%ADD23R,0.0354X0.0157*%
%ADD24R,0.0059X0.0118*%
%ADD25R,0.0118X0.0118*%
%ADD26R,0.0364X0.0450*%
%ADD27R,0.0730X0.1260*%
%ADD28R,0.0730X0.0340*%
D10*
X000100Y000204D02*
X000100Y032825D01*
X037720Y032825D01*
X037720Y000204D01*
X000100Y000204D01*
X003835Y003204D02*
X003837Y003254D01*
X003843Y003304D01*
X003853Y003353D01*
X003866Y003402D01*
X003884Y003449D01*
X003905Y003495D01*
X003929Y003538D01*
X003957Y003580D01*
X003988Y003620D01*
X004022Y003657D01*
X004059Y003691D01*
X004099Y003722D01*
X004141Y003750D01*
X004184Y003774D01*
X004230Y003795D01*
X004277Y003813D01*
X004326Y003826D01*
X004375Y003836D01*
X004425Y003842D01*
X004475Y003844D01*
X004525Y003842D01*
X004575Y003836D01*
X004624Y003826D01*
X004673Y003813D01*
X004720Y003795D01*
X004766Y003774D01*
X004809Y003750D01*
X004851Y003722D01*
X004891Y003691D01*
X004928Y003657D01*
X004962Y003620D01*
X004993Y003580D01*
X005021Y003538D01*
X005045Y003495D01*
X005066Y003449D01*
X005084Y003402D01*
X005097Y003353D01*
X005107Y003304D01*
X005113Y003254D01*
X005115Y003204D01*
X005113Y003154D01*
X005107Y003104D01*
X005097Y003055D01*
X005084Y003006D01*
X005066Y002959D01*
X005045Y002913D01*
X005021Y002870D01*
X004993Y002828D01*
X004962Y002788D01*
X004928Y002751D01*
X004891Y002717D01*
X004851Y002686D01*
X004809Y002658D01*
X004766Y002634D01*
X004720Y002613D01*
X004673Y002595D01*
X004624Y002582D01*
X004575Y002572D01*
X004525Y002566D01*
X004475Y002564D01*
X004425Y002566D01*
X004375Y002572D01*
X004326Y002582D01*
X004277Y002595D01*
X004230Y002613D01*
X004184Y002634D01*
X004141Y002658D01*
X004099Y002686D01*
X004059Y002717D01*
X004022Y002751D01*
X003988Y002788D01*
X003957Y002828D01*
X003929Y002870D01*
X003905Y002913D01*
X003884Y002959D01*
X003866Y003006D01*
X003853Y003055D01*
X003843Y003104D01*
X003837Y003154D01*
X003835Y003204D01*
X007835Y003204D02*
X007837Y003254D01*
X007843Y003304D01*
X007853Y003353D01*
X007866Y003402D01*
X007884Y003449D01*
X007905Y003495D01*
X007929Y003538D01*
X007957Y003580D01*
X007988Y003620D01*
X008022Y003657D01*
X008059Y003691D01*
X008099Y003722D01*
X008141Y003750D01*
X008184Y003774D01*
X008230Y003795D01*
X008277Y003813D01*
X008326Y003826D01*
X008375Y003836D01*
X008425Y003842D01*
X008475Y003844D01*
X008525Y003842D01*
X008575Y003836D01*
X008624Y003826D01*
X008673Y003813D01*
X008720Y003795D01*
X008766Y003774D01*
X008809Y003750D01*
X008851Y003722D01*
X008891Y003691D01*
X008928Y003657D01*
X008962Y003620D01*
X008993Y003580D01*
X009021Y003538D01*
X009045Y003495D01*
X009066Y003449D01*
X009084Y003402D01*
X009097Y003353D01*
X009107Y003304D01*
X009113Y003254D01*
X009115Y003204D01*
X009113Y003154D01*
X009107Y003104D01*
X009097Y003055D01*
X009084Y003006D01*
X009066Y002959D01*
X009045Y002913D01*
X009021Y002870D01*
X008993Y002828D01*
X008962Y002788D01*
X008928Y002751D01*
X008891Y002717D01*
X008851Y002686D01*
X008809Y002658D01*
X008766Y002634D01*
X008720Y002613D01*
X008673Y002595D01*
X008624Y002582D01*
X008575Y002572D01*
X008525Y002566D01*
X008475Y002564D01*
X008425Y002566D01*
X008375Y002572D01*
X008326Y002582D01*
X008277Y002595D01*
X008230Y002613D01*
X008184Y002634D01*
X008141Y002658D01*
X008099Y002686D01*
X008059Y002717D01*
X008022Y002751D01*
X007988Y002788D01*
X007957Y002828D01*
X007929Y002870D01*
X007905Y002913D01*
X007884Y002959D01*
X007866Y003006D01*
X007853Y003055D01*
X007843Y003104D01*
X007837Y003154D01*
X007835Y003204D01*
X014335Y003204D02*
X014337Y003254D01*
X014343Y003304D01*
X014353Y003353D01*
X014366Y003402D01*
X014384Y003449D01*
X014405Y003495D01*
X014429Y003538D01*
X014457Y003580D01*
X014488Y003620D01*
X014522Y003657D01*
X014559Y003691D01*
X014599Y003722D01*
X014641Y003750D01*
X014684Y003774D01*
X014730Y003795D01*
X014777Y003813D01*
X014826Y003826D01*
X014875Y003836D01*
X014925Y003842D01*
X014975Y003844D01*
X015025Y003842D01*
X015075Y003836D01*
X015124Y003826D01*
X015173Y003813D01*
X015220Y003795D01*
X015266Y003774D01*
X015309Y003750D01*
X015351Y003722D01*
X015391Y003691D01*
X015428Y003657D01*
X015462Y003620D01*
X015493Y003580D01*
X015521Y003538D01*
X015545Y003495D01*
X015566Y003449D01*
X015584Y003402D01*
X015597Y003353D01*
X015607Y003304D01*
X015613Y003254D01*
X015615Y003204D01*
X015613Y003154D01*
X015607Y003104D01*
X015597Y003055D01*
X015584Y003006D01*
X015566Y002959D01*
X015545Y002913D01*
X015521Y002870D01*
X015493Y002828D01*
X015462Y002788D01*
X015428Y002751D01*
X015391Y002717D01*
X015351Y002686D01*
X015309Y002658D01*
X015266Y002634D01*
X015220Y002613D01*
X015173Y002595D01*
X015124Y002582D01*
X015075Y002572D01*
X015025Y002566D01*
X014975Y002564D01*
X014925Y002566D01*
X014875Y002572D01*
X014826Y002582D01*
X014777Y002595D01*
X014730Y002613D01*
X014684Y002634D01*
X014641Y002658D01*
X014599Y002686D01*
X014559Y002717D01*
X014522Y002751D01*
X014488Y002788D01*
X014457Y002828D01*
X014429Y002870D01*
X014405Y002913D01*
X014384Y002959D01*
X014366Y003006D01*
X014353Y003055D01*
X014343Y003104D01*
X014337Y003154D01*
X014335Y003204D01*
X018335Y003204D02*
X018337Y003254D01*
X018343Y003304D01*
X018353Y003353D01*
X018366Y003402D01*
X018384Y003449D01*
X018405Y003495D01*
X018429Y003538D01*
X018457Y003580D01*
X018488Y003620D01*
X018522Y003657D01*
X018559Y003691D01*
X018599Y003722D01*
X018641Y003750D01*
X018684Y003774D01*
X018730Y003795D01*
X018777Y003813D01*
X018826Y003826D01*
X018875Y003836D01*
X018925Y003842D01*
X018975Y003844D01*
X019025Y003842D01*
X019075Y003836D01*
X019124Y003826D01*
X019173Y003813D01*
X019220Y003795D01*
X019266Y003774D01*
X019309Y003750D01*
X019351Y003722D01*
X019391Y003691D01*
X019428Y003657D01*
X019462Y003620D01*
X019493Y003580D01*
X019521Y003538D01*
X019545Y003495D01*
X019566Y003449D01*
X019584Y003402D01*
X019597Y003353D01*
X019607Y003304D01*
X019613Y003254D01*
X019615Y003204D01*
X019613Y003154D01*
X019607Y003104D01*
X019597Y003055D01*
X019584Y003006D01*
X019566Y002959D01*
X019545Y002913D01*
X019521Y002870D01*
X019493Y002828D01*
X019462Y002788D01*
X019428Y002751D01*
X019391Y002717D01*
X019351Y002686D01*
X019309Y002658D01*
X019266Y002634D01*
X019220Y002613D01*
X019173Y002595D01*
X019124Y002582D01*
X019075Y002572D01*
X019025Y002566D01*
X018975Y002564D01*
X018925Y002566D01*
X018875Y002572D01*
X018826Y002582D01*
X018777Y002595D01*
X018730Y002613D01*
X018684Y002634D01*
X018641Y002658D01*
X018599Y002686D01*
X018559Y002717D01*
X018522Y002751D01*
X018488Y002788D01*
X018457Y002828D01*
X018429Y002870D01*
X018405Y002913D01*
X018384Y002959D01*
X018366Y003006D01*
X018353Y003055D01*
X018343Y003104D01*
X018337Y003154D01*
X018335Y003204D01*
X024835Y003204D02*
X024837Y003254D01*
X024843Y003304D01*
X024853Y003353D01*
X024866Y003402D01*
X024884Y003449D01*
X024905Y003495D01*
X024929Y003538D01*
X024957Y003580D01*
X024988Y003620D01*
X025022Y003657D01*
X025059Y003691D01*
X025099Y003722D01*
X025141Y003750D01*
X025184Y003774D01*
X025230Y003795D01*
X025277Y003813D01*
X025326Y003826D01*
X025375Y003836D01*
X025425Y003842D01*
X025475Y003844D01*
X025525Y003842D01*
X025575Y003836D01*
X025624Y003826D01*
X025673Y003813D01*
X025720Y003795D01*
X025766Y003774D01*
X025809Y003750D01*
X025851Y003722D01*
X025891Y003691D01*
X025928Y003657D01*
X025962Y003620D01*
X025993Y003580D01*
X026021Y003538D01*
X026045Y003495D01*
X026066Y003449D01*
X026084Y003402D01*
X026097Y003353D01*
X026107Y003304D01*
X026113Y003254D01*
X026115Y003204D01*
X026113Y003154D01*
X026107Y003104D01*
X026097Y003055D01*
X026084Y003006D01*
X026066Y002959D01*
X026045Y002913D01*
X026021Y002870D01*
X025993Y002828D01*
X025962Y002788D01*
X025928Y002751D01*
X025891Y002717D01*
X025851Y002686D01*
X025809Y002658D01*
X025766Y002634D01*
X025720Y002613D01*
X025673Y002595D01*
X025624Y002582D01*
X025575Y002572D01*
X025525Y002566D01*
X025475Y002564D01*
X025425Y002566D01*
X025375Y002572D01*
X025326Y002582D01*
X025277Y002595D01*
X025230Y002613D01*
X025184Y002634D01*
X025141Y002658D01*
X025099Y002686D01*
X025059Y002717D01*
X025022Y002751D01*
X024988Y002788D01*
X024957Y002828D01*
X024929Y002870D01*
X024905Y002913D01*
X024884Y002959D01*
X024866Y003006D01*
X024853Y003055D01*
X024843Y003104D01*
X024837Y003154D01*
X024835Y003204D01*
X028835Y003204D02*
X028837Y003254D01*
X028843Y003304D01*
X028853Y003353D01*
X028866Y003402D01*
X028884Y003449D01*
X028905Y003495D01*
X028929Y003538D01*
X028957Y003580D01*
X028988Y003620D01*
X029022Y003657D01*
X029059Y003691D01*
X029099Y003722D01*
X029141Y003750D01*
X029184Y003774D01*
X029230Y003795D01*
X029277Y003813D01*
X029326Y003826D01*
X029375Y003836D01*
X029425Y003842D01*
X029475Y003844D01*
X029525Y003842D01*
X029575Y003836D01*
X029624Y003826D01*
X029673Y003813D01*
X029720Y003795D01*
X029766Y003774D01*
X029809Y003750D01*
X029851Y003722D01*
X029891Y003691D01*
X029928Y003657D01*
X029962Y003620D01*
X029993Y003580D01*
X030021Y003538D01*
X030045Y003495D01*
X030066Y003449D01*
X030084Y003402D01*
X030097Y003353D01*
X030107Y003304D01*
X030113Y003254D01*
X030115Y003204D01*
X030113Y003154D01*
X030107Y003104D01*
X030097Y003055D01*
X030084Y003006D01*
X030066Y002959D01*
X030045Y002913D01*
X030021Y002870D01*
X029993Y002828D01*
X029962Y002788D01*
X029928Y002751D01*
X029891Y002717D01*
X029851Y002686D01*
X029809Y002658D01*
X029766Y002634D01*
X029720Y002613D01*
X029673Y002595D01*
X029624Y002582D01*
X029575Y002572D01*
X029525Y002566D01*
X029475Y002564D01*
X029425Y002566D01*
X029375Y002572D01*
X029326Y002582D01*
X029277Y002595D01*
X029230Y002613D01*
X029184Y002634D01*
X029141Y002658D01*
X029099Y002686D01*
X029059Y002717D01*
X029022Y002751D01*
X028988Y002788D01*
X028957Y002828D01*
X028929Y002870D01*
X028905Y002913D01*
X028884Y002959D01*
X028866Y003006D01*
X028853Y003055D01*
X028843Y003104D01*
X028837Y003154D01*
X028835Y003204D01*
X032983Y012204D02*
X032985Y012248D01*
X032991Y012292D01*
X033001Y012335D01*
X033014Y012377D01*
X033032Y012417D01*
X033053Y012456D01*
X033077Y012493D01*
X033104Y012528D01*
X033135Y012560D01*
X033168Y012589D01*
X033204Y012615D01*
X033242Y012637D01*
X033282Y012656D01*
X033323Y012672D01*
X033366Y012684D01*
X033409Y012692D01*
X033453Y012696D01*
X033497Y012696D01*
X033541Y012692D01*
X033584Y012684D01*
X033627Y012672D01*
X033668Y012656D01*
X033708Y012637D01*
X033746Y012615D01*
X033782Y012589D01*
X033815Y012560D01*
X033846Y012528D01*
X033873Y012493D01*
X033897Y012456D01*
X033918Y012417D01*
X033936Y012377D01*
X033949Y012335D01*
X033959Y012292D01*
X033965Y012248D01*
X033967Y012204D01*
X033965Y012160D01*
X033959Y012116D01*
X033949Y012073D01*
X033936Y012031D01*
X033918Y011991D01*
X033897Y011952D01*
X033873Y011915D01*
X033846Y011880D01*
X033815Y011848D01*
X033782Y011819D01*
X033746Y011793D01*
X033708Y011771D01*
X033668Y011752D01*
X033627Y011736D01*
X033584Y011724D01*
X033541Y011716D01*
X033497Y011712D01*
X033453Y011712D01*
X033409Y011716D01*
X033366Y011724D01*
X033323Y011736D01*
X033282Y011752D01*
X033242Y011771D01*
X033204Y011793D01*
X033168Y011819D01*
X033135Y011848D01*
X033104Y011880D01*
X033077Y011915D01*
X033053Y011952D01*
X033032Y011991D01*
X033014Y012031D01*
X033001Y012073D01*
X032991Y012116D01*
X032985Y012160D01*
X032983Y012204D01*
X035688Y014204D02*
X035690Y014260D01*
X035696Y014315D01*
X035706Y014369D01*
X035719Y014423D01*
X035737Y014476D01*
X035758Y014527D01*
X035782Y014577D01*
X035810Y014625D01*
X035842Y014671D01*
X035876Y014715D01*
X035914Y014756D01*
X035954Y014794D01*
X035997Y014829D01*
X036042Y014861D01*
X036090Y014890D01*
X036139Y014916D01*
X036190Y014938D01*
X036242Y014956D01*
X036296Y014970D01*
X036351Y014981D01*
X036406Y014988D01*
X036461Y014991D01*
X036517Y014990D01*
X036572Y014985D01*
X036627Y014976D01*
X036681Y014964D01*
X036734Y014947D01*
X036786Y014927D01*
X036836Y014903D01*
X036884Y014876D01*
X036931Y014846D01*
X036975Y014812D01*
X037017Y014775D01*
X037055Y014735D01*
X037092Y014693D01*
X037125Y014648D01*
X037154Y014602D01*
X037181Y014553D01*
X037203Y014502D01*
X037223Y014450D01*
X037238Y014396D01*
X037250Y014342D01*
X037258Y014287D01*
X037262Y014232D01*
X037262Y014176D01*
X037258Y014121D01*
X037250Y014066D01*
X037238Y014012D01*
X037223Y013958D01*
X037203Y013906D01*
X037181Y013855D01*
X037154Y013806D01*
X037125Y013760D01*
X037092Y013715D01*
X037055Y013673D01*
X037017Y013633D01*
X036975Y013596D01*
X036931Y013562D01*
X036884Y013532D01*
X036836Y013505D01*
X036786Y013481D01*
X036734Y013461D01*
X036681Y013444D01*
X036627Y013432D01*
X036572Y013423D01*
X036517Y013418D01*
X036461Y013417D01*
X036406Y013420D01*
X036351Y013427D01*
X036296Y013438D01*
X036242Y013452D01*
X036190Y013470D01*
X036139Y013492D01*
X036090Y013518D01*
X036042Y013547D01*
X035997Y013579D01*
X035954Y013614D01*
X035914Y013652D01*
X035876Y013693D01*
X035842Y013737D01*
X035810Y013783D01*
X035782Y013831D01*
X035758Y013881D01*
X035737Y013932D01*
X035719Y013985D01*
X035706Y014039D01*
X035696Y014093D01*
X035690Y014148D01*
X035688Y014204D01*
X035688Y018204D02*
X035690Y018260D01*
X035696Y018315D01*
X035706Y018369D01*
X035719Y018423D01*
X035737Y018476D01*
X035758Y018527D01*
X035782Y018577D01*
X035810Y018625D01*
X035842Y018671D01*
X035876Y018715D01*
X035914Y018756D01*
X035954Y018794D01*
X035997Y018829D01*
X036042Y018861D01*
X036090Y018890D01*
X036139Y018916D01*
X036190Y018938D01*
X036242Y018956D01*
X036296Y018970D01*
X036351Y018981D01*
X036406Y018988D01*
X036461Y018991D01*
X036517Y018990D01*
X036572Y018985D01*
X036627Y018976D01*
X036681Y018964D01*
X036734Y018947D01*
X036786Y018927D01*
X036836Y018903D01*
X036884Y018876D01*
X036931Y018846D01*
X036975Y018812D01*
X037017Y018775D01*
X037055Y018735D01*
X037092Y018693D01*
X037125Y018648D01*
X037154Y018602D01*
X037181Y018553D01*
X037203Y018502D01*
X037223Y018450D01*
X037238Y018396D01*
X037250Y018342D01*
X037258Y018287D01*
X037262Y018232D01*
X037262Y018176D01*
X037258Y018121D01*
X037250Y018066D01*
X037238Y018012D01*
X037223Y017958D01*
X037203Y017906D01*
X037181Y017855D01*
X037154Y017806D01*
X037125Y017760D01*
X037092Y017715D01*
X037055Y017673D01*
X037017Y017633D01*
X036975Y017596D01*
X036931Y017562D01*
X036884Y017532D01*
X036836Y017505D01*
X036786Y017481D01*
X036734Y017461D01*
X036681Y017444D01*
X036627Y017432D01*
X036572Y017423D01*
X036517Y017418D01*
X036461Y017417D01*
X036406Y017420D01*
X036351Y017427D01*
X036296Y017438D01*
X036242Y017452D01*
X036190Y017470D01*
X036139Y017492D01*
X036090Y017518D01*
X036042Y017547D01*
X035997Y017579D01*
X035954Y017614D01*
X035914Y017652D01*
X035876Y017693D01*
X035842Y017737D01*
X035810Y017783D01*
X035782Y017831D01*
X035758Y017881D01*
X035737Y017932D01*
X035719Y017985D01*
X035706Y018039D01*
X035696Y018093D01*
X035690Y018148D01*
X035688Y018204D01*
X032983Y020204D02*
X032985Y020248D01*
X032991Y020292D01*
X033001Y020335D01*
X033014Y020377D01*
X033032Y020417D01*
X033053Y020456D01*
X033077Y020493D01*
X033104Y020528D01*
X033135Y020560D01*
X033168Y020589D01*
X033204Y020615D01*
X033242Y020637D01*
X033282Y020656D01*
X033323Y020672D01*
X033366Y020684D01*
X033409Y020692D01*
X033453Y020696D01*
X033497Y020696D01*
X033541Y020692D01*
X033584Y020684D01*
X033627Y020672D01*
X033668Y020656D01*
X033708Y020637D01*
X033746Y020615D01*
X033782Y020589D01*
X033815Y020560D01*
X033846Y020528D01*
X033873Y020493D01*
X033897Y020456D01*
X033918Y020417D01*
X033936Y020377D01*
X033949Y020335D01*
X033959Y020292D01*
X033965Y020248D01*
X033967Y020204D01*
X033965Y020160D01*
X033959Y020116D01*
X033949Y020073D01*
X033936Y020031D01*
X033918Y019991D01*
X033897Y019952D01*
X033873Y019915D01*
X033846Y019880D01*
X033815Y019848D01*
X033782Y019819D01*
X033746Y019793D01*
X033708Y019771D01*
X033668Y019752D01*
X033627Y019736D01*
X033584Y019724D01*
X033541Y019716D01*
X033497Y019712D01*
X033453Y019712D01*
X033409Y019716D01*
X033366Y019724D01*
X033323Y019736D01*
X033282Y019752D01*
X033242Y019771D01*
X033204Y019793D01*
X033168Y019819D01*
X033135Y019848D01*
X033104Y019880D01*
X033077Y019915D01*
X033053Y019952D01*
X033032Y019991D01*
X033014Y020031D01*
X033001Y020073D01*
X032991Y020116D01*
X032985Y020160D01*
X032983Y020204D01*
X024258Y014704D02*
X024260Y014747D01*
X024266Y014790D01*
X024276Y014832D01*
X024290Y014873D01*
X024307Y014912D01*
X024328Y014950D01*
X024352Y014985D01*
X024380Y015019D01*
X024410Y015049D01*
X024444Y015077D01*
X024479Y015101D01*
X024517Y015122D01*
X024556Y015139D01*
X024597Y015153D01*
X024639Y015163D01*
X024682Y015169D01*
X024725Y015171D01*
X024768Y015169D01*
X024811Y015163D01*
X024853Y015153D01*
X024894Y015139D01*
X024933Y015122D01*
X024971Y015101D01*
X025006Y015077D01*
X025040Y015049D01*
X025070Y015019D01*
X025098Y014985D01*
X025122Y014950D01*
X025143Y014912D01*
X025160Y014873D01*
X025174Y014832D01*
X025184Y014790D01*
X025190Y014747D01*
X025192Y014704D01*
X025190Y014661D01*
X025184Y014618D01*
X025174Y014576D01*
X025160Y014535D01*
X025143Y014496D01*
X025122Y014458D01*
X025098Y014423D01*
X025070Y014389D01*
X025040Y014359D01*
X025006Y014331D01*
X024971Y014307D01*
X024933Y014286D01*
X024894Y014269D01*
X024853Y014255D01*
X024811Y014245D01*
X024768Y014239D01*
X024725Y014237D01*
X024682Y014239D01*
X024639Y014245D01*
X024597Y014255D01*
X024556Y014269D01*
X024517Y014286D01*
X024479Y014307D01*
X024444Y014331D01*
X024410Y014359D01*
X024380Y014389D01*
X024352Y014423D01*
X024328Y014458D01*
X024307Y014496D01*
X024290Y014535D01*
X024276Y014576D01*
X024266Y014618D01*
X024260Y014661D01*
X024258Y014704D01*
X023008Y014704D02*
X023010Y014747D01*
X023016Y014790D01*
X023026Y014832D01*
X023040Y014873D01*
X023057Y014912D01*
X023078Y014950D01*
X023102Y014985D01*
X023130Y015019D01*
X023160Y015049D01*
X023194Y015077D01*
X023229Y015101D01*
X023267Y015122D01*
X023306Y015139D01*
X023347Y015153D01*
X023389Y015163D01*
X023432Y015169D01*
X023475Y015171D01*
X023518Y015169D01*
X023561Y015163D01*
X023603Y015153D01*
X023644Y015139D01*
X023683Y015122D01*
X023721Y015101D01*
X023756Y015077D01*
X023790Y015049D01*
X023820Y015019D01*
X023848Y014985D01*
X023872Y014950D01*
X023893Y014912D01*
X023910Y014873D01*
X023924Y014832D01*
X023934Y014790D01*
X023940Y014747D01*
X023942Y014704D01*
X023940Y014661D01*
X023934Y014618D01*
X023924Y014576D01*
X023910Y014535D01*
X023893Y014496D01*
X023872Y014458D01*
X023848Y014423D01*
X023820Y014389D01*
X023790Y014359D01*
X023756Y014331D01*
X023721Y014307D01*
X023683Y014286D01*
X023644Y014269D01*
X023603Y014255D01*
X023561Y014245D01*
X023518Y014239D01*
X023475Y014237D01*
X023432Y014239D01*
X023389Y014245D01*
X023347Y014255D01*
X023306Y014269D01*
X023267Y014286D01*
X023229Y014307D01*
X023194Y014331D01*
X023160Y014359D01*
X023130Y014389D01*
X023102Y014423D01*
X023078Y014458D01*
X023057Y014496D01*
X023040Y014535D01*
X023026Y014576D01*
X023016Y014618D01*
X023010Y014661D01*
X023008Y014704D01*
X022550Y014104D02*
X022552Y014130D01*
X022558Y014156D01*
X022567Y014180D01*
X022580Y014203D01*
X022597Y014223D01*
X022616Y014241D01*
X022638Y014256D01*
X022661Y014267D01*
X022686Y014275D01*
X022712Y014279D01*
X022738Y014279D01*
X022764Y014275D01*
X022789Y014267D01*
X022813Y014256D01*
X022834Y014241D01*
X022853Y014223D01*
X022870Y014203D01*
X022883Y014180D01*
X022892Y014156D01*
X022898Y014130D01*
X022900Y014104D01*
X022898Y014078D01*
X022892Y014052D01*
X022883Y014028D01*
X022870Y014005D01*
X022853Y013985D01*
X022834Y013967D01*
X022812Y013952D01*
X022789Y013941D01*
X022764Y013933D01*
X022738Y013929D01*
X022712Y013929D01*
X022686Y013933D01*
X022661Y013941D01*
X022637Y013952D01*
X022616Y013967D01*
X022597Y013985D01*
X022580Y014005D01*
X022567Y014028D01*
X022558Y014052D01*
X022552Y014078D01*
X022550Y014104D01*
X022550Y013304D02*
X022552Y013330D01*
X022558Y013356D01*
X022567Y013380D01*
X022580Y013403D01*
X022597Y013423D01*
X022616Y013441D01*
X022638Y013456D01*
X022661Y013467D01*
X022686Y013475D01*
X022712Y013479D01*
X022738Y013479D01*
X022764Y013475D01*
X022789Y013467D01*
X022813Y013456D01*
X022834Y013441D01*
X022853Y013423D01*
X022870Y013403D01*
X022883Y013380D01*
X022892Y013356D01*
X022898Y013330D01*
X022900Y013304D01*
X022898Y013278D01*
X022892Y013252D01*
X022883Y013228D01*
X022870Y013205D01*
X022853Y013185D01*
X022834Y013167D01*
X022812Y013152D01*
X022789Y013141D01*
X022764Y013133D01*
X022738Y013129D01*
X022712Y013129D01*
X022686Y013133D01*
X022661Y013141D01*
X022637Y013152D01*
X022616Y013167D01*
X022597Y013185D01*
X022580Y013205D01*
X022567Y013228D01*
X022558Y013252D01*
X022552Y013278D01*
X022550Y013304D01*
X023008Y012704D02*
X023010Y012747D01*
X023016Y012790D01*
X023026Y012832D01*
X023040Y012873D01*
X023057Y012912D01*
X023078Y012950D01*
X023102Y012985D01*
X023130Y013019D01*
X023160Y013049D01*
X023194Y013077D01*
X023229Y013101D01*
X023267Y013122D01*
X023306Y013139D01*
X023347Y013153D01*
X023389Y013163D01*
X023432Y013169D01*
X023475Y013171D01*
X023518Y013169D01*
X023561Y013163D01*
X023603Y013153D01*
X023644Y013139D01*
X023683Y013122D01*
X023721Y013101D01*
X023756Y013077D01*
X023790Y013049D01*
X023820Y013019D01*
X023848Y012985D01*
X023872Y012950D01*
X023893Y012912D01*
X023910Y012873D01*
X023924Y012832D01*
X023934Y012790D01*
X023940Y012747D01*
X023942Y012704D01*
X023940Y012661D01*
X023934Y012618D01*
X023924Y012576D01*
X023910Y012535D01*
X023893Y012496D01*
X023872Y012458D01*
X023848Y012423D01*
X023820Y012389D01*
X023790Y012359D01*
X023756Y012331D01*
X023721Y012307D01*
X023683Y012286D01*
X023644Y012269D01*
X023603Y012255D01*
X023561Y012245D01*
X023518Y012239D01*
X023475Y012237D01*
X023432Y012239D01*
X023389Y012245D01*
X023347Y012255D01*
X023306Y012269D01*
X023267Y012286D01*
X023229Y012307D01*
X023194Y012331D01*
X023160Y012359D01*
X023130Y012389D01*
X023102Y012423D01*
X023078Y012458D01*
X023057Y012496D01*
X023040Y012535D01*
X023026Y012576D01*
X023016Y012618D01*
X023010Y012661D01*
X023008Y012704D01*
X024258Y012704D02*
X024260Y012747D01*
X024266Y012790D01*
X024276Y012832D01*
X024290Y012873D01*
X024307Y012912D01*
X024328Y012950D01*
X024352Y012985D01*
X024380Y013019D01*
X024410Y013049D01*
X024444Y013077D01*
X024479Y013101D01*
X024517Y013122D01*
X024556Y013139D01*
X024597Y013153D01*
X024639Y013163D01*
X024682Y013169D01*
X024725Y013171D01*
X024768Y013169D01*
X024811Y013163D01*
X024853Y013153D01*
X024894Y013139D01*
X024933Y013122D01*
X024971Y013101D01*
X025006Y013077D01*
X025040Y013049D01*
X025070Y013019D01*
X025098Y012985D01*
X025122Y012950D01*
X025143Y012912D01*
X025160Y012873D01*
X025174Y012832D01*
X025184Y012790D01*
X025190Y012747D01*
X025192Y012704D01*
X025190Y012661D01*
X025184Y012618D01*
X025174Y012576D01*
X025160Y012535D01*
X025143Y012496D01*
X025122Y012458D01*
X025098Y012423D01*
X025070Y012389D01*
X025040Y012359D01*
X025006Y012331D01*
X024971Y012307D01*
X024933Y012286D01*
X024894Y012269D01*
X024853Y012255D01*
X024811Y012245D01*
X024768Y012239D01*
X024725Y012237D01*
X024682Y012239D01*
X024639Y012245D01*
X024597Y012255D01*
X024556Y012269D01*
X024517Y012286D01*
X024479Y012307D01*
X024444Y012331D01*
X024410Y012359D01*
X024380Y012389D01*
X024352Y012423D01*
X024328Y012458D01*
X024307Y012496D01*
X024290Y012535D01*
X024276Y012576D01*
X024266Y012618D01*
X024260Y012661D01*
X024258Y012704D01*
X024550Y013704D02*
X024552Y013730D01*
X024558Y013756D01*
X024567Y013780D01*
X024580Y013803D01*
X024597Y013823D01*
X024616Y013841D01*
X024638Y013856D01*
X024661Y013867D01*
X024686Y013875D01*
X024712Y013879D01*
X024738Y013879D01*
X024764Y013875D01*
X024789Y013867D01*
X024813Y013856D01*
X024834Y013841D01*
X024853Y013823D01*
X024870Y013803D01*
X024883Y013780D01*
X024892Y013756D01*
X024898Y013730D01*
X024900Y013704D01*
X024898Y013678D01*
X024892Y013652D01*
X024883Y013628D01*
X024870Y013605D01*
X024853Y013585D01*
X024834Y013567D01*
X024812Y013552D01*
X024789Y013541D01*
X024764Y013533D01*
X024738Y013529D01*
X024712Y013529D01*
X024686Y013533D01*
X024661Y013541D01*
X024637Y013552D01*
X024616Y013567D01*
X024597Y013585D01*
X024580Y013605D01*
X024567Y013628D01*
X024558Y013652D01*
X024552Y013678D01*
X024550Y013704D01*
X025335Y029704D02*
X025337Y029754D01*
X025343Y029804D01*
X025353Y029853D01*
X025366Y029902D01*
X025384Y029949D01*
X025405Y029995D01*
X025429Y030038D01*
X025457Y030080D01*
X025488Y030120D01*
X025522Y030157D01*
X025559Y030191D01*
X025599Y030222D01*
X025641Y030250D01*
X025684Y030274D01*
X025730Y030295D01*
X025777Y030313D01*
X025826Y030326D01*
X025875Y030336D01*
X025925Y030342D01*
X025975Y030344D01*
X026025Y030342D01*
X026075Y030336D01*
X026124Y030326D01*
X026173Y030313D01*
X026220Y030295D01*
X026266Y030274D01*
X026309Y030250D01*
X026351Y030222D01*
X026391Y030191D01*
X026428Y030157D01*
X026462Y030120D01*
X026493Y030080D01*
X026521Y030038D01*
X026545Y029995D01*
X026566Y029949D01*
X026584Y029902D01*
X026597Y029853D01*
X026607Y029804D01*
X026613Y029754D01*
X026615Y029704D01*
X026613Y029654D01*
X026607Y029604D01*
X026597Y029555D01*
X026584Y029506D01*
X026566Y029459D01*
X026545Y029413D01*
X026521Y029370D01*
X026493Y029328D01*
X026462Y029288D01*
X026428Y029251D01*
X026391Y029217D01*
X026351Y029186D01*
X026309Y029158D01*
X026266Y029134D01*
X026220Y029113D01*
X026173Y029095D01*
X026124Y029082D01*
X026075Y029072D01*
X026025Y029066D01*
X025975Y029064D01*
X025925Y029066D01*
X025875Y029072D01*
X025826Y029082D01*
X025777Y029095D01*
X025730Y029113D01*
X025684Y029134D01*
X025641Y029158D01*
X025599Y029186D01*
X025559Y029217D01*
X025522Y029251D01*
X025488Y029288D01*
X025457Y029328D01*
X025429Y029370D01*
X025405Y029413D01*
X025384Y029459D01*
X025366Y029506D01*
X025353Y029555D01*
X025343Y029604D01*
X025337Y029654D01*
X025335Y029704D01*
X029335Y029704D02*
X029337Y029754D01*
X029343Y029804D01*
X029353Y029853D01*
X029366Y029902D01*
X029384Y029949D01*
X029405Y029995D01*
X029429Y030038D01*
X029457Y030080D01*
X029488Y030120D01*
X029522Y030157D01*
X029559Y030191D01*
X029599Y030222D01*
X029641Y030250D01*
X029684Y030274D01*
X029730Y030295D01*
X029777Y030313D01*
X029826Y030326D01*
X029875Y030336D01*
X029925Y030342D01*
X029975Y030344D01*
X030025Y030342D01*
X030075Y030336D01*
X030124Y030326D01*
X030173Y030313D01*
X030220Y030295D01*
X030266Y030274D01*
X030309Y030250D01*
X030351Y030222D01*
X030391Y030191D01*
X030428Y030157D01*
X030462Y030120D01*
X030493Y030080D01*
X030521Y030038D01*
X030545Y029995D01*
X030566Y029949D01*
X030584Y029902D01*
X030597Y029853D01*
X030607Y029804D01*
X030613Y029754D01*
X030615Y029704D01*
X030613Y029654D01*
X030607Y029604D01*
X030597Y029555D01*
X030584Y029506D01*
X030566Y029459D01*
X030545Y029413D01*
X030521Y029370D01*
X030493Y029328D01*
X030462Y029288D01*
X030428Y029251D01*
X030391Y029217D01*
X030351Y029186D01*
X030309Y029158D01*
X030266Y029134D01*
X030220Y029113D01*
X030173Y029095D01*
X030124Y029082D01*
X030075Y029072D01*
X030025Y029066D01*
X029975Y029064D01*
X029925Y029066D01*
X029875Y029072D01*
X029826Y029082D01*
X029777Y029095D01*
X029730Y029113D01*
X029684Y029134D01*
X029641Y029158D01*
X029599Y029186D01*
X029559Y029217D01*
X029522Y029251D01*
X029488Y029288D01*
X029457Y029328D01*
X029429Y029370D01*
X029405Y029413D01*
X029384Y029459D01*
X029366Y029506D01*
X029353Y029555D01*
X029343Y029604D01*
X029337Y029654D01*
X029335Y029704D01*
X018835Y029704D02*
X018837Y029754D01*
X018843Y029804D01*
X018853Y029853D01*
X018866Y029902D01*
X018884Y029949D01*
X018905Y029995D01*
X018929Y030038D01*
X018957Y030080D01*
X018988Y030120D01*
X019022Y030157D01*
X019059Y030191D01*
X019099Y030222D01*
X019141Y030250D01*
X019184Y030274D01*
X019230Y030295D01*
X019277Y030313D01*
X019326Y030326D01*
X019375Y030336D01*
X019425Y030342D01*
X019475Y030344D01*
X019525Y030342D01*
X019575Y030336D01*
X019624Y030326D01*
X019673Y030313D01*
X019720Y030295D01*
X019766Y030274D01*
X019809Y030250D01*
X019851Y030222D01*
X019891Y030191D01*
X019928Y030157D01*
X019962Y030120D01*
X019993Y030080D01*
X020021Y030038D01*
X020045Y029995D01*
X020066Y029949D01*
X020084Y029902D01*
X020097Y029853D01*
X020107Y029804D01*
X020113Y029754D01*
X020115Y029704D01*
X020113Y029654D01*
X020107Y029604D01*
X020097Y029555D01*
X020084Y029506D01*
X020066Y029459D01*
X020045Y029413D01*
X020021Y029370D01*
X019993Y029328D01*
X019962Y029288D01*
X019928Y029251D01*
X019891Y029217D01*
X019851Y029186D01*
X019809Y029158D01*
X019766Y029134D01*
X019720Y029113D01*
X019673Y029095D01*
X019624Y029082D01*
X019575Y029072D01*
X019525Y029066D01*
X019475Y029064D01*
X019425Y029066D01*
X019375Y029072D01*
X019326Y029082D01*
X019277Y029095D01*
X019230Y029113D01*
X019184Y029134D01*
X019141Y029158D01*
X019099Y029186D01*
X019059Y029217D01*
X019022Y029251D01*
X018988Y029288D01*
X018957Y029328D01*
X018929Y029370D01*
X018905Y029413D01*
X018884Y029459D01*
X018866Y029506D01*
X018853Y029555D01*
X018843Y029604D01*
X018837Y029654D01*
X018835Y029704D01*
X014835Y029704D02*
X014837Y029754D01*
X014843Y029804D01*
X014853Y029853D01*
X014866Y029902D01*
X014884Y029949D01*
X014905Y029995D01*
X014929Y030038D01*
X014957Y030080D01*
X014988Y030120D01*
X015022Y030157D01*
X015059Y030191D01*
X015099Y030222D01*
X015141Y030250D01*
X015184Y030274D01*
X015230Y030295D01*
X015277Y030313D01*
X015326Y030326D01*
X015375Y030336D01*
X015425Y030342D01*
X015475Y030344D01*
X015525Y030342D01*
X015575Y030336D01*
X015624Y030326D01*
X015673Y030313D01*
X015720Y030295D01*
X015766Y030274D01*
X015809Y030250D01*
X015851Y030222D01*
X015891Y030191D01*
X015928Y030157D01*
X015962Y030120D01*
X015993Y030080D01*
X016021Y030038D01*
X016045Y029995D01*
X016066Y029949D01*
X016084Y029902D01*
X016097Y029853D01*
X016107Y029804D01*
X016113Y029754D01*
X016115Y029704D01*
X016113Y029654D01*
X016107Y029604D01*
X016097Y029555D01*
X016084Y029506D01*
X016066Y029459D01*
X016045Y029413D01*
X016021Y029370D01*
X015993Y029328D01*
X015962Y029288D01*
X015928Y029251D01*
X015891Y029217D01*
X015851Y029186D01*
X015809Y029158D01*
X015766Y029134D01*
X015720Y029113D01*
X015673Y029095D01*
X015624Y029082D01*
X015575Y029072D01*
X015525Y029066D01*
X015475Y029064D01*
X015425Y029066D01*
X015375Y029072D01*
X015326Y029082D01*
X015277Y029095D01*
X015230Y029113D01*
X015184Y029134D01*
X015141Y029158D01*
X015099Y029186D01*
X015059Y029217D01*
X015022Y029251D01*
X014988Y029288D01*
X014957Y029328D01*
X014929Y029370D01*
X014905Y029413D01*
X014884Y029459D01*
X014866Y029506D01*
X014853Y029555D01*
X014843Y029604D01*
X014837Y029654D01*
X014835Y029704D01*
X008335Y029704D02*
X008337Y029754D01*
X008343Y029804D01*
X008353Y029853D01*
X008366Y029902D01*
X008384Y029949D01*
X008405Y029995D01*
X008429Y030038D01*
X008457Y030080D01*
X008488Y030120D01*
X008522Y030157D01*
X008559Y030191D01*
X008599Y030222D01*
X008641Y030250D01*
X008684Y030274D01*
X008730Y030295D01*
X008777Y030313D01*
X008826Y030326D01*
X008875Y030336D01*
X008925Y030342D01*
X008975Y030344D01*
X009025Y030342D01*
X009075Y030336D01*
X009124Y030326D01*
X009173Y030313D01*
X009220Y030295D01*
X009266Y030274D01*
X009309Y030250D01*
X009351Y030222D01*
X009391Y030191D01*
X009428Y030157D01*
X009462Y030120D01*
X009493Y030080D01*
X009521Y030038D01*
X009545Y029995D01*
X009566Y029949D01*
X009584Y029902D01*
X009597Y029853D01*
X009607Y029804D01*
X009613Y029754D01*
X009615Y029704D01*
X009613Y029654D01*
X009607Y029604D01*
X009597Y029555D01*
X009584Y029506D01*
X009566Y029459D01*
X009545Y029413D01*
X009521Y029370D01*
X009493Y029328D01*
X009462Y029288D01*
X009428Y029251D01*
X009391Y029217D01*
X009351Y029186D01*
X009309Y029158D01*
X009266Y029134D01*
X009220Y029113D01*
X009173Y029095D01*
X009124Y029082D01*
X009075Y029072D01*
X009025Y029066D01*
X008975Y029064D01*
X008925Y029066D01*
X008875Y029072D01*
X008826Y029082D01*
X008777Y029095D01*
X008730Y029113D01*
X008684Y029134D01*
X008641Y029158D01*
X008599Y029186D01*
X008559Y029217D01*
X008522Y029251D01*
X008488Y029288D01*
X008457Y029328D01*
X008429Y029370D01*
X008405Y029413D01*
X008384Y029459D01*
X008366Y029506D01*
X008353Y029555D01*
X008343Y029604D01*
X008337Y029654D01*
X008335Y029704D01*
X004335Y029704D02*
X004337Y029754D01*
X004343Y029804D01*
X004353Y029853D01*
X004366Y029902D01*
X004384Y029949D01*
X004405Y029995D01*
X004429Y030038D01*
X004457Y030080D01*
X004488Y030120D01*
X004522Y030157D01*
X004559Y030191D01*
X004599Y030222D01*
X004641Y030250D01*
X004684Y030274D01*
X004730Y030295D01*
X004777Y030313D01*
X004826Y030326D01*
X004875Y030336D01*
X004925Y030342D01*
X004975Y030344D01*
X005025Y030342D01*
X005075Y030336D01*
X005124Y030326D01*
X005173Y030313D01*
X005220Y030295D01*
X005266Y030274D01*
X005309Y030250D01*
X005351Y030222D01*
X005391Y030191D01*
X005428Y030157D01*
X005462Y030120D01*
X005493Y030080D01*
X005521Y030038D01*
X005545Y029995D01*
X005566Y029949D01*
X005584Y029902D01*
X005597Y029853D01*
X005607Y029804D01*
X005613Y029754D01*
X005615Y029704D01*
X005613Y029654D01*
X005607Y029604D01*
X005597Y029555D01*
X005584Y029506D01*
X005566Y029459D01*
X005545Y029413D01*
X005521Y029370D01*
X005493Y029328D01*
X005462Y029288D01*
X005428Y029251D01*
X005391Y029217D01*
X005351Y029186D01*
X005309Y029158D01*
X005266Y029134D01*
X005220Y029113D01*
X005173Y029095D01*
X005124Y029082D01*
X005075Y029072D01*
X005025Y029066D01*
X004975Y029064D01*
X004925Y029066D01*
X004875Y029072D01*
X004826Y029082D01*
X004777Y029095D01*
X004730Y029113D01*
X004684Y029134D01*
X004641Y029158D01*
X004599Y029186D01*
X004559Y029217D01*
X004522Y029251D01*
X004488Y029288D01*
X004457Y029328D01*
X004429Y029370D01*
X004405Y029413D01*
X004384Y029459D01*
X004366Y029506D01*
X004353Y029555D01*
X004343Y029604D01*
X004337Y029654D01*
X004335Y029704D01*
X002510Y022066D02*
X002512Y022109D01*
X002518Y022151D01*
X002528Y022193D01*
X002541Y022234D01*
X002559Y022273D01*
X002580Y022311D01*
X002604Y022346D01*
X002631Y022379D01*
X002662Y022410D01*
X002695Y022437D01*
X002730Y022461D01*
X002768Y022482D01*
X002807Y022500D01*
X002848Y022513D01*
X002890Y022523D01*
X002932Y022529D01*
X002975Y022531D01*
X003018Y022529D01*
X003060Y022523D01*
X003102Y022513D01*
X003143Y022500D01*
X003182Y022482D01*
X003220Y022461D01*
X003255Y022437D01*
X003288Y022410D01*
X003319Y022379D01*
X003346Y022346D01*
X003370Y022311D01*
X003391Y022273D01*
X003409Y022234D01*
X003422Y022193D01*
X003432Y022151D01*
X003438Y022109D01*
X003440Y022066D01*
X003438Y022023D01*
X003432Y021981D01*
X003422Y021939D01*
X003409Y021898D01*
X003391Y021859D01*
X003370Y021821D01*
X003346Y021786D01*
X003319Y021753D01*
X003288Y021722D01*
X003255Y021695D01*
X003220Y021671D01*
X003182Y021650D01*
X003143Y021632D01*
X003102Y021619D01*
X003060Y021609D01*
X003018Y021603D01*
X002975Y021601D01*
X002932Y021603D01*
X002890Y021609D01*
X002848Y021619D01*
X002807Y021632D01*
X002768Y021650D01*
X002730Y021671D01*
X002695Y021695D01*
X002662Y021722D01*
X002631Y021753D01*
X002604Y021786D01*
X002580Y021821D01*
X002559Y021859D01*
X002541Y021898D01*
X002528Y021939D01*
X002518Y021981D01*
X002512Y022023D01*
X002510Y022066D01*
X002510Y017342D02*
X002512Y017385D01*
X002518Y017427D01*
X002528Y017469D01*
X002541Y017510D01*
X002559Y017549D01*
X002580Y017587D01*
X002604Y017622D01*
X002631Y017655D01*
X002662Y017686D01*
X002695Y017713D01*
X002730Y017737D01*
X002768Y017758D01*
X002807Y017776D01*
X002848Y017789D01*
X002890Y017799D01*
X002932Y017805D01*
X002975Y017807D01*
X003018Y017805D01*
X003060Y017799D01*
X003102Y017789D01*
X003143Y017776D01*
X003182Y017758D01*
X003220Y017737D01*
X003255Y017713D01*
X003288Y017686D01*
X003319Y017655D01*
X003346Y017622D01*
X003370Y017587D01*
X003391Y017549D01*
X003409Y017510D01*
X003422Y017469D01*
X003432Y017427D01*
X003438Y017385D01*
X003440Y017342D01*
X003438Y017299D01*
X003432Y017257D01*
X003422Y017215D01*
X003409Y017174D01*
X003391Y017135D01*
X003370Y017097D01*
X003346Y017062D01*
X003319Y017029D01*
X003288Y016998D01*
X003255Y016971D01*
X003220Y016947D01*
X003182Y016926D01*
X003143Y016908D01*
X003102Y016895D01*
X003060Y016885D01*
X003018Y016879D01*
X002975Y016877D01*
X002932Y016879D01*
X002890Y016885D01*
X002848Y016895D01*
X002807Y016908D01*
X002768Y016926D01*
X002730Y016947D01*
X002695Y016971D01*
X002662Y016998D01*
X002631Y017029D01*
X002604Y017062D01*
X002580Y017097D01*
X002559Y017135D01*
X002541Y017174D01*
X002528Y017215D01*
X002518Y017257D01*
X002512Y017299D01*
X002510Y017342D01*
X002510Y016066D02*
X002512Y016109D01*
X002518Y016151D01*
X002528Y016193D01*
X002541Y016234D01*
X002559Y016273D01*
X002580Y016311D01*
X002604Y016346D01*
X002631Y016379D01*
X002662Y016410D01*
X002695Y016437D01*
X002730Y016461D01*
X002768Y016482D01*
X002807Y016500D01*
X002848Y016513D01*
X002890Y016523D01*
X002932Y016529D01*
X002975Y016531D01*
X003018Y016529D01*
X003060Y016523D01*
X003102Y016513D01*
X003143Y016500D01*
X003182Y016482D01*
X003220Y016461D01*
X003255Y016437D01*
X003288Y016410D01*
X003319Y016379D01*
X003346Y016346D01*
X003370Y016311D01*
X003391Y016273D01*
X003409Y016234D01*
X003422Y016193D01*
X003432Y016151D01*
X003438Y016109D01*
X003440Y016066D01*
X003438Y016023D01*
X003432Y015981D01*
X003422Y015939D01*
X003409Y015898D01*
X003391Y015859D01*
X003370Y015821D01*
X003346Y015786D01*
X003319Y015753D01*
X003288Y015722D01*
X003255Y015695D01*
X003220Y015671D01*
X003182Y015650D01*
X003143Y015632D01*
X003102Y015619D01*
X003060Y015609D01*
X003018Y015603D01*
X002975Y015601D01*
X002932Y015603D01*
X002890Y015609D01*
X002848Y015619D01*
X002807Y015632D01*
X002768Y015650D01*
X002730Y015671D01*
X002695Y015695D01*
X002662Y015722D01*
X002631Y015753D01*
X002604Y015786D01*
X002580Y015821D01*
X002559Y015859D01*
X002541Y015898D01*
X002528Y015939D01*
X002518Y015981D01*
X002512Y016023D01*
X002510Y016066D01*
X002510Y011342D02*
X002512Y011385D01*
X002518Y011427D01*
X002528Y011469D01*
X002541Y011510D01*
X002559Y011549D01*
X002580Y011587D01*
X002604Y011622D01*
X002631Y011655D01*
X002662Y011686D01*
X002695Y011713D01*
X002730Y011737D01*
X002768Y011758D01*
X002807Y011776D01*
X002848Y011789D01*
X002890Y011799D01*
X002932Y011805D01*
X002975Y011807D01*
X003018Y011805D01*
X003060Y011799D01*
X003102Y011789D01*
X003143Y011776D01*
X003182Y011758D01*
X003220Y011737D01*
X003255Y011713D01*
X003288Y011686D01*
X003319Y011655D01*
X003346Y011622D01*
X003370Y011587D01*
X003391Y011549D01*
X003409Y011510D01*
X003422Y011469D01*
X003432Y011427D01*
X003438Y011385D01*
X003440Y011342D01*
X003438Y011299D01*
X003432Y011257D01*
X003422Y011215D01*
X003409Y011174D01*
X003391Y011135D01*
X003370Y011097D01*
X003346Y011062D01*
X003319Y011029D01*
X003288Y010998D01*
X003255Y010971D01*
X003220Y010947D01*
X003182Y010926D01*
X003143Y010908D01*
X003102Y010895D01*
X003060Y010885D01*
X003018Y010879D01*
X002975Y010877D01*
X002932Y010879D01*
X002890Y010885D01*
X002848Y010895D01*
X002807Y010908D01*
X002768Y010926D01*
X002730Y010947D01*
X002695Y010971D01*
X002662Y010998D01*
X002631Y011029D01*
X002604Y011062D01*
X002580Y011097D01*
X002559Y011135D01*
X002541Y011174D01*
X002528Y011215D01*
X002518Y011257D01*
X002512Y011299D01*
X002510Y011342D01*
D11*
X016595Y013464D02*
X016735Y013324D01*
X019355Y013324D01*
X019355Y016084D01*
X016595Y016084D01*
X016595Y013464D01*
X016754Y013624D02*
X016756Y013647D01*
X016762Y013670D01*
X016771Y013691D01*
X016784Y013711D01*
X016800Y013728D01*
X016818Y013742D01*
X016838Y013753D01*
X016860Y013761D01*
X016883Y013765D01*
X016907Y013765D01*
X016930Y013761D01*
X016952Y013753D01*
X016972Y013742D01*
X016990Y013728D01*
X017006Y013711D01*
X017019Y013691D01*
X017028Y013670D01*
X017034Y013647D01*
X017036Y013624D01*
X017034Y013601D01*
X017028Y013578D01*
X017019Y013557D01*
X017006Y013537D01*
X016990Y013520D01*
X016972Y013506D01*
X016952Y013495D01*
X016930Y013487D01*
X016907Y013483D01*
X016883Y013483D01*
X016860Y013487D01*
X016838Y013495D01*
X016818Y013506D01*
X016800Y013520D01*
X016784Y013537D01*
X016771Y013557D01*
X016762Y013578D01*
X016756Y013601D01*
X016754Y013624D01*
X018525Y020124D02*
X019425Y020124D01*
X019425Y020784D02*
X018525Y020784D01*
X035929Y011438D02*
X036570Y011438D01*
X036570Y011651D02*
X036570Y011224D01*
X036356Y011007D02*
X035929Y011007D01*
X036143Y011224D02*
X035929Y011438D01*
X036356Y011007D02*
X036570Y010793D01*
X036356Y010580D01*
X035929Y010580D01*
X036143Y009718D02*
X036143Y009612D01*
X036356Y009398D01*
X036143Y009398D02*
X036570Y009398D01*
X036356Y009181D02*
X036250Y009181D01*
X036143Y009074D01*
X036143Y008860D01*
X036250Y008754D01*
X036463Y008754D01*
X036570Y008860D01*
X036570Y009074D01*
X036356Y009181D02*
X036356Y008754D01*
X036463Y008536D02*
X036143Y008536D01*
X036463Y008536D02*
X036570Y008429D01*
X036463Y008322D01*
X036570Y008216D01*
X036463Y008109D01*
X036143Y008109D01*
X036250Y007891D02*
X036143Y007785D01*
X036143Y007571D01*
X036250Y007464D01*
X036463Y007464D01*
X036570Y007571D01*
X036570Y007785D01*
X036463Y007891D01*
X036250Y007891D01*
X036250Y007247D02*
X036463Y007247D01*
X036570Y007140D01*
X036570Y006820D01*
X036784Y006820D02*
X036143Y006820D01*
X036143Y007140D01*
X036250Y007247D01*
X036250Y005958D02*
X036570Y005958D01*
X036250Y005958D02*
X036143Y005851D01*
X036143Y005638D01*
X036250Y005531D01*
X036143Y005313D02*
X036143Y004993D01*
X036250Y004886D01*
X036463Y004886D01*
X036570Y004993D01*
X036570Y005313D01*
X036677Y005313D02*
X036143Y005313D01*
X035929Y005531D02*
X036570Y005531D01*
X036677Y005313D02*
X036784Y005207D01*
X036784Y005100D01*
X036570Y004670D02*
X036570Y004457D01*
X036570Y004563D02*
X036143Y004563D01*
X036143Y004457D01*
X035929Y004563D02*
X035823Y004563D01*
X035929Y004239D02*
X036570Y004239D01*
X036250Y004239D02*
X036250Y003812D01*
X036570Y003812D02*
X035929Y003812D01*
X036036Y002950D02*
X036143Y002950D01*
X036250Y002843D01*
X036250Y002523D01*
X036250Y002305D02*
X036250Y002092D01*
X036250Y002305D02*
X036463Y002305D01*
X036570Y002199D01*
X036570Y001985D01*
X036463Y001878D01*
X036036Y001878D01*
X035929Y001985D01*
X035929Y002199D01*
X036036Y002305D01*
X035929Y002523D02*
X035929Y002843D01*
X036036Y002950D01*
X036250Y002843D02*
X036356Y002950D01*
X036463Y002950D01*
X036570Y002843D01*
X036570Y002523D01*
X035929Y002523D01*
X036036Y001661D02*
X036250Y001661D01*
X036356Y001554D01*
X036356Y001234D01*
X036356Y001447D02*
X036570Y001661D01*
X036036Y001661D02*
X035929Y001554D01*
X035929Y001234D01*
X036570Y001234D01*
D12*
X018460Y013529D02*
X018170Y013529D01*
X018267Y013626D01*
X018170Y013722D01*
X018460Y013722D01*
X018460Y013823D02*
X018460Y014017D01*
X018412Y014118D02*
X018460Y014166D01*
X018460Y014263D01*
X018412Y014312D01*
X018315Y014312D01*
X018315Y014215D01*
X018218Y014312D02*
X018170Y014263D01*
X018170Y014166D01*
X018218Y014118D01*
X018412Y014118D01*
X018315Y013920D02*
X018315Y013823D01*
X018170Y013823D02*
X018460Y013823D01*
X018170Y013823D02*
X018170Y014017D01*
X018267Y014413D02*
X018170Y014509D01*
X018267Y014606D01*
X018460Y014606D01*
X018412Y014707D02*
X018363Y014707D01*
X018315Y014756D01*
X018315Y014853D01*
X018363Y014901D01*
X018412Y014901D01*
X018460Y014853D01*
X018460Y014756D01*
X018412Y014707D01*
X018315Y014756D02*
X018267Y014707D01*
X018218Y014707D01*
X018170Y014756D01*
X018170Y014853D01*
X018218Y014901D01*
X018267Y014901D01*
X018315Y014853D01*
X018315Y015002D02*
X018315Y015196D01*
X018315Y015297D02*
X018315Y015490D01*
X018267Y015490D02*
X018460Y015490D01*
X018460Y015591D02*
X018460Y015688D01*
X018460Y015640D02*
X018170Y015640D01*
X018170Y015688D02*
X018170Y015591D01*
X018267Y015490D02*
X018170Y015393D01*
X018267Y015297D01*
X018460Y015297D01*
X018315Y014606D02*
X018315Y014413D01*
X018267Y014413D02*
X018460Y014413D01*
D13*
X018447Y013109D03*
X018132Y013109D03*
X017818Y013109D03*
X017503Y013109D03*
X017188Y013109D03*
X016873Y013109D03*
X018762Y013109D03*
X019077Y013109D03*
X019077Y016299D03*
X018762Y016299D03*
X018447Y016299D03*
X018132Y016299D03*
X017818Y016299D03*
X017503Y016299D03*
X017188Y016299D03*
X016873Y016299D03*
D14*
X016380Y015806D03*
X016380Y015491D03*
X016380Y015176D03*
X016380Y014861D03*
X016380Y014546D03*
X016380Y014231D03*
X016380Y013916D03*
X016380Y013601D03*
X019570Y013601D03*
X019570Y013916D03*
X019570Y014231D03*
X019570Y014546D03*
X019570Y014861D03*
X019570Y015176D03*
X019570Y015491D03*
X019570Y015806D03*
D15*
X019355Y018894D02*
X018595Y018894D01*
X018595Y019514D02*
X019355Y019514D01*
X019035Y019674D02*
X019035Y020134D01*
X019342Y020134D01*
X019188Y019904D02*
X019035Y019904D01*
X018881Y019981D02*
X018881Y019674D01*
X018651Y019674D01*
X018574Y019751D01*
X018574Y019981D01*
X018267Y020134D02*
X018267Y019674D01*
X018114Y019674D02*
X018421Y019674D01*
X018114Y019981D02*
X018267Y020134D01*
X017960Y019751D02*
X017960Y019674D01*
X017884Y019674D01*
X017884Y019751D01*
X017960Y019751D01*
X017730Y019751D02*
X017730Y020057D01*
X017423Y019751D01*
X017500Y019674D01*
X017653Y019674D01*
X017730Y019751D01*
X017730Y020057D02*
X017653Y020134D01*
X017500Y020134D01*
X017423Y020057D01*
X017423Y019751D01*
X018191Y020974D02*
X018497Y020974D01*
X018344Y020974D02*
X018344Y021434D01*
X018191Y021281D01*
X018651Y021357D02*
X018651Y021051D01*
X018958Y021357D01*
X018958Y021051D01*
X018881Y020974D01*
X018728Y020974D01*
X018651Y021051D01*
X018651Y021357D02*
X018728Y021434D01*
X018881Y021434D01*
X018958Y021357D01*
X019111Y021434D02*
X019111Y020974D01*
X019111Y021127D02*
X019342Y021281D01*
X019111Y021127D02*
X019342Y020974D01*
X014905Y020105D02*
X014445Y020105D01*
X014445Y020412D01*
X014675Y020258D02*
X014675Y020105D01*
X014598Y019951D02*
X014905Y019951D01*
X014905Y019721D01*
X014828Y019645D01*
X014598Y019645D01*
X014521Y019491D02*
X014828Y019184D01*
X014905Y019261D01*
X014905Y019414D01*
X014828Y019491D01*
X014521Y019491D01*
X014445Y019414D01*
X014445Y019261D01*
X014521Y019184D01*
X014828Y019184D01*
X014905Y019031D02*
X014905Y018724D01*
X014905Y018877D02*
X014445Y018877D01*
X014598Y018724D01*
X014285Y018824D02*
X014285Y019584D01*
X013665Y019584D02*
X013665Y018824D01*
X013405Y018801D02*
X013328Y018724D01*
X013021Y019031D01*
X013328Y019031D01*
X013405Y018954D01*
X013405Y018801D01*
X013328Y018724D02*
X013021Y018724D01*
X012945Y018801D01*
X012945Y018954D01*
X013021Y019031D01*
X012785Y018824D02*
X012785Y019584D01*
X012945Y019568D02*
X013098Y019414D01*
X012945Y019568D02*
X013405Y019568D01*
X013405Y019721D02*
X013405Y019414D01*
X013405Y019261D02*
X013405Y019184D01*
X013328Y019184D01*
X013328Y019261D01*
X013405Y019261D01*
X013328Y019875D02*
X013098Y019875D01*
X013328Y019875D02*
X013405Y019951D01*
X013405Y020182D01*
X013098Y020182D01*
X013175Y020335D02*
X013175Y020489D01*
X012945Y020335D02*
X012945Y020642D01*
X012945Y020335D02*
X013405Y020335D01*
X012165Y019584D02*
X012165Y018824D01*
X007882Y017381D02*
X007882Y017027D01*
X007568Y017027D02*
X007568Y017381D01*
X007555Y015844D02*
X007555Y015564D01*
X007890Y015564D02*
X007890Y015844D01*
X010475Y007570D02*
X010475Y007263D01*
X010705Y007263D01*
X010628Y007417D01*
X010628Y007494D01*
X010705Y007570D01*
X010858Y007570D01*
X010935Y007494D01*
X010935Y007340D01*
X010858Y007263D01*
X010551Y007110D02*
X010858Y006803D01*
X010935Y006803D01*
X010705Y006650D02*
X010782Y006573D01*
X010782Y006343D01*
X010935Y006343D02*
X010475Y006343D01*
X010475Y006573D01*
X010551Y006650D01*
X010705Y006650D01*
X010475Y006803D02*
X010475Y007110D01*
X010551Y007110D01*
X010551Y006189D02*
X010475Y006112D01*
X010475Y005959D01*
X010551Y005882D01*
X010628Y005882D01*
X010705Y005959D01*
X010705Y006112D01*
X010782Y006189D01*
X010858Y006189D01*
X010935Y006112D01*
X010935Y005959D01*
X010858Y005882D01*
X010858Y005729D02*
X010935Y005652D01*
X010935Y005422D01*
X010475Y005422D01*
X010475Y005652D01*
X010551Y005729D01*
X010628Y005729D01*
X010705Y005652D01*
X010705Y005422D01*
X010705Y005652D02*
X010782Y005729D01*
X010858Y005729D01*
X020975Y005652D02*
X020975Y005422D01*
X021435Y005422D01*
X021435Y005652D01*
X021358Y005729D01*
X021282Y005729D01*
X021205Y005652D01*
X021205Y005422D01*
X021205Y005652D02*
X021128Y005729D01*
X021051Y005729D01*
X020975Y005652D01*
X021051Y005882D02*
X021128Y005882D01*
X021205Y005959D01*
X021205Y006112D01*
X021282Y006189D01*
X021358Y006189D01*
X021435Y006112D01*
X021435Y005959D01*
X021358Y005882D01*
X021051Y005882D02*
X020975Y005959D01*
X020975Y006112D01*
X021051Y006189D01*
X020975Y006343D02*
X020975Y006573D01*
X021051Y006650D01*
X021205Y006650D01*
X021282Y006573D01*
X021282Y006343D01*
X021435Y006343D02*
X020975Y006343D01*
X020975Y006803D02*
X020975Y007110D01*
X021051Y007110D01*
X021358Y006803D01*
X021435Y006803D01*
X021358Y007263D02*
X021435Y007340D01*
X021435Y007494D01*
X021358Y007570D01*
X021205Y007570D01*
X021128Y007494D01*
X021128Y007417D01*
X021205Y007263D01*
X020975Y007263D01*
X020975Y007570D01*
X031475Y007570D02*
X031475Y007263D01*
X031705Y007263D01*
X031628Y007417D01*
X031628Y007494D01*
X031705Y007570D01*
X031858Y007570D01*
X031935Y007494D01*
X031935Y007340D01*
X031858Y007263D01*
X031551Y007110D02*
X031858Y006803D01*
X031935Y006803D01*
X031705Y006650D02*
X031782Y006573D01*
X031782Y006343D01*
X031935Y006343D02*
X031475Y006343D01*
X031475Y006573D01*
X031551Y006650D01*
X031705Y006650D01*
X031475Y006803D02*
X031475Y007110D01*
X031551Y007110D01*
X031551Y006189D02*
X031475Y006112D01*
X031475Y005959D01*
X031551Y005882D01*
X031628Y005882D01*
X031705Y005959D01*
X031705Y006112D01*
X031782Y006189D01*
X031858Y006189D01*
X031935Y006112D01*
X031935Y005959D01*
X031858Y005882D01*
X031858Y005729D02*
X031935Y005652D01*
X031935Y005422D01*
X031475Y005422D01*
X031475Y005652D01*
X031551Y005729D01*
X031628Y005729D01*
X031705Y005652D01*
X031705Y005422D01*
X031705Y005652D02*
X031782Y005729D01*
X031858Y005729D01*
X023975Y025224D02*
X023515Y025224D01*
X023515Y025454D01*
X023591Y025531D01*
X023668Y025531D01*
X023745Y025454D01*
X023745Y025224D01*
X023745Y025454D02*
X023822Y025531D01*
X023898Y025531D01*
X023975Y025454D01*
X023975Y025224D01*
X023898Y025684D02*
X023975Y025761D01*
X023975Y025914D01*
X023898Y025991D01*
X023822Y025991D01*
X023745Y025914D01*
X023745Y025761D01*
X023668Y025684D01*
X023591Y025684D01*
X023515Y025761D01*
X023515Y025914D01*
X023591Y025991D01*
X023515Y026145D02*
X023515Y026375D01*
X023591Y026451D01*
X023745Y026451D01*
X023822Y026375D01*
X023822Y026145D01*
X023975Y026145D02*
X023515Y026145D01*
X023515Y026605D02*
X023515Y026912D01*
X023591Y026912D01*
X023898Y026605D01*
X023975Y026605D01*
X023898Y027065D02*
X023975Y027142D01*
X023975Y027296D01*
X023898Y027372D01*
X023745Y027372D01*
X023668Y027296D01*
X023668Y027219D01*
X023745Y027065D01*
X023515Y027065D01*
X023515Y027372D01*
X013475Y027296D02*
X013475Y027142D01*
X013398Y027065D01*
X013245Y027065D02*
X013168Y027219D01*
X013168Y027296D01*
X013245Y027372D01*
X013398Y027372D01*
X013475Y027296D01*
X013245Y027065D02*
X013015Y027065D01*
X013015Y027372D01*
X013015Y026912D02*
X013091Y026912D01*
X013398Y026605D01*
X013475Y026605D01*
X013245Y026451D02*
X013322Y026375D01*
X013322Y026145D01*
X013475Y026145D02*
X013015Y026145D01*
X013015Y026375D01*
X013091Y026451D01*
X013245Y026451D01*
X013015Y026605D02*
X013015Y026912D01*
X013091Y025991D02*
X013015Y025914D01*
X013015Y025761D01*
X013091Y025684D01*
X013168Y025684D01*
X013245Y025761D01*
X013245Y025914D01*
X013322Y025991D01*
X013398Y025991D01*
X013475Y025914D01*
X013475Y025761D01*
X013398Y025684D01*
X013398Y025531D02*
X013475Y025454D01*
X013475Y025224D01*
X013015Y025224D01*
X013015Y025454D01*
X013091Y025531D01*
X013168Y025531D01*
X013245Y025454D01*
X013245Y025224D01*
X013245Y025454D02*
X013322Y025531D01*
X013398Y025531D01*
X002975Y025454D02*
X002975Y025224D01*
X002515Y025224D01*
X002515Y025454D01*
X002591Y025531D01*
X002668Y025531D01*
X002745Y025454D01*
X002745Y025224D01*
X002745Y025454D02*
X002822Y025531D01*
X002898Y025531D01*
X002975Y025454D01*
X002898Y025684D02*
X002975Y025761D01*
X002975Y025914D01*
X002898Y025991D01*
X002822Y025991D01*
X002745Y025914D01*
X002745Y025761D01*
X002668Y025684D01*
X002591Y025684D01*
X002515Y025761D01*
X002515Y025914D01*
X002591Y025991D01*
X002515Y026145D02*
X002515Y026375D01*
X002591Y026451D01*
X002745Y026451D01*
X002822Y026375D01*
X002822Y026145D01*
X002975Y026145D02*
X002515Y026145D01*
X002515Y026605D02*
X002515Y026912D01*
X002591Y026912D01*
X002898Y026605D01*
X002975Y026605D01*
X002898Y027065D02*
X002975Y027142D01*
X002975Y027296D01*
X002898Y027372D01*
X002745Y027372D01*
X002668Y027296D01*
X002668Y027219D01*
X002745Y027065D01*
X002515Y027065D01*
X002515Y027372D01*
D16*
X018420Y020454D03*
X019530Y020454D03*
D17*
X019497Y019204D03*
X018453Y019203D03*
D18*
X013975Y018681D03*
X013975Y019726D03*
X012475Y019726D03*
X012475Y018681D03*
D19*
X010920Y018310D02*
X010369Y018310D01*
X010093Y018428D02*
X010093Y018704D01*
X009857Y018468D01*
X009857Y018940D01*
X010093Y018704D01*
X010093Y018979D01*
X010369Y019097D02*
X010920Y019097D01*
X010920Y018310D01*
X009581Y018310D02*
X009030Y018310D01*
X009030Y019097D01*
X009581Y019097D01*
X009581Y019810D02*
X009030Y019810D01*
X009030Y020597D01*
X009581Y020597D01*
X009857Y020440D02*
X010093Y020204D01*
X009857Y019968D01*
X009857Y020440D01*
X010093Y020479D02*
X010093Y020204D01*
X010093Y019928D01*
X010369Y019810D02*
X010920Y019810D01*
X010920Y020597D01*
X010369Y020597D01*
X006497Y022194D02*
X006497Y017214D01*
X002680Y017214D01*
X000632Y017214D01*
X000632Y022194D01*
X002680Y022194D01*
X003270Y022194D01*
X006497Y022194D01*
X003175Y024914D02*
X001775Y024914D01*
X001775Y027494D01*
X003175Y027494D01*
X003175Y024914D01*
X004268Y025444D02*
X004268Y032768D01*
X009682Y032768D01*
X009682Y025444D01*
X004268Y025444D01*
X003270Y022194D02*
X003256Y022225D01*
X003238Y022254D01*
X003217Y022281D01*
X003193Y022305D01*
X003167Y022327D01*
X003138Y022346D01*
X003108Y022362D01*
X003076Y022375D01*
X003043Y022384D01*
X003009Y022389D01*
X002975Y022391D01*
X002941Y022389D01*
X002907Y022384D01*
X002874Y022375D01*
X002842Y022362D01*
X002812Y022346D01*
X002783Y022327D01*
X002757Y022305D01*
X002733Y022281D01*
X002712Y022254D01*
X002694Y022225D01*
X002680Y022194D01*
X002680Y017213D02*
X002694Y017182D01*
X002712Y017153D01*
X002733Y017126D01*
X002757Y017102D01*
X002783Y017080D01*
X002812Y017061D01*
X002842Y017045D01*
X002874Y017032D01*
X002907Y017023D01*
X002941Y017018D01*
X002975Y017016D01*
X003009Y017018D01*
X003043Y017023D01*
X003076Y017032D01*
X003108Y017045D01*
X003138Y017061D01*
X003167Y017080D01*
X003193Y017102D01*
X003217Y017126D01*
X003238Y017153D01*
X003256Y017182D01*
X003270Y017213D01*
X003270Y016194D02*
X002680Y016194D01*
X000632Y016194D01*
X000632Y011214D01*
X002680Y011214D01*
X006497Y011214D01*
X006497Y016194D01*
X003270Y016194D01*
X003256Y016225D01*
X003238Y016254D01*
X003217Y016281D01*
X003193Y016305D01*
X003167Y016327D01*
X003138Y016346D01*
X003108Y016362D01*
X003076Y016375D01*
X003043Y016384D01*
X003009Y016389D01*
X002975Y016391D01*
X002941Y016389D01*
X002907Y016384D01*
X002874Y016375D01*
X002842Y016362D01*
X002812Y016346D01*
X002783Y016327D01*
X002757Y016305D01*
X002733Y016281D01*
X002712Y016254D01*
X002694Y016225D01*
X002680Y016194D01*
X002680Y011213D02*
X002694Y011182D01*
X002712Y011153D01*
X002733Y011126D01*
X002757Y011102D01*
X002783Y011080D01*
X002812Y011061D01*
X002842Y011045D01*
X002874Y011032D01*
X002907Y011023D01*
X002941Y011018D01*
X002975Y011016D01*
X003009Y011018D01*
X003043Y011023D01*
X003076Y011032D01*
X003108Y011045D01*
X003138Y011061D01*
X003167Y011080D01*
X003193Y011102D01*
X003217Y011126D01*
X003238Y011153D01*
X003256Y011182D01*
X003270Y011213D01*
X003768Y007463D02*
X003768Y000140D01*
X009182Y000140D01*
X009182Y007463D01*
X003768Y007463D01*
X010275Y007994D02*
X010275Y005414D01*
X011675Y005414D01*
X011675Y007994D01*
X010275Y007994D01*
X014268Y007463D02*
X014268Y000140D01*
X019682Y000140D01*
X019682Y007463D01*
X014268Y007463D01*
X020775Y007994D02*
X020775Y005414D01*
X022175Y005414D01*
X022175Y007994D01*
X020775Y007994D01*
X024768Y007463D02*
X024768Y000140D01*
X030182Y000140D01*
X030182Y007463D01*
X024768Y007463D01*
X031275Y007994D02*
X031275Y005414D01*
X032675Y005414D01*
X032675Y007994D01*
X031275Y007994D01*
X032725Y011261D02*
X032725Y012354D01*
X032725Y012504D01*
X032475Y012504D01*
X032275Y012804D01*
X032275Y012954D01*
X032425Y013004D01*
X032425Y013404D01*
X032275Y013454D01*
X032275Y013604D01*
X032425Y013904D01*
X032725Y013904D01*
X032725Y014054D01*
X032725Y014354D01*
X032725Y014504D01*
X032475Y014504D01*
X032275Y014804D01*
X032275Y014954D01*
X032425Y015004D01*
X032425Y015404D01*
X032275Y015454D01*
X032275Y015604D01*
X032425Y015904D01*
X032725Y015904D01*
X032725Y016054D01*
X032725Y016354D01*
X032725Y016504D01*
X032475Y016504D01*
X032275Y016804D01*
X032275Y016954D01*
X032425Y017004D01*
X032425Y017404D01*
X032275Y017454D01*
X032275Y017604D01*
X032425Y017904D01*
X032725Y017904D01*
X032725Y018054D01*
X032725Y018354D01*
X032725Y018504D01*
X032475Y018504D01*
X032275Y018804D01*
X032275Y018954D01*
X032425Y019004D01*
X032425Y019404D01*
X032275Y019454D01*
X032275Y019604D01*
X032425Y019904D01*
X032725Y019904D01*
X032725Y020054D01*
X032725Y021179D01*
X033666Y021179D01*
X033666Y020837D01*
X037467Y020837D01*
X037467Y018732D01*
X037502Y018689D01*
X037534Y018643D01*
X037563Y018594D01*
X037588Y018544D01*
X037610Y018493D01*
X037628Y018440D01*
X037642Y018385D01*
X037653Y018330D01*
X037660Y018275D01*
X037663Y018219D01*
X037662Y018163D01*
X037657Y018107D01*
X037649Y018051D01*
X037636Y017997D01*
X037620Y017943D01*
X037601Y017891D01*
X037577Y017840D01*
X037550Y017790D01*
X037520Y017743D01*
X037487Y017698D01*
X037451Y017655D01*
X037451Y017656D02*
X037451Y017656D01*
X037451Y017656D01*
X037451Y017656D01*
X037451Y017656D01*
X037451Y017656D01*
X037451Y017656D01*
X037451Y017656D01*
X037451Y014752D01*
X037488Y014712D01*
X037522Y014670D01*
X037553Y014626D01*
X037581Y014580D01*
X037606Y014531D01*
X037627Y014481D01*
X037644Y014430D01*
X037658Y014378D01*
X037669Y014325D01*
X037675Y014271D01*
X037678Y014217D01*
X037677Y014163D01*
X037672Y014109D01*
X037663Y014055D01*
X037651Y014002D01*
X037635Y013951D01*
X037615Y013900D01*
X037592Y013851D01*
X037566Y013804D01*
X037536Y013759D01*
X037503Y013715D01*
X037467Y013675D01*
X037467Y011587D01*
X033666Y011587D01*
X033666Y011261D01*
X032725Y011261D01*
X037451Y017656D02*
X037451Y017656D01*
X030682Y025444D02*
X030682Y032768D01*
X025268Y032768D01*
X025268Y025444D01*
X030682Y025444D01*
X024175Y024914D02*
X022775Y024914D01*
X022775Y027494D01*
X024175Y027494D01*
X024175Y024914D01*
X020182Y025444D02*
X020182Y032768D01*
X014768Y032768D01*
X014768Y025444D01*
X020182Y025444D01*
X013675Y024914D02*
X012275Y024914D01*
X012275Y027494D01*
X013675Y027494D01*
X013675Y024914D01*
D20*
X015516Y026065D02*
X015567Y026014D01*
X015671Y026014D01*
X015723Y026065D01*
X015723Y026169D01*
X015671Y026221D01*
X015619Y026221D01*
X015516Y026169D01*
X015516Y026324D01*
X015723Y026324D01*
X015810Y026324D02*
X015810Y026117D01*
X015914Y026014D01*
X016017Y026117D01*
X016017Y026324D01*
X017435Y025824D02*
X017435Y025514D01*
X017590Y025514D01*
X017642Y025565D01*
X017642Y025617D01*
X017590Y025669D01*
X017435Y025669D01*
X017435Y025824D02*
X017590Y025824D01*
X017642Y025772D01*
X017642Y025721D01*
X017590Y025669D01*
X018971Y026014D02*
X019178Y026014D01*
X019266Y026014D02*
X019473Y026221D01*
X019473Y026272D01*
X019421Y026324D01*
X019317Y026324D01*
X019266Y026272D01*
X019074Y026324D02*
X019074Y026014D01*
X019266Y026014D02*
X019473Y026014D01*
X019560Y026117D02*
X019664Y026014D01*
X019767Y026117D01*
X019767Y026324D01*
X019560Y026324D02*
X019560Y026117D01*
X019074Y026324D02*
X018971Y026221D01*
X018267Y027764D02*
X018164Y027867D01*
X018215Y027867D02*
X018060Y027867D01*
X018060Y027764D02*
X018060Y028074D01*
X018215Y028074D01*
X018267Y028022D01*
X018267Y027919D01*
X018215Y027867D01*
X017267Y027815D02*
X017267Y027919D01*
X017164Y027919D01*
X017267Y028022D02*
X017215Y028074D01*
X017112Y028074D01*
X017060Y028022D01*
X017060Y027815D01*
X017112Y027764D01*
X017215Y027764D01*
X017267Y027815D01*
X016517Y027815D02*
X016517Y028022D01*
X016465Y028074D01*
X016310Y028074D01*
X016310Y027764D01*
X016465Y027764D01*
X016517Y027815D01*
X016223Y027764D02*
X016223Y028074D01*
X016016Y028074D02*
X016223Y027764D01*
X016016Y027764D02*
X016016Y028074D01*
X015928Y028022D02*
X015876Y028074D01*
X015773Y028074D01*
X015721Y028022D01*
X015721Y027815D01*
X015773Y027764D01*
X015876Y027764D01*
X015928Y027815D01*
X015928Y027919D01*
X015824Y027919D01*
X009267Y026324D02*
X009267Y026117D01*
X009164Y026014D01*
X009060Y026117D01*
X009060Y026324D01*
X008973Y026272D02*
X008921Y026324D01*
X008817Y026324D01*
X008766Y026272D01*
X008574Y026324D02*
X008574Y026014D01*
X008471Y026014D02*
X008678Y026014D01*
X008766Y026014D02*
X008973Y026221D01*
X008973Y026272D01*
X008973Y026014D02*
X008766Y026014D01*
X008471Y026221D02*
X008574Y026324D01*
X007142Y025772D02*
X007142Y025721D01*
X007090Y025669D01*
X006935Y025669D01*
X006935Y025514D02*
X006935Y025824D01*
X007090Y025824D01*
X007142Y025772D01*
X007090Y025669D02*
X007142Y025617D01*
X007142Y025565D01*
X007090Y025514D01*
X006935Y025514D01*
X005517Y026117D02*
X005517Y026324D01*
X005310Y026324D02*
X005310Y026117D01*
X005414Y026014D01*
X005517Y026117D01*
X005223Y026065D02*
X005171Y026014D01*
X005067Y026014D01*
X005016Y026065D01*
X005016Y026169D02*
X005119Y026221D01*
X005171Y026221D01*
X005223Y026169D01*
X005223Y026065D01*
X005016Y026169D02*
X005016Y026324D01*
X005223Y026324D01*
X005273Y027764D02*
X005376Y027764D01*
X005428Y027815D01*
X005428Y027919D01*
X005324Y027919D01*
X005221Y028022D02*
X005221Y027815D01*
X005273Y027764D01*
X005516Y027764D02*
X005516Y028074D01*
X005723Y027764D01*
X005723Y028074D01*
X005810Y028074D02*
X005965Y028074D01*
X006017Y028022D01*
X006017Y027815D01*
X005965Y027764D01*
X005810Y027764D01*
X005810Y028074D01*
X005428Y028022D02*
X005376Y028074D01*
X005273Y028074D01*
X005221Y028022D01*
X006560Y028022D02*
X006560Y027815D01*
X006612Y027764D01*
X006715Y027764D01*
X006767Y027815D01*
X006767Y027919D01*
X006664Y027919D01*
X006767Y028022D02*
X006715Y028074D01*
X006612Y028074D01*
X006560Y028022D01*
X007560Y028074D02*
X007560Y027764D01*
X007560Y027867D02*
X007715Y027867D01*
X007767Y027919D01*
X007767Y028022D01*
X007715Y028074D01*
X007560Y028074D01*
X007664Y027867D02*
X007767Y027764D01*
X003363Y020746D02*
X003156Y020746D01*
X003105Y020694D01*
X003105Y020539D01*
X003415Y020539D01*
X003415Y020694D01*
X003363Y020746D01*
X003415Y020451D02*
X003105Y020451D01*
X003105Y020244D02*
X003415Y020451D01*
X003415Y020244D02*
X003105Y020244D01*
X003156Y020157D02*
X003105Y020105D01*
X003105Y020002D01*
X003156Y019950D01*
X003363Y019950D01*
X003415Y020002D01*
X003415Y020105D01*
X003363Y020157D01*
X003260Y020157D01*
X003260Y020053D01*
X003415Y019371D02*
X003415Y019164D01*
X003105Y019164D01*
X003156Y019076D02*
X003105Y019025D01*
X003105Y018921D01*
X003156Y018869D01*
X003363Y018869D01*
X003415Y018921D01*
X003415Y019025D01*
X003363Y019076D01*
X003363Y018782D02*
X003415Y018730D01*
X003415Y018627D01*
X003363Y018575D01*
X003260Y018627D02*
X003260Y018730D01*
X003312Y018782D01*
X003363Y018782D01*
X003260Y018627D02*
X003208Y018575D01*
X003156Y018575D01*
X003105Y018627D01*
X003105Y018730D01*
X003156Y018782D01*
X005355Y018621D02*
X005562Y018621D01*
X005665Y018518D01*
X005562Y018414D01*
X005355Y018414D01*
X005406Y018326D02*
X005355Y018275D01*
X005355Y018171D01*
X005406Y018119D01*
X005355Y017928D02*
X005665Y017928D01*
X005665Y017825D02*
X005665Y018032D01*
X005665Y018119D02*
X005458Y018326D01*
X005406Y018326D01*
X005665Y018326D02*
X005665Y018119D01*
X005458Y017825D02*
X005355Y017928D01*
X005406Y018950D02*
X005458Y018950D01*
X005510Y019002D01*
X005510Y019105D01*
X005562Y019157D01*
X005613Y019157D01*
X005665Y019105D01*
X005665Y019002D01*
X005613Y018950D01*
X005406Y018950D02*
X005355Y019002D01*
X005355Y019105D01*
X005406Y019157D01*
X005355Y019244D02*
X005355Y019400D01*
X005406Y019451D01*
X005613Y019451D01*
X005665Y019400D01*
X005665Y019244D01*
X005355Y019244D01*
X005458Y019539D02*
X005355Y019643D01*
X005458Y019746D01*
X005665Y019746D01*
X005510Y019746D02*
X005510Y019539D01*
X005458Y019539D02*
X005665Y019539D01*
X005613Y019994D02*
X005665Y020046D01*
X005665Y020150D01*
X005613Y020201D01*
X005510Y020201D01*
X005458Y020150D01*
X005458Y020098D01*
X005510Y019994D01*
X005355Y019994D01*
X005355Y020201D01*
X005355Y020289D02*
X005562Y020289D01*
X005665Y020393D01*
X005562Y020496D01*
X005355Y020496D01*
X009580Y019609D02*
X009630Y019659D01*
X009630Y019509D01*
X009580Y019509D02*
X009680Y019509D01*
X009727Y019509D02*
X009727Y019659D01*
X009827Y019509D01*
X009827Y019659D01*
X009875Y019659D02*
X009875Y019584D01*
X009925Y019609D01*
X009950Y019609D01*
X009975Y019584D01*
X009975Y019534D01*
X009950Y019509D01*
X009900Y019509D01*
X009875Y019534D01*
X009875Y019659D02*
X009975Y019659D01*
X010022Y019634D02*
X010022Y019609D01*
X010047Y019584D01*
X010097Y019584D01*
X010122Y019559D01*
X010122Y019534D01*
X010097Y019509D01*
X010047Y019509D01*
X010022Y019534D01*
X010022Y019559D01*
X010047Y019584D01*
X010097Y019584D02*
X010122Y019609D01*
X010122Y019634D01*
X010097Y019659D01*
X010047Y019659D01*
X010022Y019634D01*
X010169Y019609D02*
X010219Y019659D01*
X010219Y019509D01*
X010169Y019509D02*
X010269Y019509D01*
X010317Y019509D02*
X010392Y019509D01*
X010417Y019534D01*
X010417Y019634D01*
X010392Y019659D01*
X010317Y019659D01*
X010317Y019509D01*
X010464Y019509D02*
X010564Y019509D01*
X010611Y019509D02*
X010711Y019609D01*
X010711Y019634D01*
X010686Y019659D01*
X010636Y019659D01*
X010611Y019634D01*
X010514Y019659D02*
X010514Y019509D01*
X010611Y019509D02*
X010711Y019509D01*
X010759Y019534D02*
X010859Y019634D01*
X010859Y019534D01*
X010834Y019509D01*
X010784Y019509D01*
X010759Y019534D01*
X010759Y019634D01*
X010784Y019659D01*
X010834Y019659D01*
X010859Y019634D01*
X010906Y019584D02*
X010981Y019584D01*
X011006Y019559D01*
X011006Y019534D01*
X010981Y019509D01*
X010931Y019509D01*
X010906Y019534D01*
X010906Y019584D01*
X010956Y019634D01*
X011006Y019659D01*
X010514Y019659D02*
X010464Y019609D01*
X010514Y018159D02*
X010514Y018009D01*
X010464Y018009D02*
X010564Y018009D01*
X010611Y018009D02*
X010711Y018109D01*
X010711Y018134D01*
X010686Y018159D01*
X010636Y018159D01*
X010611Y018134D01*
X010514Y018159D02*
X010464Y018109D01*
X010417Y018134D02*
X010392Y018159D01*
X010317Y018159D01*
X010317Y018009D01*
X010392Y018009D01*
X010417Y018034D01*
X010417Y018134D01*
X010269Y018009D02*
X010169Y018009D01*
X010219Y018009D02*
X010219Y018159D01*
X010169Y018109D01*
X010122Y018109D02*
X010097Y018084D01*
X010047Y018084D01*
X010022Y018109D01*
X010022Y018134D01*
X010047Y018159D01*
X010097Y018159D01*
X010122Y018134D01*
X010122Y018109D01*
X010097Y018084D02*
X010122Y018059D01*
X010122Y018034D01*
X010097Y018009D01*
X010047Y018009D01*
X010022Y018034D01*
X010022Y018059D01*
X010047Y018084D01*
X009975Y018084D02*
X009975Y018034D01*
X009950Y018009D01*
X009900Y018009D01*
X009875Y018034D01*
X009875Y018084D02*
X009925Y018109D01*
X009950Y018109D01*
X009975Y018084D01*
X009975Y018159D02*
X009875Y018159D01*
X009875Y018084D01*
X009827Y018009D02*
X009827Y018159D01*
X009727Y018159D02*
X009827Y018009D01*
X009727Y018009D02*
X009727Y018159D01*
X009630Y018159D02*
X009630Y018009D01*
X009580Y018009D02*
X009680Y018009D01*
X009580Y018109D02*
X009630Y018159D01*
X010611Y018009D02*
X010711Y018009D01*
X010759Y018034D02*
X010859Y018134D01*
X010859Y018034D01*
X010834Y018009D01*
X010784Y018009D01*
X010759Y018034D01*
X010759Y018134D01*
X010784Y018159D01*
X010834Y018159D01*
X010859Y018134D01*
X010906Y018084D02*
X010956Y018134D01*
X011006Y018159D01*
X010981Y018084D02*
X010906Y018084D01*
X010906Y018034D01*
X010931Y018009D01*
X010981Y018009D01*
X011006Y018034D01*
X011006Y018059D01*
X010981Y018084D01*
X008170Y015678D02*
X008120Y015603D01*
X008070Y015678D01*
X008020Y015603D02*
X008170Y015603D01*
X008145Y015556D02*
X008170Y015531D01*
X008170Y015481D01*
X008145Y015456D01*
X008045Y015556D01*
X008145Y015556D01*
X008145Y015456D02*
X008045Y015456D01*
X008020Y015481D01*
X008020Y015531D01*
X008045Y015556D01*
X008170Y015409D02*
X008170Y015309D01*
X008170Y015359D02*
X008020Y015359D01*
X008070Y015309D01*
X005665Y014393D02*
X005562Y014496D01*
X005355Y014496D01*
X005355Y014289D02*
X005562Y014289D01*
X005665Y014393D01*
X005613Y014201D02*
X005665Y014150D01*
X005665Y014046D01*
X005613Y013994D01*
X005510Y013994D02*
X005458Y014098D01*
X005458Y014150D01*
X005510Y014201D01*
X005613Y014201D01*
X005510Y013994D02*
X005355Y013994D01*
X005355Y014201D01*
X005458Y013746D02*
X005665Y013746D01*
X005510Y013746D02*
X005510Y013539D01*
X005458Y013539D02*
X005355Y013643D01*
X005458Y013746D01*
X005458Y013539D02*
X005665Y013539D01*
X005613Y013451D02*
X005406Y013451D01*
X005355Y013400D01*
X005355Y013244D01*
X005665Y013244D01*
X005665Y013400D01*
X005613Y013451D01*
X005613Y013157D02*
X005665Y013105D01*
X005665Y013002D01*
X005613Y012950D01*
X005510Y013002D02*
X005510Y013105D01*
X005562Y013157D01*
X005613Y013157D01*
X005510Y013002D02*
X005458Y012950D01*
X005406Y012950D01*
X005355Y013002D01*
X005355Y013105D01*
X005406Y013157D01*
X005355Y012621D02*
X005562Y012621D01*
X005665Y012518D01*
X005562Y012414D01*
X005355Y012414D01*
X005406Y012326D02*
X005355Y012275D01*
X005355Y012171D01*
X005406Y012119D01*
X005355Y011928D02*
X005665Y011928D01*
X005665Y011825D02*
X005665Y012032D01*
X005665Y012119D02*
X005458Y012326D01*
X005406Y012326D01*
X005665Y012326D02*
X005665Y012119D01*
X005458Y011825D02*
X005355Y011928D01*
X003415Y012627D02*
X003363Y012575D01*
X003415Y012627D02*
X003415Y012730D01*
X003363Y012782D01*
X003312Y012782D01*
X003260Y012730D01*
X003260Y012627D01*
X003208Y012575D01*
X003156Y012575D01*
X003105Y012627D01*
X003105Y012730D01*
X003156Y012782D01*
X003156Y012869D02*
X003363Y012869D01*
X003415Y012921D01*
X003415Y013025D01*
X003363Y013076D01*
X003415Y013164D02*
X003105Y013164D01*
X003156Y013076D02*
X003105Y013025D01*
X003105Y012921D01*
X003156Y012869D01*
X003415Y013164D02*
X003415Y013371D01*
X003363Y013950D02*
X003415Y014002D01*
X003415Y014105D01*
X003363Y014157D01*
X003260Y014157D01*
X003260Y014053D01*
X003363Y013950D02*
X003156Y013950D01*
X003105Y014002D01*
X003105Y014105D01*
X003156Y014157D01*
X003105Y014244D02*
X003415Y014451D01*
X003105Y014451D01*
X003105Y014539D02*
X003105Y014694D01*
X003156Y014746D01*
X003363Y014746D01*
X003415Y014694D01*
X003415Y014539D01*
X003105Y014539D01*
X003105Y014244D02*
X003415Y014244D01*
X006230Y007394D02*
X006385Y007394D01*
X006437Y007342D01*
X006437Y007291D01*
X006385Y007239D01*
X006230Y007239D01*
X006230Y007084D02*
X006230Y007394D01*
X006385Y007239D02*
X006437Y007187D01*
X006437Y007135D01*
X006385Y007084D01*
X006230Y007084D01*
X004901Y006894D02*
X004901Y006687D01*
X004798Y006584D01*
X004694Y006687D01*
X004694Y006894D01*
X004606Y006842D02*
X004555Y006894D01*
X004451Y006894D01*
X004400Y006842D01*
X004208Y006894D02*
X004208Y006584D01*
X004105Y006584D02*
X004312Y006584D01*
X004400Y006584D02*
X004606Y006791D01*
X004606Y006842D01*
X004606Y006584D02*
X004400Y006584D01*
X004105Y006791D02*
X004208Y006894D01*
X005605Y005144D02*
X005760Y005144D01*
X005812Y005092D01*
X005812Y004989D01*
X005760Y004937D01*
X005605Y004937D01*
X005605Y004834D02*
X005605Y005144D01*
X005708Y004937D02*
X005812Y004834D01*
X006605Y004885D02*
X006657Y004834D01*
X006760Y004834D01*
X006812Y004885D01*
X006812Y004989D01*
X006708Y004989D01*
X006605Y005092D02*
X006605Y004885D01*
X006605Y005092D02*
X006657Y005144D01*
X006760Y005144D01*
X006812Y005092D01*
X007355Y005092D02*
X007355Y004885D01*
X007407Y004834D01*
X007510Y004834D01*
X007562Y004885D01*
X007562Y004989D01*
X007458Y004989D01*
X007355Y005092D02*
X007407Y005144D01*
X007510Y005144D01*
X007562Y005092D01*
X007650Y005144D02*
X007856Y004834D01*
X007856Y005144D01*
X007944Y005144D02*
X007944Y004834D01*
X008099Y004834D01*
X008151Y004885D01*
X008151Y005092D01*
X008099Y005144D01*
X007944Y005144D01*
X007650Y005144D02*
X007650Y004834D01*
X007907Y006584D02*
X007855Y006635D01*
X007907Y006584D02*
X008010Y006584D01*
X008062Y006635D01*
X008062Y006739D01*
X008010Y006791D01*
X007958Y006791D01*
X007855Y006739D01*
X007855Y006894D01*
X008062Y006894D01*
X008150Y006894D02*
X008150Y006687D01*
X008253Y006584D01*
X008356Y006687D01*
X008356Y006894D01*
X014605Y006791D02*
X014708Y006894D01*
X014708Y006584D01*
X014605Y006584D02*
X014812Y006584D01*
X014900Y006584D02*
X015106Y006791D01*
X015106Y006842D01*
X015055Y006894D01*
X014951Y006894D01*
X014900Y006842D01*
X014900Y006584D02*
X015106Y006584D01*
X015194Y006687D02*
X015298Y006584D01*
X015401Y006687D01*
X015401Y006894D01*
X015194Y006894D02*
X015194Y006687D01*
X016730Y007084D02*
X016885Y007084D01*
X016937Y007135D01*
X016937Y007187D01*
X016885Y007239D01*
X016730Y007239D01*
X016730Y007084D02*
X016730Y007394D01*
X016885Y007394D01*
X016937Y007342D01*
X016937Y007291D01*
X016885Y007239D01*
X018355Y006894D02*
X018355Y006739D01*
X018458Y006791D01*
X018510Y006791D01*
X018562Y006739D01*
X018562Y006635D01*
X018510Y006584D01*
X018407Y006584D01*
X018355Y006635D01*
X018355Y006894D02*
X018562Y006894D01*
X018650Y006894D02*
X018650Y006687D01*
X018753Y006584D01*
X018856Y006687D01*
X018856Y006894D01*
X018599Y005144D02*
X018444Y005144D01*
X018444Y004834D01*
X018599Y004834D01*
X018651Y004885D01*
X018651Y005092D01*
X018599Y005144D01*
X018356Y005144D02*
X018356Y004834D01*
X018150Y005144D01*
X018150Y004834D01*
X018062Y004885D02*
X018062Y004989D01*
X017958Y004989D01*
X017855Y005092D02*
X017855Y004885D01*
X017907Y004834D01*
X018010Y004834D01*
X018062Y004885D01*
X018062Y005092D02*
X018010Y005144D01*
X017907Y005144D01*
X017855Y005092D01*
X017312Y005092D02*
X017260Y005144D01*
X017157Y005144D01*
X017105Y005092D01*
X017105Y004885D01*
X017157Y004834D01*
X017260Y004834D01*
X017312Y004885D01*
X017312Y004989D01*
X017208Y004989D01*
X016312Y004989D02*
X016260Y004937D01*
X016105Y004937D01*
X016105Y004834D02*
X016105Y005144D01*
X016260Y005144D01*
X016312Y005092D01*
X016312Y004989D01*
X016208Y004937D02*
X016312Y004834D01*
X025105Y006584D02*
X025312Y006584D01*
X025400Y006584D02*
X025606Y006791D01*
X025606Y006842D01*
X025555Y006894D01*
X025451Y006894D01*
X025400Y006842D01*
X025208Y006894D02*
X025208Y006584D01*
X025400Y006584D02*
X025606Y006584D01*
X025694Y006687D02*
X025798Y006584D01*
X025901Y006687D01*
X025901Y006894D01*
X025694Y006894D02*
X025694Y006687D01*
X025208Y006894D02*
X025105Y006791D01*
X027230Y007084D02*
X027385Y007084D01*
X027437Y007135D01*
X027437Y007187D01*
X027385Y007239D01*
X027230Y007239D01*
X027230Y007084D02*
X027230Y007394D01*
X027385Y007394D01*
X027437Y007342D01*
X027437Y007291D01*
X027385Y007239D01*
X028855Y006894D02*
X028855Y006739D01*
X028958Y006791D01*
X029010Y006791D01*
X029062Y006739D01*
X029062Y006635D01*
X029010Y006584D01*
X028907Y006584D01*
X028855Y006635D01*
X028855Y006894D02*
X029062Y006894D01*
X029150Y006894D02*
X029150Y006687D01*
X029253Y006584D01*
X029356Y006687D01*
X029356Y006894D01*
X029099Y005144D02*
X028944Y005144D01*
X028944Y004834D01*
X029099Y004834D01*
X029151Y004885D01*
X029151Y005092D01*
X029099Y005144D01*
X028856Y005144D02*
X028856Y004834D01*
X028650Y005144D01*
X028650Y004834D01*
X028562Y004885D02*
X028562Y004989D01*
X028458Y004989D01*
X028355Y005092D02*
X028407Y005144D01*
X028510Y005144D01*
X028562Y005092D01*
X028562Y004885D02*
X028510Y004834D01*
X028407Y004834D01*
X028355Y004885D01*
X028355Y005092D01*
X027812Y005092D02*
X027760Y005144D01*
X027657Y005144D01*
X027605Y005092D01*
X027605Y004885D01*
X027657Y004834D01*
X027760Y004834D01*
X027812Y004885D01*
X027812Y004989D01*
X027708Y004989D01*
X026812Y004989D02*
X026760Y004937D01*
X026605Y004937D01*
X026605Y004834D02*
X026605Y005144D01*
X026760Y005144D01*
X026812Y005092D01*
X026812Y004989D01*
X026708Y004937D02*
X026812Y004834D01*
X027935Y025514D02*
X028090Y025514D01*
X028142Y025565D01*
X028142Y025617D01*
X028090Y025669D01*
X027935Y025669D01*
X027935Y025514D02*
X027935Y025824D01*
X028090Y025824D01*
X028142Y025772D01*
X028142Y025721D01*
X028090Y025669D01*
X029471Y026014D02*
X029678Y026014D01*
X029766Y026014D02*
X029973Y026221D01*
X029973Y026272D01*
X029921Y026324D01*
X029817Y026324D01*
X029766Y026272D01*
X029574Y026324D02*
X029574Y026014D01*
X029766Y026014D02*
X029973Y026014D01*
X030060Y026117D02*
X030164Y026014D01*
X030267Y026117D01*
X030267Y026324D01*
X030060Y026324D02*
X030060Y026117D01*
X029574Y026324D02*
X029471Y026221D01*
X028767Y027764D02*
X028664Y027867D01*
X028715Y027867D02*
X028560Y027867D01*
X028560Y027764D02*
X028560Y028074D01*
X028715Y028074D01*
X028767Y028022D01*
X028767Y027919D01*
X028715Y027867D01*
X027767Y027815D02*
X027767Y027919D01*
X027664Y027919D01*
X027767Y028022D02*
X027715Y028074D01*
X027612Y028074D01*
X027560Y028022D01*
X027560Y027815D01*
X027612Y027764D01*
X027715Y027764D01*
X027767Y027815D01*
X027017Y027815D02*
X027017Y028022D01*
X026965Y028074D01*
X026810Y028074D01*
X026810Y027764D01*
X026965Y027764D01*
X027017Y027815D01*
X026723Y027764D02*
X026723Y028074D01*
X026516Y028074D02*
X026723Y027764D01*
X026516Y027764D02*
X026516Y028074D01*
X026428Y028022D02*
X026376Y028074D01*
X026273Y028074D01*
X026221Y028022D01*
X026221Y027815D01*
X026273Y027764D01*
X026376Y027764D01*
X026428Y027815D01*
X026428Y027919D01*
X026324Y027919D01*
X026310Y026324D02*
X026310Y026117D01*
X026414Y026014D01*
X026517Y026117D01*
X026517Y026324D01*
X026223Y026324D02*
X026016Y026324D01*
X026016Y026169D01*
X026119Y026221D01*
X026171Y026221D01*
X026223Y026169D01*
X026223Y026065D01*
X026171Y026014D01*
X026067Y026014D01*
X026016Y026065D01*
D21*
X007723Y015932D03*
X007723Y015472D03*
D22*
X007725Y015704D03*
D23*
X007725Y016948D03*
X007725Y017460D03*
D24*
X007873Y017263D03*
X007577Y017263D03*
D25*
X007725Y017263D03*
D26*
X009893Y031638D03*
X014557Y031638D03*
X020393Y031638D03*
X025057Y031638D03*
X030893Y031638D03*
X004057Y031638D03*
X003557Y001269D03*
X009393Y001269D03*
X014057Y001269D03*
X019893Y001269D03*
X024557Y001269D03*
X030393Y001269D03*
D27*
X033050Y006704D03*
X033050Y006704D03*
X022550Y006704D03*
X022550Y006704D03*
X012050Y006704D03*
X012050Y006704D03*
X011900Y026204D03*
X011900Y026204D03*
X001400Y026204D03*
X001400Y026204D03*
X022400Y026204D03*
X022400Y026204D03*
D28*
X024550Y026204D03*
X024550Y026204D03*
X024550Y027114D03*
X024550Y027114D03*
X024550Y025294D03*
X024550Y025294D03*
X014050Y025294D03*
X014050Y025294D03*
X014050Y026204D03*
X014050Y026204D03*
X014050Y027114D03*
X014050Y027114D03*
X003550Y027114D03*
X003550Y027114D03*
X003550Y026204D03*
X003550Y026204D03*
X003550Y025294D03*
X003550Y025294D03*
X009900Y007614D03*
X009900Y007614D03*
X009900Y006704D03*
X009900Y006704D03*
X009900Y005794D03*
X009900Y005794D03*
X020400Y005794D03*
X020400Y005794D03*
X020400Y006704D03*
X020400Y006704D03*
X020400Y007614D03*
X020400Y007614D03*
X030900Y007614D03*
X030900Y007614D03*
X030900Y006704D03*
X030900Y006704D03*
X030900Y005794D03*
X030900Y005794D03*
M02*
