G75*
G70*
%OFA0B0*%
%FSLAX24Y24*%
%IPPOS*%
%LPD*%
%AMOC8*
5,1,8,0,0,1.08239X$1,22.5*
%
%ADD10C,0.0060*%
%ADD11C,0.0594*%
%ADD12C,0.0515*%
%ADD13C,0.0400*%
D10*
X002345Y000586D02*
X002772Y000586D01*
X002989Y000586D02*
X002989Y001227D01*
X003309Y001227D01*
X003416Y001120D01*
X003416Y000907D01*
X003309Y000800D01*
X002989Y000800D01*
X002772Y001227D02*
X002345Y001227D01*
X002345Y000586D01*
X002345Y000907D02*
X002558Y000907D01*
X003634Y000907D02*
X003847Y000907D01*
X003634Y001227D02*
X004061Y001227D01*
X004278Y001227D02*
X004278Y000586D01*
X004705Y000586D01*
X003634Y000586D02*
X003634Y001227D01*
D11*
X003815Y007010D02*
X003815Y007603D01*
X004815Y007603D02*
X004815Y007010D01*
X005815Y007010D02*
X005815Y007603D01*
X002815Y007603D02*
X002815Y007010D01*
X001815Y007010D02*
X001815Y007603D01*
X000815Y007603D02*
X000815Y007010D01*
D12*
X002708Y004462D03*
X002315Y003462D03*
X003118Y003462D03*
X003511Y004462D03*
X003921Y003462D03*
X004315Y004462D03*
D13*
X002315Y002431D02*
X001565Y003306D01*
X001565Y006181D01*
X002815Y006181D01*
X002815Y007306D01*
X004815Y007306D02*
X004815Y006306D01*
X005065Y006306D01*
X005065Y003431D01*
X003921Y003431D01*
X003921Y003462D01*
X003118Y003462D02*
X003118Y002431D01*
X002315Y002431D01*
M02*
