G75*
G70*
%OFA0B0*%
%FSLAX24Y24*%
%IPPOS*%
%LPD*%
%AMOC8*
5,1,8,0,0,1.08239X$1,22.5*
%
%ADD10C,0.0060*%
%ADD11OC8,0.0520*%
%ADD12C,0.0594*%
%ADD13C,0.0515*%
%ADD14R,0.0500X0.0500*%
%ADD15C,0.0500*%
%ADD16C,0.0400*%
D10*
X011041Y002961D02*
X011041Y003388D01*
X011254Y003602D01*
X011468Y003388D01*
X011468Y002961D01*
X011899Y002961D02*
X011899Y003602D01*
X012112Y003602D02*
X011685Y003602D01*
X011468Y003282D02*
X011041Y003282D01*
X012330Y003282D02*
X012757Y003282D01*
X012757Y003388D02*
X012543Y003602D01*
X012330Y003388D01*
X012330Y002961D01*
X012757Y002961D02*
X012757Y003388D01*
X012974Y003495D02*
X012974Y003068D01*
X013081Y002961D01*
X013401Y002961D01*
X013401Y003602D01*
X013081Y003602D01*
X012974Y003495D01*
X012974Y002352D02*
X013401Y002352D01*
X013401Y002032D01*
X013188Y002138D01*
X013081Y002138D01*
X012974Y002032D01*
X012974Y001818D01*
X013081Y001711D01*
X013295Y001711D01*
X013401Y001818D01*
X012757Y001925D02*
X012543Y001711D01*
X012330Y001925D01*
X012330Y002352D01*
X012757Y002352D02*
X012757Y001925D01*
X012831Y019711D02*
X012724Y019818D01*
X012724Y020032D01*
X012938Y020032D01*
X013151Y020245D02*
X013151Y019818D01*
X013045Y019711D01*
X012831Y019711D01*
X012507Y019711D02*
X012507Y020352D01*
X012080Y019711D01*
X012080Y020352D01*
X011862Y020352D02*
X011542Y020352D01*
X011435Y020245D01*
X011435Y019818D01*
X011542Y019711D01*
X011862Y019711D01*
X011862Y020352D01*
X012724Y020245D02*
X012831Y020352D01*
X013045Y020352D01*
X013151Y020245D01*
D11*
X010181Y015181D03*
X007681Y015181D03*
X005181Y015181D03*
X005181Y012181D03*
X004681Y010681D03*
X005681Y010681D03*
X007181Y010681D03*
X008181Y010681D03*
X009681Y010681D03*
X010681Y010681D03*
X010181Y012181D03*
X007681Y012181D03*
D12*
X007181Y017385D02*
X007181Y017978D01*
X006181Y017978D02*
X006181Y017385D01*
X005181Y017385D02*
X005181Y017978D01*
X008181Y017978D02*
X008181Y017385D01*
X009181Y017385D02*
X009181Y017978D01*
X010181Y017978D02*
X010181Y017385D01*
D13*
X008681Y006087D03*
X007878Y006087D03*
X007075Y006087D03*
X006681Y005087D03*
X007485Y005087D03*
X008288Y005087D03*
D14*
X014181Y005181D03*
X015181Y005181D03*
X015181Y006181D03*
X014181Y006181D03*
X014181Y007181D03*
X015181Y007181D03*
X016181Y007181D03*
X017181Y007181D03*
X018181Y007181D03*
X019181Y007181D03*
X020181Y007181D03*
X021181Y007181D03*
X022181Y007181D03*
X023181Y007181D03*
X024181Y007181D03*
X025181Y007181D03*
X026181Y007181D03*
X027181Y007181D03*
X028181Y007181D03*
X028181Y006181D03*
X027181Y006181D03*
X026181Y006181D03*
X026181Y005181D03*
X027181Y005181D03*
X028181Y005181D03*
X028181Y004181D03*
X027181Y004181D03*
X026181Y004181D03*
X025181Y004181D03*
X024181Y004181D03*
X023181Y004181D03*
X022181Y004181D03*
X021181Y004181D03*
X020181Y004181D03*
X019181Y004181D03*
X018181Y004181D03*
X017181Y004181D03*
X016181Y004181D03*
X015181Y004181D03*
X014181Y004181D03*
X014181Y003181D03*
X015181Y003181D03*
X015181Y002181D03*
X014181Y002181D03*
X014181Y001181D03*
X015181Y001181D03*
X016181Y001181D03*
X017181Y001181D03*
X018181Y001181D03*
X019181Y001181D03*
X020181Y001181D03*
X021181Y001181D03*
X022181Y001181D03*
X023181Y001181D03*
X024181Y001181D03*
X025181Y001181D03*
X026181Y001181D03*
X026181Y002181D03*
X025181Y002181D03*
X024181Y002181D03*
X023181Y002181D03*
X022181Y002181D03*
X021181Y002181D03*
X020181Y002181D03*
X019181Y002181D03*
X018181Y002181D03*
X017181Y002181D03*
X016181Y002181D03*
X016181Y003181D03*
X017181Y003181D03*
X018181Y003181D03*
X019181Y003181D03*
X020181Y003181D03*
X021181Y003181D03*
X022181Y003181D03*
X023181Y003181D03*
X024181Y003181D03*
X025181Y003181D03*
X026181Y003181D03*
X027181Y003181D03*
X028181Y003181D03*
X025181Y005181D03*
X024181Y005181D03*
X023181Y005181D03*
X022181Y005181D03*
X021181Y005181D03*
X020181Y005181D03*
X019181Y005181D03*
X018181Y005181D03*
X017181Y005181D03*
X016181Y005181D03*
X016181Y006181D03*
X017181Y006181D03*
X018181Y006181D03*
X019181Y006181D03*
X020181Y006181D03*
X021181Y006181D03*
X022181Y006181D03*
X023181Y006181D03*
X024181Y006181D03*
X025181Y006181D03*
X025181Y008181D03*
X024181Y008181D03*
X023181Y008181D03*
X022181Y008181D03*
X021181Y008181D03*
X020181Y008181D03*
X019181Y008181D03*
X018181Y008181D03*
X017181Y008181D03*
X016181Y008181D03*
X015181Y008181D03*
X014181Y008181D03*
X014181Y009181D03*
X015181Y009181D03*
X016181Y009181D03*
X017181Y009181D03*
X018181Y009181D03*
X019181Y009181D03*
X020181Y009181D03*
X021181Y009181D03*
X022181Y009181D03*
X023181Y009181D03*
X024181Y009181D03*
X025181Y009181D03*
X026181Y009181D03*
X027181Y009181D03*
X028181Y009181D03*
X028181Y008181D03*
X027181Y008181D03*
X026181Y008181D03*
X026181Y010181D03*
X027181Y010181D03*
X028181Y010181D03*
X028181Y011181D03*
X027181Y011181D03*
X026181Y011181D03*
X025181Y011181D03*
X024181Y011181D03*
X023181Y011181D03*
X022181Y011181D03*
X021181Y011181D03*
X020181Y011181D03*
X019181Y011181D03*
X018181Y011181D03*
X017181Y011181D03*
X016181Y011181D03*
X015181Y011181D03*
X014181Y011181D03*
X014181Y010181D03*
X015181Y010181D03*
X016181Y010181D03*
X017181Y010181D03*
X018181Y010181D03*
X019181Y010181D03*
X020181Y010181D03*
X021181Y010181D03*
X022181Y010181D03*
X023181Y010181D03*
X024181Y010181D03*
X025181Y010181D03*
X025181Y012181D03*
X024181Y012181D03*
X023181Y012181D03*
X022181Y012181D03*
X021181Y012181D03*
X020181Y012181D03*
X019181Y012181D03*
X018181Y012181D03*
X017181Y012181D03*
X016181Y012181D03*
X015181Y012181D03*
X014181Y012181D03*
X014181Y013181D03*
X015181Y013181D03*
X016181Y013181D03*
X017181Y013181D03*
X018181Y013181D03*
X019181Y013181D03*
X020181Y013181D03*
X021181Y013181D03*
X022181Y013181D03*
X023181Y013181D03*
X024181Y013181D03*
X025181Y013181D03*
X026181Y013181D03*
X027181Y013181D03*
X028181Y013181D03*
X028181Y012181D03*
X027181Y012181D03*
X026181Y012181D03*
X026181Y014181D03*
X027181Y014181D03*
X028181Y014181D03*
X028181Y015181D03*
X027181Y015181D03*
X026181Y015181D03*
X025181Y015181D03*
X024181Y015181D03*
X023181Y015181D03*
X022181Y015181D03*
X021181Y015181D03*
X020181Y015181D03*
X019181Y015181D03*
X018181Y015181D03*
X017181Y015181D03*
X016181Y015181D03*
X015181Y015181D03*
X014181Y015181D03*
X014181Y016181D03*
X015181Y016181D03*
X016181Y016181D03*
X017181Y016181D03*
X018181Y016181D03*
X019181Y016181D03*
X020181Y016181D03*
X021181Y016181D03*
X022181Y016181D03*
X023181Y016181D03*
X024181Y016181D03*
X025181Y016181D03*
X026181Y016181D03*
X027181Y016181D03*
X028181Y016181D03*
X028181Y017181D03*
X027181Y017181D03*
X026181Y017181D03*
X025181Y017181D03*
X024181Y017181D03*
X023181Y017181D03*
X022181Y017181D03*
X021181Y017181D03*
X020181Y017181D03*
X019181Y017181D03*
X018181Y017181D03*
X017181Y017181D03*
X016181Y017181D03*
X015181Y017181D03*
X014181Y017181D03*
X014181Y018181D03*
X015181Y018181D03*
X015181Y019181D03*
X014181Y019181D03*
X014181Y020181D03*
X015181Y020181D03*
X016181Y020181D03*
X017181Y020181D03*
X018181Y020181D03*
X019181Y020181D03*
X020181Y020181D03*
X021181Y020181D03*
X022181Y020181D03*
X023181Y020181D03*
X024181Y020181D03*
X025181Y020181D03*
X026181Y020181D03*
X026181Y019181D03*
X026181Y018181D03*
X027181Y018181D03*
X028181Y018181D03*
X025181Y018181D03*
X024181Y018181D03*
X023181Y018181D03*
X022181Y018181D03*
X021181Y018181D03*
X020181Y018181D03*
X019181Y018181D03*
X018181Y018181D03*
X017181Y018181D03*
X016181Y018181D03*
X016181Y019181D03*
X017181Y019181D03*
X018181Y019181D03*
X019181Y019181D03*
X020181Y019181D03*
X021181Y019181D03*
X022181Y019181D03*
X023181Y019181D03*
X024181Y019181D03*
X025181Y019181D03*
X025181Y014181D03*
X024181Y014181D03*
X023181Y014181D03*
X022181Y014181D03*
X021181Y014181D03*
X020181Y014181D03*
X019181Y014181D03*
X018181Y014181D03*
X017181Y014181D03*
X016181Y014181D03*
X015181Y014181D03*
X014181Y014181D03*
X011681Y014181D03*
X011681Y013181D03*
X011681Y012181D03*
X011681Y015181D03*
D15*
X014181Y015181D02*
X014181Y018181D01*
X015181Y018181D02*
X015181Y003181D01*
X014181Y003181D01*
X015181Y003181D02*
X015181Y006181D01*
X016181Y006181D02*
X016181Y003181D01*
X017181Y003181D02*
X017181Y006181D01*
X018181Y006181D02*
X018181Y005181D01*
X018181Y004181D01*
X018181Y003181D01*
X019181Y003181D02*
X019181Y004181D01*
X019181Y005181D01*
X019181Y006181D01*
X020181Y006181D02*
X020181Y005181D01*
X020181Y004181D01*
X020181Y003181D01*
X021181Y003181D02*
X021181Y004181D01*
X021181Y005181D01*
X021181Y006181D01*
X022181Y006181D02*
X022181Y005181D01*
X022181Y004181D01*
X022181Y003181D01*
X023181Y003181D02*
X023181Y004181D01*
X023181Y005181D01*
X023181Y006181D01*
X024181Y006181D02*
X024181Y005181D01*
X024181Y004181D01*
X024181Y003181D01*
X025181Y003181D02*
X025181Y004181D01*
X025181Y005181D01*
X025181Y006181D01*
X026181Y006181D02*
X026181Y005181D01*
X026181Y004181D01*
X026181Y003181D01*
X027181Y003181D02*
X027181Y006181D01*
X028181Y006181D02*
X028181Y003181D01*
X026181Y002181D02*
X016181Y002181D01*
X016181Y018181D01*
X016181Y015181D01*
X017181Y015181D02*
X017181Y018181D01*
X018181Y018181D02*
X018181Y017181D01*
X018181Y016181D01*
X018181Y015181D01*
X019181Y015181D02*
X019181Y016181D01*
X019181Y017181D01*
X019181Y018181D01*
X020181Y018181D02*
X020181Y017181D01*
X020181Y016181D01*
X020181Y015181D01*
X021181Y015181D02*
X021181Y016181D01*
X021181Y017181D01*
X021181Y018181D01*
X022181Y018181D02*
X022181Y017181D01*
X022181Y016181D01*
X022181Y015181D01*
X023181Y015181D02*
X023181Y016181D01*
X023181Y017181D01*
X023181Y018181D01*
X024181Y018181D02*
X024181Y017181D01*
X024181Y016181D01*
X024181Y015181D01*
X025181Y015181D02*
X025181Y016181D01*
X025181Y017181D01*
X025181Y018181D01*
X026181Y018181D02*
X026181Y017181D01*
X026181Y016181D01*
X026181Y015181D01*
X027181Y015181D02*
X027181Y018181D01*
X028181Y018181D02*
X028181Y015181D01*
X028181Y014181D02*
X017181Y014181D01*
X017181Y013181D02*
X028181Y013181D01*
X028181Y012181D02*
X028181Y009181D01*
X027181Y009181D02*
X027181Y012181D01*
X026181Y012181D02*
X026181Y011181D01*
X026181Y010181D01*
X026181Y009181D01*
X025181Y009181D02*
X025181Y010181D01*
X025181Y011181D01*
X025181Y012181D01*
X024181Y012181D02*
X024181Y011181D01*
X024181Y010181D01*
X024181Y009181D01*
X023181Y009181D02*
X023181Y010181D01*
X023181Y011181D01*
X023181Y012181D01*
X022181Y012181D02*
X022181Y011181D01*
X022181Y010181D01*
X022181Y009181D01*
X021181Y009181D02*
X021181Y010181D01*
X021181Y011181D01*
X021181Y012181D01*
X020181Y012181D02*
X020181Y011181D01*
X020181Y010181D01*
X020181Y009181D01*
X019181Y009181D02*
X019181Y010181D01*
X019181Y011181D01*
X019181Y012181D01*
X018181Y012181D02*
X018181Y011181D01*
X018181Y010181D01*
X018181Y009181D01*
X017181Y009181D02*
X017181Y012181D01*
X016181Y012181D02*
X016181Y009181D01*
X015181Y009181D02*
X015181Y012181D01*
X014181Y012181D02*
X014181Y009181D01*
X017181Y008181D02*
X028181Y008181D01*
X028181Y007181D02*
X017181Y007181D01*
X014181Y004181D02*
X014181Y019181D01*
X026181Y019181D01*
X026181Y020181D02*
X014181Y020181D01*
X015181Y018181D02*
X015181Y015181D01*
X014181Y002181D02*
X016181Y002181D01*
X014181Y001181D02*
X026181Y001181D01*
D16*
X003181Y002931D02*
X003181Y019181D01*
X007181Y019181D01*
X013181Y019181D01*
X014181Y019181D01*
X011681Y017681D02*
X010181Y017681D01*
X010181Y015181D01*
X008931Y015181D02*
X008181Y015181D01*
X007681Y015181D01*
X008181Y015181D02*
X008181Y017681D01*
X007181Y017681D02*
X007181Y019181D01*
X006181Y017681D02*
X006181Y015181D01*
X005181Y015181D01*
X006181Y015181D02*
X006431Y015181D01*
X006431Y006087D01*
X007075Y006087D01*
X007878Y006087D02*
X007931Y006087D01*
X007931Y008931D01*
X008931Y008931D01*
X008931Y015181D01*
X011681Y017681D02*
X011681Y006087D01*
X008681Y006087D01*
X007485Y005087D02*
X007431Y005087D01*
X007431Y002931D01*
X003181Y002931D01*
X003931Y005181D02*
X003931Y010681D01*
X004681Y010681D01*
X003931Y010681D02*
X003931Y017681D01*
X005181Y017681D01*
X004681Y017681D01*
X005181Y012181D02*
X005681Y012181D01*
X005681Y010681D01*
X008181Y010681D02*
X008181Y012181D01*
X007681Y012181D01*
X010181Y012181D02*
X010681Y012181D01*
X010681Y010681D01*
X006681Y005181D02*
X003931Y005181D01*
X006681Y005181D02*
X006681Y005087D01*
M02*
