G75*
G70*
%OFA0B0*%
%FSLAX24Y24*%
%IPPOS*%
%LPD*%
%AMOC8*
5,1,8,0,0,1.08239X$1,22.5*
%
%ADD10C,0.1655*%
%ADD11OC8,0.0600*%
%ADD12C,0.0674*%
%ADD13C,0.1009*%
%ADD14C,0.0595*%
%ADD15R,0.0580X0.0580*%
D10*
X001681Y001681D03*
X001681Y019681D03*
X027681Y019681D03*
X027681Y001681D03*
D11*
X010681Y010681D03*
X009681Y010681D03*
X008181Y010681D03*
X007181Y010681D03*
X005681Y010681D03*
X004681Y010681D03*
X005181Y012181D03*
X007681Y012181D03*
X010181Y012181D03*
X010181Y015181D03*
X007681Y015181D03*
X005181Y015181D03*
D12*
X005181Y017385D02*
X005181Y017978D01*
X006181Y017978D02*
X006181Y017385D01*
X007181Y017385D02*
X007181Y017978D01*
X008181Y017978D02*
X008181Y017385D01*
X009181Y017385D02*
X009181Y017978D01*
X010181Y017978D02*
X010181Y017385D01*
D13*
X010044Y004181D03*
X005319Y004181D03*
D14*
X006681Y005087D03*
X007485Y005087D03*
X008288Y005087D03*
X008681Y006087D03*
X007878Y006087D03*
X007075Y006087D03*
D15*
X014181Y006181D03*
X015181Y006181D03*
X015181Y005181D03*
X014181Y005181D03*
X014181Y004181D03*
X015181Y004181D03*
X016181Y004181D03*
X017181Y004181D03*
X018181Y004181D03*
X019181Y004181D03*
X020181Y004181D03*
X021181Y004181D03*
X022181Y004181D03*
X023181Y004181D03*
X024181Y004181D03*
X025181Y004181D03*
X026181Y004181D03*
X027181Y004181D03*
X028181Y004181D03*
X028181Y003181D03*
X027181Y003181D03*
X026181Y003181D03*
X026181Y002181D03*
X025181Y002181D03*
X024181Y002181D03*
X023181Y002181D03*
X022181Y002181D03*
X021181Y002181D03*
X020181Y002181D03*
X019181Y002181D03*
X018181Y002181D03*
X017181Y002181D03*
X016181Y002181D03*
X015181Y002181D03*
X014181Y002181D03*
X014181Y003181D03*
X015181Y003181D03*
X016181Y003181D03*
X017181Y003181D03*
X018181Y003181D03*
X019181Y003181D03*
X020181Y003181D03*
X021181Y003181D03*
X022181Y003181D03*
X023181Y003181D03*
X024181Y003181D03*
X025181Y003181D03*
X025181Y001181D03*
X024181Y001181D03*
X023181Y001181D03*
X022181Y001181D03*
X021181Y001181D03*
X020181Y001181D03*
X019181Y001181D03*
X018181Y001181D03*
X017181Y001181D03*
X016181Y001181D03*
X015181Y001181D03*
X014181Y001181D03*
X016181Y005181D03*
X017181Y005181D03*
X018181Y005181D03*
X018181Y006181D03*
X017181Y006181D03*
X016181Y006181D03*
X016181Y007181D03*
X017181Y007181D03*
X018181Y007181D03*
X019181Y007181D03*
X020181Y007181D03*
X021181Y007181D03*
X022181Y007181D03*
X023181Y007181D03*
X024181Y007181D03*
X025181Y007181D03*
X026181Y007181D03*
X027181Y007181D03*
X028181Y007181D03*
X028181Y006181D03*
X027181Y006181D03*
X026181Y006181D03*
X026181Y005181D03*
X027181Y005181D03*
X028181Y005181D03*
X025181Y005181D03*
X024181Y005181D03*
X023181Y005181D03*
X022181Y005181D03*
X021181Y005181D03*
X020181Y005181D03*
X019181Y005181D03*
X019181Y006181D03*
X020181Y006181D03*
X021181Y006181D03*
X022181Y006181D03*
X023181Y006181D03*
X024181Y006181D03*
X025181Y006181D03*
X025181Y008181D03*
X024181Y008181D03*
X023181Y008181D03*
X022181Y008181D03*
X021181Y008181D03*
X020181Y008181D03*
X019181Y008181D03*
X018181Y008181D03*
X017181Y008181D03*
X016181Y008181D03*
X015181Y008181D03*
X014181Y008181D03*
X014181Y009181D03*
X015181Y009181D03*
X016181Y009181D03*
X017181Y009181D03*
X018181Y009181D03*
X019181Y009181D03*
X020181Y009181D03*
X021181Y009181D03*
X022181Y009181D03*
X023181Y009181D03*
X024181Y009181D03*
X025181Y009181D03*
X026181Y009181D03*
X027181Y009181D03*
X028181Y009181D03*
X028181Y008181D03*
X027181Y008181D03*
X026181Y008181D03*
X026181Y010181D03*
X027181Y010181D03*
X028181Y010181D03*
X028181Y011181D03*
X027181Y011181D03*
X026181Y011181D03*
X025181Y011181D03*
X024181Y011181D03*
X023181Y011181D03*
X022181Y011181D03*
X021181Y011181D03*
X020181Y011181D03*
X019181Y011181D03*
X018181Y011181D03*
X017181Y011181D03*
X016181Y011181D03*
X015181Y011181D03*
X014181Y011181D03*
X014181Y010181D03*
X015181Y010181D03*
X016181Y010181D03*
X017181Y010181D03*
X018181Y010181D03*
X019181Y010181D03*
X020181Y010181D03*
X021181Y010181D03*
X022181Y010181D03*
X023181Y010181D03*
X024181Y010181D03*
X025181Y010181D03*
X025181Y012181D03*
X024181Y012181D03*
X023181Y012181D03*
X022181Y012181D03*
X021181Y012181D03*
X020181Y012181D03*
X019181Y012181D03*
X018181Y012181D03*
X017181Y012181D03*
X016181Y012181D03*
X015181Y012181D03*
X014181Y012181D03*
X014181Y013181D03*
X015181Y013181D03*
X016181Y013181D03*
X017181Y013181D03*
X018181Y013181D03*
X019181Y013181D03*
X020181Y013181D03*
X021181Y013181D03*
X022181Y013181D03*
X023181Y013181D03*
X024181Y013181D03*
X025181Y013181D03*
X026181Y013181D03*
X027181Y013181D03*
X028181Y013181D03*
X028181Y012181D03*
X027181Y012181D03*
X026181Y012181D03*
X026181Y014181D03*
X027181Y014181D03*
X028181Y014181D03*
X028181Y015181D03*
X027181Y015181D03*
X026181Y015181D03*
X025181Y015181D03*
X024181Y015181D03*
X023181Y015181D03*
X022181Y015181D03*
X021181Y015181D03*
X020181Y015181D03*
X019181Y015181D03*
X018181Y015181D03*
X017181Y015181D03*
X016181Y015181D03*
X015181Y015181D03*
X014181Y015181D03*
X014181Y016181D03*
X015181Y016181D03*
X016181Y016181D03*
X017181Y016181D03*
X018181Y016181D03*
X019181Y016181D03*
X020181Y016181D03*
X021181Y016181D03*
X022181Y016181D03*
X023181Y016181D03*
X024181Y016181D03*
X025181Y016181D03*
X026181Y016181D03*
X027181Y016181D03*
X028181Y016181D03*
X028181Y017181D03*
X027181Y017181D03*
X026181Y017181D03*
X025181Y017181D03*
X024181Y017181D03*
X023181Y017181D03*
X022181Y017181D03*
X021181Y017181D03*
X020181Y017181D03*
X019181Y017181D03*
X018181Y017181D03*
X017181Y017181D03*
X016181Y017181D03*
X015181Y017181D03*
X014181Y017181D03*
X014181Y018181D03*
X015181Y018181D03*
X015181Y019181D03*
X014181Y019181D03*
X014181Y020181D03*
X015181Y020181D03*
X016181Y020181D03*
X017181Y020181D03*
X018181Y020181D03*
X019181Y020181D03*
X020181Y020181D03*
X021181Y020181D03*
X022181Y020181D03*
X023181Y020181D03*
X024181Y020181D03*
X025181Y020181D03*
X026181Y020181D03*
X026181Y019181D03*
X026181Y018181D03*
X027181Y018181D03*
X028181Y018181D03*
X025181Y018181D03*
X024181Y018181D03*
X023181Y018181D03*
X022181Y018181D03*
X021181Y018181D03*
X020181Y018181D03*
X019181Y018181D03*
X018181Y018181D03*
X017181Y018181D03*
X016181Y018181D03*
X016181Y019181D03*
X017181Y019181D03*
X018181Y019181D03*
X019181Y019181D03*
X020181Y019181D03*
X021181Y019181D03*
X022181Y019181D03*
X023181Y019181D03*
X024181Y019181D03*
X025181Y019181D03*
X025181Y014181D03*
X024181Y014181D03*
X023181Y014181D03*
X022181Y014181D03*
X021181Y014181D03*
X020181Y014181D03*
X019181Y014181D03*
X018181Y014181D03*
X017181Y014181D03*
X016181Y014181D03*
X015181Y014181D03*
X014181Y014181D03*
X011681Y014181D03*
X011681Y013181D03*
X011681Y012181D03*
X011681Y015181D03*
X014181Y007181D03*
X015181Y007181D03*
X026181Y001181D03*
M02*
