%
M48
M72
T01C0.0276
T02C0.0315
T03C0.0320
T04C0.0394
T05C0.0929
T06C0.1575
%
T01
X14181Y1181
X15181Y1181
X16181Y1181
X17181Y1181
X18181Y1181
X19181Y1181
X20181Y1181
X21181Y1181
X22181Y1181
X23181Y1181
X24181Y1181
X25181Y1181
X26181Y1181
X26181Y2181
X25181Y2181
X24181Y2181
X23181Y2181
X22181Y2181
X21181Y2181
X20181Y2181
X19181Y2181
X18181Y2181
X17181Y2181
X16181Y2181
X15181Y2181
X14181Y2181
X14181Y3181
X15181Y3181
X16181Y3181
X17181Y3181
X18181Y3181
X19181Y3181
X20181Y3181
X21181Y3181
X22181Y3181
X23181Y3181
X24181Y3181
X25181Y3181
X26181Y3181
X27181Y3181
X28181Y3181
X28181Y4181
X27181Y4181
X26181Y4181
X25181Y4181
X24181Y4181
X23181Y4181
X22181Y4181
X21181Y4181
X20181Y4181
X19181Y4181
X18181Y4181
X17181Y4181
X16181Y4181
X15181Y4181
X14181Y4181
X14181Y5181
X15181Y5181
X15181Y6181
X14181Y6181
X14181Y7181
X15181Y7181
X16181Y7181
X17181Y7181
X18181Y7181
X19181Y7181
X20181Y7181
X21181Y7181
X22181Y7181
X23181Y7181
X24181Y7181
X25181Y7181
X26181Y7181
X27181Y7181
X28181Y7181
X28181Y6181
X27181Y6181
X26181Y6181
X26181Y5181
X27181Y5181
X28181Y5181
X25181Y5181
X24181Y5181
X23181Y5181
X22181Y5181
X21181Y5181
X20181Y5181
X19181Y5181
X18181Y5181
X17181Y5181
X16181Y5181
X16181Y6181
X17181Y6181
X18181Y6181
X19181Y6181
X20181Y6181
X21181Y6181
X22181Y6181
X23181Y6181
X24181Y6181
X25181Y6181
X25181Y8181
X24181Y8181
X23181Y8181
X22181Y8181
X21181Y8181
X20181Y8181
X19181Y8181
X18181Y8181
X17181Y8181
X16181Y8181
X15181Y8181
X14181Y8181
X14181Y9181
X15181Y9181
X16181Y9181
X17181Y9181
X18181Y9181
X19181Y9181
X20181Y9181
X21181Y9181
X22181Y9181
X23181Y9181
X24181Y9181
X25181Y9181
X26181Y9181
X27181Y9181
X28181Y9181
X28181Y8181
X27181Y8181
X26181Y8181
X26181Y10181
X27181Y10181
X28181Y10181
X28181Y11181
X27181Y11181
X26181Y11181
X25181Y11181
X24181Y11181
X23181Y11181
X22181Y11181
X21181Y11181
X20181Y11181
X19181Y11181
X18181Y11181
X17181Y11181
X16181Y11181
X15181Y11181
X14181Y11181
X14181Y10181
X15181Y10181
X16181Y10181
X17181Y10181
X18181Y10181
X19181Y10181
X20181Y10181
X21181Y10181
X22181Y10181
X23181Y10181
X24181Y10181
X25181Y10181
X25181Y12181
X24181Y12181
X23181Y12181
X22181Y12181
X21181Y12181
X20181Y12181
X19181Y12181
X18181Y12181
X17181Y12181
X16181Y12181
X15181Y12181
X14181Y12181
X14181Y13181
X15181Y13181
X16181Y13181
X17181Y13181
X18181Y13181
X19181Y13181
X20181Y13181
X21181Y13181
X22181Y13181
X23181Y13181
X24181Y13181
X25181Y13181
X26181Y13181
X27181Y13181
X28181Y13181
X28181Y12181
X27181Y12181
X26181Y12181
X26181Y14181
X27181Y14181
X28181Y14181
X28181Y15181
X27181Y15181
X26181Y15181
X25181Y15181
X24181Y15181
X23181Y15181
X22181Y15181
X21181Y15181
X20181Y15181
X19181Y15181
X18181Y15181
X17181Y15181
X16181Y15181
X15181Y15181
X14181Y15181
X14181Y16181
X15181Y16181
X16181Y16181
X17181Y16181
X18181Y16181
X19181Y16181
X20181Y16181
X21181Y16181
X22181Y16181
X23181Y16181
X24181Y16181
X25181Y16181
X26181Y16181
X27181Y16181
X28181Y16181
X28181Y17181
X27181Y17181
X26181Y17181
X25181Y17181
X24181Y17181
X23181Y17181
X22181Y17181
X21181Y17181
X20181Y17181
X19181Y17181
X18181Y17181
X17181Y17181
X16181Y17181
X15181Y17181
X14181Y17181
X14181Y18181
X15181Y18181
X15181Y19181
X14181Y19181
X14181Y20181
X15181Y20181
X16181Y20181
X17181Y20181
X18181Y20181
X19181Y20181
X20181Y20181
X21181Y20181
X22181Y20181
X23181Y20181
X24181Y20181
X25181Y20181
X26181Y20181
X26181Y19181
X26181Y18181
X27181Y18181
X28181Y18181
X25181Y18181
X24181Y18181
X23181Y18181
X22181Y18181
X21181Y18181
X20181Y18181
X19181Y18181
X18181Y18181
X17181Y18181
X16181Y18181
X16181Y19181
X17181Y19181
X18181Y19181
X19181Y19181
X20181Y19181
X21181Y19181
X22181Y19181
X23181Y19181
X24181Y19181
X25181Y19181
X25181Y14181
X24181Y14181
X23181Y14181
X22181Y14181
X21181Y14181
X20181Y14181
X19181Y14181
X18181Y14181
X17181Y14181
X16181Y14181
X15181Y14181
X14181Y14181
X11681Y14181
X11681Y13181
X11681Y12181
X11681Y15181
T02
X8681Y6087
X7878Y6087
X7075Y6087
X6681Y5087
X7485Y5087
X8288Y5087
T03
X8181Y10681
X7181Y10681
X5681Y10681
X4681Y10681
X5181Y12181
X7681Y12181
X9681Y10681
X10681Y10681
X10181Y12181
X10181Y15181
X7681Y15181
X5181Y15181
T04
X5181Y17681
X6181Y17681
X7181Y17681
X8181Y17681
X9181Y17681
X10181Y17681
T05
X10044Y4181
X5319Y4181
T06
X1681Y1681
X1681Y19681
X27681Y19681
X27681Y1681
M30
