%
M48
M72
T01C0.0118
T02C0.0320
T03C0.0354
T04C0.0394
T05C0.0472
T06C0.0630
T07C0.0787
T08C0.1260
T09C0.1280
%
T01
X17940Y14820
X20980Y17460
X22980Y18580
X24340Y20660
X29620Y18100
X30020Y18180
X30420Y18260
X30900Y17940
X29860Y16580
X30740Y15700
X39860Y10260
X40980Y8100
X41540Y6660
X43140Y5220
X41540Y3940
X39780Y22820
X15620Y24500
X10180Y18980
X14900Y17860
T02
X15300Y19600
X14300Y19600
X11700Y19600
X10700Y19600
X10800Y23200
X11800Y23200
X14900Y23200
X15700Y23200
X18300Y23200
X19300Y23200
X21900Y23200
X22700Y23200
X24900Y23200
X25700Y23200
X28300Y23200
X29300Y23200
X31300Y23200
X32300Y23200
X31375Y26200
X33875Y26200
X36375Y26200
X38875Y26200
X37906Y23700
X36906Y23700
X41300Y23700
X42300Y23700
X38875Y31200
X36375Y31200
X33875Y31200
X31375Y31200
X28875Y31200
X26375Y31200
X23875Y31200
X21375Y31200
X18875Y31200
X16375Y31200
X13875Y31200
X11375Y31200
X11375Y26200
X13875Y26200
X16375Y26200
X18875Y26200
X21375Y26200
X23875Y26200
X26375Y26200
X28875Y26200
X26300Y14500
X26300Y13500
X26300Y12500
X26300Y11500
X23300Y11500
X23300Y12500
X23300Y13500
X23300Y14500
X19700Y14500
X19700Y13500
X19700Y12500
X19700Y11500
X16700Y11500
X16700Y12500
X16700Y13500
X16700Y14500
X13400Y14500
X13400Y13500
X13400Y12500
X13400Y11500
X10400Y11500
X10400Y12500
X10400Y13500
X10400Y14500
X31394Y12981
X31894Y12231
X32394Y12981
T03
X37600Y12850
X38600Y12350
X37600Y11850
X38600Y11350
X37600Y10850
X38600Y13350
X37600Y17350
X38600Y17850
X37600Y18350
X38600Y18850
X37600Y19350
X38600Y19850
X4535Y11735
X3535Y11735
T04
X9346Y6100
X10330Y6100
X11314Y6100
X17246Y6100
X18230Y6100
X19214Y6100
X25146Y6100
X26130Y6100
X27114Y6100
X33046Y6100
X34030Y6100
X35014Y6100
T05
X4300Y23100
T06
X2331Y23100
X4300Y21131
X6269Y23100
X4300Y25069
T07
X6535Y13735
X2535Y9735
T08
X4100Y1600
X40600Y1600
X43100Y28600
X1600Y28600
T09
X41100Y20600
X41100Y16600
X41100Y14100
X41100Y10100
M30
