%
M48
M72
T01C0.0118
T02C0.0320
T03C0.0354
T04C0.0394
T05C0.0472
T06C0.0630
T07C0.0787
T08C0.1260
T09C0.1280
%
T01
X18040Y10540
X30670Y9550
X32050Y10150
X32680Y10150
X33460Y10630
X32380Y9550
X32650Y8170
X35380Y7210
X35530Y6610
X36160Y5950
X36790Y6250
X36790Y3130
X32920Y14590
X38230Y16720
X39250Y19840
X10090Y21850
T02
X9100Y22600
X11600Y22600
X14100Y22600
X16600Y22600
X19100Y22600
X21600Y22600
X24100Y22600
X26600Y22600
X29100Y22600
X31600Y22600
X34100Y22600
X34100Y19600
X33100Y19600
X31100Y17600
X30100Y17600
X28100Y17600
X27100Y17600
X24500Y17600
X23700Y17600
X21500Y17600
X20700Y17600
X18100Y17600
X17100Y17600
X14500Y17600
X13700Y17600
X10600Y17600
X9600Y17600
X6600Y22600
X6600Y27600
X9100Y27600
X11600Y27600
X14100Y27600
X16600Y27600
X19100Y27600
X21600Y27600
X24100Y27600
X26600Y27600
X29100Y27600
X31600Y27600
X34100Y27600
X39100Y26100
X40100Y26100
X40100Y24100
X39100Y24100
X34100Y15600
X33100Y15600
X29600Y10600
X29100Y9850
X28600Y10600
X25100Y10100
X25100Y9100
X25100Y11100
X25100Y12100
X22100Y12100
X22100Y11100
X22100Y10100
X22100Y9100
X20100Y9100
X20100Y10100
X20100Y11100
X20100Y12100
X17100Y12100
X17100Y11100
X17100Y10100
X17100Y9100
X14600Y9100
X14600Y10100
X14600Y11100
X14600Y12100
X11600Y12100
X11600Y11100
X11600Y10100
X11600Y9100
T03
X4935Y8935
X3935Y8935
X37600Y10850
X38600Y11350
X37600Y11850
X38600Y12350
X37600Y12850
X38600Y13350
X37600Y17350
X38600Y17850
X37600Y18350
X38600Y18850
X37600Y19350
X38600Y19850
T04
X30214Y6100
X29230Y6100
X28246Y6100
X24714Y6100
X23730Y6100
X22746Y6100
X19214Y6100
X18230Y6100
X17246Y6100
X13714Y6100
X12730Y6100
X11746Y6100
T05
X5100Y17100
T06
X3131Y17100
X5100Y15131
X7069Y17100
X5100Y19069
T07
X6935Y10935
X2935Y6935
T08
X4100Y1600
X40600Y1600
X43100Y28600
X1600Y28600
T09
X41100Y20600
X41100Y16600
X41100Y14100
X41100Y10100
M30
