G75*
G70*
%OFA0B0*%
%FSLAX24Y24*%
%IPPOS*%
%LPD*%
%AMOC8*
5,1,8,0,0,1.08239X$1,22.5*
%
%ADD10C,0.1340*%
%ADD11OC8,0.0600*%
%ADD12C,0.0600*%
%ADD13C,0.0600*%
%ADD14C,0.0634*%
%ADD15C,0.1360*%
%ADD16C,0.0789*%
%ADD17C,0.1025*%
%ADD18R,0.0674X0.0674*%
%ADD19C,0.1261*%
%ADD20C,0.0358*%
D10*
X004100Y001600D03*
X040600Y001600D03*
X043100Y028600D03*
X001600Y028600D03*
D11*
X006600Y027600D03*
X009100Y027600D03*
X011600Y027600D03*
X014100Y027600D03*
X016600Y027600D03*
X019100Y027600D03*
X021600Y027600D03*
X024100Y027600D03*
X026600Y027600D03*
X029100Y027600D03*
X031600Y027600D03*
X034100Y027600D03*
X039100Y026100D03*
X040100Y026100D03*
X040100Y024100D03*
X039100Y024100D03*
X034100Y022600D03*
X031600Y022600D03*
X029100Y022600D03*
X026600Y022600D03*
X024100Y022600D03*
X021600Y022600D03*
X019100Y022600D03*
X016600Y022600D03*
X014100Y022600D03*
X011600Y022600D03*
X009100Y022600D03*
X006600Y022600D03*
X009600Y017600D03*
X010600Y017600D03*
X013700Y017600D03*
X017100Y017600D03*
X018100Y017600D03*
X020700Y017600D03*
X024500Y017600D03*
X027100Y017600D03*
X028100Y017600D03*
X030100Y017600D03*
X031100Y017600D03*
X033100Y015600D03*
X034100Y015600D03*
X034100Y019600D03*
X033100Y019600D03*
X029600Y010600D03*
X029100Y009850D03*
X028600Y010600D03*
D12*
X020100Y010100D03*
X020100Y009100D03*
X020100Y011100D03*
X020100Y012100D03*
X017100Y012100D03*
X017100Y011100D03*
X017100Y010100D03*
X017100Y009100D03*
X014600Y009100D03*
X014600Y010100D03*
X014600Y011100D03*
X014600Y012100D03*
X011600Y012100D03*
X011600Y011100D03*
X011600Y010100D03*
X011600Y009100D03*
X014500Y017600D03*
X021500Y017600D03*
X023700Y017600D03*
D13*
X024840Y012100D02*
X025360Y012100D01*
X025360Y011100D02*
X024840Y011100D01*
X024840Y010100D02*
X025360Y010100D01*
X025360Y009100D02*
X024840Y009100D01*
X022360Y009100D02*
X021840Y009100D01*
X021840Y010100D02*
X022360Y010100D01*
X022360Y011100D02*
X021840Y011100D01*
X021840Y012100D02*
X022360Y012100D01*
D14*
X037600Y011850D03*
X038600Y011350D03*
X037600Y010850D03*
X038600Y012350D03*
X037600Y012850D03*
X038600Y013350D03*
X037600Y017350D03*
X038600Y017850D03*
X037600Y018350D03*
X038600Y018850D03*
X037600Y019350D03*
X038600Y019850D03*
X004935Y008935D03*
X003935Y008935D03*
D15*
X041100Y010100D03*
X041100Y014100D03*
X041100Y016600D03*
X041100Y020600D03*
D16*
X005100Y017100D03*
D17*
X003131Y017100D03*
X005100Y015131D03*
X007069Y017100D03*
X005100Y019069D03*
D18*
X011746Y006100D03*
X012730Y006100D03*
X013714Y006100D03*
X017246Y006100D03*
X018230Y006100D03*
X019214Y006100D03*
X022746Y006100D03*
X023730Y006100D03*
X024714Y006100D03*
X028246Y006100D03*
X029230Y006100D03*
X030214Y006100D03*
D19*
X006935Y010935D03*
X002935Y006935D03*
D20*
X018040Y010540D03*
X030670Y009550D03*
X032050Y010150D03*
X032680Y010150D03*
X033460Y010630D03*
X032380Y009550D03*
X032650Y008170D03*
X035380Y007210D03*
X035530Y006610D03*
X036160Y005950D03*
X036790Y006250D03*
X036790Y003130D03*
X032920Y014590D03*
X038230Y016720D03*
X039250Y019840D03*
X010090Y021850D03*
M02*
