G75*
G70*
%OFA0B0*%
%FSLAX24Y24*%
%IPPOS*%
%LPD*%
%AMOC8*
5,1,8,0,0,1.08239X$1,22.5*
%
%ADD10C,0.0010*%
%ADD11OC8,0.0520*%
%ADD12C,0.0520*%
%ADD13C,0.0520*%
%ADD14R,0.0394X0.0177*%
%ADD15C,0.0554*%
%ADD16R,0.0500X0.0250*%
%ADD17C,0.0709*%
%ADD18C,0.0945*%
%ADD19R,0.0594X0.0594*%
%ADD20C,0.1181*%
%ADD21R,0.0630X0.0710*%
%ADD22C,0.0080*%
%ADD23C,0.0278*%
D10*
X024332Y029340D02*
X024332Y031340D01*
X025132Y031340D01*
X025046Y031104D01*
X024983Y030860D01*
X024945Y030611D01*
X024932Y030360D01*
X024932Y030320D01*
X024945Y030069D01*
X024983Y029820D01*
X025046Y029577D01*
X025132Y029340D01*
X024332Y029340D01*
X024332Y029341D02*
X025131Y029341D01*
X025128Y029349D02*
X024332Y029349D01*
X024332Y029358D02*
X025125Y029358D01*
X025122Y029366D02*
X024332Y029366D01*
X024332Y029375D02*
X025119Y029375D01*
X025116Y029383D02*
X024332Y029383D01*
X024332Y029392D02*
X025113Y029392D01*
X025110Y029400D02*
X024332Y029400D01*
X024332Y029409D02*
X025107Y029409D01*
X025104Y029417D02*
X024332Y029417D01*
X024332Y029426D02*
X025100Y029426D01*
X025097Y029434D02*
X024332Y029434D01*
X024332Y029443D02*
X025094Y029443D01*
X025091Y029451D02*
X024332Y029451D01*
X024332Y029460D02*
X025088Y029460D01*
X025085Y029468D02*
X024332Y029468D01*
X024332Y029477D02*
X025082Y029477D01*
X025079Y029485D02*
X024332Y029485D01*
X024332Y029494D02*
X025076Y029494D01*
X025073Y029502D02*
X024332Y029502D01*
X024332Y029511D02*
X025070Y029511D01*
X025066Y029519D02*
X024332Y029519D01*
X024332Y029528D02*
X025063Y029528D01*
X025060Y029536D02*
X024332Y029536D01*
X024332Y029545D02*
X025057Y029545D01*
X025054Y029553D02*
X024332Y029553D01*
X024332Y029562D02*
X025051Y029562D01*
X025048Y029570D02*
X024332Y029570D01*
X024332Y029579D02*
X025045Y029579D01*
X025043Y029587D02*
X024332Y029587D01*
X024332Y029596D02*
X025041Y029596D01*
X025039Y029604D02*
X024332Y029604D01*
X024332Y029613D02*
X025036Y029613D01*
X025034Y029621D02*
X024332Y029621D01*
X024332Y029630D02*
X025032Y029630D01*
X025030Y029638D02*
X024332Y029638D01*
X024332Y029647D02*
X025028Y029647D01*
X025026Y029655D02*
X024332Y029655D01*
X024332Y029664D02*
X025023Y029664D01*
X025021Y029672D02*
X024332Y029672D01*
X024332Y029681D02*
X025019Y029681D01*
X025017Y029689D02*
X024332Y029689D01*
X024332Y029698D02*
X025015Y029698D01*
X025012Y029706D02*
X024332Y029706D01*
X024332Y029715D02*
X025010Y029715D01*
X025008Y029723D02*
X024332Y029723D01*
X024332Y029732D02*
X025006Y029732D01*
X025004Y029740D02*
X024332Y029740D01*
X024332Y029749D02*
X025002Y029749D01*
X024999Y029757D02*
X024332Y029757D01*
X024332Y029766D02*
X024997Y029766D01*
X024995Y029774D02*
X024332Y029774D01*
X024332Y029783D02*
X024993Y029783D01*
X024991Y029791D02*
X024332Y029791D01*
X024332Y029800D02*
X024989Y029800D01*
X024986Y029808D02*
X024332Y029808D01*
X024332Y029817D02*
X024984Y029817D01*
X024983Y029825D02*
X024332Y029825D01*
X024332Y029834D02*
X024981Y029834D01*
X024980Y029842D02*
X024332Y029842D01*
X024332Y029851D02*
X024979Y029851D01*
X024977Y029859D02*
X024332Y029859D01*
X024332Y029868D02*
X024976Y029868D01*
X024975Y029876D02*
X024332Y029876D01*
X024332Y029885D02*
X024973Y029885D01*
X024972Y029893D02*
X024332Y029893D01*
X024332Y029902D02*
X024971Y029902D01*
X024970Y029910D02*
X024332Y029910D01*
X024332Y029919D02*
X024968Y029919D01*
X024967Y029927D02*
X024332Y029927D01*
X024332Y029936D02*
X024966Y029936D01*
X024964Y029944D02*
X024332Y029944D01*
X024332Y029953D02*
X024963Y029953D01*
X024962Y029961D02*
X024332Y029961D01*
X024332Y029970D02*
X024960Y029970D01*
X024959Y029978D02*
X024332Y029978D01*
X024332Y029987D02*
X024958Y029987D01*
X024956Y029995D02*
X024332Y029995D01*
X024332Y030004D02*
X024955Y030004D01*
X024954Y030012D02*
X024332Y030012D01*
X024332Y030021D02*
X024953Y030021D01*
X024951Y030029D02*
X024332Y030029D01*
X024332Y030038D02*
X024950Y030038D01*
X024949Y030046D02*
X024332Y030046D01*
X024332Y030055D02*
X024947Y030055D01*
X024946Y030063D02*
X024332Y030063D01*
X024332Y030072D02*
X024945Y030072D01*
X024945Y030080D02*
X024332Y030080D01*
X024332Y030089D02*
X024944Y030089D01*
X024944Y030097D02*
X024332Y030097D01*
X024332Y030106D02*
X024943Y030106D01*
X024943Y030114D02*
X024332Y030114D01*
X024332Y030123D02*
X024942Y030123D01*
X024942Y030131D02*
X024332Y030131D01*
X024332Y030140D02*
X024941Y030140D01*
X024941Y030148D02*
X024332Y030148D01*
X024332Y030157D02*
X024940Y030157D01*
X024940Y030165D02*
X024332Y030165D01*
X024332Y030174D02*
X024940Y030174D01*
X024939Y030182D02*
X024332Y030182D01*
X024332Y030191D02*
X024939Y030191D01*
X024938Y030199D02*
X024332Y030199D01*
X024332Y030208D02*
X024938Y030208D01*
X024937Y030216D02*
X024332Y030216D01*
X024332Y030225D02*
X024937Y030225D01*
X024936Y030233D02*
X024332Y030233D01*
X024332Y030242D02*
X024936Y030242D01*
X024935Y030250D02*
X024332Y030250D01*
X024332Y030259D02*
X024935Y030259D01*
X024934Y030267D02*
X024332Y030267D01*
X024332Y030276D02*
X024934Y030276D01*
X024934Y030284D02*
X024332Y030284D01*
X024332Y030293D02*
X024933Y030293D01*
X024933Y030301D02*
X024332Y030301D01*
X024332Y030310D02*
X024932Y030310D01*
X024932Y030318D02*
X024332Y030318D01*
X024332Y030327D02*
X024932Y030327D01*
X024932Y030335D02*
X024332Y030335D01*
X024332Y030344D02*
X024932Y030344D01*
X024932Y030352D02*
X024332Y030352D01*
X024332Y030361D02*
X024932Y030361D01*
X024932Y030369D02*
X024332Y030369D01*
X024332Y030378D02*
X024933Y030378D01*
X024933Y030386D02*
X024332Y030386D01*
X024332Y030395D02*
X024934Y030395D01*
X024934Y030403D02*
X024332Y030403D01*
X024332Y030412D02*
X024934Y030412D01*
X024935Y030420D02*
X024332Y030420D01*
X024332Y030429D02*
X024935Y030429D01*
X024936Y030437D02*
X024332Y030437D01*
X024332Y030446D02*
X024936Y030446D01*
X024937Y030454D02*
X024332Y030454D01*
X024332Y030463D02*
X024937Y030463D01*
X024938Y030471D02*
X024332Y030471D01*
X024332Y030480D02*
X024938Y030480D01*
X024939Y030488D02*
X024332Y030488D01*
X024332Y030497D02*
X024939Y030497D01*
X024939Y030505D02*
X024332Y030505D01*
X024332Y030514D02*
X024940Y030514D01*
X024940Y030522D02*
X024332Y030522D01*
X024332Y030531D02*
X024941Y030531D01*
X024941Y030539D02*
X024332Y030539D01*
X024332Y030548D02*
X024942Y030548D01*
X024942Y030556D02*
X024332Y030556D01*
X024332Y030565D02*
X024943Y030565D01*
X024943Y030573D02*
X024332Y030573D01*
X024332Y030582D02*
X024944Y030582D01*
X024944Y030590D02*
X024332Y030590D01*
X024332Y030599D02*
X024945Y030599D01*
X024945Y030607D02*
X024332Y030607D01*
X024332Y030616D02*
X024946Y030616D01*
X024947Y030624D02*
X024332Y030624D01*
X024332Y030633D02*
X024948Y030633D01*
X024950Y030641D02*
X024332Y030641D01*
X024332Y030650D02*
X024951Y030650D01*
X024952Y030658D02*
X024332Y030658D01*
X024332Y030667D02*
X024954Y030667D01*
X024955Y030675D02*
X024332Y030675D01*
X024332Y030684D02*
X024956Y030684D01*
X024958Y030692D02*
X024332Y030692D01*
X024332Y030701D02*
X024959Y030701D01*
X024960Y030709D02*
X024332Y030709D01*
X024332Y030718D02*
X024962Y030718D01*
X024963Y030726D02*
X024332Y030726D01*
X024332Y030735D02*
X024964Y030735D01*
X024965Y030743D02*
X024332Y030743D01*
X024332Y030752D02*
X024967Y030752D01*
X024968Y030760D02*
X024332Y030760D01*
X024332Y030769D02*
X024969Y030769D01*
X024971Y030777D02*
X024332Y030777D01*
X024332Y030786D02*
X024972Y030786D01*
X024973Y030794D02*
X024332Y030794D01*
X024332Y030803D02*
X024975Y030803D01*
X024976Y030811D02*
X024332Y030811D01*
X024332Y030820D02*
X024977Y030820D01*
X024978Y030828D02*
X024332Y030828D01*
X024332Y030837D02*
X024980Y030837D01*
X024981Y030845D02*
X024332Y030845D01*
X024332Y030854D02*
X024982Y030854D01*
X024984Y030862D02*
X024332Y030862D01*
X024332Y030871D02*
X024986Y030871D01*
X024988Y030879D02*
X024332Y030879D01*
X024332Y030888D02*
X024990Y030888D01*
X024993Y030896D02*
X024332Y030896D01*
X024332Y030905D02*
X024995Y030905D01*
X024997Y030913D02*
X024332Y030913D01*
X024332Y030922D02*
X024999Y030922D01*
X025001Y030930D02*
X024332Y030930D01*
X024332Y030939D02*
X025004Y030939D01*
X025006Y030947D02*
X024332Y030947D01*
X024332Y030956D02*
X025008Y030956D01*
X025010Y030964D02*
X024332Y030964D01*
X024332Y030973D02*
X025012Y030973D01*
X025014Y030981D02*
X024332Y030981D01*
X024332Y030990D02*
X025017Y030990D01*
X025019Y030998D02*
X024332Y030998D01*
X024332Y031007D02*
X025021Y031007D01*
X025023Y031015D02*
X024332Y031015D01*
X024332Y031024D02*
X025025Y031024D01*
X025027Y031032D02*
X024332Y031032D01*
X024332Y031041D02*
X025030Y031041D01*
X025032Y031049D02*
X024332Y031049D01*
X024332Y031058D02*
X025034Y031058D01*
X025036Y031066D02*
X024332Y031066D01*
X024332Y031075D02*
X025038Y031075D01*
X025040Y031083D02*
X024332Y031083D01*
X024332Y031092D02*
X025043Y031092D01*
X025045Y031100D02*
X024332Y031100D01*
X024332Y031109D02*
X025048Y031109D01*
X025051Y031117D02*
X024332Y031117D01*
X024332Y031126D02*
X025054Y031126D01*
X025057Y031134D02*
X024332Y031134D01*
X024332Y031143D02*
X025060Y031143D01*
X025063Y031151D02*
X024332Y031151D01*
X024332Y031160D02*
X025066Y031160D01*
X025069Y031168D02*
X024332Y031168D01*
X024332Y031177D02*
X025072Y031177D01*
X025075Y031185D02*
X024332Y031185D01*
X024332Y031194D02*
X025078Y031194D01*
X025082Y031202D02*
X024332Y031202D01*
X024332Y031211D02*
X025085Y031211D01*
X025088Y031219D02*
X024332Y031219D01*
X024332Y031228D02*
X025091Y031228D01*
X025094Y031236D02*
X024332Y031236D01*
X024332Y031245D02*
X025097Y031245D01*
X025100Y031253D02*
X024332Y031253D01*
X024332Y031262D02*
X025103Y031262D01*
X025106Y031270D02*
X024332Y031270D01*
X024332Y031279D02*
X025109Y031279D01*
X025112Y031287D02*
X024332Y031287D01*
X024332Y031296D02*
X025116Y031296D01*
X025119Y031304D02*
X024332Y031304D01*
X024332Y031313D02*
X025122Y031313D01*
X025125Y031321D02*
X024332Y031321D01*
X024332Y031330D02*
X025128Y031330D01*
X025131Y031338D02*
X024332Y031338D01*
X025289Y031075D02*
X025499Y031075D01*
X025502Y031083D02*
X025291Y031083D01*
X025294Y031092D02*
X025505Y031092D01*
X025508Y031100D02*
X025296Y031100D01*
X025296Y031101D02*
X025391Y031340D01*
X025612Y031340D01*
X025516Y031126D01*
X025444Y030903D01*
X025395Y030673D01*
X025372Y030440D01*
X025572Y030440D01*
X025572Y030240D01*
X025372Y030240D01*
X025395Y030007D01*
X025444Y029777D01*
X025516Y029554D01*
X025612Y029340D01*
X025391Y029340D01*
X025298Y029575D01*
X025230Y029818D01*
X025188Y030068D01*
X025172Y030320D01*
X025172Y030340D01*
X025186Y030598D01*
X025227Y030852D01*
X025296Y031101D01*
X025299Y031109D02*
X025510Y031109D01*
X025513Y031117D02*
X025303Y031117D01*
X025306Y031126D02*
X025516Y031126D01*
X025520Y031134D02*
X025310Y031134D01*
X025313Y031143D02*
X025523Y031143D01*
X025527Y031151D02*
X025316Y031151D01*
X025320Y031160D02*
X025531Y031160D01*
X025535Y031168D02*
X025323Y031168D01*
X025327Y031177D02*
X025539Y031177D01*
X025542Y031185D02*
X025330Y031185D01*
X025333Y031194D02*
X025546Y031194D01*
X025550Y031202D02*
X025337Y031202D01*
X025340Y031211D02*
X025554Y031211D01*
X025558Y031219D02*
X025343Y031219D01*
X025347Y031228D02*
X025561Y031228D01*
X025565Y031236D02*
X025350Y031236D01*
X025354Y031245D02*
X025569Y031245D01*
X025573Y031253D02*
X025357Y031253D01*
X025360Y031262D02*
X025577Y031262D01*
X025580Y031270D02*
X025364Y031270D01*
X025367Y031279D02*
X025584Y031279D01*
X025588Y031287D02*
X025371Y031287D01*
X025374Y031296D02*
X025592Y031296D01*
X025596Y031304D02*
X025377Y031304D01*
X025381Y031313D02*
X025599Y031313D01*
X025603Y031321D02*
X025384Y031321D01*
X025387Y031330D02*
X025607Y031330D01*
X025611Y031338D02*
X025391Y031338D01*
X025287Y031066D02*
X025497Y031066D01*
X025494Y031058D02*
X025284Y031058D01*
X025282Y031049D02*
X025491Y031049D01*
X025488Y031041D02*
X025280Y031041D01*
X025277Y031032D02*
X025486Y031032D01*
X025483Y031024D02*
X025275Y031024D01*
X025273Y031015D02*
X025480Y031015D01*
X025477Y031007D02*
X025270Y031007D01*
X025268Y030998D02*
X025474Y030998D01*
X025472Y030990D02*
X025265Y030990D01*
X025263Y030981D02*
X025469Y030981D01*
X025466Y030973D02*
X025261Y030973D01*
X025258Y030964D02*
X025463Y030964D01*
X025461Y030956D02*
X025256Y030956D01*
X025254Y030947D02*
X025458Y030947D01*
X025455Y030939D02*
X025251Y030939D01*
X025249Y030930D02*
X025452Y030930D01*
X025450Y030922D02*
X025247Y030922D01*
X025244Y030913D02*
X025447Y030913D01*
X025444Y030905D02*
X025242Y030905D01*
X025240Y030896D02*
X025442Y030896D01*
X025440Y030888D02*
X025237Y030888D01*
X025235Y030879D02*
X025439Y030879D01*
X025437Y030871D02*
X025232Y030871D01*
X025230Y030862D02*
X025435Y030862D01*
X025433Y030854D02*
X025228Y030854D01*
X025226Y030845D02*
X025431Y030845D01*
X025430Y030837D02*
X025225Y030837D01*
X025223Y030828D02*
X025428Y030828D01*
X025426Y030820D02*
X025222Y030820D01*
X025221Y030811D02*
X025424Y030811D01*
X025423Y030803D02*
X025219Y030803D01*
X025218Y030794D02*
X025421Y030794D01*
X025419Y030786D02*
X025216Y030786D01*
X025215Y030777D02*
X025417Y030777D01*
X025415Y030769D02*
X025214Y030769D01*
X025212Y030760D02*
X025414Y030760D01*
X025412Y030752D02*
X025211Y030752D01*
X025209Y030743D02*
X025410Y030743D01*
X025408Y030735D02*
X025208Y030735D01*
X025207Y030726D02*
X025406Y030726D01*
X025405Y030718D02*
X025205Y030718D01*
X025204Y030709D02*
X025403Y030709D01*
X025401Y030701D02*
X025203Y030701D01*
X025201Y030692D02*
X025399Y030692D01*
X025398Y030684D02*
X025200Y030684D01*
X025198Y030675D02*
X025396Y030675D01*
X025395Y030667D02*
X025197Y030667D01*
X025196Y030658D02*
X025394Y030658D01*
X025393Y030650D02*
X025194Y030650D01*
X025193Y030641D02*
X025392Y030641D01*
X025391Y030633D02*
X025191Y030633D01*
X025190Y030624D02*
X025390Y030624D01*
X025390Y030616D02*
X025189Y030616D01*
X025187Y030607D02*
X025389Y030607D01*
X025388Y030599D02*
X025186Y030599D01*
X025185Y030590D02*
X025387Y030590D01*
X025386Y030582D02*
X025185Y030582D01*
X025184Y030573D02*
X025385Y030573D01*
X025384Y030565D02*
X025184Y030565D01*
X025183Y030556D02*
X025384Y030556D01*
X025383Y030548D02*
X025183Y030548D01*
X025183Y030539D02*
X025382Y030539D01*
X025381Y030531D02*
X025182Y030531D01*
X025182Y030522D02*
X025380Y030522D01*
X025379Y030514D02*
X025181Y030514D01*
X025181Y030505D02*
X025378Y030505D01*
X025378Y030497D02*
X025180Y030497D01*
X025180Y030488D02*
X025377Y030488D01*
X025376Y030480D02*
X025179Y030480D01*
X025179Y030471D02*
X025375Y030471D01*
X025374Y030463D02*
X025178Y030463D01*
X025178Y030454D02*
X025373Y030454D01*
X025372Y030446D02*
X025177Y030446D01*
X025177Y030437D02*
X025572Y030437D01*
X025572Y030429D02*
X025177Y030429D01*
X025176Y030420D02*
X025572Y030420D01*
X025572Y030412D02*
X025176Y030412D01*
X025175Y030403D02*
X025572Y030403D01*
X025572Y030395D02*
X025175Y030395D01*
X025174Y030386D02*
X025572Y030386D01*
X025572Y030378D02*
X025174Y030378D01*
X025173Y030369D02*
X025572Y030369D01*
X025572Y030361D02*
X025173Y030361D01*
X025172Y030352D02*
X025572Y030352D01*
X025572Y030344D02*
X025172Y030344D01*
X025172Y030335D02*
X025572Y030335D01*
X025572Y030327D02*
X025172Y030327D01*
X025172Y030318D02*
X025572Y030318D01*
X025572Y030310D02*
X025172Y030310D01*
X025173Y030301D02*
X025572Y030301D01*
X025572Y030293D02*
X025174Y030293D01*
X025174Y030284D02*
X025572Y030284D01*
X025572Y030276D02*
X025175Y030276D01*
X025175Y030267D02*
X025572Y030267D01*
X025572Y030259D02*
X025176Y030259D01*
X025176Y030250D02*
X025572Y030250D01*
X025572Y030242D02*
X025177Y030242D01*
X025177Y030233D02*
X025372Y030233D01*
X025373Y030225D02*
X025178Y030225D01*
X025178Y030216D02*
X025374Y030216D01*
X025375Y030208D02*
X025179Y030208D01*
X025179Y030199D02*
X025376Y030199D01*
X025377Y030191D02*
X025180Y030191D01*
X025180Y030182D02*
X025378Y030182D01*
X025378Y030174D02*
X025181Y030174D01*
X025181Y030165D02*
X025379Y030165D01*
X025380Y030157D02*
X025182Y030157D01*
X025183Y030148D02*
X025381Y030148D01*
X025382Y030140D02*
X025183Y030140D01*
X025184Y030131D02*
X025383Y030131D01*
X025384Y030123D02*
X025184Y030123D01*
X025185Y030114D02*
X025384Y030114D01*
X025385Y030106D02*
X025185Y030106D01*
X025186Y030097D02*
X025386Y030097D01*
X025387Y030089D02*
X025186Y030089D01*
X025187Y030080D02*
X025388Y030080D01*
X025389Y030072D02*
X025187Y030072D01*
X025188Y030063D02*
X025390Y030063D01*
X025390Y030055D02*
X025190Y030055D01*
X025191Y030046D02*
X025391Y030046D01*
X025392Y030038D02*
X025193Y030038D01*
X025194Y030029D02*
X025393Y030029D01*
X025394Y030021D02*
X025196Y030021D01*
X025197Y030012D02*
X025395Y030012D01*
X025396Y030004D02*
X025198Y030004D01*
X025200Y029995D02*
X025398Y029995D01*
X025400Y029987D02*
X025201Y029987D01*
X025203Y029978D02*
X025401Y029978D01*
X025403Y029970D02*
X025204Y029970D01*
X025206Y029961D02*
X025405Y029961D01*
X025407Y029953D02*
X025207Y029953D01*
X025208Y029944D02*
X025408Y029944D01*
X025410Y029936D02*
X025210Y029936D01*
X025211Y029927D02*
X025412Y029927D01*
X025414Y029919D02*
X025213Y029919D01*
X025214Y029910D02*
X025416Y029910D01*
X025417Y029902D02*
X025216Y029902D01*
X025217Y029893D02*
X025419Y029893D01*
X025421Y029885D02*
X025219Y029885D01*
X025220Y029876D02*
X025423Y029876D01*
X025425Y029868D02*
X025221Y029868D01*
X025223Y029859D02*
X025426Y029859D01*
X025428Y029851D02*
X025224Y029851D01*
X025226Y029842D02*
X025430Y029842D01*
X025432Y029834D02*
X025227Y029834D01*
X025229Y029825D02*
X025433Y029825D01*
X025435Y029817D02*
X025230Y029817D01*
X025233Y029808D02*
X025437Y029808D01*
X025439Y029800D02*
X025235Y029800D01*
X025237Y029791D02*
X025441Y029791D01*
X025442Y029783D02*
X025240Y029783D01*
X025242Y029774D02*
X025444Y029774D01*
X025447Y029766D02*
X025245Y029766D01*
X025247Y029757D02*
X025450Y029757D01*
X025453Y029749D02*
X025249Y029749D01*
X025252Y029740D02*
X025456Y029740D01*
X025458Y029732D02*
X025254Y029732D01*
X025256Y029723D02*
X025461Y029723D01*
X025464Y029715D02*
X025259Y029715D01*
X025261Y029706D02*
X025467Y029706D01*
X025469Y029698D02*
X025264Y029698D01*
X025266Y029689D02*
X025472Y029689D01*
X025475Y029681D02*
X025268Y029681D01*
X025271Y029672D02*
X025478Y029672D01*
X025480Y029664D02*
X025273Y029664D01*
X025276Y029655D02*
X025483Y029655D01*
X025486Y029647D02*
X025278Y029647D01*
X025280Y029638D02*
X025489Y029638D01*
X025491Y029630D02*
X025283Y029630D01*
X025285Y029621D02*
X025494Y029621D01*
X025497Y029613D02*
X025287Y029613D01*
X025290Y029604D02*
X025500Y029604D01*
X025502Y029596D02*
X025292Y029596D01*
X025295Y029587D02*
X025505Y029587D01*
X025508Y029579D02*
X025297Y029579D01*
X025300Y029570D02*
X025511Y029570D01*
X025513Y029562D02*
X025303Y029562D01*
X025307Y029553D02*
X025516Y029553D01*
X025520Y029545D02*
X025310Y029545D01*
X025313Y029536D02*
X025524Y029536D01*
X025528Y029528D02*
X025317Y029528D01*
X025320Y029519D02*
X025531Y029519D01*
X025535Y029511D02*
X025324Y029511D01*
X025327Y029502D02*
X025539Y029502D01*
X025543Y029494D02*
X025330Y029494D01*
X025334Y029485D02*
X025547Y029485D01*
X025550Y029477D02*
X025337Y029477D01*
X025340Y029468D02*
X025554Y029468D01*
X025558Y029460D02*
X025344Y029460D01*
X025347Y029451D02*
X025562Y029451D01*
X025566Y029443D02*
X025351Y029443D01*
X025354Y029434D02*
X025569Y029434D01*
X025573Y029426D02*
X025357Y029426D01*
X025361Y029417D02*
X025577Y029417D01*
X025581Y029409D02*
X025364Y029409D01*
X025368Y029400D02*
X025585Y029400D01*
X025588Y029392D02*
X025371Y029392D01*
X025374Y029383D02*
X025592Y029383D01*
X025596Y029375D02*
X025378Y029375D01*
X025381Y029366D02*
X025600Y029366D01*
X025604Y029358D02*
X025384Y029358D01*
X025388Y029349D02*
X025607Y029349D01*
X025611Y029341D02*
X025391Y029341D01*
X025772Y029341D02*
X025972Y029341D01*
X025972Y029340D02*
X025972Y031340D01*
X025772Y031340D01*
X025772Y029340D01*
X025972Y029340D01*
X025972Y029349D02*
X025772Y029349D01*
X025772Y029358D02*
X025972Y029358D01*
X025972Y029366D02*
X025772Y029366D01*
X025772Y029375D02*
X025972Y029375D01*
X025972Y029383D02*
X025772Y029383D01*
X025772Y029392D02*
X025972Y029392D01*
X025972Y029400D02*
X025772Y029400D01*
X025772Y029409D02*
X025972Y029409D01*
X025972Y029417D02*
X025772Y029417D01*
X025772Y029426D02*
X025972Y029426D01*
X025972Y029434D02*
X025772Y029434D01*
X025772Y029443D02*
X025972Y029443D01*
X025972Y029451D02*
X025772Y029451D01*
X025772Y029460D02*
X025972Y029460D01*
X025972Y029468D02*
X025772Y029468D01*
X025772Y029477D02*
X025972Y029477D01*
X025972Y029485D02*
X025772Y029485D01*
X025772Y029494D02*
X025972Y029494D01*
X025972Y029502D02*
X025772Y029502D01*
X025772Y029511D02*
X025972Y029511D01*
X025972Y029519D02*
X025772Y029519D01*
X025772Y029528D02*
X025972Y029528D01*
X025972Y029536D02*
X025772Y029536D01*
X025772Y029545D02*
X025972Y029545D01*
X025972Y029553D02*
X025772Y029553D01*
X025772Y029562D02*
X025972Y029562D01*
X025972Y029570D02*
X025772Y029570D01*
X025772Y029579D02*
X025972Y029579D01*
X025972Y029587D02*
X025772Y029587D01*
X025772Y029596D02*
X025972Y029596D01*
X025972Y029604D02*
X025772Y029604D01*
X025772Y029613D02*
X025972Y029613D01*
X025972Y029621D02*
X025772Y029621D01*
X025772Y029630D02*
X025972Y029630D01*
X025972Y029638D02*
X025772Y029638D01*
X025772Y029647D02*
X025972Y029647D01*
X025972Y029655D02*
X025772Y029655D01*
X025772Y029664D02*
X025972Y029664D01*
X025972Y029672D02*
X025772Y029672D01*
X025772Y029681D02*
X025972Y029681D01*
X025972Y029689D02*
X025772Y029689D01*
X025772Y029698D02*
X025972Y029698D01*
X025972Y029706D02*
X025772Y029706D01*
X025772Y029715D02*
X025972Y029715D01*
X025972Y029723D02*
X025772Y029723D01*
X025772Y029732D02*
X025972Y029732D01*
X025972Y029740D02*
X025772Y029740D01*
X025772Y029749D02*
X025972Y029749D01*
X025972Y029757D02*
X025772Y029757D01*
X025772Y029766D02*
X025972Y029766D01*
X025972Y029774D02*
X025772Y029774D01*
X025772Y029783D02*
X025972Y029783D01*
X025972Y029791D02*
X025772Y029791D01*
X025772Y029800D02*
X025972Y029800D01*
X025972Y029808D02*
X025772Y029808D01*
X025772Y029817D02*
X025972Y029817D01*
X025972Y029825D02*
X025772Y029825D01*
X025772Y029834D02*
X025972Y029834D01*
X025972Y029842D02*
X025772Y029842D01*
X025772Y029851D02*
X025972Y029851D01*
X025972Y029859D02*
X025772Y029859D01*
X025772Y029868D02*
X025972Y029868D01*
X025972Y029876D02*
X025772Y029876D01*
X025772Y029885D02*
X025972Y029885D01*
X025972Y029893D02*
X025772Y029893D01*
X025772Y029902D02*
X025972Y029902D01*
X025972Y029910D02*
X025772Y029910D01*
X025772Y029919D02*
X025972Y029919D01*
X025972Y029927D02*
X025772Y029927D01*
X025772Y029936D02*
X025972Y029936D01*
X025972Y029944D02*
X025772Y029944D01*
X025772Y029953D02*
X025972Y029953D01*
X025972Y029961D02*
X025772Y029961D01*
X025772Y029970D02*
X025972Y029970D01*
X025972Y029978D02*
X025772Y029978D01*
X025772Y029987D02*
X025972Y029987D01*
X025972Y029995D02*
X025772Y029995D01*
X025772Y030004D02*
X025972Y030004D01*
X025972Y030012D02*
X025772Y030012D01*
X025772Y030021D02*
X025972Y030021D01*
X025972Y030029D02*
X025772Y030029D01*
X025772Y030038D02*
X025972Y030038D01*
X025972Y030046D02*
X025772Y030046D01*
X025772Y030055D02*
X025972Y030055D01*
X025972Y030063D02*
X025772Y030063D01*
X025772Y030072D02*
X025972Y030072D01*
X025972Y030080D02*
X025772Y030080D01*
X025772Y030089D02*
X025972Y030089D01*
X025972Y030097D02*
X025772Y030097D01*
X025772Y030106D02*
X025972Y030106D01*
X025972Y030114D02*
X025772Y030114D01*
X025772Y030123D02*
X025972Y030123D01*
X025972Y030131D02*
X025772Y030131D01*
X025772Y030140D02*
X025972Y030140D01*
X025972Y030148D02*
X025772Y030148D01*
X025772Y030157D02*
X025972Y030157D01*
X025972Y030165D02*
X025772Y030165D01*
X025772Y030174D02*
X025972Y030174D01*
X025972Y030182D02*
X025772Y030182D01*
X025772Y030191D02*
X025972Y030191D01*
X025972Y030199D02*
X025772Y030199D01*
X025772Y030208D02*
X025972Y030208D01*
X025972Y030216D02*
X025772Y030216D01*
X025772Y030225D02*
X025972Y030225D01*
X025972Y030233D02*
X025772Y030233D01*
X025772Y030242D02*
X025972Y030242D01*
X025972Y030250D02*
X025772Y030250D01*
X025772Y030259D02*
X025972Y030259D01*
X025972Y030267D02*
X025772Y030267D01*
X025772Y030276D02*
X025972Y030276D01*
X025972Y030284D02*
X025772Y030284D01*
X025772Y030293D02*
X025972Y030293D01*
X025972Y030301D02*
X025772Y030301D01*
X025772Y030310D02*
X025972Y030310D01*
X025972Y030318D02*
X025772Y030318D01*
X025772Y030327D02*
X025972Y030327D01*
X025972Y030335D02*
X025772Y030335D01*
X025772Y030344D02*
X025972Y030344D01*
X025972Y030352D02*
X025772Y030352D01*
X025772Y030361D02*
X025972Y030361D01*
X025972Y030369D02*
X025772Y030369D01*
X025772Y030378D02*
X025972Y030378D01*
X025972Y030386D02*
X025772Y030386D01*
X025772Y030395D02*
X025972Y030395D01*
X025972Y030403D02*
X025772Y030403D01*
X025772Y030412D02*
X025972Y030412D01*
X025972Y030420D02*
X025772Y030420D01*
X025772Y030429D02*
X025972Y030429D01*
X025972Y030437D02*
X025772Y030437D01*
X025772Y030446D02*
X025972Y030446D01*
X025972Y030454D02*
X025772Y030454D01*
X025772Y030463D02*
X025972Y030463D01*
X025972Y030471D02*
X025772Y030471D01*
X025772Y030480D02*
X025972Y030480D01*
X025972Y030488D02*
X025772Y030488D01*
X025772Y030497D02*
X025972Y030497D01*
X025972Y030505D02*
X025772Y030505D01*
X025772Y030514D02*
X025972Y030514D01*
X025972Y030522D02*
X025772Y030522D01*
X025772Y030531D02*
X025972Y030531D01*
X025972Y030539D02*
X025772Y030539D01*
X025772Y030548D02*
X025972Y030548D01*
X025972Y030556D02*
X025772Y030556D01*
X025772Y030565D02*
X025972Y030565D01*
X025972Y030573D02*
X025772Y030573D01*
X025772Y030582D02*
X025972Y030582D01*
X025972Y030590D02*
X025772Y030590D01*
X025772Y030599D02*
X025972Y030599D01*
X025972Y030607D02*
X025772Y030607D01*
X025772Y030616D02*
X025972Y030616D01*
X025972Y030624D02*
X025772Y030624D01*
X025772Y030633D02*
X025972Y030633D01*
X025972Y030641D02*
X025772Y030641D01*
X025772Y030650D02*
X025972Y030650D01*
X025972Y030658D02*
X025772Y030658D01*
X025772Y030667D02*
X025972Y030667D01*
X025972Y030675D02*
X025772Y030675D01*
X025772Y030684D02*
X025972Y030684D01*
X025972Y030692D02*
X025772Y030692D01*
X025772Y030701D02*
X025972Y030701D01*
X025972Y030709D02*
X025772Y030709D01*
X025772Y030718D02*
X025972Y030718D01*
X025972Y030726D02*
X025772Y030726D01*
X025772Y030735D02*
X025972Y030735D01*
X025972Y030743D02*
X025772Y030743D01*
X025772Y030752D02*
X025972Y030752D01*
X025972Y030760D02*
X025772Y030760D01*
X025772Y030769D02*
X025972Y030769D01*
X025972Y030777D02*
X025772Y030777D01*
X025772Y030786D02*
X025972Y030786D01*
X025972Y030794D02*
X025772Y030794D01*
X025772Y030803D02*
X025972Y030803D01*
X025972Y030811D02*
X025772Y030811D01*
X025772Y030820D02*
X025972Y030820D01*
X025972Y030828D02*
X025772Y030828D01*
X025772Y030837D02*
X025972Y030837D01*
X025972Y030845D02*
X025772Y030845D01*
X025772Y030854D02*
X025972Y030854D01*
X025972Y030862D02*
X025772Y030862D01*
X025772Y030871D02*
X025972Y030871D01*
X025972Y030879D02*
X025772Y030879D01*
X025772Y030888D02*
X025972Y030888D01*
X025972Y030896D02*
X025772Y030896D01*
X025772Y030905D02*
X025972Y030905D01*
X025972Y030913D02*
X025772Y030913D01*
X025772Y030922D02*
X025972Y030922D01*
X025972Y030930D02*
X025772Y030930D01*
X025772Y030939D02*
X025972Y030939D01*
X025972Y030947D02*
X025772Y030947D01*
X025772Y030956D02*
X025972Y030956D01*
X025972Y030964D02*
X025772Y030964D01*
X025772Y030973D02*
X025972Y030973D01*
X025972Y030981D02*
X025772Y030981D01*
X025772Y030990D02*
X025972Y030990D01*
X025972Y030998D02*
X025772Y030998D01*
X025772Y031007D02*
X025972Y031007D01*
X025972Y031015D02*
X025772Y031015D01*
X025772Y031024D02*
X025972Y031024D01*
X025972Y031032D02*
X025772Y031032D01*
X025772Y031041D02*
X025972Y031041D01*
X025972Y031049D02*
X025772Y031049D01*
X025772Y031058D02*
X025972Y031058D01*
X025972Y031066D02*
X025772Y031066D01*
X025772Y031075D02*
X025972Y031075D01*
X025972Y031083D02*
X025772Y031083D01*
X025772Y031092D02*
X025972Y031092D01*
X025972Y031100D02*
X025772Y031100D01*
X025772Y031109D02*
X025972Y031109D01*
X025972Y031117D02*
X025772Y031117D01*
X025772Y031126D02*
X025972Y031126D01*
X025972Y031134D02*
X025772Y031134D01*
X025772Y031143D02*
X025972Y031143D01*
X025972Y031151D02*
X025772Y031151D01*
X025772Y031160D02*
X025972Y031160D01*
X025972Y031168D02*
X025772Y031168D01*
X025772Y031177D02*
X025972Y031177D01*
X025972Y031185D02*
X025772Y031185D01*
X025772Y031194D02*
X025972Y031194D01*
X025972Y031202D02*
X025772Y031202D01*
X025772Y031211D02*
X025972Y031211D01*
X025972Y031219D02*
X025772Y031219D01*
X025772Y031228D02*
X025972Y031228D01*
X025972Y031236D02*
X025772Y031236D01*
X025772Y031245D02*
X025972Y031245D01*
X025972Y031253D02*
X025772Y031253D01*
X025772Y031262D02*
X025972Y031262D01*
X025972Y031270D02*
X025772Y031270D01*
X025772Y031279D02*
X025972Y031279D01*
X025972Y031287D02*
X025772Y031287D01*
X025772Y031296D02*
X025972Y031296D01*
X025972Y031304D02*
X025772Y031304D01*
X025772Y031313D02*
X025972Y031313D01*
X025972Y031321D02*
X025772Y031321D01*
X025772Y031330D02*
X025972Y031330D01*
X025972Y031338D02*
X025772Y031338D01*
X026072Y031338D02*
X026212Y031338D01*
X026212Y031340D02*
X026271Y031223D01*
X026315Y031099D01*
X026342Y030971D01*
X026352Y030840D01*
X026342Y030709D01*
X026315Y030581D01*
X026271Y030457D01*
X026212Y030340D01*
X026082Y030340D01*
X026082Y030410D01*
X026129Y030507D01*
X026163Y030608D01*
X026184Y030713D01*
X026191Y030820D01*
X026350Y030820D01*
X026351Y030828D02*
X026191Y030828D01*
X026191Y030820D02*
X026191Y030860D01*
X026183Y030970D01*
X026159Y031078D01*
X026122Y031182D01*
X026072Y031280D01*
X026072Y031340D01*
X026212Y031340D01*
X026217Y031330D02*
X026072Y031330D01*
X026072Y031321D02*
X026221Y031321D01*
X026225Y031313D02*
X026072Y031313D01*
X026072Y031304D02*
X026230Y031304D01*
X026234Y031296D02*
X026072Y031296D01*
X026072Y031287D02*
X026238Y031287D01*
X026243Y031279D02*
X026073Y031279D01*
X026077Y031270D02*
X026247Y031270D01*
X026251Y031262D02*
X026081Y031262D01*
X026086Y031253D02*
X026256Y031253D01*
X026260Y031245D02*
X026090Y031245D01*
X026094Y031236D02*
X026264Y031236D01*
X026269Y031228D02*
X026099Y031228D01*
X026103Y031219D02*
X026272Y031219D01*
X026275Y031211D02*
X026107Y031211D01*
X026112Y031202D02*
X026278Y031202D01*
X026281Y031194D02*
X026116Y031194D01*
X026121Y031185D02*
X026284Y031185D01*
X026287Y031177D02*
X026124Y031177D01*
X026127Y031168D02*
X026290Y031168D01*
X026293Y031160D02*
X026130Y031160D01*
X026133Y031151D02*
X026296Y031151D01*
X026299Y031143D02*
X026136Y031143D01*
X026139Y031134D02*
X026302Y031134D01*
X026305Y031126D02*
X026142Y031126D01*
X026145Y031117D02*
X026308Y031117D01*
X026311Y031109D02*
X026148Y031109D01*
X026151Y031100D02*
X026314Y031100D01*
X026316Y031092D02*
X026155Y031092D01*
X026158Y031083D02*
X026318Y031083D01*
X026320Y031075D02*
X026160Y031075D01*
X026162Y031066D02*
X026322Y031066D01*
X026323Y031058D02*
X026164Y031058D01*
X026166Y031049D02*
X026325Y031049D01*
X026327Y031041D02*
X026167Y031041D01*
X026169Y031032D02*
X026329Y031032D01*
X026331Y031024D02*
X026171Y031024D01*
X026173Y031015D02*
X026332Y031015D01*
X026334Y031007D02*
X026175Y031007D01*
X026177Y030998D02*
X026336Y030998D01*
X026338Y030990D02*
X026178Y030990D01*
X026180Y030981D02*
X026340Y030981D01*
X026341Y030973D02*
X026182Y030973D01*
X026183Y030964D02*
X026342Y030964D01*
X026343Y030956D02*
X026184Y030956D01*
X026184Y030947D02*
X026344Y030947D01*
X026344Y030939D02*
X026185Y030939D01*
X026186Y030930D02*
X026345Y030930D01*
X026345Y030922D02*
X026187Y030922D01*
X026187Y030913D02*
X026346Y030913D01*
X026347Y030905D02*
X026188Y030905D01*
X026189Y030896D02*
X026347Y030896D01*
X026348Y030888D02*
X026189Y030888D01*
X026190Y030879D02*
X026349Y030879D01*
X026349Y030871D02*
X026191Y030871D01*
X026191Y030862D02*
X026350Y030862D01*
X026351Y030854D02*
X026191Y030854D01*
X026191Y030845D02*
X026351Y030845D01*
X026351Y030837D02*
X026191Y030837D01*
X026191Y030811D02*
X026350Y030811D01*
X026349Y030803D02*
X026190Y030803D01*
X026190Y030794D02*
X026348Y030794D01*
X026348Y030786D02*
X026189Y030786D01*
X026188Y030777D02*
X026347Y030777D01*
X026346Y030769D02*
X026188Y030769D01*
X026187Y030760D02*
X026346Y030760D01*
X026345Y030752D02*
X026187Y030752D01*
X026186Y030743D02*
X026344Y030743D01*
X026344Y030735D02*
X026185Y030735D01*
X026185Y030726D02*
X026343Y030726D01*
X026342Y030718D02*
X026184Y030718D01*
X026183Y030709D02*
X026342Y030709D01*
X026340Y030701D02*
X026181Y030701D01*
X026180Y030692D02*
X026338Y030692D01*
X026336Y030684D02*
X026178Y030684D01*
X026176Y030675D02*
X026335Y030675D01*
X026333Y030667D02*
X026175Y030667D01*
X026173Y030658D02*
X026331Y030658D01*
X026329Y030650D02*
X026171Y030650D01*
X026170Y030641D02*
X026327Y030641D01*
X026326Y030633D02*
X026168Y030633D01*
X026166Y030624D02*
X026324Y030624D01*
X026322Y030616D02*
X026164Y030616D01*
X026163Y030607D02*
X026320Y030607D01*
X026318Y030599D02*
X026160Y030599D01*
X026157Y030590D02*
X026317Y030590D01*
X026315Y030582D02*
X026154Y030582D01*
X026151Y030573D02*
X026312Y030573D01*
X026309Y030565D02*
X026148Y030565D01*
X026145Y030556D02*
X026306Y030556D01*
X026303Y030548D02*
X026143Y030548D01*
X026140Y030539D02*
X026300Y030539D01*
X026297Y030531D02*
X026137Y030531D01*
X026134Y030522D02*
X026294Y030522D01*
X026291Y030514D02*
X026131Y030514D01*
X026128Y030505D02*
X026288Y030505D01*
X026285Y030497D02*
X026124Y030497D01*
X026120Y030488D02*
X026282Y030488D01*
X026279Y030480D02*
X026116Y030480D01*
X026111Y030471D02*
X026276Y030471D01*
X026273Y030463D02*
X026107Y030463D01*
X026103Y030454D02*
X026270Y030454D01*
X026265Y030446D02*
X026099Y030446D01*
X026095Y030437D02*
X026261Y030437D01*
X026257Y030429D02*
X026091Y030429D01*
X026087Y030420D02*
X026252Y030420D01*
X026248Y030412D02*
X026082Y030412D01*
X026082Y030403D02*
X026244Y030403D01*
X026239Y030395D02*
X026082Y030395D01*
X026082Y030386D02*
X026235Y030386D01*
X026231Y030378D02*
X026082Y030378D01*
X026082Y030369D02*
X026226Y030369D01*
X026222Y030361D02*
X026082Y030361D01*
X026082Y030352D02*
X026218Y030352D01*
X026213Y030344D02*
X026082Y030344D01*
X026472Y030340D02*
X026486Y030598D01*
X026527Y030852D01*
X026596Y031101D01*
X026691Y031340D01*
X026912Y031340D01*
X026816Y031126D01*
X026744Y030903D01*
X026695Y030673D01*
X026672Y030440D01*
X026872Y030440D01*
X026872Y030240D01*
X026672Y030240D01*
X026672Y029340D01*
X026472Y029340D01*
X026472Y030340D01*
X026472Y030344D02*
X026872Y030344D01*
X026872Y030352D02*
X026472Y030352D01*
X026473Y030361D02*
X026872Y030361D01*
X026872Y030369D02*
X026473Y030369D01*
X026474Y030378D02*
X026872Y030378D01*
X026872Y030386D02*
X026474Y030386D01*
X026475Y030395D02*
X026872Y030395D01*
X026872Y030403D02*
X026475Y030403D01*
X026476Y030412D02*
X026872Y030412D01*
X026872Y030420D02*
X026476Y030420D01*
X026477Y030429D02*
X026872Y030429D01*
X026872Y030437D02*
X026477Y030437D01*
X026477Y030446D02*
X026672Y030446D01*
X026673Y030454D02*
X026478Y030454D01*
X026478Y030463D02*
X026674Y030463D01*
X026675Y030471D02*
X026479Y030471D01*
X026479Y030480D02*
X026676Y030480D01*
X026677Y030488D02*
X026480Y030488D01*
X026480Y030497D02*
X026678Y030497D01*
X026678Y030505D02*
X026481Y030505D01*
X026481Y030514D02*
X026679Y030514D01*
X026680Y030522D02*
X026482Y030522D01*
X026482Y030531D02*
X026681Y030531D01*
X026682Y030539D02*
X026483Y030539D01*
X026483Y030548D02*
X026683Y030548D01*
X026684Y030556D02*
X026483Y030556D01*
X026484Y030565D02*
X026684Y030565D01*
X026685Y030573D02*
X026484Y030573D01*
X026485Y030582D02*
X026686Y030582D01*
X026687Y030590D02*
X026485Y030590D01*
X026486Y030599D02*
X026688Y030599D01*
X026689Y030607D02*
X026487Y030607D01*
X026489Y030616D02*
X026690Y030616D01*
X026690Y030624D02*
X026490Y030624D01*
X026491Y030633D02*
X026691Y030633D01*
X026692Y030641D02*
X026493Y030641D01*
X026494Y030650D02*
X026693Y030650D01*
X026694Y030658D02*
X026496Y030658D01*
X026497Y030667D02*
X026695Y030667D01*
X026696Y030675D02*
X026498Y030675D01*
X026500Y030684D02*
X026698Y030684D01*
X026699Y030692D02*
X026501Y030692D01*
X026503Y030701D02*
X026701Y030701D01*
X026703Y030709D02*
X026504Y030709D01*
X026505Y030718D02*
X026705Y030718D01*
X026706Y030726D02*
X026507Y030726D01*
X026508Y030735D02*
X026708Y030735D01*
X026710Y030743D02*
X026509Y030743D01*
X026511Y030752D02*
X026712Y030752D01*
X026714Y030760D02*
X026512Y030760D01*
X026514Y030769D02*
X026715Y030769D01*
X026717Y030777D02*
X026515Y030777D01*
X026516Y030786D02*
X026719Y030786D01*
X026721Y030794D02*
X026518Y030794D01*
X026519Y030803D02*
X026723Y030803D01*
X026724Y030811D02*
X026521Y030811D01*
X026522Y030820D02*
X026726Y030820D01*
X026728Y030828D02*
X026523Y030828D01*
X026525Y030837D02*
X026730Y030837D01*
X026731Y030845D02*
X026526Y030845D01*
X026528Y030854D02*
X026733Y030854D01*
X026735Y030862D02*
X026530Y030862D01*
X026532Y030871D02*
X026737Y030871D01*
X026739Y030879D02*
X026535Y030879D01*
X026537Y030888D02*
X026740Y030888D01*
X026742Y030896D02*
X026540Y030896D01*
X026542Y030905D02*
X026744Y030905D01*
X026747Y030913D02*
X026544Y030913D01*
X026547Y030922D02*
X026750Y030922D01*
X026752Y030930D02*
X026549Y030930D01*
X026551Y030939D02*
X026755Y030939D01*
X026758Y030947D02*
X026554Y030947D01*
X026556Y030956D02*
X026761Y030956D01*
X026763Y030964D02*
X026558Y030964D01*
X026561Y030973D02*
X026766Y030973D01*
X026769Y030981D02*
X026563Y030981D01*
X026565Y030990D02*
X026772Y030990D01*
X026774Y030998D02*
X026568Y030998D01*
X026570Y031007D02*
X026777Y031007D01*
X026780Y031015D02*
X026573Y031015D01*
X026575Y031024D02*
X026783Y031024D01*
X026786Y031032D02*
X026577Y031032D01*
X026580Y031041D02*
X026788Y031041D01*
X026791Y031049D02*
X026582Y031049D01*
X026584Y031058D02*
X026794Y031058D01*
X026797Y031066D02*
X026587Y031066D01*
X026589Y031075D02*
X026799Y031075D01*
X026802Y031083D02*
X026591Y031083D01*
X026594Y031092D02*
X026805Y031092D01*
X026808Y031100D02*
X026596Y031100D01*
X026599Y031109D02*
X026810Y031109D01*
X026813Y031117D02*
X026603Y031117D01*
X026606Y031126D02*
X026816Y031126D01*
X026820Y031134D02*
X026610Y031134D01*
X026613Y031143D02*
X026823Y031143D01*
X026827Y031151D02*
X026616Y031151D01*
X026620Y031160D02*
X026831Y031160D01*
X026835Y031168D02*
X026623Y031168D01*
X026627Y031177D02*
X026839Y031177D01*
X026842Y031185D02*
X026630Y031185D01*
X026633Y031194D02*
X026846Y031194D01*
X026850Y031202D02*
X026637Y031202D01*
X026640Y031211D02*
X026854Y031211D01*
X026858Y031219D02*
X026643Y031219D01*
X026647Y031228D02*
X026861Y031228D01*
X026865Y031236D02*
X026650Y031236D01*
X026654Y031245D02*
X026869Y031245D01*
X026873Y031253D02*
X026657Y031253D01*
X026660Y031262D02*
X026877Y031262D01*
X026880Y031270D02*
X026664Y031270D01*
X026667Y031279D02*
X026884Y031279D01*
X026888Y031287D02*
X026671Y031287D01*
X026674Y031296D02*
X026892Y031296D01*
X026896Y031304D02*
X026677Y031304D01*
X026681Y031313D02*
X026899Y031313D01*
X026903Y031321D02*
X026684Y031321D01*
X026687Y031330D02*
X026907Y031330D01*
X026911Y031338D02*
X026691Y031338D01*
X027072Y031338D02*
X027272Y031338D01*
X027272Y031340D02*
X027272Y030240D01*
X027295Y030007D01*
X027344Y029777D01*
X027416Y029554D01*
X027512Y029340D01*
X027291Y029340D01*
X027198Y029575D01*
X027130Y029818D01*
X027088Y030068D01*
X027072Y030320D01*
X027072Y031340D01*
X027272Y031340D01*
X027272Y031330D02*
X027072Y031330D01*
X027072Y031321D02*
X027272Y031321D01*
X027272Y031313D02*
X027072Y031313D01*
X027072Y031304D02*
X027272Y031304D01*
X027272Y031296D02*
X027072Y031296D01*
X027072Y031287D02*
X027272Y031287D01*
X027272Y031279D02*
X027072Y031279D01*
X027072Y031270D02*
X027272Y031270D01*
X027272Y031262D02*
X027072Y031262D01*
X027072Y031253D02*
X027272Y031253D01*
X027272Y031245D02*
X027072Y031245D01*
X027072Y031236D02*
X027272Y031236D01*
X027272Y031228D02*
X027072Y031228D01*
X027072Y031219D02*
X027272Y031219D01*
X027272Y031211D02*
X027072Y031211D01*
X027072Y031202D02*
X027272Y031202D01*
X027272Y031194D02*
X027072Y031194D01*
X027072Y031185D02*
X027272Y031185D01*
X027272Y031177D02*
X027072Y031177D01*
X027072Y031168D02*
X027272Y031168D01*
X027272Y031160D02*
X027072Y031160D01*
X027072Y031151D02*
X027272Y031151D01*
X027272Y031143D02*
X027072Y031143D01*
X027072Y031134D02*
X027272Y031134D01*
X027272Y031126D02*
X027072Y031126D01*
X027072Y031117D02*
X027272Y031117D01*
X027272Y031109D02*
X027072Y031109D01*
X027072Y031100D02*
X027272Y031100D01*
X027272Y031092D02*
X027072Y031092D01*
X027072Y031083D02*
X027272Y031083D01*
X027272Y031075D02*
X027072Y031075D01*
X027072Y031066D02*
X027272Y031066D01*
X027272Y031058D02*
X027072Y031058D01*
X027072Y031049D02*
X027272Y031049D01*
X027272Y031041D02*
X027072Y031041D01*
X027072Y031032D02*
X027272Y031032D01*
X027272Y031024D02*
X027072Y031024D01*
X027072Y031015D02*
X027272Y031015D01*
X027272Y031007D02*
X027072Y031007D01*
X027072Y030998D02*
X027272Y030998D01*
X027272Y030990D02*
X027072Y030990D01*
X027072Y030981D02*
X027272Y030981D01*
X027272Y030973D02*
X027072Y030973D01*
X027072Y030964D02*
X027272Y030964D01*
X027272Y030956D02*
X027072Y030956D01*
X027072Y030947D02*
X027272Y030947D01*
X027272Y030939D02*
X027072Y030939D01*
X027072Y030930D02*
X027272Y030930D01*
X027272Y030922D02*
X027072Y030922D01*
X027072Y030913D02*
X027272Y030913D01*
X027272Y030905D02*
X027072Y030905D01*
X027072Y030896D02*
X027272Y030896D01*
X027272Y030888D02*
X027072Y030888D01*
X027072Y030879D02*
X027272Y030879D01*
X027272Y030871D02*
X027072Y030871D01*
X027072Y030862D02*
X027272Y030862D01*
X027272Y030854D02*
X027072Y030854D01*
X027072Y030845D02*
X027272Y030845D01*
X027272Y030837D02*
X027072Y030837D01*
X027072Y030828D02*
X027272Y030828D01*
X027272Y030820D02*
X027072Y030820D01*
X027072Y030811D02*
X027272Y030811D01*
X027272Y030803D02*
X027072Y030803D01*
X027072Y030794D02*
X027272Y030794D01*
X027272Y030786D02*
X027072Y030786D01*
X027072Y030777D02*
X027272Y030777D01*
X027272Y030769D02*
X027072Y030769D01*
X027072Y030760D02*
X027272Y030760D01*
X027272Y030752D02*
X027072Y030752D01*
X027072Y030743D02*
X027272Y030743D01*
X027272Y030735D02*
X027072Y030735D01*
X027072Y030726D02*
X027272Y030726D01*
X027272Y030718D02*
X027072Y030718D01*
X027072Y030709D02*
X027272Y030709D01*
X027272Y030701D02*
X027072Y030701D01*
X027072Y030692D02*
X027272Y030692D01*
X027272Y030684D02*
X027072Y030684D01*
X027072Y030675D02*
X027272Y030675D01*
X027272Y030667D02*
X027072Y030667D01*
X027072Y030658D02*
X027272Y030658D01*
X027272Y030650D02*
X027072Y030650D01*
X027072Y030641D02*
X027272Y030641D01*
X027272Y030633D02*
X027072Y030633D01*
X027072Y030624D02*
X027272Y030624D01*
X027272Y030616D02*
X027072Y030616D01*
X027072Y030607D02*
X027272Y030607D01*
X027272Y030599D02*
X027072Y030599D01*
X027072Y030590D02*
X027272Y030590D01*
X027272Y030582D02*
X027072Y030582D01*
X027072Y030573D02*
X027272Y030573D01*
X027272Y030565D02*
X027072Y030565D01*
X027072Y030556D02*
X027272Y030556D01*
X027272Y030548D02*
X027072Y030548D01*
X027072Y030539D02*
X027272Y030539D01*
X027272Y030531D02*
X027072Y030531D01*
X027072Y030522D02*
X027272Y030522D01*
X027272Y030514D02*
X027072Y030514D01*
X027072Y030505D02*
X027272Y030505D01*
X027272Y030497D02*
X027072Y030497D01*
X027072Y030488D02*
X027272Y030488D01*
X027272Y030480D02*
X027072Y030480D01*
X027072Y030471D02*
X027272Y030471D01*
X027272Y030463D02*
X027072Y030463D01*
X027072Y030454D02*
X027272Y030454D01*
X027272Y030446D02*
X027072Y030446D01*
X027072Y030437D02*
X027272Y030437D01*
X027272Y030429D02*
X027072Y030429D01*
X027072Y030420D02*
X027272Y030420D01*
X027272Y030412D02*
X027072Y030412D01*
X027072Y030403D02*
X027272Y030403D01*
X027272Y030395D02*
X027072Y030395D01*
X027072Y030386D02*
X027272Y030386D01*
X027272Y030378D02*
X027072Y030378D01*
X027072Y030369D02*
X027272Y030369D01*
X027272Y030361D02*
X027072Y030361D01*
X027072Y030352D02*
X027272Y030352D01*
X027272Y030344D02*
X027072Y030344D01*
X027072Y030335D02*
X027272Y030335D01*
X027272Y030327D02*
X027072Y030327D01*
X027072Y030318D02*
X027272Y030318D01*
X027272Y030310D02*
X027072Y030310D01*
X027073Y030301D02*
X027272Y030301D01*
X027272Y030293D02*
X027074Y030293D01*
X027074Y030284D02*
X027272Y030284D01*
X027272Y030276D02*
X027075Y030276D01*
X027075Y030267D02*
X027272Y030267D01*
X027272Y030259D02*
X027076Y030259D01*
X027076Y030250D02*
X027272Y030250D01*
X027272Y030242D02*
X027077Y030242D01*
X027077Y030233D02*
X027272Y030233D01*
X027273Y030225D02*
X027078Y030225D01*
X027078Y030216D02*
X027274Y030216D01*
X027275Y030208D02*
X027079Y030208D01*
X027079Y030199D02*
X027276Y030199D01*
X027277Y030191D02*
X027080Y030191D01*
X027080Y030182D02*
X027278Y030182D01*
X027278Y030174D02*
X027081Y030174D01*
X027081Y030165D02*
X027279Y030165D01*
X027280Y030157D02*
X027082Y030157D01*
X027083Y030148D02*
X027281Y030148D01*
X027282Y030140D02*
X027083Y030140D01*
X027084Y030131D02*
X027283Y030131D01*
X027284Y030123D02*
X027084Y030123D01*
X027085Y030114D02*
X027284Y030114D01*
X027285Y030106D02*
X027085Y030106D01*
X027086Y030097D02*
X027286Y030097D01*
X027287Y030089D02*
X027086Y030089D01*
X027087Y030080D02*
X027288Y030080D01*
X027289Y030072D02*
X027087Y030072D01*
X027088Y030063D02*
X027290Y030063D01*
X027290Y030055D02*
X027090Y030055D01*
X027091Y030046D02*
X027291Y030046D01*
X027292Y030038D02*
X027093Y030038D01*
X027094Y030029D02*
X027293Y030029D01*
X027294Y030021D02*
X027096Y030021D01*
X027097Y030012D02*
X027295Y030012D01*
X027296Y030004D02*
X027098Y030004D01*
X027100Y029995D02*
X027298Y029995D01*
X027300Y029987D02*
X027101Y029987D01*
X027103Y029978D02*
X027301Y029978D01*
X027303Y029970D02*
X027104Y029970D01*
X027106Y029961D02*
X027305Y029961D01*
X027307Y029953D02*
X027107Y029953D01*
X027108Y029944D02*
X027308Y029944D01*
X027310Y029936D02*
X027110Y029936D01*
X027111Y029927D02*
X027312Y029927D01*
X027314Y029919D02*
X027113Y029919D01*
X027114Y029910D02*
X027316Y029910D01*
X027317Y029902D02*
X027116Y029902D01*
X027117Y029893D02*
X027319Y029893D01*
X027321Y029885D02*
X027119Y029885D01*
X027120Y029876D02*
X027323Y029876D01*
X027325Y029868D02*
X027121Y029868D01*
X027123Y029859D02*
X027326Y029859D01*
X027328Y029851D02*
X027124Y029851D01*
X027126Y029842D02*
X027330Y029842D01*
X027332Y029834D02*
X027127Y029834D01*
X027129Y029825D02*
X027333Y029825D01*
X027335Y029817D02*
X027130Y029817D01*
X027133Y029808D02*
X027337Y029808D01*
X027339Y029800D02*
X027135Y029800D01*
X027137Y029791D02*
X027341Y029791D01*
X027342Y029783D02*
X027140Y029783D01*
X027142Y029774D02*
X027344Y029774D01*
X027347Y029766D02*
X027145Y029766D01*
X027147Y029757D02*
X027350Y029757D01*
X027353Y029749D02*
X027149Y029749D01*
X027152Y029740D02*
X027356Y029740D01*
X027358Y029732D02*
X027154Y029732D01*
X027156Y029723D02*
X027361Y029723D01*
X027364Y029715D02*
X027159Y029715D01*
X027161Y029706D02*
X027367Y029706D01*
X027369Y029698D02*
X027164Y029698D01*
X027166Y029689D02*
X027372Y029689D01*
X027375Y029681D02*
X027168Y029681D01*
X027171Y029672D02*
X027378Y029672D01*
X027380Y029664D02*
X027173Y029664D01*
X027176Y029655D02*
X027383Y029655D01*
X027386Y029647D02*
X027178Y029647D01*
X027180Y029638D02*
X027389Y029638D01*
X027391Y029630D02*
X027183Y029630D01*
X027185Y029621D02*
X027394Y029621D01*
X027397Y029613D02*
X027187Y029613D01*
X027190Y029604D02*
X027400Y029604D01*
X027402Y029596D02*
X027192Y029596D01*
X027195Y029587D02*
X027405Y029587D01*
X027408Y029579D02*
X027197Y029579D01*
X027200Y029570D02*
X027411Y029570D01*
X027413Y029562D02*
X027203Y029562D01*
X027207Y029553D02*
X027416Y029553D01*
X027420Y029545D02*
X027210Y029545D01*
X027213Y029536D02*
X027424Y029536D01*
X027428Y029528D02*
X027217Y029528D01*
X027220Y029519D02*
X027431Y029519D01*
X027435Y029511D02*
X027224Y029511D01*
X027227Y029502D02*
X027439Y029502D01*
X027443Y029494D02*
X027230Y029494D01*
X027234Y029485D02*
X027447Y029485D01*
X027450Y029477D02*
X027237Y029477D01*
X027240Y029468D02*
X027454Y029468D01*
X027458Y029460D02*
X027244Y029460D01*
X027247Y029451D02*
X027462Y029451D01*
X027466Y029443D02*
X027251Y029443D01*
X027254Y029434D02*
X027469Y029434D01*
X027473Y029426D02*
X027257Y029426D01*
X027261Y029417D02*
X027477Y029417D01*
X027481Y029409D02*
X027264Y029409D01*
X027268Y029400D02*
X027485Y029400D01*
X027488Y029392D02*
X027271Y029392D01*
X027274Y029383D02*
X027492Y029383D01*
X027496Y029375D02*
X027278Y029375D01*
X027281Y029366D02*
X027500Y029366D01*
X027504Y029358D02*
X027284Y029358D01*
X027288Y029349D02*
X027507Y029349D01*
X027511Y029341D02*
X027291Y029341D01*
X027677Y029511D02*
X028332Y029511D01*
X028332Y029519D02*
X027673Y029519D01*
X027669Y029528D02*
X028332Y029528D01*
X028332Y029536D02*
X027666Y029536D01*
X027662Y029545D02*
X028332Y029545D01*
X028332Y029553D02*
X027658Y029553D01*
X027654Y029562D02*
X028332Y029562D01*
X028332Y029570D02*
X027651Y029570D01*
X027649Y029573D02*
X027575Y029816D01*
X027529Y030066D01*
X027512Y030320D01*
X027512Y031340D01*
X028332Y031340D01*
X028332Y029340D01*
X027752Y029340D01*
X027649Y029573D01*
X027648Y029579D02*
X028332Y029579D01*
X028332Y029587D02*
X027645Y029587D01*
X027642Y029596D02*
X028332Y029596D01*
X028332Y029604D02*
X027640Y029604D01*
X027637Y029613D02*
X028332Y029613D01*
X028332Y029621D02*
X027635Y029621D01*
X027632Y029630D02*
X028332Y029630D01*
X028332Y029638D02*
X027629Y029638D01*
X027627Y029647D02*
X028332Y029647D01*
X028332Y029655D02*
X027624Y029655D01*
X027622Y029664D02*
X028332Y029664D01*
X028332Y029672D02*
X027619Y029672D01*
X027616Y029681D02*
X028332Y029681D01*
X028332Y029689D02*
X027614Y029689D01*
X027611Y029698D02*
X028332Y029698D01*
X028332Y029706D02*
X027608Y029706D01*
X027606Y029715D02*
X028332Y029715D01*
X028332Y029723D02*
X027603Y029723D01*
X027601Y029732D02*
X028332Y029732D01*
X028332Y029740D02*
X027598Y029740D01*
X027595Y029749D02*
X028332Y029749D01*
X028332Y029757D02*
X027593Y029757D01*
X027590Y029766D02*
X028332Y029766D01*
X028332Y029774D02*
X027588Y029774D01*
X027585Y029783D02*
X028332Y029783D01*
X028332Y029791D02*
X027582Y029791D01*
X027580Y029800D02*
X028332Y029800D01*
X028332Y029808D02*
X027577Y029808D01*
X027575Y029817D02*
X028332Y029817D01*
X028332Y029825D02*
X027573Y029825D01*
X027571Y029834D02*
X028332Y029834D01*
X028332Y029842D02*
X027570Y029842D01*
X027568Y029851D02*
X028332Y029851D01*
X028332Y029859D02*
X027567Y029859D01*
X027565Y029868D02*
X028332Y029868D01*
X028332Y029876D02*
X027564Y029876D01*
X027562Y029885D02*
X028332Y029885D01*
X028332Y029893D02*
X027560Y029893D01*
X027559Y029902D02*
X028332Y029902D01*
X028332Y029910D02*
X027557Y029910D01*
X027556Y029919D02*
X028332Y029919D01*
X028332Y029927D02*
X027554Y029927D01*
X027553Y029936D02*
X028332Y029936D01*
X028332Y029944D02*
X027551Y029944D01*
X027549Y029953D02*
X028332Y029953D01*
X028332Y029961D02*
X027548Y029961D01*
X027546Y029970D02*
X028332Y029970D01*
X028332Y029978D02*
X027545Y029978D01*
X027543Y029987D02*
X028332Y029987D01*
X028332Y029995D02*
X027542Y029995D01*
X027540Y030004D02*
X028332Y030004D01*
X028332Y030012D02*
X027539Y030012D01*
X027537Y030021D02*
X028332Y030021D01*
X028332Y030029D02*
X027535Y030029D01*
X027534Y030038D02*
X028332Y030038D01*
X028332Y030046D02*
X027532Y030046D01*
X027531Y030055D02*
X028332Y030055D01*
X028332Y030063D02*
X027529Y030063D01*
X027528Y030072D02*
X028332Y030072D01*
X028332Y030080D02*
X027528Y030080D01*
X027527Y030089D02*
X028332Y030089D01*
X028332Y030097D02*
X027526Y030097D01*
X027526Y030106D02*
X028332Y030106D01*
X028332Y030114D02*
X027525Y030114D01*
X027525Y030123D02*
X028332Y030123D01*
X028332Y030131D02*
X027524Y030131D01*
X027524Y030140D02*
X028332Y030140D01*
X028332Y030148D02*
X027523Y030148D01*
X027522Y030157D02*
X028332Y030157D01*
X028332Y030165D02*
X027522Y030165D01*
X027521Y030174D02*
X028332Y030174D01*
X028332Y030182D02*
X027521Y030182D01*
X027520Y030191D02*
X028332Y030191D01*
X028332Y030199D02*
X027520Y030199D01*
X027519Y030208D02*
X028332Y030208D01*
X028332Y030216D02*
X027519Y030216D01*
X027518Y030225D02*
X028332Y030225D01*
X028332Y030233D02*
X027517Y030233D01*
X027517Y030242D02*
X028332Y030242D01*
X028332Y030250D02*
X027516Y030250D01*
X027516Y030259D02*
X028332Y030259D01*
X028332Y030267D02*
X027515Y030267D01*
X027515Y030276D02*
X028332Y030276D01*
X028332Y030284D02*
X027514Y030284D01*
X027513Y030293D02*
X028332Y030293D01*
X028332Y030301D02*
X027513Y030301D01*
X027512Y030310D02*
X028332Y030310D01*
X028332Y030318D02*
X027512Y030318D01*
X027512Y030327D02*
X028332Y030327D01*
X028332Y030335D02*
X027512Y030335D01*
X027512Y030344D02*
X028332Y030344D01*
X028332Y030352D02*
X027512Y030352D01*
X027512Y030361D02*
X028332Y030361D01*
X028332Y030369D02*
X027512Y030369D01*
X027512Y030378D02*
X028332Y030378D01*
X028332Y030386D02*
X027512Y030386D01*
X027512Y030395D02*
X028332Y030395D01*
X028332Y030403D02*
X027512Y030403D01*
X027512Y030412D02*
X028332Y030412D01*
X028332Y030420D02*
X027512Y030420D01*
X027512Y030429D02*
X028332Y030429D01*
X028332Y030437D02*
X027512Y030437D01*
X027512Y030446D02*
X028332Y030446D01*
X028332Y030454D02*
X027512Y030454D01*
X027512Y030463D02*
X028332Y030463D01*
X028332Y030471D02*
X027512Y030471D01*
X027512Y030480D02*
X028332Y030480D01*
X028332Y030488D02*
X027512Y030488D01*
X027512Y030497D02*
X028332Y030497D01*
X028332Y030505D02*
X027512Y030505D01*
X027512Y030514D02*
X028332Y030514D01*
X028332Y030522D02*
X027512Y030522D01*
X027512Y030531D02*
X028332Y030531D01*
X028332Y030539D02*
X027512Y030539D01*
X027512Y030548D02*
X028332Y030548D01*
X028332Y030556D02*
X027512Y030556D01*
X027512Y030565D02*
X028332Y030565D01*
X028332Y030573D02*
X027512Y030573D01*
X027512Y030582D02*
X028332Y030582D01*
X028332Y030590D02*
X027512Y030590D01*
X027512Y030599D02*
X028332Y030599D01*
X028332Y030607D02*
X027512Y030607D01*
X027512Y030616D02*
X028332Y030616D01*
X028332Y030624D02*
X027512Y030624D01*
X027512Y030633D02*
X028332Y030633D01*
X028332Y030641D02*
X027512Y030641D01*
X027512Y030650D02*
X028332Y030650D01*
X028332Y030658D02*
X027512Y030658D01*
X027512Y030667D02*
X028332Y030667D01*
X028332Y030675D02*
X027512Y030675D01*
X027512Y030684D02*
X028332Y030684D01*
X028332Y030692D02*
X027512Y030692D01*
X027512Y030701D02*
X028332Y030701D01*
X028332Y030709D02*
X027512Y030709D01*
X027512Y030718D02*
X028332Y030718D01*
X028332Y030726D02*
X027512Y030726D01*
X027512Y030735D02*
X028332Y030735D01*
X028332Y030743D02*
X027512Y030743D01*
X027512Y030752D02*
X028332Y030752D01*
X028332Y030760D02*
X027512Y030760D01*
X027512Y030769D02*
X028332Y030769D01*
X028332Y030777D02*
X027512Y030777D01*
X027512Y030786D02*
X028332Y030786D01*
X028332Y030794D02*
X027512Y030794D01*
X027512Y030803D02*
X028332Y030803D01*
X028332Y030811D02*
X027512Y030811D01*
X027512Y030820D02*
X028332Y030820D01*
X028332Y030828D02*
X027512Y030828D01*
X027512Y030837D02*
X028332Y030837D01*
X028332Y030845D02*
X027512Y030845D01*
X027512Y030854D02*
X028332Y030854D01*
X028332Y030862D02*
X027512Y030862D01*
X027512Y030871D02*
X028332Y030871D01*
X028332Y030879D02*
X027512Y030879D01*
X027512Y030888D02*
X028332Y030888D01*
X028332Y030896D02*
X027512Y030896D01*
X027512Y030905D02*
X028332Y030905D01*
X028332Y030913D02*
X027512Y030913D01*
X027512Y030922D02*
X028332Y030922D01*
X028332Y030930D02*
X027512Y030930D01*
X027512Y030939D02*
X028332Y030939D01*
X028332Y030947D02*
X027512Y030947D01*
X027512Y030956D02*
X028332Y030956D01*
X028332Y030964D02*
X027512Y030964D01*
X027512Y030973D02*
X028332Y030973D01*
X028332Y030981D02*
X027512Y030981D01*
X027512Y030990D02*
X028332Y030990D01*
X028332Y030998D02*
X027512Y030998D01*
X027512Y031007D02*
X028332Y031007D01*
X028332Y031015D02*
X027512Y031015D01*
X027512Y031024D02*
X028332Y031024D01*
X028332Y031032D02*
X027512Y031032D01*
X027512Y031041D02*
X028332Y031041D01*
X028332Y031049D02*
X027512Y031049D01*
X027512Y031058D02*
X028332Y031058D01*
X028332Y031066D02*
X027512Y031066D01*
X027512Y031075D02*
X028332Y031075D01*
X028332Y031083D02*
X027512Y031083D01*
X027512Y031092D02*
X028332Y031092D01*
X028332Y031100D02*
X027512Y031100D01*
X027512Y031109D02*
X028332Y031109D01*
X028332Y031117D02*
X027512Y031117D01*
X027512Y031126D02*
X028332Y031126D01*
X028332Y031134D02*
X027512Y031134D01*
X027512Y031143D02*
X028332Y031143D01*
X028332Y031151D02*
X027512Y031151D01*
X027512Y031160D02*
X028332Y031160D01*
X028332Y031168D02*
X027512Y031168D01*
X027512Y031177D02*
X028332Y031177D01*
X028332Y031185D02*
X027512Y031185D01*
X027512Y031194D02*
X028332Y031194D01*
X028332Y031202D02*
X027512Y031202D01*
X027512Y031211D02*
X028332Y031211D01*
X028332Y031219D02*
X027512Y031219D01*
X027512Y031228D02*
X028332Y031228D01*
X028332Y031236D02*
X027512Y031236D01*
X027512Y031245D02*
X028332Y031245D01*
X028332Y031253D02*
X027512Y031253D01*
X027512Y031262D02*
X028332Y031262D01*
X028332Y031270D02*
X027512Y031270D01*
X027512Y031279D02*
X028332Y031279D01*
X028332Y031287D02*
X027512Y031287D01*
X027512Y031296D02*
X028332Y031296D01*
X028332Y031304D02*
X027512Y031304D01*
X027512Y031313D02*
X028332Y031313D01*
X028332Y031321D02*
X027512Y031321D01*
X027512Y031330D02*
X028332Y031330D01*
X028332Y031338D02*
X027512Y031338D01*
X026872Y030335D02*
X026472Y030335D01*
X026472Y030327D02*
X026872Y030327D01*
X026872Y030318D02*
X026472Y030318D01*
X026472Y030310D02*
X026872Y030310D01*
X026872Y030301D02*
X026472Y030301D01*
X026472Y030293D02*
X026872Y030293D01*
X026872Y030284D02*
X026472Y030284D01*
X026472Y030276D02*
X026872Y030276D01*
X026872Y030267D02*
X026472Y030267D01*
X026472Y030259D02*
X026872Y030259D01*
X026872Y030250D02*
X026472Y030250D01*
X026472Y030242D02*
X026872Y030242D01*
X026672Y030233D02*
X026472Y030233D01*
X026472Y030225D02*
X026672Y030225D01*
X026672Y030216D02*
X026472Y030216D01*
X026472Y030208D02*
X026672Y030208D01*
X026672Y030199D02*
X026472Y030199D01*
X026472Y030191D02*
X026672Y030191D01*
X026672Y030182D02*
X026472Y030182D01*
X026472Y030174D02*
X026672Y030174D01*
X026672Y030165D02*
X026472Y030165D01*
X026472Y030157D02*
X026672Y030157D01*
X026672Y030148D02*
X026472Y030148D01*
X026472Y030140D02*
X026672Y030140D01*
X026672Y030131D02*
X026472Y030131D01*
X026472Y030123D02*
X026672Y030123D01*
X026672Y030114D02*
X026472Y030114D01*
X026472Y030106D02*
X026672Y030106D01*
X026672Y030097D02*
X026472Y030097D01*
X026472Y030089D02*
X026672Y030089D01*
X026672Y030080D02*
X026472Y030080D01*
X026472Y030072D02*
X026672Y030072D01*
X026672Y030063D02*
X026472Y030063D01*
X026472Y030055D02*
X026672Y030055D01*
X026672Y030046D02*
X026472Y030046D01*
X026472Y030038D02*
X026672Y030038D01*
X026672Y030029D02*
X026472Y030029D01*
X026472Y030021D02*
X026672Y030021D01*
X026672Y030012D02*
X026472Y030012D01*
X026472Y030004D02*
X026672Y030004D01*
X026672Y029995D02*
X026472Y029995D01*
X026472Y029987D02*
X026672Y029987D01*
X026672Y029978D02*
X026472Y029978D01*
X026472Y029970D02*
X026672Y029970D01*
X026672Y029961D02*
X026472Y029961D01*
X026472Y029953D02*
X026672Y029953D01*
X026672Y029944D02*
X026472Y029944D01*
X026472Y029936D02*
X026672Y029936D01*
X026672Y029927D02*
X026472Y029927D01*
X026472Y029919D02*
X026672Y029919D01*
X026672Y029910D02*
X026472Y029910D01*
X026472Y029902D02*
X026672Y029902D01*
X026672Y029893D02*
X026472Y029893D01*
X026472Y029885D02*
X026672Y029885D01*
X026672Y029876D02*
X026472Y029876D01*
X026472Y029868D02*
X026672Y029868D01*
X026672Y029859D02*
X026472Y029859D01*
X026472Y029851D02*
X026672Y029851D01*
X026672Y029842D02*
X026472Y029842D01*
X026472Y029834D02*
X026672Y029834D01*
X026672Y029825D02*
X026472Y029825D01*
X026472Y029817D02*
X026672Y029817D01*
X026672Y029808D02*
X026472Y029808D01*
X026472Y029800D02*
X026672Y029800D01*
X026672Y029791D02*
X026472Y029791D01*
X026472Y029783D02*
X026672Y029783D01*
X026672Y029774D02*
X026472Y029774D01*
X026472Y029766D02*
X026672Y029766D01*
X026672Y029757D02*
X026472Y029757D01*
X026472Y029749D02*
X026672Y029749D01*
X026672Y029740D02*
X026472Y029740D01*
X026472Y029732D02*
X026672Y029732D01*
X026672Y029723D02*
X026472Y029723D01*
X026472Y029715D02*
X026672Y029715D01*
X026672Y029706D02*
X026472Y029706D01*
X026472Y029698D02*
X026672Y029698D01*
X026672Y029689D02*
X026472Y029689D01*
X026472Y029681D02*
X026672Y029681D01*
X026672Y029672D02*
X026472Y029672D01*
X026472Y029664D02*
X026672Y029664D01*
X026672Y029655D02*
X026472Y029655D01*
X026472Y029647D02*
X026672Y029647D01*
X026672Y029638D02*
X026472Y029638D01*
X026472Y029630D02*
X026672Y029630D01*
X026672Y029621D02*
X026472Y029621D01*
X026472Y029613D02*
X026672Y029613D01*
X026672Y029604D02*
X026472Y029604D01*
X026472Y029596D02*
X026672Y029596D01*
X026672Y029587D02*
X026472Y029587D01*
X026472Y029579D02*
X026672Y029579D01*
X026672Y029570D02*
X026472Y029570D01*
X026472Y029562D02*
X026672Y029562D01*
X026672Y029553D02*
X026472Y029553D01*
X026472Y029545D02*
X026672Y029545D01*
X026672Y029536D02*
X026472Y029536D01*
X026472Y029528D02*
X026672Y029528D01*
X026672Y029519D02*
X026472Y029519D01*
X026472Y029511D02*
X026672Y029511D01*
X026672Y029502D02*
X026472Y029502D01*
X026472Y029494D02*
X026672Y029494D01*
X026672Y029485D02*
X026472Y029485D01*
X026472Y029477D02*
X026672Y029477D01*
X026672Y029468D02*
X026472Y029468D01*
X026472Y029460D02*
X026672Y029460D01*
X026672Y029451D02*
X026472Y029451D01*
X026472Y029443D02*
X026672Y029443D01*
X026672Y029434D02*
X026472Y029434D01*
X026472Y029426D02*
X026672Y029426D01*
X026672Y029417D02*
X026472Y029417D01*
X026472Y029409D02*
X026672Y029409D01*
X026672Y029400D02*
X026472Y029400D01*
X026472Y029392D02*
X026672Y029392D01*
X026672Y029383D02*
X026472Y029383D01*
X026472Y029375D02*
X026672Y029375D01*
X026672Y029366D02*
X026472Y029366D01*
X026472Y029358D02*
X026672Y029358D01*
X026672Y029349D02*
X026472Y029349D01*
X026472Y029341D02*
X026672Y029341D01*
X027680Y029502D02*
X028332Y029502D01*
X028332Y029494D02*
X027684Y029494D01*
X027688Y029485D02*
X028332Y029485D01*
X028332Y029477D02*
X027692Y029477D01*
X027695Y029468D02*
X028332Y029468D01*
X028332Y029460D02*
X027699Y029460D01*
X027703Y029451D02*
X028332Y029451D01*
X028332Y029443D02*
X027707Y029443D01*
X027710Y029434D02*
X028332Y029434D01*
X028332Y029426D02*
X027714Y029426D01*
X027718Y029417D02*
X028332Y029417D01*
X028332Y029409D02*
X027722Y029409D01*
X027725Y029400D02*
X028332Y029400D01*
X028332Y029392D02*
X027729Y029392D01*
X027733Y029383D02*
X028332Y029383D01*
X028332Y029375D02*
X027736Y029375D01*
X027740Y029366D02*
X028332Y029366D01*
X028332Y029358D02*
X027744Y029358D01*
X027748Y029349D02*
X028332Y029349D01*
X028332Y029341D02*
X027751Y029341D01*
D11*
X026600Y027600D03*
X024100Y027600D03*
X021600Y027600D03*
X019100Y027600D03*
X016600Y027600D03*
X014100Y027600D03*
X011600Y027600D03*
X009100Y027600D03*
X006600Y027600D03*
X006600Y022600D03*
X009100Y022600D03*
X011600Y022600D03*
X014100Y022600D03*
X016600Y022600D03*
X019100Y022600D03*
X021600Y022600D03*
X024100Y022600D03*
X026600Y022600D03*
X029100Y022600D03*
X031600Y022600D03*
X034100Y022600D03*
X034100Y019600D03*
X033100Y019600D03*
X031100Y017600D03*
X030100Y017600D03*
X028100Y017600D03*
X027100Y017600D03*
X024500Y017600D03*
X020700Y017600D03*
X018100Y017600D03*
X017100Y017600D03*
X013700Y017600D03*
X010600Y017600D03*
X009600Y017600D03*
X028600Y010600D03*
X029100Y009850D03*
X029600Y010600D03*
X033100Y015600D03*
X034100Y015600D03*
X039100Y024100D03*
X040100Y024100D03*
X040100Y026100D03*
X039100Y026100D03*
X034100Y027600D03*
X031600Y027600D03*
X029100Y027600D03*
D12*
X023700Y017600D03*
X021500Y017600D03*
X020100Y012100D03*
X020100Y011100D03*
X020100Y010100D03*
X020100Y009100D03*
X017100Y009100D03*
X017100Y010100D03*
X017100Y011100D03*
X017100Y012100D03*
X014600Y012100D03*
X014600Y011100D03*
X014600Y010100D03*
X014600Y009100D03*
X011600Y009100D03*
X011600Y010100D03*
X011600Y011100D03*
X011600Y012100D03*
X014500Y017600D03*
D13*
X021840Y012100D02*
X022360Y012100D01*
X022360Y011100D02*
X021840Y011100D01*
X021840Y010100D02*
X022360Y010100D01*
X022360Y009100D02*
X021840Y009100D01*
X024840Y009100D02*
X025360Y009100D01*
X025360Y010100D02*
X024840Y010100D01*
X024840Y011100D02*
X025360Y011100D01*
X025360Y012100D02*
X024840Y012100D01*
D14*
X032780Y009290D03*
X032780Y009034D03*
X032780Y008778D03*
X032780Y008522D03*
X034394Y008522D03*
X034394Y008778D03*
X034394Y009034D03*
X034394Y009290D03*
D15*
X037600Y010850D03*
X038600Y011350D03*
X037600Y011850D03*
X038600Y012350D03*
X037600Y012850D03*
X038600Y013350D03*
X037600Y017350D03*
X038600Y017850D03*
X037600Y018350D03*
X038600Y018850D03*
X037600Y019350D03*
X038600Y019850D03*
X004935Y008935D03*
X003935Y008935D03*
D16*
X035100Y005920D03*
X035100Y005600D03*
X035100Y005280D03*
X037600Y005280D03*
X037600Y005600D03*
X037600Y005920D03*
X037600Y002920D03*
X037600Y002600D03*
X037600Y002280D03*
X035100Y002280D03*
X035100Y002600D03*
X035100Y002920D03*
D17*
X005100Y017100D03*
D18*
X003131Y017100D03*
X005100Y015131D03*
X007069Y017100D03*
X005100Y019069D03*
D19*
X011746Y006100D03*
X012730Y006100D03*
X013714Y006100D03*
X017246Y006100D03*
X018230Y006100D03*
X019214Y006100D03*
X022746Y006100D03*
X023730Y006100D03*
X024714Y006100D03*
X028246Y006100D03*
X029230Y006100D03*
X030214Y006100D03*
D20*
X002935Y006935D03*
X006935Y010935D03*
D21*
X031430Y011911D03*
X032550Y011911D03*
X032550Y013092D03*
X031430Y013092D03*
D22*
X031450Y013120D01*
X032920Y014590D01*
X033760Y014920D02*
X033100Y015580D01*
X033100Y015600D01*
X033040Y015610D01*
X030310Y012880D01*
X030310Y011920D01*
X029110Y010720D01*
X029110Y009850D01*
X029100Y009850D01*
X029620Y010600D02*
X029875Y010345D01*
X029890Y010360D01*
X031420Y011890D01*
X031430Y011911D01*
X031420Y011920D01*
X031420Y013090D01*
X031430Y013092D01*
X032550Y013092D02*
X032560Y013090D01*
X033160Y012490D01*
X033160Y008770D01*
X032800Y008770D01*
X032780Y008778D01*
X032770Y008770D01*
X032500Y008770D01*
X032350Y008620D01*
X032350Y008020D01*
X032410Y007960D01*
X032410Y005290D01*
X035080Y005290D01*
X035100Y005280D01*
X035100Y005600D02*
X035110Y005620D01*
X035530Y005620D01*
X035530Y006610D01*
X035380Y007210D02*
X036460Y006130D01*
X036460Y005290D01*
X037600Y005290D01*
X037600Y005280D01*
X037600Y005600D02*
X037600Y005620D01*
X037270Y005620D01*
X037270Y005650D01*
X037150Y005770D01*
X037150Y011380D01*
X037150Y011410D01*
X037150Y017890D01*
X037600Y018340D01*
X037600Y018350D01*
X038050Y018880D02*
X037600Y019330D01*
X037600Y019350D01*
X038050Y018880D02*
X038050Y017170D01*
X037930Y017050D01*
X037930Y013180D01*
X037600Y012850D01*
X038600Y012350D02*
X038620Y012370D01*
X038620Y013330D01*
X038600Y013350D01*
X037600Y011850D02*
X037600Y011830D01*
X037150Y011380D01*
X037600Y010870D02*
X037600Y010850D01*
X037600Y010870D02*
X038140Y011410D01*
X038140Y016630D01*
X038230Y016720D01*
X039040Y017410D02*
X039040Y011770D01*
X038620Y011350D01*
X038600Y011350D01*
X036790Y009040D02*
X036790Y006250D01*
X036160Y005950D02*
X036160Y003970D01*
X035110Y002920D01*
X035100Y002920D01*
X035080Y002620D02*
X035100Y002600D01*
X035080Y002620D02*
X034780Y002620D01*
X032080Y005320D01*
X032080Y010120D01*
X032050Y010150D01*
X032680Y010150D02*
X032680Y009400D01*
X032770Y009310D01*
X032780Y009290D01*
X032770Y009040D02*
X032380Y009040D01*
X032380Y009550D01*
X032380Y011740D01*
X032530Y011890D01*
X032550Y011911D01*
X033460Y010630D02*
X033460Y008770D01*
X034360Y008770D01*
X034394Y008778D01*
X034420Y008770D01*
X035080Y008770D01*
X035080Y005920D01*
X035100Y005920D01*
X032650Y008170D02*
X032650Y008380D01*
X032770Y008500D01*
X032780Y008522D01*
X032800Y008530D01*
X034390Y008530D01*
X034394Y008522D01*
X034394Y009034D02*
X034420Y009040D01*
X036790Y009040D01*
X034394Y009290D02*
X034390Y009310D01*
X033760Y009940D01*
X033760Y014920D01*
X033100Y015600D02*
X033070Y015610D01*
X032110Y016570D01*
X032110Y017590D01*
X032110Y017620D01*
X031120Y017620D01*
X031100Y017600D01*
X030100Y017600D02*
X030070Y017620D01*
X030070Y021640D01*
X029110Y022600D01*
X029100Y022600D01*
X027100Y022120D02*
X027100Y017620D01*
X027100Y017600D01*
X025780Y016330D02*
X024520Y017590D01*
X024500Y017600D01*
X023710Y017590D02*
X023700Y017600D01*
X023710Y017590D02*
X023710Y013480D01*
X025090Y012100D01*
X025100Y012100D01*
X025780Y010780D02*
X025780Y016330D01*
X024520Y019540D02*
X024520Y027160D01*
X024100Y027580D01*
X024100Y027600D01*
X024070Y027610D01*
X021610Y027610D01*
X021600Y027600D01*
X021580Y027610D01*
X019120Y027610D01*
X019100Y027600D01*
X016600Y027580D02*
X016600Y027600D01*
X016600Y027580D02*
X015580Y026560D01*
X015580Y006940D01*
X016900Y005620D01*
X023710Y005620D01*
X023710Y006100D01*
X023730Y006100D01*
X022746Y006100D02*
X022720Y006100D01*
X022480Y006100D01*
X018040Y010540D01*
X017100Y010100D02*
X017080Y010120D01*
X016660Y010540D01*
X016660Y017170D01*
X017080Y017590D01*
X017100Y017600D01*
X015040Y019180D02*
X015040Y007420D01*
X013720Y006100D01*
X013714Y006100D01*
X012730Y006100D02*
X012730Y006100D01*
X014170Y007540D01*
X014170Y010510D01*
X014170Y010540D01*
X014590Y010120D01*
X014600Y010100D01*
X014170Y010540D02*
X014170Y017260D01*
X014500Y017590D01*
X014500Y017600D01*
X014410Y017530D01*
X010090Y021850D01*
X011600Y022600D02*
X011620Y022600D01*
X015040Y019180D01*
X013700Y017600D02*
X013690Y017590D01*
X013690Y013180D01*
X011620Y011110D01*
X011600Y011100D01*
X006935Y010935D02*
X006910Y010960D01*
X005740Y012130D01*
X005740Y016450D01*
X005110Y017080D01*
X005100Y017100D01*
X004450Y020470D02*
X004450Y009430D01*
X004930Y008950D01*
X004935Y008935D01*
X003935Y008935D02*
X003910Y008920D01*
X002950Y007960D01*
X002950Y006940D01*
X002935Y006935D01*
X011170Y006670D02*
X011740Y006100D01*
X011746Y006100D01*
X011170Y006670D02*
X011170Y017650D01*
X009790Y019030D01*
X009790Y023290D01*
X014080Y027580D01*
X014100Y027600D01*
X009580Y027130D02*
X009580Y017620D01*
X009600Y017600D01*
X006580Y022600D02*
X004450Y020470D01*
X006580Y022600D02*
X006600Y022600D01*
X009580Y027130D02*
X009130Y027580D01*
X009100Y027600D01*
X009100Y027610D01*
X006610Y027610D01*
X006600Y027600D01*
X015790Y023020D02*
X015790Y007540D01*
X017230Y006100D01*
X017246Y006100D01*
X017260Y006100D01*
X018220Y006100D01*
X018230Y006100D01*
X022100Y009100D02*
X022120Y009100D01*
X022870Y008350D01*
X030640Y008350D01*
X030670Y008350D01*
X030670Y002290D01*
X035080Y002290D01*
X035100Y002280D01*
X035110Y002290D01*
X037600Y002290D01*
X037600Y002280D01*
X037600Y002600D02*
X037600Y002620D01*
X037300Y002620D01*
X036790Y003130D01*
X037600Y002920D02*
X039250Y004570D01*
X039250Y019840D01*
X038620Y019840D02*
X038600Y019850D01*
X038620Y019870D01*
X038620Y022600D01*
X040090Y024070D01*
X040100Y024100D01*
X040090Y024100D01*
X040090Y026080D01*
X040100Y026100D01*
X039100Y026110D02*
X039100Y026100D01*
X039100Y026110D02*
X028090Y026110D01*
X026620Y027580D01*
X026600Y027600D01*
X031600Y027610D02*
X031600Y027600D01*
X031600Y027610D02*
X034090Y027610D01*
X034100Y027600D01*
X027100Y022120D02*
X026620Y022600D01*
X026600Y022600D01*
X024100Y022600D02*
X024100Y019600D01*
X021190Y016690D01*
X021190Y015190D01*
X017110Y011110D01*
X017100Y011100D01*
X020100Y010100D02*
X020110Y010120D01*
X021400Y011410D01*
X021400Y016420D01*
X024520Y019540D01*
X020680Y018520D02*
X020680Y017620D01*
X020700Y017600D01*
X020680Y018520D02*
X016600Y022600D01*
X015790Y023020D02*
X019300Y023020D01*
X019540Y022780D01*
X019540Y022600D01*
X021580Y022600D01*
X021600Y022600D01*
X030100Y017600D02*
X030100Y017590D01*
X030100Y012100D01*
X028600Y010600D01*
X029600Y010600D02*
X029620Y010600D01*
X029875Y010345D02*
X030670Y009550D01*
X030670Y009520D01*
X030670Y008350D01*
X032770Y009040D02*
X032780Y009034D01*
X029230Y006100D02*
X029200Y006100D01*
X028270Y006100D01*
X028246Y006100D01*
X025100Y010100D02*
X025120Y010120D01*
X025780Y010780D01*
X032110Y017620D02*
X034090Y019600D01*
X034100Y019600D01*
X034120Y019630D01*
X034120Y019810D01*
X038590Y019810D01*
X038600Y019850D01*
X038620Y019840D02*
X038620Y018850D01*
X038600Y018850D01*
X038600Y017850D02*
X038620Y017830D01*
X039040Y017410D01*
D23*
X038230Y016720D03*
X039250Y019840D03*
X032920Y014590D03*
X033460Y010630D03*
X032680Y010150D03*
X032050Y010150D03*
X032380Y009550D03*
X030670Y009550D03*
X032650Y008170D03*
X035380Y007210D03*
X035530Y006610D03*
X036160Y005950D03*
X036790Y006250D03*
X036790Y003130D03*
X018040Y010540D03*
X010090Y021850D03*
M02*
