G75*
G70*
%OFA0B0*%
%FSLAX24Y24*%
%IPPOS*%
%LPD*%
%AMOC8*
5,1,8,0,0,1.08239X$1,22.5*
%
%ADD10OC8,0.0520*%
%ADD11R,0.0710X0.0630*%
%ADD12C,0.0594*%
%ADD13C,0.0515*%
%ADD14C,0.0360*%
%ADD15C,0.0180*%
%ADD16C,0.0400*%
D10*
X002688Y006621D03*
X003688Y006621D03*
X004688Y006621D03*
X005688Y006621D03*
X006688Y006621D03*
X007688Y006621D03*
D11*
X008938Y006681D03*
X008938Y005561D03*
X001563Y005436D03*
X001563Y006556D03*
D12*
X002688Y008824D02*
X002688Y009418D01*
X003688Y009418D02*
X003688Y008824D01*
X004688Y008824D02*
X004688Y009418D01*
X005688Y009418D02*
X005688Y008824D01*
X006688Y008824D02*
X006688Y009418D01*
X007688Y009418D02*
X007688Y008824D01*
D13*
X006188Y004401D03*
X005384Y004401D03*
X004581Y004401D03*
X004188Y003401D03*
X004991Y003401D03*
X005794Y003401D03*
D14*
X004188Y003621D02*
X003438Y003621D01*
X001688Y005371D01*
X001563Y005436D01*
X001438Y005621D01*
X000938Y005621D01*
X000938Y007371D01*
X002688Y009121D01*
X003688Y009121D02*
X003688Y007871D01*
X003438Y007621D01*
X003438Y006621D01*
X003688Y006621D01*
X003938Y007371D02*
X004688Y007371D01*
X004688Y009121D01*
X005688Y009121D02*
X005688Y007371D01*
X005438Y007371D01*
X004688Y006621D01*
X004188Y003621D02*
X004188Y003401D01*
X004938Y003371D02*
X004991Y003401D01*
X004938Y003371D02*
X005438Y002871D01*
X006438Y002871D01*
X008938Y005371D01*
X008938Y005561D01*
D15*
X008938Y006681D02*
X008938Y006871D01*
X008688Y007121D01*
X006188Y007121D01*
X005688Y006621D01*
X002688Y006621D02*
X001688Y006621D01*
X001563Y006556D01*
D16*
X003938Y007371D03*
M02*
