%
M48
M72
T01C0.0240
T02C0.0315
T03C0.0320
T04C0.0394
T05C0.0929
%
T01
X3938Y7371
T02
X4581Y4401
X5384Y4401
X6188Y4401
X5794Y3401
X4991Y3401
X4188Y3401
T03
X4688Y6621
X5688Y6621
X6688Y6621
X7688Y6621
X3688Y6621
X2688Y6621
T04
X2688Y9121
X3688Y9121
X4688Y9121
X5688Y9121
X6688Y9121
X7688Y9121
T05
X2825Y2496
X7550Y2496
M30
