G75*
G70*
%OFA0B0*%
%FSLAX24Y24*%
%IPPOS*%
%LPD*%
%AMOC8*
5,1,8,0,0,1.08239X$1,22.5*
%
%ADD10C,0.0160*%
%ADD11C,0.0060*%
%ADD12R,0.0500X0.0220*%
%ADD13R,0.0220X0.0500*%
%ADD14C,0.0560*%
%ADD15OC8,0.0560*%
%ADD16R,0.0760X0.0760*%
%ADD17C,0.0760*%
%ADD18R,0.0787X0.0630*%
%ADD19R,0.0630X0.0709*%
%ADD20C,0.0554*%
%ADD21C,0.0000*%
%ADD22R,0.0260X0.1200*%
%ADD23C,0.1181*%
%ADD24C,0.1266*%
%ADD25R,0.1181X0.1181*%
%ADD26OC8,0.0520*%
%ADD27R,0.0630X0.0787*%
%ADD28R,0.1339X0.0748*%
%ADD29R,0.0748X0.0630*%
%ADD30R,0.0551X0.0472*%
%ADD31R,0.1181X0.0984*%
%ADD32C,0.0320*%
%ADD33C,0.0500*%
%ADD34C,0.0700*%
%ADD35C,0.0180*%
%ADD36C,0.0408*%
%ADD37C,0.0100*%
%ADD38C,0.0240*%
D10*
X000550Y001235D02*
X037300Y001235D01*
X037300Y022235D01*
X000550Y022235D01*
X000550Y001235D01*
D11*
X032909Y019922D02*
X032909Y020349D01*
X033016Y020456D01*
X033230Y020456D01*
X033336Y020349D01*
X033336Y019922D01*
X033230Y019815D01*
X033016Y019815D01*
X032909Y019922D01*
X033554Y019815D02*
X033554Y020456D01*
X033981Y020456D02*
X033554Y019815D01*
X033981Y019815D02*
X033981Y020456D01*
X034198Y020242D02*
X034198Y019815D01*
X034198Y020135D02*
X034625Y020135D01*
X034625Y020242D02*
X034625Y019815D01*
X034843Y019815D02*
X034843Y020456D01*
X034625Y020242D02*
X034412Y020456D01*
X034198Y020242D01*
X034843Y019815D02*
X035270Y020456D01*
X035270Y019815D01*
X035270Y019406D02*
X035270Y018979D01*
X035056Y018765D01*
X034843Y018979D01*
X034843Y019406D01*
X034625Y019192D02*
X034412Y019406D01*
X034412Y018765D01*
X034625Y018765D02*
X034198Y018765D01*
X033981Y018765D02*
X033874Y018765D01*
X033874Y018872D01*
X033981Y018872D01*
X033981Y018765D01*
X033659Y018765D02*
X033232Y018765D01*
X033445Y018765D02*
X033445Y019406D01*
X033659Y019192D01*
D12*
G36*
X023278Y012749D02*
X022926Y012397D01*
X022770Y012553D01*
X023122Y012905D01*
X023278Y012749D01*
G37*
G36*
X023056Y012971D02*
X022704Y012619D01*
X022548Y012775D01*
X022900Y013127D01*
X023056Y012971D01*
G37*
G36*
X022833Y013194D02*
X022481Y012842D01*
X022325Y012998D01*
X022677Y013350D01*
X022833Y013194D01*
G37*
G36*
X022610Y013417D02*
X022258Y013065D01*
X022102Y013221D01*
X022454Y013573D01*
X022610Y013417D01*
G37*
G36*
X022388Y013639D02*
X022036Y013287D01*
X021880Y013443D01*
X022232Y013795D01*
X022388Y013639D01*
G37*
G36*
X022165Y013862D02*
X021813Y013510D01*
X021657Y013666D01*
X022009Y014018D01*
X022165Y013862D01*
G37*
G36*
X021942Y014085D02*
X021590Y013733D01*
X021434Y013889D01*
X021786Y014241D01*
X021942Y014085D01*
G37*
G36*
X021720Y014308D02*
X021368Y013956D01*
X021212Y014112D01*
X021564Y014464D01*
X021720Y014308D01*
G37*
G36*
X019330Y011918D02*
X018978Y011566D01*
X018822Y011722D01*
X019174Y012074D01*
X019330Y011918D01*
G37*
G36*
X019552Y011695D02*
X019200Y011343D01*
X019044Y011499D01*
X019396Y011851D01*
X019552Y011695D01*
G37*
G36*
X019775Y011472D02*
X019423Y011120D01*
X019267Y011276D01*
X019619Y011628D01*
X019775Y011472D01*
G37*
G36*
X019998Y011249D02*
X019646Y010897D01*
X019490Y011053D01*
X019842Y011405D01*
X019998Y011249D01*
G37*
G36*
X020220Y011027D02*
X019868Y010675D01*
X019712Y010831D01*
X020064Y011183D01*
X020220Y011027D01*
G37*
G36*
X020443Y010804D02*
X020091Y010452D01*
X019935Y010608D01*
X020287Y010960D01*
X020443Y010804D01*
G37*
G36*
X020666Y010581D02*
X020314Y010229D01*
X020158Y010385D01*
X020510Y010737D01*
X020666Y010581D01*
G37*
G36*
X020888Y010359D02*
X020536Y010007D01*
X020380Y010163D01*
X020732Y010515D01*
X020888Y010359D01*
G37*
D13*
G36*
X021720Y010163D02*
X021564Y010007D01*
X021212Y010359D01*
X021368Y010515D01*
X021720Y010163D01*
G37*
G36*
X021942Y010385D02*
X021786Y010229D01*
X021434Y010581D01*
X021590Y010737D01*
X021942Y010385D01*
G37*
G36*
X022165Y010608D02*
X022009Y010452D01*
X021657Y010804D01*
X021813Y010960D01*
X022165Y010608D01*
G37*
G36*
X022388Y010831D02*
X022232Y010675D01*
X021880Y011027D01*
X022036Y011183D01*
X022388Y010831D01*
G37*
G36*
X022610Y011053D02*
X022454Y010897D01*
X022102Y011249D01*
X022258Y011405D01*
X022610Y011053D01*
G37*
G36*
X022833Y011276D02*
X022677Y011120D01*
X022325Y011472D01*
X022481Y011628D01*
X022833Y011276D01*
G37*
G36*
X023056Y011499D02*
X022900Y011343D01*
X022548Y011695D01*
X022704Y011851D01*
X023056Y011499D01*
G37*
G36*
X023278Y011722D02*
X023122Y011566D01*
X022770Y011918D01*
X022926Y012074D01*
X023278Y011722D01*
G37*
G36*
X020443Y013666D02*
X020287Y013510D01*
X019935Y013862D01*
X020091Y014018D01*
X020443Y013666D01*
G37*
G36*
X020666Y013889D02*
X020510Y013733D01*
X020158Y014085D01*
X020314Y014241D01*
X020666Y013889D01*
G37*
G36*
X020888Y014112D02*
X020732Y013956D01*
X020380Y014308D01*
X020536Y014464D01*
X020888Y014112D01*
G37*
G36*
X020220Y013443D02*
X020064Y013287D01*
X019712Y013639D01*
X019868Y013795D01*
X020220Y013443D01*
G37*
G36*
X019998Y013221D02*
X019842Y013065D01*
X019490Y013417D01*
X019646Y013573D01*
X019998Y013221D01*
G37*
G36*
X019775Y012998D02*
X019619Y012842D01*
X019267Y013194D01*
X019423Y013350D01*
X019775Y012998D01*
G37*
G36*
X019552Y012775D02*
X019396Y012619D01*
X019044Y012971D01*
X019200Y013127D01*
X019552Y012775D01*
G37*
G36*
X019330Y012553D02*
X019174Y012397D01*
X018822Y012749D01*
X018978Y012905D01*
X019330Y012553D01*
G37*
D14*
X033300Y010985D03*
D15*
X034300Y010985D03*
X034300Y011985D03*
X033300Y011985D03*
X033300Y012985D03*
X034300Y012985D03*
D16*
X001300Y005985D03*
D17*
X001300Y004985D03*
X001300Y003985D03*
D18*
X015550Y011434D03*
X015550Y012536D03*
X016550Y015934D03*
X016550Y017036D03*
X010050Y017036D03*
X010050Y015934D03*
X023050Y015934D03*
X023050Y017036D03*
X029550Y017036D03*
X029550Y015934D03*
X029550Y007536D03*
X029550Y006434D03*
X032550Y005036D03*
X034050Y005036D03*
X035550Y005036D03*
X035550Y003934D03*
X034050Y003934D03*
X032550Y003934D03*
X025800Y003684D03*
X025800Y004786D03*
X022550Y006434D03*
X022550Y007536D03*
X019300Y004786D03*
X019300Y003684D03*
D19*
X015101Y009985D03*
X013999Y009985D03*
X013999Y013985D03*
X015101Y013985D03*
G36*
X023633Y013402D02*
X023187Y013848D01*
X023687Y014348D01*
X024133Y013902D01*
X023633Y013402D01*
G37*
G36*
X024413Y012622D02*
X023967Y013068D01*
X024467Y013568D01*
X024913Y013122D01*
X024413Y012622D01*
G37*
G36*
X023967Y011152D02*
X024413Y011598D01*
X024913Y011098D01*
X024467Y010652D01*
X023967Y011152D01*
G37*
G36*
X023187Y010372D02*
X023633Y010818D01*
X024133Y010318D01*
X023687Y009872D01*
X023187Y010372D01*
G37*
D20*
X023300Y004485D03*
X022300Y004485D03*
X021300Y004485D03*
X021800Y003485D03*
X022800Y003485D03*
X023800Y003485D03*
X027800Y004485D03*
X028800Y004485D03*
X029800Y004485D03*
X029300Y003485D03*
X028300Y003485D03*
X030300Y003485D03*
X017300Y003485D03*
X016300Y003485D03*
X015300Y003485D03*
X014800Y004485D03*
X015800Y004485D03*
X016800Y004485D03*
X010800Y003485D03*
X009800Y003485D03*
X008800Y003485D03*
X008300Y004485D03*
X009300Y004485D03*
X010300Y004485D03*
X009800Y018985D03*
X010800Y018985D03*
X010300Y019985D03*
X009300Y019985D03*
X008300Y019985D03*
X008800Y018985D03*
X014800Y019985D03*
X015800Y019985D03*
X016800Y019985D03*
X016300Y018985D03*
X017300Y018985D03*
X015300Y018985D03*
X021300Y019985D03*
X022300Y019985D03*
X023300Y019985D03*
X022800Y018985D03*
X021800Y018985D03*
X023800Y018985D03*
X027800Y019985D03*
X028800Y019985D03*
X029800Y019985D03*
X029300Y018985D03*
X028300Y018985D03*
X030300Y018985D03*
D21*
X030410Y016485D02*
X030412Y016535D01*
X030418Y016585D01*
X030428Y016634D01*
X030441Y016683D01*
X030459Y016730D01*
X030480Y016776D01*
X030504Y016819D01*
X030532Y016861D01*
X030563Y016901D01*
X030597Y016938D01*
X030634Y016972D01*
X030674Y017003D01*
X030716Y017031D01*
X030759Y017055D01*
X030805Y017076D01*
X030852Y017094D01*
X030901Y017107D01*
X030950Y017117D01*
X031000Y017123D01*
X031050Y017125D01*
X031100Y017123D01*
X031150Y017117D01*
X031199Y017107D01*
X031248Y017094D01*
X031295Y017076D01*
X031341Y017055D01*
X031384Y017031D01*
X031426Y017003D01*
X031466Y016972D01*
X031503Y016938D01*
X031537Y016901D01*
X031568Y016861D01*
X031596Y016819D01*
X031620Y016776D01*
X031641Y016730D01*
X031659Y016683D01*
X031672Y016634D01*
X031682Y016585D01*
X031688Y016535D01*
X031690Y016485D01*
X031688Y016435D01*
X031682Y016385D01*
X031672Y016336D01*
X031659Y016287D01*
X031641Y016240D01*
X031620Y016194D01*
X031596Y016151D01*
X031568Y016109D01*
X031537Y016069D01*
X031503Y016032D01*
X031466Y015998D01*
X031426Y015967D01*
X031384Y015939D01*
X031341Y015915D01*
X031295Y015894D01*
X031248Y015876D01*
X031199Y015863D01*
X031150Y015853D01*
X031100Y015847D01*
X031050Y015845D01*
X031000Y015847D01*
X030950Y015853D01*
X030901Y015863D01*
X030852Y015876D01*
X030805Y015894D01*
X030759Y015915D01*
X030716Y015939D01*
X030674Y015967D01*
X030634Y015998D01*
X030597Y016032D01*
X030563Y016069D01*
X030532Y016109D01*
X030504Y016151D01*
X030480Y016194D01*
X030459Y016240D01*
X030441Y016287D01*
X030428Y016336D01*
X030418Y016385D01*
X030412Y016435D01*
X030410Y016485D01*
X026410Y016485D02*
X026412Y016535D01*
X026418Y016585D01*
X026428Y016634D01*
X026441Y016683D01*
X026459Y016730D01*
X026480Y016776D01*
X026504Y016819D01*
X026532Y016861D01*
X026563Y016901D01*
X026597Y016938D01*
X026634Y016972D01*
X026674Y017003D01*
X026716Y017031D01*
X026759Y017055D01*
X026805Y017076D01*
X026852Y017094D01*
X026901Y017107D01*
X026950Y017117D01*
X027000Y017123D01*
X027050Y017125D01*
X027100Y017123D01*
X027150Y017117D01*
X027199Y017107D01*
X027248Y017094D01*
X027295Y017076D01*
X027341Y017055D01*
X027384Y017031D01*
X027426Y017003D01*
X027466Y016972D01*
X027503Y016938D01*
X027537Y016901D01*
X027568Y016861D01*
X027596Y016819D01*
X027620Y016776D01*
X027641Y016730D01*
X027659Y016683D01*
X027672Y016634D01*
X027682Y016585D01*
X027688Y016535D01*
X027690Y016485D01*
X027688Y016435D01*
X027682Y016385D01*
X027672Y016336D01*
X027659Y016287D01*
X027641Y016240D01*
X027620Y016194D01*
X027596Y016151D01*
X027568Y016109D01*
X027537Y016069D01*
X027503Y016032D01*
X027466Y015998D01*
X027426Y015967D01*
X027384Y015939D01*
X027341Y015915D01*
X027295Y015894D01*
X027248Y015876D01*
X027199Y015863D01*
X027150Y015853D01*
X027100Y015847D01*
X027050Y015845D01*
X027000Y015847D01*
X026950Y015853D01*
X026901Y015863D01*
X026852Y015876D01*
X026805Y015894D01*
X026759Y015915D01*
X026716Y015939D01*
X026674Y015967D01*
X026634Y015998D01*
X026597Y016032D01*
X026563Y016069D01*
X026532Y016109D01*
X026504Y016151D01*
X026480Y016194D01*
X026459Y016240D01*
X026441Y016287D01*
X026428Y016336D01*
X026418Y016385D01*
X026412Y016435D01*
X026410Y016485D01*
X023910Y016485D02*
X023912Y016535D01*
X023918Y016585D01*
X023928Y016634D01*
X023941Y016683D01*
X023959Y016730D01*
X023980Y016776D01*
X024004Y016819D01*
X024032Y016861D01*
X024063Y016901D01*
X024097Y016938D01*
X024134Y016972D01*
X024174Y017003D01*
X024216Y017031D01*
X024259Y017055D01*
X024305Y017076D01*
X024352Y017094D01*
X024401Y017107D01*
X024450Y017117D01*
X024500Y017123D01*
X024550Y017125D01*
X024600Y017123D01*
X024650Y017117D01*
X024699Y017107D01*
X024748Y017094D01*
X024795Y017076D01*
X024841Y017055D01*
X024884Y017031D01*
X024926Y017003D01*
X024966Y016972D01*
X025003Y016938D01*
X025037Y016901D01*
X025068Y016861D01*
X025096Y016819D01*
X025120Y016776D01*
X025141Y016730D01*
X025159Y016683D01*
X025172Y016634D01*
X025182Y016585D01*
X025188Y016535D01*
X025190Y016485D01*
X025188Y016435D01*
X025182Y016385D01*
X025172Y016336D01*
X025159Y016287D01*
X025141Y016240D01*
X025120Y016194D01*
X025096Y016151D01*
X025068Y016109D01*
X025037Y016069D01*
X025003Y016032D01*
X024966Y015998D01*
X024926Y015967D01*
X024884Y015939D01*
X024841Y015915D01*
X024795Y015894D01*
X024748Y015876D01*
X024699Y015863D01*
X024650Y015853D01*
X024600Y015847D01*
X024550Y015845D01*
X024500Y015847D01*
X024450Y015853D01*
X024401Y015863D01*
X024352Y015876D01*
X024305Y015894D01*
X024259Y015915D01*
X024216Y015939D01*
X024174Y015967D01*
X024134Y015998D01*
X024097Y016032D01*
X024063Y016069D01*
X024032Y016109D01*
X024004Y016151D01*
X023980Y016194D01*
X023959Y016240D01*
X023941Y016287D01*
X023928Y016336D01*
X023918Y016385D01*
X023912Y016435D01*
X023910Y016485D01*
X019910Y016485D02*
X019912Y016535D01*
X019918Y016585D01*
X019928Y016634D01*
X019941Y016683D01*
X019959Y016730D01*
X019980Y016776D01*
X020004Y016819D01*
X020032Y016861D01*
X020063Y016901D01*
X020097Y016938D01*
X020134Y016972D01*
X020174Y017003D01*
X020216Y017031D01*
X020259Y017055D01*
X020305Y017076D01*
X020352Y017094D01*
X020401Y017107D01*
X020450Y017117D01*
X020500Y017123D01*
X020550Y017125D01*
X020600Y017123D01*
X020650Y017117D01*
X020699Y017107D01*
X020748Y017094D01*
X020795Y017076D01*
X020841Y017055D01*
X020884Y017031D01*
X020926Y017003D01*
X020966Y016972D01*
X021003Y016938D01*
X021037Y016901D01*
X021068Y016861D01*
X021096Y016819D01*
X021120Y016776D01*
X021141Y016730D01*
X021159Y016683D01*
X021172Y016634D01*
X021182Y016585D01*
X021188Y016535D01*
X021190Y016485D01*
X021188Y016435D01*
X021182Y016385D01*
X021172Y016336D01*
X021159Y016287D01*
X021141Y016240D01*
X021120Y016194D01*
X021096Y016151D01*
X021068Y016109D01*
X021037Y016069D01*
X021003Y016032D01*
X020966Y015998D01*
X020926Y015967D01*
X020884Y015939D01*
X020841Y015915D01*
X020795Y015894D01*
X020748Y015876D01*
X020699Y015863D01*
X020650Y015853D01*
X020600Y015847D01*
X020550Y015845D01*
X020500Y015847D01*
X020450Y015853D01*
X020401Y015863D01*
X020352Y015876D01*
X020305Y015894D01*
X020259Y015915D01*
X020216Y015939D01*
X020174Y015967D01*
X020134Y015998D01*
X020097Y016032D01*
X020063Y016069D01*
X020032Y016109D01*
X020004Y016151D01*
X019980Y016194D01*
X019959Y016240D01*
X019941Y016287D01*
X019928Y016336D01*
X019918Y016385D01*
X019912Y016435D01*
X019910Y016485D01*
X017410Y016485D02*
X017412Y016535D01*
X017418Y016585D01*
X017428Y016634D01*
X017441Y016683D01*
X017459Y016730D01*
X017480Y016776D01*
X017504Y016819D01*
X017532Y016861D01*
X017563Y016901D01*
X017597Y016938D01*
X017634Y016972D01*
X017674Y017003D01*
X017716Y017031D01*
X017759Y017055D01*
X017805Y017076D01*
X017852Y017094D01*
X017901Y017107D01*
X017950Y017117D01*
X018000Y017123D01*
X018050Y017125D01*
X018100Y017123D01*
X018150Y017117D01*
X018199Y017107D01*
X018248Y017094D01*
X018295Y017076D01*
X018341Y017055D01*
X018384Y017031D01*
X018426Y017003D01*
X018466Y016972D01*
X018503Y016938D01*
X018537Y016901D01*
X018568Y016861D01*
X018596Y016819D01*
X018620Y016776D01*
X018641Y016730D01*
X018659Y016683D01*
X018672Y016634D01*
X018682Y016585D01*
X018688Y016535D01*
X018690Y016485D01*
X018688Y016435D01*
X018682Y016385D01*
X018672Y016336D01*
X018659Y016287D01*
X018641Y016240D01*
X018620Y016194D01*
X018596Y016151D01*
X018568Y016109D01*
X018537Y016069D01*
X018503Y016032D01*
X018466Y015998D01*
X018426Y015967D01*
X018384Y015939D01*
X018341Y015915D01*
X018295Y015894D01*
X018248Y015876D01*
X018199Y015863D01*
X018150Y015853D01*
X018100Y015847D01*
X018050Y015845D01*
X018000Y015847D01*
X017950Y015853D01*
X017901Y015863D01*
X017852Y015876D01*
X017805Y015894D01*
X017759Y015915D01*
X017716Y015939D01*
X017674Y015967D01*
X017634Y015998D01*
X017597Y016032D01*
X017563Y016069D01*
X017532Y016109D01*
X017504Y016151D01*
X017480Y016194D01*
X017459Y016240D01*
X017441Y016287D01*
X017428Y016336D01*
X017418Y016385D01*
X017412Y016435D01*
X017410Y016485D01*
X013410Y016485D02*
X013412Y016535D01*
X013418Y016585D01*
X013428Y016634D01*
X013441Y016683D01*
X013459Y016730D01*
X013480Y016776D01*
X013504Y016819D01*
X013532Y016861D01*
X013563Y016901D01*
X013597Y016938D01*
X013634Y016972D01*
X013674Y017003D01*
X013716Y017031D01*
X013759Y017055D01*
X013805Y017076D01*
X013852Y017094D01*
X013901Y017107D01*
X013950Y017117D01*
X014000Y017123D01*
X014050Y017125D01*
X014100Y017123D01*
X014150Y017117D01*
X014199Y017107D01*
X014248Y017094D01*
X014295Y017076D01*
X014341Y017055D01*
X014384Y017031D01*
X014426Y017003D01*
X014466Y016972D01*
X014503Y016938D01*
X014537Y016901D01*
X014568Y016861D01*
X014596Y016819D01*
X014620Y016776D01*
X014641Y016730D01*
X014659Y016683D01*
X014672Y016634D01*
X014682Y016585D01*
X014688Y016535D01*
X014690Y016485D01*
X014688Y016435D01*
X014682Y016385D01*
X014672Y016336D01*
X014659Y016287D01*
X014641Y016240D01*
X014620Y016194D01*
X014596Y016151D01*
X014568Y016109D01*
X014537Y016069D01*
X014503Y016032D01*
X014466Y015998D01*
X014426Y015967D01*
X014384Y015939D01*
X014341Y015915D01*
X014295Y015894D01*
X014248Y015876D01*
X014199Y015863D01*
X014150Y015853D01*
X014100Y015847D01*
X014050Y015845D01*
X014000Y015847D01*
X013950Y015853D01*
X013901Y015863D01*
X013852Y015876D01*
X013805Y015894D01*
X013759Y015915D01*
X013716Y015939D01*
X013674Y015967D01*
X013634Y015998D01*
X013597Y016032D01*
X013563Y016069D01*
X013532Y016109D01*
X013504Y016151D01*
X013480Y016194D01*
X013459Y016240D01*
X013441Y016287D01*
X013428Y016336D01*
X013418Y016385D01*
X013412Y016435D01*
X013410Y016485D01*
X010910Y016485D02*
X010912Y016535D01*
X010918Y016585D01*
X010928Y016634D01*
X010941Y016683D01*
X010959Y016730D01*
X010980Y016776D01*
X011004Y016819D01*
X011032Y016861D01*
X011063Y016901D01*
X011097Y016938D01*
X011134Y016972D01*
X011174Y017003D01*
X011216Y017031D01*
X011259Y017055D01*
X011305Y017076D01*
X011352Y017094D01*
X011401Y017107D01*
X011450Y017117D01*
X011500Y017123D01*
X011550Y017125D01*
X011600Y017123D01*
X011650Y017117D01*
X011699Y017107D01*
X011748Y017094D01*
X011795Y017076D01*
X011841Y017055D01*
X011884Y017031D01*
X011926Y017003D01*
X011966Y016972D01*
X012003Y016938D01*
X012037Y016901D01*
X012068Y016861D01*
X012096Y016819D01*
X012120Y016776D01*
X012141Y016730D01*
X012159Y016683D01*
X012172Y016634D01*
X012182Y016585D01*
X012188Y016535D01*
X012190Y016485D01*
X012188Y016435D01*
X012182Y016385D01*
X012172Y016336D01*
X012159Y016287D01*
X012141Y016240D01*
X012120Y016194D01*
X012096Y016151D01*
X012068Y016109D01*
X012037Y016069D01*
X012003Y016032D01*
X011966Y015998D01*
X011926Y015967D01*
X011884Y015939D01*
X011841Y015915D01*
X011795Y015894D01*
X011748Y015876D01*
X011699Y015863D01*
X011650Y015853D01*
X011600Y015847D01*
X011550Y015845D01*
X011500Y015847D01*
X011450Y015853D01*
X011401Y015863D01*
X011352Y015876D01*
X011305Y015894D01*
X011259Y015915D01*
X011216Y015939D01*
X011174Y015967D01*
X011134Y015998D01*
X011097Y016032D01*
X011063Y016069D01*
X011032Y016109D01*
X011004Y016151D01*
X010980Y016194D01*
X010959Y016240D01*
X010941Y016287D01*
X010928Y016336D01*
X010918Y016385D01*
X010912Y016435D01*
X010910Y016485D01*
X006910Y016485D02*
X006912Y016535D01*
X006918Y016585D01*
X006928Y016634D01*
X006941Y016683D01*
X006959Y016730D01*
X006980Y016776D01*
X007004Y016819D01*
X007032Y016861D01*
X007063Y016901D01*
X007097Y016938D01*
X007134Y016972D01*
X007174Y017003D01*
X007216Y017031D01*
X007259Y017055D01*
X007305Y017076D01*
X007352Y017094D01*
X007401Y017107D01*
X007450Y017117D01*
X007500Y017123D01*
X007550Y017125D01*
X007600Y017123D01*
X007650Y017117D01*
X007699Y017107D01*
X007748Y017094D01*
X007795Y017076D01*
X007841Y017055D01*
X007884Y017031D01*
X007926Y017003D01*
X007966Y016972D01*
X008003Y016938D01*
X008037Y016901D01*
X008068Y016861D01*
X008096Y016819D01*
X008120Y016776D01*
X008141Y016730D01*
X008159Y016683D01*
X008172Y016634D01*
X008182Y016585D01*
X008188Y016535D01*
X008190Y016485D01*
X008188Y016435D01*
X008182Y016385D01*
X008172Y016336D01*
X008159Y016287D01*
X008141Y016240D01*
X008120Y016194D01*
X008096Y016151D01*
X008068Y016109D01*
X008037Y016069D01*
X008003Y016032D01*
X007966Y015998D01*
X007926Y015967D01*
X007884Y015939D01*
X007841Y015915D01*
X007795Y015894D01*
X007748Y015876D01*
X007699Y015863D01*
X007650Y015853D01*
X007600Y015847D01*
X007550Y015845D01*
X007500Y015847D01*
X007450Y015853D01*
X007401Y015863D01*
X007352Y015876D01*
X007305Y015894D01*
X007259Y015915D01*
X007216Y015939D01*
X007174Y015967D01*
X007134Y015998D01*
X007097Y016032D01*
X007063Y016069D01*
X007032Y016109D01*
X007004Y016151D01*
X006980Y016194D01*
X006959Y016240D01*
X006941Y016287D01*
X006928Y016336D01*
X006918Y016385D01*
X006912Y016435D01*
X006910Y016485D01*
X001869Y012969D02*
X001871Y013005D01*
X001877Y013041D01*
X001887Y013076D01*
X001900Y013110D01*
X001917Y013142D01*
X001937Y013172D01*
X001961Y013199D01*
X001987Y013224D01*
X002016Y013246D01*
X002047Y013265D01*
X002080Y013280D01*
X002114Y013292D01*
X002150Y013300D01*
X002186Y013304D01*
X002222Y013304D01*
X002258Y013300D01*
X002294Y013292D01*
X002328Y013280D01*
X002361Y013265D01*
X002392Y013246D01*
X002421Y013224D01*
X002447Y013199D01*
X002471Y013172D01*
X002491Y013142D01*
X002508Y013110D01*
X002521Y013076D01*
X002531Y013041D01*
X002537Y013005D01*
X002539Y012969D01*
X002537Y012933D01*
X002531Y012897D01*
X002521Y012862D01*
X002508Y012828D01*
X002491Y012796D01*
X002471Y012766D01*
X002447Y012739D01*
X002421Y012714D01*
X002392Y012692D01*
X002361Y012673D01*
X002328Y012658D01*
X002294Y012646D01*
X002258Y012638D01*
X002222Y012634D01*
X002186Y012634D01*
X002150Y012638D01*
X002114Y012646D01*
X002080Y012658D01*
X002047Y012673D01*
X002016Y012692D01*
X001987Y012714D01*
X001961Y012739D01*
X001937Y012766D01*
X001917Y012796D01*
X001900Y012828D01*
X001887Y012862D01*
X001877Y012897D01*
X001871Y012933D01*
X001869Y012969D01*
X001869Y011001D02*
X001871Y011037D01*
X001877Y011073D01*
X001887Y011108D01*
X001900Y011142D01*
X001917Y011174D01*
X001937Y011204D01*
X001961Y011231D01*
X001987Y011256D01*
X002016Y011278D01*
X002047Y011297D01*
X002080Y011312D01*
X002114Y011324D01*
X002150Y011332D01*
X002186Y011336D01*
X002222Y011336D01*
X002258Y011332D01*
X002294Y011324D01*
X002328Y011312D01*
X002361Y011297D01*
X002392Y011278D01*
X002421Y011256D01*
X002447Y011231D01*
X002471Y011204D01*
X002491Y011174D01*
X002508Y011142D01*
X002521Y011108D01*
X002531Y011073D01*
X002537Y011037D01*
X002539Y011001D01*
X002537Y010965D01*
X002531Y010929D01*
X002521Y010894D01*
X002508Y010860D01*
X002491Y010828D01*
X002471Y010798D01*
X002447Y010771D01*
X002421Y010746D01*
X002392Y010724D01*
X002361Y010705D01*
X002328Y010690D01*
X002294Y010678D01*
X002258Y010670D01*
X002222Y010666D01*
X002186Y010666D01*
X002150Y010670D01*
X002114Y010678D01*
X002080Y010690D01*
X002047Y010705D01*
X002016Y010724D01*
X001987Y010746D01*
X001961Y010771D01*
X001937Y010798D01*
X001917Y010828D01*
X001900Y010860D01*
X001887Y010894D01*
X001877Y010929D01*
X001871Y010965D01*
X001869Y011001D01*
X006910Y006985D02*
X006912Y007035D01*
X006918Y007085D01*
X006928Y007134D01*
X006941Y007183D01*
X006959Y007230D01*
X006980Y007276D01*
X007004Y007319D01*
X007032Y007361D01*
X007063Y007401D01*
X007097Y007438D01*
X007134Y007472D01*
X007174Y007503D01*
X007216Y007531D01*
X007259Y007555D01*
X007305Y007576D01*
X007352Y007594D01*
X007401Y007607D01*
X007450Y007617D01*
X007500Y007623D01*
X007550Y007625D01*
X007600Y007623D01*
X007650Y007617D01*
X007699Y007607D01*
X007748Y007594D01*
X007795Y007576D01*
X007841Y007555D01*
X007884Y007531D01*
X007926Y007503D01*
X007966Y007472D01*
X008003Y007438D01*
X008037Y007401D01*
X008068Y007361D01*
X008096Y007319D01*
X008120Y007276D01*
X008141Y007230D01*
X008159Y007183D01*
X008172Y007134D01*
X008182Y007085D01*
X008188Y007035D01*
X008190Y006985D01*
X008188Y006935D01*
X008182Y006885D01*
X008172Y006836D01*
X008159Y006787D01*
X008141Y006740D01*
X008120Y006694D01*
X008096Y006651D01*
X008068Y006609D01*
X008037Y006569D01*
X008003Y006532D01*
X007966Y006498D01*
X007926Y006467D01*
X007884Y006439D01*
X007841Y006415D01*
X007795Y006394D01*
X007748Y006376D01*
X007699Y006363D01*
X007650Y006353D01*
X007600Y006347D01*
X007550Y006345D01*
X007500Y006347D01*
X007450Y006353D01*
X007401Y006363D01*
X007352Y006376D01*
X007305Y006394D01*
X007259Y006415D01*
X007216Y006439D01*
X007174Y006467D01*
X007134Y006498D01*
X007097Y006532D01*
X007063Y006569D01*
X007032Y006609D01*
X007004Y006651D01*
X006980Y006694D01*
X006959Y006740D01*
X006941Y006787D01*
X006928Y006836D01*
X006918Y006885D01*
X006912Y006935D01*
X006910Y006985D01*
X010910Y006985D02*
X010912Y007035D01*
X010918Y007085D01*
X010928Y007134D01*
X010941Y007183D01*
X010959Y007230D01*
X010980Y007276D01*
X011004Y007319D01*
X011032Y007361D01*
X011063Y007401D01*
X011097Y007438D01*
X011134Y007472D01*
X011174Y007503D01*
X011216Y007531D01*
X011259Y007555D01*
X011305Y007576D01*
X011352Y007594D01*
X011401Y007607D01*
X011450Y007617D01*
X011500Y007623D01*
X011550Y007625D01*
X011600Y007623D01*
X011650Y007617D01*
X011699Y007607D01*
X011748Y007594D01*
X011795Y007576D01*
X011841Y007555D01*
X011884Y007531D01*
X011926Y007503D01*
X011966Y007472D01*
X012003Y007438D01*
X012037Y007401D01*
X012068Y007361D01*
X012096Y007319D01*
X012120Y007276D01*
X012141Y007230D01*
X012159Y007183D01*
X012172Y007134D01*
X012182Y007085D01*
X012188Y007035D01*
X012190Y006985D01*
X012188Y006935D01*
X012182Y006885D01*
X012172Y006836D01*
X012159Y006787D01*
X012141Y006740D01*
X012120Y006694D01*
X012096Y006651D01*
X012068Y006609D01*
X012037Y006569D01*
X012003Y006532D01*
X011966Y006498D01*
X011926Y006467D01*
X011884Y006439D01*
X011841Y006415D01*
X011795Y006394D01*
X011748Y006376D01*
X011699Y006363D01*
X011650Y006353D01*
X011600Y006347D01*
X011550Y006345D01*
X011500Y006347D01*
X011450Y006353D01*
X011401Y006363D01*
X011352Y006376D01*
X011305Y006394D01*
X011259Y006415D01*
X011216Y006439D01*
X011174Y006467D01*
X011134Y006498D01*
X011097Y006532D01*
X011063Y006569D01*
X011032Y006609D01*
X011004Y006651D01*
X010980Y006694D01*
X010959Y006740D01*
X010941Y006787D01*
X010928Y006836D01*
X010918Y006885D01*
X010912Y006935D01*
X010910Y006985D01*
X013410Y006985D02*
X013412Y007035D01*
X013418Y007085D01*
X013428Y007134D01*
X013441Y007183D01*
X013459Y007230D01*
X013480Y007276D01*
X013504Y007319D01*
X013532Y007361D01*
X013563Y007401D01*
X013597Y007438D01*
X013634Y007472D01*
X013674Y007503D01*
X013716Y007531D01*
X013759Y007555D01*
X013805Y007576D01*
X013852Y007594D01*
X013901Y007607D01*
X013950Y007617D01*
X014000Y007623D01*
X014050Y007625D01*
X014100Y007623D01*
X014150Y007617D01*
X014199Y007607D01*
X014248Y007594D01*
X014295Y007576D01*
X014341Y007555D01*
X014384Y007531D01*
X014426Y007503D01*
X014466Y007472D01*
X014503Y007438D01*
X014537Y007401D01*
X014568Y007361D01*
X014596Y007319D01*
X014620Y007276D01*
X014641Y007230D01*
X014659Y007183D01*
X014672Y007134D01*
X014682Y007085D01*
X014688Y007035D01*
X014690Y006985D01*
X014688Y006935D01*
X014682Y006885D01*
X014672Y006836D01*
X014659Y006787D01*
X014641Y006740D01*
X014620Y006694D01*
X014596Y006651D01*
X014568Y006609D01*
X014537Y006569D01*
X014503Y006532D01*
X014466Y006498D01*
X014426Y006467D01*
X014384Y006439D01*
X014341Y006415D01*
X014295Y006394D01*
X014248Y006376D01*
X014199Y006363D01*
X014150Y006353D01*
X014100Y006347D01*
X014050Y006345D01*
X014000Y006347D01*
X013950Y006353D01*
X013901Y006363D01*
X013852Y006376D01*
X013805Y006394D01*
X013759Y006415D01*
X013716Y006439D01*
X013674Y006467D01*
X013634Y006498D01*
X013597Y006532D01*
X013563Y006569D01*
X013532Y006609D01*
X013504Y006651D01*
X013480Y006694D01*
X013459Y006740D01*
X013441Y006787D01*
X013428Y006836D01*
X013418Y006885D01*
X013412Y006935D01*
X013410Y006985D01*
X017410Y006985D02*
X017412Y007035D01*
X017418Y007085D01*
X017428Y007134D01*
X017441Y007183D01*
X017459Y007230D01*
X017480Y007276D01*
X017504Y007319D01*
X017532Y007361D01*
X017563Y007401D01*
X017597Y007438D01*
X017634Y007472D01*
X017674Y007503D01*
X017716Y007531D01*
X017759Y007555D01*
X017805Y007576D01*
X017852Y007594D01*
X017901Y007607D01*
X017950Y007617D01*
X018000Y007623D01*
X018050Y007625D01*
X018100Y007623D01*
X018150Y007617D01*
X018199Y007607D01*
X018248Y007594D01*
X018295Y007576D01*
X018341Y007555D01*
X018384Y007531D01*
X018426Y007503D01*
X018466Y007472D01*
X018503Y007438D01*
X018537Y007401D01*
X018568Y007361D01*
X018596Y007319D01*
X018620Y007276D01*
X018641Y007230D01*
X018659Y007183D01*
X018672Y007134D01*
X018682Y007085D01*
X018688Y007035D01*
X018690Y006985D01*
X018688Y006935D01*
X018682Y006885D01*
X018672Y006836D01*
X018659Y006787D01*
X018641Y006740D01*
X018620Y006694D01*
X018596Y006651D01*
X018568Y006609D01*
X018537Y006569D01*
X018503Y006532D01*
X018466Y006498D01*
X018426Y006467D01*
X018384Y006439D01*
X018341Y006415D01*
X018295Y006394D01*
X018248Y006376D01*
X018199Y006363D01*
X018150Y006353D01*
X018100Y006347D01*
X018050Y006345D01*
X018000Y006347D01*
X017950Y006353D01*
X017901Y006363D01*
X017852Y006376D01*
X017805Y006394D01*
X017759Y006415D01*
X017716Y006439D01*
X017674Y006467D01*
X017634Y006498D01*
X017597Y006532D01*
X017563Y006569D01*
X017532Y006609D01*
X017504Y006651D01*
X017480Y006694D01*
X017459Y006740D01*
X017441Y006787D01*
X017428Y006836D01*
X017418Y006885D01*
X017412Y006935D01*
X017410Y006985D01*
X019910Y006985D02*
X019912Y007035D01*
X019918Y007085D01*
X019928Y007134D01*
X019941Y007183D01*
X019959Y007230D01*
X019980Y007276D01*
X020004Y007319D01*
X020032Y007361D01*
X020063Y007401D01*
X020097Y007438D01*
X020134Y007472D01*
X020174Y007503D01*
X020216Y007531D01*
X020259Y007555D01*
X020305Y007576D01*
X020352Y007594D01*
X020401Y007607D01*
X020450Y007617D01*
X020500Y007623D01*
X020550Y007625D01*
X020600Y007623D01*
X020650Y007617D01*
X020699Y007607D01*
X020748Y007594D01*
X020795Y007576D01*
X020841Y007555D01*
X020884Y007531D01*
X020926Y007503D01*
X020966Y007472D01*
X021003Y007438D01*
X021037Y007401D01*
X021068Y007361D01*
X021096Y007319D01*
X021120Y007276D01*
X021141Y007230D01*
X021159Y007183D01*
X021172Y007134D01*
X021182Y007085D01*
X021188Y007035D01*
X021190Y006985D01*
X021188Y006935D01*
X021182Y006885D01*
X021172Y006836D01*
X021159Y006787D01*
X021141Y006740D01*
X021120Y006694D01*
X021096Y006651D01*
X021068Y006609D01*
X021037Y006569D01*
X021003Y006532D01*
X020966Y006498D01*
X020926Y006467D01*
X020884Y006439D01*
X020841Y006415D01*
X020795Y006394D01*
X020748Y006376D01*
X020699Y006363D01*
X020650Y006353D01*
X020600Y006347D01*
X020550Y006345D01*
X020500Y006347D01*
X020450Y006353D01*
X020401Y006363D01*
X020352Y006376D01*
X020305Y006394D01*
X020259Y006415D01*
X020216Y006439D01*
X020174Y006467D01*
X020134Y006498D01*
X020097Y006532D01*
X020063Y006569D01*
X020032Y006609D01*
X020004Y006651D01*
X019980Y006694D01*
X019959Y006740D01*
X019941Y006787D01*
X019928Y006836D01*
X019918Y006885D01*
X019912Y006935D01*
X019910Y006985D01*
X023910Y006985D02*
X023912Y007035D01*
X023918Y007085D01*
X023928Y007134D01*
X023941Y007183D01*
X023959Y007230D01*
X023980Y007276D01*
X024004Y007319D01*
X024032Y007361D01*
X024063Y007401D01*
X024097Y007438D01*
X024134Y007472D01*
X024174Y007503D01*
X024216Y007531D01*
X024259Y007555D01*
X024305Y007576D01*
X024352Y007594D01*
X024401Y007607D01*
X024450Y007617D01*
X024500Y007623D01*
X024550Y007625D01*
X024600Y007623D01*
X024650Y007617D01*
X024699Y007607D01*
X024748Y007594D01*
X024795Y007576D01*
X024841Y007555D01*
X024884Y007531D01*
X024926Y007503D01*
X024966Y007472D01*
X025003Y007438D01*
X025037Y007401D01*
X025068Y007361D01*
X025096Y007319D01*
X025120Y007276D01*
X025141Y007230D01*
X025159Y007183D01*
X025172Y007134D01*
X025182Y007085D01*
X025188Y007035D01*
X025190Y006985D01*
X025188Y006935D01*
X025182Y006885D01*
X025172Y006836D01*
X025159Y006787D01*
X025141Y006740D01*
X025120Y006694D01*
X025096Y006651D01*
X025068Y006609D01*
X025037Y006569D01*
X025003Y006532D01*
X024966Y006498D01*
X024926Y006467D01*
X024884Y006439D01*
X024841Y006415D01*
X024795Y006394D01*
X024748Y006376D01*
X024699Y006363D01*
X024650Y006353D01*
X024600Y006347D01*
X024550Y006345D01*
X024500Y006347D01*
X024450Y006353D01*
X024401Y006363D01*
X024352Y006376D01*
X024305Y006394D01*
X024259Y006415D01*
X024216Y006439D01*
X024174Y006467D01*
X024134Y006498D01*
X024097Y006532D01*
X024063Y006569D01*
X024032Y006609D01*
X024004Y006651D01*
X023980Y006694D01*
X023959Y006740D01*
X023941Y006787D01*
X023928Y006836D01*
X023918Y006885D01*
X023912Y006935D01*
X023910Y006985D01*
X026410Y006985D02*
X026412Y007035D01*
X026418Y007085D01*
X026428Y007134D01*
X026441Y007183D01*
X026459Y007230D01*
X026480Y007276D01*
X026504Y007319D01*
X026532Y007361D01*
X026563Y007401D01*
X026597Y007438D01*
X026634Y007472D01*
X026674Y007503D01*
X026716Y007531D01*
X026759Y007555D01*
X026805Y007576D01*
X026852Y007594D01*
X026901Y007607D01*
X026950Y007617D01*
X027000Y007623D01*
X027050Y007625D01*
X027100Y007623D01*
X027150Y007617D01*
X027199Y007607D01*
X027248Y007594D01*
X027295Y007576D01*
X027341Y007555D01*
X027384Y007531D01*
X027426Y007503D01*
X027466Y007472D01*
X027503Y007438D01*
X027537Y007401D01*
X027568Y007361D01*
X027596Y007319D01*
X027620Y007276D01*
X027641Y007230D01*
X027659Y007183D01*
X027672Y007134D01*
X027682Y007085D01*
X027688Y007035D01*
X027690Y006985D01*
X027688Y006935D01*
X027682Y006885D01*
X027672Y006836D01*
X027659Y006787D01*
X027641Y006740D01*
X027620Y006694D01*
X027596Y006651D01*
X027568Y006609D01*
X027537Y006569D01*
X027503Y006532D01*
X027466Y006498D01*
X027426Y006467D01*
X027384Y006439D01*
X027341Y006415D01*
X027295Y006394D01*
X027248Y006376D01*
X027199Y006363D01*
X027150Y006353D01*
X027100Y006347D01*
X027050Y006345D01*
X027000Y006347D01*
X026950Y006353D01*
X026901Y006363D01*
X026852Y006376D01*
X026805Y006394D01*
X026759Y006415D01*
X026716Y006439D01*
X026674Y006467D01*
X026634Y006498D01*
X026597Y006532D01*
X026563Y006569D01*
X026532Y006609D01*
X026504Y006651D01*
X026480Y006694D01*
X026459Y006740D01*
X026441Y006787D01*
X026428Y006836D01*
X026418Y006885D01*
X026412Y006935D01*
X026410Y006985D01*
X030410Y006985D02*
X030412Y007035D01*
X030418Y007085D01*
X030428Y007134D01*
X030441Y007183D01*
X030459Y007230D01*
X030480Y007276D01*
X030504Y007319D01*
X030532Y007361D01*
X030563Y007401D01*
X030597Y007438D01*
X030634Y007472D01*
X030674Y007503D01*
X030716Y007531D01*
X030759Y007555D01*
X030805Y007576D01*
X030852Y007594D01*
X030901Y007607D01*
X030950Y007617D01*
X031000Y007623D01*
X031050Y007625D01*
X031100Y007623D01*
X031150Y007617D01*
X031199Y007607D01*
X031248Y007594D01*
X031295Y007576D01*
X031341Y007555D01*
X031384Y007531D01*
X031426Y007503D01*
X031466Y007472D01*
X031503Y007438D01*
X031537Y007401D01*
X031568Y007361D01*
X031596Y007319D01*
X031620Y007276D01*
X031641Y007230D01*
X031659Y007183D01*
X031672Y007134D01*
X031682Y007085D01*
X031688Y007035D01*
X031690Y006985D01*
X031688Y006935D01*
X031682Y006885D01*
X031672Y006836D01*
X031659Y006787D01*
X031641Y006740D01*
X031620Y006694D01*
X031596Y006651D01*
X031568Y006609D01*
X031537Y006569D01*
X031503Y006532D01*
X031466Y006498D01*
X031426Y006467D01*
X031384Y006439D01*
X031341Y006415D01*
X031295Y006394D01*
X031248Y006376D01*
X031199Y006363D01*
X031150Y006353D01*
X031100Y006347D01*
X031050Y006345D01*
X031000Y006347D01*
X030950Y006353D01*
X030901Y006363D01*
X030852Y006376D01*
X030805Y006394D01*
X030759Y006415D01*
X030716Y006439D01*
X030674Y006467D01*
X030634Y006498D01*
X030597Y006532D01*
X030563Y006569D01*
X030532Y006609D01*
X030504Y006651D01*
X030480Y006694D01*
X030459Y006740D01*
X030441Y006787D01*
X030428Y006836D01*
X030418Y006885D01*
X030412Y006935D01*
X030410Y006985D01*
D22*
X030550Y009930D03*
X031050Y009930D03*
X030050Y009930D03*
X029550Y009930D03*
X029050Y009930D03*
X028550Y009930D03*
X028050Y009930D03*
X027550Y009930D03*
X027050Y009930D03*
X027050Y013540D03*
X027550Y013540D03*
X028050Y013540D03*
X028550Y013540D03*
X029050Y013540D03*
X029550Y013540D03*
X030050Y013540D03*
X030550Y013540D03*
X031050Y013555D03*
X012050Y013555D03*
X011550Y013540D03*
X011050Y013540D03*
X010550Y013540D03*
X010050Y013540D03*
X009550Y013540D03*
X009050Y013540D03*
X008550Y013540D03*
X008050Y013540D03*
X008050Y009930D03*
X008550Y009930D03*
X009050Y009930D03*
X009550Y009930D03*
X010050Y009930D03*
X010550Y009930D03*
X011050Y009930D03*
X011550Y009930D03*
X012050Y009930D03*
D23*
X005550Y008914D03*
X001416Y011985D03*
X005550Y015056D03*
D24*
X002204Y015056D03*
X002204Y008914D03*
D25*
X005019Y010922D03*
X003581Y011001D03*
X003581Y012969D03*
X005019Y013048D03*
D26*
X005050Y016985D03*
X006050Y016985D03*
X006050Y006485D03*
X005050Y006485D03*
X005050Y003735D03*
X006050Y003735D03*
X033550Y016985D03*
X034550Y016985D03*
D27*
X004601Y018485D03*
X003499Y018485D03*
X002999Y006235D03*
X004101Y006235D03*
X004101Y004985D03*
X002999Y004985D03*
D28*
X001550Y017717D03*
X001550Y019253D03*
D29*
X003400Y019985D03*
X004700Y019985D03*
D30*
X033250Y008576D03*
X034550Y008576D03*
X034550Y007395D03*
X033250Y007395D03*
D31*
X017050Y010975D03*
X017050Y013034D03*
D32*
X012800Y013555D02*
X012300Y013485D01*
X012050Y013555D02*
X012800Y013555D01*
X030980Y014555D02*
X031050Y013555D01*
X031300Y014485D02*
X030980Y014555D01*
D33*
X029800Y019985D02*
X029800Y021485D01*
X023300Y021485D02*
X023300Y019985D01*
X016800Y019985D02*
X016800Y021485D01*
X012800Y017985D02*
X012800Y013885D01*
X012800Y013555D01*
X012550Y013485D02*
X012300Y013485D01*
X012800Y017985D02*
X010800Y017985D01*
X010800Y018735D01*
X010300Y019985D02*
X010300Y021485D01*
X008800Y003485D02*
X008800Y003245D01*
X008800Y001985D01*
X015300Y001985D02*
X015300Y003485D01*
X021800Y003485D02*
X021800Y001985D01*
X028300Y001985D02*
X028300Y003485D01*
D34*
X028300Y001985D02*
X021800Y001985D01*
X015300Y001985D01*
X008800Y001985D01*
X005020Y013048D02*
X005020Y013734D01*
X005019Y013767D02*
X003550Y015235D01*
X003550Y016485D01*
X001550Y016485D01*
X001550Y017717D01*
X001550Y019253D02*
X001550Y021485D01*
X010300Y021485D01*
X016800Y021485D01*
X023300Y021485D01*
X029800Y021485D01*
X036550Y021485D01*
X036550Y008125D01*
X036550Y001985D01*
X028300Y001985D01*
X031300Y014485D02*
X032300Y014485D01*
X032300Y017985D01*
X030300Y017985D01*
X030300Y018985D01*
X005020Y013048D02*
X005019Y013048D01*
D35*
X005030Y013485D02*
X005020Y013734D01*
X005019Y013767D01*
X008050Y013540D02*
X008070Y013485D01*
X008310Y013245D01*
X008550Y013485D01*
X008550Y013540D01*
X008310Y013245D02*
X009350Y012205D01*
X010710Y012205D01*
X011310Y013285D02*
X011510Y013485D01*
X011550Y013540D01*
X011510Y013565D01*
X011310Y013285D02*
X012630Y011965D01*
X014390Y011965D02*
X015990Y011965D01*
X016150Y011805D01*
X017750Y011805D01*
X018470Y012525D01*
X018470Y013165D01*
X018470Y013725D02*
X019270Y012925D01*
X019298Y012873D01*
X019510Y013085D02*
X019521Y013096D01*
X019510Y013085D02*
X018470Y014125D01*
X018470Y013725D02*
X015990Y013725D01*
X015590Y013325D01*
X014390Y013325D01*
X013990Y013885D02*
X013999Y013985D01*
X013830Y013885D01*
X012800Y013885D01*
X013910Y013885D02*
X013999Y013985D01*
X013990Y013965D01*
X013990Y013885D02*
X013990Y010045D01*
X013999Y009985D01*
X014070Y009965D01*
X014630Y009405D01*
X019510Y009405D01*
X019510Y009245D01*
X020070Y008685D01*
X020070Y009085D02*
X020710Y009085D01*
X020870Y009245D01*
X022390Y009245D01*
X022790Y009405D02*
X022790Y007805D01*
X022550Y007565D01*
X022550Y007536D01*
X023350Y006525D02*
X025110Y004765D01*
X025750Y004845D02*
X025800Y004786D01*
X025750Y004845D02*
X025750Y006125D01*
X025830Y006125D01*
X025750Y006125D02*
X025750Y007485D01*
X025190Y008045D01*
X025190Y009565D01*
X023750Y011005D01*
X022950Y011005D01*
X022630Y011325D01*
X022579Y011374D01*
X022356Y011151D02*
X022390Y011085D01*
X022950Y010525D01*
X022950Y009645D01*
X023350Y009245D01*
X023350Y006525D01*
X022550Y006434D02*
X022550Y005325D01*
X023350Y004525D01*
X023300Y004485D01*
X022790Y004685D02*
X022790Y003485D01*
X022800Y003485D01*
X022790Y004685D02*
X022470Y005005D01*
X021110Y005005D01*
X019830Y003725D01*
X019350Y003725D01*
X019300Y003684D01*
X019300Y004786D02*
X019430Y005005D01*
X019430Y007565D01*
X019750Y007885D01*
X019910Y007885D01*
X020870Y008845D01*
X021030Y008845D01*
X020070Y009085D02*
X019830Y009325D01*
X019830Y009885D01*
X020390Y010445D01*
X020412Y010483D01*
X020634Y010261D02*
X020630Y010205D01*
X020630Y009885D01*
X020230Y009485D01*
X019510Y009405D02*
X019510Y010045D01*
X020150Y010685D01*
X020189Y010706D01*
X020230Y010765D01*
X020470Y011005D01*
X020470Y011085D01*
X020270Y011285D01*
X021430Y012445D01*
X021510Y012445D01*
X022310Y013245D01*
X022356Y013319D01*
X022390Y013325D01*
X022134Y013541D02*
X022070Y013485D01*
X021670Y013085D01*
X021590Y013085D01*
X021190Y013005D02*
X019590Y011405D01*
X019521Y011374D01*
X019510Y011325D01*
X019270Y011085D01*
X019270Y011005D01*
X019270Y010925D01*
X019030Y010685D01*
X019270Y011005D02*
X019590Y010685D01*
X019750Y010685D01*
X019990Y010925D01*
X019966Y010929D01*
X019744Y011151D02*
X019750Y011165D01*
X019990Y011405D01*
X020150Y011405D01*
X020270Y011285D01*
X021030Y010765D02*
X021430Y010765D01*
X021670Y010525D01*
X021688Y010483D01*
X021910Y010685D02*
X021911Y010706D01*
X021910Y010685D02*
X022150Y010445D01*
X022150Y010045D01*
X022790Y009405D01*
X021990Y009645D02*
X021990Y009725D01*
X021510Y010205D01*
X021466Y010261D01*
X023660Y010345D02*
X023670Y010285D01*
X023670Y008925D01*
X023750Y008845D01*
X024470Y010765D02*
X025990Y009245D01*
X026230Y008525D02*
X026630Y008525D01*
X027190Y007965D01*
X027830Y007965D01*
X028950Y009085D01*
X030710Y009085D01*
X031030Y009405D01*
X031030Y009885D01*
X031050Y009930D01*
X030550Y009930D02*
X030550Y009405D01*
X033250Y008576D02*
X033270Y008525D01*
X033830Y008525D01*
X033830Y008445D01*
X034150Y008125D01*
X036550Y008125D01*
X034550Y008576D02*
X034550Y010685D01*
X034310Y010925D01*
X034300Y010985D01*
X030950Y011645D02*
X029510Y013085D01*
X029510Y013405D01*
X029550Y013540D01*
X029510Y013485D01*
X029110Y013565D02*
X029050Y013540D01*
X029110Y013565D02*
X029110Y014125D01*
X029350Y014365D01*
X029350Y014765D01*
X029910Y014765D02*
X030550Y014125D01*
X030550Y013540D01*
X030050Y013540D02*
X029990Y013405D01*
X029990Y013085D01*
X030310Y012765D01*
X030390Y012765D01*
X030950Y012205D01*
X029990Y013485D02*
X030050Y013540D01*
X028550Y013565D02*
X028550Y013540D01*
X028550Y013565D02*
X028390Y013565D01*
X028070Y013565D01*
X028050Y013540D01*
X027590Y013485D02*
X027550Y013540D01*
X027510Y013565D01*
X027110Y013565D01*
X027050Y013540D01*
X027590Y013485D02*
X027590Y012205D01*
X025110Y011805D02*
X025110Y013245D01*
X024470Y013885D01*
X023830Y013885D01*
X023660Y013875D01*
X023670Y013965D01*
X023670Y014525D01*
X023430Y014765D01*
X022470Y014765D01*
X021750Y014045D01*
X021688Y013987D01*
X021670Y013965D01*
X021190Y013485D01*
X021190Y013005D01*
X020790Y013405D02*
X020550Y013405D01*
X020230Y013725D01*
X020189Y013764D01*
X019966Y013541D02*
X019910Y013565D01*
X019350Y014125D01*
X019350Y016925D01*
X016550Y017036D02*
X016550Y018045D01*
X015830Y018765D01*
X015830Y019965D01*
X015800Y019985D01*
X010870Y018925D02*
X010800Y018735D01*
X010870Y018925D02*
X010800Y018985D01*
X009990Y018125D02*
X009350Y018765D01*
X009350Y019965D01*
X009300Y019985D01*
X007190Y018525D02*
X009350Y016365D01*
X009990Y017085D02*
X010050Y017036D01*
X009990Y017085D02*
X009990Y018125D01*
X007190Y018525D02*
X004710Y018525D01*
X004601Y018485D01*
X004630Y018525D01*
X004630Y019965D01*
X004700Y019985D01*
X003400Y019985D02*
X003350Y019965D01*
X003350Y019325D01*
X002950Y018925D01*
X002950Y018045D01*
X004470Y016525D01*
X005590Y016525D01*
X006050Y016985D01*
X005050Y016985D02*
X005030Y016925D01*
X003510Y018445D01*
X003499Y018485D01*
X009030Y013565D02*
X010230Y014765D01*
X010070Y013565D02*
X010050Y013540D01*
X010470Y013565D02*
X010550Y013540D01*
X011050Y013540D02*
X011110Y013485D01*
X011310Y013285D01*
X011110Y013565D02*
X011050Y013540D01*
X009550Y013540D02*
X009510Y013485D01*
X009310Y013285D01*
X009110Y013485D01*
X009050Y013540D01*
X009030Y013565D01*
X012050Y009930D02*
X012070Y009885D01*
X012950Y009885D01*
X013430Y009405D01*
X015101Y009985D02*
X015110Y010045D01*
X015110Y010525D01*
X017350Y010525D01*
X017050Y010975D01*
X017030Y010925D01*
X017830Y010125D01*
X018150Y010125D01*
X018390Y010365D01*
X018390Y010685D01*
X019270Y011565D01*
X019298Y011597D01*
X019076Y011820D02*
X019110Y011885D01*
X019430Y012205D01*
X019590Y012205D01*
X019030Y012205D02*
X017990Y011165D01*
X017990Y010525D01*
X015550Y011434D02*
X015510Y011405D01*
X015110Y011005D01*
X015110Y010525D01*
X017590Y012205D02*
X017590Y012525D01*
X017110Y013005D01*
X017050Y013034D01*
X017430Y012605D01*
X015590Y012605D01*
X015550Y012536D01*
X015670Y013965D02*
X015190Y013965D01*
X015101Y013985D01*
X015110Y013965D01*
X015670Y013965D02*
X015750Y014045D01*
X019030Y012605D02*
X019030Y012205D01*
X019030Y012605D02*
X019076Y012651D01*
X019744Y013319D02*
X019750Y013325D01*
X020310Y012765D01*
X022230Y012525D02*
X022470Y012525D01*
X022790Y012845D01*
X022802Y012873D01*
X023660Y013875D02*
X023750Y013885D01*
X024390Y013085D02*
X024440Y013095D01*
X024390Y013085D02*
X024230Y012925D01*
X024230Y012285D01*
X025110Y011805D02*
X024470Y011165D01*
X024440Y011125D01*
X024470Y011085D01*
X024470Y010765D01*
X025750Y010045D02*
X026230Y010525D01*
X029550Y007536D02*
X029590Y007485D01*
X030150Y006925D01*
X030150Y005485D01*
X029350Y004685D01*
X029350Y003485D01*
X029300Y003485D01*
X029110Y003005D02*
X028790Y003325D01*
X028790Y003645D01*
X028470Y003965D01*
X028070Y003965D01*
X027830Y003725D01*
X025830Y003725D01*
X025800Y003684D01*
X029110Y003005D02*
X033110Y003005D01*
X033990Y003885D01*
X034050Y003934D01*
X034070Y003965D01*
X034630Y003965D01*
X034630Y005485D01*
X034550Y005565D01*
X034550Y007395D01*
X034550Y007405D01*
X033270Y007405D01*
X033250Y007395D01*
X033190Y007405D01*
X032310Y007405D01*
X029550Y006434D02*
X029510Y006365D01*
X028550Y006365D01*
X029800Y004485D02*
X029830Y004445D01*
X030310Y003965D01*
X032550Y003965D01*
X032550Y003934D01*
X031910Y004445D02*
X032470Y005005D01*
X032550Y005036D01*
X032550Y005085D01*
X033910Y005085D01*
X034050Y005036D01*
X034630Y003965D02*
X035510Y003965D01*
X035550Y003934D01*
X019430Y004925D02*
X019350Y004845D01*
X019300Y004786D01*
X008800Y003485D02*
X008630Y003485D01*
X006710Y005405D01*
X006710Y006445D01*
X006230Y006925D01*
X003830Y006925D01*
X003190Y006285D01*
X003030Y006285D01*
X002999Y006235D01*
X004101Y006235D02*
X004150Y006285D01*
X004870Y006285D01*
X005030Y006445D01*
X005050Y006485D01*
X004710Y005485D02*
X004150Y004925D01*
X004101Y004985D01*
X002999Y004985D02*
X002950Y005005D01*
X002310Y005005D01*
X001350Y005965D01*
X001300Y005985D01*
X001300Y004985D02*
X001350Y004925D01*
X001990Y004925D01*
X002710Y004205D01*
X005590Y004205D01*
X005990Y003805D01*
X006050Y003735D01*
X008800Y003245D02*
X003270Y003245D01*
X002550Y003965D01*
X001430Y003965D01*
X001300Y003985D01*
X001350Y003965D01*
X023030Y015885D02*
X023050Y015934D01*
X023030Y015885D02*
X024950Y013965D01*
X023050Y017036D02*
X023030Y017085D01*
X023030Y018045D01*
X022310Y018765D01*
X022310Y019965D01*
X022300Y019985D01*
X028790Y019965D02*
X028790Y018845D01*
X029510Y018125D01*
X029510Y017165D01*
X029550Y017036D01*
X029510Y017085D01*
X028790Y019965D02*
X028800Y019985D01*
D36*
X024790Y018685D03*
X020070Y018685D03*
X019350Y016925D03*
X020150Y015405D03*
X021990Y014845D03*
X022310Y015885D03*
X022870Y013965D03*
X021590Y013085D03*
X020790Y013405D03*
X020310Y012765D03*
X019590Y012205D03*
X018470Y013165D03*
X017590Y012205D03*
X019030Y010685D03*
X017990Y010525D03*
X020230Y009485D03*
X021030Y008845D03*
X020070Y008685D03*
X021990Y009645D03*
X022390Y009245D03*
X022550Y010205D03*
X021030Y010765D03*
X021590Y012045D03*
X022230Y012525D03*
X024230Y012285D03*
X024710Y012045D03*
X025350Y013645D03*
X024950Y013965D03*
X027190Y014765D03*
X027750Y014765D03*
X028310Y014765D03*
X029350Y014765D03*
X029910Y014765D03*
X030950Y012205D03*
X030950Y011645D03*
X030150Y011245D03*
X028870Y011805D03*
X028310Y011725D03*
X027590Y012205D03*
X026230Y010525D03*
X025750Y010045D03*
X025990Y009245D03*
X026230Y008525D03*
X027350Y008365D03*
X027830Y008765D03*
X028070Y007645D03*
X028550Y006365D03*
X025830Y006125D03*
X025110Y004765D03*
X023750Y008845D03*
X015830Y006125D03*
X013430Y009405D03*
X009270Y007805D03*
X008310Y008765D03*
X012630Y011965D03*
X014390Y011965D03*
X014390Y013325D03*
X015750Y014045D03*
X015990Y014525D03*
X018470Y014125D03*
X015030Y017085D03*
X013350Y014525D03*
X010470Y015325D03*
X010230Y014765D03*
X009350Y016365D03*
X009350Y017325D03*
X006310Y018925D03*
X010710Y012205D03*
X004710Y005485D03*
X031910Y004445D03*
X032310Y007405D03*
D37*
X032790Y008285D02*
X033190Y007885D01*
X034790Y007885D01*
X035510Y007165D01*
X035510Y005085D01*
X035550Y005036D01*
X032790Y008285D02*
X032790Y009885D01*
X033750Y010845D01*
X033750Y012525D01*
X033350Y012925D01*
X033300Y012985D01*
X034310Y012365D02*
X035670Y013725D01*
X035670Y020845D01*
X035590Y020925D01*
X031350Y020925D01*
X029990Y019565D01*
X029590Y019565D01*
X029270Y019885D01*
X029270Y020125D01*
X028950Y020445D01*
X024390Y020445D01*
X023510Y019565D01*
X023110Y019565D01*
X022710Y019965D01*
X022710Y020205D01*
X022470Y020445D01*
X017910Y020445D01*
X017030Y019565D01*
X016630Y019565D01*
X016230Y019965D01*
X016230Y020205D01*
X015990Y020445D01*
X014630Y020445D01*
X014390Y020205D01*
X014390Y018205D01*
X015430Y017165D01*
X015430Y015485D01*
X018630Y015485D01*
X018870Y015725D01*
X018870Y016925D01*
X019270Y017325D01*
X019430Y017325D01*
X019750Y017005D01*
X019750Y014685D01*
X020390Y014045D01*
X020412Y013987D01*
X020634Y014210D02*
X020630Y014285D01*
X020630Y014925D01*
X020150Y015405D01*
X021510Y014285D02*
X021466Y014210D01*
X021510Y014285D02*
X021990Y014765D01*
X021990Y014845D01*
X022870Y013965D02*
X023190Y013645D01*
X023190Y012845D01*
X023030Y012685D01*
X023024Y012651D01*
X023030Y011885D02*
X023024Y011820D01*
X023030Y011885D02*
X024550Y011885D01*
X024710Y012045D01*
X022802Y011597D02*
X022790Y011645D01*
X022390Y012045D01*
X021590Y012045D01*
X022134Y010929D02*
X022150Y010925D01*
X022550Y010525D01*
X022550Y010205D01*
X025350Y013645D02*
X025350Y014045D01*
X023590Y015805D01*
X023590Y016365D01*
X023430Y016525D01*
X022630Y016525D01*
X020470Y018685D01*
X020470Y018765D01*
X020150Y019085D01*
X019030Y019085D01*
X017110Y017165D01*
X017110Y016525D01*
X016550Y015965D01*
X016550Y015934D01*
X015430Y015485D02*
X013430Y015485D01*
X013190Y015725D01*
X013190Y018205D01*
X011990Y019405D01*
X010630Y019405D01*
X010390Y019165D01*
X010390Y017645D01*
X010710Y017325D01*
X010710Y015565D01*
X010870Y015405D01*
X010870Y014445D01*
X010070Y013645D01*
X010050Y013540D01*
X010150Y013565D01*
X010470Y013565D01*
X010470Y015325D02*
X010470Y015485D01*
X010070Y015885D01*
X010050Y015934D01*
X013350Y014525D02*
X015990Y014525D01*
X015030Y017085D02*
X012470Y019645D01*
X010550Y019645D01*
X010470Y019565D01*
X010070Y019565D01*
X009750Y019885D01*
X009750Y020125D01*
X009430Y020445D01*
X007830Y020445D01*
X006310Y018925D01*
X027190Y014765D02*
X027670Y014285D01*
X027750Y014285D01*
X028390Y013645D01*
X028390Y013565D01*
X028150Y013485D02*
X028050Y013540D01*
X028150Y013485D02*
X028870Y012765D01*
X029110Y012765D01*
X030630Y011245D01*
X031030Y011245D01*
X031750Y011965D01*
X033270Y011965D01*
X033300Y011985D01*
X034300Y011985D02*
X034310Y012045D01*
X034310Y012365D01*
X029510Y015485D02*
X029510Y015885D01*
X029550Y015934D01*
X029510Y015485D02*
X028390Y014365D01*
X028150Y014365D01*
X027750Y014765D01*
D38*
X028310Y014765D02*
X028310Y018925D01*
X028300Y018985D01*
X026150Y016605D02*
X026150Y013005D01*
X028390Y010765D01*
X028790Y010765D01*
X029030Y010525D01*
X029030Y009965D01*
X029050Y009930D01*
X029510Y009965D02*
X029550Y009930D01*
X029510Y009965D02*
X029510Y010525D01*
X028310Y011725D01*
X028870Y011645D02*
X029990Y010525D01*
X029990Y009965D01*
X030050Y009930D01*
X030470Y009965D02*
X030550Y009930D01*
X030470Y009965D02*
X030470Y010525D01*
X030150Y010845D01*
X030150Y011245D01*
X028870Y011645D02*
X028870Y011805D01*
X028550Y009930D02*
X028550Y009885D01*
X028310Y009645D01*
X028070Y009885D01*
X028050Y009930D01*
X028310Y009645D02*
X027830Y009165D01*
X027830Y008765D01*
X027350Y008365D02*
X027350Y009725D01*
X027270Y009725D01*
X027110Y009885D01*
X027050Y009930D01*
X027350Y009725D02*
X027510Y009885D01*
X027550Y009930D01*
X028070Y007645D02*
X028070Y006045D01*
X026230Y004205D01*
X025270Y004205D01*
X024070Y003005D01*
X022550Y003005D01*
X022310Y003245D01*
X022310Y003725D01*
X022070Y003965D01*
X021590Y003965D01*
X020630Y003005D01*
X017030Y003005D01*
X016550Y003485D01*
X016300Y003485D01*
X015800Y004485D02*
X015830Y004525D01*
X015830Y006125D01*
X016790Y005965D02*
X013830Y008925D01*
X011990Y008925D01*
X011270Y009645D01*
X011510Y009885D01*
X011550Y009930D01*
X011270Y009645D02*
X011030Y009885D01*
X011050Y009930D01*
X010550Y009930D02*
X010470Y009965D01*
X010070Y009965D01*
X010050Y009930D01*
X009590Y009885D02*
X009550Y009930D01*
X009590Y009885D02*
X009350Y009645D01*
X009110Y009885D01*
X009050Y009930D01*
X009350Y009645D02*
X008790Y009085D01*
X008790Y004285D01*
X009590Y003485D01*
X009800Y003485D01*
X010070Y003965D02*
X010470Y003965D01*
X010790Y004285D01*
X010790Y006045D01*
X010550Y006285D01*
X010550Y009930D01*
X008550Y009885D02*
X008550Y009930D01*
X008550Y009885D02*
X008310Y009645D01*
X008070Y009885D01*
X008050Y009930D01*
X008310Y009645D02*
X008310Y008765D01*
X009270Y007805D02*
X010230Y006845D01*
X010230Y004525D01*
X010300Y004485D01*
X010070Y003965D02*
X009590Y004445D01*
X009350Y004445D01*
X009300Y004485D01*
X016790Y004525D02*
X016800Y004485D01*
X016790Y004525D02*
X016790Y005965D01*
X022310Y015885D02*
X022310Y016445D01*
X020070Y018685D01*
X024790Y018685D02*
X024790Y017965D01*
X026150Y016605D01*
X009350Y017325D02*
X008870Y017805D01*
X008870Y018925D01*
X008800Y018985D01*
M02*
