%
M48
M72
T01C0.0240
T02C0.0320
T03C0.0354
T04C0.0360
T05C0.0400
T06C0.0669
T07C0.0787
T08C0.0866
T09C0.1280
%
T01
X4710Y5485
X9270Y7805
X8310Y8765
X13430Y9405
X12630Y11965
X14390Y11965
X14390Y13325
X15750Y14045
X15990Y14525
X18470Y14125
X18470Y13165
X17590Y12205
X19590Y12205
X20310Y12765
X20790Y13405
X21590Y13085
X22230Y12525
X21590Y12045
X21030Y10765
X22550Y10205
X21990Y9645
X22390Y9245
X21030Y8845
X20070Y8685
X20230Y9485
X19030Y10685
X17990Y10525
X22870Y13965
X21990Y14845
X22310Y15885
X20150Y15405
X19350Y16925
X20070Y18685
X24790Y18685
X27190Y14765
X27750Y14765
X28310Y14765
X29350Y14765
X29910Y14765
X30950Y12205
X30950Y11645
X30150Y11245
X28870Y11805
X28310Y11725
X27590Y12205
X25350Y13645
X24950Y13965
X24230Y12285
X24710Y12045
X26230Y10525
X25750Y10045
X25990Y9245
X26230Y8525
X27350Y8365
X27830Y8765
X28070Y7645
X28550Y6365
X25830Y6125
X25110Y4765
X23750Y8845
X15830Y6125
X10710Y12205
X13350Y14525
X10470Y15325
X10230Y14765
X9350Y16365
X9350Y17325
X6310Y18925
X15030Y17085
X32310Y7405
X31910Y4445
T02
X5050Y3735
X6050Y3735
X6050Y6485
X5050Y6485
X5050Y16985
X6050Y16985
X33550Y16985
X34550Y16985
T03
X30300Y18985
X29300Y18985
X28300Y18985
X27800Y19985
X28800Y19985
X29800Y19985
X23800Y18985
X22800Y18985
X21800Y18985
X21300Y19985
X22300Y19985
X23300Y19985
X17300Y18985
X16300Y18985
X15300Y18985
X14800Y19985
X15800Y19985
X16800Y19985
X10800Y18985
X9800Y18985
X8800Y18985
X8300Y19985
X9300Y19985
X10300Y19985
X10300Y4485
X9300Y4485
X8300Y4485
X8800Y3485
X9800Y3485
X10800Y3485
X14800Y4485
X15800Y4485
X16800Y4485
X16300Y3485
X17300Y3485
X15300Y3485
X21300Y4485
X22300Y4485
X23300Y4485
X22800Y3485
X21800Y3485
X23800Y3485
X27800Y4485
X28800Y4485
X29800Y4485
X29300Y3485
X28300Y3485
X30300Y3485
T04
X33300Y10985
X34300Y10985
X34300Y11985
X33300Y11985
X33300Y12985
X34300Y12985
T05
X1300Y5985
X1300Y4985
X1300Y3985
T06
X2204Y11001
X2204Y12969
T07
X1416Y11985
X3581Y11001
X5019Y10922
X5550Y8914
X3581Y12969
X5019Y13048
X5550Y15056
T08
X2204Y15056
X2204Y8914
T09
X7550Y6985
X11550Y6985
X14050Y6985
X18050Y6985
X20550Y6985
X24550Y6985
X27050Y6985
X31050Y6985
X31050Y16485
X27050Y16485
X24550Y16485
X20550Y16485
X18050Y16485
X14050Y16485
X11550Y16485
X7550Y16485
M30
