G75*
G70*
%OFA0B0*%
%FSLAX24Y24*%
%IPPOS*%
%LPD*%
%AMOC8*
5,1,8,0,0,1.08239X$1,22.5*
%
%ADD10C,0.0050*%
%ADD11C,0.0160*%
%ADD12R,0.0200X0.0200*%
%ADD13C,0.0080*%
%ADD14C,0.0060*%
%ADD15C,0.0010*%
%ADD16R,0.0364X0.0450*%
%ADD17C,0.0040*%
%ADD18C,0.0100*%
%ADD19R,0.0230X0.0720*%
%ADD20R,0.1299X0.0374*%
D10*
X000800Y003485D02*
X001800Y003485D01*
X001800Y006485D01*
X000800Y006485D01*
X000800Y005985D01*
X000800Y003985D02*
X000800Y003485D01*
X000826Y008914D02*
X006337Y008914D01*
X006337Y015135D01*
X000826Y015135D01*
X000826Y008914D01*
D11*
X000800Y005985D02*
X000800Y003985D01*
X000745Y004024D01*
X000692Y004066D01*
X000642Y004111D01*
X000594Y004159D01*
X000549Y004209D01*
X000507Y004262D01*
X000468Y004317D01*
X000432Y004374D01*
X000399Y004433D01*
X000370Y004494D01*
X000344Y004556D01*
X000322Y004620D01*
X000303Y004684D01*
X000288Y004750D01*
X000277Y004817D01*
X000269Y004884D01*
X000265Y004951D01*
X000265Y005019D01*
X000269Y005086D01*
X000277Y005153D01*
X000288Y005220D01*
X000303Y005286D01*
X000322Y005350D01*
X000344Y005414D01*
X000370Y005476D01*
X000399Y005537D01*
X000432Y005596D01*
X000468Y005653D01*
X000507Y005708D01*
X000549Y005761D01*
X000594Y005811D01*
X000642Y005859D01*
X000692Y005904D01*
X000745Y005946D01*
X000800Y005985D01*
D12*
X001300Y005985D03*
X001300Y004985D03*
X001300Y003985D03*
D13*
X006843Y002726D02*
X006843Y010049D01*
X012257Y010049D01*
X012257Y002726D01*
X006843Y002726D01*
X013343Y002726D02*
X013343Y010049D01*
X018757Y010049D01*
X018757Y002726D01*
X013343Y002726D01*
X019843Y002726D02*
X019843Y010049D01*
X025257Y010049D01*
X025257Y002726D01*
X019843Y002726D01*
X026343Y002726D02*
X026343Y010049D01*
X031757Y010049D01*
X031757Y002726D01*
X026343Y002726D01*
X026343Y013421D02*
X026343Y020745D01*
X031757Y020745D01*
X031757Y013421D01*
X026343Y013421D01*
X025257Y013421D02*
X025257Y020745D01*
X019843Y020745D01*
X019843Y013421D01*
X025257Y013421D01*
X018757Y013421D02*
X018757Y020745D01*
X013343Y020745D01*
X013343Y013421D01*
X018757Y013421D01*
X012257Y013421D02*
X012257Y020745D01*
X006843Y020745D01*
X006843Y013421D01*
X012257Y013421D01*
D14*
X014080Y014765D02*
X014294Y014765D01*
X014187Y014765D02*
X014187Y015406D01*
X014080Y015406D02*
X014294Y015406D01*
X014510Y015299D02*
X014510Y014872D01*
X014616Y014765D01*
X014830Y014765D01*
X014937Y014872D01*
X014937Y015299D01*
X014830Y015406D01*
X014616Y015406D01*
X014510Y015299D01*
X015154Y015299D02*
X015261Y015406D01*
X015475Y015406D01*
X015581Y015299D01*
X015581Y015192D01*
X015154Y014765D01*
X015581Y014765D01*
X020580Y014765D02*
X020794Y014765D01*
X020687Y014765D02*
X020687Y015406D01*
X020580Y015406D02*
X020794Y015406D01*
X021010Y015299D02*
X021010Y014872D01*
X021116Y014765D01*
X021330Y014765D01*
X021437Y014872D01*
X021437Y015299D01*
X021330Y015406D01*
X021116Y015406D01*
X021010Y015299D01*
X021654Y015085D02*
X022081Y015085D01*
X021975Y014765D02*
X021975Y015406D01*
X021654Y015085D01*
X027080Y014765D02*
X027294Y014765D01*
X027187Y014765D02*
X027187Y015406D01*
X027080Y015406D02*
X027294Y015406D01*
X027510Y015299D02*
X027510Y014872D01*
X027616Y014765D01*
X027830Y014765D01*
X027937Y014872D01*
X027937Y015299D01*
X027830Y015406D01*
X027616Y015406D01*
X027510Y015299D01*
X028154Y015299D02*
X028261Y015406D01*
X028475Y015406D01*
X028581Y015299D01*
X028581Y015192D01*
X028475Y015085D01*
X028581Y014979D01*
X028581Y014872D01*
X028475Y014765D01*
X028261Y014765D01*
X028154Y014872D01*
X028368Y015085D02*
X028475Y015085D01*
X034100Y015155D02*
X035000Y015155D01*
X035000Y015815D02*
X034100Y015815D01*
X033602Y016586D02*
X033571Y016624D01*
X033543Y016664D01*
X033519Y016706D01*
X033498Y016749D01*
X033481Y016795D01*
X033468Y016841D01*
X033458Y016889D01*
X033452Y016937D01*
X033450Y016985D01*
X034050Y017585D02*
X034097Y017583D01*
X034145Y017577D01*
X034191Y017568D01*
X034237Y017555D01*
X034281Y017539D01*
X034325Y017518D01*
X034366Y017495D01*
X034405Y017469D01*
X034442Y017439D01*
X034477Y017406D01*
X034509Y017371D01*
X034538Y017334D01*
X034050Y016385D02*
X034005Y016387D01*
X033959Y016392D01*
X033915Y016400D01*
X033871Y016412D01*
X033828Y016428D01*
X033786Y016446D01*
X033746Y016468D01*
X033708Y016492D01*
X033672Y016519D01*
X033637Y016549D01*
X033606Y016582D01*
X033576Y016617D01*
X034650Y016985D02*
X034648Y017032D01*
X034643Y017079D01*
X034633Y017125D01*
X034620Y017171D01*
X034604Y017215D01*
X034584Y017258D01*
X034561Y017299D01*
X034535Y017338D01*
X034506Y017375D01*
X034450Y016985D02*
X034448Y016946D01*
X034442Y016907D01*
X034433Y016869D01*
X034420Y016832D01*
X034403Y016796D01*
X034383Y016763D01*
X034359Y016731D01*
X034333Y016702D01*
X034304Y016676D01*
X034272Y016652D01*
X034239Y016632D01*
X034203Y016615D01*
X034166Y016602D01*
X034128Y016593D01*
X034089Y016587D01*
X034050Y016585D01*
X033450Y016985D02*
X033452Y017031D01*
X033457Y017077D01*
X033466Y017123D01*
X033478Y017167D01*
X033494Y017211D01*
X033513Y017253D01*
X033535Y017294D01*
X033561Y017332D01*
X033589Y017369D01*
X034050Y016385D02*
X034095Y016387D01*
X034141Y016392D01*
X034185Y016400D01*
X034229Y016412D01*
X034272Y016428D01*
X034314Y016446D01*
X034354Y016468D01*
X034392Y016492D01*
X034428Y016519D01*
X034463Y016549D01*
X034494Y016582D01*
X034524Y016617D01*
X034300Y016985D02*
X034298Y016955D01*
X034293Y016925D01*
X034284Y016896D01*
X034271Y016869D01*
X034256Y016843D01*
X034237Y016819D01*
X034216Y016798D01*
X034192Y016779D01*
X034166Y016764D01*
X034139Y016751D01*
X034110Y016742D01*
X034080Y016737D01*
X034050Y016735D01*
X033570Y017345D02*
X033599Y017381D01*
X033631Y017415D01*
X033666Y017446D01*
X033702Y017474D01*
X033741Y017499D01*
X033782Y017522D01*
X033824Y017541D01*
X033867Y017557D01*
X033912Y017569D01*
X033958Y017578D01*
X034004Y017583D01*
X034050Y017585D01*
X034650Y016985D02*
X034648Y016939D01*
X034643Y016893D01*
X034634Y016847D01*
X034622Y016803D01*
X034606Y016759D01*
X034587Y016717D01*
X034565Y016676D01*
X034539Y016638D01*
X034511Y016601D01*
X034050Y017385D02*
X034011Y017383D01*
X033972Y017377D01*
X033934Y017368D01*
X033897Y017355D01*
X033861Y017338D01*
X033828Y017318D01*
X033796Y017294D01*
X033767Y017268D01*
X033741Y017239D01*
X033717Y017207D01*
X033697Y017174D01*
X033680Y017138D01*
X033667Y017101D01*
X033658Y017063D01*
X033652Y017024D01*
X033650Y016985D01*
X033800Y016985D02*
X033802Y017015D01*
X033807Y017045D01*
X033816Y017074D01*
X033829Y017101D01*
X033844Y017127D01*
X033863Y017151D01*
X033884Y017172D01*
X033908Y017191D01*
X033934Y017206D01*
X033961Y017219D01*
X033990Y017228D01*
X034020Y017233D01*
X034050Y017235D01*
X030756Y008706D02*
X030542Y008706D01*
X030435Y008599D01*
X030435Y008172D01*
X030542Y008065D01*
X030756Y008065D01*
X030862Y008172D01*
X030218Y008065D02*
X029791Y008065D01*
X030218Y008492D01*
X030218Y008599D01*
X030111Y008706D01*
X029898Y008706D01*
X029791Y008599D01*
X029575Y008706D02*
X029361Y008706D01*
X029468Y008706D02*
X029468Y008065D01*
X029361Y008065D02*
X029575Y008065D01*
X030756Y008706D02*
X030862Y008599D01*
X024362Y008492D02*
X024362Y008599D01*
X024256Y008706D01*
X024042Y008706D01*
X023935Y008599D01*
X023718Y008599D02*
X023718Y008492D01*
X023611Y008385D01*
X023718Y008279D01*
X023718Y008172D01*
X023611Y008065D01*
X023398Y008065D01*
X023291Y008172D01*
X023073Y008065D02*
X022646Y008065D01*
X023073Y008492D01*
X023073Y008599D01*
X022967Y008706D01*
X022753Y008706D01*
X022646Y008599D01*
X022429Y008599D02*
X022322Y008706D01*
X022109Y008706D01*
X022002Y008599D01*
X022002Y008492D01*
X022109Y008385D01*
X022322Y008385D01*
X022429Y008279D01*
X022429Y008172D01*
X022322Y008065D01*
X022109Y008065D01*
X022002Y008172D01*
X021784Y008065D02*
X021571Y008279D01*
X021678Y008279D02*
X021357Y008279D01*
X021357Y008065D02*
X021357Y008706D01*
X021678Y008706D01*
X021784Y008599D01*
X021784Y008385D01*
X021678Y008279D01*
X023291Y008599D02*
X023398Y008706D01*
X023611Y008706D01*
X023718Y008599D01*
X023611Y008385D02*
X023504Y008385D01*
X023935Y008065D02*
X024362Y008492D01*
X024362Y008065D02*
X023935Y008065D01*
X017862Y008065D02*
X017435Y008065D01*
X017862Y008492D01*
X017862Y008599D01*
X017756Y008706D01*
X017542Y008706D01*
X017435Y008599D01*
X017218Y008599D02*
X017218Y008492D01*
X017111Y008385D01*
X016791Y008385D01*
X016573Y008385D02*
X016573Y008172D01*
X016467Y008065D01*
X016253Y008065D01*
X016146Y008172D01*
X016146Y008599D01*
X016253Y008706D01*
X016467Y008706D01*
X016573Y008599D01*
X016573Y008385D02*
X016360Y008385D01*
X015929Y008385D02*
X015929Y008599D01*
X015822Y008706D01*
X015502Y008706D01*
X015502Y008065D01*
X015502Y008279D02*
X015822Y008279D01*
X015929Y008385D01*
X015715Y008279D02*
X015929Y008065D01*
X016791Y008065D02*
X017111Y008065D01*
X017218Y008172D01*
X017218Y008279D01*
X017111Y008385D01*
X017218Y008599D02*
X017111Y008706D01*
X016791Y008706D01*
X016791Y008065D01*
X011362Y008065D02*
X010935Y008065D01*
X011149Y008065D02*
X011149Y008706D01*
X010935Y008492D01*
X010718Y008492D02*
X010718Y008599D01*
X010611Y008706D01*
X010291Y008706D01*
X010291Y008065D01*
X010611Y008065D01*
X010718Y008172D01*
X010718Y008279D01*
X010611Y008385D01*
X010291Y008385D01*
X010073Y008385D02*
X010073Y008172D01*
X009967Y008065D01*
X009753Y008065D01*
X009646Y008172D01*
X009646Y008599D01*
X009753Y008706D01*
X009967Y008706D01*
X010073Y008599D01*
X010073Y008385D02*
X009860Y008385D01*
X009429Y008385D02*
X009429Y008599D01*
X009322Y008706D01*
X009002Y008706D01*
X009002Y008065D01*
X009002Y008279D02*
X009322Y008279D01*
X009429Y008385D01*
X009215Y008279D02*
X009429Y008065D01*
X010611Y008385D02*
X010718Y008492D01*
X005550Y005885D02*
X005505Y005887D01*
X005459Y005892D01*
X005415Y005900D01*
X005371Y005912D01*
X005328Y005928D01*
X005286Y005946D01*
X005246Y005968D01*
X005208Y005992D01*
X005172Y006019D01*
X005137Y006049D01*
X005106Y006082D01*
X005076Y006117D01*
X005102Y006086D02*
X005071Y006124D01*
X005043Y006164D01*
X005019Y006206D01*
X004998Y006249D01*
X004981Y006295D01*
X004968Y006341D01*
X004958Y006389D01*
X004952Y006437D01*
X004950Y006485D01*
X005550Y007085D02*
X005597Y007083D01*
X005645Y007077D01*
X005691Y007068D01*
X005737Y007055D01*
X005781Y007039D01*
X005825Y007018D01*
X005866Y006995D01*
X005905Y006969D01*
X005942Y006939D01*
X005977Y006906D01*
X006009Y006871D01*
X006038Y006834D01*
X006150Y006485D02*
X006148Y006439D01*
X006143Y006393D01*
X006134Y006347D01*
X006122Y006303D01*
X006106Y006259D01*
X006087Y006217D01*
X006065Y006176D01*
X006039Y006138D01*
X006011Y006101D01*
X006150Y006485D02*
X006148Y006532D01*
X006143Y006579D01*
X006133Y006625D01*
X006120Y006671D01*
X006104Y006715D01*
X006084Y006758D01*
X006061Y006799D01*
X006035Y006838D01*
X006006Y006875D01*
X005950Y006485D02*
X005948Y006446D01*
X005942Y006407D01*
X005933Y006369D01*
X005920Y006332D01*
X005903Y006296D01*
X005883Y006263D01*
X005859Y006231D01*
X005833Y006202D01*
X005804Y006176D01*
X005772Y006152D01*
X005739Y006132D01*
X005703Y006115D01*
X005666Y006102D01*
X005628Y006093D01*
X005589Y006087D01*
X005550Y006085D01*
X004950Y006485D02*
X004952Y006531D01*
X004957Y006577D01*
X004966Y006623D01*
X004978Y006667D01*
X004994Y006711D01*
X005013Y006753D01*
X005035Y006794D01*
X005061Y006832D01*
X005089Y006869D01*
X005550Y005885D02*
X005595Y005887D01*
X005641Y005892D01*
X005685Y005900D01*
X005729Y005912D01*
X005772Y005928D01*
X005814Y005946D01*
X005854Y005968D01*
X005892Y005992D01*
X005928Y006019D01*
X005963Y006049D01*
X005994Y006082D01*
X006024Y006117D01*
X005800Y006485D02*
X005798Y006455D01*
X005793Y006425D01*
X005784Y006396D01*
X005771Y006369D01*
X005756Y006343D01*
X005737Y006319D01*
X005716Y006298D01*
X005692Y006279D01*
X005666Y006264D01*
X005639Y006251D01*
X005610Y006242D01*
X005580Y006237D01*
X005550Y006235D01*
X005070Y006845D02*
X005099Y006881D01*
X005131Y006915D01*
X005166Y006946D01*
X005202Y006974D01*
X005241Y006999D01*
X005282Y007022D01*
X005324Y007041D01*
X005367Y007057D01*
X005412Y007069D01*
X005458Y007078D01*
X005504Y007083D01*
X005550Y007085D01*
X005550Y006885D02*
X005511Y006883D01*
X005472Y006877D01*
X005434Y006868D01*
X005397Y006855D01*
X005361Y006838D01*
X005328Y006818D01*
X005296Y006794D01*
X005267Y006768D01*
X005241Y006739D01*
X005217Y006707D01*
X005197Y006674D01*
X005180Y006638D01*
X005167Y006601D01*
X005158Y006563D01*
X005152Y006524D01*
X005150Y006485D01*
X005300Y006485D02*
X005302Y006515D01*
X005307Y006545D01*
X005316Y006574D01*
X005329Y006601D01*
X005344Y006627D01*
X005363Y006651D01*
X005384Y006672D01*
X005408Y006691D01*
X005434Y006706D01*
X005461Y006719D01*
X005490Y006728D01*
X005520Y006733D01*
X005550Y006735D01*
X004000Y004315D02*
X003100Y004315D01*
X003100Y003655D02*
X004000Y003655D01*
X005550Y004335D02*
X005597Y004333D01*
X005645Y004327D01*
X005691Y004318D01*
X005737Y004305D01*
X005781Y004289D01*
X005825Y004268D01*
X005866Y004245D01*
X005905Y004219D01*
X005942Y004189D01*
X005977Y004156D01*
X006009Y004121D01*
X006038Y004084D01*
X005550Y003135D02*
X005505Y003137D01*
X005459Y003142D01*
X005415Y003150D01*
X005371Y003162D01*
X005328Y003178D01*
X005286Y003196D01*
X005246Y003218D01*
X005208Y003242D01*
X005172Y003269D01*
X005137Y003299D01*
X005106Y003332D01*
X005076Y003367D01*
X005102Y003336D02*
X005071Y003374D01*
X005043Y003414D01*
X005019Y003456D01*
X004998Y003499D01*
X004981Y003545D01*
X004968Y003591D01*
X004958Y003639D01*
X004952Y003687D01*
X004950Y003735D01*
X005550Y003135D02*
X005595Y003137D01*
X005641Y003142D01*
X005685Y003150D01*
X005729Y003162D01*
X005772Y003178D01*
X005814Y003196D01*
X005854Y003218D01*
X005892Y003242D01*
X005928Y003269D01*
X005963Y003299D01*
X005994Y003332D01*
X006024Y003367D01*
X006150Y003735D02*
X006148Y003782D01*
X006143Y003829D01*
X006133Y003875D01*
X006120Y003921D01*
X006104Y003965D01*
X006084Y004008D01*
X006061Y004049D01*
X006035Y004088D01*
X006006Y004125D01*
X005950Y003735D02*
X005948Y003696D01*
X005942Y003657D01*
X005933Y003619D01*
X005920Y003582D01*
X005903Y003546D01*
X005883Y003513D01*
X005859Y003481D01*
X005833Y003452D01*
X005804Y003426D01*
X005772Y003402D01*
X005739Y003382D01*
X005703Y003365D01*
X005666Y003352D01*
X005628Y003343D01*
X005589Y003337D01*
X005550Y003335D01*
X004950Y003735D02*
X004952Y003781D01*
X004957Y003827D01*
X004966Y003873D01*
X004978Y003917D01*
X004994Y003961D01*
X005013Y004003D01*
X005035Y004044D01*
X005061Y004082D01*
X005089Y004119D01*
X006150Y003735D02*
X006148Y003689D01*
X006143Y003643D01*
X006134Y003597D01*
X006122Y003553D01*
X006106Y003509D01*
X006087Y003467D01*
X006065Y003426D01*
X006039Y003388D01*
X006011Y003351D01*
X005550Y004335D02*
X005504Y004333D01*
X005458Y004328D01*
X005412Y004319D01*
X005367Y004307D01*
X005324Y004291D01*
X005282Y004272D01*
X005241Y004249D01*
X005202Y004224D01*
X005166Y004196D01*
X005131Y004165D01*
X005099Y004131D01*
X005070Y004095D01*
X005550Y003485D02*
X005580Y003487D01*
X005610Y003492D01*
X005639Y003501D01*
X005666Y003514D01*
X005692Y003529D01*
X005716Y003548D01*
X005737Y003569D01*
X005756Y003593D01*
X005771Y003619D01*
X005784Y003646D01*
X005793Y003675D01*
X005798Y003705D01*
X005800Y003735D01*
X005550Y004135D02*
X005511Y004133D01*
X005472Y004127D01*
X005434Y004118D01*
X005397Y004105D01*
X005361Y004088D01*
X005328Y004068D01*
X005296Y004044D01*
X005267Y004018D01*
X005241Y003989D01*
X005217Y003957D01*
X005197Y003924D01*
X005180Y003888D01*
X005167Y003851D01*
X005158Y003813D01*
X005152Y003774D01*
X005150Y003735D01*
X005300Y003735D02*
X005302Y003765D01*
X005307Y003795D01*
X005316Y003824D01*
X005329Y003851D01*
X005344Y003877D01*
X005363Y003901D01*
X005384Y003922D01*
X005408Y003941D01*
X005434Y003956D01*
X005461Y003969D01*
X005490Y003978D01*
X005520Y003983D01*
X005550Y003985D01*
X007580Y014765D02*
X007794Y014765D01*
X007687Y014765D02*
X007687Y015406D01*
X007580Y015406D02*
X007794Y015406D01*
X008010Y015299D02*
X008010Y014872D01*
X008116Y014765D01*
X008330Y014765D01*
X008437Y014872D01*
X008437Y015299D01*
X008330Y015406D01*
X008116Y015406D01*
X008010Y015299D01*
X008654Y015192D02*
X008868Y015406D01*
X008868Y014765D01*
X009081Y014765D02*
X008654Y014765D01*
X005102Y016586D02*
X005071Y016624D01*
X005043Y016664D01*
X005019Y016706D01*
X004998Y016749D01*
X004981Y016795D01*
X004968Y016841D01*
X004958Y016889D01*
X004952Y016937D01*
X004950Y016985D01*
X005550Y017585D02*
X005597Y017583D01*
X005645Y017577D01*
X005691Y017568D01*
X005737Y017555D01*
X005781Y017539D01*
X005825Y017518D01*
X005866Y017495D01*
X005905Y017469D01*
X005942Y017439D01*
X005977Y017406D01*
X006009Y017371D01*
X006038Y017334D01*
X005550Y016385D02*
X005505Y016387D01*
X005459Y016392D01*
X005415Y016400D01*
X005371Y016412D01*
X005328Y016428D01*
X005286Y016446D01*
X005246Y016468D01*
X005208Y016492D01*
X005172Y016519D01*
X005137Y016549D01*
X005106Y016582D01*
X005076Y016617D01*
X006150Y016985D02*
X006148Y017032D01*
X006143Y017079D01*
X006133Y017125D01*
X006120Y017171D01*
X006104Y017215D01*
X006084Y017258D01*
X006061Y017299D01*
X006035Y017338D01*
X006006Y017375D01*
X005950Y016985D02*
X005948Y016946D01*
X005942Y016907D01*
X005933Y016869D01*
X005920Y016832D01*
X005903Y016796D01*
X005883Y016763D01*
X005859Y016731D01*
X005833Y016702D01*
X005804Y016676D01*
X005772Y016652D01*
X005739Y016632D01*
X005703Y016615D01*
X005666Y016602D01*
X005628Y016593D01*
X005589Y016587D01*
X005550Y016585D01*
X004950Y016985D02*
X004952Y017031D01*
X004957Y017077D01*
X004966Y017123D01*
X004978Y017167D01*
X004994Y017211D01*
X005013Y017253D01*
X005035Y017294D01*
X005061Y017332D01*
X005089Y017369D01*
X005550Y016385D02*
X005595Y016387D01*
X005641Y016392D01*
X005685Y016400D01*
X005729Y016412D01*
X005772Y016428D01*
X005814Y016446D01*
X005854Y016468D01*
X005892Y016492D01*
X005928Y016519D01*
X005963Y016549D01*
X005994Y016582D01*
X006024Y016617D01*
X005800Y016985D02*
X005798Y016955D01*
X005793Y016925D01*
X005784Y016896D01*
X005771Y016869D01*
X005756Y016843D01*
X005737Y016819D01*
X005716Y016798D01*
X005692Y016779D01*
X005666Y016764D01*
X005639Y016751D01*
X005610Y016742D01*
X005580Y016737D01*
X005550Y016735D01*
X005070Y017345D02*
X005099Y017381D01*
X005131Y017415D01*
X005166Y017446D01*
X005202Y017474D01*
X005241Y017499D01*
X005282Y017522D01*
X005324Y017541D01*
X005367Y017557D01*
X005412Y017569D01*
X005458Y017578D01*
X005504Y017583D01*
X005550Y017585D01*
X006150Y016985D02*
X006148Y016939D01*
X006143Y016893D01*
X006134Y016847D01*
X006122Y016803D01*
X006106Y016759D01*
X006087Y016717D01*
X006065Y016676D01*
X006039Y016638D01*
X006011Y016601D01*
X005550Y017385D02*
X005511Y017383D01*
X005472Y017377D01*
X005434Y017368D01*
X005397Y017355D01*
X005361Y017338D01*
X005328Y017318D01*
X005296Y017294D01*
X005267Y017268D01*
X005241Y017239D01*
X005217Y017207D01*
X005197Y017174D01*
X005180Y017138D01*
X005167Y017101D01*
X005158Y017063D01*
X005152Y017024D01*
X005150Y016985D01*
X005300Y016985D02*
X005302Y017015D01*
X005307Y017045D01*
X005316Y017074D01*
X005329Y017101D01*
X005344Y017127D01*
X005363Y017151D01*
X005384Y017172D01*
X005408Y017191D01*
X005434Y017206D01*
X005461Y017219D01*
X005490Y017228D01*
X005520Y017233D01*
X005550Y017235D01*
D15*
X007680Y018115D02*
X007680Y018425D01*
X007835Y018425D01*
X007887Y018374D01*
X007887Y018270D01*
X007835Y018218D01*
X007680Y018218D01*
X007975Y018115D02*
X008078Y018218D01*
X008181Y018115D01*
X008181Y018425D01*
X008269Y018425D02*
X008373Y018322D01*
X008476Y018425D01*
X008476Y018115D01*
X008269Y018115D02*
X008269Y018425D01*
X007975Y018425D02*
X007975Y018115D01*
X009180Y018167D02*
X009232Y018115D01*
X009335Y018115D01*
X009387Y018167D01*
X009387Y018270D01*
X009283Y018270D01*
X009180Y018167D02*
X009180Y018374D01*
X009232Y018425D01*
X009335Y018425D01*
X009387Y018374D01*
X009475Y018425D02*
X009681Y018115D01*
X009681Y018425D01*
X009769Y018425D02*
X009924Y018425D01*
X009976Y018374D01*
X009976Y018167D01*
X009924Y018115D01*
X009769Y018115D01*
X009769Y018425D01*
X009475Y018425D02*
X009475Y018115D01*
X010430Y018167D02*
X010482Y018115D01*
X010585Y018115D01*
X010637Y018167D01*
X010637Y018270D01*
X010533Y018270D01*
X010430Y018167D02*
X010430Y018374D01*
X010482Y018425D01*
X010585Y018425D01*
X010637Y018374D01*
X010725Y018425D02*
X010725Y018115D01*
X010931Y018115D02*
X010931Y018425D01*
X011019Y018425D02*
X011174Y018425D01*
X011226Y018374D01*
X011226Y018167D01*
X011174Y018115D01*
X011019Y018115D01*
X011019Y018425D01*
X010725Y018425D02*
X010931Y018115D01*
X010982Y019865D02*
X010930Y019917D01*
X010982Y019865D02*
X011085Y019865D01*
X011137Y019917D01*
X011137Y020020D01*
X011085Y020072D01*
X011033Y020072D01*
X010930Y020020D01*
X010930Y020175D01*
X011137Y020175D01*
X011225Y020175D02*
X011225Y019968D01*
X011328Y019865D01*
X011431Y019968D01*
X011431Y020175D01*
X009753Y020417D02*
X009701Y020365D01*
X009598Y020365D01*
X009546Y020417D01*
X009546Y020624D01*
X009598Y020675D01*
X009701Y020675D01*
X009753Y020624D01*
X009753Y020417D01*
X009458Y020675D02*
X009251Y020365D01*
X009158Y020365D02*
X009055Y020365D01*
X009107Y020365D02*
X009107Y020675D01*
X009158Y020675D02*
X009055Y020675D01*
X007976Y020175D02*
X007976Y019968D01*
X007873Y019865D01*
X007769Y019968D01*
X007769Y020175D01*
X007681Y020124D02*
X007630Y020175D01*
X007526Y020175D01*
X007475Y020124D01*
X007283Y020175D02*
X007180Y020072D01*
X007283Y020175D02*
X007283Y019865D01*
X007180Y019865D02*
X007387Y019865D01*
X007475Y019865D02*
X007681Y020072D01*
X007681Y020124D01*
X007681Y019865D02*
X007475Y019865D01*
X013680Y019865D02*
X013887Y019865D01*
X013975Y019865D02*
X014181Y020072D01*
X014181Y020124D01*
X014130Y020175D01*
X014026Y020175D01*
X013975Y020124D01*
X013783Y020175D02*
X013783Y019865D01*
X013975Y019865D02*
X014181Y019865D01*
X014269Y019968D02*
X014373Y019865D01*
X014476Y019968D01*
X014476Y020175D01*
X014269Y020175D02*
X014269Y019968D01*
X013783Y020175D02*
X013680Y020072D01*
X015555Y020365D02*
X015658Y020365D01*
X015607Y020365D02*
X015607Y020675D01*
X015658Y020675D02*
X015555Y020675D01*
X015751Y020365D02*
X015958Y020675D01*
X016046Y020624D02*
X016046Y020417D01*
X016098Y020365D01*
X016201Y020365D01*
X016253Y020417D01*
X016253Y020624D01*
X016201Y020675D01*
X016098Y020675D01*
X016046Y020624D01*
X017430Y020175D02*
X017430Y020020D01*
X017533Y020072D01*
X017585Y020072D01*
X017637Y020020D01*
X017637Y019917D01*
X017585Y019865D01*
X017482Y019865D01*
X017430Y019917D01*
X017725Y019968D02*
X017828Y019865D01*
X017931Y019968D01*
X017931Y020175D01*
X017725Y020175D02*
X017725Y019968D01*
X017637Y020175D02*
X017430Y020175D01*
X020180Y020072D02*
X020283Y020175D01*
X020283Y019865D01*
X020180Y019865D02*
X020387Y019865D01*
X020475Y019865D02*
X020681Y020072D01*
X020681Y020124D01*
X020630Y020175D01*
X020526Y020175D01*
X020475Y020124D01*
X020475Y019865D02*
X020681Y019865D01*
X020769Y019968D02*
X020873Y019865D01*
X020976Y019968D01*
X020976Y020175D01*
X020769Y020175D02*
X020769Y019968D01*
X022055Y020365D02*
X022158Y020365D01*
X022107Y020365D02*
X022107Y020675D01*
X022158Y020675D02*
X022055Y020675D01*
X022251Y020365D02*
X022458Y020675D01*
X022546Y020624D02*
X022546Y020417D01*
X022598Y020365D01*
X022701Y020365D01*
X022753Y020417D01*
X022753Y020624D01*
X022701Y020675D01*
X022598Y020675D01*
X022546Y020624D01*
X023930Y020175D02*
X023930Y020020D01*
X024033Y020072D01*
X024085Y020072D01*
X024137Y020020D01*
X024137Y019917D01*
X024085Y019865D01*
X023982Y019865D01*
X023930Y019917D01*
X024225Y019968D02*
X024328Y019865D01*
X024431Y019968D01*
X024431Y020175D01*
X024225Y020175D02*
X024225Y019968D01*
X024137Y020175D02*
X023930Y020175D01*
X026680Y020072D02*
X026783Y020175D01*
X026783Y019865D01*
X026680Y019865D02*
X026887Y019865D01*
X026975Y019865D02*
X027181Y020072D01*
X027181Y020124D01*
X027130Y020175D01*
X027026Y020175D01*
X026975Y020124D01*
X026975Y019865D02*
X027181Y019865D01*
X027269Y019968D02*
X027373Y019865D01*
X027476Y019968D01*
X027476Y020175D01*
X027269Y020175D02*
X027269Y019968D01*
X028555Y020365D02*
X028658Y020365D01*
X028607Y020365D02*
X028607Y020675D01*
X028658Y020675D02*
X028555Y020675D01*
X028751Y020365D02*
X028958Y020675D01*
X029046Y020624D02*
X029046Y020417D01*
X029098Y020365D01*
X029201Y020365D01*
X029253Y020417D01*
X029253Y020624D01*
X029201Y020675D01*
X029098Y020675D01*
X029046Y020624D01*
X030430Y020175D02*
X030430Y020020D01*
X030533Y020072D01*
X030585Y020072D01*
X030637Y020020D01*
X030637Y019917D01*
X030585Y019865D01*
X030482Y019865D01*
X030430Y019917D01*
X030725Y019968D02*
X030828Y019865D01*
X030931Y019968D01*
X030931Y020175D01*
X030725Y020175D02*
X030725Y019968D01*
X030637Y020175D02*
X030430Y020175D01*
X030431Y018425D02*
X030431Y018115D01*
X030225Y018425D01*
X030225Y018115D01*
X030137Y018167D02*
X030137Y018270D01*
X030033Y018270D01*
X029930Y018167D02*
X029982Y018115D01*
X030085Y018115D01*
X030137Y018167D01*
X030137Y018374D02*
X030085Y018425D01*
X029982Y018425D01*
X029930Y018374D01*
X029930Y018167D01*
X029476Y018167D02*
X029424Y018115D01*
X029269Y018115D01*
X029269Y018425D01*
X029424Y018425D01*
X029476Y018374D01*
X029476Y018167D01*
X029181Y018115D02*
X029181Y018425D01*
X028975Y018425D02*
X029181Y018115D01*
X028975Y018115D02*
X028975Y018425D01*
X028887Y018374D02*
X028835Y018425D01*
X028732Y018425D01*
X028680Y018374D01*
X028680Y018167D01*
X028732Y018115D01*
X028835Y018115D01*
X028887Y018167D01*
X028887Y018270D01*
X028783Y018270D01*
X027976Y018425D02*
X027976Y018115D01*
X027769Y018115D02*
X027769Y018425D01*
X027873Y018322D01*
X027976Y018425D01*
X027681Y018425D02*
X027681Y018115D01*
X027578Y018218D01*
X027475Y018115D01*
X027475Y018425D01*
X027387Y018374D02*
X027335Y018425D01*
X027180Y018425D01*
X027180Y018115D01*
X027180Y018218D02*
X027335Y018218D01*
X027387Y018270D01*
X027387Y018374D01*
X030519Y018425D02*
X030519Y018115D01*
X030674Y018115D01*
X030726Y018167D01*
X030726Y018374D01*
X030674Y018425D01*
X030519Y018425D01*
X024226Y018374D02*
X024174Y018425D01*
X024019Y018425D01*
X024019Y018115D01*
X024174Y018115D01*
X024226Y018167D01*
X024226Y018374D01*
X023931Y018425D02*
X023931Y018115D01*
X023725Y018425D01*
X023725Y018115D01*
X023637Y018167D02*
X023585Y018115D01*
X023482Y018115D01*
X023430Y018167D01*
X023430Y018374D01*
X023482Y018425D01*
X023585Y018425D01*
X023637Y018374D01*
X023637Y018270D02*
X023533Y018270D01*
X023637Y018270D02*
X023637Y018167D01*
X022976Y018167D02*
X022924Y018115D01*
X022769Y018115D01*
X022769Y018425D01*
X022924Y018425D01*
X022976Y018374D01*
X022976Y018167D01*
X022681Y018115D02*
X022475Y018425D01*
X022475Y018115D01*
X022387Y018167D02*
X022335Y018115D01*
X022232Y018115D01*
X022180Y018167D01*
X022180Y018374D01*
X022232Y018425D01*
X022335Y018425D01*
X022387Y018374D01*
X022387Y018270D02*
X022283Y018270D01*
X022387Y018270D02*
X022387Y018167D01*
X022681Y018115D02*
X022681Y018425D01*
X021476Y018425D02*
X021476Y018115D01*
X021269Y018115D02*
X021269Y018425D01*
X021373Y018322D01*
X021476Y018425D01*
X021181Y018425D02*
X021181Y018115D01*
X021078Y018218D01*
X020975Y018115D01*
X020975Y018425D01*
X020887Y018374D02*
X020835Y018425D01*
X020680Y018425D01*
X020680Y018115D01*
X020680Y018218D02*
X020835Y018218D01*
X020887Y018270D01*
X020887Y018374D01*
X017726Y018374D02*
X017674Y018425D01*
X017519Y018425D01*
X017519Y018115D01*
X017674Y018115D01*
X017726Y018167D01*
X017726Y018374D01*
X017431Y018425D02*
X017431Y018115D01*
X017225Y018425D01*
X017225Y018115D01*
X017137Y018167D02*
X017085Y018115D01*
X016982Y018115D01*
X016930Y018167D01*
X016930Y018374D01*
X016982Y018425D01*
X017085Y018425D01*
X017137Y018374D01*
X017137Y018270D02*
X017033Y018270D01*
X017137Y018270D02*
X017137Y018167D01*
X016476Y018167D02*
X016424Y018115D01*
X016269Y018115D01*
X016269Y018425D01*
X016424Y018425D01*
X016476Y018374D01*
X016476Y018167D01*
X016181Y018115D02*
X016181Y018425D01*
X015975Y018425D02*
X016181Y018115D01*
X015975Y018115D02*
X015975Y018425D01*
X015887Y018374D02*
X015835Y018425D01*
X015732Y018425D01*
X015680Y018374D01*
X015680Y018167D01*
X015732Y018115D01*
X015835Y018115D01*
X015887Y018167D01*
X015887Y018270D01*
X015783Y018270D01*
X014976Y018425D02*
X014976Y018115D01*
X014769Y018115D02*
X014769Y018425D01*
X014873Y018322D01*
X014976Y018425D01*
X014681Y018425D02*
X014681Y018115D01*
X014578Y018218D01*
X014475Y018115D01*
X014475Y018425D01*
X014387Y018374D02*
X014335Y018425D01*
X014180Y018425D01*
X014180Y018115D01*
X014180Y018218D02*
X014335Y018218D01*
X014387Y018270D01*
X014387Y018374D01*
X014348Y005355D02*
X014296Y005304D01*
X014296Y005097D01*
X014348Y005045D01*
X014451Y005045D01*
X014503Y005097D01*
X014503Y005200D01*
X014399Y005200D01*
X014503Y005304D02*
X014451Y005355D01*
X014348Y005355D01*
X014591Y005355D02*
X014798Y005045D01*
X014798Y005355D01*
X014885Y005355D02*
X015040Y005355D01*
X015092Y005304D01*
X015092Y005097D01*
X015040Y005045D01*
X014885Y005045D01*
X014885Y005355D01*
X014591Y005355D02*
X014591Y005045D01*
X015635Y005097D02*
X015687Y005045D01*
X015790Y005045D01*
X015842Y005097D01*
X015842Y005200D01*
X015739Y005200D01*
X015842Y005304D02*
X015790Y005355D01*
X015687Y005355D01*
X015635Y005304D01*
X015635Y005097D01*
X016635Y005148D02*
X016790Y005148D01*
X016842Y005200D01*
X016842Y005304D01*
X016790Y005355D01*
X016635Y005355D01*
X016635Y005045D01*
X016739Y005148D02*
X016842Y005045D01*
X017649Y003605D02*
X017649Y003295D01*
X017546Y003295D02*
X017753Y003295D01*
X017841Y003295D02*
X018048Y003502D01*
X018048Y003554D01*
X017996Y003605D01*
X017892Y003605D01*
X017841Y003554D01*
X017649Y003605D02*
X017546Y003502D01*
X017841Y003295D02*
X018048Y003295D01*
X018135Y003398D02*
X018239Y003295D01*
X018342Y003398D01*
X018342Y003605D01*
X018135Y003605D02*
X018135Y003398D01*
X016217Y003054D02*
X016217Y003002D01*
X016165Y002950D01*
X016010Y002950D01*
X016010Y002795D02*
X016010Y003105D01*
X016165Y003105D01*
X016217Y003054D01*
X016165Y002950D02*
X016217Y002898D01*
X016217Y002847D01*
X016165Y002795D01*
X016010Y002795D01*
X014592Y003398D02*
X014592Y003605D01*
X014592Y003398D02*
X014489Y003295D01*
X014385Y003398D01*
X014385Y003605D01*
X014298Y003605D02*
X014091Y003605D01*
X014091Y003450D01*
X014194Y003502D01*
X014246Y003502D01*
X014298Y003450D01*
X014298Y003347D01*
X014246Y003295D01*
X014142Y003295D01*
X014091Y003347D01*
X011842Y003398D02*
X011739Y003295D01*
X011635Y003398D01*
X011635Y003605D01*
X011548Y003554D02*
X011496Y003605D01*
X011392Y003605D01*
X011341Y003554D01*
X011149Y003605D02*
X011149Y003295D01*
X011046Y003295D02*
X011253Y003295D01*
X011341Y003295D02*
X011548Y003502D01*
X011548Y003554D01*
X011548Y003295D02*
X011341Y003295D01*
X011046Y003502D02*
X011149Y003605D01*
X011842Y003605D02*
X011842Y003398D01*
X009717Y003054D02*
X009717Y003002D01*
X009665Y002950D01*
X009510Y002950D01*
X009510Y002795D02*
X009510Y003105D01*
X009665Y003105D01*
X009717Y003054D01*
X009665Y002950D02*
X009717Y002898D01*
X009717Y002847D01*
X009665Y002795D01*
X009510Y002795D01*
X008092Y003398D02*
X008092Y003605D01*
X008092Y003398D02*
X007989Y003295D01*
X007885Y003398D01*
X007885Y003605D01*
X007798Y003605D02*
X007591Y003605D01*
X007591Y003450D01*
X007694Y003502D01*
X007746Y003502D01*
X007798Y003450D01*
X007798Y003347D01*
X007746Y003295D01*
X007642Y003295D01*
X007591Y003347D01*
X007848Y005045D02*
X007951Y005045D01*
X008003Y005097D01*
X008003Y005200D01*
X007899Y005200D01*
X007796Y005097D02*
X007796Y005304D01*
X007848Y005355D01*
X007951Y005355D01*
X008003Y005304D01*
X008091Y005355D02*
X008298Y005045D01*
X008298Y005355D01*
X008385Y005355D02*
X008540Y005355D01*
X008592Y005304D01*
X008592Y005097D01*
X008540Y005045D01*
X008385Y005045D01*
X008385Y005355D01*
X008091Y005355D02*
X008091Y005045D01*
X007848Y005045D02*
X007796Y005097D01*
X009135Y005097D02*
X009187Y005045D01*
X009290Y005045D01*
X009342Y005097D01*
X009342Y005200D01*
X009239Y005200D01*
X009342Y005304D02*
X009290Y005355D01*
X009187Y005355D01*
X009135Y005304D01*
X009135Y005097D01*
X010135Y005148D02*
X010290Y005148D01*
X010342Y005200D01*
X010342Y005304D01*
X010290Y005355D01*
X010135Y005355D01*
X010135Y005045D01*
X010239Y005148D02*
X010342Y005045D01*
X020591Y003605D02*
X020591Y003450D01*
X020694Y003502D01*
X020746Y003502D01*
X020798Y003450D01*
X020798Y003347D01*
X020746Y003295D01*
X020642Y003295D01*
X020591Y003347D01*
X020885Y003398D02*
X020989Y003295D01*
X021092Y003398D01*
X021092Y003605D01*
X020885Y003605D02*
X020885Y003398D01*
X020798Y003605D02*
X020591Y003605D01*
X022466Y003105D02*
X022673Y003105D01*
X022760Y003105D02*
X022967Y002795D01*
X022760Y002795D02*
X022967Y003105D01*
X022569Y003105D02*
X022569Y002795D01*
X024046Y003295D02*
X024253Y003295D01*
X024341Y003295D02*
X024548Y003502D01*
X024548Y003554D01*
X024496Y003605D01*
X024392Y003605D01*
X024341Y003554D01*
X024149Y003605D02*
X024149Y003295D01*
X024341Y003295D02*
X024548Y003295D01*
X024635Y003398D02*
X024739Y003295D01*
X024842Y003398D01*
X024842Y003605D01*
X024635Y003605D02*
X024635Y003398D01*
X024149Y003605D02*
X024046Y003502D01*
X023592Y005045D02*
X023385Y005355D01*
X023298Y005304D02*
X023298Y005200D01*
X023246Y005148D01*
X023091Y005148D01*
X023091Y005045D02*
X023091Y005355D01*
X023246Y005355D01*
X023298Y005304D01*
X023194Y005148D02*
X023298Y005045D01*
X023385Y005045D02*
X023592Y005355D01*
X022842Y005304D02*
X022842Y005097D01*
X022790Y005045D01*
X022635Y005045D01*
X022635Y005355D01*
X022790Y005355D01*
X022842Y005304D01*
X022548Y005355D02*
X022548Y005045D01*
X022341Y005355D01*
X022341Y005045D01*
X022253Y005097D02*
X022253Y005200D01*
X022149Y005200D01*
X022046Y005097D02*
X022046Y005304D01*
X022098Y005355D01*
X022201Y005355D01*
X022253Y005304D01*
X022253Y005097D02*
X022201Y005045D01*
X022098Y005045D01*
X022046Y005097D01*
X021592Y005097D02*
X021592Y005304D01*
X021540Y005355D01*
X021385Y005355D01*
X021385Y005045D01*
X021540Y005045D01*
X021592Y005097D01*
X021298Y005045D02*
X021298Y005355D01*
X021091Y005355D02*
X021091Y005045D01*
X021003Y005097D02*
X021003Y005200D01*
X020899Y005200D01*
X020796Y005097D02*
X020796Y005304D01*
X020848Y005355D01*
X020951Y005355D01*
X021003Y005304D01*
X021091Y005355D02*
X021298Y005045D01*
X021003Y005097D02*
X020951Y005045D01*
X020848Y005045D01*
X020796Y005097D01*
X027091Y003605D02*
X027091Y003450D01*
X027194Y003502D01*
X027246Y003502D01*
X027298Y003450D01*
X027298Y003347D01*
X027246Y003295D01*
X027142Y003295D01*
X027091Y003347D01*
X027385Y003398D02*
X027489Y003295D01*
X027592Y003398D01*
X027592Y003605D01*
X027385Y003605D02*
X027385Y003398D01*
X027298Y003605D02*
X027091Y003605D01*
X028671Y003054D02*
X028671Y003002D01*
X028723Y002950D01*
X028826Y002950D01*
X028878Y002898D01*
X028878Y002847D01*
X028826Y002795D01*
X028723Y002795D01*
X028671Y002847D01*
X028671Y003054D02*
X028723Y003105D01*
X028826Y003105D01*
X028878Y003054D01*
X028966Y003105D02*
X029121Y003105D01*
X029173Y003054D01*
X029173Y002847D01*
X029121Y002795D01*
X028966Y002795D01*
X028966Y003105D01*
X029260Y003002D02*
X029260Y002795D01*
X029260Y002950D02*
X029467Y002950D01*
X029467Y003002D02*
X029467Y002795D01*
X029467Y003002D02*
X029364Y003105D01*
X029260Y003002D01*
X030546Y003295D02*
X030753Y003295D01*
X030841Y003295D02*
X031048Y003502D01*
X031048Y003554D01*
X030996Y003605D01*
X030892Y003605D01*
X030841Y003554D01*
X030649Y003605D02*
X030546Y003502D01*
X030649Y003605D02*
X030649Y003295D01*
X030841Y003295D02*
X031048Y003295D01*
X031135Y003398D02*
X031239Y003295D01*
X031342Y003398D01*
X031342Y003605D01*
X031135Y003605D02*
X031135Y003398D01*
X030842Y005045D02*
X030635Y005045D01*
X030635Y005355D01*
X030548Y005304D02*
X030496Y005355D01*
X030392Y005355D01*
X030341Y005304D01*
X030341Y005097D01*
X030392Y005045D01*
X030496Y005045D01*
X030548Y005097D01*
X030253Y005097D02*
X030201Y005045D01*
X030098Y005045D01*
X030046Y005097D01*
X030098Y005200D02*
X030201Y005200D01*
X030253Y005148D01*
X030253Y005097D01*
X030098Y005200D02*
X030046Y005252D01*
X030046Y005304D01*
X030098Y005355D01*
X030201Y005355D01*
X030253Y005304D01*
X029342Y005304D02*
X029342Y005097D01*
X029290Y005045D01*
X029135Y005045D01*
X029135Y005355D01*
X029290Y005355D01*
X029342Y005304D01*
X029048Y005355D02*
X029048Y005045D01*
X028841Y005355D01*
X028841Y005045D01*
X028753Y005097D02*
X028753Y005200D01*
X028649Y005200D01*
X028546Y005097D02*
X028598Y005045D01*
X028701Y005045D01*
X028753Y005097D01*
X028753Y005304D02*
X028701Y005355D01*
X028598Y005355D01*
X028546Y005304D01*
X028546Y005097D01*
X028092Y005097D02*
X028092Y005304D01*
X028040Y005355D01*
X027885Y005355D01*
X027885Y005045D01*
X028040Y005045D01*
X028092Y005097D01*
X027798Y005045D02*
X027798Y005355D01*
X027591Y005355D02*
X027798Y005045D01*
X027591Y005045D02*
X027591Y005355D01*
X027503Y005304D02*
X027451Y005355D01*
X027348Y005355D01*
X027296Y005304D01*
X027296Y005097D01*
X027348Y005045D01*
X027451Y005045D01*
X027503Y005097D01*
X027503Y005200D01*
X027399Y005200D01*
D16*
X026132Y008920D03*
X025468Y008920D03*
X019632Y008920D03*
X018968Y008920D03*
X013132Y008920D03*
X012468Y008920D03*
X006632Y008920D03*
X006632Y014551D03*
X012468Y014551D03*
X013132Y014551D03*
X018968Y014551D03*
X019632Y014551D03*
X025468Y014551D03*
X026132Y014551D03*
X031968Y014551D03*
X031968Y008920D03*
D17*
X034070Y014505D02*
X034377Y014505D01*
X034530Y014505D02*
X034530Y014965D01*
X034607Y014735D02*
X034837Y014505D01*
X034530Y014659D02*
X034837Y014965D01*
X034223Y014965D02*
X034223Y014505D01*
X034070Y014812D02*
X034223Y014965D01*
X006246Y013479D02*
X006092Y013325D01*
X005785Y013325D01*
X005785Y013172D02*
X005785Y012865D01*
X006015Y012865D01*
X005939Y013019D01*
X005939Y013095D01*
X006015Y013172D01*
X006169Y013172D01*
X006246Y013095D01*
X006246Y012942D01*
X006169Y012865D01*
X006015Y012712D02*
X006015Y012405D01*
X005862Y012558D02*
X006169Y012558D01*
X006092Y011844D02*
X005785Y011844D01*
X006092Y011844D02*
X006246Y011690D01*
X006092Y011537D01*
X005785Y011537D01*
X005862Y011383D02*
X005785Y011307D01*
X005785Y011153D01*
X005862Y011076D01*
X005862Y011383D02*
X005939Y011383D01*
X006246Y011076D01*
X006246Y011383D01*
X006246Y010923D02*
X006246Y010616D01*
X006246Y010770D02*
X005785Y010770D01*
X005939Y010616D01*
X006015Y010463D02*
X006015Y010156D01*
X005862Y010309D02*
X006169Y010309D01*
X003999Y010078D02*
X003999Y009771D01*
X003922Y009694D01*
X003692Y009694D01*
X003692Y010154D01*
X003922Y010154D01*
X003999Y010078D01*
X003539Y010154D02*
X003539Y009694D01*
X003232Y010154D01*
X003232Y009694D01*
X003078Y009771D02*
X003078Y009924D01*
X002925Y009924D01*
X003078Y009771D02*
X003002Y009694D01*
X002848Y009694D01*
X002771Y009771D01*
X002771Y010078D01*
X002848Y010154D01*
X003002Y010154D01*
X003078Y010078D01*
X002780Y007602D02*
X002473Y007602D01*
X002320Y007448D01*
X002473Y007295D01*
X002780Y007295D01*
X002703Y007141D02*
X002550Y007141D01*
X002473Y007064D01*
X002473Y006988D01*
X002550Y006834D01*
X002320Y006834D01*
X002320Y007141D01*
X002550Y007295D02*
X002550Y007602D01*
X002920Y007555D02*
X002920Y006405D01*
X002780Y006374D02*
X002780Y006220D01*
X002703Y006144D01*
X002396Y006451D01*
X002703Y006451D01*
X002780Y006374D01*
X002780Y006604D02*
X002780Y006681D01*
X002703Y006681D01*
X002703Y006604D01*
X002780Y006604D01*
X002703Y006834D02*
X002780Y006911D01*
X002780Y007064D01*
X002703Y007141D01*
X002396Y006451D02*
X002320Y006374D01*
X002320Y006220D01*
X002396Y006144D01*
X002703Y006144D01*
X004180Y006405D02*
X004180Y007565D01*
X003917Y004965D02*
X003610Y004659D01*
X003686Y004735D02*
X003917Y004505D01*
X003610Y004505D02*
X003610Y004965D01*
X003303Y004965D02*
X003149Y004812D01*
X003303Y004965D02*
X003303Y004505D01*
X003456Y004505D02*
X003149Y004505D01*
X006246Y013479D02*
X006092Y013632D01*
X005785Y013632D01*
X004034Y013771D02*
X004034Y014078D01*
X003957Y014154D01*
X003727Y014154D01*
X003727Y013694D01*
X003957Y013694D01*
X004034Y013771D01*
X003573Y013694D02*
X003573Y014154D01*
X003266Y014154D02*
X003573Y013694D01*
X003266Y013694D02*
X003266Y014154D01*
X003113Y014078D02*
X003036Y014154D01*
X002883Y014154D01*
X002806Y014078D01*
X002806Y013771D01*
X002883Y013694D01*
X003036Y013694D01*
X003113Y013771D01*
X003113Y013924D01*
X002959Y013924D01*
D18*
X006170Y016485D02*
X006170Y017485D01*
X005550Y017785D02*
X005496Y017783D01*
X005442Y017778D01*
X005389Y017769D01*
X005336Y017756D01*
X005285Y017740D01*
X005235Y017720D01*
X005186Y017697D01*
X005138Y017671D01*
X005093Y017642D01*
X005050Y017609D01*
X005009Y017574D01*
X004970Y017536D01*
X004934Y017496D01*
X004901Y017453D01*
X004871Y017408D01*
X004844Y017361D01*
X004855Y016588D02*
X004885Y016540D01*
X004918Y016495D01*
X004954Y016452D01*
X004992Y016411D01*
X005034Y016374D01*
X005078Y016339D01*
X005124Y016308D01*
X005173Y016279D01*
X005223Y016255D01*
X005275Y016234D01*
X005329Y016216D01*
X005383Y016203D01*
X005438Y016193D01*
X005494Y016187D01*
X005550Y016185D01*
X004869Y016566D02*
X004841Y016614D01*
X004817Y016663D01*
X004797Y016715D01*
X004780Y016767D01*
X004767Y016821D01*
X004758Y016875D01*
X004752Y016930D01*
X004750Y016985D01*
X004752Y017041D01*
X004758Y017098D01*
X004768Y017153D01*
X004782Y017208D01*
X004799Y017261D01*
X004821Y017314D01*
X004846Y017364D01*
X005550Y017785D02*
X005604Y017783D01*
X005657Y017778D01*
X005711Y017769D01*
X005763Y017756D01*
X005814Y017740D01*
X005865Y017720D01*
X005914Y017698D01*
X005961Y017672D01*
X006006Y017642D01*
X006049Y017610D01*
X006090Y017575D01*
X006129Y017537D01*
X006165Y017497D01*
X006161Y016468D02*
X006125Y016429D01*
X006086Y016391D01*
X006046Y016357D01*
X006003Y016325D01*
X005958Y016297D01*
X005911Y016271D01*
X005862Y016248D01*
X005812Y016229D01*
X005761Y016213D01*
X005709Y016201D01*
X005657Y016192D01*
X005603Y016187D01*
X005550Y016185D01*
X006170Y006985D02*
X006170Y005985D01*
X004869Y006066D02*
X004841Y006114D01*
X004817Y006163D01*
X004797Y006215D01*
X004780Y006267D01*
X004767Y006321D01*
X004758Y006375D01*
X004752Y006430D01*
X004750Y006485D01*
X004855Y006088D02*
X004885Y006040D01*
X004918Y005995D01*
X004954Y005952D01*
X004992Y005911D01*
X005034Y005874D01*
X005078Y005839D01*
X005124Y005808D01*
X005173Y005779D01*
X005223Y005755D01*
X005275Y005734D01*
X005329Y005716D01*
X005383Y005703D01*
X005438Y005693D01*
X005494Y005687D01*
X005550Y005685D01*
X004750Y006485D02*
X004752Y006541D01*
X004758Y006598D01*
X004768Y006653D01*
X004782Y006708D01*
X004799Y006761D01*
X004821Y006814D01*
X004846Y006864D01*
X005550Y007285D02*
X005604Y007283D01*
X005657Y007278D01*
X005711Y007269D01*
X005763Y007256D01*
X005814Y007240D01*
X005865Y007220D01*
X005914Y007198D01*
X005961Y007172D01*
X006006Y007142D01*
X006049Y007110D01*
X006090Y007075D01*
X006129Y007037D01*
X006165Y006997D01*
X005550Y007285D02*
X005496Y007283D01*
X005442Y007278D01*
X005389Y007269D01*
X005336Y007256D01*
X005285Y007240D01*
X005235Y007220D01*
X005186Y007197D01*
X005138Y007171D01*
X005093Y007142D01*
X005050Y007109D01*
X005009Y007074D01*
X004970Y007036D01*
X004934Y006996D01*
X004901Y006953D01*
X004871Y006908D01*
X004844Y006861D01*
X005550Y005685D02*
X005603Y005687D01*
X005657Y005692D01*
X005709Y005701D01*
X005761Y005713D01*
X005812Y005729D01*
X005862Y005748D01*
X005911Y005771D01*
X005958Y005797D01*
X006003Y005825D01*
X006046Y005857D01*
X006086Y005891D01*
X006125Y005929D01*
X006161Y005968D01*
X006170Y004235D02*
X006170Y003235D01*
X004869Y003316D02*
X004841Y003364D01*
X004817Y003413D01*
X004797Y003465D01*
X004780Y003517D01*
X004767Y003571D01*
X004758Y003625D01*
X004752Y003680D01*
X004750Y003735D01*
X004855Y003338D02*
X004885Y003290D01*
X004918Y003245D01*
X004954Y003202D01*
X004992Y003161D01*
X005034Y003124D01*
X005078Y003089D01*
X005124Y003058D01*
X005173Y003029D01*
X005223Y003005D01*
X005275Y002984D01*
X005329Y002966D01*
X005383Y002953D01*
X005438Y002943D01*
X005494Y002937D01*
X005550Y002935D01*
X004750Y003735D02*
X004752Y003791D01*
X004758Y003848D01*
X004768Y003903D01*
X004782Y003958D01*
X004799Y004011D01*
X004821Y004064D01*
X004846Y004114D01*
X005550Y004535D02*
X005604Y004533D01*
X005657Y004528D01*
X005711Y004519D01*
X005763Y004506D01*
X005814Y004490D01*
X005865Y004470D01*
X005914Y004448D01*
X005961Y004422D01*
X006006Y004392D01*
X006049Y004360D01*
X006090Y004325D01*
X006129Y004287D01*
X006165Y004247D01*
X005550Y004535D02*
X005496Y004533D01*
X005442Y004528D01*
X005389Y004519D01*
X005336Y004506D01*
X005285Y004490D01*
X005235Y004470D01*
X005186Y004447D01*
X005138Y004421D01*
X005093Y004392D01*
X005050Y004359D01*
X005009Y004324D01*
X004970Y004286D01*
X004934Y004246D01*
X004901Y004203D01*
X004871Y004158D01*
X004844Y004111D01*
X005550Y002935D02*
X005603Y002937D01*
X005657Y002942D01*
X005709Y002951D01*
X005761Y002963D01*
X005812Y002979D01*
X005862Y002998D01*
X005911Y003021D01*
X005958Y003047D01*
X006003Y003075D01*
X006046Y003107D01*
X006086Y003141D01*
X006125Y003179D01*
X006161Y003218D01*
X033355Y016588D02*
X033385Y016540D01*
X033418Y016495D01*
X033454Y016452D01*
X033492Y016411D01*
X033534Y016374D01*
X033578Y016339D01*
X033624Y016308D01*
X033673Y016279D01*
X033723Y016255D01*
X033775Y016234D01*
X033829Y016216D01*
X033883Y016203D01*
X033938Y016193D01*
X033994Y016187D01*
X034050Y016185D01*
X034670Y016485D02*
X034670Y017485D01*
X034050Y017785D02*
X033996Y017783D01*
X033942Y017778D01*
X033889Y017769D01*
X033836Y017756D01*
X033785Y017740D01*
X033735Y017720D01*
X033686Y017697D01*
X033638Y017671D01*
X033593Y017642D01*
X033550Y017609D01*
X033509Y017574D01*
X033470Y017536D01*
X033434Y017496D01*
X033401Y017453D01*
X033371Y017408D01*
X033344Y017361D01*
X033346Y017364D02*
X033321Y017314D01*
X033299Y017261D01*
X033282Y017208D01*
X033268Y017153D01*
X033258Y017098D01*
X033252Y017041D01*
X033250Y016985D01*
X033252Y016930D01*
X033258Y016875D01*
X033267Y016821D01*
X033280Y016767D01*
X033297Y016715D01*
X033317Y016663D01*
X033341Y016614D01*
X033369Y016566D01*
X034050Y017785D02*
X034104Y017783D01*
X034157Y017778D01*
X034211Y017769D01*
X034263Y017756D01*
X034314Y017740D01*
X034365Y017720D01*
X034414Y017698D01*
X034461Y017672D01*
X034506Y017642D01*
X034549Y017610D01*
X034590Y017575D01*
X034629Y017537D01*
X034665Y017497D01*
X034661Y016468D02*
X034625Y016429D01*
X034586Y016391D01*
X034546Y016357D01*
X034503Y016325D01*
X034458Y016297D01*
X034411Y016271D01*
X034362Y016248D01*
X034312Y016229D01*
X034261Y016213D01*
X034209Y016201D01*
X034157Y016192D01*
X034103Y016187D01*
X034050Y016185D01*
D19*
X033995Y015485D03*
X035105Y015485D03*
X004105Y003985D03*
X002995Y003985D03*
D20*
X003550Y006228D03*
X003550Y007738D03*
M02*
