G75*
G70*
%OFA0B0*%
%FSLAX24Y24*%
%IPPOS*%
%LPD*%
%AMOC8*
5,1,8,0,0,1.08239X$1,22.5*
%
%ADD10C,0.1340*%
%ADD11OC8,0.0600*%
%ADD12C,0.0634*%
%ADD13C,0.1360*%
%ADD14C,0.0600*%
%ADD15C,0.0740*%
%ADD16R,0.0710X0.0867*%
%ADD17R,0.0867X0.0710*%
%ADD18R,0.0710X0.0789*%
%ADD19OC8,0.0710*%
%ADD20C,0.0710*%
%ADD21C,0.0848*%
%ADD22OC8,0.1580*%
%ADD23C,0.0480*%
D10*
X004100Y001704D03*
X040600Y001704D03*
X043100Y028704D03*
X001600Y028704D03*
D11*
X010100Y013204D03*
X011100Y013204D03*
X017100Y013204D03*
X018100Y013204D03*
X024100Y013204D03*
X025100Y013204D03*
X031100Y013204D03*
X032100Y013204D03*
X026100Y008704D03*
X025100Y008704D03*
D12*
X028850Y006704D03*
X029850Y006704D03*
X030850Y006704D03*
X030350Y005704D03*
X029350Y005704D03*
X031350Y005704D03*
X035350Y006704D03*
X036350Y006704D03*
X037350Y006704D03*
X036850Y005704D03*
X035850Y005704D03*
X037850Y005704D03*
D13*
X038600Y003204D03*
X034600Y003204D03*
X032100Y003204D03*
X028100Y003204D03*
D14*
X023100Y003944D02*
X023100Y004464D01*
X022100Y004464D02*
X022100Y003944D01*
X021100Y003944D02*
X021100Y004464D01*
X019100Y004464D02*
X019100Y003944D01*
X018100Y003944D02*
X018100Y004464D01*
X017100Y004464D02*
X017100Y003944D01*
X016100Y003944D02*
X016100Y004464D01*
X015100Y004464D02*
X015100Y003944D01*
X014100Y003944D02*
X014100Y004464D01*
X013100Y004464D02*
X013100Y003944D01*
X012100Y003944D02*
X012100Y004464D01*
X011100Y004464D02*
X011100Y003944D01*
X009600Y003944D02*
X009600Y004464D01*
X008600Y004464D02*
X008600Y003944D01*
X007600Y003944D02*
X007600Y004464D01*
X006600Y004464D02*
X006600Y003944D01*
X005600Y003944D02*
X005600Y004464D01*
X004600Y004464D02*
X004600Y003944D01*
X003600Y003944D02*
X003600Y004464D01*
X002600Y004464D02*
X002600Y003944D01*
X001600Y003944D02*
X001600Y004464D01*
X001600Y006944D02*
X001600Y007464D01*
X002600Y007464D02*
X002600Y006944D01*
X003600Y006944D02*
X003600Y007464D01*
X004600Y007464D02*
X004600Y006944D01*
X005600Y006944D02*
X005600Y007464D01*
X006600Y007464D02*
X006600Y006944D01*
X007600Y006944D02*
X007600Y007464D01*
X008600Y007464D02*
X008600Y006944D01*
X009600Y006944D02*
X009600Y007464D01*
X011100Y007464D02*
X011100Y006944D01*
X012100Y006944D02*
X012100Y007464D01*
X013100Y007464D02*
X013100Y006944D01*
X014100Y006944D02*
X014100Y007464D01*
X015100Y007464D02*
X015100Y006944D01*
X016100Y006944D02*
X016100Y007464D01*
X017100Y007464D02*
X017100Y006944D01*
X018100Y006944D02*
X018100Y007464D01*
X019100Y007464D02*
X019100Y006944D01*
X021100Y006944D02*
X021100Y007464D01*
X022100Y007464D02*
X022100Y006944D01*
X023100Y006944D02*
X023100Y007464D01*
D15*
X011600Y002204D03*
X007600Y002204D03*
D16*
X025049Y006704D03*
X026151Y006704D03*
D17*
X022600Y002755D03*
X022600Y001653D03*
X021100Y001653D03*
X021100Y002755D03*
X019600Y002755D03*
X019600Y001653D03*
D18*
X025049Y005204D03*
X026151Y005204D03*
D19*
X024900Y002704D03*
D20*
X026300Y002704D03*
D21*
X023100Y015779D03*
X020738Y016566D03*
X018462Y016566D03*
X016100Y015779D03*
X013738Y016566D03*
X011462Y016566D03*
X009100Y015779D03*
X006738Y016566D03*
X006738Y021369D03*
X011462Y021369D03*
X013738Y021369D03*
X018462Y021369D03*
X020738Y021369D03*
X025462Y021369D03*
X027738Y021369D03*
X032462Y021369D03*
X032462Y016566D03*
X030100Y015779D03*
X027738Y016566D03*
X025462Y016566D03*
D22*
X024850Y025704D03*
X022600Y025704D03*
X017850Y025704D03*
X015600Y025704D03*
X010850Y025704D03*
X008600Y025704D03*
X029600Y025704D03*
X031850Y025704D03*
X038100Y025704D03*
X038100Y022704D03*
D23*
X022600Y010704D03*
X015100Y010204D03*
X010100Y011204D03*
X009600Y010704D03*
X007600Y010204D03*
X015100Y002204D03*
M02*
