G75*
G70*
%OFA0B0*%
%FSLAX24Y24*%
%IPPOS*%
%LPD*%
%AMOC8*
5,1,8,0,0,1.08239X$1,22.5*
%
%ADD10C,0.0010*%
%ADD11R,0.0630X0.0787*%
%ADD12OC8,0.0520*%
%ADD13C,0.0554*%
%ADD14C,0.0520*%
%ADD15C,0.0660*%
%ADD16OC8,0.0630*%
%ADD17C,0.0630*%
%ADD18C,0.0768*%
%ADD19OC8,0.1500*%
%ADD20C,0.0540*%
%ADD21C,0.0400*%
%ADD22C,0.0180*%
%ADD23C,0.0360*%
D10*
X039332Y009944D02*
X039332Y011944D01*
X040132Y011944D01*
X040046Y011707D01*
X039983Y011464D01*
X039945Y011215D01*
X039932Y010964D01*
X039932Y010924D01*
X039945Y010673D01*
X039983Y010424D01*
X040046Y010180D01*
X040132Y009944D01*
X039332Y009944D01*
X039332Y009945D02*
X040131Y009945D01*
X040128Y009954D02*
X039332Y009954D01*
X039332Y009962D02*
X040125Y009962D01*
X040122Y009971D02*
X039332Y009971D01*
X039332Y009979D02*
X040119Y009979D01*
X040116Y009988D02*
X039332Y009988D01*
X039332Y009996D02*
X040113Y009996D01*
X040110Y010005D02*
X039332Y010005D01*
X039332Y010013D02*
X040106Y010013D01*
X040103Y010022D02*
X039332Y010022D01*
X039332Y010030D02*
X040100Y010030D01*
X040097Y010039D02*
X039332Y010039D01*
X039332Y010047D02*
X040094Y010047D01*
X040091Y010056D02*
X039332Y010056D01*
X039332Y010064D02*
X040088Y010064D01*
X040085Y010073D02*
X039332Y010073D01*
X039332Y010081D02*
X040082Y010081D01*
X040079Y010090D02*
X039332Y010090D01*
X039332Y010098D02*
X040076Y010098D01*
X040072Y010107D02*
X039332Y010107D01*
X039332Y010115D02*
X040069Y010115D01*
X040066Y010124D02*
X039332Y010124D01*
X039332Y010132D02*
X040063Y010132D01*
X040060Y010141D02*
X039332Y010141D01*
X039332Y010149D02*
X040057Y010149D01*
X040054Y010158D02*
X039332Y010158D01*
X039332Y010166D02*
X040051Y010166D01*
X040048Y010175D02*
X039332Y010175D01*
X039332Y010183D02*
X040045Y010183D01*
X040043Y010192D02*
X039332Y010192D01*
X039332Y010200D02*
X040041Y010200D01*
X040038Y010209D02*
X039332Y010209D01*
X039332Y010217D02*
X040036Y010217D01*
X040034Y010226D02*
X039332Y010226D01*
X039332Y010234D02*
X040032Y010234D01*
X040030Y010243D02*
X039332Y010243D01*
X039332Y010251D02*
X040028Y010251D01*
X040025Y010260D02*
X039332Y010260D01*
X039332Y010268D02*
X040023Y010268D01*
X040021Y010277D02*
X039332Y010277D01*
X039332Y010285D02*
X040019Y010285D01*
X040017Y010294D02*
X039332Y010294D01*
X039332Y010302D02*
X040015Y010302D01*
X040012Y010311D02*
X039332Y010311D01*
X039332Y010319D02*
X040010Y010319D01*
X040008Y010328D02*
X039332Y010328D01*
X039332Y010336D02*
X040006Y010336D01*
X040004Y010345D02*
X039332Y010345D01*
X039332Y010353D02*
X040001Y010353D01*
X039999Y010362D02*
X039332Y010362D01*
X039332Y010370D02*
X039997Y010370D01*
X039995Y010379D02*
X039332Y010379D01*
X039332Y010387D02*
X039993Y010387D01*
X039991Y010396D02*
X039332Y010396D01*
X039332Y010404D02*
X039988Y010404D01*
X039986Y010413D02*
X039332Y010413D01*
X039332Y010421D02*
X039984Y010421D01*
X039982Y010430D02*
X039332Y010430D01*
X039332Y010438D02*
X039981Y010438D01*
X039980Y010447D02*
X039332Y010447D01*
X039332Y010455D02*
X039979Y010455D01*
X039977Y010464D02*
X039332Y010464D01*
X039332Y010472D02*
X039976Y010472D01*
X039975Y010481D02*
X039332Y010481D01*
X039332Y010489D02*
X039973Y010489D01*
X039972Y010498D02*
X039332Y010498D01*
X039332Y010506D02*
X039971Y010506D01*
X039969Y010515D02*
X039332Y010515D01*
X039332Y010523D02*
X039968Y010523D01*
X039967Y010532D02*
X039332Y010532D01*
X039332Y010540D02*
X039966Y010540D01*
X039964Y010549D02*
X039332Y010549D01*
X039332Y010557D02*
X039963Y010557D01*
X039962Y010566D02*
X039332Y010566D01*
X039332Y010574D02*
X039960Y010574D01*
X039959Y010583D02*
X039332Y010583D01*
X039332Y010591D02*
X039958Y010591D01*
X039956Y010600D02*
X039332Y010600D01*
X039332Y010608D02*
X039955Y010608D01*
X039954Y010617D02*
X039332Y010617D01*
X039332Y010625D02*
X039952Y010625D01*
X039951Y010634D02*
X039332Y010634D01*
X039332Y010642D02*
X039950Y010642D01*
X039949Y010651D02*
X039332Y010651D01*
X039332Y010659D02*
X039947Y010659D01*
X039946Y010668D02*
X039332Y010668D01*
X039332Y010676D02*
X039945Y010676D01*
X039945Y010685D02*
X039332Y010685D01*
X039332Y010693D02*
X039944Y010693D01*
X039944Y010702D02*
X039332Y010702D01*
X039332Y010710D02*
X039943Y010710D01*
X039943Y010719D02*
X039332Y010719D01*
X039332Y010727D02*
X039942Y010727D01*
X039942Y010736D02*
X039332Y010736D01*
X039332Y010744D02*
X039941Y010744D01*
X039941Y010753D02*
X039332Y010753D01*
X039332Y010761D02*
X039940Y010761D01*
X039940Y010770D02*
X039332Y010770D01*
X039332Y010778D02*
X039940Y010778D01*
X039939Y010787D02*
X039332Y010787D01*
X039332Y010795D02*
X039939Y010795D01*
X039938Y010804D02*
X039332Y010804D01*
X039332Y010812D02*
X039938Y010812D01*
X039937Y010821D02*
X039332Y010821D01*
X039332Y010829D02*
X039937Y010829D01*
X039936Y010838D02*
X039332Y010838D01*
X039332Y010846D02*
X039936Y010846D01*
X039935Y010855D02*
X039332Y010855D01*
X039332Y010863D02*
X039935Y010863D01*
X039934Y010872D02*
X039332Y010872D01*
X039332Y010880D02*
X039934Y010880D01*
X039934Y010889D02*
X039332Y010889D01*
X039332Y010897D02*
X039933Y010897D01*
X039933Y010906D02*
X039332Y010906D01*
X039332Y010914D02*
X039932Y010914D01*
X039932Y010923D02*
X039332Y010923D01*
X039332Y010931D02*
X039932Y010931D01*
X039932Y010940D02*
X039332Y010940D01*
X039332Y010948D02*
X039932Y010948D01*
X039932Y010957D02*
X039332Y010957D01*
X039332Y010965D02*
X039932Y010965D01*
X039932Y010974D02*
X039332Y010974D01*
X039332Y010982D02*
X039933Y010982D01*
X039933Y010991D02*
X039332Y010991D01*
X039332Y010999D02*
X039934Y010999D01*
X039934Y011008D02*
X039332Y011008D01*
X039332Y011016D02*
X039934Y011016D01*
X039935Y011025D02*
X039332Y011025D01*
X039332Y011033D02*
X039935Y011033D01*
X039936Y011042D02*
X039332Y011042D01*
X039332Y011050D02*
X039936Y011050D01*
X039937Y011059D02*
X039332Y011059D01*
X039332Y011067D02*
X039937Y011067D01*
X039938Y011076D02*
X039332Y011076D01*
X039332Y011084D02*
X039938Y011084D01*
X039939Y011093D02*
X039332Y011093D01*
X039332Y011101D02*
X039939Y011101D01*
X039940Y011110D02*
X039332Y011110D01*
X039332Y011118D02*
X039940Y011118D01*
X039940Y011127D02*
X039332Y011127D01*
X039332Y011135D02*
X039941Y011135D01*
X039941Y011144D02*
X039332Y011144D01*
X039332Y011152D02*
X039942Y011152D01*
X039942Y011161D02*
X039332Y011161D01*
X039332Y011169D02*
X039943Y011169D01*
X039943Y011178D02*
X039332Y011178D01*
X039332Y011186D02*
X039944Y011186D01*
X039944Y011195D02*
X039332Y011195D01*
X039332Y011203D02*
X039945Y011203D01*
X039945Y011212D02*
X039332Y011212D01*
X039332Y011220D02*
X039946Y011220D01*
X039947Y011229D02*
X039332Y011229D01*
X039332Y011237D02*
X039949Y011237D01*
X039950Y011246D02*
X039332Y011246D01*
X039332Y011254D02*
X039951Y011254D01*
X039952Y011263D02*
X039332Y011263D01*
X039332Y011271D02*
X039954Y011271D01*
X039955Y011280D02*
X039332Y011280D01*
X039332Y011288D02*
X039956Y011288D01*
X039958Y011297D02*
X039332Y011297D01*
X039332Y011305D02*
X039959Y011305D01*
X039960Y011314D02*
X039332Y011314D01*
X039332Y011322D02*
X039962Y011322D01*
X039963Y011331D02*
X039332Y011331D01*
X039332Y011339D02*
X039964Y011339D01*
X039966Y011348D02*
X039332Y011348D01*
X039332Y011356D02*
X039967Y011356D01*
X039968Y011365D02*
X039332Y011365D01*
X039332Y011373D02*
X039969Y011373D01*
X039971Y011382D02*
X039332Y011382D01*
X039332Y011390D02*
X039972Y011390D01*
X039973Y011399D02*
X039332Y011399D01*
X039332Y011407D02*
X039975Y011407D01*
X039976Y011416D02*
X039332Y011416D01*
X039332Y011424D02*
X039977Y011424D01*
X039979Y011433D02*
X039332Y011433D01*
X039332Y011441D02*
X039980Y011441D01*
X039981Y011450D02*
X039332Y011450D01*
X039332Y011458D02*
X039982Y011458D01*
X039984Y011467D02*
X039332Y011467D01*
X039332Y011475D02*
X039986Y011475D01*
X039988Y011484D02*
X039332Y011484D01*
X039332Y011492D02*
X039991Y011492D01*
X039993Y011501D02*
X039332Y011501D01*
X039332Y011509D02*
X039995Y011509D01*
X039997Y011518D02*
X039332Y011518D01*
X039332Y011526D02*
X039999Y011526D01*
X040001Y011535D02*
X039332Y011535D01*
X039332Y011543D02*
X040004Y011543D01*
X040006Y011552D02*
X039332Y011552D01*
X039332Y011560D02*
X040008Y011560D01*
X040010Y011569D02*
X039332Y011569D01*
X039332Y011577D02*
X040012Y011577D01*
X040014Y011586D02*
X039332Y011586D01*
X039332Y011594D02*
X040017Y011594D01*
X040019Y011603D02*
X039332Y011603D01*
X039332Y011611D02*
X040021Y011611D01*
X040023Y011620D02*
X039332Y011620D01*
X039332Y011628D02*
X040025Y011628D01*
X040028Y011637D02*
X039332Y011637D01*
X039332Y011645D02*
X040030Y011645D01*
X040032Y011654D02*
X039332Y011654D01*
X039332Y011662D02*
X040034Y011662D01*
X040036Y011671D02*
X039332Y011671D01*
X039332Y011679D02*
X040038Y011679D01*
X040041Y011688D02*
X039332Y011688D01*
X039332Y011696D02*
X040043Y011696D01*
X040045Y011705D02*
X039332Y011705D01*
X039332Y011713D02*
X040048Y011713D01*
X040051Y011722D02*
X039332Y011722D01*
X039332Y011730D02*
X040054Y011730D01*
X040057Y011739D02*
X039332Y011739D01*
X039332Y011747D02*
X040060Y011747D01*
X040063Y011756D02*
X039332Y011756D01*
X039332Y011764D02*
X040066Y011764D01*
X040069Y011773D02*
X039332Y011773D01*
X039332Y011781D02*
X040072Y011781D01*
X040076Y011790D02*
X039332Y011790D01*
X039332Y011798D02*
X040079Y011798D01*
X040082Y011807D02*
X039332Y011807D01*
X039332Y011815D02*
X040085Y011815D01*
X040088Y011824D02*
X039332Y011824D01*
X039332Y011832D02*
X040091Y011832D01*
X040094Y011841D02*
X039332Y011841D01*
X039332Y011849D02*
X040097Y011849D01*
X040100Y011858D02*
X039332Y011858D01*
X039332Y011866D02*
X040103Y011866D01*
X040106Y011875D02*
X039332Y011875D01*
X039332Y011883D02*
X040110Y011883D01*
X040113Y011892D02*
X039332Y011892D01*
X039332Y011900D02*
X040116Y011900D01*
X040119Y011909D02*
X039332Y011909D01*
X039332Y011917D02*
X040122Y011917D01*
X040125Y011926D02*
X039332Y011926D01*
X039332Y011934D02*
X040128Y011934D01*
X040131Y011943D02*
X039332Y011943D01*
X040296Y011704D02*
X040227Y011456D01*
X040186Y011201D01*
X040172Y010944D01*
X040172Y010924D01*
X040188Y010671D01*
X040230Y010422D01*
X040298Y010179D01*
X040391Y009944D01*
X040612Y009944D01*
X040516Y010158D01*
X040444Y010381D01*
X040395Y010611D01*
X040372Y010844D01*
X040572Y010844D01*
X040572Y011044D01*
X040372Y011044D01*
X040395Y011277D01*
X040444Y011507D01*
X040516Y011730D01*
X040306Y011730D01*
X040303Y011722D02*
X040513Y011722D01*
X040516Y011730D02*
X040612Y011944D01*
X040391Y011944D01*
X040296Y011704D01*
X040296Y011705D02*
X040508Y011705D01*
X040510Y011713D02*
X040300Y011713D01*
X040294Y011696D02*
X040505Y011696D01*
X040502Y011688D02*
X040291Y011688D01*
X040289Y011679D02*
X040499Y011679D01*
X040497Y011671D02*
X040287Y011671D01*
X040284Y011662D02*
X040494Y011662D01*
X040491Y011654D02*
X040282Y011654D01*
X040280Y011645D02*
X040488Y011645D01*
X040486Y011637D02*
X040277Y011637D01*
X040275Y011628D02*
X040483Y011628D01*
X040480Y011620D02*
X040273Y011620D01*
X040270Y011611D02*
X040477Y011611D01*
X040475Y011603D02*
X040268Y011603D01*
X040266Y011594D02*
X040472Y011594D01*
X040469Y011586D02*
X040263Y011586D01*
X040261Y011577D02*
X040466Y011577D01*
X040464Y011569D02*
X040259Y011569D01*
X040256Y011560D02*
X040461Y011560D01*
X040458Y011552D02*
X040254Y011552D01*
X040251Y011543D02*
X040455Y011543D01*
X040453Y011535D02*
X040249Y011535D01*
X040247Y011526D02*
X040450Y011526D01*
X040447Y011518D02*
X040244Y011518D01*
X040242Y011509D02*
X040444Y011509D01*
X040442Y011501D02*
X040240Y011501D01*
X040237Y011492D02*
X040440Y011492D01*
X040439Y011484D02*
X040235Y011484D01*
X040233Y011475D02*
X040437Y011475D01*
X040435Y011467D02*
X040230Y011467D01*
X040228Y011458D02*
X040433Y011458D01*
X040432Y011450D02*
X040226Y011450D01*
X040225Y011441D02*
X040430Y011441D01*
X040428Y011433D02*
X040223Y011433D01*
X040222Y011424D02*
X040426Y011424D01*
X040424Y011416D02*
X040221Y011416D01*
X040219Y011407D02*
X040423Y011407D01*
X040421Y011399D02*
X040218Y011399D01*
X040216Y011390D02*
X040419Y011390D01*
X040417Y011382D02*
X040215Y011382D01*
X040214Y011373D02*
X040415Y011373D01*
X040414Y011365D02*
X040212Y011365D01*
X040211Y011356D02*
X040412Y011356D01*
X040410Y011348D02*
X040210Y011348D01*
X040208Y011339D02*
X040408Y011339D01*
X040407Y011331D02*
X040207Y011331D01*
X040205Y011322D02*
X040405Y011322D01*
X040403Y011314D02*
X040204Y011314D01*
X040203Y011305D02*
X040401Y011305D01*
X040399Y011297D02*
X040201Y011297D01*
X040200Y011288D02*
X040398Y011288D01*
X040396Y011280D02*
X040198Y011280D01*
X040197Y011271D02*
X040395Y011271D01*
X040394Y011263D02*
X040196Y011263D01*
X040194Y011254D02*
X040393Y011254D01*
X040392Y011246D02*
X040193Y011246D01*
X040191Y011237D02*
X040391Y011237D01*
X040390Y011229D02*
X040190Y011229D01*
X040189Y011220D02*
X040390Y011220D01*
X040389Y011212D02*
X040187Y011212D01*
X040186Y011203D02*
X040388Y011203D01*
X040387Y011195D02*
X040185Y011195D01*
X040185Y011186D02*
X040386Y011186D01*
X040385Y011178D02*
X040184Y011178D01*
X040184Y011169D02*
X040384Y011169D01*
X040384Y011161D02*
X040183Y011161D01*
X040183Y011152D02*
X040383Y011152D01*
X040382Y011144D02*
X040183Y011144D01*
X040182Y011135D02*
X040381Y011135D01*
X040380Y011127D02*
X040182Y011127D01*
X040181Y011118D02*
X040379Y011118D01*
X040378Y011110D02*
X040181Y011110D01*
X040180Y011101D02*
X040378Y011101D01*
X040377Y011093D02*
X040180Y011093D01*
X040179Y011084D02*
X040376Y011084D01*
X040375Y011076D02*
X040179Y011076D01*
X040178Y011067D02*
X040374Y011067D01*
X040373Y011059D02*
X040178Y011059D01*
X040178Y011050D02*
X040372Y011050D01*
X040177Y011042D02*
X040572Y011042D01*
X040572Y011033D02*
X040177Y011033D01*
X040176Y011025D02*
X040572Y011025D01*
X040572Y011016D02*
X040176Y011016D01*
X040175Y011008D02*
X040572Y011008D01*
X040572Y010999D02*
X040175Y010999D01*
X040174Y010991D02*
X040572Y010991D01*
X040572Y010982D02*
X040174Y010982D01*
X040173Y010974D02*
X040572Y010974D01*
X040572Y010965D02*
X040173Y010965D01*
X040172Y010957D02*
X040572Y010957D01*
X040572Y010948D02*
X040172Y010948D01*
X040172Y010940D02*
X040572Y010940D01*
X040572Y010931D02*
X040172Y010931D01*
X040172Y010923D02*
X040572Y010923D01*
X040572Y010914D02*
X040172Y010914D01*
X040173Y010906D02*
X040572Y010906D01*
X040572Y010897D02*
X040173Y010897D01*
X040174Y010889D02*
X040572Y010889D01*
X040572Y010880D02*
X040175Y010880D01*
X040175Y010872D02*
X040572Y010872D01*
X040572Y010863D02*
X040176Y010863D01*
X040176Y010855D02*
X040572Y010855D01*
X040572Y010846D02*
X040177Y010846D01*
X040177Y010838D02*
X040372Y010838D01*
X040373Y010829D02*
X040178Y010829D01*
X040178Y010821D02*
X040374Y010821D01*
X040375Y010812D02*
X040179Y010812D01*
X040179Y010804D02*
X040376Y010804D01*
X040377Y010795D02*
X040180Y010795D01*
X040180Y010787D02*
X040378Y010787D01*
X040378Y010778D02*
X040181Y010778D01*
X040181Y010770D02*
X040379Y010770D01*
X040380Y010761D02*
X040182Y010761D01*
X040183Y010753D02*
X040381Y010753D01*
X040382Y010744D02*
X040183Y010744D01*
X040184Y010736D02*
X040383Y010736D01*
X040384Y010727D02*
X040184Y010727D01*
X040185Y010719D02*
X040384Y010719D01*
X040385Y010710D02*
X040185Y010710D01*
X040186Y010702D02*
X040386Y010702D01*
X040387Y010693D02*
X040186Y010693D01*
X040187Y010685D02*
X040388Y010685D01*
X040389Y010676D02*
X040187Y010676D01*
X040188Y010668D02*
X040390Y010668D01*
X040390Y010659D02*
X040190Y010659D01*
X040191Y010651D02*
X040391Y010651D01*
X040392Y010642D02*
X040193Y010642D01*
X040194Y010634D02*
X040393Y010634D01*
X040394Y010625D02*
X040195Y010625D01*
X040197Y010617D02*
X040395Y010617D01*
X040396Y010608D02*
X040198Y010608D01*
X040200Y010600D02*
X040398Y010600D01*
X040399Y010591D02*
X040201Y010591D01*
X040203Y010583D02*
X040401Y010583D01*
X040403Y010574D02*
X040204Y010574D01*
X040206Y010566D02*
X040405Y010566D01*
X040407Y010557D02*
X040207Y010557D01*
X040208Y010549D02*
X040408Y010549D01*
X040410Y010540D02*
X040210Y010540D01*
X040211Y010532D02*
X040412Y010532D01*
X040414Y010523D02*
X040213Y010523D01*
X040214Y010515D02*
X040415Y010515D01*
X040417Y010506D02*
X040216Y010506D01*
X040217Y010498D02*
X040419Y010498D01*
X040421Y010489D02*
X040218Y010489D01*
X040220Y010481D02*
X040423Y010481D01*
X040424Y010472D02*
X040221Y010472D01*
X040223Y010464D02*
X040426Y010464D01*
X040428Y010455D02*
X040224Y010455D01*
X040226Y010447D02*
X040430Y010447D01*
X040432Y010438D02*
X040227Y010438D01*
X040229Y010430D02*
X040433Y010430D01*
X040435Y010421D02*
X040230Y010421D01*
X040233Y010413D02*
X040437Y010413D01*
X040439Y010404D02*
X040235Y010404D01*
X040237Y010396D02*
X040440Y010396D01*
X040442Y010387D02*
X040240Y010387D01*
X040242Y010379D02*
X040444Y010379D01*
X040447Y010370D02*
X040244Y010370D01*
X040247Y010362D02*
X040450Y010362D01*
X040453Y010353D02*
X040249Y010353D01*
X040252Y010345D02*
X040455Y010345D01*
X040458Y010336D02*
X040254Y010336D01*
X040256Y010328D02*
X040461Y010328D01*
X040464Y010319D02*
X040259Y010319D01*
X040261Y010311D02*
X040466Y010311D01*
X040469Y010302D02*
X040263Y010302D01*
X040266Y010294D02*
X040472Y010294D01*
X040475Y010285D02*
X040268Y010285D01*
X040271Y010277D02*
X040477Y010277D01*
X040480Y010268D02*
X040273Y010268D01*
X040275Y010260D02*
X040483Y010260D01*
X040486Y010251D02*
X040278Y010251D01*
X040280Y010243D02*
X040488Y010243D01*
X040491Y010234D02*
X040283Y010234D01*
X040285Y010226D02*
X040494Y010226D01*
X040497Y010217D02*
X040287Y010217D01*
X040290Y010209D02*
X040499Y010209D01*
X040502Y010200D02*
X040292Y010200D01*
X040294Y010192D02*
X040505Y010192D01*
X040508Y010183D02*
X040297Y010183D01*
X040300Y010175D02*
X040511Y010175D01*
X040513Y010166D02*
X040303Y010166D01*
X040306Y010158D02*
X040516Y010158D01*
X040520Y010149D02*
X040310Y010149D01*
X040313Y010141D02*
X040524Y010141D01*
X040527Y010132D02*
X040317Y010132D01*
X040320Y010124D02*
X040531Y010124D01*
X040535Y010115D02*
X040323Y010115D01*
X040327Y010107D02*
X040539Y010107D01*
X040543Y010098D02*
X040330Y010098D01*
X040334Y010090D02*
X040546Y010090D01*
X040550Y010081D02*
X040337Y010081D01*
X040340Y010073D02*
X040554Y010073D01*
X040558Y010064D02*
X040344Y010064D01*
X040347Y010056D02*
X040562Y010056D01*
X040565Y010047D02*
X040350Y010047D01*
X040354Y010039D02*
X040569Y010039D01*
X040573Y010030D02*
X040357Y010030D01*
X040361Y010022D02*
X040577Y010022D01*
X040581Y010013D02*
X040364Y010013D01*
X040367Y010005D02*
X040584Y010005D01*
X040588Y009996D02*
X040371Y009996D01*
X040374Y009988D02*
X040592Y009988D01*
X040596Y009979D02*
X040378Y009979D01*
X040381Y009971D02*
X040600Y009971D01*
X040603Y009962D02*
X040384Y009962D01*
X040388Y009954D02*
X040607Y009954D01*
X040611Y009945D02*
X040391Y009945D01*
X040772Y009945D02*
X040972Y009945D01*
X040972Y009944D02*
X040972Y011944D01*
X040772Y011944D01*
X040772Y009944D01*
X040972Y009944D01*
X040972Y009954D02*
X040772Y009954D01*
X040772Y009962D02*
X040972Y009962D01*
X040972Y009971D02*
X040772Y009971D01*
X040772Y009979D02*
X040972Y009979D01*
X040972Y009988D02*
X040772Y009988D01*
X040772Y009996D02*
X040972Y009996D01*
X040972Y010005D02*
X040772Y010005D01*
X040772Y010013D02*
X040972Y010013D01*
X040972Y010022D02*
X040772Y010022D01*
X040772Y010030D02*
X040972Y010030D01*
X040972Y010039D02*
X040772Y010039D01*
X040772Y010047D02*
X040972Y010047D01*
X040972Y010056D02*
X040772Y010056D01*
X040772Y010064D02*
X040972Y010064D01*
X040972Y010073D02*
X040772Y010073D01*
X040772Y010081D02*
X040972Y010081D01*
X040972Y010090D02*
X040772Y010090D01*
X040772Y010098D02*
X040972Y010098D01*
X040972Y010107D02*
X040772Y010107D01*
X040772Y010115D02*
X040972Y010115D01*
X040972Y010124D02*
X040772Y010124D01*
X040772Y010132D02*
X040972Y010132D01*
X040972Y010141D02*
X040772Y010141D01*
X040772Y010149D02*
X040972Y010149D01*
X040972Y010158D02*
X040772Y010158D01*
X040772Y010166D02*
X040972Y010166D01*
X040972Y010175D02*
X040772Y010175D01*
X040772Y010183D02*
X040972Y010183D01*
X040972Y010192D02*
X040772Y010192D01*
X040772Y010200D02*
X040972Y010200D01*
X040972Y010209D02*
X040772Y010209D01*
X040772Y010217D02*
X040972Y010217D01*
X040972Y010226D02*
X040772Y010226D01*
X040772Y010234D02*
X040972Y010234D01*
X040972Y010243D02*
X040772Y010243D01*
X040772Y010251D02*
X040972Y010251D01*
X040972Y010260D02*
X040772Y010260D01*
X040772Y010268D02*
X040972Y010268D01*
X040972Y010277D02*
X040772Y010277D01*
X040772Y010285D02*
X040972Y010285D01*
X040972Y010294D02*
X040772Y010294D01*
X040772Y010302D02*
X040972Y010302D01*
X040972Y010311D02*
X040772Y010311D01*
X040772Y010319D02*
X040972Y010319D01*
X040972Y010328D02*
X040772Y010328D01*
X040772Y010336D02*
X040972Y010336D01*
X040972Y010345D02*
X040772Y010345D01*
X040772Y010353D02*
X040972Y010353D01*
X040972Y010362D02*
X040772Y010362D01*
X040772Y010370D02*
X040972Y010370D01*
X040972Y010379D02*
X040772Y010379D01*
X040772Y010387D02*
X040972Y010387D01*
X040972Y010396D02*
X040772Y010396D01*
X040772Y010404D02*
X040972Y010404D01*
X040972Y010413D02*
X040772Y010413D01*
X040772Y010421D02*
X040972Y010421D01*
X040972Y010430D02*
X040772Y010430D01*
X040772Y010438D02*
X040972Y010438D01*
X040972Y010447D02*
X040772Y010447D01*
X040772Y010455D02*
X040972Y010455D01*
X040972Y010464D02*
X040772Y010464D01*
X040772Y010472D02*
X040972Y010472D01*
X040972Y010481D02*
X040772Y010481D01*
X040772Y010489D02*
X040972Y010489D01*
X040972Y010498D02*
X040772Y010498D01*
X040772Y010506D02*
X040972Y010506D01*
X040972Y010515D02*
X040772Y010515D01*
X040772Y010523D02*
X040972Y010523D01*
X040972Y010532D02*
X040772Y010532D01*
X040772Y010540D02*
X040972Y010540D01*
X040972Y010549D02*
X040772Y010549D01*
X040772Y010557D02*
X040972Y010557D01*
X040972Y010566D02*
X040772Y010566D01*
X040772Y010574D02*
X040972Y010574D01*
X040972Y010583D02*
X040772Y010583D01*
X040772Y010591D02*
X040972Y010591D01*
X040972Y010600D02*
X040772Y010600D01*
X040772Y010608D02*
X040972Y010608D01*
X040972Y010617D02*
X040772Y010617D01*
X040772Y010625D02*
X040972Y010625D01*
X040972Y010634D02*
X040772Y010634D01*
X040772Y010642D02*
X040972Y010642D01*
X040972Y010651D02*
X040772Y010651D01*
X040772Y010659D02*
X040972Y010659D01*
X040972Y010668D02*
X040772Y010668D01*
X040772Y010676D02*
X040972Y010676D01*
X040972Y010685D02*
X040772Y010685D01*
X040772Y010693D02*
X040972Y010693D01*
X040972Y010702D02*
X040772Y010702D01*
X040772Y010710D02*
X040972Y010710D01*
X040972Y010719D02*
X040772Y010719D01*
X040772Y010727D02*
X040972Y010727D01*
X040972Y010736D02*
X040772Y010736D01*
X040772Y010744D02*
X040972Y010744D01*
X040972Y010753D02*
X040772Y010753D01*
X040772Y010761D02*
X040972Y010761D01*
X040972Y010770D02*
X040772Y010770D01*
X040772Y010778D02*
X040972Y010778D01*
X040972Y010787D02*
X040772Y010787D01*
X040772Y010795D02*
X040972Y010795D01*
X040972Y010804D02*
X040772Y010804D01*
X040772Y010812D02*
X040972Y010812D01*
X040972Y010821D02*
X040772Y010821D01*
X040772Y010829D02*
X040972Y010829D01*
X040972Y010838D02*
X040772Y010838D01*
X040772Y010846D02*
X040972Y010846D01*
X040972Y010855D02*
X040772Y010855D01*
X040772Y010863D02*
X040972Y010863D01*
X040972Y010872D02*
X040772Y010872D01*
X040772Y010880D02*
X040972Y010880D01*
X040972Y010889D02*
X040772Y010889D01*
X040772Y010897D02*
X040972Y010897D01*
X040972Y010906D02*
X040772Y010906D01*
X040772Y010914D02*
X040972Y010914D01*
X040972Y010923D02*
X040772Y010923D01*
X040772Y010931D02*
X040972Y010931D01*
X040972Y010940D02*
X040772Y010940D01*
X040772Y010948D02*
X040972Y010948D01*
X040972Y010957D02*
X040772Y010957D01*
X040772Y010965D02*
X040972Y010965D01*
X040972Y010974D02*
X040772Y010974D01*
X040772Y010982D02*
X040972Y010982D01*
X040972Y010991D02*
X040772Y010991D01*
X040772Y010999D02*
X040972Y010999D01*
X040972Y011008D02*
X040772Y011008D01*
X040772Y011016D02*
X040972Y011016D01*
X040972Y011025D02*
X040772Y011025D01*
X040772Y011033D02*
X040972Y011033D01*
X040972Y011042D02*
X040772Y011042D01*
X040772Y011050D02*
X040972Y011050D01*
X040972Y011059D02*
X040772Y011059D01*
X040772Y011067D02*
X040972Y011067D01*
X040972Y011076D02*
X040772Y011076D01*
X040772Y011084D02*
X040972Y011084D01*
X040972Y011093D02*
X040772Y011093D01*
X040772Y011101D02*
X040972Y011101D01*
X040972Y011110D02*
X040772Y011110D01*
X040772Y011118D02*
X040972Y011118D01*
X040972Y011127D02*
X040772Y011127D01*
X040772Y011135D02*
X040972Y011135D01*
X040972Y011144D02*
X040772Y011144D01*
X040772Y011152D02*
X040972Y011152D01*
X040972Y011161D02*
X040772Y011161D01*
X040772Y011169D02*
X040972Y011169D01*
X040972Y011178D02*
X040772Y011178D01*
X040772Y011186D02*
X040972Y011186D01*
X040972Y011195D02*
X040772Y011195D01*
X040772Y011203D02*
X040972Y011203D01*
X040972Y011212D02*
X040772Y011212D01*
X040772Y011220D02*
X040972Y011220D01*
X040972Y011229D02*
X040772Y011229D01*
X040772Y011237D02*
X040972Y011237D01*
X040972Y011246D02*
X040772Y011246D01*
X040772Y011254D02*
X040972Y011254D01*
X040972Y011263D02*
X040772Y011263D01*
X040772Y011271D02*
X040972Y011271D01*
X040972Y011280D02*
X040772Y011280D01*
X040772Y011288D02*
X040972Y011288D01*
X040972Y011297D02*
X040772Y011297D01*
X040772Y011305D02*
X040972Y011305D01*
X040972Y011314D02*
X040772Y011314D01*
X040772Y011322D02*
X040972Y011322D01*
X040972Y011331D02*
X040772Y011331D01*
X040772Y011339D02*
X040972Y011339D01*
X040972Y011348D02*
X040772Y011348D01*
X040772Y011356D02*
X040972Y011356D01*
X040972Y011365D02*
X040772Y011365D01*
X040772Y011373D02*
X040972Y011373D01*
X040972Y011382D02*
X040772Y011382D01*
X040772Y011390D02*
X040972Y011390D01*
X040972Y011399D02*
X040772Y011399D01*
X040772Y011407D02*
X040972Y011407D01*
X040972Y011416D02*
X040772Y011416D01*
X040772Y011424D02*
X040972Y011424D01*
X040972Y011433D02*
X040772Y011433D01*
X040772Y011441D02*
X040972Y011441D01*
X040972Y011450D02*
X040772Y011450D01*
X040772Y011458D02*
X040972Y011458D01*
X040972Y011467D02*
X040772Y011467D01*
X040772Y011475D02*
X040972Y011475D01*
X040972Y011484D02*
X040772Y011484D01*
X040772Y011492D02*
X040972Y011492D01*
X040972Y011501D02*
X040772Y011501D01*
X040772Y011509D02*
X040972Y011509D01*
X040972Y011518D02*
X040772Y011518D01*
X040772Y011526D02*
X040972Y011526D01*
X040972Y011535D02*
X040772Y011535D01*
X040772Y011543D02*
X040972Y011543D01*
X040972Y011552D02*
X040772Y011552D01*
X040772Y011560D02*
X040972Y011560D01*
X040972Y011569D02*
X040772Y011569D01*
X040772Y011577D02*
X040972Y011577D01*
X040972Y011586D02*
X040772Y011586D01*
X040772Y011594D02*
X040972Y011594D01*
X040972Y011603D02*
X040772Y011603D01*
X040772Y011611D02*
X040972Y011611D01*
X040972Y011620D02*
X040772Y011620D01*
X040772Y011628D02*
X040972Y011628D01*
X040972Y011637D02*
X040772Y011637D01*
X040772Y011645D02*
X040972Y011645D01*
X040972Y011654D02*
X040772Y011654D01*
X040772Y011662D02*
X040972Y011662D01*
X040972Y011671D02*
X040772Y011671D01*
X040772Y011679D02*
X040972Y011679D01*
X040972Y011688D02*
X040772Y011688D01*
X040772Y011696D02*
X040972Y011696D01*
X040972Y011705D02*
X040772Y011705D01*
X040772Y011713D02*
X040972Y011713D01*
X040972Y011722D02*
X040772Y011722D01*
X040772Y011730D02*
X040972Y011730D01*
X040972Y011739D02*
X040772Y011739D01*
X040772Y011747D02*
X040972Y011747D01*
X040972Y011756D02*
X040772Y011756D01*
X040772Y011764D02*
X040972Y011764D01*
X040972Y011773D02*
X040772Y011773D01*
X040772Y011781D02*
X040972Y011781D01*
X040972Y011790D02*
X040772Y011790D01*
X040772Y011798D02*
X040972Y011798D01*
X040972Y011807D02*
X040772Y011807D01*
X040772Y011815D02*
X040972Y011815D01*
X040972Y011824D02*
X040772Y011824D01*
X040772Y011832D02*
X040972Y011832D01*
X040972Y011841D02*
X040772Y011841D01*
X040772Y011849D02*
X040972Y011849D01*
X040972Y011858D02*
X040772Y011858D01*
X040772Y011866D02*
X040972Y011866D01*
X040972Y011875D02*
X040772Y011875D01*
X040772Y011883D02*
X040972Y011883D01*
X040972Y011892D02*
X040772Y011892D01*
X040772Y011900D02*
X040972Y011900D01*
X040972Y011909D02*
X040772Y011909D01*
X040772Y011917D02*
X040972Y011917D01*
X040972Y011926D02*
X040772Y011926D01*
X040772Y011934D02*
X040972Y011934D01*
X040972Y011943D02*
X040772Y011943D01*
X040611Y011943D02*
X040391Y011943D01*
X040388Y011934D02*
X040607Y011934D01*
X040603Y011926D02*
X040384Y011926D01*
X040381Y011917D02*
X040600Y011917D01*
X040596Y011909D02*
X040377Y011909D01*
X040374Y011900D02*
X040592Y011900D01*
X040588Y011892D02*
X040371Y011892D01*
X040367Y011883D02*
X040584Y011883D01*
X040581Y011875D02*
X040364Y011875D01*
X040361Y011866D02*
X040577Y011866D01*
X040573Y011858D02*
X040357Y011858D01*
X040354Y011849D02*
X040569Y011849D01*
X040565Y011841D02*
X040350Y011841D01*
X040347Y011832D02*
X040562Y011832D01*
X040558Y011824D02*
X040344Y011824D01*
X040340Y011815D02*
X040554Y011815D01*
X040550Y011807D02*
X040337Y011807D01*
X040333Y011798D02*
X040546Y011798D01*
X040543Y011790D02*
X040330Y011790D01*
X040327Y011781D02*
X040539Y011781D01*
X040535Y011773D02*
X040323Y011773D01*
X040320Y011764D02*
X040531Y011764D01*
X040527Y011756D02*
X040317Y011756D01*
X040313Y011747D02*
X040524Y011747D01*
X040520Y011739D02*
X040310Y011739D01*
X041072Y011884D02*
X041072Y011944D01*
X041212Y011944D01*
X041271Y011827D01*
X041315Y011703D01*
X041342Y011575D01*
X041352Y011444D01*
X041342Y011313D01*
X041315Y011185D01*
X041271Y011061D01*
X041212Y010944D01*
X041082Y010944D01*
X041082Y011014D01*
X041129Y011110D01*
X041163Y011212D01*
X041184Y011317D01*
X041191Y011424D01*
X041350Y011424D01*
X041350Y011416D02*
X041191Y011416D01*
X041191Y011424D02*
X041191Y011464D01*
X041183Y011574D01*
X041159Y011682D01*
X041122Y011786D01*
X041072Y011884D01*
X041072Y011883D02*
X041242Y011883D01*
X041238Y011892D02*
X041072Y011892D01*
X041072Y011900D02*
X041234Y011900D01*
X041230Y011909D02*
X041072Y011909D01*
X041072Y011917D02*
X041225Y011917D01*
X041221Y011926D02*
X041072Y011926D01*
X041072Y011934D02*
X041217Y011934D01*
X041212Y011943D02*
X041072Y011943D01*
X041077Y011875D02*
X041247Y011875D01*
X041251Y011866D02*
X041081Y011866D01*
X041085Y011858D02*
X041255Y011858D01*
X041260Y011849D02*
X041090Y011849D01*
X041094Y011841D02*
X041264Y011841D01*
X041268Y011832D02*
X041099Y011832D01*
X041103Y011824D02*
X041272Y011824D01*
X041275Y011815D02*
X041107Y011815D01*
X041112Y011807D02*
X041278Y011807D01*
X041281Y011798D02*
X041116Y011798D01*
X041120Y011790D02*
X041284Y011790D01*
X041287Y011781D02*
X041124Y011781D01*
X041127Y011773D02*
X041290Y011773D01*
X041293Y011764D02*
X041130Y011764D01*
X041133Y011756D02*
X041296Y011756D01*
X041299Y011747D02*
X041136Y011747D01*
X041139Y011739D02*
X041302Y011739D01*
X041305Y011730D02*
X041142Y011730D01*
X041145Y011722D02*
X041308Y011722D01*
X041311Y011713D02*
X041148Y011713D01*
X041151Y011705D02*
X041314Y011705D01*
X041316Y011696D02*
X041154Y011696D01*
X041157Y011688D02*
X041318Y011688D01*
X041320Y011679D02*
X041160Y011679D01*
X041162Y011671D02*
X041322Y011671D01*
X041323Y011662D02*
X041164Y011662D01*
X041166Y011654D02*
X041325Y011654D01*
X041327Y011645D02*
X041167Y011645D01*
X041169Y011637D02*
X041329Y011637D01*
X041330Y011628D02*
X041171Y011628D01*
X041173Y011620D02*
X041332Y011620D01*
X041334Y011611D02*
X041175Y011611D01*
X041177Y011603D02*
X041336Y011603D01*
X041338Y011594D02*
X041178Y011594D01*
X041180Y011586D02*
X041339Y011586D01*
X041341Y011577D02*
X041182Y011577D01*
X041183Y011569D02*
X041342Y011569D01*
X041343Y011560D02*
X041184Y011560D01*
X041184Y011552D02*
X041344Y011552D01*
X041344Y011543D02*
X041185Y011543D01*
X041186Y011535D02*
X041345Y011535D01*
X041345Y011526D02*
X041187Y011526D01*
X041187Y011518D02*
X041346Y011518D01*
X041347Y011509D02*
X041188Y011509D01*
X041189Y011501D02*
X041347Y011501D01*
X041348Y011492D02*
X041189Y011492D01*
X041190Y011484D02*
X041349Y011484D01*
X041349Y011475D02*
X041191Y011475D01*
X041191Y011467D02*
X041350Y011467D01*
X041351Y011458D02*
X041191Y011458D01*
X041191Y011450D02*
X041351Y011450D01*
X041352Y011441D02*
X041191Y011441D01*
X041191Y011433D02*
X041351Y011433D01*
X041349Y011407D02*
X041190Y011407D01*
X041190Y011399D02*
X041348Y011399D01*
X041348Y011390D02*
X041189Y011390D01*
X041189Y011382D02*
X041347Y011382D01*
X041346Y011373D02*
X041188Y011373D01*
X041187Y011365D02*
X041346Y011365D01*
X041345Y011356D02*
X041187Y011356D01*
X041186Y011348D02*
X041344Y011348D01*
X041344Y011339D02*
X041186Y011339D01*
X041185Y011331D02*
X041343Y011331D01*
X041342Y011322D02*
X041184Y011322D01*
X041183Y011314D02*
X041342Y011314D01*
X041340Y011305D02*
X041182Y011305D01*
X041180Y011297D02*
X041338Y011297D01*
X041336Y011288D02*
X041178Y011288D01*
X041176Y011280D02*
X041335Y011280D01*
X041333Y011271D02*
X041175Y011271D01*
X041173Y011263D02*
X041331Y011263D01*
X041329Y011254D02*
X041171Y011254D01*
X041170Y011246D02*
X041328Y011246D01*
X041326Y011237D02*
X041168Y011237D01*
X041166Y011229D02*
X041324Y011229D01*
X041322Y011220D02*
X041165Y011220D01*
X041163Y011212D02*
X041320Y011212D01*
X041319Y011203D02*
X041160Y011203D01*
X041157Y011195D02*
X041317Y011195D01*
X041315Y011186D02*
X041154Y011186D01*
X041151Y011178D02*
X041312Y011178D01*
X041309Y011169D02*
X041148Y011169D01*
X041146Y011161D02*
X041306Y011161D01*
X041303Y011152D02*
X041143Y011152D01*
X041140Y011144D02*
X041300Y011144D01*
X041297Y011135D02*
X041137Y011135D01*
X041134Y011127D02*
X041294Y011127D01*
X041291Y011118D02*
X041131Y011118D01*
X041128Y011110D02*
X041288Y011110D01*
X041285Y011101D02*
X041124Y011101D01*
X041120Y011093D02*
X041282Y011093D01*
X041279Y011084D02*
X041116Y011084D01*
X041112Y011076D02*
X041276Y011076D01*
X041273Y011067D02*
X041108Y011067D01*
X041103Y011059D02*
X041270Y011059D01*
X041266Y011050D02*
X041099Y011050D01*
X041095Y011042D02*
X041261Y011042D01*
X041257Y011033D02*
X041091Y011033D01*
X041087Y011025D02*
X041253Y011025D01*
X041248Y011016D02*
X041083Y011016D01*
X041082Y011008D02*
X041244Y011008D01*
X041240Y010999D02*
X041082Y010999D01*
X041082Y010991D02*
X041235Y010991D01*
X041231Y010982D02*
X041082Y010982D01*
X041082Y010974D02*
X041227Y010974D01*
X041222Y010965D02*
X041082Y010965D01*
X041082Y010957D02*
X041218Y010957D01*
X041214Y010948D02*
X041082Y010948D01*
X041472Y010944D02*
X041486Y011201D01*
X041527Y011456D01*
X041596Y011704D01*
X041691Y011944D01*
X041912Y011944D01*
X041816Y011730D01*
X041606Y011730D01*
X041603Y011722D02*
X041813Y011722D01*
X041816Y011730D02*
X041744Y011507D01*
X041695Y011277D01*
X041672Y011044D01*
X041872Y011044D01*
X041872Y010844D01*
X041672Y010844D01*
X041672Y009944D01*
X041472Y009944D01*
X041472Y010944D01*
X041472Y010948D02*
X041872Y010948D01*
X041872Y010940D02*
X041472Y010940D01*
X041472Y010931D02*
X041872Y010931D01*
X041872Y010923D02*
X041472Y010923D01*
X041472Y010914D02*
X041872Y010914D01*
X041872Y010906D02*
X041472Y010906D01*
X041472Y010897D02*
X041872Y010897D01*
X041872Y010889D02*
X041472Y010889D01*
X041472Y010880D02*
X041872Y010880D01*
X041872Y010872D02*
X041472Y010872D01*
X041472Y010863D02*
X041872Y010863D01*
X041872Y010855D02*
X041472Y010855D01*
X041472Y010846D02*
X041872Y010846D01*
X041872Y010957D02*
X041472Y010957D01*
X041473Y010965D02*
X041872Y010965D01*
X041872Y010974D02*
X041473Y010974D01*
X041474Y010982D02*
X041872Y010982D01*
X041872Y010991D02*
X041474Y010991D01*
X041475Y010999D02*
X041872Y010999D01*
X041872Y011008D02*
X041475Y011008D01*
X041476Y011016D02*
X041872Y011016D01*
X041872Y011025D02*
X041476Y011025D01*
X041477Y011033D02*
X041872Y011033D01*
X041872Y011042D02*
X041477Y011042D01*
X041478Y011050D02*
X041672Y011050D01*
X041673Y011059D02*
X041478Y011059D01*
X041478Y011067D02*
X041674Y011067D01*
X041675Y011076D02*
X041479Y011076D01*
X041479Y011084D02*
X041676Y011084D01*
X041677Y011093D02*
X041480Y011093D01*
X041480Y011101D02*
X041678Y011101D01*
X041678Y011110D02*
X041481Y011110D01*
X041481Y011118D02*
X041679Y011118D01*
X041680Y011127D02*
X041482Y011127D01*
X041482Y011135D02*
X041681Y011135D01*
X041682Y011144D02*
X041483Y011144D01*
X041483Y011152D02*
X041683Y011152D01*
X041684Y011161D02*
X041483Y011161D01*
X041484Y011169D02*
X041684Y011169D01*
X041685Y011178D02*
X041484Y011178D01*
X041485Y011186D02*
X041686Y011186D01*
X041687Y011195D02*
X041485Y011195D01*
X041486Y011203D02*
X041688Y011203D01*
X041689Y011212D02*
X041487Y011212D01*
X041489Y011220D02*
X041690Y011220D01*
X041690Y011229D02*
X041490Y011229D01*
X041491Y011237D02*
X041691Y011237D01*
X041692Y011246D02*
X041493Y011246D01*
X041494Y011254D02*
X041693Y011254D01*
X041694Y011263D02*
X041496Y011263D01*
X041497Y011271D02*
X041695Y011271D01*
X041696Y011280D02*
X041498Y011280D01*
X041500Y011288D02*
X041698Y011288D01*
X041699Y011297D02*
X041501Y011297D01*
X041503Y011305D02*
X041701Y011305D01*
X041703Y011314D02*
X041504Y011314D01*
X041505Y011322D02*
X041705Y011322D01*
X041707Y011331D02*
X041507Y011331D01*
X041508Y011339D02*
X041708Y011339D01*
X041710Y011348D02*
X041510Y011348D01*
X041511Y011356D02*
X041712Y011356D01*
X041714Y011365D02*
X041512Y011365D01*
X041514Y011373D02*
X041715Y011373D01*
X041717Y011382D02*
X041515Y011382D01*
X041516Y011390D02*
X041719Y011390D01*
X041721Y011399D02*
X041518Y011399D01*
X041519Y011407D02*
X041723Y011407D01*
X041724Y011416D02*
X041521Y011416D01*
X041522Y011424D02*
X041726Y011424D01*
X041728Y011433D02*
X041523Y011433D01*
X041525Y011441D02*
X041730Y011441D01*
X041732Y011450D02*
X041526Y011450D01*
X041528Y011458D02*
X041733Y011458D01*
X041735Y011467D02*
X041530Y011467D01*
X041533Y011475D02*
X041737Y011475D01*
X041739Y011484D02*
X041535Y011484D01*
X041537Y011492D02*
X041740Y011492D01*
X041742Y011501D02*
X041540Y011501D01*
X041542Y011509D02*
X041744Y011509D01*
X041747Y011518D02*
X041544Y011518D01*
X041547Y011526D02*
X041750Y011526D01*
X041753Y011535D02*
X041549Y011535D01*
X041551Y011543D02*
X041755Y011543D01*
X041758Y011552D02*
X041554Y011552D01*
X041556Y011560D02*
X041761Y011560D01*
X041764Y011569D02*
X041559Y011569D01*
X041561Y011577D02*
X041766Y011577D01*
X041769Y011586D02*
X041563Y011586D01*
X041566Y011594D02*
X041772Y011594D01*
X041775Y011603D02*
X041568Y011603D01*
X041570Y011611D02*
X041777Y011611D01*
X041780Y011620D02*
X041573Y011620D01*
X041575Y011628D02*
X041783Y011628D01*
X041786Y011637D02*
X041577Y011637D01*
X041580Y011645D02*
X041788Y011645D01*
X041791Y011654D02*
X041582Y011654D01*
X041584Y011662D02*
X041794Y011662D01*
X041797Y011671D02*
X041587Y011671D01*
X041589Y011679D02*
X041799Y011679D01*
X041802Y011688D02*
X041591Y011688D01*
X041594Y011696D02*
X041805Y011696D01*
X041808Y011705D02*
X041596Y011705D01*
X041600Y011713D02*
X041810Y011713D01*
X041820Y011739D02*
X041610Y011739D01*
X041613Y011747D02*
X041824Y011747D01*
X041827Y011756D02*
X041617Y011756D01*
X041620Y011764D02*
X041831Y011764D01*
X041835Y011773D02*
X041623Y011773D01*
X041627Y011781D02*
X041839Y011781D01*
X041843Y011790D02*
X041630Y011790D01*
X041633Y011798D02*
X041846Y011798D01*
X041850Y011807D02*
X041637Y011807D01*
X041640Y011815D02*
X041854Y011815D01*
X041858Y011824D02*
X041644Y011824D01*
X041647Y011832D02*
X041862Y011832D01*
X041865Y011841D02*
X041650Y011841D01*
X041654Y011849D02*
X041869Y011849D01*
X041873Y011858D02*
X041657Y011858D01*
X041661Y011866D02*
X041877Y011866D01*
X041881Y011875D02*
X041664Y011875D01*
X041667Y011883D02*
X041884Y011883D01*
X041888Y011892D02*
X041671Y011892D01*
X041674Y011900D02*
X041892Y011900D01*
X041896Y011909D02*
X041677Y011909D01*
X041681Y011917D02*
X041900Y011917D01*
X041903Y011926D02*
X041684Y011926D01*
X041688Y011934D02*
X041907Y011934D01*
X041911Y011943D02*
X041691Y011943D01*
X042072Y011943D02*
X042272Y011943D01*
X042272Y011944D02*
X042272Y010844D01*
X042295Y010611D01*
X042344Y010381D01*
X042416Y010158D01*
X042512Y009944D01*
X042291Y009944D01*
X042198Y010179D01*
X042130Y010422D01*
X042088Y010671D01*
X042072Y010924D01*
X042072Y011944D01*
X042272Y011944D01*
X042272Y011934D02*
X042072Y011934D01*
X042072Y011926D02*
X042272Y011926D01*
X042272Y011917D02*
X042072Y011917D01*
X042072Y011909D02*
X042272Y011909D01*
X042272Y011900D02*
X042072Y011900D01*
X042072Y011892D02*
X042272Y011892D01*
X042272Y011883D02*
X042072Y011883D01*
X042072Y011875D02*
X042272Y011875D01*
X042272Y011866D02*
X042072Y011866D01*
X042072Y011858D02*
X042272Y011858D01*
X042272Y011849D02*
X042072Y011849D01*
X042072Y011841D02*
X042272Y011841D01*
X042272Y011832D02*
X042072Y011832D01*
X042072Y011824D02*
X042272Y011824D01*
X042272Y011815D02*
X042072Y011815D01*
X042072Y011807D02*
X042272Y011807D01*
X042272Y011798D02*
X042072Y011798D01*
X042072Y011790D02*
X042272Y011790D01*
X042272Y011781D02*
X042072Y011781D01*
X042072Y011773D02*
X042272Y011773D01*
X042272Y011764D02*
X042072Y011764D01*
X042072Y011756D02*
X042272Y011756D01*
X042272Y011747D02*
X042072Y011747D01*
X042072Y011739D02*
X042272Y011739D01*
X042272Y011730D02*
X042072Y011730D01*
X042072Y011722D02*
X042272Y011722D01*
X042272Y011713D02*
X042072Y011713D01*
X042072Y011705D02*
X042272Y011705D01*
X042272Y011696D02*
X042072Y011696D01*
X042072Y011688D02*
X042272Y011688D01*
X042272Y011679D02*
X042072Y011679D01*
X042072Y011671D02*
X042272Y011671D01*
X042272Y011662D02*
X042072Y011662D01*
X042072Y011654D02*
X042272Y011654D01*
X042272Y011645D02*
X042072Y011645D01*
X042072Y011637D02*
X042272Y011637D01*
X042272Y011628D02*
X042072Y011628D01*
X042072Y011620D02*
X042272Y011620D01*
X042272Y011611D02*
X042072Y011611D01*
X042072Y011603D02*
X042272Y011603D01*
X042272Y011594D02*
X042072Y011594D01*
X042072Y011586D02*
X042272Y011586D01*
X042272Y011577D02*
X042072Y011577D01*
X042072Y011569D02*
X042272Y011569D01*
X042272Y011560D02*
X042072Y011560D01*
X042072Y011552D02*
X042272Y011552D01*
X042272Y011543D02*
X042072Y011543D01*
X042072Y011535D02*
X042272Y011535D01*
X042272Y011526D02*
X042072Y011526D01*
X042072Y011518D02*
X042272Y011518D01*
X042272Y011509D02*
X042072Y011509D01*
X042072Y011501D02*
X042272Y011501D01*
X042272Y011492D02*
X042072Y011492D01*
X042072Y011484D02*
X042272Y011484D01*
X042272Y011475D02*
X042072Y011475D01*
X042072Y011467D02*
X042272Y011467D01*
X042272Y011458D02*
X042072Y011458D01*
X042072Y011450D02*
X042272Y011450D01*
X042272Y011441D02*
X042072Y011441D01*
X042072Y011433D02*
X042272Y011433D01*
X042272Y011424D02*
X042072Y011424D01*
X042072Y011416D02*
X042272Y011416D01*
X042272Y011407D02*
X042072Y011407D01*
X042072Y011399D02*
X042272Y011399D01*
X042272Y011390D02*
X042072Y011390D01*
X042072Y011382D02*
X042272Y011382D01*
X042272Y011373D02*
X042072Y011373D01*
X042072Y011365D02*
X042272Y011365D01*
X042272Y011356D02*
X042072Y011356D01*
X042072Y011348D02*
X042272Y011348D01*
X042272Y011339D02*
X042072Y011339D01*
X042072Y011331D02*
X042272Y011331D01*
X042272Y011322D02*
X042072Y011322D01*
X042072Y011314D02*
X042272Y011314D01*
X042272Y011305D02*
X042072Y011305D01*
X042072Y011297D02*
X042272Y011297D01*
X042272Y011288D02*
X042072Y011288D01*
X042072Y011280D02*
X042272Y011280D01*
X042272Y011271D02*
X042072Y011271D01*
X042072Y011263D02*
X042272Y011263D01*
X042272Y011254D02*
X042072Y011254D01*
X042072Y011246D02*
X042272Y011246D01*
X042272Y011237D02*
X042072Y011237D01*
X042072Y011229D02*
X042272Y011229D01*
X042272Y011220D02*
X042072Y011220D01*
X042072Y011212D02*
X042272Y011212D01*
X042272Y011203D02*
X042072Y011203D01*
X042072Y011195D02*
X042272Y011195D01*
X042272Y011186D02*
X042072Y011186D01*
X042072Y011178D02*
X042272Y011178D01*
X042272Y011169D02*
X042072Y011169D01*
X042072Y011161D02*
X042272Y011161D01*
X042272Y011152D02*
X042072Y011152D01*
X042072Y011144D02*
X042272Y011144D01*
X042272Y011135D02*
X042072Y011135D01*
X042072Y011127D02*
X042272Y011127D01*
X042272Y011118D02*
X042072Y011118D01*
X042072Y011110D02*
X042272Y011110D01*
X042272Y011101D02*
X042072Y011101D01*
X042072Y011093D02*
X042272Y011093D01*
X042272Y011084D02*
X042072Y011084D01*
X042072Y011076D02*
X042272Y011076D01*
X042272Y011067D02*
X042072Y011067D01*
X042072Y011059D02*
X042272Y011059D01*
X042272Y011050D02*
X042072Y011050D01*
X042072Y011042D02*
X042272Y011042D01*
X042272Y011033D02*
X042072Y011033D01*
X042072Y011025D02*
X042272Y011025D01*
X042272Y011016D02*
X042072Y011016D01*
X042072Y011008D02*
X042272Y011008D01*
X042272Y010999D02*
X042072Y010999D01*
X042072Y010991D02*
X042272Y010991D01*
X042272Y010982D02*
X042072Y010982D01*
X042072Y010974D02*
X042272Y010974D01*
X042272Y010965D02*
X042072Y010965D01*
X042072Y010957D02*
X042272Y010957D01*
X042272Y010948D02*
X042072Y010948D01*
X042072Y010940D02*
X042272Y010940D01*
X042272Y010931D02*
X042072Y010931D01*
X042072Y010923D02*
X042272Y010923D01*
X042272Y010914D02*
X042072Y010914D01*
X042073Y010906D02*
X042272Y010906D01*
X042272Y010897D02*
X042073Y010897D01*
X042074Y010889D02*
X042272Y010889D01*
X042272Y010880D02*
X042075Y010880D01*
X042075Y010872D02*
X042272Y010872D01*
X042272Y010863D02*
X042076Y010863D01*
X042076Y010855D02*
X042272Y010855D01*
X042272Y010846D02*
X042077Y010846D01*
X042077Y010838D02*
X042272Y010838D01*
X042273Y010829D02*
X042078Y010829D01*
X042078Y010821D02*
X042274Y010821D01*
X042275Y010812D02*
X042079Y010812D01*
X042079Y010804D02*
X042276Y010804D01*
X042277Y010795D02*
X042080Y010795D01*
X042080Y010787D02*
X042278Y010787D01*
X042278Y010778D02*
X042081Y010778D01*
X042081Y010770D02*
X042279Y010770D01*
X042280Y010761D02*
X042082Y010761D01*
X042083Y010753D02*
X042281Y010753D01*
X042282Y010744D02*
X042083Y010744D01*
X042084Y010736D02*
X042283Y010736D01*
X042284Y010727D02*
X042084Y010727D01*
X042085Y010719D02*
X042284Y010719D01*
X042285Y010710D02*
X042085Y010710D01*
X042086Y010702D02*
X042286Y010702D01*
X042287Y010693D02*
X042086Y010693D01*
X042087Y010685D02*
X042288Y010685D01*
X042289Y010676D02*
X042087Y010676D01*
X042088Y010668D02*
X042290Y010668D01*
X042290Y010659D02*
X042090Y010659D01*
X042091Y010651D02*
X042291Y010651D01*
X042292Y010642D02*
X042093Y010642D01*
X042094Y010634D02*
X042293Y010634D01*
X042294Y010625D02*
X042095Y010625D01*
X042097Y010617D02*
X042295Y010617D01*
X042296Y010608D02*
X042098Y010608D01*
X042100Y010600D02*
X042298Y010600D01*
X042299Y010591D02*
X042101Y010591D01*
X042103Y010583D02*
X042301Y010583D01*
X042303Y010574D02*
X042104Y010574D01*
X042106Y010566D02*
X042305Y010566D01*
X042307Y010557D02*
X042107Y010557D01*
X042108Y010549D02*
X042308Y010549D01*
X042310Y010540D02*
X042110Y010540D01*
X042111Y010532D02*
X042312Y010532D01*
X042314Y010523D02*
X042113Y010523D01*
X042114Y010515D02*
X042315Y010515D01*
X042317Y010506D02*
X042116Y010506D01*
X042117Y010498D02*
X042319Y010498D01*
X042321Y010489D02*
X042118Y010489D01*
X042120Y010481D02*
X042323Y010481D01*
X042324Y010472D02*
X042121Y010472D01*
X042123Y010464D02*
X042326Y010464D01*
X042328Y010455D02*
X042124Y010455D01*
X042126Y010447D02*
X042330Y010447D01*
X042332Y010438D02*
X042127Y010438D01*
X042129Y010430D02*
X042333Y010430D01*
X042335Y010421D02*
X042130Y010421D01*
X042133Y010413D02*
X042337Y010413D01*
X042339Y010404D02*
X042135Y010404D01*
X042137Y010396D02*
X042340Y010396D01*
X042342Y010387D02*
X042140Y010387D01*
X042142Y010379D02*
X042344Y010379D01*
X042347Y010370D02*
X042144Y010370D01*
X042147Y010362D02*
X042350Y010362D01*
X042353Y010353D02*
X042149Y010353D01*
X042152Y010345D02*
X042355Y010345D01*
X042358Y010336D02*
X042154Y010336D01*
X042156Y010328D02*
X042361Y010328D01*
X042364Y010319D02*
X042159Y010319D01*
X042161Y010311D02*
X042366Y010311D01*
X042369Y010302D02*
X042163Y010302D01*
X042166Y010294D02*
X042372Y010294D01*
X042375Y010285D02*
X042168Y010285D01*
X042171Y010277D02*
X042377Y010277D01*
X042380Y010268D02*
X042173Y010268D01*
X042175Y010260D02*
X042383Y010260D01*
X042386Y010251D02*
X042178Y010251D01*
X042180Y010243D02*
X042388Y010243D01*
X042391Y010234D02*
X042183Y010234D01*
X042185Y010226D02*
X042394Y010226D01*
X042397Y010217D02*
X042187Y010217D01*
X042190Y010209D02*
X042399Y010209D01*
X042402Y010200D02*
X042192Y010200D01*
X042194Y010192D02*
X042405Y010192D01*
X042408Y010183D02*
X042197Y010183D01*
X042200Y010175D02*
X042411Y010175D01*
X042413Y010166D02*
X042203Y010166D01*
X042206Y010158D02*
X042416Y010158D01*
X042420Y010149D02*
X042210Y010149D01*
X042213Y010141D02*
X042424Y010141D01*
X042427Y010132D02*
X042217Y010132D01*
X042220Y010124D02*
X042431Y010124D01*
X042435Y010115D02*
X042223Y010115D01*
X042227Y010107D02*
X042439Y010107D01*
X042443Y010098D02*
X042230Y010098D01*
X042234Y010090D02*
X042446Y010090D01*
X042450Y010081D02*
X042237Y010081D01*
X042240Y010073D02*
X042454Y010073D01*
X042458Y010064D02*
X042244Y010064D01*
X042247Y010056D02*
X042462Y010056D01*
X042465Y010047D02*
X042250Y010047D01*
X042254Y010039D02*
X042469Y010039D01*
X042473Y010030D02*
X042257Y010030D01*
X042261Y010022D02*
X042477Y010022D01*
X042481Y010013D02*
X042264Y010013D01*
X042267Y010005D02*
X042484Y010005D01*
X042488Y009996D02*
X042271Y009996D01*
X042274Y009988D02*
X042492Y009988D01*
X042496Y009979D02*
X042278Y009979D01*
X042281Y009971D02*
X042500Y009971D01*
X042503Y009962D02*
X042284Y009962D01*
X042288Y009954D02*
X042507Y009954D01*
X042511Y009945D02*
X042291Y009945D01*
X042677Y010115D02*
X043332Y010115D01*
X043332Y010107D02*
X042680Y010107D01*
X042684Y010098D02*
X043332Y010098D01*
X043332Y010090D02*
X042688Y010090D01*
X042691Y010081D02*
X043332Y010081D01*
X043332Y010073D02*
X042695Y010073D01*
X042699Y010064D02*
X043332Y010064D01*
X043332Y010056D02*
X042703Y010056D01*
X042706Y010047D02*
X043332Y010047D01*
X043332Y010039D02*
X042710Y010039D01*
X042714Y010030D02*
X043332Y010030D01*
X043332Y010022D02*
X042718Y010022D01*
X042721Y010013D02*
X043332Y010013D01*
X043332Y010005D02*
X042725Y010005D01*
X042729Y009996D02*
X043332Y009996D01*
X043332Y009988D02*
X042733Y009988D01*
X042736Y009979D02*
X043332Y009979D01*
X043332Y009971D02*
X042740Y009971D01*
X042744Y009962D02*
X043332Y009962D01*
X043332Y009954D02*
X042747Y009954D01*
X042751Y009945D02*
X043332Y009945D01*
X043332Y009944D02*
X042752Y009944D01*
X042649Y010177D01*
X042575Y010420D01*
X042529Y010670D01*
X042512Y010924D01*
X042512Y011944D01*
X043332Y011944D01*
X043332Y009944D01*
X043332Y010124D02*
X042673Y010124D01*
X042669Y010132D02*
X043332Y010132D01*
X043332Y010141D02*
X042665Y010141D01*
X042662Y010149D02*
X043332Y010149D01*
X043332Y010158D02*
X042658Y010158D01*
X042654Y010166D02*
X043332Y010166D01*
X043332Y010175D02*
X042650Y010175D01*
X042648Y010183D02*
X043332Y010183D01*
X043332Y010192D02*
X042645Y010192D01*
X042642Y010200D02*
X043332Y010200D01*
X043332Y010209D02*
X042640Y010209D01*
X042637Y010217D02*
X043332Y010217D01*
X043332Y010226D02*
X042634Y010226D01*
X042632Y010234D02*
X043332Y010234D01*
X043332Y010243D02*
X042629Y010243D01*
X042627Y010251D02*
X043332Y010251D01*
X043332Y010260D02*
X042624Y010260D01*
X042621Y010268D02*
X043332Y010268D01*
X043332Y010277D02*
X042619Y010277D01*
X042616Y010285D02*
X043332Y010285D01*
X043332Y010294D02*
X042614Y010294D01*
X042611Y010302D02*
X043332Y010302D01*
X043332Y010311D02*
X042608Y010311D01*
X042606Y010319D02*
X043332Y010319D01*
X043332Y010328D02*
X042603Y010328D01*
X042600Y010336D02*
X043332Y010336D01*
X043332Y010345D02*
X042598Y010345D01*
X042595Y010353D02*
X043332Y010353D01*
X043332Y010362D02*
X042593Y010362D01*
X042590Y010370D02*
X043332Y010370D01*
X043332Y010379D02*
X042587Y010379D01*
X042585Y010387D02*
X043332Y010387D01*
X043332Y010396D02*
X042582Y010396D01*
X042580Y010404D02*
X043332Y010404D01*
X043332Y010413D02*
X042577Y010413D01*
X042575Y010421D02*
X043332Y010421D01*
X043332Y010430D02*
X042573Y010430D01*
X042571Y010438D02*
X043332Y010438D01*
X043332Y010447D02*
X042570Y010447D01*
X042568Y010455D02*
X043332Y010455D01*
X043332Y010464D02*
X042567Y010464D01*
X042565Y010472D02*
X043332Y010472D01*
X043332Y010481D02*
X042564Y010481D01*
X042562Y010489D02*
X043332Y010489D01*
X043332Y010498D02*
X042560Y010498D01*
X042559Y010506D02*
X043332Y010506D01*
X043332Y010515D02*
X042557Y010515D01*
X042556Y010523D02*
X043332Y010523D01*
X043332Y010532D02*
X042554Y010532D01*
X042553Y010540D02*
X043332Y010540D01*
X043332Y010549D02*
X042551Y010549D01*
X042549Y010557D02*
X043332Y010557D01*
X043332Y010566D02*
X042548Y010566D01*
X042546Y010574D02*
X043332Y010574D01*
X043332Y010583D02*
X042545Y010583D01*
X042543Y010591D02*
X043332Y010591D01*
X043332Y010600D02*
X042542Y010600D01*
X042540Y010608D02*
X043332Y010608D01*
X043332Y010617D02*
X042538Y010617D01*
X042537Y010625D02*
X043332Y010625D01*
X043332Y010634D02*
X042535Y010634D01*
X042534Y010642D02*
X043332Y010642D01*
X043332Y010651D02*
X042532Y010651D01*
X042531Y010659D02*
X043332Y010659D01*
X043332Y010668D02*
X042529Y010668D01*
X042528Y010676D02*
X043332Y010676D01*
X043332Y010685D02*
X042528Y010685D01*
X042527Y010693D02*
X043332Y010693D01*
X043332Y010702D02*
X042526Y010702D01*
X042526Y010710D02*
X043332Y010710D01*
X043332Y010719D02*
X042525Y010719D01*
X042525Y010727D02*
X043332Y010727D01*
X043332Y010736D02*
X042524Y010736D01*
X042524Y010744D02*
X043332Y010744D01*
X043332Y010753D02*
X042523Y010753D01*
X042522Y010761D02*
X043332Y010761D01*
X043332Y010770D02*
X042522Y010770D01*
X042521Y010778D02*
X043332Y010778D01*
X043332Y010787D02*
X042521Y010787D01*
X042520Y010795D02*
X043332Y010795D01*
X043332Y010804D02*
X042520Y010804D01*
X042519Y010812D02*
X043332Y010812D01*
X043332Y010821D02*
X042518Y010821D01*
X042518Y010829D02*
X043332Y010829D01*
X043332Y010838D02*
X042517Y010838D01*
X042517Y010846D02*
X043332Y010846D01*
X043332Y010855D02*
X042516Y010855D01*
X042516Y010863D02*
X043332Y010863D01*
X043332Y010872D02*
X042515Y010872D01*
X042515Y010880D02*
X043332Y010880D01*
X043332Y010889D02*
X042514Y010889D01*
X042513Y010897D02*
X043332Y010897D01*
X043332Y010906D02*
X042513Y010906D01*
X042512Y010914D02*
X043332Y010914D01*
X043332Y010923D02*
X042512Y010923D01*
X042512Y010931D02*
X043332Y010931D01*
X043332Y010940D02*
X042512Y010940D01*
X042512Y010948D02*
X043332Y010948D01*
X043332Y010957D02*
X042512Y010957D01*
X042512Y010965D02*
X043332Y010965D01*
X043332Y010974D02*
X042512Y010974D01*
X042512Y010982D02*
X043332Y010982D01*
X043332Y010991D02*
X042512Y010991D01*
X042512Y010999D02*
X043332Y010999D01*
X043332Y011008D02*
X042512Y011008D01*
X042512Y011016D02*
X043332Y011016D01*
X043332Y011025D02*
X042512Y011025D01*
X042512Y011033D02*
X043332Y011033D01*
X043332Y011042D02*
X042512Y011042D01*
X042512Y011050D02*
X043332Y011050D01*
X043332Y011059D02*
X042512Y011059D01*
X042512Y011067D02*
X043332Y011067D01*
X043332Y011076D02*
X042512Y011076D01*
X042512Y011084D02*
X043332Y011084D01*
X043332Y011093D02*
X042512Y011093D01*
X042512Y011101D02*
X043332Y011101D01*
X043332Y011110D02*
X042512Y011110D01*
X042512Y011118D02*
X043332Y011118D01*
X043332Y011127D02*
X042512Y011127D01*
X042512Y011135D02*
X043332Y011135D01*
X043332Y011144D02*
X042512Y011144D01*
X042512Y011152D02*
X043332Y011152D01*
X043332Y011161D02*
X042512Y011161D01*
X042512Y011169D02*
X043332Y011169D01*
X043332Y011178D02*
X042512Y011178D01*
X042512Y011186D02*
X043332Y011186D01*
X043332Y011195D02*
X042512Y011195D01*
X042512Y011203D02*
X043332Y011203D01*
X043332Y011212D02*
X042512Y011212D01*
X042512Y011220D02*
X043332Y011220D01*
X043332Y011229D02*
X042512Y011229D01*
X042512Y011237D02*
X043332Y011237D01*
X043332Y011246D02*
X042512Y011246D01*
X042512Y011254D02*
X043332Y011254D01*
X043332Y011263D02*
X042512Y011263D01*
X042512Y011271D02*
X043332Y011271D01*
X043332Y011280D02*
X042512Y011280D01*
X042512Y011288D02*
X043332Y011288D01*
X043332Y011297D02*
X042512Y011297D01*
X042512Y011305D02*
X043332Y011305D01*
X043332Y011314D02*
X042512Y011314D01*
X042512Y011322D02*
X043332Y011322D01*
X043332Y011331D02*
X042512Y011331D01*
X042512Y011339D02*
X043332Y011339D01*
X043332Y011348D02*
X042512Y011348D01*
X042512Y011356D02*
X043332Y011356D01*
X043332Y011365D02*
X042512Y011365D01*
X042512Y011373D02*
X043332Y011373D01*
X043332Y011382D02*
X042512Y011382D01*
X042512Y011390D02*
X043332Y011390D01*
X043332Y011399D02*
X042512Y011399D01*
X042512Y011407D02*
X043332Y011407D01*
X043332Y011416D02*
X042512Y011416D01*
X042512Y011424D02*
X043332Y011424D01*
X043332Y011433D02*
X042512Y011433D01*
X042512Y011441D02*
X043332Y011441D01*
X043332Y011450D02*
X042512Y011450D01*
X042512Y011458D02*
X043332Y011458D01*
X043332Y011467D02*
X042512Y011467D01*
X042512Y011475D02*
X043332Y011475D01*
X043332Y011484D02*
X042512Y011484D01*
X042512Y011492D02*
X043332Y011492D01*
X043332Y011501D02*
X042512Y011501D01*
X042512Y011509D02*
X043332Y011509D01*
X043332Y011518D02*
X042512Y011518D01*
X042512Y011526D02*
X043332Y011526D01*
X043332Y011535D02*
X042512Y011535D01*
X042512Y011543D02*
X043332Y011543D01*
X043332Y011552D02*
X042512Y011552D01*
X042512Y011560D02*
X043332Y011560D01*
X043332Y011569D02*
X042512Y011569D01*
X042512Y011577D02*
X043332Y011577D01*
X043332Y011586D02*
X042512Y011586D01*
X042512Y011594D02*
X043332Y011594D01*
X043332Y011603D02*
X042512Y011603D01*
X042512Y011611D02*
X043332Y011611D01*
X043332Y011620D02*
X042512Y011620D01*
X042512Y011628D02*
X043332Y011628D01*
X043332Y011637D02*
X042512Y011637D01*
X042512Y011645D02*
X043332Y011645D01*
X043332Y011654D02*
X042512Y011654D01*
X042512Y011662D02*
X043332Y011662D01*
X043332Y011671D02*
X042512Y011671D01*
X042512Y011679D02*
X043332Y011679D01*
X043332Y011688D02*
X042512Y011688D01*
X042512Y011696D02*
X043332Y011696D01*
X043332Y011705D02*
X042512Y011705D01*
X042512Y011713D02*
X043332Y011713D01*
X043332Y011722D02*
X042512Y011722D01*
X042512Y011730D02*
X043332Y011730D01*
X043332Y011739D02*
X042512Y011739D01*
X042512Y011747D02*
X043332Y011747D01*
X043332Y011756D02*
X042512Y011756D01*
X042512Y011764D02*
X043332Y011764D01*
X043332Y011773D02*
X042512Y011773D01*
X042512Y011781D02*
X043332Y011781D01*
X043332Y011790D02*
X042512Y011790D01*
X042512Y011798D02*
X043332Y011798D01*
X043332Y011807D02*
X042512Y011807D01*
X042512Y011815D02*
X043332Y011815D01*
X043332Y011824D02*
X042512Y011824D01*
X042512Y011832D02*
X043332Y011832D01*
X043332Y011841D02*
X042512Y011841D01*
X042512Y011849D02*
X043332Y011849D01*
X043332Y011858D02*
X042512Y011858D01*
X042512Y011866D02*
X043332Y011866D01*
X043332Y011875D02*
X042512Y011875D01*
X042512Y011883D02*
X043332Y011883D01*
X043332Y011892D02*
X042512Y011892D01*
X042512Y011900D02*
X043332Y011900D01*
X043332Y011909D02*
X042512Y011909D01*
X042512Y011917D02*
X043332Y011917D01*
X043332Y011926D02*
X042512Y011926D01*
X042512Y011934D02*
X043332Y011934D01*
X043332Y011943D02*
X042512Y011943D01*
X041672Y010838D02*
X041472Y010838D01*
X041472Y010829D02*
X041672Y010829D01*
X041672Y010821D02*
X041472Y010821D01*
X041472Y010812D02*
X041672Y010812D01*
X041672Y010804D02*
X041472Y010804D01*
X041472Y010795D02*
X041672Y010795D01*
X041672Y010787D02*
X041472Y010787D01*
X041472Y010778D02*
X041672Y010778D01*
X041672Y010770D02*
X041472Y010770D01*
X041472Y010761D02*
X041672Y010761D01*
X041672Y010753D02*
X041472Y010753D01*
X041472Y010744D02*
X041672Y010744D01*
X041672Y010736D02*
X041472Y010736D01*
X041472Y010727D02*
X041672Y010727D01*
X041672Y010719D02*
X041472Y010719D01*
X041472Y010710D02*
X041672Y010710D01*
X041672Y010702D02*
X041472Y010702D01*
X041472Y010693D02*
X041672Y010693D01*
X041672Y010685D02*
X041472Y010685D01*
X041472Y010676D02*
X041672Y010676D01*
X041672Y010668D02*
X041472Y010668D01*
X041472Y010659D02*
X041672Y010659D01*
X041672Y010651D02*
X041472Y010651D01*
X041472Y010642D02*
X041672Y010642D01*
X041672Y010634D02*
X041472Y010634D01*
X041472Y010625D02*
X041672Y010625D01*
X041672Y010617D02*
X041472Y010617D01*
X041472Y010608D02*
X041672Y010608D01*
X041672Y010600D02*
X041472Y010600D01*
X041472Y010591D02*
X041672Y010591D01*
X041672Y010583D02*
X041472Y010583D01*
X041472Y010574D02*
X041672Y010574D01*
X041672Y010566D02*
X041472Y010566D01*
X041472Y010557D02*
X041672Y010557D01*
X041672Y010549D02*
X041472Y010549D01*
X041472Y010540D02*
X041672Y010540D01*
X041672Y010532D02*
X041472Y010532D01*
X041472Y010523D02*
X041672Y010523D01*
X041672Y010515D02*
X041472Y010515D01*
X041472Y010506D02*
X041672Y010506D01*
X041672Y010498D02*
X041472Y010498D01*
X041472Y010489D02*
X041672Y010489D01*
X041672Y010481D02*
X041472Y010481D01*
X041472Y010472D02*
X041672Y010472D01*
X041672Y010464D02*
X041472Y010464D01*
X041472Y010455D02*
X041672Y010455D01*
X041672Y010447D02*
X041472Y010447D01*
X041472Y010438D02*
X041672Y010438D01*
X041672Y010430D02*
X041472Y010430D01*
X041472Y010421D02*
X041672Y010421D01*
X041672Y010413D02*
X041472Y010413D01*
X041472Y010404D02*
X041672Y010404D01*
X041672Y010396D02*
X041472Y010396D01*
X041472Y010387D02*
X041672Y010387D01*
X041672Y010379D02*
X041472Y010379D01*
X041472Y010370D02*
X041672Y010370D01*
X041672Y010362D02*
X041472Y010362D01*
X041472Y010353D02*
X041672Y010353D01*
X041672Y010345D02*
X041472Y010345D01*
X041472Y010336D02*
X041672Y010336D01*
X041672Y010328D02*
X041472Y010328D01*
X041472Y010319D02*
X041672Y010319D01*
X041672Y010311D02*
X041472Y010311D01*
X041472Y010302D02*
X041672Y010302D01*
X041672Y010294D02*
X041472Y010294D01*
X041472Y010285D02*
X041672Y010285D01*
X041672Y010277D02*
X041472Y010277D01*
X041472Y010268D02*
X041672Y010268D01*
X041672Y010260D02*
X041472Y010260D01*
X041472Y010251D02*
X041672Y010251D01*
X041672Y010243D02*
X041472Y010243D01*
X041472Y010234D02*
X041672Y010234D01*
X041672Y010226D02*
X041472Y010226D01*
X041472Y010217D02*
X041672Y010217D01*
X041672Y010209D02*
X041472Y010209D01*
X041472Y010200D02*
X041672Y010200D01*
X041672Y010192D02*
X041472Y010192D01*
X041472Y010183D02*
X041672Y010183D01*
X041672Y010175D02*
X041472Y010175D01*
X041472Y010166D02*
X041672Y010166D01*
X041672Y010158D02*
X041472Y010158D01*
X041472Y010149D02*
X041672Y010149D01*
X041672Y010141D02*
X041472Y010141D01*
X041472Y010132D02*
X041672Y010132D01*
X041672Y010124D02*
X041472Y010124D01*
X041472Y010115D02*
X041672Y010115D01*
X041672Y010107D02*
X041472Y010107D01*
X041472Y010098D02*
X041672Y010098D01*
X041672Y010090D02*
X041472Y010090D01*
X041472Y010081D02*
X041672Y010081D01*
X041672Y010073D02*
X041472Y010073D01*
X041472Y010064D02*
X041672Y010064D01*
X041672Y010056D02*
X041472Y010056D01*
X041472Y010047D02*
X041672Y010047D01*
X041672Y010039D02*
X041472Y010039D01*
X041472Y010030D02*
X041672Y010030D01*
X041672Y010022D02*
X041472Y010022D01*
X041472Y010013D02*
X041672Y010013D01*
X041672Y010005D02*
X041472Y010005D01*
X041472Y009996D02*
X041672Y009996D01*
X041672Y009988D02*
X041472Y009988D01*
X041472Y009979D02*
X041672Y009979D01*
X041672Y009971D02*
X041472Y009971D01*
X041472Y009962D02*
X041672Y009962D01*
X041672Y009954D02*
X041472Y009954D01*
X041472Y009945D02*
X041672Y009945D01*
D11*
X029151Y013204D03*
X028049Y013204D03*
X022151Y013204D03*
X021049Y013204D03*
X015151Y013204D03*
X014049Y013204D03*
X008151Y013204D03*
X007049Y013204D03*
X013049Y002204D03*
X014151Y002204D03*
X016049Y002204D03*
X017151Y002204D03*
D12*
X025100Y008704D03*
X026100Y008704D03*
X025100Y013204D03*
X024100Y013204D03*
X018100Y013204D03*
X017100Y013204D03*
X011100Y013204D03*
X010100Y013204D03*
X031100Y013204D03*
X032100Y013204D03*
D13*
X030850Y006704D03*
X029850Y006704D03*
X028850Y006704D03*
X029350Y005704D03*
X030350Y005704D03*
X031350Y005704D03*
X035350Y006704D03*
X036350Y006704D03*
X037350Y006704D03*
X036850Y005704D03*
X035850Y005704D03*
X037850Y005704D03*
D14*
X001600Y004464D02*
X001600Y003944D01*
X002600Y003944D02*
X002600Y004464D01*
X003600Y004464D02*
X003600Y003944D01*
X004600Y003944D02*
X004600Y004464D01*
X005600Y004464D02*
X005600Y003944D01*
X006600Y003944D02*
X006600Y004464D01*
X007600Y004464D02*
X007600Y003944D01*
X008600Y003944D02*
X008600Y004464D01*
X009600Y004464D02*
X009600Y003944D01*
X011100Y003944D02*
X011100Y004464D01*
X012100Y004464D02*
X012100Y003944D01*
X013100Y003944D02*
X013100Y004464D01*
X014100Y004464D02*
X014100Y003944D01*
X015100Y003944D02*
X015100Y004464D01*
X016100Y004464D02*
X016100Y003944D01*
X017100Y003944D02*
X017100Y004464D01*
X018100Y004464D02*
X018100Y003944D01*
X019100Y003944D02*
X019100Y004464D01*
X021100Y004464D02*
X021100Y003944D01*
X022100Y003944D02*
X022100Y004464D01*
X023100Y004464D02*
X023100Y003944D01*
X023100Y006944D02*
X023100Y007464D01*
X022100Y007464D02*
X022100Y006944D01*
X021100Y006944D02*
X021100Y007464D01*
X019100Y007464D02*
X019100Y006944D01*
X018100Y006944D02*
X018100Y007464D01*
X017100Y007464D02*
X017100Y006944D01*
X016100Y006944D02*
X016100Y007464D01*
X015100Y007464D02*
X015100Y006944D01*
X014100Y006944D02*
X014100Y007464D01*
X013100Y007464D02*
X013100Y006944D01*
X012100Y006944D02*
X012100Y007464D01*
X011100Y007464D02*
X011100Y006944D01*
X009600Y006944D02*
X009600Y007464D01*
X008600Y007464D02*
X008600Y006944D01*
X007600Y006944D02*
X007600Y007464D01*
X006600Y007464D02*
X006600Y006944D01*
X005600Y006944D02*
X005600Y007464D01*
X004600Y007464D02*
X004600Y006944D01*
X003600Y006944D02*
X003600Y007464D01*
X002600Y007464D02*
X002600Y006944D01*
X001600Y006944D02*
X001600Y007464D01*
D15*
X007600Y002204D03*
X011600Y002204D03*
D16*
X024900Y002704D03*
D17*
X026300Y002704D03*
D18*
X023100Y015779D03*
X020738Y016566D03*
X018462Y016566D03*
X016100Y015779D03*
X013738Y016566D03*
X011462Y016566D03*
X009100Y015779D03*
X006738Y016566D03*
X006738Y021369D03*
X011462Y021369D03*
X013738Y021369D03*
X018462Y021369D03*
X020738Y021369D03*
X025462Y021369D03*
X027738Y021369D03*
X032462Y021369D03*
X032462Y016566D03*
X030100Y015779D03*
X027738Y016566D03*
X025462Y016566D03*
D19*
X024850Y025704D03*
X022600Y025704D03*
X017850Y025704D03*
X015600Y025704D03*
X010850Y025704D03*
X008600Y025704D03*
X029600Y025704D03*
X031850Y025704D03*
X038100Y025704D03*
X038100Y022704D03*
D20*
X027738Y016566D02*
X027600Y016204D01*
X027600Y013704D01*
X028100Y013204D01*
X028049Y013204D01*
X028100Y013204D02*
X023100Y008204D01*
X023100Y007204D01*
X022100Y007204D01*
X021100Y007204D01*
X021100Y008204D01*
X011100Y008204D01*
X011100Y007204D01*
X011100Y008204D02*
X011100Y010204D01*
X013100Y012204D01*
X007600Y012204D01*
X007100Y012704D01*
X007100Y013204D01*
X007049Y013204D01*
X007100Y013204D02*
X006600Y013704D01*
X006600Y016204D01*
X006738Y016566D01*
X013100Y012204D02*
X014100Y013204D01*
X014049Y013204D01*
X014100Y013204D02*
X013600Y013704D01*
X013600Y016204D01*
X013738Y016566D01*
X020600Y016204D02*
X020600Y013704D01*
X021100Y013204D01*
X021049Y013204D01*
X021100Y013204D02*
X021100Y008204D01*
X021100Y007204D02*
X020100Y006204D01*
X020100Y001204D01*
X016600Y001204D01*
X016100Y001704D01*
X016100Y002204D01*
X016049Y002204D01*
X015100Y002204D01*
X013100Y002204D02*
X013049Y002204D01*
X011600Y002204D01*
X009600Y004204D02*
X010600Y005204D01*
X019100Y005204D01*
X019100Y004204D01*
X024900Y002704D02*
X025100Y002704D01*
X025100Y008704D01*
X028850Y006704D02*
X029100Y006704D01*
X029100Y007204D01*
X029600Y007704D01*
X035100Y007704D01*
X035100Y006704D01*
X035350Y006704D01*
X034100Y006704D02*
X034100Y006204D01*
X035600Y004704D01*
X038600Y004704D01*
X038600Y006204D01*
X038100Y006704D01*
X037350Y006704D01*
X037850Y005704D02*
X036850Y005704D01*
X034100Y006704D02*
X030850Y006704D01*
X031350Y005704D02*
X030350Y005704D01*
X020600Y016204D02*
X020738Y016566D01*
D21*
X022600Y010704D03*
X015100Y010204D03*
X010100Y011204D03*
X009600Y010704D03*
X007600Y010204D03*
X015100Y002204D03*
D22*
X014151Y002204D02*
X014100Y002204D01*
X015600Y000704D01*
X025600Y000704D01*
X025600Y002704D01*
X028600Y005704D01*
X029350Y005704D01*
X029151Y013204D02*
X029100Y013204D01*
X029151Y013204D02*
X031100Y013204D01*
X024100Y013204D02*
X022151Y013204D01*
X022100Y013204D01*
X017100Y013204D02*
X015151Y013204D01*
X015100Y013204D01*
X010100Y013204D02*
X008151Y013204D01*
X008100Y013204D01*
X009600Y007204D02*
X008100Y005704D01*
X008100Y002704D01*
X007600Y002204D01*
X006600Y004204D02*
X005600Y004204D01*
X004600Y004204D02*
X003600Y004204D01*
X002600Y004204D02*
X001600Y004204D01*
X008600Y004204D02*
X008600Y005704D01*
X014600Y005704D01*
X016100Y007204D01*
X012100Y004204D02*
X012100Y003204D01*
X016100Y003204D01*
X017100Y002204D01*
X017151Y002204D01*
X014100Y002204D02*
X013100Y001204D01*
X011100Y001204D01*
X011100Y004204D01*
D23*
X008600Y007204D02*
X007600Y007204D01*
X008600Y007204D02*
X010100Y008704D01*
X010100Y011204D01*
X009600Y010704D02*
X009600Y010204D01*
X006600Y007204D01*
X005600Y007204D01*
X004600Y007204D02*
X007600Y010204D01*
X011100Y013204D02*
X011600Y013704D01*
X011600Y016204D01*
X011462Y016566D01*
X015100Y010204D02*
X018100Y013204D01*
X018600Y013704D01*
X018600Y016204D01*
X018462Y016566D01*
X025462Y016566D02*
X025600Y016204D01*
X025600Y013704D01*
X025100Y013204D01*
X022600Y010704D01*
X032100Y013204D02*
X032600Y013704D01*
X032600Y016204D01*
X032462Y016566D01*
X004600Y007204D02*
X003600Y007204D01*
X002600Y007204D02*
X001600Y007204D01*
M02*
