%
M48
M72
T01C0.0240
T02C0.0320
T03C0.0354
T04C0.0440
T05C0.0512
T06C0.0550
T07C0.1260
T08C0.1280
%
T01
X7600Y10204
X9600Y10704
X10100Y11204
X15100Y10204
X22600Y10704
X15100Y2204
T02
X15100Y4204
X14100Y4204
X13100Y4204
X12100Y4204
X11100Y4204
X9600Y4204
X8600Y4204
X7600Y4204
X6600Y4204
X5600Y4204
X4600Y4204
X3600Y4204
X2600Y4204
X1600Y4204
X1600Y7204
X2600Y7204
X3600Y7204
X4600Y7204
X5600Y7204
X6600Y7204
X7600Y7204
X8600Y7204
X9600Y7204
X11100Y7204
X12100Y7204
X13100Y7204
X14100Y7204
X15100Y7204
X16100Y7204
X17100Y7204
X18100Y7204
X19100Y7204
X21100Y7204
X22100Y7204
X23100Y7204
X25100Y8704
X26100Y8704
X25100Y13204
X24100Y13204
X18100Y13204
X17100Y13204
X11100Y13204
X10100Y13204
X16100Y4204
X17100Y4204
X18100Y4204
X19100Y4204
X21100Y4204
X22100Y4204
X23100Y4204
X24900Y2704
X26300Y2704
X31100Y13204
X32100Y13204
T03
X30850Y6704
X29850Y6704
X28850Y6704
X29350Y5704
X30350Y5704
X31350Y5704
X35350Y6704
X36350Y6704
X37350Y6704
X36850Y5704
X35850Y5704
X37850Y5704
T04
X11600Y2204
X7600Y2204
T05
X9100Y15779
X6738Y16566
X11462Y16566
X13738Y16566
X16100Y15779
X18462Y16566
X20738Y16566
X23100Y15779
X25462Y16566
X27738Y16566
X30100Y15779
X32462Y16566
X32462Y21369
X27738Y21369
X25462Y21369
X20738Y21369
X18462Y21369
X13738Y21369
X11462Y21369
X6738Y21369
T06
X8600Y25704
X10850Y25704
X15600Y25704
X17850Y25704
X22600Y25704
X24850Y25704
X29600Y25704
X31850Y25704
X38100Y25704
X38100Y22704
T07
X4100Y1704
X40600Y1704
X43100Y28704
X1600Y28704
T08
X28100Y3204
X32100Y3204
X34600Y3204
X38600Y3204
M30
