G75*
G70*
%OFA0B0*%
%FSLAX24Y24*%
%IPPOS*%
%LPD*%
%AMOC8*
5,1,8,0,0,1.08239X$1,22.5*
%
%ADD10C,0.0100*%
%ADD11C,0.0060*%
%ADD12C,0.0040*%
%ADD13R,0.0230X0.0720*%
D10*
X000883Y004209D02*
X001633Y004209D01*
X001633Y006209D01*
X003383Y006209D01*
X003383Y004209D01*
X001633Y004209D01*
X000883Y004209D02*
X000883Y006209D01*
X001633Y006209D01*
X003133Y007829D02*
X004133Y007829D01*
X004052Y006528D02*
X004004Y006500D01*
X003955Y006476D01*
X003903Y006456D01*
X003851Y006439D01*
X003797Y006426D01*
X003743Y006417D01*
X003688Y006411D01*
X003633Y006409D01*
X004030Y006514D02*
X004078Y006544D01*
X004123Y006577D01*
X004166Y006613D01*
X004207Y006651D01*
X004244Y006693D01*
X004279Y006737D01*
X004310Y006783D01*
X004339Y006832D01*
X004363Y006882D01*
X004384Y006934D01*
X004402Y006988D01*
X004415Y007042D01*
X004425Y007097D01*
X004431Y007153D01*
X004433Y007209D01*
X003633Y006409D02*
X003577Y006411D01*
X003520Y006417D01*
X003465Y006427D01*
X003410Y006441D01*
X003357Y006458D01*
X003304Y006480D01*
X003254Y006505D01*
X002833Y007209D02*
X002835Y007263D01*
X002840Y007316D01*
X002849Y007370D01*
X002862Y007422D01*
X002878Y007473D01*
X002898Y007524D01*
X002920Y007573D01*
X002946Y007620D01*
X002976Y007665D01*
X003008Y007708D01*
X003043Y007749D01*
X003081Y007788D01*
X003121Y007824D01*
X002833Y007210D02*
X002835Y007156D01*
X002840Y007102D01*
X002849Y007049D01*
X002862Y006996D01*
X002878Y006945D01*
X002898Y006895D01*
X002921Y006846D01*
X002947Y006798D01*
X002976Y006753D01*
X003009Y006710D01*
X003044Y006669D01*
X003082Y006630D01*
X003122Y006594D01*
X003165Y006561D01*
X003210Y006531D01*
X003257Y006504D01*
X004433Y007209D02*
X004431Y007262D01*
X004426Y007316D01*
X004417Y007368D01*
X004405Y007420D01*
X004389Y007471D01*
X004370Y007521D01*
X004347Y007570D01*
X004321Y007617D01*
X004293Y007662D01*
X004261Y007705D01*
X004227Y007745D01*
X004189Y007784D01*
X004150Y007820D01*
X004133Y009089D02*
X003133Y009089D01*
X003214Y010390D02*
X003262Y010418D01*
X003311Y010442D01*
X003363Y010462D01*
X003415Y010479D01*
X003469Y010492D01*
X003523Y010501D01*
X003578Y010507D01*
X003633Y010509D01*
X003383Y010709D02*
X001633Y010709D01*
X001633Y012709D01*
X003383Y012709D01*
X003383Y010709D01*
X003236Y010404D02*
X003188Y010374D01*
X003143Y010341D01*
X003100Y010305D01*
X003059Y010267D01*
X003022Y010225D01*
X002987Y010181D01*
X002956Y010135D01*
X002927Y010086D01*
X002903Y010036D01*
X002882Y009984D01*
X002864Y009930D01*
X002851Y009876D01*
X002841Y009821D01*
X002835Y009765D01*
X002833Y009709D01*
X003633Y010509D02*
X003689Y010507D01*
X003746Y010501D01*
X003801Y010491D01*
X003856Y010477D01*
X003909Y010460D01*
X003962Y010438D01*
X004012Y010413D01*
X004433Y009709D02*
X004431Y009655D01*
X004426Y009602D01*
X004417Y009548D01*
X004404Y009496D01*
X004388Y009445D01*
X004368Y009394D01*
X004346Y009345D01*
X004320Y009298D01*
X004290Y009253D01*
X004258Y009210D01*
X004223Y009169D01*
X004185Y009130D01*
X004145Y009094D01*
X004433Y009709D02*
X004431Y009763D01*
X004426Y009817D01*
X004417Y009870D01*
X004404Y009923D01*
X004388Y009974D01*
X004368Y010024D01*
X004345Y010073D01*
X004319Y010121D01*
X004290Y010166D01*
X004257Y010209D01*
X004222Y010250D01*
X004184Y010289D01*
X004144Y010325D01*
X004101Y010358D01*
X004056Y010388D01*
X004009Y010415D01*
X002833Y009709D02*
X002835Y009656D01*
X002840Y009602D01*
X002849Y009550D01*
X002861Y009498D01*
X002877Y009447D01*
X002896Y009397D01*
X002919Y009348D01*
X002945Y009301D01*
X002973Y009256D01*
X003005Y009213D01*
X003039Y009173D01*
X003077Y009134D01*
X003116Y009098D01*
X001633Y010709D02*
X000883Y010709D01*
X000883Y012709D01*
X001633Y012709D01*
X003133Y014329D02*
X004133Y014329D01*
X004052Y013028D02*
X004004Y013000D01*
X003955Y012976D01*
X003903Y012956D01*
X003851Y012939D01*
X003797Y012926D01*
X003743Y012917D01*
X003688Y012911D01*
X003633Y012909D01*
X004030Y013014D02*
X004078Y013044D01*
X004123Y013077D01*
X004166Y013113D01*
X004207Y013151D01*
X004244Y013193D01*
X004279Y013237D01*
X004310Y013283D01*
X004339Y013332D01*
X004363Y013382D01*
X004384Y013434D01*
X004402Y013488D01*
X004415Y013542D01*
X004425Y013597D01*
X004431Y013653D01*
X004433Y013709D01*
X003633Y012909D02*
X003577Y012911D01*
X003520Y012917D01*
X003465Y012927D01*
X003410Y012941D01*
X003357Y012958D01*
X003304Y012980D01*
X003254Y013005D01*
X002833Y013709D02*
X002835Y013763D01*
X002840Y013816D01*
X002849Y013870D01*
X002862Y013922D01*
X002878Y013973D01*
X002898Y014024D01*
X002920Y014073D01*
X002946Y014120D01*
X002976Y014165D01*
X003008Y014208D01*
X003043Y014249D01*
X003081Y014288D01*
X003121Y014324D01*
X002833Y013710D02*
X002835Y013656D01*
X002840Y013602D01*
X002849Y013549D01*
X002862Y013496D01*
X002878Y013445D01*
X002898Y013395D01*
X002921Y013346D01*
X002947Y013298D01*
X002976Y013253D01*
X003009Y013210D01*
X003044Y013169D01*
X003082Y013130D01*
X003122Y013094D01*
X003165Y013061D01*
X003210Y013031D01*
X003257Y013004D01*
X004433Y013709D02*
X004431Y013762D01*
X004426Y013816D01*
X004417Y013868D01*
X004405Y013920D01*
X004389Y013971D01*
X004370Y014021D01*
X004347Y014070D01*
X004321Y014117D01*
X004293Y014162D01*
X004261Y014205D01*
X004227Y014245D01*
X004189Y014284D01*
X004150Y014320D01*
X004133Y015589D02*
X003133Y015589D01*
X003214Y016890D02*
X003262Y016918D01*
X003311Y016942D01*
X003363Y016962D01*
X003415Y016979D01*
X003469Y016992D01*
X003523Y017001D01*
X003578Y017007D01*
X003633Y017009D01*
X003383Y017209D02*
X001633Y017209D01*
X001633Y019209D01*
X003383Y019209D01*
X003383Y017209D01*
X003236Y016904D02*
X003188Y016874D01*
X003143Y016841D01*
X003100Y016805D01*
X003059Y016767D01*
X003022Y016725D01*
X002987Y016681D01*
X002956Y016635D01*
X002927Y016586D01*
X002903Y016536D01*
X002882Y016484D01*
X002864Y016430D01*
X002851Y016376D01*
X002841Y016321D01*
X002835Y016265D01*
X002833Y016209D01*
X003633Y017009D02*
X003689Y017007D01*
X003746Y017001D01*
X003801Y016991D01*
X003856Y016977D01*
X003909Y016960D01*
X003962Y016938D01*
X004012Y016913D01*
X004433Y016209D02*
X004431Y016155D01*
X004426Y016102D01*
X004417Y016048D01*
X004404Y015996D01*
X004388Y015945D01*
X004368Y015894D01*
X004346Y015845D01*
X004320Y015798D01*
X004290Y015753D01*
X004258Y015710D01*
X004223Y015669D01*
X004185Y015630D01*
X004145Y015594D01*
X004433Y016209D02*
X004431Y016263D01*
X004426Y016317D01*
X004417Y016370D01*
X004404Y016423D01*
X004388Y016474D01*
X004368Y016524D01*
X004345Y016573D01*
X004319Y016621D01*
X004290Y016666D01*
X004257Y016709D01*
X004222Y016750D01*
X004184Y016789D01*
X004144Y016825D01*
X004101Y016858D01*
X004056Y016888D01*
X004009Y016915D01*
X002833Y016209D02*
X002835Y016156D01*
X002840Y016102D01*
X002849Y016050D01*
X002861Y015998D01*
X002877Y015947D01*
X002896Y015897D01*
X002919Y015848D01*
X002945Y015801D01*
X002973Y015756D01*
X003005Y015713D01*
X003039Y015673D01*
X003077Y015634D01*
X003116Y015598D01*
X001633Y017209D02*
X000883Y017209D01*
X000883Y019209D01*
X001633Y019209D01*
X003133Y020829D02*
X004133Y020829D01*
X004052Y019528D02*
X004004Y019500D01*
X003955Y019476D01*
X003903Y019456D01*
X003851Y019439D01*
X003797Y019426D01*
X003743Y019417D01*
X003688Y019411D01*
X003633Y019409D01*
X004030Y019514D02*
X004078Y019544D01*
X004123Y019577D01*
X004166Y019613D01*
X004207Y019651D01*
X004244Y019693D01*
X004279Y019737D01*
X004310Y019783D01*
X004339Y019832D01*
X004363Y019882D01*
X004384Y019934D01*
X004402Y019988D01*
X004415Y020042D01*
X004425Y020097D01*
X004431Y020153D01*
X004433Y020209D01*
X003633Y019409D02*
X003577Y019411D01*
X003520Y019417D01*
X003465Y019427D01*
X003410Y019441D01*
X003357Y019458D01*
X003304Y019480D01*
X003254Y019505D01*
X002833Y020209D02*
X002835Y020263D01*
X002840Y020316D01*
X002849Y020370D01*
X002862Y020422D01*
X002878Y020473D01*
X002898Y020524D01*
X002920Y020573D01*
X002946Y020620D01*
X002976Y020665D01*
X003008Y020708D01*
X003043Y020749D01*
X003081Y020788D01*
X003121Y020824D01*
X002833Y020210D02*
X002835Y020156D01*
X002840Y020102D01*
X002849Y020049D01*
X002862Y019996D01*
X002878Y019945D01*
X002898Y019895D01*
X002921Y019846D01*
X002947Y019798D01*
X002976Y019753D01*
X003009Y019710D01*
X003044Y019669D01*
X003082Y019630D01*
X003122Y019594D01*
X003165Y019561D01*
X003210Y019531D01*
X003257Y019504D01*
X004433Y020209D02*
X004431Y020262D01*
X004426Y020316D01*
X004417Y020368D01*
X004405Y020420D01*
X004389Y020471D01*
X004370Y020521D01*
X004347Y020570D01*
X004321Y020617D01*
X004293Y020662D01*
X004261Y020705D01*
X004227Y020745D01*
X004189Y020784D01*
X004150Y020820D01*
X006133Y020829D02*
X007133Y020829D01*
X007052Y019528D02*
X007004Y019500D01*
X006955Y019476D01*
X006903Y019456D01*
X006851Y019439D01*
X006797Y019426D01*
X006743Y019417D01*
X006688Y019411D01*
X006633Y019409D01*
X007030Y019514D02*
X007078Y019544D01*
X007123Y019577D01*
X007166Y019613D01*
X007207Y019651D01*
X007244Y019693D01*
X007279Y019737D01*
X007310Y019783D01*
X007339Y019832D01*
X007363Y019882D01*
X007384Y019934D01*
X007402Y019988D01*
X007415Y020042D01*
X007425Y020097D01*
X007431Y020153D01*
X007433Y020209D01*
X006633Y019409D02*
X006577Y019411D01*
X006520Y019417D01*
X006465Y019427D01*
X006410Y019441D01*
X006357Y019458D01*
X006304Y019480D01*
X006254Y019505D01*
X005833Y020209D02*
X005835Y020263D01*
X005840Y020316D01*
X005849Y020370D01*
X005862Y020422D01*
X005878Y020473D01*
X005898Y020524D01*
X005920Y020573D01*
X005946Y020620D01*
X005976Y020665D01*
X006008Y020708D01*
X006043Y020749D01*
X006081Y020788D01*
X006121Y020824D01*
X005833Y020210D02*
X005835Y020156D01*
X005840Y020102D01*
X005849Y020049D01*
X005862Y019996D01*
X005878Y019945D01*
X005898Y019895D01*
X005921Y019846D01*
X005947Y019798D01*
X005976Y019753D01*
X006009Y019710D01*
X006044Y019669D01*
X006082Y019630D01*
X006122Y019594D01*
X006165Y019561D01*
X006210Y019531D01*
X006257Y019504D01*
X007433Y020209D02*
X007431Y020262D01*
X007426Y020316D01*
X007417Y020368D01*
X007405Y020420D01*
X007389Y020471D01*
X007370Y020521D01*
X007347Y020570D01*
X007321Y020617D01*
X007293Y020662D01*
X007261Y020705D01*
X007227Y020745D01*
X007189Y020784D01*
X007150Y020820D01*
X009133Y020829D02*
X010133Y020829D01*
X010052Y019528D02*
X010004Y019500D01*
X009955Y019476D01*
X009903Y019456D01*
X009851Y019439D01*
X009797Y019426D01*
X009743Y019417D01*
X009688Y019411D01*
X009633Y019409D01*
X010030Y019514D02*
X010078Y019544D01*
X010123Y019577D01*
X010166Y019613D01*
X010207Y019651D01*
X010244Y019693D01*
X010279Y019737D01*
X010310Y019783D01*
X010339Y019832D01*
X010363Y019882D01*
X010384Y019934D01*
X010402Y019988D01*
X010415Y020042D01*
X010425Y020097D01*
X010431Y020153D01*
X010433Y020209D01*
X009633Y019409D02*
X009577Y019411D01*
X009520Y019417D01*
X009465Y019427D01*
X009410Y019441D01*
X009357Y019458D01*
X009304Y019480D01*
X009254Y019505D01*
X008833Y020209D02*
X008835Y020263D01*
X008840Y020316D01*
X008849Y020370D01*
X008862Y020422D01*
X008878Y020473D01*
X008898Y020524D01*
X008920Y020573D01*
X008946Y020620D01*
X008976Y020665D01*
X009008Y020708D01*
X009043Y020749D01*
X009081Y020788D01*
X009121Y020824D01*
X008833Y020210D02*
X008835Y020156D01*
X008840Y020102D01*
X008849Y020049D01*
X008862Y019996D01*
X008878Y019945D01*
X008898Y019895D01*
X008921Y019846D01*
X008947Y019798D01*
X008976Y019753D01*
X009009Y019710D01*
X009044Y019669D01*
X009082Y019630D01*
X009122Y019594D01*
X009165Y019561D01*
X009210Y019531D01*
X009257Y019504D01*
X010433Y020209D02*
X010431Y020262D01*
X010426Y020316D01*
X010417Y020368D01*
X010405Y020420D01*
X010389Y020471D01*
X010370Y020521D01*
X010347Y020570D01*
X010321Y020617D01*
X010293Y020662D01*
X010261Y020705D01*
X010227Y020745D01*
X010189Y020784D01*
X010150Y020820D01*
X012133Y020829D02*
X013133Y020829D01*
X013052Y019528D02*
X013004Y019500D01*
X012955Y019476D01*
X012903Y019456D01*
X012851Y019439D01*
X012797Y019426D01*
X012743Y019417D01*
X012688Y019411D01*
X012633Y019409D01*
X013030Y019514D02*
X013078Y019544D01*
X013123Y019577D01*
X013166Y019613D01*
X013207Y019651D01*
X013244Y019693D01*
X013279Y019737D01*
X013310Y019783D01*
X013339Y019832D01*
X013363Y019882D01*
X013384Y019934D01*
X013402Y019988D01*
X013415Y020042D01*
X013425Y020097D01*
X013431Y020153D01*
X013433Y020209D01*
X012633Y019409D02*
X012577Y019411D01*
X012520Y019417D01*
X012465Y019427D01*
X012410Y019441D01*
X012357Y019458D01*
X012304Y019480D01*
X012254Y019505D01*
X011833Y020209D02*
X011835Y020263D01*
X011840Y020316D01*
X011849Y020370D01*
X011862Y020422D01*
X011878Y020473D01*
X011898Y020524D01*
X011920Y020573D01*
X011946Y020620D01*
X011976Y020665D01*
X012008Y020708D01*
X012043Y020749D01*
X012081Y020788D01*
X012121Y020824D01*
X011833Y020210D02*
X011835Y020156D01*
X011840Y020102D01*
X011849Y020049D01*
X011862Y019996D01*
X011878Y019945D01*
X011898Y019895D01*
X011921Y019846D01*
X011947Y019798D01*
X011976Y019753D01*
X012009Y019710D01*
X012044Y019669D01*
X012082Y019630D01*
X012122Y019594D01*
X012165Y019561D01*
X012210Y019531D01*
X012257Y019504D01*
X013433Y020209D02*
X013431Y020262D01*
X013426Y020316D01*
X013417Y020368D01*
X013405Y020420D01*
X013389Y020471D01*
X013370Y020521D01*
X013347Y020570D01*
X013321Y020617D01*
X013293Y020662D01*
X013261Y020705D01*
X013227Y020745D01*
X013189Y020784D01*
X013150Y020820D01*
X015133Y020829D02*
X016133Y020829D01*
X016052Y019528D02*
X016004Y019500D01*
X015955Y019476D01*
X015903Y019456D01*
X015851Y019439D01*
X015797Y019426D01*
X015743Y019417D01*
X015688Y019411D01*
X015633Y019409D01*
X016030Y019514D02*
X016078Y019544D01*
X016123Y019577D01*
X016166Y019613D01*
X016207Y019651D01*
X016244Y019693D01*
X016279Y019737D01*
X016310Y019783D01*
X016339Y019832D01*
X016363Y019882D01*
X016384Y019934D01*
X016402Y019988D01*
X016415Y020042D01*
X016425Y020097D01*
X016431Y020153D01*
X016433Y020209D01*
X015633Y019409D02*
X015577Y019411D01*
X015520Y019417D01*
X015465Y019427D01*
X015410Y019441D01*
X015357Y019458D01*
X015304Y019480D01*
X015254Y019505D01*
X014833Y020209D02*
X014835Y020263D01*
X014840Y020316D01*
X014849Y020370D01*
X014862Y020422D01*
X014878Y020473D01*
X014898Y020524D01*
X014920Y020573D01*
X014946Y020620D01*
X014976Y020665D01*
X015008Y020708D01*
X015043Y020749D01*
X015081Y020788D01*
X015121Y020824D01*
X014833Y020210D02*
X014835Y020156D01*
X014840Y020102D01*
X014849Y020049D01*
X014862Y019996D01*
X014878Y019945D01*
X014898Y019895D01*
X014921Y019846D01*
X014947Y019798D01*
X014976Y019753D01*
X015009Y019710D01*
X015044Y019669D01*
X015082Y019630D01*
X015122Y019594D01*
X015165Y019561D01*
X015210Y019531D01*
X015257Y019504D01*
X016433Y020209D02*
X016431Y020262D01*
X016426Y020316D01*
X016417Y020368D01*
X016405Y020420D01*
X016389Y020471D01*
X016370Y020521D01*
X016347Y020570D01*
X016321Y020617D01*
X016293Y020662D01*
X016261Y020705D01*
X016227Y020745D01*
X016189Y020784D01*
X016150Y020820D01*
X015236Y016904D02*
X015188Y016874D01*
X015143Y016841D01*
X015100Y016805D01*
X015059Y016767D01*
X015022Y016725D01*
X014987Y016681D01*
X014956Y016635D01*
X014927Y016586D01*
X014903Y016536D01*
X014882Y016484D01*
X014864Y016430D01*
X014851Y016376D01*
X014841Y016321D01*
X014835Y016265D01*
X014833Y016209D01*
X015133Y015589D02*
X016133Y015589D01*
X016433Y016209D02*
X016431Y016263D01*
X016426Y016317D01*
X016417Y016370D01*
X016404Y016423D01*
X016388Y016474D01*
X016368Y016524D01*
X016345Y016573D01*
X016319Y016621D01*
X016290Y016666D01*
X016257Y016709D01*
X016222Y016750D01*
X016184Y016789D01*
X016144Y016825D01*
X016101Y016858D01*
X016056Y016888D01*
X016009Y016915D01*
X016012Y016913D02*
X015962Y016938D01*
X015909Y016960D01*
X015856Y016977D01*
X015801Y016991D01*
X015746Y017001D01*
X015689Y017007D01*
X015633Y017009D01*
X015578Y017007D01*
X015523Y017001D01*
X015469Y016992D01*
X015415Y016979D01*
X015363Y016962D01*
X015311Y016942D01*
X015262Y016918D01*
X015214Y016890D01*
X016433Y016209D02*
X016431Y016155D01*
X016426Y016102D01*
X016417Y016048D01*
X016404Y015996D01*
X016388Y015945D01*
X016368Y015894D01*
X016346Y015845D01*
X016320Y015798D01*
X016290Y015753D01*
X016258Y015710D01*
X016223Y015669D01*
X016185Y015630D01*
X016145Y015594D01*
X015116Y015598D02*
X015077Y015634D01*
X015039Y015673D01*
X015005Y015713D01*
X014973Y015756D01*
X014945Y015801D01*
X014919Y015848D01*
X014896Y015897D01*
X014877Y015947D01*
X014861Y015998D01*
X014849Y016050D01*
X014840Y016102D01*
X014835Y016156D01*
X014833Y016209D01*
X015133Y014329D02*
X016133Y014329D01*
X016052Y013028D02*
X016004Y013000D01*
X015955Y012976D01*
X015903Y012956D01*
X015851Y012939D01*
X015797Y012926D01*
X015743Y012917D01*
X015688Y012911D01*
X015633Y012909D01*
X016030Y013014D02*
X016078Y013044D01*
X016123Y013077D01*
X016166Y013113D01*
X016207Y013151D01*
X016244Y013193D01*
X016279Y013237D01*
X016310Y013283D01*
X016339Y013332D01*
X016363Y013382D01*
X016384Y013434D01*
X016402Y013488D01*
X016415Y013542D01*
X016425Y013597D01*
X016431Y013653D01*
X016433Y013709D01*
X015633Y012909D02*
X015577Y012911D01*
X015520Y012917D01*
X015465Y012927D01*
X015410Y012941D01*
X015357Y012958D01*
X015304Y012980D01*
X015254Y013005D01*
X014833Y013709D02*
X014835Y013763D01*
X014840Y013816D01*
X014849Y013870D01*
X014862Y013922D01*
X014878Y013973D01*
X014898Y014024D01*
X014920Y014073D01*
X014946Y014120D01*
X014976Y014165D01*
X015008Y014208D01*
X015043Y014249D01*
X015081Y014288D01*
X015121Y014324D01*
X014833Y013710D02*
X014835Y013656D01*
X014840Y013602D01*
X014849Y013549D01*
X014862Y013496D01*
X014878Y013445D01*
X014898Y013395D01*
X014921Y013346D01*
X014947Y013298D01*
X014976Y013253D01*
X015009Y013210D01*
X015044Y013169D01*
X015082Y013130D01*
X015122Y013094D01*
X015165Y013061D01*
X015210Y013031D01*
X015257Y013004D01*
X016433Y013709D02*
X016431Y013762D01*
X016426Y013816D01*
X016417Y013868D01*
X016405Y013920D01*
X016389Y013971D01*
X016370Y014021D01*
X016347Y014070D01*
X016321Y014117D01*
X016293Y014162D01*
X016261Y014205D01*
X016227Y014245D01*
X016189Y014284D01*
X016150Y014320D01*
X013133Y014329D02*
X012133Y014329D01*
X011833Y013710D02*
X011835Y013656D01*
X011840Y013602D01*
X011849Y013549D01*
X011862Y013496D01*
X011878Y013445D01*
X011898Y013395D01*
X011921Y013346D01*
X011947Y013298D01*
X011976Y013253D01*
X012009Y013210D01*
X012044Y013169D01*
X012082Y013130D01*
X012122Y013094D01*
X012165Y013061D01*
X012210Y013031D01*
X012257Y013004D01*
X013030Y013014D02*
X013078Y013044D01*
X013123Y013077D01*
X013166Y013113D01*
X013207Y013151D01*
X013244Y013193D01*
X013279Y013237D01*
X013310Y013283D01*
X013339Y013332D01*
X013363Y013382D01*
X013384Y013434D01*
X013402Y013488D01*
X013415Y013542D01*
X013425Y013597D01*
X013431Y013653D01*
X013433Y013709D01*
X013052Y013028D02*
X013004Y013000D01*
X012955Y012976D01*
X012903Y012956D01*
X012851Y012939D01*
X012797Y012926D01*
X012743Y012917D01*
X012688Y012911D01*
X012633Y012909D01*
X012577Y012911D01*
X012520Y012917D01*
X012465Y012927D01*
X012410Y012941D01*
X012357Y012958D01*
X012304Y012980D01*
X012254Y013005D01*
X011833Y013709D02*
X011835Y013763D01*
X011840Y013816D01*
X011849Y013870D01*
X011862Y013922D01*
X011878Y013973D01*
X011898Y014024D01*
X011920Y014073D01*
X011946Y014120D01*
X011976Y014165D01*
X012008Y014208D01*
X012043Y014249D01*
X012081Y014288D01*
X012121Y014324D01*
X013150Y014320D02*
X013189Y014284D01*
X013227Y014245D01*
X013261Y014205D01*
X013293Y014162D01*
X013321Y014117D01*
X013347Y014070D01*
X013370Y014021D01*
X013389Y013971D01*
X013405Y013920D01*
X013417Y013868D01*
X013426Y013816D01*
X013431Y013762D01*
X013433Y013709D01*
X013133Y015589D02*
X012133Y015589D01*
X012214Y016890D02*
X012262Y016918D01*
X012311Y016942D01*
X012363Y016962D01*
X012415Y016979D01*
X012469Y016992D01*
X012523Y017001D01*
X012578Y017007D01*
X012633Y017009D01*
X012236Y016904D02*
X012188Y016874D01*
X012143Y016841D01*
X012100Y016805D01*
X012059Y016767D01*
X012022Y016725D01*
X011987Y016681D01*
X011956Y016635D01*
X011927Y016586D01*
X011903Y016536D01*
X011882Y016484D01*
X011864Y016430D01*
X011851Y016376D01*
X011841Y016321D01*
X011835Y016265D01*
X011833Y016209D01*
X012633Y017009D02*
X012689Y017007D01*
X012746Y017001D01*
X012801Y016991D01*
X012856Y016977D01*
X012909Y016960D01*
X012962Y016938D01*
X013012Y016913D01*
X013433Y016209D02*
X013431Y016155D01*
X013426Y016102D01*
X013417Y016048D01*
X013404Y015996D01*
X013388Y015945D01*
X013368Y015894D01*
X013346Y015845D01*
X013320Y015798D01*
X013290Y015753D01*
X013258Y015710D01*
X013223Y015669D01*
X013185Y015630D01*
X013145Y015594D01*
X013433Y016209D02*
X013431Y016263D01*
X013426Y016317D01*
X013417Y016370D01*
X013404Y016423D01*
X013388Y016474D01*
X013368Y016524D01*
X013345Y016573D01*
X013319Y016621D01*
X013290Y016666D01*
X013257Y016709D01*
X013222Y016750D01*
X013184Y016789D01*
X013144Y016825D01*
X013101Y016858D01*
X013056Y016888D01*
X013009Y016915D01*
X011833Y016209D02*
X011835Y016156D01*
X011840Y016102D01*
X011849Y016050D01*
X011861Y015998D01*
X011877Y015947D01*
X011896Y015897D01*
X011919Y015848D01*
X011945Y015801D01*
X011973Y015756D01*
X012005Y015713D01*
X012039Y015673D01*
X012077Y015634D01*
X012116Y015598D01*
X010133Y015589D02*
X009133Y015589D01*
X009214Y016890D02*
X009262Y016918D01*
X009311Y016942D01*
X009363Y016962D01*
X009415Y016979D01*
X009469Y016992D01*
X009523Y017001D01*
X009578Y017007D01*
X009633Y017009D01*
X009236Y016904D02*
X009188Y016874D01*
X009143Y016841D01*
X009100Y016805D01*
X009059Y016767D01*
X009022Y016725D01*
X008987Y016681D01*
X008956Y016635D01*
X008927Y016586D01*
X008903Y016536D01*
X008882Y016484D01*
X008864Y016430D01*
X008851Y016376D01*
X008841Y016321D01*
X008835Y016265D01*
X008833Y016209D01*
X009633Y017009D02*
X009689Y017007D01*
X009746Y017001D01*
X009801Y016991D01*
X009856Y016977D01*
X009909Y016960D01*
X009962Y016938D01*
X010012Y016913D01*
X010433Y016209D02*
X010431Y016155D01*
X010426Y016102D01*
X010417Y016048D01*
X010404Y015996D01*
X010388Y015945D01*
X010368Y015894D01*
X010346Y015845D01*
X010320Y015798D01*
X010290Y015753D01*
X010258Y015710D01*
X010223Y015669D01*
X010185Y015630D01*
X010145Y015594D01*
X010433Y016209D02*
X010431Y016263D01*
X010426Y016317D01*
X010417Y016370D01*
X010404Y016423D01*
X010388Y016474D01*
X010368Y016524D01*
X010345Y016573D01*
X010319Y016621D01*
X010290Y016666D01*
X010257Y016709D01*
X010222Y016750D01*
X010184Y016789D01*
X010144Y016825D01*
X010101Y016858D01*
X010056Y016888D01*
X010009Y016915D01*
X008833Y016209D02*
X008835Y016156D01*
X008840Y016102D01*
X008849Y016050D01*
X008861Y015998D01*
X008877Y015947D01*
X008896Y015897D01*
X008919Y015848D01*
X008945Y015801D01*
X008973Y015756D01*
X009005Y015713D01*
X009039Y015673D01*
X009077Y015634D01*
X009116Y015598D01*
X009133Y014329D02*
X010133Y014329D01*
X010052Y013028D02*
X010004Y013000D01*
X009955Y012976D01*
X009903Y012956D01*
X009851Y012939D01*
X009797Y012926D01*
X009743Y012917D01*
X009688Y012911D01*
X009633Y012909D01*
X010030Y013014D02*
X010078Y013044D01*
X010123Y013077D01*
X010166Y013113D01*
X010207Y013151D01*
X010244Y013193D01*
X010279Y013237D01*
X010310Y013283D01*
X010339Y013332D01*
X010363Y013382D01*
X010384Y013434D01*
X010402Y013488D01*
X010415Y013542D01*
X010425Y013597D01*
X010431Y013653D01*
X010433Y013709D01*
X009633Y012909D02*
X009577Y012911D01*
X009520Y012917D01*
X009465Y012927D01*
X009410Y012941D01*
X009357Y012958D01*
X009304Y012980D01*
X009254Y013005D01*
X008833Y013709D02*
X008835Y013763D01*
X008840Y013816D01*
X008849Y013870D01*
X008862Y013922D01*
X008878Y013973D01*
X008898Y014024D01*
X008920Y014073D01*
X008946Y014120D01*
X008976Y014165D01*
X009008Y014208D01*
X009043Y014249D01*
X009081Y014288D01*
X009121Y014324D01*
X008833Y013710D02*
X008835Y013656D01*
X008840Y013602D01*
X008849Y013549D01*
X008862Y013496D01*
X008878Y013445D01*
X008898Y013395D01*
X008921Y013346D01*
X008947Y013298D01*
X008976Y013253D01*
X009009Y013210D01*
X009044Y013169D01*
X009082Y013130D01*
X009122Y013094D01*
X009165Y013061D01*
X009210Y013031D01*
X009257Y013004D01*
X010433Y013709D02*
X010431Y013762D01*
X010426Y013816D01*
X010417Y013868D01*
X010405Y013920D01*
X010389Y013971D01*
X010370Y014021D01*
X010347Y014070D01*
X010321Y014117D01*
X010293Y014162D01*
X010261Y014205D01*
X010227Y014245D01*
X010189Y014284D01*
X010150Y014320D01*
X007133Y014329D02*
X006133Y014329D01*
X005833Y013710D02*
X005835Y013656D01*
X005840Y013602D01*
X005849Y013549D01*
X005862Y013496D01*
X005878Y013445D01*
X005898Y013395D01*
X005921Y013346D01*
X005947Y013298D01*
X005976Y013253D01*
X006009Y013210D01*
X006044Y013169D01*
X006082Y013130D01*
X006122Y013094D01*
X006165Y013061D01*
X006210Y013031D01*
X006257Y013004D01*
X007030Y013014D02*
X007078Y013044D01*
X007123Y013077D01*
X007166Y013113D01*
X007207Y013151D01*
X007244Y013193D01*
X007279Y013237D01*
X007310Y013283D01*
X007339Y013332D01*
X007363Y013382D01*
X007384Y013434D01*
X007402Y013488D01*
X007415Y013542D01*
X007425Y013597D01*
X007431Y013653D01*
X007433Y013709D01*
X007052Y013028D02*
X007004Y013000D01*
X006955Y012976D01*
X006903Y012956D01*
X006851Y012939D01*
X006797Y012926D01*
X006743Y012917D01*
X006688Y012911D01*
X006633Y012909D01*
X006577Y012911D01*
X006520Y012917D01*
X006465Y012927D01*
X006410Y012941D01*
X006357Y012958D01*
X006304Y012980D01*
X006254Y013005D01*
X005833Y013709D02*
X005835Y013763D01*
X005840Y013816D01*
X005849Y013870D01*
X005862Y013922D01*
X005878Y013973D01*
X005898Y014024D01*
X005920Y014073D01*
X005946Y014120D01*
X005976Y014165D01*
X006008Y014208D01*
X006043Y014249D01*
X006081Y014288D01*
X006121Y014324D01*
X007150Y014320D02*
X007189Y014284D01*
X007227Y014245D01*
X007261Y014205D01*
X007293Y014162D01*
X007321Y014117D01*
X007347Y014070D01*
X007370Y014021D01*
X007389Y013971D01*
X007405Y013920D01*
X007417Y013868D01*
X007426Y013816D01*
X007431Y013762D01*
X007433Y013709D01*
X007133Y015589D02*
X006133Y015589D01*
X006214Y016890D02*
X006262Y016918D01*
X006311Y016942D01*
X006363Y016962D01*
X006415Y016979D01*
X006469Y016992D01*
X006523Y017001D01*
X006578Y017007D01*
X006633Y017009D01*
X006236Y016904D02*
X006188Y016874D01*
X006143Y016841D01*
X006100Y016805D01*
X006059Y016767D01*
X006022Y016725D01*
X005987Y016681D01*
X005956Y016635D01*
X005927Y016586D01*
X005903Y016536D01*
X005882Y016484D01*
X005864Y016430D01*
X005851Y016376D01*
X005841Y016321D01*
X005835Y016265D01*
X005833Y016209D01*
X006633Y017009D02*
X006689Y017007D01*
X006746Y017001D01*
X006801Y016991D01*
X006856Y016977D01*
X006909Y016960D01*
X006962Y016938D01*
X007012Y016913D01*
X007433Y016209D02*
X007431Y016155D01*
X007426Y016102D01*
X007417Y016048D01*
X007404Y015996D01*
X007388Y015945D01*
X007368Y015894D01*
X007346Y015845D01*
X007320Y015798D01*
X007290Y015753D01*
X007258Y015710D01*
X007223Y015669D01*
X007185Y015630D01*
X007145Y015594D01*
X007433Y016209D02*
X007431Y016263D01*
X007426Y016317D01*
X007417Y016370D01*
X007404Y016423D01*
X007388Y016474D01*
X007368Y016524D01*
X007345Y016573D01*
X007319Y016621D01*
X007290Y016666D01*
X007257Y016709D01*
X007222Y016750D01*
X007184Y016789D01*
X007144Y016825D01*
X007101Y016858D01*
X007056Y016888D01*
X007009Y016915D01*
X005833Y016209D02*
X005835Y016156D01*
X005840Y016102D01*
X005849Y016050D01*
X005861Y015998D01*
X005877Y015947D01*
X005896Y015897D01*
X005919Y015848D01*
X005945Y015801D01*
X005973Y015756D01*
X006005Y015713D01*
X006039Y015673D01*
X006077Y015634D01*
X006116Y015598D01*
X006236Y010404D02*
X006188Y010374D01*
X006143Y010341D01*
X006100Y010305D01*
X006059Y010267D01*
X006022Y010225D01*
X005987Y010181D01*
X005956Y010135D01*
X005927Y010086D01*
X005903Y010036D01*
X005882Y009984D01*
X005864Y009930D01*
X005851Y009876D01*
X005841Y009821D01*
X005835Y009765D01*
X005833Y009709D01*
X006133Y009089D02*
X007133Y009089D01*
X007433Y009709D02*
X007431Y009763D01*
X007426Y009817D01*
X007417Y009870D01*
X007404Y009923D01*
X007388Y009974D01*
X007368Y010024D01*
X007345Y010073D01*
X007319Y010121D01*
X007290Y010166D01*
X007257Y010209D01*
X007222Y010250D01*
X007184Y010289D01*
X007144Y010325D01*
X007101Y010358D01*
X007056Y010388D01*
X007009Y010415D01*
X007012Y010413D02*
X006962Y010438D01*
X006909Y010460D01*
X006856Y010477D01*
X006801Y010491D01*
X006746Y010501D01*
X006689Y010507D01*
X006633Y010509D01*
X006578Y010507D01*
X006523Y010501D01*
X006469Y010492D01*
X006415Y010479D01*
X006363Y010462D01*
X006311Y010442D01*
X006262Y010418D01*
X006214Y010390D01*
X007433Y009709D02*
X007431Y009655D01*
X007426Y009602D01*
X007417Y009548D01*
X007404Y009496D01*
X007388Y009445D01*
X007368Y009394D01*
X007346Y009345D01*
X007320Y009298D01*
X007290Y009253D01*
X007258Y009210D01*
X007223Y009169D01*
X007185Y009130D01*
X007145Y009094D01*
X006116Y009098D02*
X006077Y009134D01*
X006039Y009173D01*
X006005Y009213D01*
X005973Y009256D01*
X005945Y009301D01*
X005919Y009348D01*
X005896Y009397D01*
X005877Y009447D01*
X005861Y009498D01*
X005849Y009550D01*
X005840Y009602D01*
X005835Y009656D01*
X005833Y009709D01*
X006133Y007829D02*
X007133Y007829D01*
X007052Y006528D02*
X007004Y006500D01*
X006955Y006476D01*
X006903Y006456D01*
X006851Y006439D01*
X006797Y006426D01*
X006743Y006417D01*
X006688Y006411D01*
X006633Y006409D01*
X007030Y006514D02*
X007078Y006544D01*
X007123Y006577D01*
X007166Y006613D01*
X007207Y006651D01*
X007244Y006693D01*
X007279Y006737D01*
X007310Y006783D01*
X007339Y006832D01*
X007363Y006882D01*
X007384Y006934D01*
X007402Y006988D01*
X007415Y007042D01*
X007425Y007097D01*
X007431Y007153D01*
X007433Y007209D01*
X006633Y006409D02*
X006577Y006411D01*
X006520Y006417D01*
X006465Y006427D01*
X006410Y006441D01*
X006357Y006458D01*
X006304Y006480D01*
X006254Y006505D01*
X005833Y007209D02*
X005835Y007263D01*
X005840Y007316D01*
X005849Y007370D01*
X005862Y007422D01*
X005878Y007473D01*
X005898Y007524D01*
X005920Y007573D01*
X005946Y007620D01*
X005976Y007665D01*
X006008Y007708D01*
X006043Y007749D01*
X006081Y007788D01*
X006121Y007824D01*
X005833Y007210D02*
X005835Y007156D01*
X005840Y007102D01*
X005849Y007049D01*
X005862Y006996D01*
X005878Y006945D01*
X005898Y006895D01*
X005921Y006846D01*
X005947Y006798D01*
X005976Y006753D01*
X006009Y006710D01*
X006044Y006669D01*
X006082Y006630D01*
X006122Y006594D01*
X006165Y006561D01*
X006210Y006531D01*
X006257Y006504D01*
X007433Y007209D02*
X007431Y007262D01*
X007426Y007316D01*
X007417Y007368D01*
X007405Y007420D01*
X007389Y007471D01*
X007370Y007521D01*
X007347Y007570D01*
X007321Y007617D01*
X007293Y007662D01*
X007261Y007705D01*
X007227Y007745D01*
X007189Y007784D01*
X007150Y007820D01*
X009133Y007829D02*
X010133Y007829D01*
X010052Y006528D02*
X010004Y006500D01*
X009955Y006476D01*
X009903Y006456D01*
X009851Y006439D01*
X009797Y006426D01*
X009743Y006417D01*
X009688Y006411D01*
X009633Y006409D01*
X010030Y006514D02*
X010078Y006544D01*
X010123Y006577D01*
X010166Y006613D01*
X010207Y006651D01*
X010244Y006693D01*
X010279Y006737D01*
X010310Y006783D01*
X010339Y006832D01*
X010363Y006882D01*
X010384Y006934D01*
X010402Y006988D01*
X010415Y007042D01*
X010425Y007097D01*
X010431Y007153D01*
X010433Y007209D01*
X009633Y006409D02*
X009577Y006411D01*
X009520Y006417D01*
X009465Y006427D01*
X009410Y006441D01*
X009357Y006458D01*
X009304Y006480D01*
X009254Y006505D01*
X008833Y007209D02*
X008835Y007263D01*
X008840Y007316D01*
X008849Y007370D01*
X008862Y007422D01*
X008878Y007473D01*
X008898Y007524D01*
X008920Y007573D01*
X008946Y007620D01*
X008976Y007665D01*
X009008Y007708D01*
X009043Y007749D01*
X009081Y007788D01*
X009121Y007824D01*
X008833Y007210D02*
X008835Y007156D01*
X008840Y007102D01*
X008849Y007049D01*
X008862Y006996D01*
X008878Y006945D01*
X008898Y006895D01*
X008921Y006846D01*
X008947Y006798D01*
X008976Y006753D01*
X009009Y006710D01*
X009044Y006669D01*
X009082Y006630D01*
X009122Y006594D01*
X009165Y006561D01*
X009210Y006531D01*
X009257Y006504D01*
X010433Y007209D02*
X010431Y007262D01*
X010426Y007316D01*
X010417Y007368D01*
X010405Y007420D01*
X010389Y007471D01*
X010370Y007521D01*
X010347Y007570D01*
X010321Y007617D01*
X010293Y007662D01*
X010261Y007705D01*
X010227Y007745D01*
X010189Y007784D01*
X010150Y007820D01*
X010133Y009089D02*
X009133Y009089D01*
X009214Y010390D02*
X009262Y010418D01*
X009311Y010442D01*
X009363Y010462D01*
X009415Y010479D01*
X009469Y010492D01*
X009523Y010501D01*
X009578Y010507D01*
X009633Y010509D01*
X009236Y010404D02*
X009188Y010374D01*
X009143Y010341D01*
X009100Y010305D01*
X009059Y010267D01*
X009022Y010225D01*
X008987Y010181D01*
X008956Y010135D01*
X008927Y010086D01*
X008903Y010036D01*
X008882Y009984D01*
X008864Y009930D01*
X008851Y009876D01*
X008841Y009821D01*
X008835Y009765D01*
X008833Y009709D01*
X009633Y010509D02*
X009689Y010507D01*
X009746Y010501D01*
X009801Y010491D01*
X009856Y010477D01*
X009909Y010460D01*
X009962Y010438D01*
X010012Y010413D01*
X010433Y009709D02*
X010431Y009655D01*
X010426Y009602D01*
X010417Y009548D01*
X010404Y009496D01*
X010388Y009445D01*
X010368Y009394D01*
X010346Y009345D01*
X010320Y009298D01*
X010290Y009253D01*
X010258Y009210D01*
X010223Y009169D01*
X010185Y009130D01*
X010145Y009094D01*
X010433Y009709D02*
X010431Y009763D01*
X010426Y009817D01*
X010417Y009870D01*
X010404Y009923D01*
X010388Y009974D01*
X010368Y010024D01*
X010345Y010073D01*
X010319Y010121D01*
X010290Y010166D01*
X010257Y010209D01*
X010222Y010250D01*
X010184Y010289D01*
X010144Y010325D01*
X010101Y010358D01*
X010056Y010388D01*
X010009Y010415D01*
X008833Y009709D02*
X008835Y009656D01*
X008840Y009602D01*
X008849Y009550D01*
X008861Y009498D01*
X008877Y009447D01*
X008896Y009397D01*
X008919Y009348D01*
X008945Y009301D01*
X008973Y009256D01*
X009005Y009213D01*
X009039Y009173D01*
X009077Y009134D01*
X009116Y009098D01*
X012133Y009089D02*
X013133Y009089D01*
X013433Y009709D02*
X013431Y009763D01*
X013426Y009817D01*
X013417Y009870D01*
X013404Y009923D01*
X013388Y009974D01*
X013368Y010024D01*
X013345Y010073D01*
X013319Y010121D01*
X013290Y010166D01*
X013257Y010209D01*
X013222Y010250D01*
X013184Y010289D01*
X013144Y010325D01*
X013101Y010358D01*
X013056Y010388D01*
X013009Y010415D01*
X012236Y010404D02*
X012188Y010374D01*
X012143Y010341D01*
X012100Y010305D01*
X012059Y010267D01*
X012022Y010225D01*
X011987Y010181D01*
X011956Y010135D01*
X011927Y010086D01*
X011903Y010036D01*
X011882Y009984D01*
X011864Y009930D01*
X011851Y009876D01*
X011841Y009821D01*
X011835Y009765D01*
X011833Y009709D01*
X012214Y010390D02*
X012262Y010418D01*
X012311Y010442D01*
X012363Y010462D01*
X012415Y010479D01*
X012469Y010492D01*
X012523Y010501D01*
X012578Y010507D01*
X012633Y010509D01*
X012689Y010507D01*
X012746Y010501D01*
X012801Y010491D01*
X012856Y010477D01*
X012909Y010460D01*
X012962Y010438D01*
X013012Y010413D01*
X013433Y009709D02*
X013431Y009655D01*
X013426Y009602D01*
X013417Y009548D01*
X013404Y009496D01*
X013388Y009445D01*
X013368Y009394D01*
X013346Y009345D01*
X013320Y009298D01*
X013290Y009253D01*
X013258Y009210D01*
X013223Y009169D01*
X013185Y009130D01*
X013145Y009094D01*
X012116Y009098D02*
X012077Y009134D01*
X012039Y009173D01*
X012005Y009213D01*
X011973Y009256D01*
X011945Y009301D01*
X011919Y009348D01*
X011896Y009397D01*
X011877Y009447D01*
X011861Y009498D01*
X011849Y009550D01*
X011840Y009602D01*
X011835Y009656D01*
X011833Y009709D01*
X012133Y007829D02*
X013133Y007829D01*
X013052Y006528D02*
X013004Y006500D01*
X012955Y006476D01*
X012903Y006456D01*
X012851Y006439D01*
X012797Y006426D01*
X012743Y006417D01*
X012688Y006411D01*
X012633Y006409D01*
X013030Y006514D02*
X013078Y006544D01*
X013123Y006577D01*
X013166Y006613D01*
X013207Y006651D01*
X013244Y006693D01*
X013279Y006737D01*
X013310Y006783D01*
X013339Y006832D01*
X013363Y006882D01*
X013384Y006934D01*
X013402Y006988D01*
X013415Y007042D01*
X013425Y007097D01*
X013431Y007153D01*
X013433Y007209D01*
X012633Y006409D02*
X012577Y006411D01*
X012520Y006417D01*
X012465Y006427D01*
X012410Y006441D01*
X012357Y006458D01*
X012304Y006480D01*
X012254Y006505D01*
X011833Y007209D02*
X011835Y007263D01*
X011840Y007316D01*
X011849Y007370D01*
X011862Y007422D01*
X011878Y007473D01*
X011898Y007524D01*
X011920Y007573D01*
X011946Y007620D01*
X011976Y007665D01*
X012008Y007708D01*
X012043Y007749D01*
X012081Y007788D01*
X012121Y007824D01*
X011833Y007210D02*
X011835Y007156D01*
X011840Y007102D01*
X011849Y007049D01*
X011862Y006996D01*
X011878Y006945D01*
X011898Y006895D01*
X011921Y006846D01*
X011947Y006798D01*
X011976Y006753D01*
X012009Y006710D01*
X012044Y006669D01*
X012082Y006630D01*
X012122Y006594D01*
X012165Y006561D01*
X012210Y006531D01*
X012257Y006504D01*
X013433Y007209D02*
X013431Y007262D01*
X013426Y007316D01*
X013417Y007368D01*
X013405Y007420D01*
X013389Y007471D01*
X013370Y007521D01*
X013347Y007570D01*
X013321Y007617D01*
X013293Y007662D01*
X013261Y007705D01*
X013227Y007745D01*
X013189Y007784D01*
X013150Y007820D01*
X015133Y007829D02*
X016133Y007829D01*
X016052Y006528D02*
X016004Y006500D01*
X015955Y006476D01*
X015903Y006456D01*
X015851Y006439D01*
X015797Y006426D01*
X015743Y006417D01*
X015688Y006411D01*
X015633Y006409D01*
X016030Y006514D02*
X016078Y006544D01*
X016123Y006577D01*
X016166Y006613D01*
X016207Y006651D01*
X016244Y006693D01*
X016279Y006737D01*
X016310Y006783D01*
X016339Y006832D01*
X016363Y006882D01*
X016384Y006934D01*
X016402Y006988D01*
X016415Y007042D01*
X016425Y007097D01*
X016431Y007153D01*
X016433Y007209D01*
X015633Y006409D02*
X015577Y006411D01*
X015520Y006417D01*
X015465Y006427D01*
X015410Y006441D01*
X015357Y006458D01*
X015304Y006480D01*
X015254Y006505D01*
X014833Y007209D02*
X014835Y007263D01*
X014840Y007316D01*
X014849Y007370D01*
X014862Y007422D01*
X014878Y007473D01*
X014898Y007524D01*
X014920Y007573D01*
X014946Y007620D01*
X014976Y007665D01*
X015008Y007708D01*
X015043Y007749D01*
X015081Y007788D01*
X015121Y007824D01*
X014833Y007210D02*
X014835Y007156D01*
X014840Y007102D01*
X014849Y007049D01*
X014862Y006996D01*
X014878Y006945D01*
X014898Y006895D01*
X014921Y006846D01*
X014947Y006798D01*
X014976Y006753D01*
X015009Y006710D01*
X015044Y006669D01*
X015082Y006630D01*
X015122Y006594D01*
X015165Y006561D01*
X015210Y006531D01*
X015257Y006504D01*
X016433Y007209D02*
X016431Y007262D01*
X016426Y007316D01*
X016417Y007368D01*
X016405Y007420D01*
X016389Y007471D01*
X016370Y007521D01*
X016347Y007570D01*
X016321Y007617D01*
X016293Y007662D01*
X016261Y007705D01*
X016227Y007745D01*
X016189Y007784D01*
X016150Y007820D01*
X016133Y009089D02*
X015133Y009089D01*
X015214Y010390D02*
X015262Y010418D01*
X015311Y010442D01*
X015363Y010462D01*
X015415Y010479D01*
X015469Y010492D01*
X015523Y010501D01*
X015578Y010507D01*
X015633Y010509D01*
X015236Y010404D02*
X015188Y010374D01*
X015143Y010341D01*
X015100Y010305D01*
X015059Y010267D01*
X015022Y010225D01*
X014987Y010181D01*
X014956Y010135D01*
X014927Y010086D01*
X014903Y010036D01*
X014882Y009984D01*
X014864Y009930D01*
X014851Y009876D01*
X014841Y009821D01*
X014835Y009765D01*
X014833Y009709D01*
X015633Y010509D02*
X015689Y010507D01*
X015746Y010501D01*
X015801Y010491D01*
X015856Y010477D01*
X015909Y010460D01*
X015962Y010438D01*
X016012Y010413D01*
X016433Y009709D02*
X016431Y009655D01*
X016426Y009602D01*
X016417Y009548D01*
X016404Y009496D01*
X016388Y009445D01*
X016368Y009394D01*
X016346Y009345D01*
X016320Y009298D01*
X016290Y009253D01*
X016258Y009210D01*
X016223Y009169D01*
X016185Y009130D01*
X016145Y009094D01*
X016433Y009709D02*
X016431Y009763D01*
X016426Y009817D01*
X016417Y009870D01*
X016404Y009923D01*
X016388Y009974D01*
X016368Y010024D01*
X016345Y010073D01*
X016319Y010121D01*
X016290Y010166D01*
X016257Y010209D01*
X016222Y010250D01*
X016184Y010289D01*
X016144Y010325D01*
X016101Y010358D01*
X016056Y010388D01*
X016009Y010415D01*
X014833Y009709D02*
X014835Y009656D01*
X014840Y009602D01*
X014849Y009550D01*
X014861Y009498D01*
X014877Y009447D01*
X014896Y009397D01*
X014919Y009348D01*
X014945Y009301D01*
X014973Y009256D01*
X015005Y009213D01*
X015039Y009173D01*
X015077Y009134D01*
X015116Y009098D01*
X015236Y003904D02*
X015188Y003874D01*
X015143Y003841D01*
X015100Y003805D01*
X015059Y003767D01*
X015022Y003725D01*
X014987Y003681D01*
X014956Y003635D01*
X014927Y003586D01*
X014903Y003536D01*
X014882Y003484D01*
X014864Y003430D01*
X014851Y003376D01*
X014841Y003321D01*
X014835Y003265D01*
X014833Y003209D01*
X015133Y002589D02*
X016133Y002589D01*
X016433Y003209D02*
X016431Y003263D01*
X016426Y003317D01*
X016417Y003370D01*
X016404Y003423D01*
X016388Y003474D01*
X016368Y003524D01*
X016345Y003573D01*
X016319Y003621D01*
X016290Y003666D01*
X016257Y003709D01*
X016222Y003750D01*
X016184Y003789D01*
X016144Y003825D01*
X016101Y003858D01*
X016056Y003888D01*
X016009Y003915D01*
X016012Y003913D02*
X015962Y003938D01*
X015909Y003960D01*
X015856Y003977D01*
X015801Y003991D01*
X015746Y004001D01*
X015689Y004007D01*
X015633Y004009D01*
X015578Y004007D01*
X015523Y004001D01*
X015469Y003992D01*
X015415Y003979D01*
X015363Y003962D01*
X015311Y003942D01*
X015262Y003918D01*
X015214Y003890D01*
X016433Y003209D02*
X016431Y003155D01*
X016426Y003102D01*
X016417Y003048D01*
X016404Y002996D01*
X016388Y002945D01*
X016368Y002894D01*
X016346Y002845D01*
X016320Y002798D01*
X016290Y002753D01*
X016258Y002710D01*
X016223Y002669D01*
X016185Y002630D01*
X016145Y002594D01*
X015116Y002598D02*
X015077Y002634D01*
X015039Y002673D01*
X015005Y002713D01*
X014973Y002756D01*
X014945Y002801D01*
X014919Y002848D01*
X014896Y002897D01*
X014877Y002947D01*
X014861Y002998D01*
X014849Y003050D01*
X014840Y003102D01*
X014835Y003156D01*
X014833Y003209D01*
X013133Y002589D02*
X012133Y002589D01*
X012214Y003890D02*
X012262Y003918D01*
X012311Y003942D01*
X012363Y003962D01*
X012415Y003979D01*
X012469Y003992D01*
X012523Y004001D01*
X012578Y004007D01*
X012633Y004009D01*
X012236Y003904D02*
X012188Y003874D01*
X012143Y003841D01*
X012100Y003805D01*
X012059Y003767D01*
X012022Y003725D01*
X011987Y003681D01*
X011956Y003635D01*
X011927Y003586D01*
X011903Y003536D01*
X011882Y003484D01*
X011864Y003430D01*
X011851Y003376D01*
X011841Y003321D01*
X011835Y003265D01*
X011833Y003209D01*
X012633Y004009D02*
X012689Y004007D01*
X012746Y004001D01*
X012801Y003991D01*
X012856Y003977D01*
X012909Y003960D01*
X012962Y003938D01*
X013012Y003913D01*
X013433Y003209D02*
X013431Y003155D01*
X013426Y003102D01*
X013417Y003048D01*
X013404Y002996D01*
X013388Y002945D01*
X013368Y002894D01*
X013346Y002845D01*
X013320Y002798D01*
X013290Y002753D01*
X013258Y002710D01*
X013223Y002669D01*
X013185Y002630D01*
X013145Y002594D01*
X013433Y003209D02*
X013431Y003263D01*
X013426Y003317D01*
X013417Y003370D01*
X013404Y003423D01*
X013388Y003474D01*
X013368Y003524D01*
X013345Y003573D01*
X013319Y003621D01*
X013290Y003666D01*
X013257Y003709D01*
X013222Y003750D01*
X013184Y003789D01*
X013144Y003825D01*
X013101Y003858D01*
X013056Y003888D01*
X013009Y003915D01*
X011833Y003209D02*
X011835Y003156D01*
X011840Y003102D01*
X011849Y003050D01*
X011861Y002998D01*
X011877Y002947D01*
X011896Y002897D01*
X011919Y002848D01*
X011945Y002801D01*
X011973Y002756D01*
X012005Y002713D01*
X012039Y002673D01*
X012077Y002634D01*
X012116Y002598D01*
X010133Y002589D02*
X009133Y002589D01*
X009214Y003890D02*
X009262Y003918D01*
X009311Y003942D01*
X009363Y003962D01*
X009415Y003979D01*
X009469Y003992D01*
X009523Y004001D01*
X009578Y004007D01*
X009633Y004009D01*
X009236Y003904D02*
X009188Y003874D01*
X009143Y003841D01*
X009100Y003805D01*
X009059Y003767D01*
X009022Y003725D01*
X008987Y003681D01*
X008956Y003635D01*
X008927Y003586D01*
X008903Y003536D01*
X008882Y003484D01*
X008864Y003430D01*
X008851Y003376D01*
X008841Y003321D01*
X008835Y003265D01*
X008833Y003209D01*
X009633Y004009D02*
X009689Y004007D01*
X009746Y004001D01*
X009801Y003991D01*
X009856Y003977D01*
X009909Y003960D01*
X009962Y003938D01*
X010012Y003913D01*
X010433Y003209D02*
X010431Y003155D01*
X010426Y003102D01*
X010417Y003048D01*
X010404Y002996D01*
X010388Y002945D01*
X010368Y002894D01*
X010346Y002845D01*
X010320Y002798D01*
X010290Y002753D01*
X010258Y002710D01*
X010223Y002669D01*
X010185Y002630D01*
X010145Y002594D01*
X010433Y003209D02*
X010431Y003263D01*
X010426Y003317D01*
X010417Y003370D01*
X010404Y003423D01*
X010388Y003474D01*
X010368Y003524D01*
X010345Y003573D01*
X010319Y003621D01*
X010290Y003666D01*
X010257Y003709D01*
X010222Y003750D01*
X010184Y003789D01*
X010144Y003825D01*
X010101Y003858D01*
X010056Y003888D01*
X010009Y003915D01*
X008833Y003209D02*
X008835Y003156D01*
X008840Y003102D01*
X008849Y003050D01*
X008861Y002998D01*
X008877Y002947D01*
X008896Y002897D01*
X008919Y002848D01*
X008945Y002801D01*
X008973Y002756D01*
X009005Y002713D01*
X009039Y002673D01*
X009077Y002634D01*
X009116Y002598D01*
X007133Y002589D02*
X006133Y002589D01*
X006214Y003890D02*
X006262Y003918D01*
X006311Y003942D01*
X006363Y003962D01*
X006415Y003979D01*
X006469Y003992D01*
X006523Y004001D01*
X006578Y004007D01*
X006633Y004009D01*
X006236Y003904D02*
X006188Y003874D01*
X006143Y003841D01*
X006100Y003805D01*
X006059Y003767D01*
X006022Y003725D01*
X005987Y003681D01*
X005956Y003635D01*
X005927Y003586D01*
X005903Y003536D01*
X005882Y003484D01*
X005864Y003430D01*
X005851Y003376D01*
X005841Y003321D01*
X005835Y003265D01*
X005833Y003209D01*
X006633Y004009D02*
X006689Y004007D01*
X006746Y004001D01*
X006801Y003991D01*
X006856Y003977D01*
X006909Y003960D01*
X006962Y003938D01*
X007012Y003913D01*
X007433Y003209D02*
X007431Y003155D01*
X007426Y003102D01*
X007417Y003048D01*
X007404Y002996D01*
X007388Y002945D01*
X007368Y002894D01*
X007346Y002845D01*
X007320Y002798D01*
X007290Y002753D01*
X007258Y002710D01*
X007223Y002669D01*
X007185Y002630D01*
X007145Y002594D01*
X007433Y003209D02*
X007431Y003263D01*
X007426Y003317D01*
X007417Y003370D01*
X007404Y003423D01*
X007388Y003474D01*
X007368Y003524D01*
X007345Y003573D01*
X007319Y003621D01*
X007290Y003666D01*
X007257Y003709D01*
X007222Y003750D01*
X007184Y003789D01*
X007144Y003825D01*
X007101Y003858D01*
X007056Y003888D01*
X007009Y003915D01*
X005833Y003209D02*
X005835Y003156D01*
X005840Y003102D01*
X005849Y003050D01*
X005861Y002998D01*
X005877Y002947D01*
X005896Y002897D01*
X005919Y002848D01*
X005945Y002801D01*
X005973Y002756D01*
X006005Y002713D01*
X006039Y002673D01*
X006077Y002634D01*
X006116Y002598D01*
X004133Y002589D02*
X003133Y002589D01*
X003214Y003890D02*
X003262Y003918D01*
X003311Y003942D01*
X003363Y003962D01*
X003415Y003979D01*
X003469Y003992D01*
X003523Y004001D01*
X003578Y004007D01*
X003633Y004009D01*
X003236Y003904D02*
X003188Y003874D01*
X003143Y003841D01*
X003100Y003805D01*
X003059Y003767D01*
X003022Y003725D01*
X002987Y003681D01*
X002956Y003635D01*
X002927Y003586D01*
X002903Y003536D01*
X002882Y003484D01*
X002864Y003430D01*
X002851Y003376D01*
X002841Y003321D01*
X002835Y003265D01*
X002833Y003209D01*
X003633Y004009D02*
X003689Y004007D01*
X003746Y004001D01*
X003801Y003991D01*
X003856Y003977D01*
X003909Y003960D01*
X003962Y003938D01*
X004012Y003913D01*
X004433Y003209D02*
X004431Y003155D01*
X004426Y003102D01*
X004417Y003048D01*
X004404Y002996D01*
X004388Y002945D01*
X004368Y002894D01*
X004346Y002845D01*
X004320Y002798D01*
X004290Y002753D01*
X004258Y002710D01*
X004223Y002669D01*
X004185Y002630D01*
X004145Y002594D01*
X004433Y003209D02*
X004431Y003263D01*
X004426Y003317D01*
X004417Y003370D01*
X004404Y003423D01*
X004388Y003474D01*
X004368Y003524D01*
X004345Y003573D01*
X004319Y003621D01*
X004290Y003666D01*
X004257Y003709D01*
X004222Y003750D01*
X004184Y003789D01*
X004144Y003825D01*
X004101Y003858D01*
X004056Y003888D01*
X004009Y003915D01*
X002833Y003209D02*
X002835Y003156D01*
X002840Y003102D01*
X002849Y003050D01*
X002861Y002998D01*
X002877Y002947D01*
X002896Y002897D01*
X002919Y002848D01*
X002945Y002801D01*
X002973Y002756D01*
X003005Y002713D01*
X003039Y002673D01*
X003077Y002634D01*
X003116Y002598D01*
D11*
X003234Y003657D02*
X003272Y003688D01*
X003312Y003716D01*
X003354Y003740D01*
X003397Y003761D01*
X003443Y003778D01*
X003489Y003791D01*
X003537Y003801D01*
X003585Y003807D01*
X003633Y003809D01*
X004233Y003209D02*
X004231Y003162D01*
X004225Y003114D01*
X004216Y003068D01*
X004203Y003022D01*
X004187Y002978D01*
X004166Y002934D01*
X004143Y002893D01*
X004117Y002854D01*
X004087Y002817D01*
X004054Y002782D01*
X004019Y002750D01*
X003982Y002721D01*
X003033Y003209D02*
X003035Y003254D01*
X003040Y003300D01*
X003048Y003344D01*
X003060Y003388D01*
X003076Y003431D01*
X003094Y003473D01*
X003116Y003513D01*
X003140Y003551D01*
X003167Y003587D01*
X003197Y003622D01*
X003230Y003653D01*
X003265Y003683D01*
X003633Y002609D02*
X003680Y002611D01*
X003727Y002616D01*
X003773Y002626D01*
X003819Y002639D01*
X003863Y002655D01*
X003906Y002675D01*
X003947Y002698D01*
X003986Y002724D01*
X004023Y002753D01*
X003633Y002609D02*
X003587Y002611D01*
X003541Y002616D01*
X003495Y002625D01*
X003451Y002637D01*
X003407Y002653D01*
X003365Y002672D01*
X003324Y002694D01*
X003286Y002720D01*
X003249Y002748D01*
X004233Y003209D02*
X004231Y003255D01*
X004226Y003301D01*
X004217Y003347D01*
X004205Y003392D01*
X004189Y003435D01*
X004170Y003477D01*
X004147Y003518D01*
X004122Y003557D01*
X004094Y003593D01*
X004063Y003628D01*
X004029Y003660D01*
X003993Y003689D01*
X003033Y003209D02*
X003035Y003164D01*
X003040Y003118D01*
X003048Y003074D01*
X003060Y003030D01*
X003076Y002987D01*
X003094Y002945D01*
X003116Y002905D01*
X003140Y002867D01*
X003167Y002831D01*
X003197Y002796D01*
X003230Y002765D01*
X003265Y002735D01*
X003633Y003809D02*
X003679Y003807D01*
X003725Y003802D01*
X003771Y003793D01*
X003815Y003781D01*
X003859Y003765D01*
X003901Y003746D01*
X003942Y003724D01*
X003980Y003698D01*
X004017Y003670D01*
X003233Y003209D02*
X003235Y003170D01*
X003241Y003131D01*
X003250Y003093D01*
X003263Y003056D01*
X003280Y003020D01*
X003300Y002987D01*
X003324Y002955D01*
X003350Y002926D01*
X003379Y002900D01*
X003411Y002876D01*
X003444Y002856D01*
X003480Y002839D01*
X003517Y002826D01*
X003555Y002817D01*
X003594Y002811D01*
X003633Y002809D01*
X003633Y002959D02*
X003603Y002961D01*
X003573Y002966D01*
X003544Y002975D01*
X003517Y002988D01*
X003491Y003003D01*
X003467Y003022D01*
X003446Y003043D01*
X003427Y003067D01*
X003412Y003093D01*
X003399Y003120D01*
X003390Y003149D01*
X003385Y003179D01*
X003383Y003209D01*
X003633Y003609D02*
X003672Y003607D01*
X003711Y003601D01*
X003749Y003592D01*
X003786Y003579D01*
X003822Y003562D01*
X003855Y003542D01*
X003887Y003518D01*
X003916Y003492D01*
X003942Y003463D01*
X003966Y003431D01*
X003986Y003398D01*
X004003Y003362D01*
X004016Y003325D01*
X004025Y003287D01*
X004031Y003248D01*
X004033Y003209D01*
X003883Y003209D02*
X003881Y003239D01*
X003876Y003269D01*
X003867Y003298D01*
X003854Y003325D01*
X003839Y003351D01*
X003820Y003375D01*
X003799Y003396D01*
X003775Y003415D01*
X003749Y003430D01*
X003722Y003443D01*
X003693Y003452D01*
X003663Y003457D01*
X003633Y003459D01*
X004183Y004879D02*
X005083Y004879D01*
X005083Y005539D02*
X004183Y005539D01*
X003033Y007209D02*
X003035Y007256D01*
X003041Y007304D01*
X003050Y007350D01*
X003063Y007396D01*
X003079Y007440D01*
X003100Y007484D01*
X003123Y007525D01*
X003149Y007564D01*
X003179Y007601D01*
X003212Y007636D01*
X003247Y007668D01*
X003284Y007697D01*
X004233Y007209D02*
X004231Y007164D01*
X004226Y007118D01*
X004218Y007074D01*
X004206Y007030D01*
X004190Y006987D01*
X004172Y006945D01*
X004150Y006905D01*
X004126Y006867D01*
X004099Y006831D01*
X004069Y006796D01*
X004036Y006765D01*
X004001Y006735D01*
X004032Y006761D02*
X003994Y006730D01*
X003954Y006702D01*
X003912Y006678D01*
X003869Y006657D01*
X003823Y006640D01*
X003777Y006627D01*
X003729Y006617D01*
X003681Y006611D01*
X003633Y006609D01*
X004233Y007209D02*
X004231Y007254D01*
X004226Y007300D01*
X004218Y007344D01*
X004206Y007388D01*
X004190Y007431D01*
X004172Y007473D01*
X004150Y007513D01*
X004126Y007551D01*
X004099Y007587D01*
X004069Y007622D01*
X004036Y007653D01*
X004001Y007683D01*
X003633Y007809D02*
X003586Y007807D01*
X003539Y007802D01*
X003493Y007792D01*
X003447Y007779D01*
X003403Y007763D01*
X003360Y007743D01*
X003319Y007720D01*
X003280Y007694D01*
X003243Y007665D01*
X003633Y007809D02*
X003679Y007807D01*
X003725Y007802D01*
X003771Y007793D01*
X003815Y007781D01*
X003859Y007765D01*
X003901Y007746D01*
X003942Y007724D01*
X003980Y007698D01*
X004017Y007670D01*
X003633Y007609D02*
X003672Y007607D01*
X003711Y007601D01*
X003749Y007592D01*
X003786Y007579D01*
X003822Y007562D01*
X003855Y007542D01*
X003887Y007518D01*
X003916Y007492D01*
X003942Y007463D01*
X003966Y007431D01*
X003986Y007398D01*
X004003Y007362D01*
X004016Y007325D01*
X004025Y007287D01*
X004031Y007248D01*
X004033Y007209D01*
X003633Y006609D02*
X003587Y006611D01*
X003541Y006616D01*
X003495Y006625D01*
X003451Y006637D01*
X003407Y006653D01*
X003365Y006672D01*
X003324Y006694D01*
X003286Y006720D01*
X003249Y006748D01*
X003883Y007209D02*
X003881Y007239D01*
X003876Y007269D01*
X003867Y007298D01*
X003854Y007325D01*
X003839Y007351D01*
X003820Y007375D01*
X003799Y007396D01*
X003775Y007415D01*
X003749Y007430D01*
X003722Y007443D01*
X003693Y007452D01*
X003663Y007457D01*
X003633Y007459D01*
X003233Y007209D02*
X003235Y007170D01*
X003241Y007131D01*
X003250Y007093D01*
X003263Y007056D01*
X003280Y007020D01*
X003300Y006987D01*
X003324Y006955D01*
X003350Y006926D01*
X003379Y006900D01*
X003411Y006876D01*
X003444Y006856D01*
X003480Y006839D01*
X003517Y006826D01*
X003555Y006817D01*
X003594Y006811D01*
X003633Y006809D01*
X003633Y006959D02*
X003603Y006961D01*
X003573Y006966D01*
X003544Y006975D01*
X003517Y006988D01*
X003491Y007003D01*
X003467Y007022D01*
X003446Y007043D01*
X003427Y007067D01*
X003412Y007093D01*
X003399Y007120D01*
X003390Y007149D01*
X003385Y007179D01*
X003383Y007209D01*
X003033Y007209D02*
X003035Y007163D01*
X003040Y007117D01*
X003049Y007071D01*
X003061Y007026D01*
X003077Y006983D01*
X003096Y006941D01*
X003119Y006900D01*
X003144Y006861D01*
X003172Y006825D01*
X003203Y006790D01*
X003237Y006758D01*
X003273Y006729D01*
X003033Y009709D02*
X003035Y009754D01*
X003040Y009800D01*
X003048Y009844D01*
X003060Y009888D01*
X003076Y009931D01*
X003094Y009973D01*
X003116Y010013D01*
X003140Y010051D01*
X003167Y010087D01*
X003197Y010122D01*
X003230Y010153D01*
X003265Y010183D01*
X003234Y010157D02*
X003272Y010188D01*
X003312Y010216D01*
X003354Y010240D01*
X003397Y010261D01*
X003443Y010278D01*
X003489Y010291D01*
X003537Y010301D01*
X003585Y010307D01*
X003633Y010309D01*
X004233Y009709D02*
X004231Y009662D01*
X004225Y009614D01*
X004216Y009568D01*
X004203Y009522D01*
X004187Y009478D01*
X004166Y009434D01*
X004143Y009393D01*
X004117Y009354D01*
X004087Y009317D01*
X004054Y009282D01*
X004019Y009250D01*
X003982Y009221D01*
X003633Y009109D02*
X003587Y009111D01*
X003541Y009116D01*
X003495Y009125D01*
X003451Y009137D01*
X003407Y009153D01*
X003365Y009172D01*
X003324Y009194D01*
X003286Y009220D01*
X003249Y009248D01*
X003633Y009109D02*
X003680Y009111D01*
X003727Y009116D01*
X003773Y009126D01*
X003819Y009139D01*
X003863Y009155D01*
X003906Y009175D01*
X003947Y009198D01*
X003986Y009224D01*
X004023Y009253D01*
X003633Y009309D02*
X003594Y009311D01*
X003555Y009317D01*
X003517Y009326D01*
X003480Y009339D01*
X003444Y009356D01*
X003411Y009376D01*
X003379Y009400D01*
X003350Y009426D01*
X003324Y009455D01*
X003300Y009487D01*
X003280Y009520D01*
X003263Y009556D01*
X003250Y009593D01*
X003241Y009631D01*
X003235Y009670D01*
X003233Y009709D01*
X003633Y010309D02*
X003679Y010307D01*
X003725Y010302D01*
X003771Y010293D01*
X003815Y010281D01*
X003859Y010265D01*
X003901Y010246D01*
X003942Y010224D01*
X003980Y010198D01*
X004017Y010170D01*
X003033Y009709D02*
X003035Y009664D01*
X003040Y009618D01*
X003048Y009574D01*
X003060Y009530D01*
X003076Y009487D01*
X003094Y009445D01*
X003116Y009405D01*
X003140Y009367D01*
X003167Y009331D01*
X003197Y009296D01*
X003230Y009265D01*
X003265Y009235D01*
X004233Y009709D02*
X004231Y009755D01*
X004226Y009801D01*
X004217Y009847D01*
X004205Y009892D01*
X004189Y009935D01*
X004170Y009977D01*
X004147Y010018D01*
X004122Y010057D01*
X004094Y010093D01*
X004063Y010128D01*
X004029Y010160D01*
X003993Y010189D01*
X003383Y009709D02*
X003385Y009679D01*
X003390Y009649D01*
X003399Y009620D01*
X003412Y009593D01*
X003427Y009567D01*
X003446Y009543D01*
X003467Y009522D01*
X003491Y009503D01*
X003517Y009488D01*
X003544Y009475D01*
X003573Y009466D01*
X003603Y009461D01*
X003633Y009459D01*
X004033Y009709D02*
X004031Y009748D01*
X004025Y009787D01*
X004016Y009825D01*
X004003Y009862D01*
X003986Y009898D01*
X003966Y009931D01*
X003942Y009963D01*
X003916Y009992D01*
X003887Y010018D01*
X003855Y010042D01*
X003822Y010062D01*
X003786Y010079D01*
X003749Y010092D01*
X003711Y010101D01*
X003672Y010107D01*
X003633Y010109D01*
X003633Y009959D02*
X003663Y009957D01*
X003693Y009952D01*
X003722Y009943D01*
X003749Y009930D01*
X003775Y009915D01*
X003799Y009896D01*
X003820Y009875D01*
X003839Y009851D01*
X003854Y009825D01*
X003867Y009798D01*
X003876Y009769D01*
X003881Y009739D01*
X003883Y009709D01*
X004183Y011379D02*
X005083Y011379D01*
X005083Y012039D02*
X004183Y012039D01*
X003033Y013709D02*
X003035Y013756D01*
X003041Y013804D01*
X003050Y013850D01*
X003063Y013896D01*
X003079Y013940D01*
X003100Y013984D01*
X003123Y014025D01*
X003149Y014064D01*
X003179Y014101D01*
X003212Y014136D01*
X003247Y014168D01*
X003284Y014197D01*
X004233Y013709D02*
X004231Y013664D01*
X004226Y013618D01*
X004218Y013574D01*
X004206Y013530D01*
X004190Y013487D01*
X004172Y013445D01*
X004150Y013405D01*
X004126Y013367D01*
X004099Y013331D01*
X004069Y013296D01*
X004036Y013265D01*
X004001Y013235D01*
X004032Y013261D02*
X003994Y013230D01*
X003954Y013202D01*
X003912Y013178D01*
X003869Y013157D01*
X003823Y013140D01*
X003777Y013127D01*
X003729Y013117D01*
X003681Y013111D01*
X003633Y013109D01*
X004233Y013709D02*
X004231Y013754D01*
X004226Y013800D01*
X004218Y013844D01*
X004206Y013888D01*
X004190Y013931D01*
X004172Y013973D01*
X004150Y014013D01*
X004126Y014051D01*
X004099Y014087D01*
X004069Y014122D01*
X004036Y014153D01*
X004001Y014183D01*
X003633Y014309D02*
X003586Y014307D01*
X003539Y014302D01*
X003493Y014292D01*
X003447Y014279D01*
X003403Y014263D01*
X003360Y014243D01*
X003319Y014220D01*
X003280Y014194D01*
X003243Y014165D01*
X003633Y014309D02*
X003679Y014307D01*
X003725Y014302D01*
X003771Y014293D01*
X003815Y014281D01*
X003859Y014265D01*
X003901Y014246D01*
X003942Y014224D01*
X003980Y014198D01*
X004017Y014170D01*
X003633Y014109D02*
X003672Y014107D01*
X003711Y014101D01*
X003749Y014092D01*
X003786Y014079D01*
X003822Y014062D01*
X003855Y014042D01*
X003887Y014018D01*
X003916Y013992D01*
X003942Y013963D01*
X003966Y013931D01*
X003986Y013898D01*
X004003Y013862D01*
X004016Y013825D01*
X004025Y013787D01*
X004031Y013748D01*
X004033Y013709D01*
X003633Y013109D02*
X003587Y013111D01*
X003541Y013116D01*
X003495Y013125D01*
X003451Y013137D01*
X003407Y013153D01*
X003365Y013172D01*
X003324Y013194D01*
X003286Y013220D01*
X003249Y013248D01*
X003883Y013709D02*
X003881Y013739D01*
X003876Y013769D01*
X003867Y013798D01*
X003854Y013825D01*
X003839Y013851D01*
X003820Y013875D01*
X003799Y013896D01*
X003775Y013915D01*
X003749Y013930D01*
X003722Y013943D01*
X003693Y013952D01*
X003663Y013957D01*
X003633Y013959D01*
X003233Y013709D02*
X003235Y013670D01*
X003241Y013631D01*
X003250Y013593D01*
X003263Y013556D01*
X003280Y013520D01*
X003300Y013487D01*
X003324Y013455D01*
X003350Y013426D01*
X003379Y013400D01*
X003411Y013376D01*
X003444Y013356D01*
X003480Y013339D01*
X003517Y013326D01*
X003555Y013317D01*
X003594Y013311D01*
X003633Y013309D01*
X003633Y013459D02*
X003603Y013461D01*
X003573Y013466D01*
X003544Y013475D01*
X003517Y013488D01*
X003491Y013503D01*
X003467Y013522D01*
X003446Y013543D01*
X003427Y013567D01*
X003412Y013593D01*
X003399Y013620D01*
X003390Y013649D01*
X003385Y013679D01*
X003383Y013709D01*
X003033Y013709D02*
X003035Y013663D01*
X003040Y013617D01*
X003049Y013571D01*
X003061Y013526D01*
X003077Y013483D01*
X003096Y013441D01*
X003119Y013400D01*
X003144Y013361D01*
X003172Y013325D01*
X003203Y013290D01*
X003237Y013258D01*
X003273Y013229D01*
X003033Y016209D02*
X003035Y016254D01*
X003040Y016300D01*
X003048Y016344D01*
X003060Y016388D01*
X003076Y016431D01*
X003094Y016473D01*
X003116Y016513D01*
X003140Y016551D01*
X003167Y016587D01*
X003197Y016622D01*
X003230Y016653D01*
X003265Y016683D01*
X003234Y016657D02*
X003272Y016688D01*
X003312Y016716D01*
X003354Y016740D01*
X003397Y016761D01*
X003443Y016778D01*
X003489Y016791D01*
X003537Y016801D01*
X003585Y016807D01*
X003633Y016809D01*
X004233Y016209D02*
X004231Y016162D01*
X004225Y016114D01*
X004216Y016068D01*
X004203Y016022D01*
X004187Y015978D01*
X004166Y015934D01*
X004143Y015893D01*
X004117Y015854D01*
X004087Y015817D01*
X004054Y015782D01*
X004019Y015750D01*
X003982Y015721D01*
X003633Y015609D02*
X003587Y015611D01*
X003541Y015616D01*
X003495Y015625D01*
X003451Y015637D01*
X003407Y015653D01*
X003365Y015672D01*
X003324Y015694D01*
X003286Y015720D01*
X003249Y015748D01*
X003633Y015609D02*
X003680Y015611D01*
X003727Y015616D01*
X003773Y015626D01*
X003819Y015639D01*
X003863Y015655D01*
X003906Y015675D01*
X003947Y015698D01*
X003986Y015724D01*
X004023Y015753D01*
X003633Y015809D02*
X003594Y015811D01*
X003555Y015817D01*
X003517Y015826D01*
X003480Y015839D01*
X003444Y015856D01*
X003411Y015876D01*
X003379Y015900D01*
X003350Y015926D01*
X003324Y015955D01*
X003300Y015987D01*
X003280Y016020D01*
X003263Y016056D01*
X003250Y016093D01*
X003241Y016131D01*
X003235Y016170D01*
X003233Y016209D01*
X003633Y016809D02*
X003679Y016807D01*
X003725Y016802D01*
X003771Y016793D01*
X003815Y016781D01*
X003859Y016765D01*
X003901Y016746D01*
X003942Y016724D01*
X003980Y016698D01*
X004017Y016670D01*
X003033Y016209D02*
X003035Y016164D01*
X003040Y016118D01*
X003048Y016074D01*
X003060Y016030D01*
X003076Y015987D01*
X003094Y015945D01*
X003116Y015905D01*
X003140Y015867D01*
X003167Y015831D01*
X003197Y015796D01*
X003230Y015765D01*
X003265Y015735D01*
X004233Y016209D02*
X004231Y016255D01*
X004226Y016301D01*
X004217Y016347D01*
X004205Y016392D01*
X004189Y016435D01*
X004170Y016477D01*
X004147Y016518D01*
X004122Y016557D01*
X004094Y016593D01*
X004063Y016628D01*
X004029Y016660D01*
X003993Y016689D01*
X003383Y016209D02*
X003385Y016179D01*
X003390Y016149D01*
X003399Y016120D01*
X003412Y016093D01*
X003427Y016067D01*
X003446Y016043D01*
X003467Y016022D01*
X003491Y016003D01*
X003517Y015988D01*
X003544Y015975D01*
X003573Y015966D01*
X003603Y015961D01*
X003633Y015959D01*
X004033Y016209D02*
X004031Y016248D01*
X004025Y016287D01*
X004016Y016325D01*
X004003Y016362D01*
X003986Y016398D01*
X003966Y016431D01*
X003942Y016463D01*
X003916Y016492D01*
X003887Y016518D01*
X003855Y016542D01*
X003822Y016562D01*
X003786Y016579D01*
X003749Y016592D01*
X003711Y016601D01*
X003672Y016607D01*
X003633Y016609D01*
X003633Y016459D02*
X003663Y016457D01*
X003693Y016452D01*
X003722Y016443D01*
X003749Y016430D01*
X003775Y016415D01*
X003799Y016396D01*
X003820Y016375D01*
X003839Y016351D01*
X003854Y016325D01*
X003867Y016298D01*
X003876Y016269D01*
X003881Y016239D01*
X003883Y016209D01*
X004183Y017879D02*
X005083Y017879D01*
X005083Y018539D02*
X004183Y018539D01*
X003033Y020209D02*
X003035Y020256D01*
X003041Y020304D01*
X003050Y020350D01*
X003063Y020396D01*
X003079Y020440D01*
X003100Y020484D01*
X003123Y020525D01*
X003149Y020564D01*
X003179Y020601D01*
X003212Y020636D01*
X003247Y020668D01*
X003284Y020697D01*
X004233Y020209D02*
X004231Y020164D01*
X004226Y020118D01*
X004218Y020074D01*
X004206Y020030D01*
X004190Y019987D01*
X004172Y019945D01*
X004150Y019905D01*
X004126Y019867D01*
X004099Y019831D01*
X004069Y019796D01*
X004036Y019765D01*
X004001Y019735D01*
X004032Y019761D02*
X003994Y019730D01*
X003954Y019702D01*
X003912Y019678D01*
X003869Y019657D01*
X003823Y019640D01*
X003777Y019627D01*
X003729Y019617D01*
X003681Y019611D01*
X003633Y019609D01*
X004233Y020209D02*
X004231Y020254D01*
X004226Y020300D01*
X004218Y020344D01*
X004206Y020388D01*
X004190Y020431D01*
X004172Y020473D01*
X004150Y020513D01*
X004126Y020551D01*
X004099Y020587D01*
X004069Y020622D01*
X004036Y020653D01*
X004001Y020683D01*
X003633Y020809D02*
X003586Y020807D01*
X003539Y020802D01*
X003493Y020792D01*
X003447Y020779D01*
X003403Y020763D01*
X003360Y020743D01*
X003319Y020720D01*
X003280Y020694D01*
X003243Y020665D01*
X003633Y020809D02*
X003679Y020807D01*
X003725Y020802D01*
X003771Y020793D01*
X003815Y020781D01*
X003859Y020765D01*
X003901Y020746D01*
X003942Y020724D01*
X003980Y020698D01*
X004017Y020670D01*
X003633Y020609D02*
X003672Y020607D01*
X003711Y020601D01*
X003749Y020592D01*
X003786Y020579D01*
X003822Y020562D01*
X003855Y020542D01*
X003887Y020518D01*
X003916Y020492D01*
X003942Y020463D01*
X003966Y020431D01*
X003986Y020398D01*
X004003Y020362D01*
X004016Y020325D01*
X004025Y020287D01*
X004031Y020248D01*
X004033Y020209D01*
X003633Y019609D02*
X003587Y019611D01*
X003541Y019616D01*
X003495Y019625D01*
X003451Y019637D01*
X003407Y019653D01*
X003365Y019672D01*
X003324Y019694D01*
X003286Y019720D01*
X003249Y019748D01*
X003883Y020209D02*
X003881Y020239D01*
X003876Y020269D01*
X003867Y020298D01*
X003854Y020325D01*
X003839Y020351D01*
X003820Y020375D01*
X003799Y020396D01*
X003775Y020415D01*
X003749Y020430D01*
X003722Y020443D01*
X003693Y020452D01*
X003663Y020457D01*
X003633Y020459D01*
X003233Y020209D02*
X003235Y020170D01*
X003241Y020131D01*
X003250Y020093D01*
X003263Y020056D01*
X003280Y020020D01*
X003300Y019987D01*
X003324Y019955D01*
X003350Y019926D01*
X003379Y019900D01*
X003411Y019876D01*
X003444Y019856D01*
X003480Y019839D01*
X003517Y019826D01*
X003555Y019817D01*
X003594Y019811D01*
X003633Y019809D01*
X003633Y019959D02*
X003603Y019961D01*
X003573Y019966D01*
X003544Y019975D01*
X003517Y019988D01*
X003491Y020003D01*
X003467Y020022D01*
X003446Y020043D01*
X003427Y020067D01*
X003412Y020093D01*
X003399Y020120D01*
X003390Y020149D01*
X003385Y020179D01*
X003383Y020209D01*
X003033Y020209D02*
X003035Y020163D01*
X003040Y020117D01*
X003049Y020071D01*
X003061Y020026D01*
X003077Y019983D01*
X003096Y019941D01*
X003119Y019900D01*
X003144Y019861D01*
X003172Y019825D01*
X003203Y019790D01*
X003237Y019758D01*
X003273Y019729D01*
X007001Y020683D02*
X007036Y020653D01*
X007069Y020622D01*
X007099Y020587D01*
X007126Y020551D01*
X007150Y020513D01*
X007172Y020473D01*
X007190Y020431D01*
X007206Y020388D01*
X007218Y020344D01*
X007226Y020300D01*
X007231Y020254D01*
X007233Y020209D01*
X007032Y019761D02*
X006994Y019730D01*
X006954Y019702D01*
X006912Y019678D01*
X006869Y019657D01*
X006823Y019640D01*
X006777Y019627D01*
X006729Y019617D01*
X006681Y019611D01*
X006633Y019609D01*
X006033Y020209D02*
X006035Y020256D01*
X006041Y020304D01*
X006050Y020350D01*
X006063Y020396D01*
X006079Y020440D01*
X006100Y020484D01*
X006123Y020525D01*
X006149Y020564D01*
X006179Y020601D01*
X006212Y020636D01*
X006247Y020668D01*
X006284Y020697D01*
X007233Y020209D02*
X007231Y020164D01*
X007226Y020118D01*
X007218Y020074D01*
X007206Y020030D01*
X007190Y019987D01*
X007172Y019945D01*
X007150Y019905D01*
X007126Y019867D01*
X007099Y019831D01*
X007069Y019796D01*
X007036Y019765D01*
X007001Y019735D01*
X006633Y020809D02*
X006586Y020807D01*
X006539Y020802D01*
X006493Y020792D01*
X006447Y020779D01*
X006403Y020763D01*
X006360Y020743D01*
X006319Y020720D01*
X006280Y020694D01*
X006243Y020665D01*
X006633Y020809D02*
X006679Y020807D01*
X006725Y020802D01*
X006771Y020793D01*
X006815Y020781D01*
X006859Y020765D01*
X006901Y020746D01*
X006942Y020724D01*
X006980Y020698D01*
X007017Y020670D01*
X006633Y020609D02*
X006672Y020607D01*
X006711Y020601D01*
X006749Y020592D01*
X006786Y020579D01*
X006822Y020562D01*
X006855Y020542D01*
X006887Y020518D01*
X006916Y020492D01*
X006942Y020463D01*
X006966Y020431D01*
X006986Y020398D01*
X007003Y020362D01*
X007016Y020325D01*
X007025Y020287D01*
X007031Y020248D01*
X007033Y020209D01*
X006633Y019609D02*
X006587Y019611D01*
X006541Y019616D01*
X006495Y019625D01*
X006451Y019637D01*
X006407Y019653D01*
X006365Y019672D01*
X006324Y019694D01*
X006286Y019720D01*
X006249Y019748D01*
X006883Y020209D02*
X006881Y020239D01*
X006876Y020269D01*
X006867Y020298D01*
X006854Y020325D01*
X006839Y020351D01*
X006820Y020375D01*
X006799Y020396D01*
X006775Y020415D01*
X006749Y020430D01*
X006722Y020443D01*
X006693Y020452D01*
X006663Y020457D01*
X006633Y020459D01*
X006233Y020209D02*
X006235Y020170D01*
X006241Y020131D01*
X006250Y020093D01*
X006263Y020056D01*
X006280Y020020D01*
X006300Y019987D01*
X006324Y019955D01*
X006350Y019926D01*
X006379Y019900D01*
X006411Y019876D01*
X006444Y019856D01*
X006480Y019839D01*
X006517Y019826D01*
X006555Y019817D01*
X006594Y019811D01*
X006633Y019809D01*
X006633Y019959D02*
X006603Y019961D01*
X006573Y019966D01*
X006544Y019975D01*
X006517Y019988D01*
X006491Y020003D01*
X006467Y020022D01*
X006446Y020043D01*
X006427Y020067D01*
X006412Y020093D01*
X006399Y020120D01*
X006390Y020149D01*
X006385Y020179D01*
X006383Y020209D01*
X006033Y020209D02*
X006035Y020163D01*
X006040Y020117D01*
X006049Y020071D01*
X006061Y020026D01*
X006077Y019983D01*
X006096Y019941D01*
X006119Y019900D01*
X006144Y019861D01*
X006172Y019825D01*
X006203Y019790D01*
X006237Y019758D01*
X006273Y019729D01*
X006683Y018539D02*
X007583Y018539D01*
X007583Y017879D02*
X006683Y017879D01*
X007233Y016209D02*
X007231Y016162D01*
X007225Y016114D01*
X007216Y016068D01*
X007203Y016022D01*
X007187Y015978D01*
X007166Y015934D01*
X007143Y015893D01*
X007117Y015854D01*
X007087Y015817D01*
X007054Y015782D01*
X007019Y015750D01*
X006982Y015721D01*
X006033Y016209D02*
X006035Y016254D01*
X006040Y016300D01*
X006048Y016344D01*
X006060Y016388D01*
X006076Y016431D01*
X006094Y016473D01*
X006116Y016513D01*
X006140Y016551D01*
X006167Y016587D01*
X006197Y016622D01*
X006230Y016653D01*
X006265Y016683D01*
X006234Y016657D02*
X006272Y016688D01*
X006312Y016716D01*
X006354Y016740D01*
X006397Y016761D01*
X006443Y016778D01*
X006489Y016791D01*
X006537Y016801D01*
X006585Y016807D01*
X006633Y016809D01*
X006033Y016209D02*
X006035Y016164D01*
X006040Y016118D01*
X006048Y016074D01*
X006060Y016030D01*
X006076Y015987D01*
X006094Y015945D01*
X006116Y015905D01*
X006140Y015867D01*
X006167Y015831D01*
X006197Y015796D01*
X006230Y015765D01*
X006265Y015735D01*
X006633Y015609D02*
X006680Y015611D01*
X006727Y015616D01*
X006773Y015626D01*
X006819Y015639D01*
X006863Y015655D01*
X006906Y015675D01*
X006947Y015698D01*
X006986Y015724D01*
X007023Y015753D01*
X006633Y015609D02*
X006587Y015611D01*
X006541Y015616D01*
X006495Y015625D01*
X006451Y015637D01*
X006407Y015653D01*
X006365Y015672D01*
X006324Y015694D01*
X006286Y015720D01*
X006249Y015748D01*
X007233Y016209D02*
X007231Y016255D01*
X007226Y016301D01*
X007217Y016347D01*
X007205Y016392D01*
X007189Y016435D01*
X007170Y016477D01*
X007147Y016518D01*
X007122Y016557D01*
X007094Y016593D01*
X007063Y016628D01*
X007029Y016660D01*
X006993Y016689D01*
X006233Y016209D02*
X006235Y016170D01*
X006241Y016131D01*
X006250Y016093D01*
X006263Y016056D01*
X006280Y016020D01*
X006300Y015987D01*
X006324Y015955D01*
X006350Y015926D01*
X006379Y015900D01*
X006411Y015876D01*
X006444Y015856D01*
X006480Y015839D01*
X006517Y015826D01*
X006555Y015817D01*
X006594Y015811D01*
X006633Y015809D01*
X006633Y015959D02*
X006603Y015961D01*
X006573Y015966D01*
X006544Y015975D01*
X006517Y015988D01*
X006491Y016003D01*
X006467Y016022D01*
X006446Y016043D01*
X006427Y016067D01*
X006412Y016093D01*
X006399Y016120D01*
X006390Y016149D01*
X006385Y016179D01*
X006383Y016209D01*
X006633Y016809D02*
X006679Y016807D01*
X006725Y016802D01*
X006771Y016793D01*
X006815Y016781D01*
X006859Y016765D01*
X006901Y016746D01*
X006942Y016724D01*
X006980Y016698D01*
X007017Y016670D01*
X006633Y016609D02*
X006672Y016607D01*
X006711Y016601D01*
X006749Y016592D01*
X006786Y016579D01*
X006822Y016562D01*
X006855Y016542D01*
X006887Y016518D01*
X006916Y016492D01*
X006942Y016463D01*
X006966Y016431D01*
X006986Y016398D01*
X007003Y016362D01*
X007016Y016325D01*
X007025Y016287D01*
X007031Y016248D01*
X007033Y016209D01*
X006883Y016209D02*
X006881Y016239D01*
X006876Y016269D01*
X006867Y016298D01*
X006854Y016325D01*
X006839Y016351D01*
X006820Y016375D01*
X006799Y016396D01*
X006775Y016415D01*
X006749Y016430D01*
X006722Y016443D01*
X006693Y016452D01*
X006663Y016457D01*
X006633Y016459D01*
X007233Y013709D02*
X007231Y013664D01*
X007226Y013618D01*
X007218Y013574D01*
X007206Y013530D01*
X007190Y013487D01*
X007172Y013445D01*
X007150Y013405D01*
X007126Y013367D01*
X007099Y013331D01*
X007069Y013296D01*
X007036Y013265D01*
X007001Y013235D01*
X007032Y013261D02*
X006994Y013230D01*
X006954Y013202D01*
X006912Y013178D01*
X006869Y013157D01*
X006823Y013140D01*
X006777Y013127D01*
X006729Y013117D01*
X006681Y013111D01*
X006633Y013109D01*
X006033Y013709D02*
X006035Y013756D01*
X006041Y013804D01*
X006050Y013850D01*
X006063Y013896D01*
X006079Y013940D01*
X006100Y013984D01*
X006123Y014025D01*
X006149Y014064D01*
X006179Y014101D01*
X006212Y014136D01*
X006247Y014168D01*
X006284Y014197D01*
X006633Y014309D02*
X006679Y014307D01*
X006725Y014302D01*
X006771Y014293D01*
X006815Y014281D01*
X006859Y014265D01*
X006901Y014246D01*
X006942Y014224D01*
X006980Y014198D01*
X007017Y014170D01*
X006633Y014309D02*
X006586Y014307D01*
X006539Y014302D01*
X006493Y014292D01*
X006447Y014279D01*
X006403Y014263D01*
X006360Y014243D01*
X006319Y014220D01*
X006280Y014194D01*
X006243Y014165D01*
X006633Y014109D02*
X006672Y014107D01*
X006711Y014101D01*
X006749Y014092D01*
X006786Y014079D01*
X006822Y014062D01*
X006855Y014042D01*
X006887Y014018D01*
X006916Y013992D01*
X006942Y013963D01*
X006966Y013931D01*
X006986Y013898D01*
X007003Y013862D01*
X007016Y013825D01*
X007025Y013787D01*
X007031Y013748D01*
X007033Y013709D01*
X006633Y013109D02*
X006587Y013111D01*
X006541Y013116D01*
X006495Y013125D01*
X006451Y013137D01*
X006407Y013153D01*
X006365Y013172D01*
X006324Y013194D01*
X006286Y013220D01*
X006249Y013248D01*
X007233Y013709D02*
X007231Y013754D01*
X007226Y013800D01*
X007218Y013844D01*
X007206Y013888D01*
X007190Y013931D01*
X007172Y013973D01*
X007150Y014013D01*
X007126Y014051D01*
X007099Y014087D01*
X007069Y014122D01*
X007036Y014153D01*
X007001Y014183D01*
X006633Y013959D02*
X006663Y013957D01*
X006693Y013952D01*
X006722Y013943D01*
X006749Y013930D01*
X006775Y013915D01*
X006799Y013896D01*
X006820Y013875D01*
X006839Y013851D01*
X006854Y013825D01*
X006867Y013798D01*
X006876Y013769D01*
X006881Y013739D01*
X006883Y013709D01*
X006633Y013309D02*
X006594Y013311D01*
X006555Y013317D01*
X006517Y013326D01*
X006480Y013339D01*
X006444Y013356D01*
X006411Y013376D01*
X006379Y013400D01*
X006350Y013426D01*
X006324Y013455D01*
X006300Y013487D01*
X006280Y013520D01*
X006263Y013556D01*
X006250Y013593D01*
X006241Y013631D01*
X006235Y013670D01*
X006233Y013709D01*
X006383Y013709D02*
X006385Y013679D01*
X006390Y013649D01*
X006399Y013620D01*
X006412Y013593D01*
X006427Y013567D01*
X006446Y013543D01*
X006467Y013522D01*
X006491Y013503D01*
X006517Y013488D01*
X006544Y013475D01*
X006573Y013466D01*
X006603Y013461D01*
X006633Y013459D01*
X006273Y013229D02*
X006237Y013258D01*
X006203Y013290D01*
X006172Y013325D01*
X006144Y013361D01*
X006119Y013400D01*
X006096Y013441D01*
X006077Y013483D01*
X006061Y013526D01*
X006049Y013571D01*
X006040Y013617D01*
X006035Y013663D01*
X006033Y013709D01*
X006683Y012039D02*
X007583Y012039D01*
X007583Y011379D02*
X006683Y011379D01*
X007233Y009709D02*
X007231Y009662D01*
X007225Y009614D01*
X007216Y009568D01*
X007203Y009522D01*
X007187Y009478D01*
X007166Y009434D01*
X007143Y009393D01*
X007117Y009354D01*
X007087Y009317D01*
X007054Y009282D01*
X007019Y009250D01*
X006982Y009221D01*
X006033Y009709D02*
X006035Y009754D01*
X006040Y009800D01*
X006048Y009844D01*
X006060Y009888D01*
X006076Y009931D01*
X006094Y009973D01*
X006116Y010013D01*
X006140Y010051D01*
X006167Y010087D01*
X006197Y010122D01*
X006230Y010153D01*
X006265Y010183D01*
X006234Y010157D02*
X006272Y010188D01*
X006312Y010216D01*
X006354Y010240D01*
X006397Y010261D01*
X006443Y010278D01*
X006489Y010291D01*
X006537Y010301D01*
X006585Y010307D01*
X006633Y010309D01*
X006033Y009709D02*
X006035Y009664D01*
X006040Y009618D01*
X006048Y009574D01*
X006060Y009530D01*
X006076Y009487D01*
X006094Y009445D01*
X006116Y009405D01*
X006140Y009367D01*
X006167Y009331D01*
X006197Y009296D01*
X006230Y009265D01*
X006265Y009235D01*
X006633Y009109D02*
X006680Y009111D01*
X006727Y009116D01*
X006773Y009126D01*
X006819Y009139D01*
X006863Y009155D01*
X006906Y009175D01*
X006947Y009198D01*
X006986Y009224D01*
X007023Y009253D01*
X006633Y009109D02*
X006587Y009111D01*
X006541Y009116D01*
X006495Y009125D01*
X006451Y009137D01*
X006407Y009153D01*
X006365Y009172D01*
X006324Y009194D01*
X006286Y009220D01*
X006249Y009248D01*
X007233Y009709D02*
X007231Y009755D01*
X007226Y009801D01*
X007217Y009847D01*
X007205Y009892D01*
X007189Y009935D01*
X007170Y009977D01*
X007147Y010018D01*
X007122Y010057D01*
X007094Y010093D01*
X007063Y010128D01*
X007029Y010160D01*
X006993Y010189D01*
X006233Y009709D02*
X006235Y009670D01*
X006241Y009631D01*
X006250Y009593D01*
X006263Y009556D01*
X006280Y009520D01*
X006300Y009487D01*
X006324Y009455D01*
X006350Y009426D01*
X006379Y009400D01*
X006411Y009376D01*
X006444Y009356D01*
X006480Y009339D01*
X006517Y009326D01*
X006555Y009317D01*
X006594Y009311D01*
X006633Y009309D01*
X006633Y009459D02*
X006603Y009461D01*
X006573Y009466D01*
X006544Y009475D01*
X006517Y009488D01*
X006491Y009503D01*
X006467Y009522D01*
X006446Y009543D01*
X006427Y009567D01*
X006412Y009593D01*
X006399Y009620D01*
X006390Y009649D01*
X006385Y009679D01*
X006383Y009709D01*
X006633Y010309D02*
X006679Y010307D01*
X006725Y010302D01*
X006771Y010293D01*
X006815Y010281D01*
X006859Y010265D01*
X006901Y010246D01*
X006942Y010224D01*
X006980Y010198D01*
X007017Y010170D01*
X006633Y010109D02*
X006672Y010107D01*
X006711Y010101D01*
X006749Y010092D01*
X006786Y010079D01*
X006822Y010062D01*
X006855Y010042D01*
X006887Y010018D01*
X006916Y009992D01*
X006942Y009963D01*
X006966Y009931D01*
X006986Y009898D01*
X007003Y009862D01*
X007016Y009825D01*
X007025Y009787D01*
X007031Y009748D01*
X007033Y009709D01*
X006883Y009709D02*
X006881Y009739D01*
X006876Y009769D01*
X006867Y009798D01*
X006854Y009825D01*
X006839Y009851D01*
X006820Y009875D01*
X006799Y009896D01*
X006775Y009915D01*
X006749Y009930D01*
X006722Y009943D01*
X006693Y009952D01*
X006663Y009957D01*
X006633Y009959D01*
X007233Y007209D02*
X007231Y007164D01*
X007226Y007118D01*
X007218Y007074D01*
X007206Y007030D01*
X007190Y006987D01*
X007172Y006945D01*
X007150Y006905D01*
X007126Y006867D01*
X007099Y006831D01*
X007069Y006796D01*
X007036Y006765D01*
X007001Y006735D01*
X007032Y006761D02*
X006994Y006730D01*
X006954Y006702D01*
X006912Y006678D01*
X006869Y006657D01*
X006823Y006640D01*
X006777Y006627D01*
X006729Y006617D01*
X006681Y006611D01*
X006633Y006609D01*
X006033Y007209D02*
X006035Y007256D01*
X006041Y007304D01*
X006050Y007350D01*
X006063Y007396D01*
X006079Y007440D01*
X006100Y007484D01*
X006123Y007525D01*
X006149Y007564D01*
X006179Y007601D01*
X006212Y007636D01*
X006247Y007668D01*
X006284Y007697D01*
X006633Y007809D02*
X006679Y007807D01*
X006725Y007802D01*
X006771Y007793D01*
X006815Y007781D01*
X006859Y007765D01*
X006901Y007746D01*
X006942Y007724D01*
X006980Y007698D01*
X007017Y007670D01*
X006633Y007809D02*
X006586Y007807D01*
X006539Y007802D01*
X006493Y007792D01*
X006447Y007779D01*
X006403Y007763D01*
X006360Y007743D01*
X006319Y007720D01*
X006280Y007694D01*
X006243Y007665D01*
X006633Y007609D02*
X006672Y007607D01*
X006711Y007601D01*
X006749Y007592D01*
X006786Y007579D01*
X006822Y007562D01*
X006855Y007542D01*
X006887Y007518D01*
X006916Y007492D01*
X006942Y007463D01*
X006966Y007431D01*
X006986Y007398D01*
X007003Y007362D01*
X007016Y007325D01*
X007025Y007287D01*
X007031Y007248D01*
X007033Y007209D01*
X006633Y006609D02*
X006587Y006611D01*
X006541Y006616D01*
X006495Y006625D01*
X006451Y006637D01*
X006407Y006653D01*
X006365Y006672D01*
X006324Y006694D01*
X006286Y006720D01*
X006249Y006748D01*
X007233Y007209D02*
X007231Y007254D01*
X007226Y007300D01*
X007218Y007344D01*
X007206Y007388D01*
X007190Y007431D01*
X007172Y007473D01*
X007150Y007513D01*
X007126Y007551D01*
X007099Y007587D01*
X007069Y007622D01*
X007036Y007653D01*
X007001Y007683D01*
X006633Y007459D02*
X006663Y007457D01*
X006693Y007452D01*
X006722Y007443D01*
X006749Y007430D01*
X006775Y007415D01*
X006799Y007396D01*
X006820Y007375D01*
X006839Y007351D01*
X006854Y007325D01*
X006867Y007298D01*
X006876Y007269D01*
X006881Y007239D01*
X006883Y007209D01*
X006633Y006809D02*
X006594Y006811D01*
X006555Y006817D01*
X006517Y006826D01*
X006480Y006839D01*
X006444Y006856D01*
X006411Y006876D01*
X006379Y006900D01*
X006350Y006926D01*
X006324Y006955D01*
X006300Y006987D01*
X006280Y007020D01*
X006263Y007056D01*
X006250Y007093D01*
X006241Y007131D01*
X006235Y007170D01*
X006233Y007209D01*
X006383Y007209D02*
X006385Y007179D01*
X006390Y007149D01*
X006399Y007120D01*
X006412Y007093D01*
X006427Y007067D01*
X006446Y007043D01*
X006467Y007022D01*
X006491Y007003D01*
X006517Y006988D01*
X006544Y006975D01*
X006573Y006966D01*
X006603Y006961D01*
X006633Y006959D01*
X006273Y006729D02*
X006237Y006758D01*
X006203Y006790D01*
X006172Y006825D01*
X006144Y006861D01*
X006119Y006900D01*
X006096Y006941D01*
X006077Y006983D01*
X006061Y007026D01*
X006049Y007071D01*
X006040Y007117D01*
X006035Y007163D01*
X006033Y007209D01*
X006683Y005539D02*
X007583Y005539D01*
X007583Y004879D02*
X006683Y004879D01*
X007233Y003209D02*
X007231Y003162D01*
X007225Y003114D01*
X007216Y003068D01*
X007203Y003022D01*
X007187Y002978D01*
X007166Y002934D01*
X007143Y002893D01*
X007117Y002854D01*
X007087Y002817D01*
X007054Y002782D01*
X007019Y002750D01*
X006982Y002721D01*
X006033Y003209D02*
X006035Y003254D01*
X006040Y003300D01*
X006048Y003344D01*
X006060Y003388D01*
X006076Y003431D01*
X006094Y003473D01*
X006116Y003513D01*
X006140Y003551D01*
X006167Y003587D01*
X006197Y003622D01*
X006230Y003653D01*
X006265Y003683D01*
X006234Y003657D02*
X006272Y003688D01*
X006312Y003716D01*
X006354Y003740D01*
X006397Y003761D01*
X006443Y003778D01*
X006489Y003791D01*
X006537Y003801D01*
X006585Y003807D01*
X006633Y003809D01*
X006033Y003209D02*
X006035Y003164D01*
X006040Y003118D01*
X006048Y003074D01*
X006060Y003030D01*
X006076Y002987D01*
X006094Y002945D01*
X006116Y002905D01*
X006140Y002867D01*
X006167Y002831D01*
X006197Y002796D01*
X006230Y002765D01*
X006265Y002735D01*
X006633Y002609D02*
X006680Y002611D01*
X006727Y002616D01*
X006773Y002626D01*
X006819Y002639D01*
X006863Y002655D01*
X006906Y002675D01*
X006947Y002698D01*
X006986Y002724D01*
X007023Y002753D01*
X006633Y002609D02*
X006587Y002611D01*
X006541Y002616D01*
X006495Y002625D01*
X006451Y002637D01*
X006407Y002653D01*
X006365Y002672D01*
X006324Y002694D01*
X006286Y002720D01*
X006249Y002748D01*
X007233Y003209D02*
X007231Y003255D01*
X007226Y003301D01*
X007217Y003347D01*
X007205Y003392D01*
X007189Y003435D01*
X007170Y003477D01*
X007147Y003518D01*
X007122Y003557D01*
X007094Y003593D01*
X007063Y003628D01*
X007029Y003660D01*
X006993Y003689D01*
X006233Y003209D02*
X006235Y003170D01*
X006241Y003131D01*
X006250Y003093D01*
X006263Y003056D01*
X006280Y003020D01*
X006300Y002987D01*
X006324Y002955D01*
X006350Y002926D01*
X006379Y002900D01*
X006411Y002876D01*
X006444Y002856D01*
X006480Y002839D01*
X006517Y002826D01*
X006555Y002817D01*
X006594Y002811D01*
X006633Y002809D01*
X006633Y002959D02*
X006603Y002961D01*
X006573Y002966D01*
X006544Y002975D01*
X006517Y002988D01*
X006491Y003003D01*
X006467Y003022D01*
X006446Y003043D01*
X006427Y003067D01*
X006412Y003093D01*
X006399Y003120D01*
X006390Y003149D01*
X006385Y003179D01*
X006383Y003209D01*
X006633Y003809D02*
X006679Y003807D01*
X006725Y003802D01*
X006771Y003793D01*
X006815Y003781D01*
X006859Y003765D01*
X006901Y003746D01*
X006942Y003724D01*
X006980Y003698D01*
X007017Y003670D01*
X006633Y003609D02*
X006672Y003607D01*
X006711Y003601D01*
X006749Y003592D01*
X006786Y003579D01*
X006822Y003562D01*
X006855Y003542D01*
X006887Y003518D01*
X006916Y003492D01*
X006942Y003463D01*
X006966Y003431D01*
X006986Y003398D01*
X007003Y003362D01*
X007016Y003325D01*
X007025Y003287D01*
X007031Y003248D01*
X007033Y003209D01*
X006883Y003209D02*
X006881Y003239D01*
X006876Y003269D01*
X006867Y003298D01*
X006854Y003325D01*
X006839Y003351D01*
X006820Y003375D01*
X006799Y003396D01*
X006775Y003415D01*
X006749Y003430D01*
X006722Y003443D01*
X006693Y003452D01*
X006663Y003457D01*
X006633Y003459D01*
X009183Y004879D02*
X010083Y004879D01*
X010083Y005539D02*
X009183Y005539D01*
X009033Y007209D02*
X009035Y007256D01*
X009041Y007304D01*
X009050Y007350D01*
X009063Y007396D01*
X009079Y007440D01*
X009100Y007484D01*
X009123Y007525D01*
X009149Y007564D01*
X009179Y007601D01*
X009212Y007636D01*
X009247Y007668D01*
X009284Y007697D01*
X010233Y007209D02*
X010231Y007164D01*
X010226Y007118D01*
X010218Y007074D01*
X010206Y007030D01*
X010190Y006987D01*
X010172Y006945D01*
X010150Y006905D01*
X010126Y006867D01*
X010099Y006831D01*
X010069Y006796D01*
X010036Y006765D01*
X010001Y006735D01*
X010032Y006761D02*
X009994Y006730D01*
X009954Y006702D01*
X009912Y006678D01*
X009869Y006657D01*
X009823Y006640D01*
X009777Y006627D01*
X009729Y006617D01*
X009681Y006611D01*
X009633Y006609D01*
X010233Y007209D02*
X010231Y007254D01*
X010226Y007300D01*
X010218Y007344D01*
X010206Y007388D01*
X010190Y007431D01*
X010172Y007473D01*
X010150Y007513D01*
X010126Y007551D01*
X010099Y007587D01*
X010069Y007622D01*
X010036Y007653D01*
X010001Y007683D01*
X009633Y007809D02*
X009586Y007807D01*
X009539Y007802D01*
X009493Y007792D01*
X009447Y007779D01*
X009403Y007763D01*
X009360Y007743D01*
X009319Y007720D01*
X009280Y007694D01*
X009243Y007665D01*
X009633Y007809D02*
X009679Y007807D01*
X009725Y007802D01*
X009771Y007793D01*
X009815Y007781D01*
X009859Y007765D01*
X009901Y007746D01*
X009942Y007724D01*
X009980Y007698D01*
X010017Y007670D01*
X009633Y007609D02*
X009672Y007607D01*
X009711Y007601D01*
X009749Y007592D01*
X009786Y007579D01*
X009822Y007562D01*
X009855Y007542D01*
X009887Y007518D01*
X009916Y007492D01*
X009942Y007463D01*
X009966Y007431D01*
X009986Y007398D01*
X010003Y007362D01*
X010016Y007325D01*
X010025Y007287D01*
X010031Y007248D01*
X010033Y007209D01*
X009633Y006609D02*
X009587Y006611D01*
X009541Y006616D01*
X009495Y006625D01*
X009451Y006637D01*
X009407Y006653D01*
X009365Y006672D01*
X009324Y006694D01*
X009286Y006720D01*
X009249Y006748D01*
X009883Y007209D02*
X009881Y007239D01*
X009876Y007269D01*
X009867Y007298D01*
X009854Y007325D01*
X009839Y007351D01*
X009820Y007375D01*
X009799Y007396D01*
X009775Y007415D01*
X009749Y007430D01*
X009722Y007443D01*
X009693Y007452D01*
X009663Y007457D01*
X009633Y007459D01*
X009233Y007209D02*
X009235Y007170D01*
X009241Y007131D01*
X009250Y007093D01*
X009263Y007056D01*
X009280Y007020D01*
X009300Y006987D01*
X009324Y006955D01*
X009350Y006926D01*
X009379Y006900D01*
X009411Y006876D01*
X009444Y006856D01*
X009480Y006839D01*
X009517Y006826D01*
X009555Y006817D01*
X009594Y006811D01*
X009633Y006809D01*
X009633Y006959D02*
X009603Y006961D01*
X009573Y006966D01*
X009544Y006975D01*
X009517Y006988D01*
X009491Y007003D01*
X009467Y007022D01*
X009446Y007043D01*
X009427Y007067D01*
X009412Y007093D01*
X009399Y007120D01*
X009390Y007149D01*
X009385Y007179D01*
X009383Y007209D01*
X009033Y007209D02*
X009035Y007163D01*
X009040Y007117D01*
X009049Y007071D01*
X009061Y007026D01*
X009077Y006983D01*
X009096Y006941D01*
X009119Y006900D01*
X009144Y006861D01*
X009172Y006825D01*
X009203Y006790D01*
X009237Y006758D01*
X009273Y006729D01*
X009033Y009709D02*
X009035Y009754D01*
X009040Y009800D01*
X009048Y009844D01*
X009060Y009888D01*
X009076Y009931D01*
X009094Y009973D01*
X009116Y010013D01*
X009140Y010051D01*
X009167Y010087D01*
X009197Y010122D01*
X009230Y010153D01*
X009265Y010183D01*
X009234Y010157D02*
X009272Y010188D01*
X009312Y010216D01*
X009354Y010240D01*
X009397Y010261D01*
X009443Y010278D01*
X009489Y010291D01*
X009537Y010301D01*
X009585Y010307D01*
X009633Y010309D01*
X010233Y009709D02*
X010231Y009662D01*
X010225Y009614D01*
X010216Y009568D01*
X010203Y009522D01*
X010187Y009478D01*
X010166Y009434D01*
X010143Y009393D01*
X010117Y009354D01*
X010087Y009317D01*
X010054Y009282D01*
X010019Y009250D01*
X009982Y009221D01*
X009633Y009109D02*
X009587Y009111D01*
X009541Y009116D01*
X009495Y009125D01*
X009451Y009137D01*
X009407Y009153D01*
X009365Y009172D01*
X009324Y009194D01*
X009286Y009220D01*
X009249Y009248D01*
X009633Y009109D02*
X009680Y009111D01*
X009727Y009116D01*
X009773Y009126D01*
X009819Y009139D01*
X009863Y009155D01*
X009906Y009175D01*
X009947Y009198D01*
X009986Y009224D01*
X010023Y009253D01*
X009633Y009309D02*
X009594Y009311D01*
X009555Y009317D01*
X009517Y009326D01*
X009480Y009339D01*
X009444Y009356D01*
X009411Y009376D01*
X009379Y009400D01*
X009350Y009426D01*
X009324Y009455D01*
X009300Y009487D01*
X009280Y009520D01*
X009263Y009556D01*
X009250Y009593D01*
X009241Y009631D01*
X009235Y009670D01*
X009233Y009709D01*
X009633Y010309D02*
X009679Y010307D01*
X009725Y010302D01*
X009771Y010293D01*
X009815Y010281D01*
X009859Y010265D01*
X009901Y010246D01*
X009942Y010224D01*
X009980Y010198D01*
X010017Y010170D01*
X009033Y009709D02*
X009035Y009664D01*
X009040Y009618D01*
X009048Y009574D01*
X009060Y009530D01*
X009076Y009487D01*
X009094Y009445D01*
X009116Y009405D01*
X009140Y009367D01*
X009167Y009331D01*
X009197Y009296D01*
X009230Y009265D01*
X009265Y009235D01*
X010233Y009709D02*
X010231Y009755D01*
X010226Y009801D01*
X010217Y009847D01*
X010205Y009892D01*
X010189Y009935D01*
X010170Y009977D01*
X010147Y010018D01*
X010122Y010057D01*
X010094Y010093D01*
X010063Y010128D01*
X010029Y010160D01*
X009993Y010189D01*
X009383Y009709D02*
X009385Y009679D01*
X009390Y009649D01*
X009399Y009620D01*
X009412Y009593D01*
X009427Y009567D01*
X009446Y009543D01*
X009467Y009522D01*
X009491Y009503D01*
X009517Y009488D01*
X009544Y009475D01*
X009573Y009466D01*
X009603Y009461D01*
X009633Y009459D01*
X010033Y009709D02*
X010031Y009748D01*
X010025Y009787D01*
X010016Y009825D01*
X010003Y009862D01*
X009986Y009898D01*
X009966Y009931D01*
X009942Y009963D01*
X009916Y009992D01*
X009887Y010018D01*
X009855Y010042D01*
X009822Y010062D01*
X009786Y010079D01*
X009749Y010092D01*
X009711Y010101D01*
X009672Y010107D01*
X009633Y010109D01*
X009633Y009959D02*
X009663Y009957D01*
X009693Y009952D01*
X009722Y009943D01*
X009749Y009930D01*
X009775Y009915D01*
X009799Y009896D01*
X009820Y009875D01*
X009839Y009851D01*
X009854Y009825D01*
X009867Y009798D01*
X009876Y009769D01*
X009881Y009739D01*
X009883Y009709D01*
X010083Y011379D02*
X009183Y011379D01*
X009183Y012039D02*
X010083Y012039D01*
X009033Y013709D02*
X009035Y013756D01*
X009041Y013804D01*
X009050Y013850D01*
X009063Y013896D01*
X009079Y013940D01*
X009100Y013984D01*
X009123Y014025D01*
X009149Y014064D01*
X009179Y014101D01*
X009212Y014136D01*
X009247Y014168D01*
X009284Y014197D01*
X010233Y013709D02*
X010231Y013664D01*
X010226Y013618D01*
X010218Y013574D01*
X010206Y013530D01*
X010190Y013487D01*
X010172Y013445D01*
X010150Y013405D01*
X010126Y013367D01*
X010099Y013331D01*
X010069Y013296D01*
X010036Y013265D01*
X010001Y013235D01*
X010032Y013261D02*
X009994Y013230D01*
X009954Y013202D01*
X009912Y013178D01*
X009869Y013157D01*
X009823Y013140D01*
X009777Y013127D01*
X009729Y013117D01*
X009681Y013111D01*
X009633Y013109D01*
X010233Y013709D02*
X010231Y013754D01*
X010226Y013800D01*
X010218Y013844D01*
X010206Y013888D01*
X010190Y013931D01*
X010172Y013973D01*
X010150Y014013D01*
X010126Y014051D01*
X010099Y014087D01*
X010069Y014122D01*
X010036Y014153D01*
X010001Y014183D01*
X009633Y014309D02*
X009586Y014307D01*
X009539Y014302D01*
X009493Y014292D01*
X009447Y014279D01*
X009403Y014263D01*
X009360Y014243D01*
X009319Y014220D01*
X009280Y014194D01*
X009243Y014165D01*
X009633Y014309D02*
X009679Y014307D01*
X009725Y014302D01*
X009771Y014293D01*
X009815Y014281D01*
X009859Y014265D01*
X009901Y014246D01*
X009942Y014224D01*
X009980Y014198D01*
X010017Y014170D01*
X009633Y014109D02*
X009672Y014107D01*
X009711Y014101D01*
X009749Y014092D01*
X009786Y014079D01*
X009822Y014062D01*
X009855Y014042D01*
X009887Y014018D01*
X009916Y013992D01*
X009942Y013963D01*
X009966Y013931D01*
X009986Y013898D01*
X010003Y013862D01*
X010016Y013825D01*
X010025Y013787D01*
X010031Y013748D01*
X010033Y013709D01*
X009633Y013109D02*
X009587Y013111D01*
X009541Y013116D01*
X009495Y013125D01*
X009451Y013137D01*
X009407Y013153D01*
X009365Y013172D01*
X009324Y013194D01*
X009286Y013220D01*
X009249Y013248D01*
X009883Y013709D02*
X009881Y013739D01*
X009876Y013769D01*
X009867Y013798D01*
X009854Y013825D01*
X009839Y013851D01*
X009820Y013875D01*
X009799Y013896D01*
X009775Y013915D01*
X009749Y013930D01*
X009722Y013943D01*
X009693Y013952D01*
X009663Y013957D01*
X009633Y013959D01*
X009233Y013709D02*
X009235Y013670D01*
X009241Y013631D01*
X009250Y013593D01*
X009263Y013556D01*
X009280Y013520D01*
X009300Y013487D01*
X009324Y013455D01*
X009350Y013426D01*
X009379Y013400D01*
X009411Y013376D01*
X009444Y013356D01*
X009480Y013339D01*
X009517Y013326D01*
X009555Y013317D01*
X009594Y013311D01*
X009633Y013309D01*
X009633Y013459D02*
X009603Y013461D01*
X009573Y013466D01*
X009544Y013475D01*
X009517Y013488D01*
X009491Y013503D01*
X009467Y013522D01*
X009446Y013543D01*
X009427Y013567D01*
X009412Y013593D01*
X009399Y013620D01*
X009390Y013649D01*
X009385Y013679D01*
X009383Y013709D01*
X009033Y013709D02*
X009035Y013663D01*
X009040Y013617D01*
X009049Y013571D01*
X009061Y013526D01*
X009077Y013483D01*
X009096Y013441D01*
X009119Y013400D01*
X009144Y013361D01*
X009172Y013325D01*
X009203Y013290D01*
X009237Y013258D01*
X009273Y013229D01*
X009033Y016209D02*
X009035Y016254D01*
X009040Y016300D01*
X009048Y016344D01*
X009060Y016388D01*
X009076Y016431D01*
X009094Y016473D01*
X009116Y016513D01*
X009140Y016551D01*
X009167Y016587D01*
X009197Y016622D01*
X009230Y016653D01*
X009265Y016683D01*
X009234Y016657D02*
X009272Y016688D01*
X009312Y016716D01*
X009354Y016740D01*
X009397Y016761D01*
X009443Y016778D01*
X009489Y016791D01*
X009537Y016801D01*
X009585Y016807D01*
X009633Y016809D01*
X010233Y016209D02*
X010231Y016162D01*
X010225Y016114D01*
X010216Y016068D01*
X010203Y016022D01*
X010187Y015978D01*
X010166Y015934D01*
X010143Y015893D01*
X010117Y015854D01*
X010087Y015817D01*
X010054Y015782D01*
X010019Y015750D01*
X009982Y015721D01*
X009633Y015609D02*
X009587Y015611D01*
X009541Y015616D01*
X009495Y015625D01*
X009451Y015637D01*
X009407Y015653D01*
X009365Y015672D01*
X009324Y015694D01*
X009286Y015720D01*
X009249Y015748D01*
X009633Y015609D02*
X009680Y015611D01*
X009727Y015616D01*
X009773Y015626D01*
X009819Y015639D01*
X009863Y015655D01*
X009906Y015675D01*
X009947Y015698D01*
X009986Y015724D01*
X010023Y015753D01*
X009633Y015809D02*
X009594Y015811D01*
X009555Y015817D01*
X009517Y015826D01*
X009480Y015839D01*
X009444Y015856D01*
X009411Y015876D01*
X009379Y015900D01*
X009350Y015926D01*
X009324Y015955D01*
X009300Y015987D01*
X009280Y016020D01*
X009263Y016056D01*
X009250Y016093D01*
X009241Y016131D01*
X009235Y016170D01*
X009233Y016209D01*
X009633Y016809D02*
X009679Y016807D01*
X009725Y016802D01*
X009771Y016793D01*
X009815Y016781D01*
X009859Y016765D01*
X009901Y016746D01*
X009942Y016724D01*
X009980Y016698D01*
X010017Y016670D01*
X009033Y016209D02*
X009035Y016164D01*
X009040Y016118D01*
X009048Y016074D01*
X009060Y016030D01*
X009076Y015987D01*
X009094Y015945D01*
X009116Y015905D01*
X009140Y015867D01*
X009167Y015831D01*
X009197Y015796D01*
X009230Y015765D01*
X009265Y015735D01*
X010233Y016209D02*
X010231Y016255D01*
X010226Y016301D01*
X010217Y016347D01*
X010205Y016392D01*
X010189Y016435D01*
X010170Y016477D01*
X010147Y016518D01*
X010122Y016557D01*
X010094Y016593D01*
X010063Y016628D01*
X010029Y016660D01*
X009993Y016689D01*
X009383Y016209D02*
X009385Y016179D01*
X009390Y016149D01*
X009399Y016120D01*
X009412Y016093D01*
X009427Y016067D01*
X009446Y016043D01*
X009467Y016022D01*
X009491Y016003D01*
X009517Y015988D01*
X009544Y015975D01*
X009573Y015966D01*
X009603Y015961D01*
X009633Y015959D01*
X010033Y016209D02*
X010031Y016248D01*
X010025Y016287D01*
X010016Y016325D01*
X010003Y016362D01*
X009986Y016398D01*
X009966Y016431D01*
X009942Y016463D01*
X009916Y016492D01*
X009887Y016518D01*
X009855Y016542D01*
X009822Y016562D01*
X009786Y016579D01*
X009749Y016592D01*
X009711Y016601D01*
X009672Y016607D01*
X009633Y016609D01*
X009633Y016459D02*
X009663Y016457D01*
X009693Y016452D01*
X009722Y016443D01*
X009749Y016430D01*
X009775Y016415D01*
X009799Y016396D01*
X009820Y016375D01*
X009839Y016351D01*
X009854Y016325D01*
X009867Y016298D01*
X009876Y016269D01*
X009881Y016239D01*
X009883Y016209D01*
X010083Y017879D02*
X009183Y017879D01*
X009183Y018539D02*
X010083Y018539D01*
X009033Y020209D02*
X009035Y020256D01*
X009041Y020304D01*
X009050Y020350D01*
X009063Y020396D01*
X009079Y020440D01*
X009100Y020484D01*
X009123Y020525D01*
X009149Y020564D01*
X009179Y020601D01*
X009212Y020636D01*
X009247Y020668D01*
X009284Y020697D01*
X010233Y020209D02*
X010231Y020164D01*
X010226Y020118D01*
X010218Y020074D01*
X010206Y020030D01*
X010190Y019987D01*
X010172Y019945D01*
X010150Y019905D01*
X010126Y019867D01*
X010099Y019831D01*
X010069Y019796D01*
X010036Y019765D01*
X010001Y019735D01*
X010032Y019761D02*
X009994Y019730D01*
X009954Y019702D01*
X009912Y019678D01*
X009869Y019657D01*
X009823Y019640D01*
X009777Y019627D01*
X009729Y019617D01*
X009681Y019611D01*
X009633Y019609D01*
X010233Y020209D02*
X010231Y020254D01*
X010226Y020300D01*
X010218Y020344D01*
X010206Y020388D01*
X010190Y020431D01*
X010172Y020473D01*
X010150Y020513D01*
X010126Y020551D01*
X010099Y020587D01*
X010069Y020622D01*
X010036Y020653D01*
X010001Y020683D01*
X009633Y020809D02*
X009586Y020807D01*
X009539Y020802D01*
X009493Y020792D01*
X009447Y020779D01*
X009403Y020763D01*
X009360Y020743D01*
X009319Y020720D01*
X009280Y020694D01*
X009243Y020665D01*
X009633Y020809D02*
X009679Y020807D01*
X009725Y020802D01*
X009771Y020793D01*
X009815Y020781D01*
X009859Y020765D01*
X009901Y020746D01*
X009942Y020724D01*
X009980Y020698D01*
X010017Y020670D01*
X009633Y020609D02*
X009672Y020607D01*
X009711Y020601D01*
X009749Y020592D01*
X009786Y020579D01*
X009822Y020562D01*
X009855Y020542D01*
X009887Y020518D01*
X009916Y020492D01*
X009942Y020463D01*
X009966Y020431D01*
X009986Y020398D01*
X010003Y020362D01*
X010016Y020325D01*
X010025Y020287D01*
X010031Y020248D01*
X010033Y020209D01*
X009633Y019609D02*
X009587Y019611D01*
X009541Y019616D01*
X009495Y019625D01*
X009451Y019637D01*
X009407Y019653D01*
X009365Y019672D01*
X009324Y019694D01*
X009286Y019720D01*
X009249Y019748D01*
X009883Y020209D02*
X009881Y020239D01*
X009876Y020269D01*
X009867Y020298D01*
X009854Y020325D01*
X009839Y020351D01*
X009820Y020375D01*
X009799Y020396D01*
X009775Y020415D01*
X009749Y020430D01*
X009722Y020443D01*
X009693Y020452D01*
X009663Y020457D01*
X009633Y020459D01*
X009233Y020209D02*
X009235Y020170D01*
X009241Y020131D01*
X009250Y020093D01*
X009263Y020056D01*
X009280Y020020D01*
X009300Y019987D01*
X009324Y019955D01*
X009350Y019926D01*
X009379Y019900D01*
X009411Y019876D01*
X009444Y019856D01*
X009480Y019839D01*
X009517Y019826D01*
X009555Y019817D01*
X009594Y019811D01*
X009633Y019809D01*
X009633Y019959D02*
X009603Y019961D01*
X009573Y019966D01*
X009544Y019975D01*
X009517Y019988D01*
X009491Y020003D01*
X009467Y020022D01*
X009446Y020043D01*
X009427Y020067D01*
X009412Y020093D01*
X009399Y020120D01*
X009390Y020149D01*
X009385Y020179D01*
X009383Y020209D01*
X009033Y020209D02*
X009035Y020163D01*
X009040Y020117D01*
X009049Y020071D01*
X009061Y020026D01*
X009077Y019983D01*
X009096Y019941D01*
X009119Y019900D01*
X009144Y019861D01*
X009172Y019825D01*
X009203Y019790D01*
X009237Y019758D01*
X009273Y019729D01*
X012183Y018539D02*
X013083Y018539D01*
X013083Y017879D02*
X012183Y017879D01*
X013233Y016209D02*
X013231Y016162D01*
X013225Y016114D01*
X013216Y016068D01*
X013203Y016022D01*
X013187Y015978D01*
X013166Y015934D01*
X013143Y015893D01*
X013117Y015854D01*
X013087Y015817D01*
X013054Y015782D01*
X013019Y015750D01*
X012982Y015721D01*
X012033Y016209D02*
X012035Y016254D01*
X012040Y016300D01*
X012048Y016344D01*
X012060Y016388D01*
X012076Y016431D01*
X012094Y016473D01*
X012116Y016513D01*
X012140Y016551D01*
X012167Y016587D01*
X012197Y016622D01*
X012230Y016653D01*
X012265Y016683D01*
X012234Y016657D02*
X012272Y016688D01*
X012312Y016716D01*
X012354Y016740D01*
X012397Y016761D01*
X012443Y016778D01*
X012489Y016791D01*
X012537Y016801D01*
X012585Y016807D01*
X012633Y016809D01*
X012033Y016209D02*
X012035Y016164D01*
X012040Y016118D01*
X012048Y016074D01*
X012060Y016030D01*
X012076Y015987D01*
X012094Y015945D01*
X012116Y015905D01*
X012140Y015867D01*
X012167Y015831D01*
X012197Y015796D01*
X012230Y015765D01*
X012265Y015735D01*
X012633Y015609D02*
X012680Y015611D01*
X012727Y015616D01*
X012773Y015626D01*
X012819Y015639D01*
X012863Y015655D01*
X012906Y015675D01*
X012947Y015698D01*
X012986Y015724D01*
X013023Y015753D01*
X012633Y015609D02*
X012587Y015611D01*
X012541Y015616D01*
X012495Y015625D01*
X012451Y015637D01*
X012407Y015653D01*
X012365Y015672D01*
X012324Y015694D01*
X012286Y015720D01*
X012249Y015748D01*
X013233Y016209D02*
X013231Y016255D01*
X013226Y016301D01*
X013217Y016347D01*
X013205Y016392D01*
X013189Y016435D01*
X013170Y016477D01*
X013147Y016518D01*
X013122Y016557D01*
X013094Y016593D01*
X013063Y016628D01*
X013029Y016660D01*
X012993Y016689D01*
X012233Y016209D02*
X012235Y016170D01*
X012241Y016131D01*
X012250Y016093D01*
X012263Y016056D01*
X012280Y016020D01*
X012300Y015987D01*
X012324Y015955D01*
X012350Y015926D01*
X012379Y015900D01*
X012411Y015876D01*
X012444Y015856D01*
X012480Y015839D01*
X012517Y015826D01*
X012555Y015817D01*
X012594Y015811D01*
X012633Y015809D01*
X012633Y015959D02*
X012603Y015961D01*
X012573Y015966D01*
X012544Y015975D01*
X012517Y015988D01*
X012491Y016003D01*
X012467Y016022D01*
X012446Y016043D01*
X012427Y016067D01*
X012412Y016093D01*
X012399Y016120D01*
X012390Y016149D01*
X012385Y016179D01*
X012383Y016209D01*
X012633Y016809D02*
X012679Y016807D01*
X012725Y016802D01*
X012771Y016793D01*
X012815Y016781D01*
X012859Y016765D01*
X012901Y016746D01*
X012942Y016724D01*
X012980Y016698D01*
X013017Y016670D01*
X012633Y016609D02*
X012672Y016607D01*
X012711Y016601D01*
X012749Y016592D01*
X012786Y016579D01*
X012822Y016562D01*
X012855Y016542D01*
X012887Y016518D01*
X012916Y016492D01*
X012942Y016463D01*
X012966Y016431D01*
X012986Y016398D01*
X013003Y016362D01*
X013016Y016325D01*
X013025Y016287D01*
X013031Y016248D01*
X013033Y016209D01*
X012883Y016209D02*
X012881Y016239D01*
X012876Y016269D01*
X012867Y016298D01*
X012854Y016325D01*
X012839Y016351D01*
X012820Y016375D01*
X012799Y016396D01*
X012775Y016415D01*
X012749Y016430D01*
X012722Y016443D01*
X012693Y016452D01*
X012663Y016457D01*
X012633Y016459D01*
X013233Y013709D02*
X013231Y013664D01*
X013226Y013618D01*
X013218Y013574D01*
X013206Y013530D01*
X013190Y013487D01*
X013172Y013445D01*
X013150Y013405D01*
X013126Y013367D01*
X013099Y013331D01*
X013069Y013296D01*
X013036Y013265D01*
X013001Y013235D01*
X013032Y013261D02*
X012994Y013230D01*
X012954Y013202D01*
X012912Y013178D01*
X012869Y013157D01*
X012823Y013140D01*
X012777Y013127D01*
X012729Y013117D01*
X012681Y013111D01*
X012633Y013109D01*
X012033Y013709D02*
X012035Y013756D01*
X012041Y013804D01*
X012050Y013850D01*
X012063Y013896D01*
X012079Y013940D01*
X012100Y013984D01*
X012123Y014025D01*
X012149Y014064D01*
X012179Y014101D01*
X012212Y014136D01*
X012247Y014168D01*
X012284Y014197D01*
X012633Y014309D02*
X012679Y014307D01*
X012725Y014302D01*
X012771Y014293D01*
X012815Y014281D01*
X012859Y014265D01*
X012901Y014246D01*
X012942Y014224D01*
X012980Y014198D01*
X013017Y014170D01*
X012633Y014309D02*
X012586Y014307D01*
X012539Y014302D01*
X012493Y014292D01*
X012447Y014279D01*
X012403Y014263D01*
X012360Y014243D01*
X012319Y014220D01*
X012280Y014194D01*
X012243Y014165D01*
X012633Y014109D02*
X012672Y014107D01*
X012711Y014101D01*
X012749Y014092D01*
X012786Y014079D01*
X012822Y014062D01*
X012855Y014042D01*
X012887Y014018D01*
X012916Y013992D01*
X012942Y013963D01*
X012966Y013931D01*
X012986Y013898D01*
X013003Y013862D01*
X013016Y013825D01*
X013025Y013787D01*
X013031Y013748D01*
X013033Y013709D01*
X012633Y013109D02*
X012587Y013111D01*
X012541Y013116D01*
X012495Y013125D01*
X012451Y013137D01*
X012407Y013153D01*
X012365Y013172D01*
X012324Y013194D01*
X012286Y013220D01*
X012249Y013248D01*
X013233Y013709D02*
X013231Y013754D01*
X013226Y013800D01*
X013218Y013844D01*
X013206Y013888D01*
X013190Y013931D01*
X013172Y013973D01*
X013150Y014013D01*
X013126Y014051D01*
X013099Y014087D01*
X013069Y014122D01*
X013036Y014153D01*
X013001Y014183D01*
X012633Y013959D02*
X012663Y013957D01*
X012693Y013952D01*
X012722Y013943D01*
X012749Y013930D01*
X012775Y013915D01*
X012799Y013896D01*
X012820Y013875D01*
X012839Y013851D01*
X012854Y013825D01*
X012867Y013798D01*
X012876Y013769D01*
X012881Y013739D01*
X012883Y013709D01*
X012633Y013309D02*
X012594Y013311D01*
X012555Y013317D01*
X012517Y013326D01*
X012480Y013339D01*
X012444Y013356D01*
X012411Y013376D01*
X012379Y013400D01*
X012350Y013426D01*
X012324Y013455D01*
X012300Y013487D01*
X012280Y013520D01*
X012263Y013556D01*
X012250Y013593D01*
X012241Y013631D01*
X012235Y013670D01*
X012233Y013709D01*
X012383Y013709D02*
X012385Y013679D01*
X012390Y013649D01*
X012399Y013620D01*
X012412Y013593D01*
X012427Y013567D01*
X012446Y013543D01*
X012467Y013522D01*
X012491Y013503D01*
X012517Y013488D01*
X012544Y013475D01*
X012573Y013466D01*
X012603Y013461D01*
X012633Y013459D01*
X012273Y013229D02*
X012237Y013258D01*
X012203Y013290D01*
X012172Y013325D01*
X012144Y013361D01*
X012119Y013400D01*
X012096Y013441D01*
X012077Y013483D01*
X012061Y013526D01*
X012049Y013571D01*
X012040Y013617D01*
X012035Y013663D01*
X012033Y013709D01*
X012183Y012039D02*
X013083Y012039D01*
X013083Y011379D02*
X012183Y011379D01*
X013233Y009709D02*
X013231Y009662D01*
X013225Y009614D01*
X013216Y009568D01*
X013203Y009522D01*
X013187Y009478D01*
X013166Y009434D01*
X013143Y009393D01*
X013117Y009354D01*
X013087Y009317D01*
X013054Y009282D01*
X013019Y009250D01*
X012982Y009221D01*
X012033Y009709D02*
X012035Y009754D01*
X012040Y009800D01*
X012048Y009844D01*
X012060Y009888D01*
X012076Y009931D01*
X012094Y009973D01*
X012116Y010013D01*
X012140Y010051D01*
X012167Y010087D01*
X012197Y010122D01*
X012230Y010153D01*
X012265Y010183D01*
X012234Y010157D02*
X012272Y010188D01*
X012312Y010216D01*
X012354Y010240D01*
X012397Y010261D01*
X012443Y010278D01*
X012489Y010291D01*
X012537Y010301D01*
X012585Y010307D01*
X012633Y010309D01*
X012033Y009709D02*
X012035Y009664D01*
X012040Y009618D01*
X012048Y009574D01*
X012060Y009530D01*
X012076Y009487D01*
X012094Y009445D01*
X012116Y009405D01*
X012140Y009367D01*
X012167Y009331D01*
X012197Y009296D01*
X012230Y009265D01*
X012265Y009235D01*
X012633Y009109D02*
X012680Y009111D01*
X012727Y009116D01*
X012773Y009126D01*
X012819Y009139D01*
X012863Y009155D01*
X012906Y009175D01*
X012947Y009198D01*
X012986Y009224D01*
X013023Y009253D01*
X012633Y009109D02*
X012587Y009111D01*
X012541Y009116D01*
X012495Y009125D01*
X012451Y009137D01*
X012407Y009153D01*
X012365Y009172D01*
X012324Y009194D01*
X012286Y009220D01*
X012249Y009248D01*
X013233Y009709D02*
X013231Y009755D01*
X013226Y009801D01*
X013217Y009847D01*
X013205Y009892D01*
X013189Y009935D01*
X013170Y009977D01*
X013147Y010018D01*
X013122Y010057D01*
X013094Y010093D01*
X013063Y010128D01*
X013029Y010160D01*
X012993Y010189D01*
X012233Y009709D02*
X012235Y009670D01*
X012241Y009631D01*
X012250Y009593D01*
X012263Y009556D01*
X012280Y009520D01*
X012300Y009487D01*
X012324Y009455D01*
X012350Y009426D01*
X012379Y009400D01*
X012411Y009376D01*
X012444Y009356D01*
X012480Y009339D01*
X012517Y009326D01*
X012555Y009317D01*
X012594Y009311D01*
X012633Y009309D01*
X012633Y009459D02*
X012603Y009461D01*
X012573Y009466D01*
X012544Y009475D01*
X012517Y009488D01*
X012491Y009503D01*
X012467Y009522D01*
X012446Y009543D01*
X012427Y009567D01*
X012412Y009593D01*
X012399Y009620D01*
X012390Y009649D01*
X012385Y009679D01*
X012383Y009709D01*
X012633Y010309D02*
X012679Y010307D01*
X012725Y010302D01*
X012771Y010293D01*
X012815Y010281D01*
X012859Y010265D01*
X012901Y010246D01*
X012942Y010224D01*
X012980Y010198D01*
X013017Y010170D01*
X012633Y010109D02*
X012672Y010107D01*
X012711Y010101D01*
X012749Y010092D01*
X012786Y010079D01*
X012822Y010062D01*
X012855Y010042D01*
X012887Y010018D01*
X012916Y009992D01*
X012942Y009963D01*
X012966Y009931D01*
X012986Y009898D01*
X013003Y009862D01*
X013016Y009825D01*
X013025Y009787D01*
X013031Y009748D01*
X013033Y009709D01*
X012883Y009709D02*
X012881Y009739D01*
X012876Y009769D01*
X012867Y009798D01*
X012854Y009825D01*
X012839Y009851D01*
X012820Y009875D01*
X012799Y009896D01*
X012775Y009915D01*
X012749Y009930D01*
X012722Y009943D01*
X012693Y009952D01*
X012663Y009957D01*
X012633Y009959D01*
X013233Y007209D02*
X013231Y007164D01*
X013226Y007118D01*
X013218Y007074D01*
X013206Y007030D01*
X013190Y006987D01*
X013172Y006945D01*
X013150Y006905D01*
X013126Y006867D01*
X013099Y006831D01*
X013069Y006796D01*
X013036Y006765D01*
X013001Y006735D01*
X013032Y006761D02*
X012994Y006730D01*
X012954Y006702D01*
X012912Y006678D01*
X012869Y006657D01*
X012823Y006640D01*
X012777Y006627D01*
X012729Y006617D01*
X012681Y006611D01*
X012633Y006609D01*
X012033Y007209D02*
X012035Y007256D01*
X012041Y007304D01*
X012050Y007350D01*
X012063Y007396D01*
X012079Y007440D01*
X012100Y007484D01*
X012123Y007525D01*
X012149Y007564D01*
X012179Y007601D01*
X012212Y007636D01*
X012247Y007668D01*
X012284Y007697D01*
X012633Y007809D02*
X012679Y007807D01*
X012725Y007802D01*
X012771Y007793D01*
X012815Y007781D01*
X012859Y007765D01*
X012901Y007746D01*
X012942Y007724D01*
X012980Y007698D01*
X013017Y007670D01*
X012633Y007809D02*
X012586Y007807D01*
X012539Y007802D01*
X012493Y007792D01*
X012447Y007779D01*
X012403Y007763D01*
X012360Y007743D01*
X012319Y007720D01*
X012280Y007694D01*
X012243Y007665D01*
X012633Y007609D02*
X012672Y007607D01*
X012711Y007601D01*
X012749Y007592D01*
X012786Y007579D01*
X012822Y007562D01*
X012855Y007542D01*
X012887Y007518D01*
X012916Y007492D01*
X012942Y007463D01*
X012966Y007431D01*
X012986Y007398D01*
X013003Y007362D01*
X013016Y007325D01*
X013025Y007287D01*
X013031Y007248D01*
X013033Y007209D01*
X012633Y006609D02*
X012587Y006611D01*
X012541Y006616D01*
X012495Y006625D01*
X012451Y006637D01*
X012407Y006653D01*
X012365Y006672D01*
X012324Y006694D01*
X012286Y006720D01*
X012249Y006748D01*
X013233Y007209D02*
X013231Y007254D01*
X013226Y007300D01*
X013218Y007344D01*
X013206Y007388D01*
X013190Y007431D01*
X013172Y007473D01*
X013150Y007513D01*
X013126Y007551D01*
X013099Y007587D01*
X013069Y007622D01*
X013036Y007653D01*
X013001Y007683D01*
X012633Y007459D02*
X012663Y007457D01*
X012693Y007452D01*
X012722Y007443D01*
X012749Y007430D01*
X012775Y007415D01*
X012799Y007396D01*
X012820Y007375D01*
X012839Y007351D01*
X012854Y007325D01*
X012867Y007298D01*
X012876Y007269D01*
X012881Y007239D01*
X012883Y007209D01*
X012633Y006809D02*
X012594Y006811D01*
X012555Y006817D01*
X012517Y006826D01*
X012480Y006839D01*
X012444Y006856D01*
X012411Y006876D01*
X012379Y006900D01*
X012350Y006926D01*
X012324Y006955D01*
X012300Y006987D01*
X012280Y007020D01*
X012263Y007056D01*
X012250Y007093D01*
X012241Y007131D01*
X012235Y007170D01*
X012233Y007209D01*
X012383Y007209D02*
X012385Y007179D01*
X012390Y007149D01*
X012399Y007120D01*
X012412Y007093D01*
X012427Y007067D01*
X012446Y007043D01*
X012467Y007022D01*
X012491Y007003D01*
X012517Y006988D01*
X012544Y006975D01*
X012573Y006966D01*
X012603Y006961D01*
X012633Y006959D01*
X012273Y006729D02*
X012237Y006758D01*
X012203Y006790D01*
X012172Y006825D01*
X012144Y006861D01*
X012119Y006900D01*
X012096Y006941D01*
X012077Y006983D01*
X012061Y007026D01*
X012049Y007071D01*
X012040Y007117D01*
X012035Y007163D01*
X012033Y007209D01*
X012183Y005539D02*
X013083Y005539D01*
X013083Y004879D02*
X012183Y004879D01*
X013233Y003209D02*
X013231Y003162D01*
X013225Y003114D01*
X013216Y003068D01*
X013203Y003022D01*
X013187Y002978D01*
X013166Y002934D01*
X013143Y002893D01*
X013117Y002854D01*
X013087Y002817D01*
X013054Y002782D01*
X013019Y002750D01*
X012982Y002721D01*
X012033Y003209D02*
X012035Y003254D01*
X012040Y003300D01*
X012048Y003344D01*
X012060Y003388D01*
X012076Y003431D01*
X012094Y003473D01*
X012116Y003513D01*
X012140Y003551D01*
X012167Y003587D01*
X012197Y003622D01*
X012230Y003653D01*
X012265Y003683D01*
X012234Y003657D02*
X012272Y003688D01*
X012312Y003716D01*
X012354Y003740D01*
X012397Y003761D01*
X012443Y003778D01*
X012489Y003791D01*
X012537Y003801D01*
X012585Y003807D01*
X012633Y003809D01*
X012033Y003209D02*
X012035Y003164D01*
X012040Y003118D01*
X012048Y003074D01*
X012060Y003030D01*
X012076Y002987D01*
X012094Y002945D01*
X012116Y002905D01*
X012140Y002867D01*
X012167Y002831D01*
X012197Y002796D01*
X012230Y002765D01*
X012265Y002735D01*
X012633Y002609D02*
X012680Y002611D01*
X012727Y002616D01*
X012773Y002626D01*
X012819Y002639D01*
X012863Y002655D01*
X012906Y002675D01*
X012947Y002698D01*
X012986Y002724D01*
X013023Y002753D01*
X012633Y002609D02*
X012587Y002611D01*
X012541Y002616D01*
X012495Y002625D01*
X012451Y002637D01*
X012407Y002653D01*
X012365Y002672D01*
X012324Y002694D01*
X012286Y002720D01*
X012249Y002748D01*
X013233Y003209D02*
X013231Y003255D01*
X013226Y003301D01*
X013217Y003347D01*
X013205Y003392D01*
X013189Y003435D01*
X013170Y003477D01*
X013147Y003518D01*
X013122Y003557D01*
X013094Y003593D01*
X013063Y003628D01*
X013029Y003660D01*
X012993Y003689D01*
X012233Y003209D02*
X012235Y003170D01*
X012241Y003131D01*
X012250Y003093D01*
X012263Y003056D01*
X012280Y003020D01*
X012300Y002987D01*
X012324Y002955D01*
X012350Y002926D01*
X012379Y002900D01*
X012411Y002876D01*
X012444Y002856D01*
X012480Y002839D01*
X012517Y002826D01*
X012555Y002817D01*
X012594Y002811D01*
X012633Y002809D01*
X012633Y002959D02*
X012603Y002961D01*
X012573Y002966D01*
X012544Y002975D01*
X012517Y002988D01*
X012491Y003003D01*
X012467Y003022D01*
X012446Y003043D01*
X012427Y003067D01*
X012412Y003093D01*
X012399Y003120D01*
X012390Y003149D01*
X012385Y003179D01*
X012383Y003209D01*
X012633Y003809D02*
X012679Y003807D01*
X012725Y003802D01*
X012771Y003793D01*
X012815Y003781D01*
X012859Y003765D01*
X012901Y003746D01*
X012942Y003724D01*
X012980Y003698D01*
X013017Y003670D01*
X012633Y003609D02*
X012672Y003607D01*
X012711Y003601D01*
X012749Y003592D01*
X012786Y003579D01*
X012822Y003562D01*
X012855Y003542D01*
X012887Y003518D01*
X012916Y003492D01*
X012942Y003463D01*
X012966Y003431D01*
X012986Y003398D01*
X013003Y003362D01*
X013016Y003325D01*
X013025Y003287D01*
X013031Y003248D01*
X013033Y003209D01*
X012883Y003209D02*
X012881Y003239D01*
X012876Y003269D01*
X012867Y003298D01*
X012854Y003325D01*
X012839Y003351D01*
X012820Y003375D01*
X012799Y003396D01*
X012775Y003415D01*
X012749Y003430D01*
X012722Y003443D01*
X012693Y003452D01*
X012663Y003457D01*
X012633Y003459D01*
X015183Y004879D02*
X016083Y004879D01*
X016083Y005539D02*
X015183Y005539D01*
X015033Y007209D02*
X015035Y007256D01*
X015041Y007304D01*
X015050Y007350D01*
X015063Y007396D01*
X015079Y007440D01*
X015100Y007484D01*
X015123Y007525D01*
X015149Y007564D01*
X015179Y007601D01*
X015212Y007636D01*
X015247Y007668D01*
X015284Y007697D01*
X016233Y007209D02*
X016231Y007164D01*
X016226Y007118D01*
X016218Y007074D01*
X016206Y007030D01*
X016190Y006987D01*
X016172Y006945D01*
X016150Y006905D01*
X016126Y006867D01*
X016099Y006831D01*
X016069Y006796D01*
X016036Y006765D01*
X016001Y006735D01*
X016032Y006761D02*
X015994Y006730D01*
X015954Y006702D01*
X015912Y006678D01*
X015869Y006657D01*
X015823Y006640D01*
X015777Y006627D01*
X015729Y006617D01*
X015681Y006611D01*
X015633Y006609D01*
X016233Y007209D02*
X016231Y007254D01*
X016226Y007300D01*
X016218Y007344D01*
X016206Y007388D01*
X016190Y007431D01*
X016172Y007473D01*
X016150Y007513D01*
X016126Y007551D01*
X016099Y007587D01*
X016069Y007622D01*
X016036Y007653D01*
X016001Y007683D01*
X015633Y007809D02*
X015586Y007807D01*
X015539Y007802D01*
X015493Y007792D01*
X015447Y007779D01*
X015403Y007763D01*
X015360Y007743D01*
X015319Y007720D01*
X015280Y007694D01*
X015243Y007665D01*
X015633Y007809D02*
X015679Y007807D01*
X015725Y007802D01*
X015771Y007793D01*
X015815Y007781D01*
X015859Y007765D01*
X015901Y007746D01*
X015942Y007724D01*
X015980Y007698D01*
X016017Y007670D01*
X015633Y007609D02*
X015672Y007607D01*
X015711Y007601D01*
X015749Y007592D01*
X015786Y007579D01*
X015822Y007562D01*
X015855Y007542D01*
X015887Y007518D01*
X015916Y007492D01*
X015942Y007463D01*
X015966Y007431D01*
X015986Y007398D01*
X016003Y007362D01*
X016016Y007325D01*
X016025Y007287D01*
X016031Y007248D01*
X016033Y007209D01*
X015633Y006609D02*
X015587Y006611D01*
X015541Y006616D01*
X015495Y006625D01*
X015451Y006637D01*
X015407Y006653D01*
X015365Y006672D01*
X015324Y006694D01*
X015286Y006720D01*
X015249Y006748D01*
X015883Y007209D02*
X015881Y007239D01*
X015876Y007269D01*
X015867Y007298D01*
X015854Y007325D01*
X015839Y007351D01*
X015820Y007375D01*
X015799Y007396D01*
X015775Y007415D01*
X015749Y007430D01*
X015722Y007443D01*
X015693Y007452D01*
X015663Y007457D01*
X015633Y007459D01*
X015233Y007209D02*
X015235Y007170D01*
X015241Y007131D01*
X015250Y007093D01*
X015263Y007056D01*
X015280Y007020D01*
X015300Y006987D01*
X015324Y006955D01*
X015350Y006926D01*
X015379Y006900D01*
X015411Y006876D01*
X015444Y006856D01*
X015480Y006839D01*
X015517Y006826D01*
X015555Y006817D01*
X015594Y006811D01*
X015633Y006809D01*
X015633Y006959D02*
X015603Y006961D01*
X015573Y006966D01*
X015544Y006975D01*
X015517Y006988D01*
X015491Y007003D01*
X015467Y007022D01*
X015446Y007043D01*
X015427Y007067D01*
X015412Y007093D01*
X015399Y007120D01*
X015390Y007149D01*
X015385Y007179D01*
X015383Y007209D01*
X015033Y007209D02*
X015035Y007163D01*
X015040Y007117D01*
X015049Y007071D01*
X015061Y007026D01*
X015077Y006983D01*
X015096Y006941D01*
X015119Y006900D01*
X015144Y006861D01*
X015172Y006825D01*
X015203Y006790D01*
X015237Y006758D01*
X015273Y006729D01*
X015033Y009709D02*
X015035Y009754D01*
X015040Y009800D01*
X015048Y009844D01*
X015060Y009888D01*
X015076Y009931D01*
X015094Y009973D01*
X015116Y010013D01*
X015140Y010051D01*
X015167Y010087D01*
X015197Y010122D01*
X015230Y010153D01*
X015265Y010183D01*
X015234Y010157D02*
X015272Y010188D01*
X015312Y010216D01*
X015354Y010240D01*
X015397Y010261D01*
X015443Y010278D01*
X015489Y010291D01*
X015537Y010301D01*
X015585Y010307D01*
X015633Y010309D01*
X016233Y009709D02*
X016231Y009662D01*
X016225Y009614D01*
X016216Y009568D01*
X016203Y009522D01*
X016187Y009478D01*
X016166Y009434D01*
X016143Y009393D01*
X016117Y009354D01*
X016087Y009317D01*
X016054Y009282D01*
X016019Y009250D01*
X015982Y009221D01*
X015633Y009109D02*
X015587Y009111D01*
X015541Y009116D01*
X015495Y009125D01*
X015451Y009137D01*
X015407Y009153D01*
X015365Y009172D01*
X015324Y009194D01*
X015286Y009220D01*
X015249Y009248D01*
X015633Y009109D02*
X015680Y009111D01*
X015727Y009116D01*
X015773Y009126D01*
X015819Y009139D01*
X015863Y009155D01*
X015906Y009175D01*
X015947Y009198D01*
X015986Y009224D01*
X016023Y009253D01*
X015633Y009309D02*
X015594Y009311D01*
X015555Y009317D01*
X015517Y009326D01*
X015480Y009339D01*
X015444Y009356D01*
X015411Y009376D01*
X015379Y009400D01*
X015350Y009426D01*
X015324Y009455D01*
X015300Y009487D01*
X015280Y009520D01*
X015263Y009556D01*
X015250Y009593D01*
X015241Y009631D01*
X015235Y009670D01*
X015233Y009709D01*
X015633Y010309D02*
X015679Y010307D01*
X015725Y010302D01*
X015771Y010293D01*
X015815Y010281D01*
X015859Y010265D01*
X015901Y010246D01*
X015942Y010224D01*
X015980Y010198D01*
X016017Y010170D01*
X015033Y009709D02*
X015035Y009664D01*
X015040Y009618D01*
X015048Y009574D01*
X015060Y009530D01*
X015076Y009487D01*
X015094Y009445D01*
X015116Y009405D01*
X015140Y009367D01*
X015167Y009331D01*
X015197Y009296D01*
X015230Y009265D01*
X015265Y009235D01*
X016233Y009709D02*
X016231Y009755D01*
X016226Y009801D01*
X016217Y009847D01*
X016205Y009892D01*
X016189Y009935D01*
X016170Y009977D01*
X016147Y010018D01*
X016122Y010057D01*
X016094Y010093D01*
X016063Y010128D01*
X016029Y010160D01*
X015993Y010189D01*
X015383Y009709D02*
X015385Y009679D01*
X015390Y009649D01*
X015399Y009620D01*
X015412Y009593D01*
X015427Y009567D01*
X015446Y009543D01*
X015467Y009522D01*
X015491Y009503D01*
X015517Y009488D01*
X015544Y009475D01*
X015573Y009466D01*
X015603Y009461D01*
X015633Y009459D01*
X016033Y009709D02*
X016031Y009748D01*
X016025Y009787D01*
X016016Y009825D01*
X016003Y009862D01*
X015986Y009898D01*
X015966Y009931D01*
X015942Y009963D01*
X015916Y009992D01*
X015887Y010018D01*
X015855Y010042D01*
X015822Y010062D01*
X015786Y010079D01*
X015749Y010092D01*
X015711Y010101D01*
X015672Y010107D01*
X015633Y010109D01*
X015633Y009959D02*
X015663Y009957D01*
X015693Y009952D01*
X015722Y009943D01*
X015749Y009930D01*
X015775Y009915D01*
X015799Y009896D01*
X015820Y009875D01*
X015839Y009851D01*
X015854Y009825D01*
X015867Y009798D01*
X015876Y009769D01*
X015881Y009739D01*
X015883Y009709D01*
X016083Y011379D02*
X015183Y011379D01*
X015183Y012039D02*
X016083Y012039D01*
X015033Y013709D02*
X015035Y013756D01*
X015041Y013804D01*
X015050Y013850D01*
X015063Y013896D01*
X015079Y013940D01*
X015100Y013984D01*
X015123Y014025D01*
X015149Y014064D01*
X015179Y014101D01*
X015212Y014136D01*
X015247Y014168D01*
X015284Y014197D01*
X016233Y013709D02*
X016231Y013664D01*
X016226Y013618D01*
X016218Y013574D01*
X016206Y013530D01*
X016190Y013487D01*
X016172Y013445D01*
X016150Y013405D01*
X016126Y013367D01*
X016099Y013331D01*
X016069Y013296D01*
X016036Y013265D01*
X016001Y013235D01*
X016032Y013261D02*
X015994Y013230D01*
X015954Y013202D01*
X015912Y013178D01*
X015869Y013157D01*
X015823Y013140D01*
X015777Y013127D01*
X015729Y013117D01*
X015681Y013111D01*
X015633Y013109D01*
X016233Y013709D02*
X016231Y013754D01*
X016226Y013800D01*
X016218Y013844D01*
X016206Y013888D01*
X016190Y013931D01*
X016172Y013973D01*
X016150Y014013D01*
X016126Y014051D01*
X016099Y014087D01*
X016069Y014122D01*
X016036Y014153D01*
X016001Y014183D01*
X015633Y014309D02*
X015586Y014307D01*
X015539Y014302D01*
X015493Y014292D01*
X015447Y014279D01*
X015403Y014263D01*
X015360Y014243D01*
X015319Y014220D01*
X015280Y014194D01*
X015243Y014165D01*
X015633Y014309D02*
X015679Y014307D01*
X015725Y014302D01*
X015771Y014293D01*
X015815Y014281D01*
X015859Y014265D01*
X015901Y014246D01*
X015942Y014224D01*
X015980Y014198D01*
X016017Y014170D01*
X015633Y014109D02*
X015672Y014107D01*
X015711Y014101D01*
X015749Y014092D01*
X015786Y014079D01*
X015822Y014062D01*
X015855Y014042D01*
X015887Y014018D01*
X015916Y013992D01*
X015942Y013963D01*
X015966Y013931D01*
X015986Y013898D01*
X016003Y013862D01*
X016016Y013825D01*
X016025Y013787D01*
X016031Y013748D01*
X016033Y013709D01*
X015633Y013109D02*
X015587Y013111D01*
X015541Y013116D01*
X015495Y013125D01*
X015451Y013137D01*
X015407Y013153D01*
X015365Y013172D01*
X015324Y013194D01*
X015286Y013220D01*
X015249Y013248D01*
X015883Y013709D02*
X015881Y013739D01*
X015876Y013769D01*
X015867Y013798D01*
X015854Y013825D01*
X015839Y013851D01*
X015820Y013875D01*
X015799Y013896D01*
X015775Y013915D01*
X015749Y013930D01*
X015722Y013943D01*
X015693Y013952D01*
X015663Y013957D01*
X015633Y013959D01*
X015233Y013709D02*
X015235Y013670D01*
X015241Y013631D01*
X015250Y013593D01*
X015263Y013556D01*
X015280Y013520D01*
X015300Y013487D01*
X015324Y013455D01*
X015350Y013426D01*
X015379Y013400D01*
X015411Y013376D01*
X015444Y013356D01*
X015480Y013339D01*
X015517Y013326D01*
X015555Y013317D01*
X015594Y013311D01*
X015633Y013309D01*
X015633Y013459D02*
X015603Y013461D01*
X015573Y013466D01*
X015544Y013475D01*
X015517Y013488D01*
X015491Y013503D01*
X015467Y013522D01*
X015446Y013543D01*
X015427Y013567D01*
X015412Y013593D01*
X015399Y013620D01*
X015390Y013649D01*
X015385Y013679D01*
X015383Y013709D01*
X015033Y013709D02*
X015035Y013663D01*
X015040Y013617D01*
X015049Y013571D01*
X015061Y013526D01*
X015077Y013483D01*
X015096Y013441D01*
X015119Y013400D01*
X015144Y013361D01*
X015172Y013325D01*
X015203Y013290D01*
X015237Y013258D01*
X015273Y013229D01*
X015033Y016209D02*
X015035Y016254D01*
X015040Y016300D01*
X015048Y016344D01*
X015060Y016388D01*
X015076Y016431D01*
X015094Y016473D01*
X015116Y016513D01*
X015140Y016551D01*
X015167Y016587D01*
X015197Y016622D01*
X015230Y016653D01*
X015265Y016683D01*
X015234Y016657D02*
X015272Y016688D01*
X015312Y016716D01*
X015354Y016740D01*
X015397Y016761D01*
X015443Y016778D01*
X015489Y016791D01*
X015537Y016801D01*
X015585Y016807D01*
X015633Y016809D01*
X016233Y016209D02*
X016231Y016162D01*
X016225Y016114D01*
X016216Y016068D01*
X016203Y016022D01*
X016187Y015978D01*
X016166Y015934D01*
X016143Y015893D01*
X016117Y015854D01*
X016087Y015817D01*
X016054Y015782D01*
X016019Y015750D01*
X015982Y015721D01*
X015633Y015609D02*
X015587Y015611D01*
X015541Y015616D01*
X015495Y015625D01*
X015451Y015637D01*
X015407Y015653D01*
X015365Y015672D01*
X015324Y015694D01*
X015286Y015720D01*
X015249Y015748D01*
X015633Y015609D02*
X015680Y015611D01*
X015727Y015616D01*
X015773Y015626D01*
X015819Y015639D01*
X015863Y015655D01*
X015906Y015675D01*
X015947Y015698D01*
X015986Y015724D01*
X016023Y015753D01*
X015633Y015809D02*
X015594Y015811D01*
X015555Y015817D01*
X015517Y015826D01*
X015480Y015839D01*
X015444Y015856D01*
X015411Y015876D01*
X015379Y015900D01*
X015350Y015926D01*
X015324Y015955D01*
X015300Y015987D01*
X015280Y016020D01*
X015263Y016056D01*
X015250Y016093D01*
X015241Y016131D01*
X015235Y016170D01*
X015233Y016209D01*
X015633Y016809D02*
X015679Y016807D01*
X015725Y016802D01*
X015771Y016793D01*
X015815Y016781D01*
X015859Y016765D01*
X015901Y016746D01*
X015942Y016724D01*
X015980Y016698D01*
X016017Y016670D01*
X015033Y016209D02*
X015035Y016164D01*
X015040Y016118D01*
X015048Y016074D01*
X015060Y016030D01*
X015076Y015987D01*
X015094Y015945D01*
X015116Y015905D01*
X015140Y015867D01*
X015167Y015831D01*
X015197Y015796D01*
X015230Y015765D01*
X015265Y015735D01*
X016233Y016209D02*
X016231Y016255D01*
X016226Y016301D01*
X016217Y016347D01*
X016205Y016392D01*
X016189Y016435D01*
X016170Y016477D01*
X016147Y016518D01*
X016122Y016557D01*
X016094Y016593D01*
X016063Y016628D01*
X016029Y016660D01*
X015993Y016689D01*
X015383Y016209D02*
X015385Y016179D01*
X015390Y016149D01*
X015399Y016120D01*
X015412Y016093D01*
X015427Y016067D01*
X015446Y016043D01*
X015467Y016022D01*
X015491Y016003D01*
X015517Y015988D01*
X015544Y015975D01*
X015573Y015966D01*
X015603Y015961D01*
X015633Y015959D01*
X016033Y016209D02*
X016031Y016248D01*
X016025Y016287D01*
X016016Y016325D01*
X016003Y016362D01*
X015986Y016398D01*
X015966Y016431D01*
X015942Y016463D01*
X015916Y016492D01*
X015887Y016518D01*
X015855Y016542D01*
X015822Y016562D01*
X015786Y016579D01*
X015749Y016592D01*
X015711Y016601D01*
X015672Y016607D01*
X015633Y016609D01*
X015633Y016459D02*
X015663Y016457D01*
X015693Y016452D01*
X015722Y016443D01*
X015749Y016430D01*
X015775Y016415D01*
X015799Y016396D01*
X015820Y016375D01*
X015839Y016351D01*
X015854Y016325D01*
X015867Y016298D01*
X015876Y016269D01*
X015881Y016239D01*
X015883Y016209D01*
X016083Y017879D02*
X015183Y017879D01*
X015183Y018539D02*
X016083Y018539D01*
X015033Y020209D02*
X015035Y020256D01*
X015041Y020304D01*
X015050Y020350D01*
X015063Y020396D01*
X015079Y020440D01*
X015100Y020484D01*
X015123Y020525D01*
X015149Y020564D01*
X015179Y020601D01*
X015212Y020636D01*
X015247Y020668D01*
X015284Y020697D01*
X016233Y020209D02*
X016231Y020164D01*
X016226Y020118D01*
X016218Y020074D01*
X016206Y020030D01*
X016190Y019987D01*
X016172Y019945D01*
X016150Y019905D01*
X016126Y019867D01*
X016099Y019831D01*
X016069Y019796D01*
X016036Y019765D01*
X016001Y019735D01*
X016032Y019761D02*
X015994Y019730D01*
X015954Y019702D01*
X015912Y019678D01*
X015869Y019657D01*
X015823Y019640D01*
X015777Y019627D01*
X015729Y019617D01*
X015681Y019611D01*
X015633Y019609D01*
X016233Y020209D02*
X016231Y020254D01*
X016226Y020300D01*
X016218Y020344D01*
X016206Y020388D01*
X016190Y020431D01*
X016172Y020473D01*
X016150Y020513D01*
X016126Y020551D01*
X016099Y020587D01*
X016069Y020622D01*
X016036Y020653D01*
X016001Y020683D01*
X015633Y020809D02*
X015586Y020807D01*
X015539Y020802D01*
X015493Y020792D01*
X015447Y020779D01*
X015403Y020763D01*
X015360Y020743D01*
X015319Y020720D01*
X015280Y020694D01*
X015243Y020665D01*
X015633Y020809D02*
X015679Y020807D01*
X015725Y020802D01*
X015771Y020793D01*
X015815Y020781D01*
X015859Y020765D01*
X015901Y020746D01*
X015942Y020724D01*
X015980Y020698D01*
X016017Y020670D01*
X015633Y020609D02*
X015672Y020607D01*
X015711Y020601D01*
X015749Y020592D01*
X015786Y020579D01*
X015822Y020562D01*
X015855Y020542D01*
X015887Y020518D01*
X015916Y020492D01*
X015942Y020463D01*
X015966Y020431D01*
X015986Y020398D01*
X016003Y020362D01*
X016016Y020325D01*
X016025Y020287D01*
X016031Y020248D01*
X016033Y020209D01*
X015633Y019609D02*
X015587Y019611D01*
X015541Y019616D01*
X015495Y019625D01*
X015451Y019637D01*
X015407Y019653D01*
X015365Y019672D01*
X015324Y019694D01*
X015286Y019720D01*
X015249Y019748D01*
X015883Y020209D02*
X015881Y020239D01*
X015876Y020269D01*
X015867Y020298D01*
X015854Y020325D01*
X015839Y020351D01*
X015820Y020375D01*
X015799Y020396D01*
X015775Y020415D01*
X015749Y020430D01*
X015722Y020443D01*
X015693Y020452D01*
X015663Y020457D01*
X015633Y020459D01*
X015233Y020209D02*
X015235Y020170D01*
X015241Y020131D01*
X015250Y020093D01*
X015263Y020056D01*
X015280Y020020D01*
X015300Y019987D01*
X015324Y019955D01*
X015350Y019926D01*
X015379Y019900D01*
X015411Y019876D01*
X015444Y019856D01*
X015480Y019839D01*
X015517Y019826D01*
X015555Y019817D01*
X015594Y019811D01*
X015633Y019809D01*
X015633Y019959D02*
X015603Y019961D01*
X015573Y019966D01*
X015544Y019975D01*
X015517Y019988D01*
X015491Y020003D01*
X015467Y020022D01*
X015446Y020043D01*
X015427Y020067D01*
X015412Y020093D01*
X015399Y020120D01*
X015390Y020149D01*
X015385Y020179D01*
X015383Y020209D01*
X015033Y020209D02*
X015035Y020163D01*
X015040Y020117D01*
X015049Y020071D01*
X015061Y020026D01*
X015077Y019983D01*
X015096Y019941D01*
X015119Y019900D01*
X015144Y019861D01*
X015172Y019825D01*
X015203Y019790D01*
X015237Y019758D01*
X015273Y019729D01*
X013032Y019761D02*
X012994Y019730D01*
X012954Y019702D01*
X012912Y019678D01*
X012869Y019657D01*
X012823Y019640D01*
X012777Y019627D01*
X012729Y019617D01*
X012681Y019611D01*
X012633Y019609D01*
X012033Y020209D02*
X012035Y020256D01*
X012041Y020304D01*
X012050Y020350D01*
X012063Y020396D01*
X012079Y020440D01*
X012100Y020484D01*
X012123Y020525D01*
X012149Y020564D01*
X012179Y020601D01*
X012212Y020636D01*
X012247Y020668D01*
X012284Y020697D01*
X013233Y020209D02*
X013231Y020164D01*
X013226Y020118D01*
X013218Y020074D01*
X013206Y020030D01*
X013190Y019987D01*
X013172Y019945D01*
X013150Y019905D01*
X013126Y019867D01*
X013099Y019831D01*
X013069Y019796D01*
X013036Y019765D01*
X013001Y019735D01*
X012633Y020809D02*
X012586Y020807D01*
X012539Y020802D01*
X012493Y020792D01*
X012447Y020779D01*
X012403Y020763D01*
X012360Y020743D01*
X012319Y020720D01*
X012280Y020694D01*
X012243Y020665D01*
X012633Y020809D02*
X012679Y020807D01*
X012725Y020802D01*
X012771Y020793D01*
X012815Y020781D01*
X012859Y020765D01*
X012901Y020746D01*
X012942Y020724D01*
X012980Y020698D01*
X013017Y020670D01*
X012633Y020609D02*
X012672Y020607D01*
X012711Y020601D01*
X012749Y020592D01*
X012786Y020579D01*
X012822Y020562D01*
X012855Y020542D01*
X012887Y020518D01*
X012916Y020492D01*
X012942Y020463D01*
X012966Y020431D01*
X012986Y020398D01*
X013003Y020362D01*
X013016Y020325D01*
X013025Y020287D01*
X013031Y020248D01*
X013033Y020209D01*
X012633Y019609D02*
X012587Y019611D01*
X012541Y019616D01*
X012495Y019625D01*
X012451Y019637D01*
X012407Y019653D01*
X012365Y019672D01*
X012324Y019694D01*
X012286Y019720D01*
X012249Y019748D01*
X013233Y020209D02*
X013231Y020254D01*
X013226Y020300D01*
X013218Y020344D01*
X013206Y020388D01*
X013190Y020431D01*
X013172Y020473D01*
X013150Y020513D01*
X013126Y020551D01*
X013099Y020587D01*
X013069Y020622D01*
X013036Y020653D01*
X013001Y020683D01*
X012633Y020459D02*
X012663Y020457D01*
X012693Y020452D01*
X012722Y020443D01*
X012749Y020430D01*
X012775Y020415D01*
X012799Y020396D01*
X012820Y020375D01*
X012839Y020351D01*
X012854Y020325D01*
X012867Y020298D01*
X012876Y020269D01*
X012881Y020239D01*
X012883Y020209D01*
X012633Y019809D02*
X012594Y019811D01*
X012555Y019817D01*
X012517Y019826D01*
X012480Y019839D01*
X012444Y019856D01*
X012411Y019876D01*
X012379Y019900D01*
X012350Y019926D01*
X012324Y019955D01*
X012300Y019987D01*
X012280Y020020D01*
X012263Y020056D01*
X012250Y020093D01*
X012241Y020131D01*
X012235Y020170D01*
X012233Y020209D01*
X012383Y020209D02*
X012385Y020179D01*
X012390Y020149D01*
X012399Y020120D01*
X012412Y020093D01*
X012427Y020067D01*
X012446Y020043D01*
X012467Y020022D01*
X012491Y020003D01*
X012517Y019988D01*
X012544Y019975D01*
X012573Y019966D01*
X012603Y019961D01*
X012633Y019959D01*
X012273Y019729D02*
X012237Y019758D01*
X012203Y019790D01*
X012172Y019825D01*
X012144Y019861D01*
X012119Y019900D01*
X012096Y019941D01*
X012077Y019983D01*
X012061Y020026D01*
X012049Y020071D01*
X012040Y020117D01*
X012035Y020163D01*
X012033Y020209D01*
X010233Y003209D02*
X010231Y003162D01*
X010225Y003114D01*
X010216Y003068D01*
X010203Y003022D01*
X010187Y002978D01*
X010166Y002934D01*
X010143Y002893D01*
X010117Y002854D01*
X010087Y002817D01*
X010054Y002782D01*
X010019Y002750D01*
X009982Y002721D01*
X009033Y003209D02*
X009035Y003254D01*
X009040Y003300D01*
X009048Y003344D01*
X009060Y003388D01*
X009076Y003431D01*
X009094Y003473D01*
X009116Y003513D01*
X009140Y003551D01*
X009167Y003587D01*
X009197Y003622D01*
X009230Y003653D01*
X009265Y003683D01*
X009234Y003657D02*
X009272Y003688D01*
X009312Y003716D01*
X009354Y003740D01*
X009397Y003761D01*
X009443Y003778D01*
X009489Y003791D01*
X009537Y003801D01*
X009585Y003807D01*
X009633Y003809D01*
X009033Y003209D02*
X009035Y003164D01*
X009040Y003118D01*
X009048Y003074D01*
X009060Y003030D01*
X009076Y002987D01*
X009094Y002945D01*
X009116Y002905D01*
X009140Y002867D01*
X009167Y002831D01*
X009197Y002796D01*
X009230Y002765D01*
X009265Y002735D01*
X009633Y002609D02*
X009680Y002611D01*
X009727Y002616D01*
X009773Y002626D01*
X009819Y002639D01*
X009863Y002655D01*
X009906Y002675D01*
X009947Y002698D01*
X009986Y002724D01*
X010023Y002753D01*
X009633Y002609D02*
X009587Y002611D01*
X009541Y002616D01*
X009495Y002625D01*
X009451Y002637D01*
X009407Y002653D01*
X009365Y002672D01*
X009324Y002694D01*
X009286Y002720D01*
X009249Y002748D01*
X010233Y003209D02*
X010231Y003255D01*
X010226Y003301D01*
X010217Y003347D01*
X010205Y003392D01*
X010189Y003435D01*
X010170Y003477D01*
X010147Y003518D01*
X010122Y003557D01*
X010094Y003593D01*
X010063Y003628D01*
X010029Y003660D01*
X009993Y003689D01*
X009233Y003209D02*
X009235Y003170D01*
X009241Y003131D01*
X009250Y003093D01*
X009263Y003056D01*
X009280Y003020D01*
X009300Y002987D01*
X009324Y002955D01*
X009350Y002926D01*
X009379Y002900D01*
X009411Y002876D01*
X009444Y002856D01*
X009480Y002839D01*
X009517Y002826D01*
X009555Y002817D01*
X009594Y002811D01*
X009633Y002809D01*
X009633Y002959D02*
X009603Y002961D01*
X009573Y002966D01*
X009544Y002975D01*
X009517Y002988D01*
X009491Y003003D01*
X009467Y003022D01*
X009446Y003043D01*
X009427Y003067D01*
X009412Y003093D01*
X009399Y003120D01*
X009390Y003149D01*
X009385Y003179D01*
X009383Y003209D01*
X009633Y003809D02*
X009679Y003807D01*
X009725Y003802D01*
X009771Y003793D01*
X009815Y003781D01*
X009859Y003765D01*
X009901Y003746D01*
X009942Y003724D01*
X009980Y003698D01*
X010017Y003670D01*
X009633Y003609D02*
X009672Y003607D01*
X009711Y003601D01*
X009749Y003592D01*
X009786Y003579D01*
X009822Y003562D01*
X009855Y003542D01*
X009887Y003518D01*
X009916Y003492D01*
X009942Y003463D01*
X009966Y003431D01*
X009986Y003398D01*
X010003Y003362D01*
X010016Y003325D01*
X010025Y003287D01*
X010031Y003248D01*
X010033Y003209D01*
X009883Y003209D02*
X009881Y003239D01*
X009876Y003269D01*
X009867Y003298D01*
X009854Y003325D01*
X009839Y003351D01*
X009820Y003375D01*
X009799Y003396D01*
X009775Y003415D01*
X009749Y003430D01*
X009722Y003443D01*
X009693Y003452D01*
X009663Y003457D01*
X009633Y003459D01*
X015234Y003657D02*
X015272Y003688D01*
X015312Y003716D01*
X015354Y003740D01*
X015397Y003761D01*
X015443Y003778D01*
X015489Y003791D01*
X015537Y003801D01*
X015585Y003807D01*
X015633Y003809D01*
X016233Y003209D02*
X016231Y003162D01*
X016225Y003114D01*
X016216Y003068D01*
X016203Y003022D01*
X016187Y002978D01*
X016166Y002934D01*
X016143Y002893D01*
X016117Y002854D01*
X016087Y002817D01*
X016054Y002782D01*
X016019Y002750D01*
X015982Y002721D01*
X015033Y003209D02*
X015035Y003254D01*
X015040Y003300D01*
X015048Y003344D01*
X015060Y003388D01*
X015076Y003431D01*
X015094Y003473D01*
X015116Y003513D01*
X015140Y003551D01*
X015167Y003587D01*
X015197Y003622D01*
X015230Y003653D01*
X015265Y003683D01*
X015633Y002609D02*
X015680Y002611D01*
X015727Y002616D01*
X015773Y002626D01*
X015819Y002639D01*
X015863Y002655D01*
X015906Y002675D01*
X015947Y002698D01*
X015986Y002724D01*
X016023Y002753D01*
X015633Y002609D02*
X015587Y002611D01*
X015541Y002616D01*
X015495Y002625D01*
X015451Y002637D01*
X015407Y002653D01*
X015365Y002672D01*
X015324Y002694D01*
X015286Y002720D01*
X015249Y002748D01*
X016233Y003209D02*
X016231Y003255D01*
X016226Y003301D01*
X016217Y003347D01*
X016205Y003392D01*
X016189Y003435D01*
X016170Y003477D01*
X016147Y003518D01*
X016122Y003557D01*
X016094Y003593D01*
X016063Y003628D01*
X016029Y003660D01*
X015993Y003689D01*
X015033Y003209D02*
X015035Y003164D01*
X015040Y003118D01*
X015048Y003074D01*
X015060Y003030D01*
X015076Y002987D01*
X015094Y002945D01*
X015116Y002905D01*
X015140Y002867D01*
X015167Y002831D01*
X015197Y002796D01*
X015230Y002765D01*
X015265Y002735D01*
X015633Y003809D02*
X015679Y003807D01*
X015725Y003802D01*
X015771Y003793D01*
X015815Y003781D01*
X015859Y003765D01*
X015901Y003746D01*
X015942Y003724D01*
X015980Y003698D01*
X016017Y003670D01*
X015233Y003209D02*
X015235Y003170D01*
X015241Y003131D01*
X015250Y003093D01*
X015263Y003056D01*
X015280Y003020D01*
X015300Y002987D01*
X015324Y002955D01*
X015350Y002926D01*
X015379Y002900D01*
X015411Y002876D01*
X015444Y002856D01*
X015480Y002839D01*
X015517Y002826D01*
X015555Y002817D01*
X015594Y002811D01*
X015633Y002809D01*
X015633Y002959D02*
X015603Y002961D01*
X015573Y002966D01*
X015544Y002975D01*
X015517Y002988D01*
X015491Y003003D01*
X015467Y003022D01*
X015446Y003043D01*
X015427Y003067D01*
X015412Y003093D01*
X015399Y003120D01*
X015390Y003149D01*
X015385Y003179D01*
X015383Y003209D01*
X015633Y003609D02*
X015672Y003607D01*
X015711Y003601D01*
X015749Y003592D01*
X015786Y003579D01*
X015822Y003562D01*
X015855Y003542D01*
X015887Y003518D01*
X015916Y003492D01*
X015942Y003463D01*
X015966Y003431D01*
X015986Y003398D01*
X016003Y003362D01*
X016016Y003325D01*
X016025Y003287D01*
X016031Y003248D01*
X016033Y003209D01*
X015883Y003209D02*
X015881Y003239D01*
X015876Y003269D01*
X015867Y003298D01*
X015854Y003325D01*
X015839Y003351D01*
X015820Y003375D01*
X015799Y003396D01*
X015775Y003415D01*
X015749Y003430D01*
X015722Y003443D01*
X015693Y003452D01*
X015663Y003457D01*
X015633Y003459D01*
D12*
X015614Y004229D02*
X015614Y004690D01*
X015844Y004536D02*
X015614Y004383D01*
X015844Y004229D01*
X015460Y004229D02*
X015153Y004229D01*
X015307Y004229D02*
X015307Y004690D01*
X015153Y004536D01*
X012844Y004536D02*
X012614Y004383D01*
X012844Y004229D01*
X012614Y004229D02*
X012614Y004690D01*
X012307Y004690D02*
X012307Y004229D01*
X012460Y004229D02*
X012153Y004229D01*
X012153Y004536D02*
X012307Y004690D01*
X009844Y004536D02*
X009614Y004383D01*
X009844Y004229D01*
X009614Y004229D02*
X009614Y004690D01*
X009307Y004690D02*
X009307Y004229D01*
X009460Y004229D02*
X009153Y004229D01*
X009153Y004536D02*
X009307Y004690D01*
X007500Y005729D02*
X007270Y005883D01*
X007500Y006036D01*
X007270Y006190D02*
X007270Y005729D01*
X007116Y005729D02*
X006809Y005729D01*
X006963Y005729D02*
X006963Y006190D01*
X006809Y006036D01*
X004844Y004536D02*
X004614Y004383D01*
X004844Y004229D01*
X004614Y004229D02*
X004614Y004690D01*
X004307Y004690D02*
X004307Y004229D01*
X004460Y004229D02*
X004153Y004229D01*
X004113Y004229D02*
X004113Y004470D01*
X004153Y004536D02*
X004307Y004690D01*
X004113Y004598D02*
X003873Y004838D01*
X003813Y004838D01*
X003753Y004778D01*
X003753Y004658D01*
X003813Y004598D01*
X003813Y004470D02*
X003753Y004410D01*
X003753Y004290D01*
X003813Y004229D01*
X003813Y004470D02*
X003873Y004470D01*
X004113Y004229D01*
X004113Y004598D02*
X004113Y004838D01*
X003933Y004966D02*
X003933Y005206D01*
X003813Y005334D02*
X003753Y005394D01*
X003753Y005515D01*
X003813Y005575D01*
X003873Y005575D01*
X004113Y005334D01*
X004113Y005575D01*
X004053Y005703D02*
X004113Y005763D01*
X004113Y005883D01*
X004053Y005943D01*
X003993Y005943D01*
X003933Y005883D01*
X003933Y005823D01*
X003933Y005883D02*
X003873Y005943D01*
X003813Y005943D01*
X003753Y005883D01*
X003753Y005763D01*
X003813Y005703D01*
X003933Y006071D02*
X003933Y006311D01*
X003813Y006439D02*
X003753Y006499D01*
X003753Y006620D01*
X003813Y006680D01*
X003873Y006680D01*
X004113Y006439D01*
X004113Y006680D01*
X004053Y006808D02*
X003813Y006808D01*
X003753Y006868D01*
X003753Y006988D01*
X003813Y007048D01*
X004053Y006808D01*
X004113Y006868D01*
X004113Y006988D01*
X004053Y007048D01*
X003813Y007048D01*
X003813Y007176D02*
X003753Y007236D01*
X003753Y007356D01*
X003813Y007416D01*
X003873Y007416D01*
X004113Y007176D01*
X004113Y007416D01*
X004113Y007544D02*
X004113Y007785D01*
X004113Y007664D02*
X003753Y007664D01*
X003873Y007544D01*
X003813Y010729D02*
X003753Y010790D01*
X003753Y010910D01*
X003813Y010970D01*
X003873Y010970D01*
X004113Y010729D01*
X004113Y010970D01*
X004153Y011036D02*
X004307Y011190D01*
X004307Y010729D01*
X004460Y010729D02*
X004153Y010729D01*
X004113Y011098D02*
X003873Y011338D01*
X003813Y011338D01*
X003753Y011278D01*
X003753Y011158D01*
X003813Y011098D01*
X004113Y011098D02*
X004113Y011338D01*
X003933Y011466D02*
X003933Y011706D01*
X003813Y011834D02*
X003753Y011894D01*
X003753Y012015D01*
X003813Y012075D01*
X003873Y012075D01*
X004113Y011834D01*
X004113Y012075D01*
X004053Y012203D02*
X004113Y012263D01*
X004113Y012383D01*
X004053Y012443D01*
X003993Y012443D01*
X003933Y012383D01*
X003933Y012323D01*
X003933Y012383D02*
X003873Y012443D01*
X003813Y012443D01*
X003753Y012383D01*
X003753Y012263D01*
X003813Y012203D01*
X003933Y012571D02*
X003933Y012811D01*
X003813Y012939D02*
X003753Y012999D01*
X003753Y013120D01*
X003813Y013180D01*
X003873Y013180D01*
X004113Y012939D01*
X004113Y013180D01*
X004053Y013308D02*
X003813Y013548D01*
X004053Y013548D01*
X004113Y013488D01*
X004113Y013368D01*
X004053Y013308D01*
X003813Y013308D01*
X003753Y013368D01*
X003753Y013488D01*
X003813Y013548D01*
X003813Y013676D02*
X003753Y013736D01*
X003753Y013856D01*
X003813Y013916D01*
X003873Y013916D01*
X004113Y013676D01*
X004113Y013916D01*
X004113Y014044D02*
X004113Y014285D01*
X004113Y014164D02*
X003753Y014164D01*
X003873Y014044D01*
X004614Y011190D02*
X004614Y010729D01*
X004614Y010883D02*
X004844Y011036D01*
X004614Y010883D02*
X004844Y010729D01*
X006809Y012229D02*
X007116Y012229D01*
X006963Y012229D02*
X006963Y012690D01*
X006809Y012536D01*
X007270Y012383D02*
X007500Y012536D01*
X007270Y012383D02*
X007500Y012229D01*
X007270Y012229D02*
X007270Y012690D01*
X009153Y011036D02*
X009307Y011190D01*
X009307Y010729D01*
X009460Y010729D02*
X009153Y010729D01*
X009614Y010729D02*
X009614Y011190D01*
X009844Y011036D02*
X009614Y010883D01*
X009844Y010729D01*
X012153Y010729D02*
X012460Y010729D01*
X012307Y010729D02*
X012307Y011190D01*
X012153Y011036D01*
X012614Y010883D02*
X012844Y011036D01*
X012614Y010883D02*
X012844Y010729D01*
X012614Y010729D02*
X012614Y011190D01*
X015153Y011036D02*
X015307Y011190D01*
X015307Y010729D01*
X015460Y010729D02*
X015153Y010729D01*
X015614Y010729D02*
X015614Y011190D01*
X015844Y011036D02*
X015614Y010883D01*
X015844Y010729D01*
X015844Y017229D02*
X015614Y017383D01*
X015844Y017536D01*
X015614Y017690D02*
X015614Y017229D01*
X015460Y017229D02*
X015153Y017229D01*
X015307Y017229D02*
X015307Y017690D01*
X015153Y017536D01*
X012844Y017536D02*
X012614Y017383D01*
X012844Y017229D01*
X012614Y017229D02*
X012614Y017690D01*
X012307Y017690D02*
X012307Y017229D01*
X012460Y017229D02*
X012153Y017229D01*
X012153Y017536D02*
X012307Y017690D01*
X009844Y017536D02*
X009614Y017383D01*
X009844Y017229D01*
X009614Y017229D02*
X009614Y017690D01*
X009307Y017690D02*
X009307Y017229D01*
X009460Y017229D02*
X009153Y017229D01*
X009153Y017536D02*
X009307Y017690D01*
X007500Y018729D02*
X007270Y018883D01*
X007500Y019036D01*
X007270Y019190D02*
X007270Y018729D01*
X007116Y018729D02*
X006809Y018729D01*
X006963Y018729D02*
X006963Y019190D01*
X006809Y019036D01*
X004844Y017536D02*
X004614Y017383D01*
X004844Y017229D01*
X004614Y017229D02*
X004614Y017690D01*
X004307Y017690D02*
X004307Y017229D01*
X004460Y017229D02*
X004153Y017229D01*
X004113Y017229D02*
X004113Y017470D01*
X004153Y017536D02*
X004307Y017690D01*
X004113Y017598D02*
X004113Y017838D01*
X003933Y017966D02*
X003933Y018206D01*
X003813Y018334D02*
X003753Y018394D01*
X003753Y018515D01*
X003813Y018575D01*
X003873Y018575D01*
X004113Y018334D01*
X004113Y018575D01*
X004053Y018703D02*
X004113Y018763D01*
X004113Y018883D01*
X004053Y018943D01*
X003993Y018943D01*
X003933Y018883D01*
X003933Y018823D01*
X003933Y018883D02*
X003873Y018943D01*
X003813Y018943D01*
X003753Y018883D01*
X003753Y018763D01*
X003813Y018703D01*
X003933Y019071D02*
X003933Y019311D01*
X003813Y019439D02*
X003753Y019499D01*
X003753Y019620D01*
X003813Y019680D01*
X003873Y019680D01*
X004113Y019439D01*
X004113Y019680D01*
X004053Y019808D02*
X003813Y020048D01*
X004053Y020048D01*
X004113Y019988D01*
X004113Y019868D01*
X004053Y019808D01*
X003813Y019808D01*
X003753Y019868D01*
X003753Y019988D01*
X003813Y020048D01*
X003813Y020176D02*
X003753Y020236D01*
X003753Y020356D01*
X003813Y020416D01*
X003873Y020416D01*
X004113Y020176D01*
X004113Y020416D01*
X004113Y020544D02*
X004113Y020785D01*
X004113Y020664D02*
X003753Y020664D01*
X003873Y020544D01*
X003873Y017838D02*
X003813Y017838D01*
X003753Y017778D01*
X003753Y017658D01*
X003813Y017598D01*
X003813Y017470D02*
X003753Y017410D01*
X003753Y017290D01*
X003813Y017229D01*
X003813Y017470D02*
X003873Y017470D01*
X004113Y017229D01*
X004113Y017598D02*
X003873Y017838D01*
D13*
X004078Y018209D03*
X005188Y018209D03*
X006578Y018209D03*
X007688Y018209D03*
X009078Y018209D03*
X010188Y018209D03*
X012078Y018209D03*
X013188Y018209D03*
X015078Y018209D03*
X016188Y018209D03*
X016188Y011709D03*
X015078Y011709D03*
X013188Y011709D03*
X012078Y011709D03*
X010188Y011709D03*
X009078Y011709D03*
X007688Y011709D03*
X006578Y011709D03*
X005188Y011709D03*
X004078Y011709D03*
X004078Y005209D03*
X005188Y005209D03*
X006578Y005209D03*
X007688Y005209D03*
X009078Y005209D03*
X010188Y005209D03*
X012078Y005209D03*
X013188Y005209D03*
X015078Y005209D03*
X016188Y005209D03*
M02*
