G75*
G70*
%OFA0B0*%
%FSLAX24Y24*%
%IPPOS*%
%LPD*%
%AMOC8*
5,1,8,0,0,1.08239X$1,22.5*
%
%ADD10C,0.0000*%
%ADD11OC8,0.0520*%
%ADD12C,0.0594*%
%ADD13R,0.0630X0.0787*%
%ADD14C,0.0180*%
%ADD15C,0.0280*%
D10*
X000633Y002209D02*
X017133Y002209D01*
X017133Y021209D01*
X000633Y021209D01*
X000633Y002209D01*
D11*
X003633Y002709D03*
X003633Y003709D03*
X003633Y006709D03*
X003633Y007709D03*
X003633Y009209D03*
X003633Y010209D03*
X003633Y013209D03*
X003633Y014209D03*
X003633Y015709D03*
X003633Y016709D03*
X003633Y019709D03*
X003633Y020709D03*
X006633Y020709D03*
X006633Y019709D03*
X006633Y016709D03*
X006633Y015709D03*
X006633Y014209D03*
X006633Y013209D03*
X006633Y010209D03*
X006633Y009209D03*
X006633Y007709D03*
X006633Y006709D03*
X006633Y003709D03*
X006633Y002709D03*
X009633Y002709D03*
X009633Y003709D03*
X009633Y006709D03*
X009633Y007709D03*
X009633Y009209D03*
X009633Y010209D03*
X009633Y013209D03*
X009633Y014209D03*
X009633Y015709D03*
X009633Y016709D03*
X009633Y019709D03*
X009633Y020709D03*
X012633Y020709D03*
X012633Y019709D03*
X012633Y016709D03*
X012633Y015709D03*
X012633Y014209D03*
X012633Y013209D03*
X012633Y010209D03*
X012633Y009209D03*
X012633Y007709D03*
X012633Y006709D03*
X012633Y003709D03*
X012633Y002709D03*
X015633Y002709D03*
X015633Y003709D03*
X015633Y006709D03*
X015633Y007709D03*
X015633Y009209D03*
X015633Y010209D03*
X015633Y013209D03*
X015633Y014209D03*
X015633Y015709D03*
X015633Y016709D03*
X015633Y019709D03*
X015633Y020709D03*
D12*
X002430Y018709D02*
X001836Y018709D01*
X001836Y017709D02*
X002430Y017709D01*
X002430Y012209D02*
X001836Y012209D01*
X001836Y011209D02*
X002430Y011209D01*
X002430Y005709D02*
X001836Y005709D01*
X001836Y004709D02*
X002430Y004709D01*
D13*
X004082Y005209D03*
X005185Y005209D03*
X006582Y005209D03*
X007685Y005209D03*
X009082Y005209D03*
X010185Y005209D03*
X012082Y005209D03*
X013185Y005209D03*
X015082Y005209D03*
X016185Y005209D03*
X016185Y011709D03*
X015082Y011709D03*
X013185Y011709D03*
X012082Y011709D03*
X010185Y011709D03*
X009082Y011709D03*
X007685Y011709D03*
X006582Y011709D03*
X005185Y011709D03*
X004082Y011709D03*
X004082Y018209D03*
X005185Y018209D03*
X006582Y018209D03*
X007685Y018209D03*
X009082Y018209D03*
X010185Y018209D03*
X012082Y018209D03*
X013185Y018209D03*
X015082Y018209D03*
X016185Y018209D03*
D14*
X016173Y018169D01*
X016173Y017209D01*
X015693Y016729D01*
X015633Y016709D01*
X015633Y015709D02*
X015613Y015689D01*
X012653Y015689D01*
X012633Y015709D01*
X012573Y015689D01*
X009693Y015689D01*
X009633Y015709D01*
X009613Y015689D01*
X006653Y015689D01*
X006633Y015709D01*
X006573Y015689D01*
X003693Y015689D01*
X003633Y015709D01*
X003633Y016709D02*
X003693Y016729D01*
X005133Y018169D01*
X005185Y018209D01*
X004813Y018809D02*
X005693Y018809D01*
X005693Y018729D01*
X005693Y018809D02*
X007053Y018809D01*
X007613Y018249D01*
X007685Y018209D01*
X007693Y018249D01*
X009053Y018249D01*
X009082Y018209D01*
X009133Y018249D01*
X009693Y018809D01*
X010573Y018809D01*
X011133Y018249D01*
X012013Y018249D01*
X012082Y018209D01*
X012093Y018249D01*
X012653Y018809D01*
X013533Y018809D01*
X014093Y018249D01*
X015053Y018249D01*
X015082Y018209D01*
X013185Y018209D02*
X013133Y018169D01*
X013133Y017209D01*
X012633Y016709D01*
X012653Y014229D02*
X012633Y014209D01*
X012573Y014229D01*
X009693Y014229D01*
X009633Y014209D01*
X009613Y014229D01*
X006653Y014229D01*
X006633Y014209D01*
X006573Y014229D01*
X003693Y014229D01*
X003633Y014209D01*
X003613Y014149D01*
X002173Y012709D01*
X002173Y012229D01*
X002133Y012209D01*
X002573Y011669D02*
X002173Y011269D01*
X002133Y011209D01*
X002573Y011669D02*
X004013Y011669D01*
X004082Y011709D01*
X004093Y011749D01*
X004253Y011749D01*
X004813Y012309D01*
X005693Y012309D01*
X005693Y012229D01*
X005693Y012309D02*
X007053Y012309D01*
X007613Y011749D01*
X007685Y011709D01*
X007693Y011749D01*
X009053Y011749D01*
X009082Y011709D01*
X009133Y011749D01*
X009693Y012309D01*
X010573Y012309D01*
X011133Y011749D01*
X012013Y011749D01*
X012082Y011709D01*
X012093Y011749D01*
X012653Y012309D01*
X013533Y012309D01*
X014093Y011749D01*
X015053Y011749D01*
X015082Y011709D01*
X016173Y011669D02*
X016173Y010709D01*
X015693Y010229D01*
X015633Y010209D01*
X015633Y009209D02*
X015613Y009189D01*
X012653Y009189D01*
X012633Y009209D01*
X012573Y009189D01*
X009693Y009189D01*
X009633Y009209D01*
X009613Y009189D01*
X006653Y009189D01*
X006633Y009209D01*
X006573Y009189D01*
X003693Y009189D01*
X003633Y009209D01*
X003633Y010209D02*
X003693Y010229D01*
X005133Y011669D01*
X005185Y011709D01*
X006582Y011709D02*
X006653Y011669D01*
X006653Y010229D01*
X006633Y010209D01*
X006653Y007729D02*
X006633Y007709D01*
X006573Y007729D01*
X003693Y007729D01*
X003633Y007709D01*
X003613Y007649D01*
X002173Y006209D01*
X002173Y005729D01*
X002133Y005709D01*
X002573Y005169D02*
X002173Y004769D01*
X002133Y004709D01*
X002573Y005169D02*
X004013Y005169D01*
X004082Y005209D01*
X004093Y005249D01*
X004253Y005249D01*
X004813Y005809D01*
X005693Y005809D01*
X005693Y005729D01*
X005693Y005809D02*
X007053Y005809D01*
X007613Y005249D01*
X007685Y005209D01*
X007693Y005249D01*
X009053Y005249D01*
X009082Y005209D01*
X009133Y005249D01*
X009693Y005809D01*
X010573Y005809D01*
X011133Y005249D01*
X012013Y005249D01*
X012082Y005209D01*
X012093Y005249D01*
X012653Y005809D01*
X013533Y005809D01*
X014093Y005249D01*
X015053Y005249D01*
X015082Y005209D01*
X016173Y005169D02*
X016173Y004209D01*
X015693Y003729D01*
X015633Y003709D01*
X015633Y002709D02*
X015613Y002689D01*
X012653Y002689D01*
X012633Y002709D01*
X012573Y002689D01*
X009693Y002689D01*
X009633Y002709D01*
X009613Y002689D01*
X006653Y002689D01*
X006633Y002709D01*
X006573Y002689D01*
X003693Y002689D01*
X003633Y002709D01*
X003633Y003709D02*
X003693Y003729D01*
X005133Y005169D01*
X005185Y005209D01*
X006582Y005209D02*
X006653Y005169D01*
X006653Y003729D01*
X006633Y003709D01*
X009633Y003709D02*
X009693Y003729D01*
X010173Y004209D01*
X010173Y005169D01*
X010185Y005209D01*
X009633Y007709D02*
X009613Y007729D01*
X006653Y007729D01*
X009633Y007709D02*
X009693Y007729D01*
X012573Y007729D01*
X012633Y007709D01*
X012653Y007729D01*
X015613Y007729D01*
X015633Y007709D01*
X016185Y005209D02*
X016173Y005169D01*
X013185Y005209D02*
X013133Y005169D01*
X013133Y004209D01*
X012633Y003709D01*
X012633Y010209D02*
X013133Y010709D01*
X013133Y011669D01*
X013185Y011709D01*
X012653Y014229D02*
X015613Y014229D01*
X015633Y014209D01*
X016185Y011709D02*
X016173Y011669D01*
X010185Y011709D02*
X010173Y011669D01*
X010173Y010709D01*
X009693Y010229D01*
X009633Y010209D01*
X009633Y016709D02*
X009693Y016729D01*
X010173Y017209D01*
X010173Y018169D01*
X010185Y018209D01*
X009633Y020709D02*
X009613Y020729D01*
X006653Y020729D01*
X006633Y020709D01*
X006573Y020729D01*
X003693Y020729D01*
X003633Y020709D01*
X003613Y020649D01*
X002173Y019209D01*
X002173Y018729D01*
X002133Y018709D01*
X002573Y018169D02*
X002173Y017769D01*
X002133Y017709D01*
X002573Y018169D02*
X004013Y018169D01*
X004082Y018209D01*
X004093Y018249D01*
X004253Y018249D01*
X004813Y018809D01*
X006582Y018209D02*
X006653Y018169D01*
X006653Y016729D01*
X006633Y016709D01*
X009633Y020709D02*
X009693Y020729D01*
X012573Y020729D01*
X012633Y020709D01*
X012653Y020729D01*
X015613Y020729D01*
X015633Y020709D01*
D15*
X005693Y018729D03*
X005693Y012229D03*
X005693Y005729D03*
M02*
