%
M48
M72
T01C0.0120
T02C0.0320
T03C0.0394
%
T01
X5693Y5729
X5693Y12229
X5693Y18729
T02
X6633Y19709
X6633Y20709
X3633Y20709
X3633Y19709
X3633Y16709
X3633Y15709
X3633Y14209
X3633Y13209
X3633Y10209
X3633Y9209
X3633Y7709
X3633Y6709
X3633Y3709
X3633Y2709
X6633Y2709
X6633Y3709
X6633Y6709
X6633Y7709
X6633Y9209
X6633Y10209
X6633Y13209
X6633Y14209
X6633Y15709
X6633Y16709
X9633Y16709
X9633Y15709
X9633Y14209
X9633Y13209
X9633Y10209
X9633Y9209
X9633Y7709
X9633Y6709
X9633Y3709
X9633Y2709
X12633Y2709
X12633Y3709
X12633Y6709
X12633Y7709
X12633Y9209
X12633Y10209
X12633Y13209
X12633Y14209
X12633Y15709
X12633Y16709
X12633Y19709
X12633Y20709
X15633Y20709
X15633Y19709
X15633Y16709
X15633Y15709
X15633Y14209
X15633Y13209
X15633Y10209
X15633Y9209
X15633Y7709
X15633Y6709
X15633Y3709
X15633Y2709
X9633Y19709
X9633Y20709
T03
X2133Y4709
X2133Y5709
X2133Y11209
X2133Y12209
X2133Y17709
X2133Y18709
M30
