G75*
G70*
%OFA0B0*%
%FSLAX24Y24*%
%IPPOS*%
%LPD*%
%AMOC8*
5,1,8,0,0,1.08239X$1,22.5*
%
%ADD10C,0.0060*%
%ADD11C,0.0040*%
%ADD12R,0.0230X0.0720*%
D10*
X004183Y004879D02*
X005083Y004879D01*
X005083Y005539D02*
X004183Y005539D01*
X006683Y005539D02*
X007583Y005539D01*
X007583Y004879D02*
X006683Y004879D01*
X009183Y004879D02*
X010083Y004879D01*
X010083Y005539D02*
X009183Y005539D01*
X012183Y005539D02*
X013083Y005539D01*
X013083Y004879D02*
X012183Y004879D01*
X015183Y004879D02*
X016083Y004879D01*
X016083Y005539D02*
X015183Y005539D01*
X015183Y011379D02*
X016083Y011379D01*
X016083Y012039D02*
X015183Y012039D01*
X013083Y012039D02*
X012183Y012039D01*
X012183Y011379D02*
X013083Y011379D01*
X010083Y011379D02*
X009183Y011379D01*
X009183Y012039D02*
X010083Y012039D01*
X007583Y012039D02*
X006683Y012039D01*
X006683Y011379D02*
X007583Y011379D01*
X005083Y011379D02*
X004183Y011379D01*
X004183Y012039D02*
X005083Y012039D01*
X005083Y017879D02*
X004183Y017879D01*
X004183Y018539D02*
X005083Y018539D01*
X006683Y018539D02*
X007583Y018539D01*
X007583Y017879D02*
X006683Y017879D01*
X009183Y017879D02*
X010083Y017879D01*
X010083Y018539D02*
X009183Y018539D01*
X012183Y018539D02*
X013083Y018539D01*
X013083Y017879D02*
X012183Y017879D01*
X015183Y017879D02*
X016083Y017879D01*
X016083Y018539D02*
X015183Y018539D01*
D11*
X015653Y017690D02*
X015653Y017229D01*
X015806Y017229D02*
X016113Y017229D01*
X015960Y017229D02*
X015960Y017690D01*
X016113Y017536D01*
X015653Y017383D02*
X015423Y017536D01*
X015653Y017383D02*
X015423Y017229D01*
X013113Y017229D02*
X012806Y017229D01*
X012653Y017229D02*
X012653Y017690D01*
X012423Y017536D02*
X012653Y017383D01*
X012423Y017229D01*
X012960Y017229D02*
X012960Y017690D01*
X013113Y017536D01*
X010113Y017536D02*
X009960Y017690D01*
X009960Y017229D01*
X010113Y017229D02*
X009806Y017229D01*
X009653Y017229D02*
X009653Y017690D01*
X009423Y017536D02*
X009653Y017383D01*
X009423Y017229D01*
X007613Y017229D02*
X007306Y017229D01*
X007153Y017229D02*
X007153Y017690D01*
X006923Y017536D02*
X007153Y017383D01*
X006923Y017229D01*
X007460Y017229D02*
X007460Y017690D01*
X007613Y017536D01*
X005113Y017536D02*
X004960Y017690D01*
X004960Y017229D01*
X005113Y017229D02*
X004806Y017229D01*
X004653Y017229D02*
X004653Y017690D01*
X004423Y017536D02*
X004653Y017383D01*
X004423Y017229D01*
X004653Y011190D02*
X004653Y010729D01*
X004806Y010729D02*
X005113Y010729D01*
X004960Y010729D02*
X004960Y011190D01*
X005113Y011036D01*
X004653Y010883D02*
X004423Y011036D01*
X004653Y010883D02*
X004423Y010729D01*
X006923Y010729D02*
X007153Y010883D01*
X006923Y011036D01*
X007153Y011190D02*
X007153Y010729D01*
X007306Y010729D02*
X007613Y010729D01*
X007460Y010729D02*
X007460Y011190D01*
X007613Y011036D01*
X009423Y011036D02*
X009653Y010883D01*
X009423Y010729D01*
X009653Y010729D02*
X009653Y011190D01*
X009960Y011190D02*
X009960Y010729D01*
X010113Y010729D02*
X009806Y010729D01*
X010113Y011036D02*
X009960Y011190D01*
X012423Y011036D02*
X012653Y010883D01*
X012423Y010729D01*
X012653Y010729D02*
X012653Y011190D01*
X012960Y011190D02*
X012960Y010729D01*
X013113Y010729D02*
X012806Y010729D01*
X013113Y011036D02*
X012960Y011190D01*
X015423Y011036D02*
X015653Y010883D01*
X015423Y010729D01*
X015653Y010729D02*
X015653Y011190D01*
X015960Y011190D02*
X015960Y010729D01*
X016113Y010729D02*
X015806Y010729D01*
X016113Y011036D02*
X015960Y011190D01*
X015960Y004690D02*
X015960Y004229D01*
X016113Y004229D02*
X015806Y004229D01*
X015653Y004229D02*
X015653Y004690D01*
X015423Y004536D02*
X015653Y004383D01*
X015423Y004229D01*
X015960Y004690D02*
X016113Y004536D01*
X013113Y004536D02*
X012960Y004690D01*
X012960Y004229D01*
X013113Y004229D02*
X012806Y004229D01*
X012653Y004229D02*
X012653Y004690D01*
X012423Y004536D02*
X012653Y004383D01*
X012423Y004229D01*
X010113Y004229D02*
X009806Y004229D01*
X009653Y004229D02*
X009653Y004690D01*
X009960Y004690D02*
X009960Y004229D01*
X009653Y004383D02*
X009423Y004536D01*
X009653Y004383D02*
X009423Y004229D01*
X009960Y004690D02*
X010113Y004536D01*
X007613Y004536D02*
X007460Y004690D01*
X007460Y004229D01*
X007613Y004229D02*
X007306Y004229D01*
X007153Y004229D02*
X007153Y004690D01*
X006923Y004536D02*
X007153Y004383D01*
X006923Y004229D01*
X005113Y004229D02*
X004806Y004229D01*
X004653Y004229D02*
X004653Y004690D01*
X004960Y004690D02*
X004960Y004229D01*
X005113Y004536D02*
X004960Y004690D01*
X004653Y004383D02*
X004423Y004536D01*
X004653Y004383D02*
X004423Y004229D01*
D12*
X004078Y005209D03*
X005188Y005209D03*
X006578Y005209D03*
X007688Y005209D03*
X009078Y005209D03*
X010188Y005209D03*
X012078Y005209D03*
X013188Y005209D03*
X015078Y005209D03*
X016188Y005209D03*
X016188Y011709D03*
X015078Y011709D03*
X013188Y011709D03*
X012078Y011709D03*
X010188Y011709D03*
X009078Y011709D03*
X007688Y011709D03*
X006578Y011709D03*
X005188Y011709D03*
X004078Y011709D03*
X004078Y018209D03*
X005188Y018209D03*
X006578Y018209D03*
X007688Y018209D03*
X009078Y018209D03*
X010188Y018209D03*
X012078Y018209D03*
X013188Y018209D03*
X015078Y018209D03*
X016188Y018209D03*
M02*
