G75*
G70*
%OFA0B0*%
%FSLAX24Y24*%
%IPPOS*%
%LPD*%
%AMOC8*
5,1,8,0,0,1.08239X$1,22.5*
%
%ADD10C,0.0000*%
%ADD11OC8,0.0600*%
%ADD12C,0.0674*%
%ADD13R,0.0710X0.0867*%
%ADD14C,0.0360*%
D10*
X000633Y002209D02*
X017133Y002209D01*
X017133Y021209D01*
X000633Y021209D01*
X000633Y002209D01*
D11*
X003633Y002709D03*
X003633Y003709D03*
X003633Y006709D03*
X003633Y007709D03*
X003633Y009209D03*
X003633Y010209D03*
X003633Y013209D03*
X003633Y014209D03*
X003633Y015709D03*
X003633Y016709D03*
X003633Y019709D03*
X003633Y020709D03*
X006633Y020709D03*
X006633Y019709D03*
X006633Y016709D03*
X006633Y015709D03*
X006633Y014209D03*
X006633Y013209D03*
X006633Y010209D03*
X006633Y009209D03*
X006633Y007709D03*
X006633Y006709D03*
X006633Y003709D03*
X006633Y002709D03*
X009633Y002709D03*
X009633Y003709D03*
X009633Y006709D03*
X009633Y007709D03*
X009633Y009209D03*
X009633Y010209D03*
X009633Y013209D03*
X009633Y014209D03*
X009633Y015709D03*
X009633Y016709D03*
X009633Y019709D03*
X009633Y020709D03*
X012633Y020709D03*
X012633Y019709D03*
X012633Y016709D03*
X012633Y015709D03*
X012633Y014209D03*
X012633Y013209D03*
X012633Y010209D03*
X012633Y009209D03*
X012633Y007709D03*
X012633Y006709D03*
X012633Y003709D03*
X012633Y002709D03*
X015633Y002709D03*
X015633Y003709D03*
X015633Y006709D03*
X015633Y007709D03*
X015633Y009209D03*
X015633Y010209D03*
X015633Y013209D03*
X015633Y014209D03*
X015633Y015709D03*
X015633Y016709D03*
X015633Y019709D03*
X015633Y020709D03*
D12*
X002430Y018709D02*
X001836Y018709D01*
X001836Y017709D02*
X002430Y017709D01*
X002430Y012209D02*
X001836Y012209D01*
X001836Y011209D02*
X002430Y011209D01*
X002430Y005709D02*
X001836Y005709D01*
X001836Y004709D02*
X002430Y004709D01*
D13*
X004082Y005209D03*
X005185Y005209D03*
X006582Y005209D03*
X007685Y005209D03*
X009082Y005209D03*
X010185Y005209D03*
X012082Y005209D03*
X013185Y005209D03*
X015082Y005209D03*
X016185Y005209D03*
X016185Y011709D03*
X015082Y011709D03*
X013185Y011709D03*
X012082Y011709D03*
X010185Y011709D03*
X009082Y011709D03*
X007685Y011709D03*
X006582Y011709D03*
X005185Y011709D03*
X004082Y011709D03*
X004082Y018209D03*
X005185Y018209D03*
X006582Y018209D03*
X007685Y018209D03*
X009082Y018209D03*
X010185Y018209D03*
X012082Y018209D03*
X013185Y018209D03*
X015082Y018209D03*
X016185Y018209D03*
D14*
X005693Y018729D03*
X005693Y012229D03*
X005693Y005729D03*
M02*
